<svg xmlns="http://www.w3.org/2000/svg" xmlns:xlink="http://www.w3.org/1999/xlink" width="92.344" height="92.344" viewBox="0 0 92.344 92.344">
  <defs>
    <clipPath id="clip-path">
      <rect id="Rectángulo_401506" data-name="Rectángulo 401506" width="92.344" height="92.344" fill="none"/>
    </clipPath>
  </defs>
  <g id="Grupo_1113911" data-name="Grupo 1113911" transform="translate(-439.131 -1090.218)">
    <g id="Grupo_1113643" data-name="Grupo 1113643" transform="translate(439.131 1090.218)">
      <g id="Grupo_1099827" data-name="Grupo 1099827" clip-path="url(#clip-path)">
        <path id="Trazado_883915" data-name="Trazado 883915" d="M92.344,46.173A46.172,46.172,0,1,1,46.172,0,46.172,46.172,0,0,1,92.344,46.173" transform="translate(0 -0.001)" fill="#ffe260"/>
      </g>
    </g>
    <g id="documento" transform="translate(455.964 1108.114)">
      <path id="Trazado_896669" data-name="Trazado 896669" d="M7,16.014A14.014,14.014,0,0,1,21.014,2H33.832a7.007,7.007,0,0,1,4.781,1.884l9.954,9.29A7.007,7.007,0,0,1,50.792,18.3v22.24A14.013,14.013,0,0,1,36.779,54.551H21.014A14.013,14.013,0,0,1,7,40.537ZM21.014,5.5A10.51,10.51,0,0,0,10.5,16.014V40.537a10.51,10.51,0,0,0,10.51,10.51H36.779a10.51,10.51,0,0,0,10.51-10.51V17.765H40.282a7.007,7.007,0,0,1-7.007-7.007V5.5ZM36.779,6.965l7.818,7.3H40.282a3.5,3.5,0,0,1-3.5-3.5Z" fill="#ff494f" fill-rule="evenodd"/>
      <g id="Grupo_1113656" data-name="Grupo 1113656" transform="translate(17.51 25.648)">
        <path id="Trazado_896670" data-name="Trazado 896670" d="M20.752,29a1.752,1.752,0,0,0,0,3.5H42.21a1.752,1.752,0,0,0,0-3.5Z" transform="translate(-19 -29)" fill="#ff494f"/>
        <path id="Trazado_896671" data-name="Trazado 896671" d="M20.752,39a1.752,1.752,0,0,0,0,3.5h10.51a1.752,1.752,0,1,0,0-3.5Z" transform="translate(-19 -30.242)" fill="#ff494f"/>
      </g>
    </g>
  </g>
</svg>
