<svg xmlns="http://www.w3.org/2000/svg" xmlns:xlink="http://www.w3.org/1999/xlink" width="92.344" height="92.344" viewBox="0 0 92.344 92.344">
  <defs>
    <clipPath id="clip-path">
      <rect id="Rectángulo_401506" data-name="Rectángulo 401506" width="92.344" height="92.344" fill="#ff494f"/>
    </clipPath>
  </defs>
  <g id="Grupo_1113916" data-name="Grupo 1113916" transform="translate(-317.708 -3536.337)">
    <g id="Grupo_1113454" data-name="Grupo 1113454" transform="translate(317.708 3536.337)">
      <g id="Grupo_1099827" data-name="Grupo 1099827" clip-path="url(#clip-path)">
        <path id="Trazado_883915" data-name="Trazado 883915" d="M92.344,46.173A46.172,46.172,0,1,1,46.172,0,46.172,46.172,0,0,1,92.344,46.173" transform="translate(0 -0.001)" fill="#ff494f"/>
      </g>
    </g>
    <g id="la-medida" transform="translate(251.233 3551.337)">
      <g id="Grupo_1113445" data-name="Grupo 1113445" transform="translate(91.527)">
        <path id="Trazado_894954" data-name="Trazado 894954" d="M207.435,331.613a5.415,5.415,0,0,0-.937-6.179H194.737a5.415,5.415,0,0,0-.937,6.179l.078.156h13.478Z" transform="translate(-182.666 -291.643)" fill="#12263f"/>
        <path id="Trazado_894955" data-name="Trazado 894955" d="M209.413,410.554l.334.334a3.157,3.157,0,0,1,.926,2.24h9.894a8.277,8.277,0,0,1-.57-2.986v-.591a8.305,8.305,0,0,1,.478-2.758H208.959a8.3,8.3,0,0,1,.478,2.758v.591C209.437,410.28,209.42,410.417,209.413,410.554Zm5.3-1.651a1.056,1.056,0,1,1-1.056,1.056A1.056,1.056,0,0,1,214.717,408.9Z" transform="translate(-196.766 -364.553)" fill="#12263f"/>
        <path id="Trazado_894956" data-name="Trazado 894956" d="M163.772,124.149h1.056v-2.112h-1.056a1.056,1.056,0,1,0,0,2.112Z" transform="translate(-155.324 -109.366)" fill="#12263f"/>
        <path id="Trazado_894957" data-name="Trazado 894957" d="M189.438,488.15H177.523c-.037.041-.064.088-.1.128l-2.294,2.294a3.137,3.137,0,0,1-1.975.9,6.1,6.1,0,0,0-.265,1.776v5.461h19.007v-5.461a6.2,6.2,0,0,0-1.8-4.352A8.274,8.274,0,0,1,189.438,488.15Z" transform="translate(-164.437 -437.464)" fill="#12263f"/>
        <path id="Trazado_894958" data-name="Trazado 894958" d="M157.627,454.837l2.293-2.294a1.057,1.057,0,0,0,0-1.493l-.491-.491a2.113,2.113,0,0,0-2.986,0l-.8.8a2.115,2.115,0,0,0,0,2.986l.491.491A1.055,1.055,0,0,0,157.627,454.837Z" transform="translate(-148.432 -403.223)" fill="#12263f"/>
        <path id="Trazado_894959" data-name="Trazado 894959" d="M459.935,183.056h-.363a1.931,1.931,0,0,0-1.365,3.3l1.547,1.547v12.053h0v2.887a5.818,5.818,0,0,0,2.113-4.493V184.986A1.933,1.933,0,0,0,459.935,183.056Z" transform="translate(-419.626 -164.049)" fill="#12263f"/>
        <path id="Trazado_894960" data-name="Trazado 894960" d="M477.971,396.361h2.112v-14.17a7.916,7.916,0,0,1-2.113,1.608Z" transform="translate(-437.844 -342.507)" fill="#12263f"/>
        <path id="Trazado_894961" data-name="Trazado 894961" d="M345.773,122.038v2.112h1.056a1.056,1.056,0,1,0,0-2.112Z" transform="translate(-319.374 -109.366)" fill="#12263f"/>
        <path id="Trazado_894962" data-name="Trazado 894962" d="M112.834,174.426l.032-.032a13.737,13.737,0,0,1,6.383-3.614l4.24-1.057v-1.692l-.14-.069a7.352,7.352,0,0,1-4.082-6.61v-.313h-1.057a3.133,3.133,0,0,1-1.056-.194v6.53H116.1a2.114,2.114,0,0,0-2.112,2.112.631.631,0,0,1,.018.136l.038.789-.746.26a2.1,2.1,0,0,0-.461,3.753Z" transform="translate(-109.761 -144.145)" fill="#12263f"/>
        <path id="Trazado_894963" data-name="Trazado 894963" d="M420.258,206.073a4.009,4.009,0,0,1-1.166-2.677h-.019a2.112,2.112,0,0,0-2.111,2.111h2.112v2.112h-2.112v2.112h2.112v2.112h-2.112v2.112h2.112v2.112h-2.112v2.112h2.112v2.112h-2.112V222.4h2.112v2.112h-2.112v2.112h2.112v2.112h-2.112v2.112h2.112v2.112h-2.112v2.112h2.112v2.112h-2.112V239.3h2.112v2.112h-2.112v2.112h4.224V207Z" transform="translate(-383.171 -182.277)" fill="#12263f"/>
        <path id="Trazado_894964" data-name="Trazado 894964" d="M165.164,10.56a4.2,4.2,0,0,1,3.194-2.539l.5-.083a5.269,5.269,0,0,1-.577-1.377l-.256-1.024,2.047-.511.256,1.024a3.168,3.168,0,0,0,3.075,2.4h1.168a5.225,5.225,0,0,1,1.962.378l3.033,1.212a3.172,3.172,0,0,0-3.125-2.646V5.28a5.286,5.286,0,0,1,5.28,5.28h1.056a3.132,3.132,0,0,1,1.056.194V10.56a10.56,10.56,0,1,0-21.119,0v.194a3.132,3.132,0,0,1,1.056-.194Z" transform="translate(-155.325 0)" fill="#12263f"/>
        <path id="Trazado_894965" data-name="Trazado 894965" d="M312.5,167.375h-1.056v-6.53a3.132,3.132,0,0,1-1.056.194h-1.055v.31a7.353,7.353,0,0,1-4.087,6.612l-.133.067,0,1.694,4.238,1.057a13.711,13.711,0,0,1,5.264,2.621v-3.913A2.114,2.114,0,0,0,312.5,167.375Z" transform="translate(-282.936 -144.144)" fill="#12263f"/>
        <path id="Trazado_894966" data-name="Trazado 894966" d="M117.43,113.069l-5.839-1.457v-3.341a2.1,2.1,0,0,1,1.168-1.888l.132-.067a5.255,5.255,0,0,0,2.925-4.726V96.714l-3.861-1.544a3.14,3.14,0,0,0-1.177-.227h-1.168a5.252,5.252,0,0,1-2.742-.782l-1.959.327a2.1,2.1,0,0,0-1.765,2.083v5.02a5.253,5.253,0,0,0,2.919,4.722l.14.07a2.1,2.1,0,0,1,1.164,1.887v3.341l-5.839,1.457a11.6,11.6,0,0,0-5.4,3.057L92.851,119.4a4.524,4.524,0,0,0-.372,5.975l4.577,5.884c.066-.075.116-.158.187-.229l.8-.8a4.173,4.173,0,0,1,1.7-1.016l-4.313-7.04,7.332-6.11h13.455l6.99,6.213V116.5l-.374-.374a11.607,11.607,0,0,0-5.4-3.057Zm-4.783-16.014a1.056,1.056,0,1,1-1.056,1.056A1.056,1.056,0,0,1,112.646,97.056Zm-7.392,1.056a1.056,1.056,0,1,1,1.056,1.056A1.056,1.056,0,0,1,105.255,98.111Zm1.056,4.224h2.112a1.056,1.056,0,0,0,2.112,0h2.112a3.168,3.168,0,0,1-6.336,0Z" transform="translate(-91.527 -84.384)" fill="#12263f"/>
      </g>
    </g>
  </g>
</svg>
