<svg id="Grupo_1113396" data-name="Grupo 1113396" xmlns="http://www.w3.org/2000/svg" xmlns:xlink="http://www.w3.org/1999/xlink" width="1158.436" height="76.809" viewBox="0 0 1158.436 76.809">
  <defs>
    <clipPath id="clip-path">
      <rect id="Rectángulo_407204" data-name="Rectángulo 407204" width="1158.436" height="76.809" fill="none"/>
    </clipPath>
  </defs>
  <rect id="Rectángulo_407043" data-name="Rectángulo 407043" width="1.59" height="30.816" transform="translate(3.543 23.41)"/>
  <rect id="Rectángulo_407044" data-name="Rectángulo 407044" width="1.59" height="30.816" transform="translate(118.001 23.41)"/>
  <rect id="Rectángulo_407045" data-name="Rectángulo 407045" width="1.59" height="30.816" transform="translate(232.458 23.41)"/>
  <rect id="Rectángulo_407046" data-name="Rectángulo 407046" width="1.59" height="30.816" transform="translate(346.916 23.41)"/>
  <rect id="Rectángulo_407047" data-name="Rectángulo 407047" width="1.59" height="30.816" transform="translate(461.373 23.41)"/>
  <rect id="Rectángulo_407048" data-name="Rectángulo 407048" width="1.59" height="30.816" transform="translate(575.831 23.41)"/>
  <rect id="Rectángulo_407049" data-name="Rectángulo 407049" width="1.59" height="30.816" transform="translate(690.288 23.41)"/>
  <rect id="Rectángulo_407050" data-name="Rectángulo 407050" width="1.59" height="15.714" transform="translate(10.697 23.408)"/>
  <rect id="Rectángulo_407051" data-name="Rectángulo 407051" width="1.59" height="15.714" transform="translate(17.851 23.408)"/>
  <rect id="Rectángulo_407052" data-name="Rectángulo 407052" width="1.59" height="15.714" transform="translate(25.004 23.408)"/>
  <rect id="Rectángulo_407053" data-name="Rectángulo 407053" width="1.59" height="15.714" transform="translate(32.158 23.408)"/>
  <rect id="Rectángulo_407054" data-name="Rectángulo 407054" width="1.59" height="15.714" transform="translate(39.311 23.408)"/>
  <rect id="Rectángulo_407055" data-name="Rectángulo 407055" width="1.59" height="15.714" transform="translate(46.465 23.408)"/>
  <rect id="Rectángulo_407056" data-name="Rectángulo 407056" width="1.59" height="15.714" transform="translate(53.619 23.408)"/>
  <rect id="Rectángulo_407057" data-name="Rectángulo 407057" width="1.59" height="23.658" transform="translate(60.772 23.41)"/>
  <rect id="Rectángulo_407058" data-name="Rectángulo 407058" width="1.59" height="23.658" transform="translate(175.23 23.41)"/>
  <rect id="Rectángulo_407059" data-name="Rectángulo 407059" width="1.59" height="23.658" transform="translate(289.687 23.41)"/>
  <rect id="Rectángulo_407060" data-name="Rectángulo 407060" width="1.59" height="23.658" transform="translate(404.144 23.41)"/>
  <rect id="Rectángulo_407061" data-name="Rectángulo 407061" width="1.59" height="23.658" transform="translate(518.602 23.41)"/>
  <rect id="Rectángulo_407062" data-name="Rectángulo 407062" width="1.59" height="23.658" transform="translate(633.059 23.41)"/>
  <rect id="Rectángulo_407063" data-name="Rectángulo 407063" width="1.59" height="15.714" transform="translate(67.926 23.408)"/>
  <rect id="Rectángulo_407064" data-name="Rectángulo 407064" width="1.59" height="15.714" transform="translate(75.079 23.408)"/>
  <rect id="Rectángulo_407065" data-name="Rectángulo 407065" width="1.59" height="15.714" transform="translate(82.233 23.408)"/>
  <rect id="Rectángulo_407066" data-name="Rectángulo 407066" width="1.59" height="15.714" transform="translate(89.386 23.408)"/>
  <rect id="Rectángulo_407067" data-name="Rectángulo 407067" width="1.59" height="15.714" transform="translate(96.54 23.408)"/>
  <rect id="Rectángulo_407068" data-name="Rectángulo 407068" width="1.59" height="15.714" transform="translate(103.694 23.408)"/>
  <rect id="Rectángulo_407069" data-name="Rectángulo 407069" width="1.59" height="15.714" transform="translate(110.847 23.408)"/>
  <rect id="Rectángulo_407070" data-name="Rectángulo 407070" width="1.59" height="15.714" transform="translate(125.154 23.408)"/>
  <rect id="Rectángulo_407071" data-name="Rectángulo 407071" width="1.59" height="15.714" transform="translate(132.308 23.408)"/>
  <rect id="Rectángulo_407072" data-name="Rectángulo 407072" width="1.59" height="15.714" transform="translate(139.462 23.408)"/>
  <rect id="Rectángulo_407073" data-name="Rectángulo 407073" width="1.59" height="15.714" transform="translate(146.615 23.408)"/>
  <rect id="Rectángulo_407074" data-name="Rectángulo 407074" width="1.59" height="15.714" transform="translate(153.769 23.408)"/>
  <rect id="Rectángulo_407075" data-name="Rectángulo 407075" width="1.59" height="15.714" transform="translate(160.922 23.408)"/>
  <rect id="Rectángulo_407076" data-name="Rectángulo 407076" width="1.59" height="15.714" transform="translate(168.076 23.408)"/>
  <rect id="Rectángulo_407077" data-name="Rectángulo 407077" width="1.59" height="15.714" transform="translate(182.383 23.408)"/>
  <rect id="Rectángulo_407078" data-name="Rectángulo 407078" width="1.59" height="15.714" transform="translate(189.537 23.408)"/>
  <rect id="Rectángulo_407079" data-name="Rectángulo 407079" width="1.59" height="15.714" transform="translate(196.69 23.408)"/>
  <rect id="Rectángulo_407080" data-name="Rectángulo 407080" width="1.59" height="15.714" transform="translate(203.844 23.408)"/>
  <rect id="Rectángulo_407081" data-name="Rectángulo 407081" width="1.59" height="15.714" transform="translate(210.997 23.408)"/>
  <rect id="Rectángulo_407082" data-name="Rectángulo 407082" width="1.59" height="15.714" transform="translate(218.151 23.408)"/>
  <rect id="Rectángulo_407083" data-name="Rectángulo 407083" width="1.59" height="15.714" transform="translate(225.305 23.408)"/>
  <rect id="Rectángulo_407084" data-name="Rectángulo 407084" width="1.59" height="15.714" transform="translate(239.612 23.408)"/>
  <rect id="Rectángulo_407085" data-name="Rectángulo 407085" width="1.59" height="15.714" transform="translate(246.765 23.408)"/>
  <rect id="Rectángulo_407086" data-name="Rectángulo 407086" width="1.59" height="15.714" transform="translate(253.919 23.408)"/>
  <rect id="Rectángulo_407087" data-name="Rectángulo 407087" width="1.59" height="15.714" transform="translate(261.073 23.408)"/>
  <rect id="Rectángulo_407088" data-name="Rectángulo 407088" width="1.59" height="15.714" transform="translate(268.226 23.408)"/>
  <rect id="Rectángulo_407089" data-name="Rectángulo 407089" width="1.59" height="15.714" transform="translate(275.38 23.408)"/>
  <rect id="Rectángulo_407090" data-name="Rectángulo 407090" width="1.59" height="15.714" transform="translate(282.533 23.408)"/>
  <rect id="Rectángulo_407091" data-name="Rectángulo 407091" width="1.59" height="15.714" transform="translate(296.841 23.408)"/>
  <rect id="Rectángulo_407092" data-name="Rectángulo 407092" width="1.59" height="15.714" transform="translate(303.994 23.408)"/>
  <rect id="Rectángulo_407093" data-name="Rectángulo 407093" width="1.59" height="15.714" transform="translate(311.148 23.408)"/>
  <rect id="Rectángulo_407094" data-name="Rectángulo 407094" width="1.59" height="15.714" transform="translate(318.301 23.408)"/>
  <rect id="Rectángulo_407095" data-name="Rectángulo 407095" width="1.59" height="15.714" transform="translate(325.455 23.408)"/>
  <rect id="Rectángulo_407096" data-name="Rectángulo 407096" width="1.59" height="15.714" transform="translate(332.609 23.408)"/>
  <rect id="Rectángulo_407097" data-name="Rectángulo 407097" width="1.59" height="15.714" transform="translate(339.762 23.408)"/>
  <rect id="Rectángulo_407098" data-name="Rectángulo 407098" width="1.59" height="15.714" transform="translate(354.069 23.408)"/>
  <rect id="Rectángulo_407099" data-name="Rectángulo 407099" width="1.59" height="15.714" transform="translate(361.223 23.408)"/>
  <rect id="Rectángulo_407100" data-name="Rectángulo 407100" width="1.59" height="15.714" transform="translate(368.376 23.408)"/>
  <rect id="Rectángulo_407101" data-name="Rectángulo 407101" width="1.59" height="15.714" transform="translate(375.53 23.408)"/>
  <rect id="Rectángulo_407102" data-name="Rectángulo 407102" width="1.59" height="15.714" transform="translate(382.684 23.408)"/>
  <rect id="Rectángulo_407103" data-name="Rectángulo 407103" width="1.59" height="15.714" transform="translate(389.837 23.408)"/>
  <rect id="Rectángulo_407104" data-name="Rectángulo 407104" width="1.59" height="15.714" transform="translate(396.991 23.408)"/>
  <rect id="Rectángulo_407105" data-name="Rectángulo 407105" width="1.59" height="15.714" transform="translate(411.298 23.408)"/>
  <rect id="Rectángulo_407106" data-name="Rectángulo 407106" width="1.59" height="15.714" transform="translate(418.452 23.408)"/>
  <rect id="Rectángulo_407107" data-name="Rectángulo 407107" width="1.59" height="15.714" transform="translate(425.605 23.408)"/>
  <rect id="Rectángulo_407108" data-name="Rectángulo 407108" width="1.59" height="15.714" transform="translate(432.759 23.408)"/>
  <rect id="Rectángulo_407109" data-name="Rectángulo 407109" width="1.59" height="15.714" transform="translate(439.912 23.408)"/>
  <rect id="Rectángulo_407110" data-name="Rectángulo 407110" width="1.59" height="15.714" transform="translate(447.066 23.408)"/>
  <rect id="Rectángulo_407111" data-name="Rectángulo 407111" width="1.59" height="15.714" transform="translate(454.22 23.408)"/>
  <rect id="Rectángulo_407112" data-name="Rectángulo 407112" width="1.59" height="15.714" transform="translate(468.527 23.408)"/>
  <rect id="Rectángulo_407113" data-name="Rectángulo 407113" width="1.59" height="15.714" transform="translate(475.68 23.408)"/>
  <rect id="Rectángulo_407114" data-name="Rectángulo 407114" width="1.59" height="15.714" transform="translate(482.834 23.408)"/>
  <rect id="Rectángulo_407115" data-name="Rectángulo 407115" width="1.59" height="15.714" transform="translate(489.987 23.408)"/>
  <rect id="Rectángulo_407116" data-name="Rectángulo 407116" width="1.59" height="15.714" transform="translate(497.141 23.408)"/>
  <rect id="Rectángulo_407117" data-name="Rectángulo 407117" width="1.59" height="15.714" transform="translate(504.295 23.408)"/>
  <rect id="Rectángulo_407118" data-name="Rectángulo 407118" width="1.59" height="15.714" transform="translate(511.448 23.408)"/>
  <rect id="Rectángulo_407119" data-name="Rectángulo 407119" width="1.59" height="15.714" transform="translate(525.755 23.408)"/>
  <rect id="Rectángulo_407120" data-name="Rectángulo 407120" width="1.59" height="15.714" transform="translate(532.909 23.408)"/>
  <rect id="Rectángulo_407121" data-name="Rectángulo 407121" width="1.59" height="15.714" transform="translate(540.063 23.408)"/>
  <rect id="Rectángulo_407122" data-name="Rectángulo 407122" width="1.59" height="15.714" transform="translate(547.216 23.408)"/>
  <rect id="Rectángulo_407123" data-name="Rectángulo 407123" width="1.59" height="15.714" transform="translate(554.37 23.408)"/>
  <rect id="Rectángulo_407124" data-name="Rectángulo 407124" width="1.59" height="15.714" transform="translate(561.523 23.408)"/>
  <rect id="Rectángulo_407125" data-name="Rectángulo 407125" width="1.59" height="15.714" transform="translate(568.677 23.408)"/>
  <rect id="Rectángulo_407126" data-name="Rectángulo 407126" width="1.59" height="15.714" transform="translate(582.984 23.408)"/>
  <rect id="Rectángulo_407127" data-name="Rectángulo 407127" width="1.59" height="15.714" transform="translate(590.138 23.408)"/>
  <rect id="Rectángulo_407128" data-name="Rectángulo 407128" width="1.59" height="15.714" transform="translate(597.291 23.408)"/>
  <rect id="Rectángulo_407129" data-name="Rectángulo 407129" width="1.59" height="15.714" transform="translate(604.445 23.408)"/>
  <rect id="Rectángulo_407130" data-name="Rectángulo 407130" width="1.59" height="15.714" transform="translate(611.599 23.408)"/>
  <rect id="Rectángulo_407131" data-name="Rectángulo 407131" width="1.59" height="15.714" transform="translate(618.752 23.408)"/>
  <rect id="Rectángulo_407132" data-name="Rectángulo 407132" width="1.59" height="15.714" transform="translate(625.906 23.408)"/>
  <rect id="Rectángulo_407133" data-name="Rectángulo 407133" width="1.59" height="15.714" transform="translate(640.213 23.408)"/>
  <rect id="Rectángulo_407134" data-name="Rectángulo 407134" width="1.59" height="15.714" transform="translate(647.366 23.408)"/>
  <rect id="Rectángulo_407135" data-name="Rectángulo 407135" width="1.59" height="15.714" transform="translate(654.52 23.408)"/>
  <rect id="Rectángulo_407136" data-name="Rectángulo 407136" width="1.59" height="15.714" transform="translate(661.674 23.408)"/>
  <rect id="Rectángulo_407137" data-name="Rectángulo 407137" width="1.59" height="15.714" transform="translate(668.827 23.408)"/>
  <rect id="Rectángulo_407138" data-name="Rectángulo 407138" width="1.59" height="15.714" transform="translate(675.981 23.408)"/>
  <rect id="Rectángulo_407139" data-name="Rectángulo 407139" width="1.59" height="15.714" transform="translate(683.134 23.408)"/>
  <g id="Grupo_1113395" data-name="Grupo 1113395" transform="translate(0 0)">
    <g id="Grupo_1113394" data-name="Grupo 1113394" clip-path="url(#clip-path)">
      <path id="Trazado_894893" data-name="Trazado 894893" d="M9.007,46.5a9.954,9.954,0,0,1-1.113,5.271,3.761,3.761,0,0,1-3.405,1.742,3.731,3.731,0,0,1-3.345-1.784A9.756,9.756,0,0,1,0,46.5a9.936,9.936,0,0,1,1.108-5.281A3.743,3.743,0,0,1,4.489,39.5a3.747,3.747,0,0,1,3.367,1.8A9.694,9.694,0,0,1,9.007,46.5m-7.443,0a9.98,9.98,0,0,0,.7,4.327,2.337,2.337,0,0,0,2.227,1.354,2.338,2.338,0,0,0,2.24-1.373A10.051,10.051,0,0,0,7.424,46.5a9.982,9.982,0,0,0-.695-4.3,2.341,2.341,0,0,0-2.24-1.366,2.341,2.341,0,0,0-2.227,1.346,9.913,9.913,0,0,0-.7,4.318" transform="translate(0 23.292)"/>
      <path id="Trazado_894894" data-name="Trazado 894894" d="M77.355,53.251H75.846V43.546q0-1.211.075-2.292-.2.2-.439.41t-2.216,1.817l-.82-1.062,3.605-2.785h1.3Z" transform="translate(42.72 23.371)"/>
      <path id="Trazado_894895" data-name="Trazado 894895" d="M153.089,53.324h-8.953V51.992l3.588-3.6a26.559,26.559,0,0,0,2.159-2.367,6.08,6.08,0,0,0,.784-1.378,3.926,3.926,0,0,0,.261-1.443,2.286,2.286,0,0,0-.661-1.728,2.535,2.535,0,0,0-1.836-.637,4.614,4.614,0,0,0-1.606.278,6.422,6.422,0,0,0-1.691,1.016l-.82-1.052a6.285,6.285,0,0,1,4.1-1.564,4.33,4.33,0,0,1,3.008.982,3.381,3.381,0,0,1,1.091,2.64,5.108,5.108,0,0,1-.727,2.561,16.256,16.256,0,0,1-2.72,3.2l-2.981,2.915v.075h7.006Z" transform="translate(84.995 23.299)"/>
      <path id="Trazado_894896" data-name="Trazado 894896" d="M224.384,42.91a3.1,3.1,0,0,1-.731,2.133,3.665,3.665,0,0,1-2.073,1.108v.075a3.9,3.9,0,0,1,2.432,1.043,3.073,3.073,0,0,1,.792,2.2,3.571,3.571,0,0,1-1.351,2.995,6.145,6.145,0,0,1-3.837,1.048,11.179,11.179,0,0,1-1.979-.162,6.821,6.821,0,0,1-1.747-.574V51.3a8.406,8.406,0,0,0,1.887.666,8.513,8.513,0,0,0,1.895.229q3.531,0,3.531-2.766,0-2.478-3.893-2.478h-1.342V45.621h1.359a4.092,4.092,0,0,0,2.524-.7,2.307,2.307,0,0,0,.932-1.952A1.918,1.918,0,0,0,222.1,41.4a2.82,2.82,0,0,0-1.857-.569,5.716,5.716,0,0,0-1.687.243,7.54,7.54,0,0,0-1.807.893l-.782-1.043a6.537,6.537,0,0,1,1.933-1.038,7.031,7.031,0,0,1,2.305-.378,4.712,4.712,0,0,1,3.084.909,3.055,3.055,0,0,1,1.1,2.491" transform="translate(127.307 23.298)"/>
      <path id="Trazado_894897" data-name="Trazado 894897" d="M297.788,50.15h-2.021v3.13h-1.482V50.15h-6.623V48.8l6.464-9.212h1.641v9.157h2.021Zm-3.5-1.407V44.216q0-1.331.094-3.008H294.3a14.094,14.094,0,0,1-.839,1.48l-4.256,6.055Z" transform="translate(169.631 23.343)"/>
      <path id="Trazado_894898" data-name="Trazado 894898" d="M365.186,44.934A5.012,5.012,0,0,1,368.572,46a3.658,3.658,0,0,1,1.234,2.92,4.214,4.214,0,0,1-1.346,3.316,5.37,5.37,0,0,1-3.71,1.2,6.836,6.836,0,0,1-3.512-.736V51.212a5.3,5.3,0,0,0,1.62.657,7.969,7.969,0,0,0,1.909.238,3.808,3.808,0,0,0,2.548-.774,2.771,2.771,0,0,0,.908-2.235q0-2.85-3.493-2.85a13.952,13.952,0,0,0-2.365.27l-.8-.512.512-6.371h6.772v1.424H363.4l-.345,4.09a10.839,10.839,0,0,1,2.133-.215" transform="translate(213.017 23.371)"/>
      <path id="Trazado_894899" data-name="Trazado 894899" d="M432.19,47.5q0-4.016,1.559-6a5.513,5.513,0,0,1,4.617-1.989,6.171,6.171,0,0,1,1.658.176V41.02a5.291,5.291,0,0,0-1.639-.234,4.134,4.134,0,0,0-3.345,1.366,7,7,0,0,0-1.267,4.289h.111a3.568,3.568,0,0,1,3.243-1.6,3.813,3.813,0,0,1,2.892,1.108,4.183,4.183,0,0,1,1.057,3.009,4.636,4.636,0,0,1-1.161,3.34,4.128,4.128,0,0,1-3.133,1.215,4.031,4.031,0,0,1-3.354-1.588A7.031,7.031,0,0,1,432.19,47.5m4.573,4.694a2.59,2.59,0,0,0,2.054-.833,3.544,3.544,0,0,0,.731-2.408,3.107,3.107,0,0,0-.68-2.124,2.562,2.562,0,0,0-2.03-.773,3.436,3.436,0,0,0-1.537.343,2.851,2.851,0,0,0-1.113.951,2.2,2.2,0,0,0-.415,1.257,4.3,4.3,0,0,0,.374,1.788,3.145,3.145,0,0,0,1.057,1.313,2.635,2.635,0,0,0,1.559.485" transform="translate(254.857 23.299)"/>
      <path id="Trazado_894900" data-name="Trazado 894900" d="M36.738,47.239H35.606V39.96q0-.909.056-1.718c-.1.1-.207.2-.327.307s-.676.561-1.663,1.362l-.615-.8,2.7-2.089h.978Z" transform="translate(19.493 21.833)"/>
      <path id="Trazado_894901" data-name="Trazado 894901" d="M42.1,37.025,38.291,47.239H37.132l3.806-10.214Z" transform="translate(21.896 21.833)"/>
      <path id="Trazado_894902" data-name="Trazado 894902" d="M47.779,47.293H41.066v-1l2.69-2.7a19.95,19.95,0,0,0,1.62-1.774,4.544,4.544,0,0,0,.587-1.035,2.962,2.962,0,0,0,.2-1.083,1.721,1.721,0,0,0-.494-1.3,1.908,1.908,0,0,0-1.377-.479,3.464,3.464,0,0,0-1.207.21,4.8,4.8,0,0,0-1.267.761l-.615-.79a4.712,4.712,0,0,1,3.074-1.173,3.25,3.25,0,0,1,2.256.736,2.538,2.538,0,0,1,.819,1.981,3.831,3.831,0,0,1-.545,1.922,12.266,12.266,0,0,1-2.04,2.4l-2.237,2.186v.056h5.254Z" transform="translate(24.216 21.778)"/>
      <path id="Trazado_894903" data-name="Trazado 894903" d="M108.45,47.239h-1.132V39.96q0-.909.056-1.718c-.1.1-.207.2-.327.307s-.676.561-1.663,1.362l-.615-.8,2.7-2.089h.978Z" transform="translate(61.78 21.833)"/>
      <path id="Trazado_894904" data-name="Trazado 894904" d="M113.811,37.025,110,47.239h-1.159l3.806-10.214Z" transform="translate(64.184 21.833)"/>
      <path id="Trazado_894905" data-name="Trazado 894905" d="M119.491,47.293h-6.713v-1l2.69-2.7a19.952,19.952,0,0,0,1.62-1.774,4.544,4.544,0,0,0,.587-1.035,2.962,2.962,0,0,0,.2-1.083,1.721,1.721,0,0,0-.494-1.3A1.908,1.908,0,0,0,116,37.925a3.464,3.464,0,0,0-1.207.21,4.8,4.8,0,0,0-1.267.761l-.615-.79a4.712,4.712,0,0,1,3.074-1.173,3.253,3.253,0,0,1,2.256.736,2.538,2.538,0,0,1,.819,1.981,3.831,3.831,0,0,1-.545,1.922,12.266,12.266,0,0,1-2.04,2.4l-2.237,2.186v.056h5.254Z" transform="translate(66.504 21.778)"/>
      <path id="Trazado_894906" data-name="Trazado 894906" d="M180.913,47.239h-1.132V39.96q0-.909.056-1.718c-.1.1-.207.2-.327.307s-.676.561-1.663,1.362l-.615-.8,2.7-2.089h.978Z" transform="translate(104.511 21.833)"/>
      <path id="Trazado_894907" data-name="Trazado 894907" d="M186.274,37.025l-3.807,10.214h-1.159l3.806-10.214Z" transform="translate(106.915 21.833)"/>
      <path id="Trazado_894908" data-name="Trazado 894908" d="M191.954,47.293h-6.713v-1l2.69-2.7a19.95,19.95,0,0,0,1.62-1.774,4.543,4.543,0,0,0,.587-1.035,2.962,2.962,0,0,0,.2-1.083,1.721,1.721,0,0,0-.494-1.3,1.908,1.908,0,0,0-1.377-.479,3.464,3.464,0,0,0-1.207.21,4.8,4.8,0,0,0-1.267.761l-.615-.79a4.712,4.712,0,0,1,3.074-1.173,3.25,3.25,0,0,1,2.256.736,2.538,2.538,0,0,1,.819,1.981,3.831,3.831,0,0,1-.545,1.922,12.267,12.267,0,0,1-2.04,2.4L186.7,46.161v.056h5.254Z" transform="translate(109.234 21.778)"/>
      <path id="Trazado_894909" data-name="Trazado 894909" d="M253.625,47.239h-1.132V39.96q0-.909.056-1.718c-.1.1-.207.2-.327.307s-.676.561-1.663,1.362l-.614-.8,2.7-2.089h.978Z" transform="translate(147.389 21.833)"/>
      <path id="Trazado_894910" data-name="Trazado 894910" d="M258.987,37.025l-3.809,10.214H254.02l3.807-10.214Z" transform="translate(149.792 21.833)"/>
      <path id="Trazado_894911" data-name="Trazado 894911" d="M264.667,47.293h-6.713v-1l2.69-2.7a19.952,19.952,0,0,0,1.62-1.774,4.543,4.543,0,0,0,.587-1.035,2.962,2.962,0,0,0,.2-1.083,1.715,1.715,0,0,0-.494-1.3,1.906,1.906,0,0,0-1.377-.479,3.449,3.449,0,0,0-1.205.21,4.781,4.781,0,0,0-1.269.761l-.615-.79a4.712,4.712,0,0,1,3.074-1.173,3.259,3.259,0,0,1,2.257.736,2.537,2.537,0,0,1,.817,1.981,3.831,3.831,0,0,1-.545,1.922,12.324,12.324,0,0,1-2.04,2.4l-2.237,2.186v.056h5.254Z" transform="translate(152.112 21.778)"/>
      <path id="Trazado_894912" data-name="Trazado 894912" d="M324.838,47.239h-1.132V39.96q0-.909.056-1.718c-.1.1-.207.2-.327.307s-.676.561-1.663,1.362l-.614-.8,2.7-2.089h.978Z" transform="translate(189.382 21.833)"/>
      <path id="Trazado_894913" data-name="Trazado 894913" d="M330.2,37.025l-3.809,10.214h-1.159l3.809-10.214Z" transform="translate(191.785 21.833)"/>
      <path id="Trazado_894914" data-name="Trazado 894914" d="M335.88,47.293h-6.713v-1l2.69-2.7a19.958,19.958,0,0,0,1.62-1.774,4.545,4.545,0,0,0,.587-1.035,2.931,2.931,0,0,0,.2-1.083,1.715,1.715,0,0,0-.494-1.3,1.906,1.906,0,0,0-1.377-.479,3.449,3.449,0,0,0-1.2.21,4.781,4.781,0,0,0-1.269.761l-.615-.79a4.712,4.712,0,0,1,3.074-1.173,3.26,3.26,0,0,1,2.257.736,2.537,2.537,0,0,1,.817,1.981,3.831,3.831,0,0,1-.545,1.922,12.269,12.269,0,0,1-2.04,2.4l-2.237,2.186v.056h5.254Z" transform="translate(194.105 21.778)"/>
      <path id="Trazado_894915" data-name="Trazado 894915" d="M397.05,47.239h-1.132V39.96q0-.909.056-1.718c-.1.1-.207.2-.328.307s-.676.561-1.663,1.362l-.614-.8,2.7-2.089h.978Z" transform="translate(231.965 21.833)"/>
      <path id="Trazado_894916" data-name="Trazado 894916" d="M402.413,37.025,398.6,47.239h-1.159l3.809-10.214Z" transform="translate(234.368 21.833)"/>
      <path id="Trazado_894917" data-name="Trazado 894917" d="M408.094,47.293h-6.715v-1l2.691-2.7a20.112,20.112,0,0,0,1.618-1.774,4.553,4.553,0,0,0,.588-1.035,2.961,2.961,0,0,0,.194-1.083,1.715,1.715,0,0,0-.494-1.3,1.9,1.9,0,0,0-1.377-.479,3.449,3.449,0,0,0-1.2.21,4.807,4.807,0,0,0-1.269.761l-.615-.79a4.716,4.716,0,0,1,3.074-1.173,3.26,3.26,0,0,1,2.257.736,2.536,2.536,0,0,1,.815,1.981,3.829,3.829,0,0,1-.544,1.922,12.267,12.267,0,0,1-2.04,2.4l-2.237,2.186v.056h5.255Z" transform="translate(236.688 21.778)"/>
      <rect id="Rectángulo_407140" data-name="Rectángulo 407140" width="1.59" height="30.816" transform="translate(804.909 23.41)"/>
      <rect id="Rectángulo_407141" data-name="Rectángulo 407141" width="1.59" height="30.816" transform="translate(919.367 23.41)"/>
      <rect id="Rectángulo_407142" data-name="Rectángulo 407142" width="1.59" height="30.816" transform="translate(1033.824 23.41)"/>
      <rect id="Rectángulo_407143" data-name="Rectángulo 407143" width="1.59" height="15.714" transform="translate(697.605 23.41)"/>
      <rect id="Rectángulo_407144" data-name="Rectángulo 407144" width="1.59" height="15.714" transform="translate(704.759 23.41)"/>
      <rect id="Rectángulo_407145" data-name="Rectángulo 407145" width="1.59" height="15.714" transform="translate(711.912 23.41)"/>
      <rect id="Rectángulo_407146" data-name="Rectángulo 407146" width="1.59" height="15.714" transform="translate(719.066 23.41)"/>
      <rect id="Rectángulo_407147" data-name="Rectángulo 407147" width="1.59" height="15.714" transform="translate(726.22 23.41)"/>
      <rect id="Rectángulo_407148" data-name="Rectángulo 407148" width="1.59" height="15.714" transform="translate(733.373 23.41)"/>
      <rect id="Rectángulo_407149" data-name="Rectángulo 407149" width="1.59" height="15.714" transform="translate(740.527 23.41)"/>
      <rect id="Rectángulo_407150" data-name="Rectángulo 407150" width="1.59" height="23.658" transform="translate(747.68 23.41)"/>
      <rect id="Rectángulo_407151" data-name="Rectángulo 407151" width="1.59" height="23.658" transform="translate(862.138 23.41)"/>
      <rect id="Rectángulo_407152" data-name="Rectángulo 407152" width="1.59" height="23.658" transform="translate(976.595 23.41)"/>
      <rect id="Rectángulo_407153" data-name="Rectángulo 407153" width="1.59" height="15.714" transform="translate(754.834 23.41)"/>
      <rect id="Rectángulo_407154" data-name="Rectángulo 407154" width="1.59" height="15.714" transform="translate(761.988 23.41)"/>
      <rect id="Rectángulo_407155" data-name="Rectángulo 407155" width="1.59" height="15.714" transform="translate(769.141 23.41)"/>
      <rect id="Rectángulo_407156" data-name="Rectángulo 407156" width="1.59" height="15.714" transform="translate(776.295 23.41)"/>
      <rect id="Rectángulo_407157" data-name="Rectángulo 407157" width="1.59" height="15.714" transform="translate(783.448 23.41)"/>
      <rect id="Rectángulo_407158" data-name="Rectángulo 407158" width="1.59" height="15.714" transform="translate(790.602 23.41)"/>
      <rect id="Rectángulo_407159" data-name="Rectángulo 407159" width="1.59" height="15.714" transform="translate(797.756 23.41)"/>
      <rect id="Rectángulo_407160" data-name="Rectángulo 407160" width="1.59" height="15.714" transform="translate(812.063 23.41)"/>
      <rect id="Rectángulo_407161" data-name="Rectángulo 407161" width="1.59" height="15.714" transform="translate(819.216 23.41)"/>
      <rect id="Rectángulo_407162" data-name="Rectángulo 407162" width="1.59" height="15.714" transform="translate(826.37 23.41)"/>
      <rect id="Rectángulo_407163" data-name="Rectángulo 407163" width="1.59" height="15.714" transform="translate(833.523 23.41)"/>
      <rect id="Rectángulo_407164" data-name="Rectángulo 407164" width="1.59" height="15.714" transform="translate(840.677 23.41)"/>
      <rect id="Rectángulo_407165" data-name="Rectángulo 407165" width="1.59" height="15.714" transform="translate(847.831 23.41)"/>
      <rect id="Rectángulo_407166" data-name="Rectángulo 407166" width="1.59" height="15.714" transform="translate(854.984 23.41)"/>
      <rect id="Rectángulo_407167" data-name="Rectángulo 407167" width="1.59" height="15.714" transform="translate(869.291 23.41)"/>
      <rect id="Rectángulo_407168" data-name="Rectángulo 407168" width="1.59" height="15.714" transform="translate(876.445 23.41)"/>
      <rect id="Rectángulo_407169" data-name="Rectángulo 407169" width="1.59" height="15.714" transform="translate(883.599 23.41)"/>
      <rect id="Rectángulo_407170" data-name="Rectángulo 407170" width="1.59" height="15.714" transform="translate(890.752 23.41)"/>
      <rect id="Rectángulo_407171" data-name="Rectángulo 407171" width="1.59" height="15.714" transform="translate(897.906 23.41)"/>
      <rect id="Rectángulo_407172" data-name="Rectángulo 407172" width="1.59" height="15.714" transform="translate(905.059 23.41)"/>
      <rect id="Rectángulo_407173" data-name="Rectángulo 407173" width="1.59" height="15.714" transform="translate(912.213 23.41)"/>
      <rect id="Rectángulo_407174" data-name="Rectángulo 407174" width="1.59" height="15.714" transform="translate(926.52 23.41)"/>
      <rect id="Rectángulo_407175" data-name="Rectángulo 407175" width="1.59" height="15.714" transform="translate(933.674 23.41)"/>
      <rect id="Rectángulo_407176" data-name="Rectángulo 407176" width="1.59" height="15.714" transform="translate(940.827 23.41)"/>
      <rect id="Rectángulo_407177" data-name="Rectángulo 407177" width="1.59" height="15.714" transform="translate(947.981 23.41)"/>
      <rect id="Rectángulo_407178" data-name="Rectángulo 407178" width="1.59" height="15.714" transform="translate(955.134 23.41)"/>
      <rect id="Rectángulo_407179" data-name="Rectángulo 407179" width="1.59" height="15.714" transform="translate(962.288 23.41)"/>
      <rect id="Rectángulo_407180" data-name="Rectángulo 407180" width="1.59" height="15.714" transform="translate(969.442 23.41)"/>
      <rect id="Rectángulo_407181" data-name="Rectángulo 407181" width="1.59" height="15.714" transform="translate(983.749 23.41)"/>
      <rect id="Rectángulo_407182" data-name="Rectángulo 407182" width="1.59" height="15.714" transform="translate(990.902 23.41)"/>
      <rect id="Rectángulo_407183" data-name="Rectángulo 407183" width="1.59" height="15.714" transform="translate(998.056 23.41)"/>
      <rect id="Rectángulo_407184" data-name="Rectángulo 407184" width="1.59" height="15.714" transform="translate(1005.21 23.41)"/>
      <rect id="Rectángulo_407185" data-name="Rectángulo 407185" width="1.59" height="15.714" transform="translate(1012.363 23.41)"/>
      <rect id="Rectángulo_407186" data-name="Rectángulo 407186" width="1.59" height="15.714" transform="translate(1019.517 23.41)"/>
      <rect id="Rectángulo_407187" data-name="Rectángulo 407187" width="1.59" height="15.714" transform="translate(1026.67 23.41)"/>
      <path id="Trazado_894918" data-name="Trazado 894918" d="M505.777,53.251l5.645-12.193H504V39.634h9.063v1.238l-5.57,12.379Z" transform="translate(297.201 23.371)"/>
      <path id="Trazado_894919" data-name="Trazado 894919" d="M580.734,39.511a4.618,4.618,0,0,1,2.952.866,2.889,2.889,0,0,1,1.091,2.394,2.977,2.977,0,0,1-.625,1.834,5.5,5.5,0,0,1-1.993,1.509,6.7,6.7,0,0,1,2.357,1.663,3.128,3.128,0,0,1,.7,2.017,3.378,3.378,0,0,1-1.183,2.706,4.828,4.828,0,0,1-3.241,1.011,5.2,5.2,0,0,1-3.354-.955,3.29,3.29,0,0,1-1.173-2.706q0-2.339,2.85-3.642a5.268,5.268,0,0,1-1.844-1.569,3.344,3.344,0,0,1-.558-1.887,2.872,2.872,0,0,1,1.094-2.361,4.531,4.531,0,0,1,2.93-.881M577.79,49.887a2.106,2.106,0,0,0,.779,1.742,3.4,3.4,0,0,0,2.184.625,3.247,3.247,0,0,0,2.16-.653,2.214,2.214,0,0,0,.773-1.788,2.177,2.177,0,0,0-.726-1.606,7.417,7.417,0,0,0-2.534-1.366,5.527,5.527,0,0,0-2.011,1.318,2.553,2.553,0,0,0-.625,1.728m2.925-9.118a2.735,2.735,0,0,0-1.825.56,1.847,1.847,0,0,0-.661,1.49,2.138,2.138,0,0,0,.548,1.472,5.757,5.757,0,0,0,2.032,1.229,5.067,5.067,0,0,0,1.885-1.2,2.219,2.219,0,0,0,.555-1.5,1.833,1.833,0,0,0-.676-1.494,2.841,2.841,0,0,0-1.858-.555" transform="translate(339.814 23.299)"/>
      <path id="Trazado_894920" data-name="Trazado 894920" d="M656.958,45.518q0,7.993-6.185,7.993a6.238,6.238,0,0,1-1.714-.188V51.993a5.507,5.507,0,0,0,1.695.242,4.122,4.122,0,0,0,3.377-1.383,6.989,6.989,0,0,0,1.245-4.243h-.113a3.312,3.312,0,0,1-1.359,1.178,4.374,4.374,0,0,1-1.909.405,3.84,3.84,0,0,1-2.869-1.081,4.122,4.122,0,0,1-1.062-3.017,4.626,4.626,0,0,1,1.188-3.354,4.546,4.546,0,0,1,5.551-.517,4.5,4.5,0,0,1,1.6,2.078,8.439,8.439,0,0,1,.56,3.218m-4.583-4.685a2.552,2.552,0,0,0-2.059.857,3.571,3.571,0,0,0-.726,2.385,3.1,3.1,0,0,0,.671,2.11,2.566,2.566,0,0,0,2.04.769,3.555,3.555,0,0,0,1.561-.345,2.834,2.834,0,0,0,1.122-.941,2.18,2.18,0,0,0,.408-1.248,4.274,4.274,0,0,0-.381-1.807,3.143,3.143,0,0,0-1.067-1.3,2.687,2.687,0,0,0-1.569-.475" transform="translate(382.153 23.299)"/>
      <path id="Trazado_894921" data-name="Trazado 894921" d="M468.84,47.239h-1.132V39.96q0-.909.056-1.718c-.1.1-.207.2-.327.307s-.676.561-1.663,1.362l-.614-.8,2.7-2.089h.978Z" transform="translate(274.299 21.833)"/>
      <path id="Trazado_894922" data-name="Trazado 894922" d="M474.2,37.025l-3.809,10.214h-1.159l3.809-10.214Z" transform="translate(276.701 21.833)"/>
      <path id="Trazado_894923" data-name="Trazado 894923" d="M479.882,47.293h-6.713v-1l2.69-2.7a19.938,19.938,0,0,0,1.62-1.774,4.543,4.543,0,0,0,.587-1.035,2.962,2.962,0,0,0,.2-1.083,1.715,1.715,0,0,0-.494-1.3,1.906,1.906,0,0,0-1.377-.479,3.448,3.448,0,0,0-1.2.21,4.781,4.781,0,0,0-1.269.761l-.615-.79a4.712,4.712,0,0,1,3.074-1.173,3.26,3.26,0,0,1,2.257.736,2.536,2.536,0,0,1,.815,1.981,3.828,3.828,0,0,1-.544,1.922,12.286,12.286,0,0,1-2.041,2.4l-2.235,2.186v.056h5.254Z" transform="translate(279.021 21.778)"/>
      <path id="Trazado_894924" data-name="Trazado 894924" d="M540.554,47.239h-1.133V39.96q0-.909.056-1.718c-.1.1-.208.2-.329.307s-.676.561-1.663,1.362l-.614-.8,2.7-2.089h.979Z" transform="translate(316.586 21.833)"/>
      <path id="Trazado_894925" data-name="Trazado 894925" d="M545.913,37.025l-3.807,10.214h-1.159l3.807-10.214Z" transform="translate(318.989 21.833)"/>
      <path id="Trazado_894926" data-name="Trazado 894926" d="M551.595,47.293H544.88v-1l2.691-2.7a19.928,19.928,0,0,0,1.62-1.774,4.543,4.543,0,0,0,.587-1.035,2.962,2.962,0,0,0,.2-1.083,1.716,1.716,0,0,0-.5-1.3,1.9,1.9,0,0,0-1.375-.479,3.464,3.464,0,0,0-1.207.21,4.8,4.8,0,0,0-1.267.761l-.615-.79a4.713,4.713,0,0,1,3.074-1.173,3.256,3.256,0,0,1,2.256.736,2.537,2.537,0,0,1,.817,1.981,3.829,3.829,0,0,1-.544,1.922,12.267,12.267,0,0,1-2.04,2.4l-2.237,2.186v.056h5.254Z" transform="translate(321.308 21.778)"/>
      <path id="Trazado_894927" data-name="Trazado 894927" d="M613.016,47.239h-1.132V39.96q0-.909.056-1.718c-.1.1-.208.2-.329.307s-.676.561-1.663,1.362l-.615-.8,2.706-2.089h.978Z" transform="translate(359.315 21.833)"/>
      <path id="Trazado_894928" data-name="Trazado 894928" d="M618.376,37.025l-3.806,10.214h-1.16l3.807-10.214Z" transform="translate(361.72 21.833)"/>
      <path id="Trazado_894929" data-name="Trazado 894929" d="M624.058,47.293h-6.715v-1l2.691-2.7a19.938,19.938,0,0,0,1.62-1.774,4.614,4.614,0,0,0,.588-1.035,2.962,2.962,0,0,0,.2-1.083,1.717,1.717,0,0,0-.5-1.3,1.9,1.9,0,0,0-1.375-.479,3.464,3.464,0,0,0-1.207.21,4.8,4.8,0,0,0-1.267.761l-.615-.79a4.712,4.712,0,0,1,3.074-1.173,3.253,3.253,0,0,1,2.256.736,2.539,2.539,0,0,1,.819,1.981,3.832,3.832,0,0,1-.545,1.922,12.267,12.267,0,0,1-2.04,2.4L618.8,46.161v.056h5.254Z" transform="translate(364.039 21.778)"/>
      <rect id="Rectángulo_407188" data-name="Rectángulo 407188" width="1.59" height="30.816" transform="translate(1147.944 23.41)"/>
      <rect id="Rectángulo_407189" data-name="Rectángulo 407189" width="1.59" height="23.658" transform="translate(1090.716 23.41)"/>
      <rect id="Rectángulo_407190" data-name="Rectángulo 407190" width="1.59" height="15.714" transform="translate(1040.641 23.41)"/>
      <rect id="Rectángulo_407191" data-name="Rectángulo 407191" width="1.59" height="15.714" transform="translate(1047.794 23.41)"/>
      <rect id="Rectángulo_407192" data-name="Rectángulo 407192" width="1.59" height="15.714" transform="translate(1054.948 23.41)"/>
      <rect id="Rectángulo_407193" data-name="Rectángulo 407193" width="1.59" height="15.714" transform="translate(1062.101 23.41)"/>
      <rect id="Rectángulo_407194" data-name="Rectángulo 407194" width="1.59" height="15.714" transform="translate(1069.255 23.41)"/>
      <rect id="Rectángulo_407195" data-name="Rectángulo 407195" width="1.59" height="15.714" transform="translate(1076.408 23.41)"/>
      <rect id="Rectángulo_407196" data-name="Rectángulo 407196" width="1.59" height="15.714" transform="translate(1083.562 23.41)"/>
      <rect id="Rectángulo_407197" data-name="Rectángulo 407197" width="1.59" height="15.714" transform="translate(1097.869 23.41)"/>
      <rect id="Rectángulo_407198" data-name="Rectángulo 407198" width="1.59" height="15.714" transform="translate(1105.023 23.41)"/>
      <rect id="Rectángulo_407199" data-name="Rectángulo 407199" width="1.59" height="15.714" transform="translate(1112.176 23.41)"/>
      <rect id="Rectángulo_407200" data-name="Rectángulo 407200" width="1.59" height="15.714" transform="translate(1119.33 23.41)"/>
      <rect id="Rectángulo_407201" data-name="Rectángulo 407201" width="1.59" height="15.714" transform="translate(1126.484 23.41)"/>
      <rect id="Rectángulo_407202" data-name="Rectángulo 407202" width="1.59" height="15.714" transform="translate(1133.637 23.41)"/>
      <rect id="Rectángulo_407203" data-name="Rectángulo 407203" width="1.59" height="15.714" transform="translate(1140.791 23.41)"/>
      <path id="Trazado_894930" data-name="Trazado 894930" d="M722.24,53.251h-1.509V43.546q0-1.211.075-2.292-.2.2-.439.41t-2.216,1.817l-.82-1.062,3.605-2.785h1.3Z" transform="translate(423 23.371)"/>
      <path id="Trazado_894931" data-name="Trazado 894931" d="M732.061,46.5a9.954,9.954,0,0,1-1.113,5.271,4.112,4.112,0,0,1-6.75-.041,9.756,9.756,0,0,1-1.145-5.23,9.937,9.937,0,0,1,1.108-5.281,4.114,4.114,0,0,1,6.748.075,9.694,9.694,0,0,1,1.151,5.206m-7.443,0a9.976,9.976,0,0,0,.7,4.327,2.509,2.509,0,0,0,4.465-.019,10.05,10.05,0,0,0,.695-4.308,9.982,9.982,0,0,0-.695-4.3,2.516,2.516,0,0,0-4.465-.019,9.908,9.908,0,0,0-.7,4.318" transform="translate(426.375 23.292)"/>
      <path id="Trazado_894932" data-name="Trazado 894932" d="M684.8,47.239H683.67V39.96q0-.909.056-1.718c-.1.1-.207.2-.328.307s-.676.561-1.663,1.362l-.614-.8,2.7-2.089h.978Z" transform="translate(401.648 21.833)"/>
      <path id="Trazado_894933" data-name="Trazado 894933" d="M690.164,37.025l-3.809,10.214H685.2l3.807-10.214Z" transform="translate(404.052 21.833)"/>
      <path id="Trazado_894934" data-name="Trazado 894934" d="M695.844,47.293h-6.713v-1l2.69-2.7a19.948,19.948,0,0,0,1.62-1.774,4.538,4.538,0,0,0,.587-1.035,2.96,2.96,0,0,0,.2-1.083,1.715,1.715,0,0,0-.494-1.3,1.906,1.906,0,0,0-1.377-.479,3.455,3.455,0,0,0-1.2.21,4.8,4.8,0,0,0-1.267.761l-.615-.79a4.712,4.712,0,0,1,3.074-1.173,3.255,3.255,0,0,1,2.256.736,2.538,2.538,0,0,1,.819,1.981,3.835,3.835,0,0,1-.547,1.922,12.268,12.268,0,0,1-2.04,2.4l-2.237,2.186v.056h5.254Z" transform="translate(406.371 21.778)"/>
      <text id="in" transform="translate(1.858 14.33)" font-size="19" font-family="Roboto-Italic, Roboto" font-style="italic"><tspan x="0" y="0">in</tspan></text>
    </g>
  </g>
</svg>
