<svg xmlns="http://www.w3.org/2000/svg" xmlns:xlink="http://www.w3.org/1999/xlink" width="92.344" height="92.344" viewBox="0 0 92.344 92.344">
  <defs>
    <clipPath id="clip-path">
      <rect id="Rectángulo_401506" data-name="Rectángulo 401506" width="92.344" height="92.344" fill="none"/>
    </clipPath>
  </defs>
  <g id="Grupo_1113917" data-name="Grupo 1113917" transform="translate(-759.378 -3536.337)">
    <g id="Grupo_1113439" data-name="Grupo 1113439" transform="translate(759.378 3536.337)">
      <g id="Grupo_1099827" data-name="Grupo 1099827" clip-path="url(#clip-path)">
        <path id="Trazado_883915" data-name="Trazado 883915" d="M92.344,46.173A46.172,46.172,0,1,1,46.172,0,46.172,46.172,0,0,1,92.344,46.173" transform="translate(0 -0.001)" fill="#ffe260"/>
      </g>
    </g>
    <g id="medida" transform="translate(779.293 3465.6)">
      <g id="Grupo_1113447" data-name="Grupo 1113447" transform="translate(0 102.4)">
        <g id="Grupo_1113446" data-name="Grupo 1113446" transform="translate(0 0)">
          <path id="Trazado_894991" data-name="Trazado 894991" d="M.828,102.4a.827.827,0,0,0-.828.828V117.3a.828.828,0,1,0,1.655,0v-14.07A.827.827,0,0,0,.828,102.4Z" transform="translate(0 -102.4)"/>
        </g>
      </g>
      <g id="Grupo_1113449" data-name="Grupo 1113449" transform="translate(48.002 102.4)">
        <g id="Grupo_1113448" data-name="Grupo 1113448" transform="translate(0 0)">
          <path id="Trazado_894992" data-name="Trazado 894992" d="M495.762,102.4a.827.827,0,0,0-.828.828V117.3a.828.828,0,1,0,1.655,0v-14.07A.827.827,0,0,0,495.762,102.4Z" transform="translate(-494.934 -102.4)"/>
        </g>
      </g>
      <g id="Grupo_1113451" data-name="Grupo 1113451" transform="translate(0 120.608)">
        <g id="Grupo_1113450" data-name="Grupo 1113450" transform="translate(0 0)">
          <path id="Trazado_894993" data-name="Trazado 894993" d="M49.243,290.133h-3.31a.414.414,0,0,0-.414.414v2.068a.828.828,0,1,1-1.655,0v-2.07a.414.414,0,0,0-.414-.414H40.968a.414.414,0,0,0-.414.414v3.724a.828.828,0,0,1-1.655,0l0-3.724a.414.414,0,0,0-.414-.414H36a.414.414,0,0,0-.414.414v2.069a.828.828,0,0,1-1.655,0v-2.069a.414.414,0,0,0-.414-.414H31.036a.414.414,0,0,0-.414.414v3.724a.828.828,0,0,1-1.655,0v-3.724a.414.414,0,0,0-.414-.414H26.07a.414.414,0,0,0-.414.414v2.069a.828.828,0,0,1-1.655,0v-2.069a.414.414,0,0,0-.414-.414H21.1a.414.414,0,0,0-.414.414v3.724a.828.828,0,0,1-1.655,0v-3.724a.414.414,0,0,0-.414-.414H16.138a.414.414,0,0,0-.414.414v2.069a.828.828,0,0,1-1.655,0v-2.069a.414.414,0,0,0-.414-.414H11.173a.414.414,0,0,0-.414.414v3.724a.828.828,0,0,1-1.655,0v-3.724a.414.414,0,0,0-.414-.414H6.207a.414.414,0,0,0-.414.414v2.069a.828.828,0,0,1-1.655,0v-2.069a.414.414,0,0,0-.414-.414H.414a.414.414,0,0,0-.414.414v10.759a.414.414,0,0,0,.414.414h48.83a.414.414,0,0,0,.414-.414V290.547A.414.414,0,0,0,49.243,290.133Z" transform="translate(0 -290.133)"/>
        </g>
      </g>
      <g id="Grupo_1113453" data-name="Grupo 1113453" transform="translate(3.311 104.882)">
        <g id="Grupo_1113452" data-name="Grupo 1113452" transform="translate(0 0)">
          <path id="Trazado_894994" data-name="Trazado 894994" d="M76.992,133.256l-3.843-4.966a.737.737,0,0,0-.852-.248.829.829,0,0,0-.506.779v4.138H39.513V128.82a.827.827,0,0,0-.506-.778.734.734,0,0,0-.852.248l-3.843,4.966a.878.878,0,0,0,0,1.06l3.843,4.966a.748.748,0,0,0,.59.3.723.723,0,0,0,.262-.05.828.828,0,0,0,.506-.778v-4.138H71.79v4.138a.827.827,0,0,0,.506.778.723.723,0,0,0,.262.05.751.751,0,0,0,.591-.3l3.843-4.966a.878.878,0,0,0,0-1.061Z" transform="translate(-34.134 -127.993)"/>
        </g>
      </g>
    </g>
  </g>
</svg>
