<svg xmlns="http://www.w3.org/2000/svg" xmlns:xlink="http://www.w3.org/1999/xlink" width="361.538" height="522.179" viewBox="0 0 361.538 522.179">
  <defs>
    <clipPath id="clip-path">
      <rect id="Rectángulo_407269" data-name="Rectángulo 407269" width="361.538" height="522.179" fill="none"/>
    </clipPath>
  </defs>
  <g id="Grupo_1113593" data-name="Grupo 1113593" transform="translate(0 0.001)">
    <g id="Enmascarar_grupo_1113592" data-name="Enmascarar grupo 1113592" transform="translate(0 -0.001)" clip-path="url(#clip-path)">
      <path id="Trazado_896531" data-name="Trazado 896531" d="M992.063,27.71c-1.81-15.261,3.269-26.258,21.7-26.163,17.894.093,23.2,11.768,21.445,26.12,3.734-.791-.04,7.31-.2,8.045-.411,1.829-.821,8.8-3.874,8.185-.3,3.336-1.037,7.3-2.326,8.8-2.213,2.79-5.816,5.521-8.5,8-2.928,2.7-9.345,2.977-12.312.258-2.905-2.436-6.7-5.015-9.184-7.879-1.334-1.52-2.178-5.717-2.367-9.148-2.918.291-3.892-6.424-4.294-8.214-.169-.753-2.743-8.961-.083-8.008" transform="translate(-715.28 -1.116)" fill="#72688d" fill-rule="evenodd"/>
      <path id="Trazado_896532" data-name="Trazado 896532" d="M993.225,689.031c-1.81-15.261,3.268-26.258,21.7-26.163,17.894.093,23.2,11.767,21.445,26.12,3.734-.791-.039,7.31-.2,8.045-.41,1.829-.821,8.8-3.874,8.185-.3,3.336-1.036,7.3-2.327,8.8-2.212,2.79-5.815,5.521-8.5,8-2.928,2.7-9.345,2.977-12.311.258-2.905-2.436-6.7-5.015-9.184-7.879-1.334-1.52-2.178-5.717-2.367-9.148-2.918.291-3.892-6.424-4.294-8.214-.169-.753-2.743-8.961-.083-8.008" transform="translate(-716.118 -478.507)" fill="#72688d" fill-rule="evenodd"/>
      <path id="Trazado_896533" data-name="Trazado 896533" d="M990.262,248.134c-1.81-15.261,3.268-26.258,21.7-26.163,17.894.093,23.2,11.768,21.445,26.12,3.734-.791-.039,7.31-.2,8.045-.411,1.829-.821,8.8-3.874,8.185-.3,3.336-1.036,7.3-2.327,8.8-2.212,2.79-5.815,5.521-8.5,8-2.928,2.7-9.345,2.977-12.312.258-2.9-2.436-6.7-5.015-9.183-7.879-1.334-1.52-2.178-5.717-2.367-9.148-2.918.291-3.892-6.424-4.294-8.214-.169-.752-2.743-8.961-.083-8.008" transform="translate(-713.979 -160.235)" fill="#72688d" fill-rule="evenodd"/>
      <path id="Trazado_896534" data-name="Trazado 896534" d="M991.424,909.454c-1.81-15.261,3.268-26.258,21.7-26.163,17.894.093,23.2,11.768,21.446,26.12,3.734-.791-.04,7.31-.205,8.045-.41,1.829-.82,8.8-3.873,8.185-.3,3.336-1.037,7.3-2.327,8.8-2.212,2.79-5.815,5.521-8.5,8-2.928,2.7-9.345,2.977-12.312.258-2.9-2.436-6.7-5.014-9.183-7.878-1.334-1.52-2.178-5.717-2.367-9.148-2.918.291-3.892-6.424-4.294-8.214-.169-.753-2.743-8.961-.083-8.008" transform="translate(-714.818 -637.624)" fill="#72688d" fill-rule="evenodd"/>
      <path id="Trazado_896535" data-name="Trazado 896535" d="M994.387,1350.35c-1.81-15.261,3.268-26.258,21.7-26.163,17.894.094,23.2,11.768,21.446,26.12,3.734-.791-.04,7.31-.2,8.045-.411,1.829-.821,8.8-3.874,8.185-.3,3.336-1.036,7.3-2.327,8.8-2.212,2.79-5.815,5.521-8.5,8-2.928,2.7-9.345,2.977-12.312.257-2.9-2.436-6.7-5.015-9.183-7.879-1.334-1.519-2.178-5.717-2.367-9.147-2.918.291-3.892-6.424-4.293-8.214-.169-.752-2.743-8.961-.083-8.008" transform="translate(-716.957 -955.896)" fill="#72688d" fill-rule="evenodd"/>
      <path id="Trazado_896536" data-name="Trazado 896536" d="M991.744,468.582c-1.81-15.261,3.269-26.258,21.7-26.163,17.894.093,23.2,11.768,21.445,26.12,3.735-.791-.04,7.31-.2,8.045-.41,1.828-.821,8.8-3.873,8.185-.3,3.336-1.037,7.3-2.327,8.8-2.212,2.79-5.815,5.521-8.5,8-2.928,2.7-9.345,2.977-12.312.258-2.905-2.436-6.7-5.015-9.183-7.879-1.334-1.52-2.178-5.717-2.367-9.148-2.918.291-3.892-6.424-4.293-8.214-.169-.753-2.743-8.961-.083-8.008" transform="translate(-715.049 -319.37)" fill="#72688d" fill-rule="evenodd"/>
      <path id="Trazado_896537" data-name="Trazado 896537" d="M992.905,1129.9c-1.81-15.261,3.269-26.258,21.7-26.162,17.894.093,23.2,11.767,21.445,26.12,3.734-.791-.04,7.31-.2,8.045-.41,1.829-.821,8.8-3.873,8.185-.3,3.336-1.037,7.3-2.327,8.8-2.212,2.79-5.815,5.521-8.5,8-2.928,2.7-9.345,2.977-12.312.258-2.905-2.436-6.7-5.015-9.184-7.879-1.334-1.52-2.178-5.717-2.367-9.148-2.918.291-3.892-6.424-4.294-8.214-.169-.753-2.743-8.961-.083-8.008" transform="translate(-715.887 -796.761)" fill="#72688d" fill-rule="evenodd"/>
      <path id="Trazado_896538" data-name="Trazado 896538" d="M995.869,1570.8c-1.81-15.261,3.268-26.258,21.7-26.163,17.894.094,23.2,11.768,21.445,26.12,3.734-.791-.039,7.31-.2,8.045-.41,1.829-.821,8.8-3.873,8.185-.3,3.336-1.037,7.3-2.327,8.8-2.212,2.79-5.815,5.521-8.5,8-2.928,2.7-9.345,2.977-12.312.257-2.9-2.436-6.7-5.014-9.183-7.879-1.334-1.519-2.178-5.717-2.367-9.148-2.918.292-3.892-6.424-4.294-8.214-.169-.752-2.743-8.961-.083-8.007" transform="translate(-718.027 -1115.032)" fill="#72688d" fill-rule="evenodd"/>
      <path id="Trazado_896540" data-name="Trazado 896540" d="M217.521,49.989c.276,1.783,1.128,4.024,1.465,5.931.674,3.815.545,7.358,3.714,7.627.28,2.423,1.349,7.47,2.84,9.153,2.869,3.148,6.134,5.4,9.3,8,2.846,2.339,7.83,2.56,10.678.152,3.011-2.545,6.409-4.562,9.125-7.749,1.9-2.329,2.479-6.923,2.783-9.553,2.932.081,3.2-6.392,3.664-8.274.576-2.271,1.229-4.6,1.343-5.317.325-2.044-.353-2.616-2-1.7a8.308,8.308,0,0,0-1.505,3.413c-.28-5.057-4.113-19.495-9.083-21.656-5.757,4.8-12.242,5.242-18.215,13.028a26.192,26.192,0,0,0-1.483,5.691,20.629,20.629,0,0,1,.149-3.618,35.368,35.368,0,0,0-4.275,14.411,27.8,27.8,0,0,1,4.467-17.382c3.2-7.025,7.241-9.9,14.072-11.656-17.508,2.666-20.415,26.567-20.442,35.689-.446-5.618-1-11.343.444-17.837-2.16,5.891-2.045,7.772-1.673,14.145-2.051-5.206-1.061-11.646-3.2-14.248-1.764-.9-2.469-.207-2.168,1.745M244.7,31.646a34.131,34.131,0,0,0-11.387,7.588A18.339,18.339,0,0,1,244.7,31.646" transform="translate(-156.974 -21.671)" fill="#ffcb93" fill-rule="evenodd"/>
      <path id="Trazado_896541" data-name="Trazado 896541" d="M72.914,200.918c1.128,19.557-4.612,20.976-22.783,24.5-8.822-.994-18.373,1.955-21.53,6.885-5.738,8.962-3.041,24.562-3.818,34.94-1.148,15.33-.662,31.259-2.883,46.785-7.182,15.933-4.94,38.909-10.051,57.27-.186.672-1.3,1.9-1.728,2.921-.417.987-.22,2.557-.411,3.814-.459,3.013-5.589,11.561-7.752,14.083-2.773,3.228-2.228,4.35-.653,7.978,1.013,2.33,1.428,4.72,2.407,7.105,1.287,3.146,1.712,2.893,4.611,4.116,1.124,1.441,2.082,3.055,3.216,4.531,2.166,2.825,3.06,0,2.6-1.885,2.565,1.4,4.823.879,2.958-2.4a5.008,5.008,0,0,0-4.547-2.393,7.408,7.408,0,0,0-2.753-2.68c.531-1.761.147-5.221-1.241-6.536a6.693,6.693,0,0,0,1.614-4.321,9.6,9.6,0,0,0,2.124-.349c.692,3.364-1.091,6.739-.871,9.786.174,2.44,2.308,5.589,3.555.758,1.411-5.487,5.677-11.216,6.38-16.122.629-4.392-1.46-8.955-.818-13.447,3.094-21.641,13.3-35.353,16.705-58.627,3.1-16.671,3.311-42.478,6.125-59.268,1.479,12.118,10.344,49.236,9.09,59.137-3.068,24.226-19.126,41.2-17.825,72.43,1.537,36.857,21.648,70.9,19.978,108.3-.6,13.357-5.746,25.988-5.56,38.88.335,23.117,16.7,52.478,17.2,77.345.073,3.685-3.586,5.761-.981,9.136-2.3,10.067-3.56,17.036-6.1,27.046-1.563,1.889-3.415,4.495-.6,6.263a2.11,2.11,0,0,0,2.486,2.5,2.141,2.141,0,0,0,2.332,1.889,2.333,2.333,0,0,0,2.373,1.943,3.706,3.706,0,0,0,3.149,3.806c4.045.894,5.563-2.893,7.257-5.651,2.479-4.038,3.317-3.717,3.19-9.249-.247-10.691-.988-17.521-.017-28.256,2.47-3.847.986-5.157.094-9.061-5.612-24.559.326-51.187-1.251-77.021-.457-7.5-3.408-18.352-2.576-25.151.974-7.941,4.048-14.077,3.884-22.74-.629-33.025,4.254-67.581.635-100.3a11.38,11.38,0,0,0,5.516.035c-2.278,34.186,2.488,67.068.4,100.46-.417,6.671,2.747,15.465,2.886,22.576.148,7.58-1.146,15.881-1.4,23.617-.938,28.295,8.264,51.129.736,78.493-1.061,3.857-2.661,5.164-.721,9.215-.558,10.448-2.058,18.572-2.792,29.024-.253,3.619,1.183,4.791,2.213,7.7.936,2.651.336,5.134,3.8,6.186,2.23.677,5.155-.438,5.424-2.985a2.407,2.407,0,0,0,2.59-1.56,2.052,2.052,0,0,0,2.961-1.4,2.394,2.394,0,0,0,2.424-1.494c2.936-1.265,1.492-3.907.37-5.766-1.551-8.016-3.932-21.424-3.5-29.28,3.518-4.163-.574-6.448.051-10.1,5.11-29.869,14.032-46.778,15.307-77.743.518-12.614-6.869-28.808-5.812-38.758,3.654-34.429,21.659-72.841,23.155-107.768,1.407-32.855-16.148-48.055-20.259-72.6-1.65-9.85,7.606-48.33,9.351-58.125.673,18.756,1.655,40.613,4.068,57.712,3.085,24,14.29,39.74,17.123,58.863.8,5.376-1.726,9.729-.823,14.211.848,4.205,4.074,6.852,4.686,12.036a5.228,5.228,0,0,0-2.835,2.157,3.957,3.957,0,0,0-3.758,3.331c-1.832,1.807-2.3,4.159.993,3.7-.373,1.493,1.3,1.513,2.316,1.387,3.045-.378,6.07-.99,9.106-1.453,3-.457,2.851-1.62,3.521-4.114.809-2.836,1.78-5.447,2.71-8.213.667-1.991,1.99-2.882,2.194-5.33.174-2.193-1.167-3.152-1.966-4.842-1.811-3.807-3.705-7.593-5.4-11.448-.336-.764-.021-1.994-.251-2.847-.239-.883-1.06-1.486-1.2-2.3-3.089-18.452-4.154-42.14-11.55-58.284-1.033-14.745.367-32.1-.675-46.792-.938-13.219,2.838-27.234-3.4-35.126-3.391-4.292-11.12-6.955-21.544-6.572-17.843-4.382-22.925-6.063-22.279-24.551-7.688,5.586-10.645,9.012-20.952.06m79.737,200.825a28.678,28.678,0,0,1-.429-7.451,6.212,6.212,0,0,0,1.37,1.554,10.836,10.836,0,0,0-.5,5.114c-.153.251-.3.514-.437.784" transform="translate(0 -144.994)" fill="#ffcb93" fill-rule="evenodd"/>
      <path id="Trazado_896542" data-name="Trazado 896542" d="M272.733,173.009c2.257,2.424,3.58,3.628,7.214,3.575,3.842-.057,4.742-.813,7.2-3.577-2.493-.481-4.071-1.606-5.831-1.713-.548-.032-.865.424-1.43.429s-.976-.372-1.412-.374c-1.7-.01-2.836,1.557-5.742,1.66" transform="translate(-196.879 -123.652)" fill="#ea6d6e" fill-rule="evenodd"/>
      <path id="Trazado_896543" data-name="Trazado 896543" d="M270.887,106.705a2.154,2.154,0,0,1,.518-.086c1.272-.02,2.575.366,3.786.24a5.671,5.671,0,0,0,3.077-1.49c-2.558-1.392-5.11-1.961-7.6.432a1.4,1.4,0,0,0,.22.9m-10.732-.9c-2.491-2.394-5.042-1.825-7.6-.433a5.669,5.669,0,0,0,3.077,1.49c1.21.127,2.514-.26,3.786-.24a2.164,2.164,0,0,1,.517.086,1.406,1.406,0,0,0,.22-.9" transform="translate(-182.312 -75.194)" fill="#fff" fill-rule="evenodd"/>
      <path id="Trazado_896544" data-name="Trazado 896544" d="M262.573,101.869a1.688,1.688,0,1,0,1.688,1.688,1.687,1.687,0,0,0-1.688-1.688m17.814-.042a1.688,1.688,0,1,0,1.688,1.688,1.687,1.687,0,0,0-1.688-1.688" transform="translate(-188.326 -73.506)" fill="#5e5734" fill-rule="evenodd"/>
      <path id="Trazado_896545" data-name="Trazado 896545" d="M280.784,102.378a1.534,1.534,0,1,0,1.534,1.535,1.534,1.534,0,0,0-1.534-1.535m-17.814.042a1.534,1.534,0,1,0,1.534,1.534,1.534,1.534,0,0,0-1.534-1.534" transform="translate(-188.724 -73.904)" fill="#8f844d" fill-rule="evenodd"/>
      <path id="Trazado_896546" data-name="Trazado 896546" d="M166.158,439.569l2.894,14.215c21.583,8.829,24.717.286,33.875.514,9.591.238,14.595,6.684,34.219-1.121L240.19,439.6c-17.795,7.21-56.379,6.99-74.032-.026" transform="translate(-119.945 -317.313)" fill="#2e2e2d" fill-rule="evenodd"/>
      <path id="Trazado_896547" data-name="Trazado 896547" d="M239.8,679.511c-1.617-3.936-6.889-15.556-8.376-19.3-19.563,3.216-47.348,2.63-62.693-.029-2.364,7.208-5.451,15.08-7,19.09,9.5,6.687,25.412,27.7,35.145,41.911a11.405,11.405,0,0,0,5.516.035c14.472-17.289,29.016-34.323,37.4-41.71" transform="translate(-116.75 -476.571)" fill="#2e2e2d" fill-rule="evenodd"/>
      <path id="Trazado_896548" data-name="Trazado 896548" d="M292.61,394.237c-2.608,3.543-3.433,11.025-2.226,16.789-.083-4.869-.656-10.1,2.226-16.789m-7.5-.037c2.623,3.564,3.447,11.1,2.213,16.877.125-5.405,1.012-8.4-2.213-16.877" transform="translate(-205.815 -284.562)" fill="#161615" fill-rule="evenodd"/>
      <path id="Trazado_896549" data-name="Trazado 896549" d="M169.459,315.647c13.087,3.251,23.5,5.756,31.12,19.827a2.384,2.384,0,0,1-.018,2.323c-5.692,16.093-32.071,12.872-35.277-6.634a24.257,24.257,0,0,1,2.486-15.331c-.06-8.283-.182-18.151-.165-26.428l1.6.058c-.015,8.29.212,17.9.258,26.184m65.352.016c-10.359,3.251-23.919,6.581-31.15,19.81-.482.88-.22,1.277.132,2.242,5.806,15.944,31.437,11.939,35.508-6.56,1.179-5.36-.047-9.463-2.809-15,.06-8.282.337-18.479.32-26.755l-1.6.058c.015,8.29-.358,17.922-.4,26.208" transform="translate(-119.071 -208.908)" fill="#161615" fill-rule="evenodd"/>
      <path id="Trazado_896550" data-name="Trazado 896550" d="M253.606,96.031a5.6,5.6,0,0,0,.268-1.72,4.052,4.052,0,0,1-.184.837,2.107,2.107,0,0,0-.233-1.538,2.231,2.231,0,0,1,.14,1.044,2.957,2.957,0,0,0-.361-1.038,2.915,2.915,0,0,1,.117,1.18,1.813,1.813,0,0,0-.576-1.316,1.306,1.306,0,0,1,.329.868,2.08,2.08,0,0,0-1.329-.965,1.7,1.7,0,0,1,.73.556,18.083,18.083,0,0,0-6.426-.79,3.132,3.132,0,0,0-.941.336c-.058.03.249-.06.513-.045a5.532,5.532,0,0,0-3.057,1.829,6.8,6.8,0,0,1,2.2-1c-.093.087-.15.122-.236.216,2.381-1.078,5.462-.061,7.846.879a2.882,2.882,0,0,0-.792-.619,2.559,2.559,0,0,1,.956.7,8.828,8.828,0,0,1,.913.55,3.951,3.951,0,0,0,.017-.749,3.572,3.572,0,0,1,.109.787m9.169,0a5.6,5.6,0,0,1-.268-1.72,4.048,4.048,0,0,0,.184.837,2.109,2.109,0,0,1,.233-1.538,2.23,2.23,0,0,0-.141,1.044,2.963,2.963,0,0,1,.362-1.038,2.919,2.919,0,0,0-.117,1.18,1.814,1.814,0,0,1,.576-1.316,1.307,1.307,0,0,0-.329.868,2.082,2.082,0,0,1,1.329-.965,1.7,1.7,0,0,0-.73.556,18.083,18.083,0,0,1,6.426-.79,3.117,3.117,0,0,1,.941.336,5.094,5.094,0,0,0-.513-.045,5.531,5.531,0,0,1,3.057,1.829,6.8,6.8,0,0,0-2.2-1c.093.087.15.122.236.216-2.381-1.078-5.462-.061-7.846.879a2.881,2.881,0,0,1,.792-.619,2.556,2.556,0,0,0-.956.7,8.742,8.742,0,0,0-.913.549,3.927,3.927,0,0,1-.017-.749,3.571,3.571,0,0,0-.109.787" transform="translate(-175.122 -67.189)" fill="#170d00" fill-rule="evenodd"/>
      <path id="Trazado_896551" data-name="Trazado 896551" d="M257.466,101.32a6.12,6.12,0,0,0-8.729.489,6.522,6.522,0,0,1,8.729-.489" transform="translate(-179.557 -71.983)" fill="#161615" fill-rule="evenodd"/>
      <path id="Trazado_896552" data-name="Trazado 896552" d="M246.39,102.882c1.467,1.389,2.549,2.273,4.62,2.472,1.464.14,2.653-.318,3.977-.325.372,0,1.157.111,1.335-.137-.35.2-.814-.028-1.329-.036-2.557-.039-3.98,1.291-7.017-1.315l.073-.032a5.6,5.6,0,0,0,3.131,1.551,12.176,12.176,0,0,0,2.567-.2c.411-.051.83-.072,1.222-.086.368-.014,1.129.322,1.307.073-.379.195-.8-.108-1.307-.116-1.271-.021-2.575.366-3.785.24a5.663,5.663,0,0,1-3.077-1.49c2.665-1.45,5.323-2.007,7.912.748.2.214.412.436.31.653.143-.149-.039-.43-.218-.725a4.98,4.98,0,0,0-4.234-2.609c-2.861.08-4.249,1.893-5.485,1.332" transform="translate(-177.863 -73.305)" fill="#161615" fill-rule="evenodd"/>
      <path id="Trazado_896553" data-name="Trazado 896553" d="M279.259,109.941a1.415,1.415,0,0,1-.236.965l.083.022a1.13,1.13,0,0,0,.219-.913Z" transform="translate(-201.419 -79.363)" fill="#161615" fill-rule="evenodd"/>
      <path id="Trazado_896554" data-name="Trazado 896554" d="M255.452,112.7a6.339,6.339,0,0,1-.081.642c.007-.236.011-.447.012-.639Zm2.761-.331a2.361,2.361,0,0,1,.133.412c-.078-.154-.147-.288-.214-.406Zm-.476.048a2.287,2.287,0,0,1,.129.641,6.641,6.641,0,0,0-.219-.629Zm-1.055.157a2.061,2.061,0,0,1-.056.733,5.437,5.437,0,0,0-.034-.72Zm.53-.083a2.205,2.205,0,0,1,.031.757,5.89,5.89,0,0,0-.123-.742Zm-1.182.168a2.329,2.329,0,0,1-.035.726c-.011-.254-.022-.513-.034-.718Zm-2.765-.262a1.6,1.6,0,0,0-.224.612,2.142,2.142,0,0,1,.3-.587Zm.434.121a2.225,2.225,0,0,0-.076.66c.056-.259.1-.464.162-.641Zm1.055.166a1.591,1.591,0,0,0-.005.67,1.812,1.812,0,0,1,.067-.665Zm-.536-.064a2.193,2.193,0,0,0-.008.693,2.01,2.01,0,0,1,.1-.68Zm-2.4-.928a1.412,1.412,0,0,0-.366.543,1.626,1.626,0,0,1,.44-.494Zm.941.516a1.246,1.246,0,0,0-.186.613,1.616,1.616,0,0,1,.268-.579Zm-.489-.241a1.3,1.3,0,0,0-.263.629,1.7,1.7,0,0,1,.342-.587Z" transform="translate(-181.52 -80.63)" fill="#161615" fill-rule="evenodd"/>
      <path id="Trazado_896555" data-name="Trazado 896555" d="M250.155,100.756a1.377,1.377,0,0,1-.544-.638,2.173,2.173,0,0,0,.622.607Zm-1.988.827a1.338,1.338,0,0,1-.575-.4,2.223,2.223,0,0,0,.713.362Zm.627-.224.107-.046a2.4,2.4,0,0,1-.839-.379,1.484,1.484,0,0,0,.732.424m.959-.43.078-.035a1.022,1.022,0,0,1-.65-.507.7.7,0,0,0,.572.542m-.456.206a1.185,1.185,0,0,1-.72-.575,1.511,1.511,0,0,0,.82.53Zm1.268-.536.077-.028a2.011,2.011,0,0,1-.565-.676,1.333,1.333,0,0,0,.488.7m.9-.267a.949.949,0,0,1-.126-.689,1.874,1.874,0,0,0,.22.668Zm-.479.128a1.1,1.1,0,0,1-.286-.736,2.109,2.109,0,0,0,.377.71Z" transform="translate(-178.73 -71.929)" fill="#161615" fill-rule="evenodd"/>
      <path id="Trazado_896556" data-name="Trazado 896556" d="M273.45,172.957c2.564-.19,3.534-1.518,5.282-1.463.615.019,1.173.431,1.573.426.423-.006.765-.449,1.475-.422,1.408.054,3.033.9,5.42,1.419-2.348-.637-3.874-1.581-5.416-1.663-.714-.038-1.052.425-1.5.421-.4,0-.9-.371-1.531-.381-1.637-.027-2.78,1.292-5.3,1.663m13.834.254c-2.09,2.418-4.1,2.986-6.978,2.992a9.6,9.6,0,0,1-7.1-3.082c2.186,2.446,3.731,3.433,7.082,3.433,3.238.025,5.133-.741,6.995-3.343" transform="translate(-197.222 -123.622)" fill="#161615" fill-rule="evenodd"/>
      <path id="Trazado_896557" data-name="Trazado 896557" d="M268.261,160.121c-2.716,3.186-6.113,5.2-9.125,7.748-2.849,2.409-7.832,2.187-10.678-.152-3.169-2.6-6.434-4.855-9.3-8-1.013-1.144-1.892-5.428-2.84-9.153.4,3.228,1.269,8.258,2.394,9.59,2.212,2.837,6.427,5.615,9.114,8.135,2.927,2.741,8.729,3.028,11.694.262,2.9-2.478,6.7-5.1,9.181-8.013,1.772-2.033,2.117-7.137,2.345-9.968-.449,3.547-1.547,8.035-2.783,9.553" transform="translate(-170.59 -108.687)" fill="#161615" fill-rule="evenodd"/>
      <path id="Trazado_896558" data-name="Trazado 896558" d="M217.618,100.164c-.577-2.271-1.229-4.6-1.343-5.316-.338-2.127.668-2.619,2.353-1.642-1.225-1.556-3.339-1.564-2.82,1.7.127.8.843,3.129,1.4,5.346.463,1.848.736,8.946,4.246,8.154-3.323-.12-3.331-6.2-3.835-8.241m42.228-.027c.577-2.271,1.229-4.6,1.343-5.317.418-2.633-.93-2.292-2.044-1.675,1.2-1.51,3.029-1.532,2.511,1.733-.127.8-.843,3.13-1.4,5.346-.463,1.847-.736,8.946-4.246,8.153,3.323-.119,3.331-6.2,3.835-8.241" transform="translate(-155.728 -66.529)" fill="#161615" fill-rule="evenodd"/>
      <path id="Trazado_896559" data-name="Trazado 896559" d="M290.519,152.915a2.517,2.517,0,0,0-1.453-.279c-.548.011-.457-.488-.029-.482a1.973,1.973,0,0,1,1.482.76m1.956-.018a2.319,2.319,0,0,1,1.393-.268c.548.011.447-.484.019-.477a1.821,1.821,0,0,0-1.412.745m-1.688.7a6.4,6.4,0,0,1-.466,3.506,9.283,9.283,0,0,0,.466-3.506m1.35,0a6.394,6.394,0,0,0,.466,3.505,9,9,0,0,1-.466-3.505" transform="translate(-208.394 -109.834)" fill="#161615" fill-rule="evenodd"/>
      <path id="Trazado_896560" data-name="Trazado 896560" d="M317.658,101.331a6.12,6.12,0,0,1,8.729.489,6.522,6.522,0,0,0-8.729-.489" transform="translate(-229.309 -71.991)" fill="#161615" fill-rule="evenodd"/>
      <path id="Trazado_896561" data-name="Trazado 896561" d="M317.449,109.932a1.415,1.415,0,0,0,.237.965l-.083.022a1.132,1.132,0,0,1-.219-.913Z" transform="translate(-229.092 -79.357)" fill="#161615" fill-rule="evenodd"/>
      <path id="Trazado_896562" data-name="Trazado 896562" d="M324.223,112.694a6.423,6.423,0,0,0,.081.642c-.006-.236-.011-.447-.012-.639Zm-2.761-.331a2.368,2.368,0,0,0-.134.412c.078-.154.147-.288.214-.406Zm.477.048a2.268,2.268,0,0,0-.128.641c.079-.255.145-.457.219-.629Zm1.055.157a2.062,2.062,0,0,0,.056.733,5.437,5.437,0,0,1,.034-.72Zm-.53-.083a2.212,2.212,0,0,0-.031.757,5.935,5.935,0,0,1,.123-.742Zm1.182.168a2.33,2.33,0,0,0,.035.726c.011-.254.022-.513.034-.718Zm2.765-.262a1.6,1.6,0,0,1,.224.612,2.142,2.142,0,0,0-.3-.587Zm-.434.122a2.241,2.241,0,0,1,.076.66c-.056-.259-.1-.464-.162-.641Zm-1.055.166a1.586,1.586,0,0,1,0,.67,1.812,1.812,0,0,0-.066-.665Zm.536-.064a2.193,2.193,0,0,1,.008.693,2.018,2.018,0,0,0-.1-.68Zm2.4-.928a1.415,1.415,0,0,1,.366.543,1.634,1.634,0,0,0-.44-.494Zm-.941.516a1.247,1.247,0,0,1,.186.613,1.621,1.621,0,0,0-.268-.579Zm.488-.241a1.294,1.294,0,0,1,.263.629,1.7,1.7,0,0,0-.342-.587Z" transform="translate(-231.959 -80.624)" fill="#161615" fill-rule="evenodd"/>
      <path id="Trazado_896563" data-name="Trazado 896563" d="M337.107,100.747a1.375,1.375,0,0,0,.544-.638,2.173,2.173,0,0,1-.622.607Zm1.988.826a1.337,1.337,0,0,0,.576-.4,2.229,2.229,0,0,1-.713.362Zm-.627-.224-.107-.046a2.411,2.411,0,0,0,.839-.379,1.483,1.483,0,0,1-.732.424m-.959-.431-.078-.034a1.022,1.022,0,0,0,.65-.507.7.7,0,0,1-.572.542m.456.206a1.184,1.184,0,0,0,.72-.575,1.51,1.51,0,0,1-.82.53Zm-1.268-.536-.077-.028a2.011,2.011,0,0,0,.565-.676,1.333,1.333,0,0,1-.488.7m-.9-.267a.949.949,0,0,0,.127-.689,1.879,1.879,0,0,1-.22.668Zm.479.128a1.1,1.1,0,0,0,.286-.736,2.1,2.1,0,0,1-.377.71Z" transform="translate(-242.335 -71.922)" fill="#161615" fill-rule="evenodd"/>
      <path id="Trazado_896564" data-name="Trazado 896564" d="M264.961,105.178a.767.767,0,1,0,.767.767.767.767,0,0,0-.767-.767m17.814-.042a.767.767,0,1,0,.767.767.767.767,0,0,0-.767-.767" transform="translate(-190.715 -75.895)" fill="#161615" fill-rule="evenodd"/>
      <path id="Trazado_896565" data-name="Trazado 896565" d="M282.814,107.7a.245.245,0,1,1-.255.234.244.244,0,0,1,.255-.234m-19.2.587a.153.153,0,1,1-.013.306.153.153,0,1,1,.013-.306m-.144-.545a.245.245,0,1,1-.255.234.245.245,0,0,1,.255-.234m19.2.5a.153.153,0,1,1-.16.147.154.154,0,0,1,.16-.147" transform="translate(-190.005 -77.744)" fill="#fff" fill-rule="evenodd"/>
      <path id="Trazado_896566" data-name="Trazado 896566" d="M325.246,102.873c-1.467,1.389-2.549,2.273-4.62,2.472-1.464.14-2.652-.318-3.977-.325-.371,0-1.157.111-1.335-.137.35.2.814-.028,1.329-.036,2.557-.039,3.98,1.291,7.017-1.315l-.073-.032a5.6,5.6,0,0,1-3.131,1.55,12.122,12.122,0,0,1-2.567-.2c-.41-.051-.83-.072-1.222-.086-.368-.014-1.129.322-1.307.074.379.194.8-.108,1.307-.116,1.272-.021,2.575.366,3.786.239a5.667,5.667,0,0,0,3.077-1.49c-2.665-1.451-5.323-2.007-7.913.748-.2.214-.412.436-.31.653-.143-.149.039-.43.218-.724a4.98,4.98,0,0,1,4.234-2.609c2.861.08,4.249,1.893,5.485,1.332" transform="translate(-227.577 -73.299)" fill="#161615" fill-rule="evenodd"/>
      <path id="Trazado_896567" data-name="Trazado 896567" d="M284.142,181.154c2.057,1.24,5.952.889,7.448-.349.647-.535.641-.8-.631-.952-1.816-.214-2.111.4-3.371.4-1.537,0-1.793-.606-3.142-.421-2.086.286-1.33.7-.3,1.317" transform="translate(-204.377 -129.794)" fill="#ee8789" fill-rule="evenodd"/>
      <path id="Trazado_896568" data-name="Trazado 896568" d="M291.725,182.643a4.7,4.7,0,0,0,3.7-.151c.5-.326.354-.773-.249-.657a6.447,6.447,0,0,1-3.169-.008c-.995-.241-.877.583-.287.817" transform="translate(-210.262 -131.224)" fill="#f1a0a7" fill-rule="evenodd"/>
      <path id="Trazado_896569" data-name="Trazado 896569" d="M54.375,212.428c1.977-9.8,11.8-9.076,11.445-.5-.386,9.281-12.107,36.5-15.49,53.6-1.233,4-5.945,2.019-4.893-1.254,5.294-16.475,4.553-30.106,8.938-51.842m64.3-62.245c-2.64,5.791,1.382,5.481,4.095,2.681,6.312-6.516,12.482-8.359,19.559-10.336,4.548-1.27,4.336-4.29.118-4.537-8.958-.525-19.87,3.633-23.771,12.192M106.3,286.528c-2.928-14.258-26.732-51.323-32.845-19.4-3.435,17.935,9.095,57.946,16.247,89.009,1.921,8.342,2.94,38.17,11.55,38.972,9.165.853,7.665-29.58,7.88-35.977.837-24.9.421-56.758-2.832-72.6M143.892,354.5c6.5-26.468,18.676-75.714,17.281-86.861-3.364-26.859-34.393,2.394-36.9,17.932-1.243,7.7-.061,45.909-.967,68.334-.731,18.068-2.733,40.439,5.392,41.025,6.779.489,11.655-26.023,15.195-40.429M122.245,522.858a73.576,73.576,0,0,1-1.395,11.989c-.856,5.244,2.925,2.635,6.746,2.71,3.233.063,6.147,2.5,5.469-2.161-.726-4.991-.9-8.068-1.41-12.871-.649-6.107-1.252-7.945-5.011-7.95-3.241,0-4.077,1.94-4.4,8.282M108.7,521.676c-.322,6.474-.15,5.1.193,11.861.3,5.862-3.191,2.626-7,2.343-3.225-.239-6.382,2.166-5.215-2.9,1.25-5.432,1.4-7,2.418-12.241,1.292-6.669,2.433-9.707,6.174-9.354,3.226.3,3.781,3.273,3.432,10.3m36.858-338.648c-2.077,8.274-3.447,13.248-3.368,21.017.12,11.718-.84,13.563-9.257,13.822s-15.5,2.636-14.485-10.206c.566-7.128.606-14.785.494-20.877-.263-14.181,3.9-10.71,13.515-9.423,6.351.851,16.314-7.127,13.1,5.666m-32.427,2.651c-.015,9.671.189,12.594.369,22.523.213,11.772-5.007,11.8-13.482,10.3-3.128-.553-12.816.468-11.3-7.188,1.369-6.91-2.189-22.385-2.514-27.109-.836-12.156,2.793-5.282,12.619-5.832,7.155-.4,14.325-4.62,14.307,7.3M75.109,138.717c2.109-18.354-7.2-19.694-12.553-10.933-4.272,6.995-2.312,18.967-2.067,26.572.193,6-.062,16.09-.147,23.953-.061,5.66-.8,8.281-1.93,16.548-1.421,10.393,9.913,7.093,10.363-2.1,1.27-25.931,4.179-35.279,6.335-54.036m99.016,72.3c-1.924-6.166-11.254-5.987-10.9,2.589.387,9.282,14.61,46.577,17.046,54.477,1.233,4,5.471,1.005,4.419-2.268-5.3-16.476-2.369-28.522-10.569-54.8M123.545,58.253c-4.579,4-14.487,2.348-16.12-1.518,2.989-3.9,7.061-5.94,10.678-8.152,6.2.27,9.109,6.466,5.442,9.67m-16.923-3.137a21.988,21.988,0,0,1,3.614-5.478,8.991,8.991,0,0,0-1,.532,24.852,24.852,0,0,0-2.555,3.309,4.862,4.862,0,0,0-.057,1.638m6.4-6.362a17.055,17.055,0,0,0-3.917,4.166,34.235,34.235,0,0,1,5.339-4.39c-.478.054-.955.129-1.422.224m3.965,24.1c-.239-1.632.052-3.791-.093-6.545-.133-2.54-1.564-2.844-1.874-.272-.143,1.185.02,5.233-.3,6.662-.393,1.75,2.5,1.71,2.269.155m-3.062,3.632c-.367-1.714,3.3-2.092,3.753-.526.5,1.7-3.387,2.235-3.753.526m-.819,18.53c-2.351-1.012-3.7-3.9-.363-5.344,1.95-.846,6.991-1.065,7.855,1.746,1.059,3.445-4.635,4.827-7.492,3.6M123.971,505.86c6.03-27.389,2.38-43.017.733-68.446-.9-13.832.908-25.694.86-29.874-.117-10.088,11.1-15.65,15.2-4.867,4.4,11.587,3.937,20.6,2.963,32.9C141.6,462.409,131.9,499.08,131.059,504.4c-.581,3.683,1.366,5.1-.581,6.931-1.922,1.809-7.806.434-6.507-5.467m-16.618-75.743c.789,15.182-2.579,52.962,1.3,72.744,1.2,6.1-7.394,7.944-7.194.951.5-17.433-13.726-57.308-14.7-69.72-.912-11.665-1.028-15.621,3.366-31.065,2.787-9.8,13.709-5.349,14.4,3.206.642,7.982,2.008,8.142,2.826,23.884m5.464-280.31c1.772,4.232-.282,6.926-2.515,4.346-5.336-6.162-10.854-8.686-17.329-11.225-5.972-2.343-6.274-4.605-.932-5.413,8.451.658,17.486,4.435,20.775,12.292m58.252,45.21c1.019,8.509-9.867,9.606-10.237-1.09-.579-16.71.827-35.481-1.475-46.382-1.86-8.812-4.472-4.627-6.831-13.382-3.475-12.893,8.289-18.6,17.124-8.26,4.708,5.51-.607,18.785.832,33.066,1.423,14.128-.743,24.952.586,36.048" transform="translate(-32.691 -35.032)" fill="#ffd6a2" fill-rule="evenodd"/>
      <path id="Trazado_896570" data-name="Trazado 896570" d="M293.538,177.83c-1.4.028-1.979.689-3.122.708-1.115.019-1.842-.743-3.241-.708,1.561-.314,2.139.264,3.2.261,1.287,0,1.314-.558,3.165-.261" transform="translate(-207.304 -128.303)" fill="#fff" fill-rule="evenodd"/>
      <path id="Trazado_896571" data-name="Trazado 896571" d="M279.477,177.669c.97-.006,1.612-.525,2.686-.631a24.2,24.2,0,0,0-2.683.345c-.945.009-1.767-.458-2.768-.342,1.173.107,1.663.634,2.765.627m2.734-.493c-1.022.09-1.625.62-2.745.644s-2.057-.642-3.185-.67c-1.4-.05-2.315.82-4.263-.361,1.475.762,2.931.285,4.278.124,1.221-.146,2.052.309,3.173.313a24.72,24.72,0,0,1,2.691-.3c1.982.149,2.3.99,4.946-.246-2.839,1.444-3.1.34-4.895.5" transform="translate(-196.363 -127.538)" fill="#161615" fill-rule="evenodd"/>
      <path id="Trazado_896572" data-name="Trazado 896572" d="M296.04,183.3a4.075,4.075,0,0,1-2.762-.147c-.19-.128-.186-.339.2-.207a5.7,5.7,0,0,0,2.469.049c.485-.1.542.16.095.306" transform="translate(-211.621 -132.033)" fill="#f4bac6" fill-rule="evenodd"/>
      <path id="Trazado_896573" data-name="Trazado 896573" d="M258.108,1811.77c-7.44.5-14.136,2.252-18.283,5.3A17.791,17.791,0,0,1,239,1815.3c3.182-3.9,8.387-5.724,13.944-6.5-5.7-.645-10.829-.083-14.629,2.621.016-.631.1-1.7.174-2.371,4.1-2.916,14.222-1.829,19.037-.371.093.384.187,1.063.239,1.274-5.21-.174-8.257.415-14.012,3.253,5.262-2.218,10.221-3.127,14.183-2.349.072.285.1.63.176.915m-45.362-3.081c7.44.5,14.884,4.624,19.031,7.674a5.9,5.9,0,0,0,.829-1.771c-3.182-3.935-9.237-7.2-14.234-8.2a25.077,25.077,0,0,1,14.574,4.5c-.016-.632-.039-1.787-.055-2.419-4.1-2.916-14.583-4.248-19.4-2.789-.093.384-.26,1.062-.312,1.273a22.677,22.677,0,0,1,14.742,5.281c-3.606-1.906-11-5.187-14.96-4.408l-.215.856" transform="translate(-153.576 -1303.049)" fill="#d3a354" fill-rule="evenodd"/>
      <path id="Trazado_896574" data-name="Trazado 896574" d="M344.39,103.853a1.561,1.561,0,0,0,1.541-1.325,2.2,2.2,0,0,1-1.541,1.325" transform="translate(-248.606 -74.012)" fill="#161615" fill-rule="evenodd"/>
      <path id="Trazado_896575" data-name="Trazado 896575" d="M342.548,102.458a1.561,1.561,0,0,0,1.541-1.325,2.2,2.2,0,0,1-1.541,1.325" transform="translate(-247.277 -73.005)" fill="#161615" fill-rule="evenodd"/>
      <path id="Trazado_896576" data-name="Trazado 896576" d="M253.694,7.862a10.115,10.115,0,0,1,3.74,3.676,10.329,10.329,0,0,0-3.63-3.879c-.386-.162.2-.852.443-.661a15.663,15.663,0,0,1,4.644,4.773,14.246,14.246,0,0,0-4.574-4.979c-.217-.126.149-.736.306-.636a14.662,14.662,0,0,1,3.31,2.771,14.032,14.032,0,0,0-3.145-2.962c-.237-.146.12-.739.288-.647,2.2,1.24,4.192,3.775,5.8,7.179C259.4,9,257.3,6.3,255.174,5.13c-.324-.159.17-.978.474-.874a13.006,13.006,0,0,1,4.38,4.155,11.918,11.918,0,0,0-4.273-4.352c-.263-.13.12-.759.347-.62,7.42,3.22,9.692,16.484,8.723,22.219-.849.2-2.111,1.013-2.93,4.349-.349-6.025-4.378-19.075-8.651-21.442-.3-.164.141-.877.45-.7m-6.029,2.113a18.34,18.34,0,0,0-11.386,7.588,34.128,34.128,0,0,1,11.386-7.588M234.6,21.378c4.765-6.2,17.711-11.142,18.486-13.485.066-.2-.022-.272-.2-.369a9.335,9.335,0,0,0-2.032-.807,6.381,6.381,0,0,1,2.308.822c.153.072.44-.457.269-.55A13.355,13.355,0,0,0,249.4,5.521a12.206,12.206,0,0,1,4.154,1.33c.191.069.458-.491.277-.568A13.528,13.528,0,0,0,249.571,4.8a11.113,11.113,0,0,1,4.365,1.312c.3.123.914-.948.588-1.1a16.868,16.868,0,0,0-5.814-1.942,15.089,15.089,0,0,1,5.949,1.7c.22.119.678-.748.488-.93-.8-.429-2.729-1.275-3.769-1.687A18.1,18.1,0,0,1,255.244,3.7c.179.1.512-.459.318-.586-16.947-8.823-35.221,1.844-33.93,22.637,3.479,1.7,1.9,9.175,4.224,15.07-.372-6.373-.487-8.255,1.673-14.145-1.447,6.5-.89,12.219-.444,17.837.026-9.122,2.933-33.023,20.441-35.689-6.83,1.756-10.87,4.632-14.072,11.657a27.8,27.8,0,0,0-4.466,17.381,35.362,35.362,0,0,1,4.275-14.411,20.61,20.61,0,0,0-.149,3.618,26.2,26.2,0,0,1,1.482-5.691" transform="translate(-159.944 0.001)" fill="#2d1900" fill-rule="evenodd"/>
      <path id="Trazado_896577" data-name="Trazado 896577" d="M227.361,661.126a158.914,158.914,0,0,0,6.774,22.724c2.537-2.668,3.927-4.224,6.9-7.3-2.765-5.611-4.666-10.379-7.059-16.314-1.618.282-4.2.526-6.619.89m-.448.964a215.269,215.269,0,0,1-48.45.044c-.063.372-.141.7-.2,1.02a216.316,216.316,0,0,0,48.874-.054q-.109-.5-.218-1.01m-33.057,49.578c1.889,3.289,2.639,4.856,3.679,6.784a8.485,8.485,0,0,0,9.066.79c1.856-2.821,3.221-4.661,4.836-6.933-4.312,1.162-12.711,1.219-17.581-.641M178,661.131a118.244,118.244,0,0,1-5.794,22.612c-.594-.626-4.472-4.46-6.94-6.947,2.055-4.458,5.175-12.687,6.013-16.611,2.705.518,4.145.562,6.721.946" transform="translate(-119.301 -476.57)" fill="#161615" fill-rule="evenodd"/>
      <path id="Trazado_896578" data-name="Trazado 896578" d="M239.8,721.986c-.175-.491-.979-2.191-1.309-2.961-12.958,13.162-23.63,26.92-34.456,42.713,13.12-14.516,23.345-28.485,35.764-39.752m-44.825,38.93c-11.686-22.587-19.742-28.933-32.256-41.645-.272.683-.7,1.764-.983,2.479,17.04,17.422,19.214,19.424,33.239,39.166" transform="translate(-116.75 -519.045)" fill="#464545" fill-rule="evenodd"/>
      <path id="Trazado_896579" data-name="Trazado 896579" d="M231.456,388.178c1.91,13.7-3.513,25.488-17.162,29.921,7.54,1.972,13.771.87,19.209-5.081,4.824-5.277,7.067-13.127,6.808-20.2a14.9,14.9,0,0,0-.708-2.011c.648,7.567-1.342,16.1-6.551,21.8a17.288,17.288,0,0,1-16.713,5.418c12.72-4.79,17.491-17.241,15.707-30.031l-.591.186m-56.117-.395c-1.736,12.451,2.323,26.549,15.566,30.533a17.276,17.276,0,0,1-16.145-5.007c-5.775-5.823-8.3-15.472-6.83-23.464a30.407,30.407,0,0,0-.915,3.049c-.414,7.463,1.981,15.472,7.311,20.846,5.562,5.608,11.768,6.513,19.086,4.583-14.51-3-19.333-17.061-17.474-30.384l-.6-.157" transform="translate(-120.531 -279.93)" fill="#5d5c5c" fill-rule="evenodd"/>
      <path id="Trazado_896580" data-name="Trazado 896580" d="M229.063,455.012c-9.434,3.554-20.543,1.01-23.685-9.4l-.683,0c3.277,10.859,14.678,13.707,24.583,9.975,4.1-1.544,8.111-4.639,10.926-10.473.14-.918.7-3.1,1.027-4.584-2.043,6.282-5.061,11.292-12.17,14.483m-61.386-12.676c.2.444.592,2.784.849,4.054a19.448,19.448,0,0,0,16.411,10.841c8.808.716,16.186-2.315,18.616-11.624l-.708-.006c-2.346,8.991-9.474,11.728-17.932,11.014a19.177,19.177,0,0,1-17.238-14.279" transform="translate(-121.042 -318.006)" fill="#464545" fill-rule="evenodd"/>
      <path id="Trazado_896581" data-name="Trazado 896581" d="M297.2,500.024c-2.2,15.371.391,26.419-.224,41.518,2.455-13.774-.144-28.94.224-41.518" transform="translate(-213.89 -360.954)" fill="#fcb275" fill-rule="evenodd"/>
      <path id="Trazado_896582" data-name="Trazado 896582" d="M152.419,372.331c.168,1.015.849,1.558,1.089,2.453.246.916,0,1.944.421,2.9,1.61,3.654,3.536,8.04,5.474,11.534.78,1.4,1.969,2.561,1.825,4.323-.179,2.161-1.522,3.241-2.151,5.118-.934,2.781-1.91,5.4-2.723,8.255-.569,1.987-.337,3.093-2.789,3.466-2.947.448-5.951,1.137-8.876,1.5-1.615.2-1.831-.2-1.037-1.274.877-1.187,3.376-2.31,4.76-1.708a.453.453,0,0,0,.592-.229,3.923,3.923,0,0,1,1.49-1.21c3.939,2.821,2.89-1.927,2.484-3.97a6.787,6.787,0,0,1,.94-2.162,1.9,1.9,0,0,0,.045-.9,8.983,8.983,0,0,1,.585-4.509.459.459,0,0,0-.169-.589,5.822,5.822,0,0,1-2.033-2.909,27.526,27.526,0,0,1,.337-3.471c-2.579,4.048-.924,12.111-.1,16.753.445,2.506-1.114,1.63-2.129.514-1.292-1.421-1.535-3.289-1.842-5.141-.8-4.807-3.71-7.032-4.537-11.136-.857-4.252,1.787-8.83.986-14.235-2.827-19.089-14.187-34.857-17.26-58.784-2.742-19.44-2.213-46.449-4.931-64.829-1.963,18.135-12.27,48.79-10.911,65.318,1.538,18.72,21.608,39.244,20.214,72.465-1.462,34.838-19.372,73.4-23.018,107.753-1.076,10.133,5.635,26.829,5.115,39.462-1.132,30.662-10.214,47.439-14.2,77.3-.488,3.659,2.36,6.018.515,9.118-.306.514-.45.392-.486,1.03-.436,7.708,2.157,21.775,3.648,29.486,1.075,1.245,2.133,3.413.49,4.345-.33-1.314-1.159-2.169-2.377-3.672a20.341,20.341,0,0,1,1.479,3.834,1.335,1.335,0,0,1-1.684,1.475c-.554-1.649-1.525-3.211-2.142-4.871.041,2.167.625,2.444,1.329,4.777.415,1.374-.756,2.073-1.943,1.509.015-1.771-1.536-4.057-2.1-5.735-.139,1.812,1.37,3.523,1.259,5.84-.047.977-.905,1.992-1.924,1.558-.342-1.671-1.849-3.292-2.467-7.138-.105,4.211.972,4.3,1.6,7.324.41,1.976-2.112,3.407-4.24,2.761-2.844-.864-2.4-3.345-3.2-5.614-.965-2.73-2.4-3.987-2.163-7.335.73-10.4,2.529-18.141,3.078-28.536a2.629,2.629,0,0,0-.327-1.358c-1.227-2.677.013-4.948.911-8.186,7.616-27.455-1.1-50.4-.163-78.782.258-7.755,1.3-15.858,1.153-23.464-.139-7.07-3.35-16.131-2.937-22.74,2.1-33.621-2.459-67.9-.1-102.337-2.62,1.172-6.508,1.18-9.061-.822,3.735,32.854-.786,69.654-.154,102.825.163,8.582-3.049,15.1-4.015,22.985-.849,6.938,1.908,17.356,2.369,24.945,1.579,25.9-3.783,52.69,1.9,77.343.758,3.292,1.906,4.313.4,7.651-.237.528-.625.859-.678,1.464-.922,10.671.148,17.443.394,28.082.121,5.24-.7,4.914-3.057,8.748-1.438,2.343-2.807,6-6.275,5.238-1.9-.421-3.149-2.172-2-3.97,1.2-1.873,2.385-2.816,3.165-5.129-1.218,1.7-3.693,3.606-4.473,5.461a1.493,1.493,0,0,1-1.631-1.577c.082-1.816,1.842-3.01,2.84-4.864-1.2,1.424-3.037,2.2-3.561,4.3A1.27,1.27,0,0,1,62,658.774c.291-1.671,1.516-2.209,2.206-4.094-1.155,1.453-2.263,1.619-3.114,3.773a1.248,1.248,0,0,1-1.585-1.6c.31-1.179,1.845-2.56,2.261-3.7-1.238,1.112-2.111,1.488-2.939,2.855-2.32-1.472.112-3.922,1.094-4.978,2.535-10.011,4.055-17.067,6.324-27.142.163-.724.279-.862-.046-1.411-1.383-2.342,1.021-4.824.963-7.969-.454-24.722-15.61-54.033-16.06-77.006-.258-13.18,4.495-25.9,5.1-39.433,1.668-37.359-18.122-71.709-19.73-108.365-1.4-32,16.148-50.53,17.463-72.1.8-13.205-8.575-53.665-10.893-65.509-3.825,21.027-3.218,44.336-7.145,65.432-3.805,23.074-13.246,36.979-16.38,58.393-.692,4.726,1.559,9.3.943,13.666-.7,4.876-4.968,10.4-6.258,16.133-.627,2.789-1.731.788-1.92-.7-.4-3.138,2.992-9.914-1.078-12.459a7.814,7.814,0,0,1,.835,1.858,6.452,6.452,0,0,1-3.4.137.449.449,0,0,0-.534.459,5.738,5.738,0,0,1-2.118,3.93c-.244.181-.437.447-.171.741,1.568,1.737,1.76,4.243,1.488,6.466a.454.454,0,0,0,.346.493,6.361,6.361,0,0,1,4.242,3.2.455.455,0,0,0,.385.223c1.655.022,3.166.428,4.028,1.945.794,1.4.443,2.095-1.14,1.491-2.4-.916-4.4-2.155-6.781-3.131-2.462-1.01-2.768-.891-3.84-3.51-.981-2.392-1.4-4.786-2.415-7.123-1.431-3.3-2.016-4.085.509-7.03,2.291-2.681,7.472-11.326,7.961-14.538a26.624,26.624,0,0,1,.349-3.6c.465-1.106,1.514-2.118,1.766-3.03,4.917-17.634,3.059-39.809,9.332-55.511,1.047-2.629,4.383-2.98,6.871-2.419a6.566,6.566,0,0,0-6.047.09c2.152-15.354,1.688-31.186,2.826-46.386.753-10.06-2.044-25.638,3.644-34.443,2.613-4.045,9.883-6.66,17.184-6.718,9.566-.075,19.149,2.976,30.154,2.639-8.3-.7-15.605-1.647-23.793-2.983,17.8-3.67,21.431-5.9,20.972-24.124l-.945-.763c1.128,19.557-4.612,20.976-22.783,24.5-8.822-.994-18.373,1.955-21.53,6.885-5.738,8.962-3.041,24.562-3.818,34.939-1.148,15.33-.662,31.259-2.883,46.786-7.183,15.933-4.94,38.909-10.051,57.269-.186.672-1.3,1.9-1.728,2.921-.417.987-.22,2.557-.411,3.814-.459,3.013-5.589,11.561-7.752,14.083-2.773,3.228-2.227,4.35-.653,7.978,1.013,2.33,1.428,4.72,2.407,7.105,1.287,3.146,1.712,2.893,4.611,4.116,1.124,1.441,2.081,3.055,3.216,4.531,2.166,2.825,3.06,0,2.6-1.885,2.565,1.4,4.824.879,2.958-2.4a5.008,5.008,0,0,0-4.547-2.393,7.411,7.411,0,0,0-2.753-2.68c.531-1.761.147-5.221-1.241-6.536a6.694,6.694,0,0,0,1.614-4.321,9.6,9.6,0,0,0,2.124-.349c.692,3.364-1.091,6.74-.871,9.786.174,2.44,2.308,5.589,3.555.759,1.411-5.487,5.677-11.216,6.38-16.122.629-4.392-1.46-8.955-.818-13.447,3.094-21.641,13.3-35.353,16.705-58.628,3.1-16.67,3.311-42.478,6.125-59.268,1.479,12.118,10.344,49.236,9.09,59.137-3.068,24.227-19.126,41.2-17.825,72.43,1.537,36.857,21.648,70.9,19.978,108.3-.6,13.357-5.746,25.987-5.56,38.879.335,23.117,16.7,52.478,17.2,77.344.073,3.685-3.586,5.761-.981,9.136-2.3,10.067-3.56,17.036-6.1,27.046-1.085,1.1-2.37,3.014-2,4.657.772,3.406,8.066,11.211,11.742,11.749,4.1.6,5.564-2.893,7.258-5.651,2.479-4.038,3.317-3.717,3.189-9.249-.246-10.691-.987-17.521-.017-28.256,2.47-3.847.986-5.157.094-9.061-5.612-24.559.326-51.187-1.251-77.021-.457-7.5-3.408-18.353-2.576-25.151.974-7.941,4.048-14.076,3.884-22.74-.629-33.025,4.254-67.58.635-100.3a10.352,10.352,0,0,0,5.516.035c-2.278,34.186,2.488,67.068.4,100.46-.417,6.671,2.747,15.465,2.886,22.576.148,7.58-1.146,15.881-1.4,23.617-.938,28.295,8.264,51.129.736,78.492-1.061,3.857-2.661,5.164-.721,9.215-.558,10.448-2.058,18.572-2.792,29.024-.253,3.618,1.183,4.791,2.213,7.7.936,2.65.385,4.982,3.8,6.186,3.891,1.373,12.456-4.859,14.71-8.356,1.007-1.563-.1-3.448-.941-4.846-1.551-8.016-3.932-21.425-3.5-29.28,3.518-4.163-.574-6.449.051-10.1,5.11-29.869,14.033-46.779,15.307-77.743.518-12.613-6.869-28.808-5.812-38.758,3.654-34.429,21.659-72.841,23.155-107.768,1.407-32.855-16.148-48.056-20.259-72.6-1.65-9.851,7.606-48.33,9.351-58.125.673,18.757,1.655,40.613,4.068,57.712,3.085,24,14.29,39.74,17.123,58.863.8,5.376-1.727,9.729-.823,14.21.848,4.206,4.074,6.852,4.687,12.037a5.226,5.226,0,0,0-2.835,2.157,3.958,3.958,0,0,0-3.758,3.331c-1.832,1.807-2.3,4.159.994,3.7-.373,1.493,1.3,1.513,2.316,1.388,3.045-.378,6.07-.99,9.106-1.453,3-.457,2.851-1.62,3.521-4.114.81-2.836,1.78-5.447,2.71-8.213.667-1.991,1.99-2.882,2.194-5.331.174-2.193-1.168-3.151-1.966-4.842-1.811-3.807-3.705-7.593-5.4-11.448-.336-.764-.021-1.994-.251-2.846-.239-.883-1.06-1.486-1.2-2.3-3.089-18.452-4.154-42.14-11.55-58.284-1.033-14.745.367-32.1-.675-46.792-.938-13.22,2.838-27.234-3.4-35.126-3.391-4.293-11.12-6.955-21.544-6.572-17.843-4.382-22.925-6.063-22.279-24.551l-.969.788c-.6,17.168,3.549,19.416,20.59,24.389-7.9.708-16.224,2.192-25.046,2.73,12.023.164,21.517-2.928,31.733-2.395,7.829.409,14,2.761,16.84,6.382,6.237,7.963,2.283,22.133,3.153,34.42,1.013,14.277-.547,31.414.356,45.737A8.687,8.687,0,0,0,132.8,315c2.723-1.507,7.124-2.816,8.615.813,6.579,16.012,8.063,38.993,11.005,56.523M83.094,327.189c1.208,0,1.2,2.874-.011,2.874s-1.2-2.874.011-2.874M81.556,228.87c.843,1.645,2.109,1.82,3.069.047-.063,2.441-3.014,2.357-3.069-.047m61.18,181.489c-2.422.412-2.424-.267-.729-2.154a5.225,5.225,0,0,1,4.33-1.435.451.451,0,0,0,.441-.194,4.709,4.709,0,0,1,1.843-1.542,5.072,5.072,0,0,0,1.16,1.785,4.892,4.892,0,0,0-1.374,1.134,5.616,5.616,0,0,0-5.673,2.405m5.593-6.185a5.75,5.75,0,0,0-2.135,1.672,6.635,6.635,0,0,0-3.565.817,2.705,2.705,0,0,1,2.522-1.436.463.463,0,0,0,.543-.229,4.171,4.171,0,0,1,2.359-1.943c.08.381.171.757.276,1.119m4.321-2.43a28.678,28.678,0,0,1-.429-7.451,6.2,6.2,0,0,0,1.37,1.554,10.834,10.834,0,0,0-.5,5.114c-.153.25-.3.514-.437.784m-143.2-6.157c-.053,2.124-.682,2.657-1.679,4.254-.139.221-.02.4.16.525,1.291.859,1.588,4.4,1.206,5.8a8.033,8.033,0,0,0-.887-.31,9.006,9.006,0,0,0-1.453-6.421,6.906,6.906,0,0,0,2.189-3.914c.166.025.321.047.465.063m.112,16.268c1.238.558,2.454,1.163,3.692,1.719.455,1.067.518,4-1.175,1.788-.871-1.136-1.711-2.318-2.516-3.507" transform="translate(0 -144.995)" fill="#161615" fill-rule="evenodd"/>
      <path id="Trazado_896583" data-name="Trazado 896583" d="M121.514,1187.882a14.092,14.092,0,0,0-2.945,1.136c-1.052.566.344,4.551,1.579,4.231a13.635,13.635,0,0,0,3.183-1.458c.67-.407-.49-4.287-1.816-3.91M42.765,933.31c.017,1.541-1.294,3.807-1.963,3.606-.685-.2-.77-2.858.195-4.173.277-.378,1.762-.1,1.769.566m135.889-.008c-.15,1.6,1.449,3.987,2.143,3.869.654-.11.773-2.876.027-4.377a1.274,1.274,0,0,0-2.17.508m-7.782,4.635c-1.363-.569-4.1.276-4.129.763-.02.385,1.7.9,3.322.7a4.477,4.477,0,0,1,.807-1.464m2.743,2.686c-1.368.569-4.886.243-4.856-.317.027-.5,3.323-1.541,4.59-.766.258.157.264.795.266,1.083m-131.694,1.4c.193-.563.537-1.35,1.092-1.233,1.772.375,3.589,1.562,3.476,2.159-.09.476-2.762.436-4.568-.926m-3.43.745c.934,1.627,2.78,3.448,3.236,3.123.4-.288-.813-3.053-2.143-3.7-.268-.132-.744.21-1.092.582m58.195,244.966a14.923,14.923,0,0,1,2.7,1.938c.885.8-1.412,4.094-2.533,3.487a13.264,13.264,0,0,1-2.549-1.955c-.79-.738,1.334-4.052,2.381-3.469m-9.391-5.379a3.972,3.972,0,0,1-.529.665c-.544.6-1.674-.588-1.413-1.049a5.256,5.256,0,0,1,.4-.585c.562-.784,1.8.482,1.544.969m1.77,2.353c.646-.786-1.145-1.978-1.583-1.579a6.879,6.879,0,0,0-.647.835c-.525.752,1.035,1.927,1.58,1.507a4.228,4.228,0,0,0,.65-.763m2.808,1.516a5.173,5.173,0,0,1-.753,1.113c-.6.64-2.295-.752-1.884-1.411a7.778,7.778,0,0,1,.757-1.048c.517-.564,2.212.692,1.881,1.346m2.587,1.026c-.336-.246-1.133-.652-1.537-.873-.577-.315-1.723,1.659-1.136,2.122.442.35,1.079.973,1.668.951.717-.026,1.561-1.8,1.006-2.2m38.285-3.449c-.34.141-.728.376-1.052.544-.4.208.411,1.66.8,1.489.206-.092.726-.416.963-.555.383-.225-.276-1.656-.706-1.478m-3.438,2.326c-.367-.834,1.621-1.692,1.877-1.135.093.2.312.581.432.844.473,1.029-1.545,1.84-1.821,1.264-.15-.313-.342-.64-.489-.973m-1.383.333a11.689,11.689,0,0,0-1.306.613c-.343.186.068.987.343,1.6.347.769,2.392-.12,2.133-.9-.266-.8-.5-1.573-1.17-1.312m-4.225,1.482a15.862,15.862,0,0,1,1.933-.58c.569-.1,1.439,2.074.449,2.587a9.619,9.619,0,0,1-1.348.454c-.971.28-1.462-2.3-1.035-2.461" transform="translate(-27.786 -673.054)" fill="#d9000d" fill-rule="evenodd"/>
      <path id="Trazado_896584" data-name="Trazado 896584" d="M196.661,663.662c-1.419,7.036-3.2,16.417-5.889,23.074l-.552-.552c2.722-6.744,4.357-15.487,5.794-22.612Zm48.082-.022a148.415,148.415,0,0,0,6.852,23.262l.554-.61a140.146,140.146,0,0,1-6.774-22.724Z" transform="translate(-137.315 -479.012)" fill="#5d5c5c" fill-rule="evenodd"/>
      <path id="Trazado_896585" data-name="Trazado 896585" d="M228.63,1256.4c-3.29-2.476-4.194-9.637-3.48-13.852.078,5.7,1.011,10.524,3.48,13.852m32.1.045c2.77-1.581,5.45-8.013,4.756-11.666-.51,5.117-2.452,9.257-4.756,11.666m-4.47-.367c-3.067-2.8-4.594-8.866-3.9-13.08.51,5.9,1.127,9.02,3.9,13.08m-23.315.638c4-2.193,5.6-10,4.91-13.649-.51,5.117-1.263,9.753-4.91,13.649" transform="translate(-162.365 -896.963)" fill="#161615" fill-rule="evenodd"/>
      <path id="Trazado_896586" data-name="Trazado 896586" d="M245.911.8c-8.674-.921-16.485,4.812-19.672,12.464A10.908,10.908,0,0,1,227.7,11.7c-2.35,3.927-3.536,8.459-3.059,14.663a23.311,23.311,0,0,1,4.84-10.461,22.286,22.286,0,0,0-2.857,13.49c-.316-6.845,4.231-14.992,9.8-19.211a13.726,13.726,0,0,0-4.96,2.792,9.689,9.689,0,0,1,2.582-2.627c-3.481,1.664-5.635,4.3-7.969,9.828,1.989-9.284,9.868-13.794,18.962-14.2a27.6,27.6,0,0,0-5.178-.268c1.041-.321,2.012-.6,3.072-.84-5.151.1-6.509.274-11.28,3.247,4.686-4.4,10.466-5.666,16.883-4.818C242.06,2,236.987,2.621,232.36,6.22c3.776-3.738,7.792-5.086,13.551-5.424M234.317,7.364A17.015,17.015,0,0,0,226,18.509c.994-5.847,2.826-8.9,8.316-11.145m-5.055,10.08a9.1,9.1,0,0,1,3.158-4.369,21.223,21.223,0,0,0-3.158,4.369m6.023-9.687a8.836,8.836,0,0,1,4.887-1.667,20.628,20.628,0,0,0-4.887,1.667" transform="translate(-162.086 -0.504)" fill="#422600" fill-rule="evenodd"/>
      <path id="Trazado_896587" data-name="Trazado 896587" d="M293.553,670.974h-4.508a.36.36,0,0,0-.36.359v.85a.36.36,0,0,0,.36.359h4.508a.36.36,0,0,0,.359-.359v-.85a.36.36,0,0,0-.359-.359" transform="translate(-208.394 -484.358)" fill="#d3a354" fill-rule="evenodd"/>
      <path id="Trazado_896588" data-name="Trazado 896588" d="M132.209,571.909c-.935,4.384,1.1,5.826,2.58-.4.841-3.537,10.235-51.555,11.669-69.693.657-8.314.555-13.714-2.418-21.545-2.766-7.287-9.266-5.541-9.857,2.6a128.711,128.711,0,0,0-.581,20.191c1.113,17.187,2.559,50.314-1.393,68.851m1.95-110.887c3.334.114,7.44-14.482.168-14.559s-3.619,14.44-.168,14.559M61.446,284.1c1.071-6.367,7.51-6.025,5.82,1.436-.553,2.441-9.885,38-12.531,46.854-.667,2.232-2.673,2.619-2.08-.765,3.356-19.154,5.19-26.1,8.792-47.525m45.6,178.176c3.15.038,8.021-13.825.134-14.282-8.03-.465-3.654,14.241-.134,14.282m18.874-242.853c-2.133,3.25-1.074,3.982,1.53,1.081,4.733-5.274,8.26-7.046,15.688-9.174,2.7-.774,3.682-1.766-.531-1.468a21.534,21.534,0,0,0-16.687,9.561M76.15,208.807c-.343,9.359-1.511,18.227-2.533,28.141-1.035,10.048-2.733,16.886-3.19,25.563-.283,5.37-5.594,6.368-5.229,1.532.753-9.96,2.539-16.773,3.156-24.643,1.193-15.263-1.02-16.02.115-29.487,1.143-13.547,7.946-8.339,7.681-1.105M178.264,286.58c-1.209-6.342-7.64-5.858-5.786,1.563.607,2.428,10.715,37.775,13.554,46.568.715,2.216,2.73,2.56,2.063-.81-3.776-19.076-5.76-25.985-9.831-47.321M119.721,145.852c-.168-.877,2.236-1.117,2.343-.309.12.906-2.148,1.337-2.343.309M101.169,432.035c-3.06-15.4-13.469-49.567-14.935-67.687-3.094-38.254,17.121-22.124,22.587-2.217,4.793,17.457,4.286,54.032,3.531,70-.763,16.135-7.825,16.813-11.183-.094m41.407.465c-3.084,14.866-12.747,15.029-11.608-1.844,1.322-19.585,0-58.588,5.16-75.523,4.579-15.026,25.719-22.594,23.079,4.991-1.635,17.087-12.5,52.453-16.631,72.376M115.588,219.219c.691,1.19,1.008,3.413-1.311,1.342-5.267-4.7-7.28-6.9-14.259-9.192-5.312-1.741-2.094-2,.494-1.64,6.406.894,12.083,4.328,15.076,9.49m58.068,41.3c1.015,8.5-4.233,10.948-4.6.255-.4-11.69.431-24.56-.525-33.541-1.036-9.731.9-15.444-5.257-23.2-5.549-6.99,2.164-12.8,8.084-5.5,4.561,5.626,2.069,14.3,1.939,28.647-.13,14.327-.963,22.247.36,33.339m-63.8,242.235c.53,10.259-1.05,52.792,1.571,66.162.807,4.12-3.028,4.779-2.894.055.335-11.782-11.939-55.142-12.594-63.53-.615-7.883-1.232-14.024,2.015-24.377,2.711-8.644,7.2-6,8.881.071,1.858,6.72,2.814,17.6,3.021,21.62" transform="translate(-37.932 -104.707)" fill="#ffe2b1" fill-rule="evenodd"/>
      <path id="Trazado_896539" data-name="Trazado 896539" d="M858.964,184.206H1220.5v.613Zm0,61.319H1220.5v.613H858.964Zm0,61.319H1220.5v.613H858.964Zm0,61.319H1220.5v.613H858.964Zm0,61.319H1220.5v.613H858.964Zm0,61.319H1220.5v.613H858.964Zm0-490.553H1220.5V.862H858.964Zm0,61.319H1220.5v.613H858.964Zm0,61.319H1220.5v.613H858.964Z" transform="translate(-858.964 -0.179)" fill="#d9000d" fill-rule="evenodd"/>
    </g>
  </g>
</svg>
