<svg xmlns="http://www.w3.org/2000/svg" xmlns:xlink="http://www.w3.org/1999/xlink" width="72.06" height="275.5" viewBox="0 0 72.06 275.5">
  <defs>
    <clipPath id="clip-path">
      <rect id="Rectángulo_407248" data-name="Rectángulo 407248" width="58.514" height="275.5" fill="none"/>
    </clipPath>
  </defs>
  <g id="Grupo_1113501" data-name="Grupo 1113501" transform="translate(-270.254 -7482.563)">
    <g id="Grupo_1113348" data-name="Grupo 1113348" transform="translate(315.223 7720.596)">
      <g id="Grupo_1113337" data-name="Grupo 1113337" transform="translate(0 0)">
        <g id="Grupo_1113342" data-name="Grupo 1113342" transform="translate(0 0)">
          <path id="Polígono_7" data-name="Polígono 7" d="M13.546,0,27.092,18.445H0Z" transform="translate(0 19.021)" fill="#bdadea"/>
          <path id="Polígono_8" data-name="Polígono 8" d="M13.546,0,27.092,19.022H0Z" transform="translate(27.092 19.022) rotate(180)" fill="#bdadea"/>
        </g>
      </g>
    </g>
    <g id="Grupo_1113491" data-name="Grupo 1113491" transform="translate(270.254 7482.563)">
      <g id="Grupo_1113490" data-name="Grupo 1113490" clip-path="url(#clip-path)">
        <path id="Trazado_895030" data-name="Trazado 895030" d="M25.658,63.971c.094,1.747-.509,3.365-.694,5.034a42.874,42.874,0,0,0-.687,7.56,31.137,31.137,0,0,0,.654,4.118,6.064,6.064,0,0,0,2.708,3.791,11.994,11.994,0,0,0,5.527,2.519c2.649.268,5.246.487,7.955-.623,2.2-.9,5.446-5.212,5.024-7.732a34.083,34.083,0,0,0-1.9-7.156,27.588,27.588,0,0,0-3.044-6.33.729.729,0,0,1,0-.818c1.755.608,3.466,1.152,4.531,2.931,1.785,2.982,3.544,5.958,4.338,9.387a7.175,7.175,0,0,1,.208,2.931c-.177,1.046.55,2.028,1.157,2.883a14.785,14.785,0,0,1,3.017,8.981,5.158,5.158,0,0,1-5.4,5.731,10.2,10.2,0,0,1-3.08-.211,7.535,7.535,0,0,0,3.9.64c-.432,1.159-.76,2.226-1.219,3.234a13.144,13.144,0,0,0-.984,8.325,27.349,27.349,0,0,0,2.019,6.6c1.485,3.029,3.112,5.99,4.671,8.984.338.647.64,1.313.969,1.963.225.444.288.857-.265,1.075-1.618.64-2.48,2.057-3.461,3.345A81.956,81.956,0,0,0,46.08,139.5c-1.3,2.222-2.579,4.457-3.96,6.628-1.505,2.364-3.119,4.659-4.682,6.986a10.034,10.034,0,0,1-3.073,2.76,1.679,1.679,0,0,1-.647.1,71.159,71.159,0,0,0-4.685-9.4,100.047,100.047,0,0,0-5.778-8.308,31.849,31.849,0,0,0-4.727-5.74,18.351,18.351,0,0,0-6.576-3.992c-.741-.214-1.474.02-2.246-.206-.254-.978.579-1.487,1.037-2.092,1.616-2.135,3.3-4.218,4.988-6.3,1.1-1.353,2.193-2.7,3.211-4.121a19.617,19.617,0,0,0,3.366-8.268,6.036,6.036,0,0,0-.835-3.7,57.085,57.085,0,0,1-2.958-5.838c-1.224-2.81-2.532-5.647-2.349-8.819.1-1.749.465-3.482.7-5.224a17.416,17.416,0,0,0,.271-2.274,31.943,31.943,0,0,1,1.4-8.314A27.428,27.428,0,0,1,21.21,66.5a2.079,2.079,0,0,1,.907-.873,10.974,10.974,0,0,0,2.723-1.558c.242-.205.5-.108.818-.093M33.869,97.7c2.24-.621,3.814-2.235,3.286-3.439-.508,1.787-2.064,2.449-3.286,3.439" transform="translate(-3.072 -20.333)" fill="#e85722"/>
        <path id="Trazado_895031" data-name="Trazado 895031" d="M35.3,13.456c.3-.1.386-.338.488-.544a.724.724,0,0,1,1.309-.182,1.682,1.682,0,0,0,1.53.531,15.028,15.028,0,0,1,2.826.216c.4-1.444,1.137-2.486,2.711-2.644.294-.029.33-.3.475-.472a1.489,1.489,0,0,1,2.6.425,21.665,21.665,0,0,1,1.144,3.156c1.3-.94,2.2-.006,2.986.631.908.739.419,2.115.9,3.191.769-.7,1.082-.243,1.32.471a42.218,42.218,0,0,1,1.52,4.8c.108.526.393,1.154-.241,1.444-.745.34-.794-.489-1.1-.864-.042-.05-.092-.094-.2-.2a7.864,7.864,0,0,0-.076,2.571c-.005.5-.022.978-.608,1.122s-.835-.32-1.055-.734c-.279-.524-.518-1.07-.861-1.787-.184.856-.318,1.522-.473,2.184a1.24,1.24,0,0,1-1.1,1.041,1.334,1.334,0,0,1-1.354-.7,2.418,2.418,0,0,1-.5-1.408c.086-2.142-.321-4.3.149-6.429a1.164,1.164,0,0,0-.061-.859,2.758,2.758,0,0,1-2.177.253c-.764-.344-1-1.047-1.271-1.9-1.58.861-2.242-.156-2.947-1.307a3.422,3.422,0,0,0-2.858-1.43,4.356,4.356,0,0,1-1.355-.26c-.539.986-.446,2.5-1.926,2.663-1.269.136-2.032-.842-2.712-1.86-.616.518-1.168,1-1.738,1.459a2.37,2.37,0,0,1-2.817.4,2.663,2.663,0,0,1-1.471-2.675,6.128,6.128,0,0,1,.123-1.1c.152-.552.6-.958,1.129-.763a2.028,2.028,0,0,0,2.25-.722,2.889,2.889,0,0,1,3.261-.617,2.021,2.021,0,0,1,1.491,1.605,2.913,2.913,0,0,0,.685,1.29" transform="translate(-8.379 -3.105)" fill="#eacbc7"/>
        <path id="Trazado_895032" data-name="Trazado 895032" d="M20.764,29.7a8.215,8.215,0,0,1,.124,1.361,1.176,1.176,0,0,1-1,1.225c-.687.091-1.012-.325-1.212-.955a29.86,29.86,0,0,1-1.437-5.937,24.5,24.5,0,0,1,.58-8,5.832,5.832,0,0,1,1.84-3.373A1.035,1.035,0,0,1,20.86,13.8a.966.966,0,0,1,.488,1.027,11.969,11.969,0,0,0-.1,1.689c.149,1.113.615,2.178.749,3.32a1.787,1.787,0,0,0,1.272.545c.662-.08.8.306.859.837a32.974,32.974,0,0,1,.436,5.392c-.019.306-.106.544-.406.612-.33.074-.5-.152-.569-.437a11.411,11.411,0,0,0-.629-2.094c.174,1.417.325,2.84.536,4.253a4.346,4.346,0,0,1,.013,1.2,1.011,1.011,0,0,1-.883.968,1.2,1.2,0,0,1-1.306-.561c-.162-.251-.105-.616-.556-.854" transform="translate(-5.446 -4.353)" fill="#eacbc7"/>
        <path id="Trazado_895035" data-name="Trazado 895035" d="M24.04,39.673l-.486.311a1.356,1.356,0,0,1,0-1.226,7.912,7.912,0,0,0-.357-5.965c-1.176-2.887-2.406-5.754-3.649-8.614A18.291,18.291,0,0,1,18.413,19.4a40.017,40.017,0,0,1-.291-4.434A14.724,14.724,0,0,1,19.69,8.6a1.726,1.726,0,0,1,1.385-1.138c-1.61,1.563-1.9,3.621-2.1,5.654a10.24,10.24,0,0,0,1.455,5.981,10.619,10.619,0,0,1,5.8-.82,1.35,1.35,0,0,1,1.214,1.218c-.068.072-.121.166-.153.16a21.273,21.273,0,0,0-6.554-.158c-.448.047-.752-.408-.971-.79-.248-.431-.453-.887-.734-1.318a23.688,23.688,0,0,0,1.146,6.207c1.264,3.6,2.988,7.03,4.064,10.7a.817.817,0,0,0,.2.345c1.742,1.67,3.558,3.213,6.183,3.121,1.532-.055,2.644-1.026,3.849-1.813,2.949-1.925,3.935-4.988,4.741-8.135a14.043,14.043,0,0,0,.055-5.469,10.1,10.1,0,0,1,.3-2.8c.046-.329.188-.688-.106-.949a10.559,10.559,0,0,1-2.522-4.529C35.921,11.336,34.981,8.615,32.4,6.9c-.062-.042-.072-.163-.163-.388a6.638,6.638,0,0,1,3.256,2.843c1.232,1.876,2.1,3.959,3.294,5.867a9.287,9.287,0,0,0,3.219,3.5c-.695.246-1.02-.371-1.422-.321-.788,2.581-.405,5.22-.557,7.826a12.7,12.7,0,0,1-4.144,9.291,1.959,1.959,0,0,0-.47,1.78c.1,1.88.326,3.748.584,5.615.288,2.078,1.859,2.8,3.49,3.314a21.839,21.839,0,0,0,4.4,1.122c1.574.158,3.16.1,4.725.355,1.809.289,3.67.327,5.336,1.249a8.451,8.451,0,0,1,4.348,6.287c.569,3.159-.086,6.231-.48,9.331-.343,2.7-.625,5.407-.93,8.112-.392,3.473-.825,6.943-1.16,10.421-.417,4.332-1.635,8.57-1.5,12.965a21.455,21.455,0,0,0,1.332,5.747A44.9,44.9,0,0,1,57.67,116.39a30.234,30.234,0,0,1-.346,3.713,5.944,5.944,0,0,0,0,1.813,64.66,64.66,0,0,1,.647,14.277,88.906,88.906,0,0,1-1.528,11.151c-.621,3.4-1.748,6.668-2.7,9.982-1.393,4.83-2.652,9.7-3.99,14.546-.4,1.453-.87,2.887-1.324,4.325a51.843,51.843,0,0,0-1.531,6.043,20.791,20.791,0,0,0,.125,6.226c.433,3.844,1.137,7.668.895,11.553a40.865,40.865,0,0,1-1.339,7.624c-1.627,6.308-4.048,12.355-6.135,18.514-2.257,6.657-4.765,13.245-6.312,20.123a13.666,13.666,0,0,0,.1,6.108,49.839,49.839,0,0,1,.728,6.5,14,14,0,0,1-.348,5.778c-.407,1.281.322,2.7.451,4.074a45.56,45.56,0,0,1,.518,5.006,4,4,0,0,1-5.189,3.62,23.456,23.456,0,0,0-4.938-1.273,5.858,5.858,0,0,1-4.772-7.408c1.307-4.3,1.135-8.708,1.486-13.08.116-1.45.506-2.836.659-4.271a22.52,22.52,0,0,0-1.11-8.725c-1.847-6.38-3.527-12.8-4.943-19.292a93.405,93.405,0,0,1-2.391-16.613,29.529,29.529,0,0,1,1.957-12.139c1.224-3.054,1.893-6.245.981-9.544a23.176,23.176,0,0,0-2.846-5.644,87.4,87.4,0,0,1-8.339-19.142c-1.583-5.06-2.845-10.2-3.922-15.379-.854-4.1-1.4-8.267-1.983-12.422-.563-4,.393-7.8.788-11.681a21.134,21.134,0,0,0-.369-5.785,34.047,34.047,0,0,1,.6-15.924,33.995,33.995,0,0,0,.985-11.7c-.168-3.16-.073-6.332-.142-9.5-.049-2.255-.192-4.509-.265-6.764a66.165,66.165,0,0,1,.282-12c.106-.7,0-1.4.109-2.11C2.7,53.9,4.9,52.291,7.271,50.8a16.5,16.5,0,0,1,4.835-1.67,42.006,42.006,0,0,0,9.06-3.293,4.175,4.175,0,0,0,2.5-3.158,27.22,27.22,0,0,0,.375-3m9.935,133.094c0-2.29-.02-4.58,0-6.87a86.141,86.141,0,0,0-.678-11.856,81.74,81.74,0,0,0-2-12.092,42.272,42.272,0,0,0-1.39-5.343,58.51,58.51,0,0,0-5.176-9.4c-2.567-3.82-5.3-7.531-8.137-11.148a15.1,15.1,0,0,0-8.149-5.627,2.265,2.265,0,0,0-2.9,1.245,36.346,36.346,0,0,0-4.421,12.441A19.341,19.341,0,0,0,.566,129c.5,4.395,1.067,8.773,1.914,13.124a165.271,165.271,0,0,0,3.931,16.423,106.528,106.528,0,0,0,5.2,13.813c1.3,2.807,2.912,5.433,4.44,8.11a15.044,15.044,0,0,1,2.326,6.243,17.373,17.373,0,0,1-1.19,7.271,36.136,36.136,0,0,0-1.445,17.083,156.339,156.339,0,0,0,3.119,16.616c1.366,5.637,2.71,11.28,4.082,16.916a22.413,22.413,0,0,1,.846,7.063c-.038.486.049,1.006-.542,1.3-.148.072-.22.411-.232.632-.125,2.243-.253,4.486-.336,6.73a27.224,27.224,0,0,1-.511,5.591c-.289,1.166-.919,2.236-1.095,3.438-.14.958-.448,2.05.172,2.843a8.115,8.115,0,0,0,5.282,3.4,12.833,12.833,0,0,1,3.891.942,3.426,3.426,0,0,0,3.016-.174c1.541-.7,1.636-2.158,1.573-3.6a45.35,45.35,0,0,0-1.524-8.726c-.75-3.093-1.6-6.16-2.2-9.292-.882-4.614-.81-9.3-1.157-13.958a73.3,73.3,0,0,1,.336-9.986c.265-4.3.411-8.6.541-12.9.109-3.634.389-7.259.774-10.867.488-4.571,1.23-9.115,1.838-13.674a92.983,92.983,0,0,0,.5-10.376c.071-3.4.115-6.8-.145-10.205m-3.108-35.148a11.079,11.079,0,0,0,2.759-2.246c1.83-2.49,3.59-5.028,5.22-7.652,2.517-4.054,4.774-8.272,7.506-12.188,1.672-2.4,3.04-5.109,5.93-6.5-.544-1.083-1.075-2.161-1.625-3.228-2.142-4.162-4.6-8.16-5.825-12.765a15.94,15.94,0,0,1-.044-9.113c.465-1.48,1.139-2.9,1.727-4.362-3.673-.256-4.66-.521-5.169-1.429.857.177,1.661.385,2.478.5a8.014,8.014,0,0,0,4.422-.445c2.137-.933,2.891-2.764,2.942-4.961a15.2,15.2,0,0,0-2.948-8.83c-.6-.907-1.374-1.783-1.183-2.989a7.223,7.223,0,0,0-.272-3.084,31.337,31.337,0,0,0-5.431-10.584,1.266,1.266,0,0,0-.621-.484c-.841-.285-1.671-.6-2.705-.982a16.01,16.01,0,0,1,2.2,4.016c.55,1.369,1.08,2.747,1.608,4.125a19.641,19.641,0,0,1,1.381,6.258,8.426,8.426,0,0,1-6.831,8.238,14.555,14.555,0,0,1-10.554-1.563c-1.965-1.178-3.668-2.512-4.235-4.961a26.332,26.332,0,0,1-.109-10.176c.336-2.13.687-4.256,1.071-6.638a18.236,18.236,0,0,1-3.648,2.146,1.536,1.536,0,0,0-.586.666,20.468,20.468,0,0,0-1.856,4.3A37.216,37.216,0,0,0,14.3,62.572a42.882,42.882,0,0,1-.556,4.7,16.184,16.184,0,0,0,.445,8.706,68.218,68.218,0,0,0,4.076,8.866,7.819,7.819,0,0,1,1.062,5,19.906,19.906,0,0,1-4.092,9.065c-2.068,2.648-4.254,5.2-6.352,7.828A15.294,15.294,0,0,0,6.711,109.9a9.146,9.146,0,0,1,2.719.282,18.342,18.342,0,0,1,7.316,5.038c2.276,2.512,4.14,5.357,6.174,8.064a61.521,61.521,0,0,1,7.947,14.33M34.25,263.152a60.911,60.911,0,0,0-.181-7.96,8.707,8.707,0,0,0-.3-2.381,13.556,13.556,0,0,1-.273-7.348c1.089-4.536,2.826-8.868,4.223-13.307,1.427-4.537,3.166-8.96,4.65-13.477a141.151,141.151,0,0,0,4.082-14.585c.966-4.525.579-8.971.023-13.446a31.713,31.713,0,0,1,.6-12.694c1.221-4.328,2.477-8.645,3.709-12.971.6-2.1.753-4.322,1.648-6.325a63.814,63.814,0,0,0,2.59-8.553,74.756,74.756,0,0,0,1.648-8.675,66.606,66.606,0,0,0,.788-8.63,64.094,64.094,0,0,0-.35-7.737,43.523,43.523,0,0,0-4.082-14.522c-.489-1.057-.962-1.127-1.772-.3a20.211,20.211,0,0,0-1.769,2.07,147.308,147.308,0,0,0-7.86,12.671c-2.827,4.762-5.913,9.3-10.084,13-.247.219-.452.383-.326.837a83.591,83.591,0,0,1,2.21,11.144,114.328,114.328,0,0,1,1.3,13.226c.115,6.288.529,12.572.322,18.866-.073,2.223,0,4.457-.209,6.666-.429,4.509-.987,9.006-1.526,13.5-.419,3.5-.73,7.016-1.055,10.529-.4,4.329-.395,8.674-.7,13.005-.206,2.922-.216,5.859-.491,8.772a80.113,80.113,0,0,0,.359,14.238,58.723,58.723,0,0,0,1.494,9.135,42.351,42.351,0,0,0,1.338,5.24m-16.6-214.8c-1.42.432-2.655.84-3.908,1.181-3.006.82-6.108,1.391-8.531,3.6a4.976,4.976,0,0,0-1.83,2.66,47.312,47.312,0,0,0-.819,10.29c.083,3.939.262,7.876.342,11.815.057,2.8.031,5.6.02,8.407-.017,4.232.267,8.484-.821,12.647A34.381,34.381,0,0,0,1.09,112.126a40.513,40.513,0,0,1,.513,6.041,46.986,46.986,0,0,1,6.569-11.989c.726-.934,1.725-1.747,1.857-3.05.412-4.067.926-8.129,1.187-12.207.274-4.3.333-8.611.621-12.911.181-2.716.434-5.419.784-8.121a38.544,38.544,0,0,0,.7-5.384,29.24,29.24,0,0,1,.948-7.066,51.266,51.266,0,0,1,3.391-9.092m39.169,70.829a58.772,58.772,0,0,0,.012-8.006,52.023,52.023,0,0,0-2.03-9.9,26.826,26.826,0,0,1-1.239-6.173c-.162-3.517.7-6.936,1.147-10.391.526-4.068.875-8.152,1.333-12.227.4-3.53.661-7.075,1.333-10.572a19.626,19.626,0,0,0,.139-7.066,6.888,6.888,0,0,0-5.651-6.023,23.536,23.536,0,0,0-3.7-.413,58.217,58.217,0,0,1-6.226-.639c3.025,3.043,4.607,6.793,5.7,11.032a3.255,3.255,0,0,1,.749-1.664c.476.552.2,1.088.027,1.55a6.392,6.392,0,0,0,.735,5.943,17.786,17.786,0,0,1,2.593,6.387c.546,3.2.077,6.817-3.627,7.946a1.211,1.211,0,0,0-.834.9c-.6,1.918-1.412,3.747-1.876,5.73-.919,3.928.029,7.586,1.228,11.217a44.192,44.192,0,0,0,3.522,6.992,73.47,73.47,0,0,1,5.61,11.791,21.82,21.82,0,0,0,1.051,3.584M34.866,68.315c1.154.292,2.047-.328,3.025-.65a7.533,7.533,0,0,0,4.483-8.387,61.274,61.274,0,0,0-3.166-9.2,13.564,13.564,0,0,0-2.216-4.258,6.752,6.752,0,0,1-1.552-2.763,18.171,18.171,0,0,1-.686-5.572,1.39,1.39,0,0,0-.166-1.07,17.059,17.059,0,0,0-1.479,1.29,7.429,7.429,0,0,0-.812,1.266,2.04,2.04,0,0,1-2.983.978,7.494,7.494,0,0,1-3.345-2.808A3.866,3.866,0,0,0,24.452,35.8c.106.919.261,1.714.28,2.514.05,2.049.194,4.173-.9,5.993a10.085,10.085,0,0,0-1.246,3.748c-.31,1.957-.448,3.934-.645,5.9a26.545,26.545,0,0,0-.136,6.817,6.077,6.077,0,0,0,1.483,3.756,13.756,13.756,0,0,0,10.857,3.827,26.366,26.366,0,0,0-4.4-6.943,13.415,13.415,0,0,1,5.118,6.9M10.644,102.991c2.909-3.5,5.667-6.77,7.312-10.84a7.462,7.462,0,0,0-.55-7.072c-.4-.663-.751-1.354-1.1-2.044a37.923,37.923,0,0,1-3.344-8.605q-.518,7.111-.909,14.18c-.258,4.727-.854,9.419-1.41,14.381" transform="translate(0 -2.07)" fill="#8e3a21"/>
        <path id="Trazado_895036" data-name="Trazado 895036" d="M55.412,26.58a2.2,2.2,0,0,1-2.113-.438c-2.089-1.333-2.922-3.491-3.735-5.684-1.034-2.784-1.273-5.744-2.015-8.592a14.009,14.009,0,0,0-9.3-10.329A19.037,19.037,0,0,0,28.327.677a23.13,23.13,0,0,0-6.16,1.732c-4.3,2.181-6.456,5.9-7.236,10.486-.46,2.711-.691,5.461-1.06,8.188a17.359,17.359,0,0,1-2.429,7.464,6.071,6.071,0,0,1-3.709,2.279c-.2-.378.031-.488.2-.533,3.516-.9,4.346-3.794,4.922-6.784.627-3.261.782-6.59,1.243-9.876.548-3.906,2.016-7.492,5.157-9.934A17.516,17.516,0,0,1,27.909.213a24.52,24.52,0,0,1,9.23.524c5.949,1.5,9.4,5.315,11,11.068.621,2.236.7,4.586,1.431,6.793A18.734,18.734,0,0,0,52.1,24.367a5.629,5.629,0,0,0,3.31,2.213" transform="translate(-2.435 0)" fill="#8e3a21"/>
        <path id="Trazado_895037" data-name="Trazado 895037" d="M28.268,35.85c-.593,3.092-.1,6.257-2.721,8.311,1.311-1.628,1.486-3.673,1.811-5.645a20.109,20.109,0,0,0,.322-3.606,8.012,8.012,0,0,0-1.086-2.874,31.422,31.422,0,0,1-2.03-6.615,1.136,1.136,0,0,1,.076-.612,7.714,7.714,0,0,1,.745,2.254,72.578,72.578,0,0,0,2.963,7.468c1.109,2.859,2.143,5.729,1.647,8.883-.029.183.062.417-.377.6a26.623,26.623,0,0,0-.363-4.84,12.087,12.087,0,0,1-.569,3.177A3.349,3.349,0,0,1,26.9,44.8c1.719-2.832,2.432-5.618,1.365-8.948" transform="translate(-7.807 -7.89)" fill="#8e3a21"/>
        <path id="Trazado_895038" data-name="Trazado 895038" d="M19.316,22.235a5.382,5.382,0,0,1,.618,2.866c.252,2.292.331,4.6.427,6.911.029.7-.33,1.47-.136,2.091.773,2.482-.448,4.6-1.121,6.8a3.632,3.632,0,0,1-2.332,2.55c1.893-1.808,2.313-4.254,2.943-6.609a18.863,18.863,0,0,1-1.692,3.595,7.717,7.717,0,0,1-2.662,2.821c-.393.217-.834.514-1.248-.092,1.965-.722,2.772-2.506,3.687-4.123,1.9-3.364,2.21-7.061,1.933-10.833-.14-1.9-.065-3.814-.417-5.972" transform="translate(-4.488 -7.071)" fill="#8e3a21"/>
        <path id="Trazado_895039" data-name="Trazado 895039" d="M40.438,5.644c1.939.709,2.538,2.523,3.389,4.141.211.014.139-.157.151-.256.016-.123,0-.25,0-.595.93,1.884,1.742,3.592,2.613,5.27.507.978,1.112,1.9,1.66,2.863.179.313.469.3.762.382a7.588,7.588,0,0,1,2.926,1.206c-.374.484-.8.224-1.134.1a5.738,5.738,0,0,0-3.462-.207c-.494.127-.852-.068-.668-.494C46.9,17.539,46.6,17.3,46.4,17A29.8,29.8,0,0,1,43.672,11.1c-.775-1.99-1.506-4.015-3.234-5.451m4.2,5.915a21.09,21.09,0,0,0,2.388,5.557.615.615,0,0,0,.942.19,54.945,54.945,0,0,1-3.33-5.748" transform="translate(-12.86 -1.795)" fill="#8e3a21"/>
        <path id="Trazado_895040" data-name="Trazado 895040" d="M72.441,37.015c-2.275-.061-5.154-3.487-5.582-6.833.394.757.833,1.495,1.171,2.276a10.782,10.782,0,0,0,1.407,2.206,3.673,3.673,0,0,0,2.038,1.647,19.7,19.7,0,0,1-2.905-3.675,25.1,25.1,0,0,1-2.363-5.942c-.967-3.241-1.053-6.612-1.583-9.92A21.47,21.47,0,0,1,65.63,21.5,27.052,27.052,0,0,0,70.217,34.01,8.928,8.928,0,0,0,72.1,36.1c.34.246.513.5.343.915" transform="translate(-20.552 -5.334)" fill="#8e3a21"/>
        <path id="Trazado_895041" data-name="Trazado 895041" d="M14.871,35.273c-1.069,2.54-2.313,4.936-4.895,6.276a2.363,2.363,0,0,1-2.189.276,6.876,6.876,0,0,0,3.336-1.785A15.623,15.623,0,0,0,14.942,32.4a13.061,13.061,0,0,1,.422-1.677c.387,1.063-.121,2.06-.219,3.133.254-.037.181-.377.41-.348.311,3.243-2.612,10.247-6.089,10.806,3.487-2.2,4.587-5.544,5.405-9.045" transform="translate(-2.476 -9.772)" fill="#8e3a21"/>
        <path id="Trazado_895042" data-name="Trazado 895042" d="M45.034,42.068c-2.423,3.053-3.26,3.037-5.609-.212a7.978,7.978,0,0,1,2.894-1.41c1.318-.164,1.868.984,2.716,1.622" transform="translate(-12.538 -12.858)" fill="#8e3a21"/>
        <path id="Trazado_895043" data-name="Trazado 895043" d="M65.285,38.244c.517,2.83,1.23,5.615,3.418,7.874-.787.143-1.118-.327-1.431-.752a16.321,16.321,0,0,1-2.679-7.08,3.489,3.489,0,0,1-.139-1.787c.455.095.455.095.766-.58,1.111,3.394,1.569,7.082,5.073,9.088-.391.508-.77.153-1.1-.046a7.71,7.71,0,0,1-2.995-4.055c-.353-.867-.609-1.773-.909-2.662" transform="translate(-20.472 -11.423)" fill="#8e3a21"/>
        <path id="Trazado_895044" data-name="Trazado 895044" d="M60.348,25.22c.228,2.308.429,4.605.69,6.895q.416,3.648.728,7.3c.183,2.113-1.1,5.5-2.768,6.528.4-.884.934-1.539,1.262-2.311a12.555,12.555,0,0,0,.7-6.052c-.235-2.983-.648-5.951-.738-8.947-.029-.938-.113-1.875-.17-2.812-.015-.24-.026-.48.3-.6" transform="translate(-18.763 -8.021)" fill="#8e3a21"/>
        <path id="Trazado_895045" data-name="Trazado 895045" d="M36.033,28.779a2.115,2.115,0,0,1-2.649.973,1.406,1.406,0,0,0-1.573-.134,2.584,2.584,0,0,1,2.148-1.877c1.361-.39,2.512.117,3.571,1.553-.611.066-.934-.506-1.5-.514" transform="translate(-10.117 -8.782)" fill="#8e3a21"/>
        <path id="Trazado_895046" data-name="Trazado 895046" d="M33.965,6.825c.947.084,1.223.762,1.449,1.519.565,1.9.59,3.905,1.206,5.795a29.887,29.887,0,0,0,1.754,4.048c-.646,0-.75-.447-.927-.749a16.4,16.4,0,0,1-2.224-6.924,19.149,19.149,0,0,0-.457-2.469,1.988,1.988,0,0,0-.8-1.219" transform="translate(-10.802 -2.17)" fill="#8e3a21"/>
        <path id="Trazado_895047" data-name="Trazado 895047" d="M54.118,50.557a11.945,11.945,0,0,0,3.018-5.449c.285-.91.471-1.851.715-2.832.977,2.014-1.992,8.7-4.053,9.216-.153-.424.463-.569.353-.966Z" transform="translate(-17.101 -13.445)" fill="#8e3a21"/>
        <path id="Trazado_895048" data-name="Trazado 895048" d="M53.521,29.186c-.629-.184-1.106-.651-1.769-.689-1.035,1.622-1.53,1.737-3.421.734a2.92,2.92,0,0,1,2.3-1.555,3.364,3.364,0,0,1,2.893,1.509" transform="translate(-15.37 -8.799)" fill="#8e3a21"/>
        <path id="Trazado_895049" data-name="Trazado 895049" d="M37.106,7a10.256,10.256,0,0,1,1.3,3.841A22.477,22.477,0,0,0,41.257,18.6a.294.294,0,0,1,.013.373c-1.537-1.294-3.61-7.16-4.163-11.967" transform="translate(-11.801 -2.227)" fill="#8e3a21"/>
        <path id="Trazado_895050" data-name="Trazado 895050" d="M19.786,49.4a11.536,11.536,0,0,0,3.925-7.457c.915,2.313-1.779,7.372-3.925,7.457" transform="translate(-6.292 -13.338)" fill="#8e3a21"/>
        <path id="Trazado_895051" data-name="Trazado 895051" d="M29.723,10.143a12.5,12.5,0,0,0,.917,9.445c-1.958-1.47-2.437-6.74-.917-9.445" transform="translate(-9.167 -3.226)" fill="#8e3a21"/>
        <path id="Trazado_895052" data-name="Trazado 895052" d="M63.326,43.516c1.1,1.444.261,7.389-1.281,7.886a14.055,14.055,0,0,0,1.281-7.886" transform="translate(-19.732 -13.839)" fill="#8e3a21"/>
        <path id="Trazado_895053" data-name="Trazado 895053" d="M53.7,52.743c-.493.057-.577.725-1.34.763a29.534,29.534,0,0,0,2.559-4.26c-.013,1.333-.859,2.348-1.252,3.529l.033-.031" transform="translate(-16.652 -15.661)" fill="#8e3a21"/>
        <path id="Trazado_895054" data-name="Trazado 895054" d="M61.633,21.146c-1.176.321-2.93-1.14-3.467-2.854,1.155,1.067,1.929,2.324,3.467,2.854" transform="translate(-18.498 -5.817)" fill="#8e3a21"/>
        <path id="Trazado_895055" data-name="Trazado 895055" d="M41.844,36.478c.985,1.148,1.832.835,2.657-.492.13,1.231-.535,1.5-1.155,1.567a1.285,1.285,0,0,1-1.5-1.075" transform="translate(-13.307 -11.444)" fill="#8e3a21"/>
        <path id="Trazado_895056" data-name="Trazado 895056" d="M34.656,274.367a2.425,2.425,0,0,1-1.307-2.3,4.9,4.9,0,0,0-.97-2.988,2.5,2.5,0,0,1-.246-2.914,7.68,7.68,0,0,0,1.732,3.816,1.134,1.134,0,0,1,.16.578,11.1,11.1,0,0,0,.63,3.807" transform="translate(-10.104 -84.647)" fill="#8e3a21"/>
        <path id="Trazado_895057" data-name="Trazado 895057" d="M47.166,268.249c.549.786-.408,5.2-1.412,6.032.085-2.182-.058-4.283,1.412-6.032" transform="translate(-14.551 -85.309)" fill="#8e3a21"/>
        <path id="Trazado_895058" data-name="Trazado 895058" d="M35.285,113.082c4.076-.366,7.885-1.232,10.268-5.139a2.239,2.239,0,0,1-1.037,2.7,10.69,10.69,0,0,1-5.871,2.39,14.416,14.416,0,0,1-3.359.053" transform="translate(-11.221 -34.328)" fill="#8e3a21"/>
        <path id="Trazado_895059" data-name="Trazado 895059" d="M61.493,270.339c-.235-.336,0-.535.118-.765a4.3,4.3,0,0,0,.642-2.834,2.256,2.256,0,0,1,1.507-2.446c-1.187,1.709-.247,3.825-1.588,5.362-.132.151-.241.321-.379.466a1.926,1.926,0,0,1-.3.218" transform="translate(-19.524 -84.051)" fill="#8e3a21"/>
      </g>
    </g>
  </g>
</svg>
