<svg xmlns="http://www.w3.org/2000/svg" xmlns:xlink="http://www.w3.org/1999/xlink" width="74.482" height="274.885" viewBox="0 0 74.482 274.885">
  <defs>
    <clipPath id="clip-path">
      <rect id="Rectángulo_407236" data-name="Rectángulo 407236" width="58.408" height="274.698" fill="none"/>
    </clipPath>
  </defs>
  <g id="Grupo_1113503" data-name="Grupo 1113503" transform="translate(-766.557 -7482.563)">
    <path id="Polígono_8" data-name="Polígono 8" d="M16.074,0,32.147,37.314H0Z" transform="translate(841.039 7757.448) rotate(180)" fill="#bdadea"/>
    <g id="Grupo_1113457" data-name="Grupo 1113457" transform="translate(766.557 7482.563)">
      <g id="Grupo_1113456" data-name="Grupo 1113456" clip-path="url(#clip-path)">
        <path id="Trazado_894995" data-name="Trazado 894995" d="M12.569,136.151a37.106,37.106,0,0,1,4.165-10.465A24.135,24.135,0,0,0,20.1,115.27c.062-1.161.308-2.311.421-3.47a16.68,16.68,0,0,0-.8-6.969c-.953-2.861-1.837-5.747-2.747-8.623a.464.464,0,0,1-.017-.308c.943-1.85.991-4.132,2.767-5.583a15.146,15.146,0,0,1,6.408-2.944,19.032,19.032,0,0,1,4.407-.456,12.767,12.767,0,0,1,6.055,1.644c1.052.572,2.138,1.5,3.512.812,1.581-.791,3.135-1.631,4.788-2.275a8.285,8.285,0,0,1,5.726-.2,1.187,1.187,0,0,1,.892.861,15.075,15.075,0,0,1,.348,8.3c-.576,2.491-1.93,4.632-2.965,6.913A14.235,14.235,0,0,0,47.3,109.8c.06.973-.165,1.93-.187,2.89A19.111,19.111,0,0,0,49,120.493c1.647,3.936,3.824,7.611,5.766,11.4a5.759,5.759,0,0,1-.127,5.69,56.836,56.836,0,0,1-4.268,6.63c-2.421,3.5-5.5,6.456-8.3,9.644a22.025,22.025,0,0,1-6.7,5.38c-.244.122-.5.214-.752.322-.811.35-1.236.3-1.653-.721a48.248,48.248,0,0,0-6.307-10.805,35.8,35.8,0,0,0-4.209-4.835,46.908,46.908,0,0,0-8.63-6.451c-.408-.23-.94-.2-1.256-.595" transform="translate(-3.873 -26.651)" fill="#fdd6cf"/>
        <path id="Trazado_894996" data-name="Trazado 894996" d="M9.263,57.59c-3.436-3.279-2.917-7.312.562-10.176,2.625-2.163,5.62-2.551,8.806-2.274A5.635,5.635,0,0,1,22.477,47.4c.778.949,1.573,1.638,2.9,1.411.524-.089,1.131.1.963.738a8.749,8.749,0,0,0,.049,2.892,3.592,3.592,0,0,1-.991,2.654,13.136,13.136,0,0,1-5.082,3.669,39.787,39.787,0,0,1-6.163,1.59c-2,.478-4.071.955-5.453,2.731-.387.5-.868.9-1.518.58-.676-.331-.668-.982-.567-1.64A7.459,7.459,0,0,1,9.263,57.59" transform="translate(-2.023 -13.886)" fill="#eacbc7"/>
        <path id="Trazado_894997" data-name="Trazado 894997" d="M68.185,49.506a4.688,4.688,0,0,1-.411,2.246,2.412,2.412,0,0,0,.654,2.731,4.613,4.613,0,0,1,.405,6.2,8.312,8.312,0,0,1-2.776,1.9.879.879,0,0,1-1.082-.43,1.637,1.637,0,0,0-1.39-.75,4.026,4.026,0,0,1-2.143-.726,1.19,1.19,0,0,0-.783-.241,10.778,10.778,0,0,1-7.194-2.815,7.6,7.6,0,0,1-2.719-6.8c.385-3.048,2.831-3.679,5.288-2.72a3.826,3.826,0,0,0,4.6-1.38c1.724-2.789,4.085-2.931,6.341-.879,1.061.965,1.093,2.347,1.207,3.66" transform="translate(-15.619 -13.698)" fill="#eacbc7"/>
        <path id="Trazado_895000" data-name="Trazado 895000" d="M24.69,9.932c-.683-1.032-.529-1.952.525-3.131a5.164,5.164,0,0,1,7.4-.041A10.806,10.806,0,0,1,35.886,14.4c.086,1.8-.213,3.625.208,5.409a8.726,8.726,0,0,0,5.494,6.669,2.686,2.686,0,0,0,2.4-.339c.306-.187.611-.376,1.016-.625-.4,1.038-.969,1.339-2.807,1.559a12.536,12.536,0,0,0,2.558,1.793A3.761,3.761,0,0,1,46.341,30.6a3.561,3.561,0,0,1-1.917,4.136A13.049,13.049,0,0,0,42.091,36.1c-1.234.959-1.988,2.561-.166,3.983.137.107.256.237.392.346,1.3,1.043,1.282,2.156-.06,3.173-.169-.208.06-.318.131-.441.895-1.557.972-1.714-.578-2.762-2.066-1.4-1.528-3.878.392-5.115a15.088,15.088,0,0,1,1.873-1.115,2.929,2.929,0,0,0,1.766-2.721c.033-1-.758-1.656-1.593-2.161a9.474,9.474,0,0,1-2.541-2.1,6.422,6.422,0,0,0-1.945-1.09,18.29,18.29,0,0,1-4.056,7.866c-.068.08-.19.158-.194.241-.114,2.508-.753,5.048.476,7.474,1.062,2.1,3.032,3.015,5.065,3.712,1.918.658,3.937,1.019,5.906,1.531A9.294,9.294,0,0,1,53.3,54.689,133.258,133.258,0,0,0,56.43,74.382,84.194,84.194,0,0,1,58.368,87c.329,3.881-1.365,6.868-3.6,9.649a51.921,51.921,0,0,1-4.819,5.406,52.288,52.288,0,0,1,2.892,6.509c.987,2.679,1.36,5.517,2.118,8.258a49.51,49.51,0,0,1,1.45,11.725,108.239,108.239,0,0,1-.277,11.462,76.18,76.18,0,0,1-1.3,8.531,164.267,164.267,0,0,1-4.817,17.737c-1.686,5.46-3.555,10.865-4.985,16.4-.026.1-.105.2-.1.294.041,3.157-.429,6.321.09,9.47a32.824,32.824,0,0,1-1.3,17.09c-1.827,4.942-3.811,9.819-5.679,14.743-1.348,3.554-2.742,7.089-4.134,10.624a65.742,65.742,0,0,0-2.194,7.886c-.435,1.707-.774,3.441-1.135,5.167a7.734,7.734,0,0,0,.133,2.884,83.059,83.059,0,0,0,3.755,13.476,23.3,23.3,0,0,1,1.284,7.341c0,1.637-.911,2.353-3.3,2.92-1.762.419-3.414-.309-5.025-.942a11.652,11.652,0,0,1-4.509-2.9,3.841,3.841,0,0,1-1.234-2.98,60.014,60.014,0,0,1,.849-7.012,24.13,24.13,0,0,0,.239-8.46c-.268-1.787-.019-3.62-.264-5.426-.516-3.818-.908-7.649-1.29-11.483-.219-2.2-.693-4.372-1.032-6.561-.654-4.209-1.375-8.407-1.858-12.644-.553-4.865-1.067-9.733-1.431-14.616a68.5,68.5,0,0,1-.095-12.177,29.879,29.879,0,0,1,1.66-6.649,39.5,39.5,0,0,1,1.56-3.941,3.544,3.544,0,0,0-.251-3.679,84.908,84.908,0,0,1-9.427-19.055,85.166,85.166,0,0,1-4.366-16.583A67.539,67.539,0,0,1,5.23,127c.09-3.293.419-6.542.74-9.8a37.106,37.106,0,0,1,1.753-7.488,25.6,25.6,0,0,1,1.271-3.611c.553-1.123-.183-1.586-.836-2.087a14.6,14.6,0,0,1-6.2-11.34c-.169-3.54-.18-7.075-.067-10.608.244-7.623.338-15.245.325-22.872a14.649,14.649,0,0,1,2.235-8.405,1.261,1.261,0,0,0-.485-1.759c-1.8-1.24-2.03-2.449-.667-4.181C4.614,43.18,4.611,43.109,2.784,42a5.144,5.144,0,0,1-2.7-3.4c-.416-2.129.7-3.694,2.087-5.046A12.027,12.027,0,0,1,7.014,30.77c3.308-1.04,4.258-3.741,4.544-6.675.282-2.9-.176-5.879.5-8.745.877-3.723,2.438-7.087,5.944-9.14a3.457,3.457,0,0,1,2.564-.419A2.915,2.915,0,0,1,20.179,2.9,4.9,4.9,0,0,1,23.164.647,13.653,13.653,0,0,1,29.956.232a42,42,0,0,1,6.3,1.21c5.059,1.55,8.078,5,9.688,9.895a39.334,39.334,0,0,1,1.209,6.386,8.523,8.523,0,0,0,6.294,7.147,5.454,5.454,0,0,1,3.74,4.024,6.912,6.912,0,0,1-2.867,8.16c-2.217,1.429-2.364,3.31-.571,5.2a2.774,2.774,0,0,1-.1,4.29,5.757,5.757,0,0,1-3.018,1.274c.305-.607.784-.589,1.17-.722a3.356,3.356,0,0,0,2.1-1.378,2.052,2.052,0,0,0-.589-3.05c-1.889-1.431-2.632-4.215-.01-6.013,1.717-1.178,3.268-2.443,3.595-4.713a6.775,6.775,0,0,0-1.675-5.574c-.617-.725-1.668-.6-2.492-.957-3.016-1.3-5.248-3.184-6.022-6.619-.5-2.232-.517-4.518-1.137-6.732C43.973,6.354,40.377,2.771,34.6,1.48A31.856,31.856,0,0,0,25.928.605a7.621,7.621,0,0,0-4.352,1.481c-1.313,1.007-1.59,2.275-.393,3.55.146.156.3.3.264.56-.149.277-.416.278-.708.239-2.136-.285-3.529.882-4.756,2.41a16.678,16.678,0,0,0-3.557,10.127c-.073,1.872.208,3.767-.208,5.613-.672,2.988-1.748,5.679-4.97,6.905a11.268,11.268,0,0,0-4.5,2.756C1.578,35.546.485,37,1.163,38.914A5.917,5.917,0,0,0,3.6,41.677c1.373.949,1.49,1.858.36,3.079a3.985,3.985,0,0,0-1,1.784,1.466,1.466,0,0,0,.909,1.944,1.694,1.694,0,0,1,1.3,1.444c1.789-2.366,4.218-3.294,6.846-3.842a31.374,31.374,0,0,0,9.811-3.529,3.359,3.359,0,0,0,1.869-2.9,24.163,24.163,0,0,0,.1-4.455,2.859,2.859,0,0,0-.807-1.8,11.357,11.357,0,0,1-2.709-3.787c-.425-1.087-1.336-.988-2.181-1.315-.082,3.782-2.258,5.922-5.488,7.284a5.739,5.739,0,0,0-2.76,1.964,2.775,2.775,0,0,0,.807,4.126,6.246,6.246,0,0,0,.818.433,1.458,1.458,0,0,1,.908,1.864,1.92,1.92,0,0,1-1.828,1.421c.1-.509.522-.5.791-.685a1.227,1.227,0,0,0-.183-2.311A3.615,3.615,0,0,1,9.2,40.664a3.287,3.287,0,0,1,.526-3.719c1.109-1.341,2.7-1.955,4.133-2.76,2.354-1.322,3.15-3.468,3.631-5.882.085-.429-.133-.624-.4-.864a6.337,6.337,0,0,1-2.046-4.949c.009-1.8,1.262-3.29,3.612-2.226a10.424,10.424,0,0,1,2.239-5.792,19.226,19.226,0,0,0-1.956,6.95c.36-.25.013-.773.6-.84a2.855,2.855,0,0,1-.624,1.972.728.728,0,0,1-.381-.772,1.063,1.063,0,0,0-1.16-1.27,1.45,1.45,0,0,0-1.56,1.247,6.726,6.726,0,0,0,2.514,5.963c.2.131.461.33.652.291,1.369-.281,1.712.786,2.17,1.64A11.984,11.984,0,0,0,27.721,35.7a6.35,6.35,0,0,0,4.453-.046c3.1-1.108,4.564-3.613,5.852-6.365a36.265,36.265,0,0,0,1.15-3.536,8.871,8.871,0,0,1-2.468-2.809c-1.653.25-2.486-.084-2.639-1.07.771-.059,1.3,1.239,2.237.359a9.835,9.835,0,0,1-1.077-4.52c-.593-.309-1.064.149-1.623.089-.12-.756.441-.98.917-1.181a1.2,1.2,0,0,0,.766-1.184,12.6,12.6,0,0,0-.866-5.189C33.931,8.758,30.033,7.321,28.36,9c-.113.113-.156.318-.376.306.06-1.664,1.894-2.01,5.083-.966-.854-2.258-4.641-1.944-6.725.558C26.3,7.443,27.47,6.672,30.435,6.2c-2.044-1.294-5.515.363-5.772,2.693-.041.368.812.7.021,1.029ZM8.7,109.832c-.457,2.877-1.532,5.468-1.62,8.377a76.49,76.49,0,0,1-.869,7.722c-.587,4.376.023,8.71.76,13.033a100.059,100.059,0,0,0,2.975,12.323c.565,1.853,1.308,3.645,1.982,5.461,2.14,5.767,4.432,11.46,7.836,16.619a6.288,6.288,0,0,1,.841,6.308c-.519,1.213-.856,2.487-1.326,3.712a31.988,31.988,0,0,0-1.709,14.045c.355,4.745.585,9.5,1.146,14.231.407,3.445.669,6.907,1.213,10.336.639,4.032,1.5,8.043,1.868,12.1.463,5.145,1.549,10.229,1.479,15.427a8.125,8.125,0,0,0,.2,2.17,16.3,16.3,0,0,1,.081,7.212,49.921,49.921,0,0,0-.8,8.886c-.01,1.228-.176,2.8,1.45,3.435a44.881,44.881,0,0,0,5.075,1.842,6.205,6.205,0,0,0,4.267.014c1.247-.562,1.694-.989,1.491-2.321a38.416,38.416,0,0,0-1.594-6.656,72.373,72.373,0,0,1-2.743-8.826A98.492,98.492,0,0,1,29.128,243.9c-.466-5.458-.347-10.914-.359-16.37a112.394,112.394,0,0,1,.993-13.6c.593-4.966,1.066-9.947,1.75-14.9.56-4.062,1.362-8.083,2.271-12.077a41.358,41.358,0,0,0,.958-8.865,50.967,50.967,0,0,0-.549-5.158c-.306-3.346-.614-6.7-1.074-10.025-.616-4.473-.963-8.97-1.168-13.469a51.1,51.1,0,0,0-3.079-16.466,56.458,56.458,0,0,0-6.5-11.593,33.124,33.124,0,0,0-7.244-7.439A34.56,34.56,0,0,0,8.7,109.832m21.1,23.237a16.921,16.921,0,0,0,5.948-3.678c3.654-3.854,7.468-7.58,10.5-11.972,1.807-2.617,3.887-5.082,4.938-8.156.214-.625.607-1.227.277-1.963-1.389-3.106-2.922-6.134-4.551-9.124a39.513,39.513,0,0,1-3.364-8.135c-.61-2.152-.315-4.322-.371-6.5-.093-3.664,1.218-6.839,2.886-9.934A15.382,15.382,0,0,0,47.8,62.377a2.7,2.7,0,0,0-2.874-2.414,9.189,9.189,0,0,0-2.166.209,24,24,0,0,0-6.085,2.6,2.432,2.432,0,0,1-2.356.187c-.649-.327-1.337-.587-1.952-.966a10.282,10.282,0,0,0-4.6-1.467,18.774,18.774,0,0,0-9.85,2.021c-2.817,1.376-5.514,5.733-3.8,9.718a58.2,58.2,0,0,1,2.095,6.288,22.716,22.716,0,0,1,.438,8.717,30.491,30.491,0,0,1-3.828,12.32,31.731,31.731,0,0,0-3.842,9.767c10.03,5.162,16.43,13.537,20.816,23.715M52.17,109.027a.949.949,0,0,0-.473.623c-.975,2.686-2.822,4.835-4.4,7.149a106.945,106.945,0,0,1-7.571,9.256,28.078,28.078,0,0,1-5.378,5.358,25.19,25.19,0,0,1-4.377,2.209,35.2,35.2,0,0,1,2.6,11.328c.194,2.147.272,4.3.45,6.453.3,3.663.728,7.318.942,10.986.155,2.65.5,5.279.753,7.916.378,4.02,1.19,7.975.592,12.077-.541,3.706-1.222,7.383-1.854,11.07-.468,2.736-.962,5.469-1.321,8.219-.5,3.818-.764,7.669-1.346,11.473a98.564,98.564,0,0,0-1.136,11.806c-.178,5.677-.079,11.365-.028,17.047a18.889,18.889,0,0,0,.467,4.7c.434-.641.265-1.339.434-1.963,1.207-4.466,2.063-9.02,3.9-13.322,1.8-4.235,3.357-8.579,4.967-12.9,1.595-4.277,3.483-8.453,4.555-12.914a26.941,26.941,0,0,0,.8-6.779c-.064-3.964-1.054-7.849-.9-11.834a24.554,24.554,0,0,1,.729-6.9c1.6-4.879,3.088-9.794,4.621-14.693a160.783,160.783,0,0,0,4.775-18.172,91.2,91.2,0,0,0,1.593-16.96,57.058,57.058,0,0,0-1.47-14.531,46.869,46.869,0,0,0-1.923-6.71M24.322,34.57c.657,1.487.331,2.729.291,3.968a4.824,4.824,0,0,1-2.872,4.634c-1.517.737-3.109,1.312-4.484,2.022.986,3.238.239,6.346-.221,9.437s-1.312,6.079-2,9.145a14.629,14.629,0,0,1,8.593-3.851,13.518,13.518,0,0,1,8.991,1.71,3.763,3.763,0,0,0,4.717-.017c2.6-1.8,5.475-2.988,8.785-2.183a1.469,1.469,0,0,0-.282-1.208c-1.739-3.041-2.884-6.35-4.333-9.521-.632-1.385-1.133-2.947-2.8-3.573-3.411-1.281-4.581-4.828-4.123-8.341.08-.607.462-1.218.143-1.9a2.953,2.953,0,0,0-1.1,1.017c-1.525,2.1-3.829,3.153-6.179.74a16.04,16.04,0,0,0-3.131-2.078M9.565,104.313c.9-1.887,1.754-3.746,2.672-5.571.612-1.216,1.094-2.354-.241-3.434a6.064,6.064,0,0,1-.812-1.078,5.8,5.8,0,0,1-1.442-4.31c.23-2.159.287-4.336.417-6.5.139-2.322.191-4.654.435-6.965.425-4.031.93-8.056,1.487-12.071a8.224,8.224,0,0,1,1.106-3.513,8.035,8.035,0,0,1-.14,2.4,15.716,15.716,0,0,1-.3,2.259,2.254,2.254,0,0,0,.321,2.127c.149-.435.313-.817.41-1.215,1.08-4.43,2.193-8.854,2.9-13.363a26.059,26.059,0,0,0,.486-6.62c-.079-.805-.357-1.1-1.182-.843a28.126,28.126,0,0,1-3.2.841c-4.46.818-7.449,3.3-8.766,7.674-.78,2.587-.69,5.286-.852,7.945-.255,4.194.221,8.391.049,12.589-.229,5.6-.42,11.2-.3,16.81.044,2.107.057,4.233,1.058,6.184a22.388,22.388,0,0,0,5.89,6.663m40.113-2.936a11.123,11.123,0,0,0,.827-.773c1.584-1.841,3.277-3.6,4.7-5.561a11,11,0,0,0,2.481-7.548,82.794,82.794,0,0,0-1.3-9.479c-1.075-5.31-1.674-10.716-3.336-15.91-.766-2.392-.492-4.943-.769-7.414-.338-3.017-1.454-5.519-4.444-6.842a16.522,16.522,0,0,0-2.387-.7c-1.531-.421-3.091-.736-4.77-1.126,2.3,3.458,3.25,7.381,5.157,11.166.184-1.234-.055-2.234.917-3.2a11.666,11.666,0,0,0,.643,5.374,15.475,15.475,0,0,1,.213,12.7,4.7,4.7,0,0,0-.589,2.9c.4,1.675.856,3.333,1.127,5.041a50.011,50.011,0,0,1,.937,7.2,2.456,2.456,0,0,1-.3,1.5,45.347,45.347,0,0,1-2.623,4.119,1.06,1.06,0,0,0-.181,1.314c.5.982.872,2.032,1.376,3.013.721,1.4,1.514,2.769,2.315,4.223M12.252,68.563c-.284,2.265-.641,4.523-.836,6.8-.4,4.623-.731,9.253-1.035,13.883a4.221,4.221,0,0,0,.158,2.567c.88,1.422,1.892,2.763,2.862,4.154.388-1.108.668-2.2,1.065-3.218a26.937,26.937,0,0,0,1.5-9.264,18.473,18.473,0,0,0-1.191-5.894c-.933-2.967-1.79-5.958-2.526-9.024M45.4,92.2a31.128,31.128,0,0,1,2.881-3.917,1.261,1.261,0,0,0,.175-1.1c-.147-1.129-.309-2.258-.521-3.377C47.4,81,46.99,78.165,46.256,75.421c-2.733,2.868-3.22,13.348-.859,16.776" transform="translate(0 0)" fill="#8e3a21"/>
        <path id="Trazado_895001" data-name="Trazado 895001" d="M33.279,7.487c-.318-2.181,1.343-4.094,3.96-4.494A15.793,15.793,0,0,1,48.466,5.675a8.415,8.415,0,0,1,2.881,4.112,20.346,20.346,0,0,1,1.242,8.348c-.028,2.257,1.211,3.833,2.9,5.133.161.124.378.185.383.441-1.3-.211-3.166-2.177-3.686-3.692-.61-1.775-.17-3.564-.237-5.345-.134-3.539-.919-6.9-4.059-8.963A13.638,13.638,0,0,0,36.405,3.8a4.517,4.517,0,0,0-2.191,1.524,1.78,1.78,0,0,0-.508,1.514c.056.338.176.752-.443.632Z" transform="translate(-10.243 -0.868)" fill="#8e3a21"/>
        <path id="Trazado_895002" data-name="Trazado 895002" d="M38.806,41.528c2-.372,3.815-2.512,5.638.242a2.7,2.7,0,0,1-2.131,2.067c-1.833.36-2.48-1.136-3.508-2.309" transform="translate(-11.959 -12.445)" fill="#8e3a21"/>
        <path id="Trazado_895003" data-name="Trazado 895003" d="M38.059,25.591c-2.544-.075-4.911-.45-7.485-.4,2.378-1.775,6.6-1.606,7.485.4" transform="translate(-9.422 -7.385)" fill="#8e3a21"/>
        <path id="Trazado_895004" data-name="Trazado 895004" d="M32.56,14.264c-4.3,1.24-5.307,4.931-6.384,8.57-.058.2-.081.4-.138.6-.045.154-.118.3-.211.529-.513-.6-.145-1.137-.047-1.627.535-2.691,1.454-5.221,3.66-7.014.865-.7,1.774-1.635,3.126-1.045l-.006-.009" transform="translate(-7.877 -4.341)" fill="#8e3a21"/>
        <path id="Trazado_895005" data-name="Trazado 895005" d="M25.146,35.971c.65-1.126.267-3.023-.83-4.332-.422.336.044.759-.106,1.168-.641-.192-.461-.7-.441-1.093a.564.564,0,0,1,.547-.536c.5-.058.641.329.816.663a19.605,19.605,0,0,1,.987,2.722c.338.961-.022,1.314-.973,1.409" transform="translate(-7.313 -9.606)" fill="#8e3a21"/>
        <path id="Trazado_895006" data-name="Trazado 895006" d="M33.42,31.064c.794-.59,1.24.457,1.952.406.789-.057,1.292-.6,1.988-.821.491.7-.03.987-.459,1.229a3.046,3.046,0,0,1-3.481-.814" transform="translate(-10.299 -9.445)" fill="#8e3a21"/>
        <path id="Trazado_895007" data-name="Trazado 895007" d="M31.224,9.548l.805.621c-2.354.147-3.85,1.391-5.407,2.538a8.35,8.35,0,0,1,4.618-3.144l-.017-.015" transform="translate(-8.204 -2.942)" fill="#8e3a21"/>
        <path id="Trazado_895008" data-name="Trazado 895008" d="M47.35,26.724c-.346,1.78-.941,3.492-1.11,5.3-.3-1.915.438-3.609,1.11-5.3" transform="translate(-14.229 -8.235)" fill="#8e3a21"/>
        <path id="Trazado_895009" data-name="Trazado 895009" d="M45.579,35.755a1.02,1.02,0,0,1,.143,1.455c-.362.522-.838.733-1.732.432,1.2-.249,1.7-.823,1.589-1.887" transform="translate(-13.556 -11.018)" fill="#8e3a21"/>
        <path id="Trazado_895010" data-name="Trazado 895010" d="M39.847,267.528c-1.948-1.07-2.212-2.064-1.1-3.692a.728.728,0,0,0-.012-1.01c-.188-.224-.5-.383-.522-.8.638-.335.911.2,1.263.5a.913.913,0,0,1,.351,1.1.479.479,0,0,1-.113.174c-1.366,1.26-1.164,2.488.129,3.728" transform="translate(-11.739 -80.714)" fill="#8e3a21"/>
        <path id="Trazado_895011" data-name="Trazado 895011" d="M43.052,108.685c2.808-.693,5.5-2.854,8.79-.672-1.678.341-3.039-.63-4.523-.322-1.438.3-2.754,1.056-4.267.994" transform="translate(-13.267 -32.993)" fill="#8e3a21"/>
        <path id="Trazado_895012" data-name="Trazado 895012" d="M57.482,267.112a1.612,1.612,0,0,1-.441-1.977c.293-.94,1.172-1.686.782-2.886.612.541.978,1.093.672,1.75a8.211,8.211,0,0,0-1.013,3.113" transform="translate(-17.532 -80.816)" fill="#8e3a21"/>
      </g>
    </g>
  </g>
</svg>
