<svg xmlns="http://www.w3.org/2000/svg" xmlns:xlink="http://www.w3.org/1999/xlink" width="65.269" height="275.499" viewBox="0 0 65.269 275.499">
  <defs>
    <clipPath id="clip-path">
      <rect id="Rect치ngulo_407249" data-name="Rect치ngulo 407249" width="53.788" height="275.499" fill="none"/>
    </clipPath>
  </defs>
  <g id="Grupo_1113504" data-name="Grupo 1113504" transform="translate(-1064.363 -7482.563)">
    <rect id="Rect치ngulo_406759" data-name="Rect치ngulo 406759" width="22.962" height="37.314" transform="translate(1106.669 7720.748)" fill="#bdadea"/>
    <g id="Grupo_1113493" data-name="Grupo 1113493" transform="translate(1064.363 7482.563)">
      <g id="Grupo_1113492" data-name="Grupo 1113492" clip-path="url(#clip-path)">
        <path id="Trazado_895060" data-name="Trazado 895060" d="M35.595,4.2a7.748,7.748,0,0,1,5.1-.434c1.965.455,2.7,2.063,3.63,3.513,1.583,2.465,1.632,5.27,1.936,8.066.272,2.509-.02,5.206,1.132,7.486,1.33,2.631,1.182,5.274.981,8.006-.128,1.725-1.419,2.535-2.634,3.406a2.915,2.915,0,0,1-.491.171c-2.141.986-2.9.5-2.946-1.892,0-.057-.056-.113-.19-.366-.369,1.216-1.475,1.68-2.007,2.683a4,4,0,0,1-1.871,1.456,1.477,1.477,0,0,1-1.817-.383,1.759,1.759,0,0,1-.4-2.112c.411-.846.807-1.7,1.291-2.509a22.334,22.334,0,0,0,3.02-10.045,10.9,10.9,0,0,0-.25-2.593,2.058,2.058,0,0,0-1.573-1.516A20.737,20.737,0,0,1,32.19,14.07c-.235-.168-.441-.383-.837-.28a4.07,4.07,0,0,1-4.314-2.254c-.569-1.516-1.513-2.877-1.721-4.835-1.431,2.213-1.961,5.459-5.586,3.364A23.347,23.347,0,0,0,18.609,13.6a51.607,51.607,0,0,1-1.534,5.937c-.609,2.194.016,5.5,1.894,6.8,1.516,1.046,1.9,2.521,2.276,4.047a27.17,27.17,0,0,0,.789,2.8c.245.676.675,1.383-.013,2.035s-1.3.016-1.984-.175a2.023,2.023,0,0,0-.247.285,2.863,2.863,0,0,1-4.1,1.2,1.89,1.89,0,0,0-1.738-.175,3.065,3.065,0,0,1-2.8-.37c-3.2-2.139-3.851-4.678-2.3-8.208.821-1.867,2.12-3.435,2.983-5.263a4.415,4.415,0,0,0,.445-1.473,40.656,40.656,0,0,1,1.539-7.857,9.686,9.686,0,0,1,1.237-3,10.657,10.657,0,0,1,2.177-2.748c1.175-.861,2.123-2,3.211-2.959,1.671-1.467,3.878-1.8,5.989-2.254a31.8,31.8,0,0,0,4.191-.784,3.693,3.693,0,0,1,4.627,1.983c.1.216.195.437.343.773" transform="translate(-2.374 -0.361)" fill="#eacbc7"/>
        <path id="Trazado_895063" data-name="Trazado 895063" d="M13.271,82.542c11.1,1.953,21.9.935,32.782-1.308-.161,2.564,1.174,4.616,1.513,6.915a22.594,22.594,0,0,1,.086,5.183c-.273,3.345-2.192,6.234-2.5,9.551a15.956,15.956,0,0,0-.211,4.086,19.149,19.149,0,0,1-.027,4.251,18.363,18.363,0,0,0,.137,3.291c.415,3.673,1.223,7.281,1.875,10.914.4,2.211,1.025,4.38,1.5,6.577a12.635,12.635,0,0,1,.508,3.429,5.939,5.939,0,0,1-1.391,2.793,86.091,86.091,0,0,1-7.457,8.54c-1.329,1.421-2.635,2.865-4.04,4.21a29.521,29.521,0,0,1-5.094,3.821c-1.065.648-1.678.393-2.163-.71A38.585,38.585,0,0,0,19.8,140.938c-1.806-1.662-3.646-3.35-6.1-4.09-.8-.242-.6-.956-.491-1.476a127.883,127.883,0,0,1,4.2-13.98,16.18,16.18,0,0,0,.858-7.074c-.422-3.862-1.458-7.583-2.089-11.383C15.68,99.969,15.13,97,14.814,94a58.614,58.614,0,0,0-1.186-8.024c-.258-1.044.075-2.184-.358-3.431" transform="translate(-3.865 -23.973)" fill="#e85722"/>
        <path id="Trazado_895064" data-name="Trazado 895064" d="M61.375,85.1c-.283-1.534-1.059-2.829-.943-4.36a1.327,1.327,0,0,1,1.042-1.4,19.877,19.877,0,0,0,5.935-2.6c.166-.121.46-.067.731-.1.273,2.133-.322,4.191-.146,6.263.025.3-.138.407-.381.523A18.413,18.413,0,0,1,61.375,85.1" transform="translate(-17.83 -22.618)" fill="#e85722"/>
        <path id="Trazado_895065" data-name="Trazado 895065" d="M1.8,79.609a7.249,7.249,0,0,1,2.77.883,18.4,18.4,0,0,0,4.009,1.165c.9.147,1.27.672,1.2,1.32-.132,1.157.266,2.3-.046,3.564-2.594-.114-5.22.3-7.807-.491-.249-2.118.25-4.21-.123-6.441" transform="translate(-0.53 -23.493)" fill="#e85722"/>
        <path id="Trazado_895066" data-name="Trazado 895066" d="M31.3,16.789c-2.535-2.543-3.52-5.759-4.1-9.166,1.614,5.172,4.2,9.385,10.018,10.719A27.433,27.433,0,0,0,36.95,10.4a5.5,5.5,0,0,0-2.816-4.15.464.464,0,0,1-.209-.35,4.976,4.976,0,0,1,3.409,3.541,23.8,23.8,0,0,1,.817,7.709,82.428,82.428,0,0,1-1.163,13.576c-.367,2.041-.66,4.419-2.585,6.787,1.559-.271,2.336-1.406,3.123-2.471,1.191-1.616,1.521-3.651,2.445-5.37s.737-3.443.763-5.2c.029-1.848,0-3.7-.025-5.545a30.208,30.208,0,0,1-.037-4.832c.149,1.566.4,3.13.426,4.7.053,3.652.512,7.3.23,10.951A11.374,11.374,0,0,1,39.6,35.752a3.383,3.383,0,0,1-1.383,1.24c-.466.2-.883.219-1.1-.353a1.174,1.174,0,0,0,1.4-.393,14.188,14.188,0,0,0,1.444-2.13c.61-1.018-.1-2.118.416-3.087a1.191,1.191,0,0,0,.051-1.1c-.925,2.361-1.359,4.918-3.291,6.739-1.028.8-2,1.753-3.731,1.131,2.819-2.772,2.913-6.35,3.323-9.835-.689,1.219-1.143,2.542-1.737,3.8-.357.757-.037,1.817-.325,2.724a4.5,4.5,0,0,1-3.07,2.942,9.744,9.744,0,0,0,.6,4.569,4.786,4.786,0,0,0,3.083,2.71,27.073,27.073,0,0,0,10.074,1.021,4.157,4.157,0,0,1,2.826.854,6.65,6.65,0,0,1,2.395,4.578,53.166,53.166,0,0,1,.235,10.2,31.006,31.006,0,0,0,.7,7.437c.722,3.407.969,6.876,1.386,10.322s.6,6.916.863,10.377a9.945,9.945,0,0,1-2.551,7.365,23.962,23.962,0,0,1-6.087,5.2,2.471,2.471,0,0,1-.923.46c-.551.08-.594.466-.488.943.52,2.333,1.026,4.669,1.458,7.023.354,1.926.319,3.878.565,5.81a72.611,72.611,0,0,1,.443,11.579,73.713,73.713,0,0,1-1.348,11.47c-.777,4.05-1.623,8.086-2.43,12.129-.651,3.26-1.37,6.507-1.986,9.773-.73,3.876-1.456,7.75-2.03,11.656a70.14,70.14,0,0,0-.878,10.058,49.148,49.148,0,0,0,1,9.823,69.369,69.369,0,0,1,1.222,18.8c-.437,6.016-1.974,11.825-3.112,17.708q-1.038,5.367-1.774,10.781a70.475,70.475,0,0,0-.18,9.7,58.181,58.181,0,0,1-.281,6.986,12.543,12.543,0,0,1-3.414,6.888,4.459,4.459,0,0,0-1.37,3.673c.164,1.518.013,3.069.036,4.605a8.255,8.255,0,0,1-.375,2.619c-.529-.538-.144-1.1-.182-1.582-.283-3.576-.41-7.165-.727-10.736-.3-3.4-.506-6.8-.592-10.2a87.3,87.3,0,0,1,.288-9.806c.174-1.99-.106-4.016-.105-6.025,0-2.968-.167-5.93-.049-8.907.163-4.112.063-8.233.068-12.351a88.468,88.468,0,0,1,1.346-17.933,49.205,49.205,0,0,0,.9-12.666c-.243-4.615-.628-9.222-.994-13.83-.352-4.431-.877-8.851-1.107-13.288a114.61,114.61,0,0,0-.807-11.848c-.542-3.462-.84-6.968-1.718-10.373a32.513,32.513,0,0,0-5.717-11.121,37.132,37.132,0,0,0-6.871-7.085,10.985,10.985,0,0,0-3.629-2.06,10.154,10.154,0,0,0-.816,3.305c-.606,3.228-1.229,6.458-1.585,9.732-.293,2.7-.195,5.394-.257,8.092a48.276,48.276,0,0,0,.7,8.977q1.1,6.673,2.718,13.256c1.4,5.655,2.795,11.31,4.4,16.914,1.035,3.622,2.026,7.255,3.066,10.877A16.781,16.781,0,0,1,16.932,196a35.487,35.487,0,0,0-1.478,9.545,45.46,45.46,0,0,0,.474,9.267,80.1,80.1,0,0,0,2.366,10.441q1.088,3.7,1.905,7.46a93.312,93.312,0,0,1,1.707,19.367c.011,1.489.175,2.987.161,4.485a28.865,28.865,0,0,1-1.307,7.112c-.618,2.337-1.538,4.6-1.447,7.093a4.08,4.08,0,0,0,2.844,3.806c1.152.342,2.1,1.095,3.216,1.5,1.986.711,2.64.521,3.677-1.133.262,1.219-.577,2.182-2.072,2.284a7.422,7.422,0,0,1-5.253-1.949c-1.666-1.367-3.237-2.882-3.319-5.28a13.518,13.518,0,0,1,1.043-5.077,27.33,27.33,0,0,0,1.642-7.7c.216-3.513.171-7.023.147-10.533a64.433,64.433,0,0,0-.916-8.061c-.74-5.538-2.568-10.793-4-16.155a54.764,54.764,0,0,1-2.156-14.486,45.043,45.043,0,0,1,2.33-14.543,12.876,12.876,0,0,0,.2-8.369c-1.707-5.24-3.407-10.486-4.938-15.778-1.119-3.869-1.938-7.824-2.945-11.727-.634-2.46-1.119-4.95-1.582-7.443a71.366,71.366,0,0,1-1.321-9.907c-.082-1.876-.324-3.746-.359-5.621a30.355,30.355,0,0,1,.568-6.3c.431-2.249.5-4.559.816-6.837.445-3.238,1.169-6.412,1.851-9.6a47.941,47.941,0,0,1,1.912-6.752,22.543,22.543,0,0,1-5.61-3.719A23.445,23.445,0,0,1,.741,95.455a10.391,10.391,0,0,1-.594-5.841c.272-2.4.18-4.79.259-7.179.151-4.613.029-9.233.109-13.85C.6,63.887.746,59.191.94,54.5a11.607,11.607,0,0,1,1.217-5.01c1.292-2.466,3.509-3.319,6.013-3.773A41.524,41.524,0,0,0,18.76,42.6a3.375,3.375,0,0,0,2.328-2.975c.059-.971.271-1.931.333-2.9.176-2.772.159-2.773-2.306-4.571a6.346,6.346,0,0,0,2,3.979,2.267,2.267,0,0,1-1.692-1.385,14.43,14.43,0,0,1-1.1-4.518c-.194-1.21-.357-2.43-1.847-2.789-1.537,1.821.4,8.787,3.31,10.389a.846.846,0,0,1-1.15-.393c-.1-.031-.23-.031-.29-.1A11.143,11.143,0,0,1,15.6,31.51c-.073-.427.056-.9-.382-1.305a8.647,8.647,0,0,0,1.547,6.56,1.492,1.492,0,0,0,1.883.673c-.278.866-.842.915-1.537.519a4.585,4.585,0,0,1-1.948-2.362,9.789,9.789,0,0,1-.173-6.427c.2-.761,1.181-1.061,1.134-2.041a7.932,7.932,0,0,1-2-6.135c.093-.808.374-1.494,1.341-1.551-.518-3.085-.536-6.032,1.877-8.434-1.473,2.039-1.745,4.381-1.764,7.109.543-1.286.33-2.466,1.045-3.395-.151,1.116-.245,2.244-.472,3.345a4.208,4.208,0,0,0,.195,2.4c.684,1.918,1.116,3.925,1.757,5.86.646,1.952.7,4.212,2.19,5.753,3.319,3.443,8.2,4.974,12.427,1.592a9.733,9.733,0,0,0,2.923-4.716,13.444,13.444,0,0,1,.7-1.721c1.014-2.049.708-4.264.824-6.419.1-1.916.055-1.957-1.81-2.459-1.238-.333-2.329-1.106-3.646-1.182l-.408-.391M42.194,59.223C31.34,61.41,20.637,62.465,9.809,60.565A46.31,46.31,0,0,0,10.3,65.5c.649,4.118,1.145,8.26,1.739,12.387.6,4.158,1.775,8.2,2.4,12.365a19.011,19.011,0,0,1-.751,9.233A100.829,100.829,0,0,0,9.549,113.34c-.08.409-.18.825.382,1.02a15.78,15.78,0,0,1,4.829,2.989,35.953,35.953,0,0,1,8.405,10.376,52.45,52.45,0,0,1,2.368,5.041,6.946,6.946,0,0,0,3.282-1.649A42.468,42.468,0,0,0,36.1,124.3a74.514,74.514,0,0,0,7.406-8.586c.622-.923,1.465-1.776,1.282-3.149-.465-3.477-1.492-6.83-2.1-10.276-.884-5.028-2.06-10.009-1.775-15.181.13-2.346-.328-4.705.23-7.052.441-1.855,1.025-3.651,1.64-5.456a17.217,17.217,0,0,0-.205-12,4.372,4.372,0,0,1-.388-3.379M25.851,133.388c.465,1.709,1.01,3.34,1.312,5.058a99.728,99.728,0,0,1,1.869,15.923c.031,2.321.192,4.647.428,6.958.5,4.874.923,9.758,1.126,14.649.169,4.072.424,8.151.288,12.233a4.46,4.46,0,0,0,.015,1.045,14.047,14.047,0,0,1-.338,5.872,96.225,96.225,0,0,0-1.742,18.212c-.118,5.4.079,10.809-.19,16.212-.105,2.1-.081,4.218.013,6.322a53.332,53.332,0,0,1,.139,6.33c-.245,3.326-.34,6.661-.318,9.988.018,2.773.426,5.544.668,8.315.113,1.289.241,2.576.368,3.923a1.373,1.373,0,0,0,.193-.133c.231-.3.442-.624.694-.909,2.846-3.215,3.575-7.13,3.6-11.228.018-2.5-.171-4.993-.279-7.489-.171-3.943.715-7.785,1.249-11.646.53-3.835,1.473-7.616,2.293-11.408a67.261,67.261,0,0,0,1.676-13.079,90.158,90.158,0,0,0-1.02-14.228,56.994,56.994,0,0,1-.9-7.026,87.706,87.706,0,0,1,.553-13.12c.593-4.43,1.305-8.835,2.076-13.234.472-2.7,1.012-5.383,1.518-8.074q1.145-6.084,2.287-12.17c.7-3.7,1.339-7.421,1.671-11.176a87.734,87.734,0,0,0,.213-11.758c-.047-1.019-.2-2.032-.325-3.266a65.562,65.562,0,0,1-5.9,7.38c-2.5,2.8-4.7,5.88-7.667,8.235-1.678,1.332-3.319,2.76-5.574,3.289M43.3,57.95a33.135,33.135,0,0,0,5.821-2.241,1.574,1.574,0,0,0,1.035-1.871c-.171-1.131-.179-2.3-.456-3.4-.637-2.533-1.9-4.611-5.239-4.1a17.416,17.416,0,0,1-8.88-1.05c-2.712-1.013-4.58-2.7-4.748-5.76a16.335,16.335,0,0,1,.233-3.916,5.02,5.02,0,0,0-1.616.933c-1.794,1.378-3.258,1.28-4.739-.425-.718-.826-1.706-1.1-2.664-1.8a34.046,34.046,0,0,1-.152,4.762c-.205,1.685-.591,3.192-2.457,3.813-.952.317-1.863.756-2.8,1.129-3.13,1.25-6.465,1.72-9.715,2.507a6.169,6.169,0,0,0-4.424,3.717c-.816,1.819-.676,3.73-.9,5.612a1.527,1.527,0,0,0,.927,1.695,24.577,24.577,0,0,0,6.321,1.967L9.2,58.245a.564.564,0,0,1,.457.6c-.1,1.009.5,1.087,1.287,1.149,1.346.108,2.677.386,4.022.493,2.423.194,4.852.409,7.28.439s4.848-.316,7.27-.493a97.733,97.733,0,0,0,12.207-2.015,1.136,1.136,0,0,0,.965-.921c.2-.664.025-1.362.28-2.137.785.8.268,1.652.333,2.589M9.276,65.13a24.992,24.992,0,0,1-7.79-.375c-.116,3.72-.271,7.322-.328,10.926-.081,5.14.121,10.292-.346,15.416-.254,2.795.908,5,2.438,7.067a18.4,18.4,0,0,0,7.638,6.354c.766-1.894,1.557-3.842,2.338-5.794a.612.612,0,0,0-.173-.751c-1.541-1.381-2.547-3.2-3.867-4.762a5.315,5.315,0,0,1-1.279-3.551c.012-4.26.914-8.412,1.5-12.6a35.3,35.3,0,0,0,.638-5.478,60.509,60.509,0,0,0-.77-6.45m34.687-.718a19.016,19.016,0,0,1-.735,11.749,1.108,1.108,0,0,0-.012.7c.414,2.072.836,4.144,1.221,6.222.481,2.6.991,5.2-.594,7.655-.507.784-.933,1.619-1.406,2.425a1.872,1.872,0,0,0-.234,1.3c.427,2.554.854,5.108,1.294,7.745a7.305,7.305,0,0,0,1.014-.453,27.189,27.189,0,0,0,6.1-5.321,8.924,8.924,0,0,0,2.474-6.139c-.107-2.246-.176-4.5-.445-6.73-.658-5.443-.878-10.942-2.04-16.323a26.485,26.485,0,0,1-.513-4.4,16.072,16.072,0,0,1-6.128,1.575M10.409,75.176c-.062.64-.1,1.284-.19,1.92-.5,3.472-1.053,6.937-1.507,10.415-.282,2.156-.148,4.25,1.657,5.846a2.919,2.919,0,0,1,.347.517c.889,1.243,1.781,2.485,2.722,3.8a9.268,9.268,0,0,0,.57-5.836c-1.057-5.579-2.731-11.026-3.6-16.659m33.26-11.2a20.38,20.38,0,0,0,5.313-1.285,1.352,1.352,0,0,0,1.059-1.612,23.626,23.626,0,0,1,.109-2.576c.023-.845,0-1.692,0-2.68a22.491,22.491,0,0,1-6.271,2.833,1.331,1.331,0,0,0-1.095,1.38c-.086,1.373.782,2.49.878,3.94M1.535,57.9c0,1.952.024,3.766-.015,5.577a.73.73,0,0,0,.671.86,36.811,36.811,0,0,0,6.859.21c.135-1.136-.173-2.158-.022-3.2.1-.66-.208-1.086-1-1.215A23.637,23.637,0,0,1,1.535,57.9M42.082,92.5c1.037-2.239,3.023-4.1,1.817-6.845-.025-.059.006-.14-.006-.207-.4-2.3-.81-4.6-1.227-6.963-1.018,1.841-1.451,11.842-.584,14.015M17.5,27.357c-.56-2.315-1.044-4.358-1.557-6.393-.089-.352-.19-.823-.672-.813-.431.009-.5.442-.515.767A7.414,7.414,0,0,0,17.5,27.357m14.237,9.614a4.823,4.823,0,0,0,2.693-4.262c-.745.481-.838,1.421-1.568,1.721-1.131.465-1.149,1.4-1.125,2.541" transform="translate(0 -1.741)" fill="#8e3a21"/>
        <path id="Trazado_895067" data-name="Trazado 895067" d="M36.76,2.03a11.707,11.707,0,0,1,3.067.324c2.321.772,3.142,2.758,3.976,4.762,1.267,3.04,1.544,6.317,2.334,9.47.885,3.527,1.886,7.024,2.839,10.533a10.132,10.132,0,0,1,.251,5.06,2.653,2.653,0,0,1-1.78,2.111c-1.213.419-2.4.915-3.592,1.393a1.153,1.153,0,0,1-.932,0,4.8,4.8,0,0,0,2.582-3.962c-.512.718-.648,1.427-1.208,1.86-.522.4-.868,1.064-1.744,1.078,2.614-1.885,2.882-4.516,2.447-7.4.383,1.262,1.358,2.26,1.11,3.689-.236,1.36-.255,2.76-1.21,3.887a4.393,4.393,0,0,0,3.837-5.457c-.618-3.231-1.606-6.364-2.495-9.521-.932-3.312-1.389-6.72-2.258-10.04a18.314,18.314,0,0,0-2-4.9C40.79,2.935,38.88,2.511,36.3,2.606,36.208,1.146,35.592.647,33.816.59c-3.207-.1-6.255.764-9.3,1.573A13.686,13.686,0,0,0,18,5.692c-2.233,2.3-3.186,5.2-3.787,8.271a39.467,39.467,0,0,1-1.2,6.1,9.762,9.762,0,0,1-2.747,3.866c-4.165,3.809-1.946,10.21,2.211,12.383a11.924,11.924,0,0,0,1.916.62c-.393.48-.8.293-1.227.175-4.648-1.28-7.935-8.1-3.667-12.962a13.87,13.87,0,0,0,3.479-7.734,24.063,24.063,0,0,1,2.176-7.664,11.975,11.975,0,0,1,6.622-6.143A33.379,33.379,0,0,1,33.681,0c2.06-.026,2.944.653,3.079,2.028" transform="translate(-2.222 0)" fill="#8e3a21"/>
        <path id="Trazado_895068" data-name="Trazado 895068" d="M28.865,11.514c.171,2.487.7,4.186,1.577,5.2-1.32.2-4-2.445-4.5-4.594C25.4,9.79,25.8,6.43,27.857,5.993a6.028,6.028,0,0,0-1.188,4.963,9.73,9.73,0,0,0,2.47,4.6,25.244,25.244,0,0,1-.683-3.993,12.853,12.853,0,0,1,.43-4c.448,4.717,2.693,7.955,7.466,9.255-2.179.588-5.29-1.638-7.486-5.309" transform="translate(-7.591 -1.769)" fill="#8e3a21"/>
        <path id="Trazado_895069" data-name="Trazado 895069" d="M15.467,35.975c-2.086,5.2.212,10.123,4.194,11.256a3.589,3.589,0,0,1-4.179-1.138,8.615,8.615,0,0,1-.515-9.648c.109-.209.209-.442.5-.47" transform="translate(-4.054 -10.616)" fill="#8e3a21"/>
        <path id="Trazado_895070" data-name="Trazado 895070" d="M41.183,16.476l.408.391c-.455.495-.846.061-1.2-.132a9.822,9.822,0,0,1-4.649-6.006c-.352-1.121-.563-2.287-.852-3.429a3.815,3.815,0,0,0-1.4-2.3c.607-.376.895-.026,1.181.313,1.05,1.241,1.293,2.806,1.7,4.3a12.854,12.854,0,0,0,3.483,6.159,1.957,1.957,0,0,0,1.327.7" transform="translate(-9.883 -1.428)" fill="#8e3a21"/>
        <path id="Trazado_895071" data-name="Trazado 895071" d="M34.568,39.018c1.677-.807,3.2-1.05,4.774-.068-.64,1.032-1.291,2.07-2.7,2.052-1.265-.016-1.465-1.18-2.073-1.984" transform="translate(-10.201 -11.305)" fill="#8e3a21"/>
        <path id="Trazado_895072" data-name="Trazado 895072" d="M24.57,24.083c1.575-1.285,5.162-1.291,6.406.039-2.211.137-4.31-.9-6.406-.039" transform="translate(-7.251 -6.823)" fill="#8e3a21"/>
        <path id="Trazado_895073" data-name="Trazado 895073" d="M31.268,269.51a2.947,2.947,0,0,1,.166-2.675c.385-1.06-1.194-1.51-.643-2.535.62.228,1.649,1.551,1.482,2.089-.321,1.036-.731,2.046-1.006,3.121" transform="translate(-9.052 -77.997)" fill="#8e3a21"/>
        <path id="Trazado_895074" data-name="Trazado 895074" d="M47.462,24.518a16.023,16.023,0,0,0-5.389.049c-.329.056-.8.136-.83-.35-.027-.464.432-.469.777-.466a14.641,14.641,0,0,1,5.442.766" transform="translate(-12.171 -7.009)" fill="#8e3a21"/>
        <path id="Trazado_895075" data-name="Trazado 895075" d="M27.606,28.336c1.336.214,2.588,1.594,3.973.067A1.763,1.763,0,0,1,29.9,29.656a2.5,2.5,0,0,1-2.294-1.32" transform="translate(-8.147 -8.362)" fill="#8e3a21"/>
        <path id="Trazado_895076" data-name="Trazado 895076" d="M45.98,28.567a2.617,2.617,0,0,1-3.171,1.028c-.543-.182-.543-.182-.57-1.045,1.27.823,2.524,1.194,3.742.018" transform="translate(-12.465 -8.425)" fill="#8e3a21"/>
        <path id="Trazado_895077" data-name="Trazado 895077" d="M34.829,24.18c2.22,1.013,2.221,3.36,1.272,4.97a6.052,6.052,0,0,0,.24-2.856c-.223-.89-1.44-.986-1.513-2.114" transform="translate(-10.278 -7.136)" fill="#8e3a21"/>
        <path id="Trazado_895078" data-name="Trazado 895078" d="M36.037,33.453l.847,2.22c-.992-.355-1.181-.775-.847-2.22" transform="translate(-10.59 -9.872)" fill="#8e3a21"/>
        <path id="Trazado_895079" data-name="Trazado 895079" d="M39.821,104.964c-1.026.327-1.946,1.012-3.13.871a10.356,10.356,0,0,0,4.642-2.824c-.109,1.032-.87,1.2-1.1,1.747l-.41.206" transform="translate(-10.828 -30.399)" fill="#8e3a21"/>
        <path id="Trazado_895080" data-name="Trazado 895080" d="M40.549,105.552l.41-.206c.445,0,.758-.5,1.434-.29a16.859,16.859,0,0,1-3.237,1.8c.306-.772,1.162-.687,1.393-1.3" transform="translate(-11.555 -30.987)" fill="#8e3a21"/>
        <path id="Trazado_895081" data-name="Trazado 895081" d="M49.381,264.616c-.377,1.431.062,2.926-.418,4.315a4.163,4.163,0,0,1-1.449,1.848c-.326-.539.165-.814.357-1.112a2.725,2.725,0,0,0,.493-2.45c-.422-1.172.378-1.823,1.016-2.6" transform="translate(-13.99 -78.09)" fill="#8e3a21"/>
      </g>
    </g>
  </g>
</svg>
