<svg xmlns="http://www.w3.org/2000/svg" xmlns:xlink="http://www.w3.org/1999/xlink" width="78.411" height="275" viewBox="0 0 78.411 275">
  <defs>
    <clipPath id="clip-path">
      <rect id="Rectángulo_407250" data-name="Rectángulo 407250" width="59.754" height="274.697" fill="none"/>
    </clipPath>
  </defs>
  <g id="Grupo_1113505" data-name="Grupo 1113505" transform="translate(-1270.13 -7482.563)">
    <circle id="Elipse_11496" data-name="Elipse 11496" cx="18.657" cy="18.657" r="18.657" transform="translate(1311.227 7720.25)" fill="#bdadea"/>
    <g id="Grupo_1113495" data-name="Grupo 1113495" transform="translate(1270.13 7482.563)">
      <g id="Grupo_1113494" data-name="Grupo 1113494" clip-path="url(#clip-path)">
        <path id="Trazado_895082" data-name="Trazado 895082" d="M31,165.409a27.62,27.62,0,0,0-1.938-4.243,17.949,17.949,0,0,0-3.516-4.009c-2.156-1.752-4.262-3.563-6.512-5.2a32.5,32.5,0,0,0-10.117-5.308c-1.531-.441-3.031-1-4.735-1.339.579-1.525,1.1-3.028,1.715-4.488.961-2.267,2.051-4.48,2.978-6.759,1.532-3.769,2.954-7.583,4.469-11.358a28.842,28.842,0,0,0,1.935-6.277c.408-2.622.231-5.155-1.649-7.2a15.22,15.22,0,0,1-3.59-6.666,10.4,10.4,0,0,1,.881-7.225c.563-1.189,1.058-2.41,1.723-3.564.634-1.1.093-2.3-.357-3.446a2.439,2.439,0,0,0,.014,1.452c.34,1.459-.519,2.6-1.055,3.812-.134.3-.534.2-.8.158-1.586-.235-3.16-.558-4.751-.736a1.38,1.38,0,0,1-1.409-1.416c-.161-2.426-.469-4.865.559-7.2a9.924,9.924,0,0,1,2.472-3.215.567.567,0,0,1,.629-.111,36.207,36.207,0,0,0,6.737,1.968,29.647,29.647,0,0,0,4.673.692,94.25,94.25,0,0,0,11.33.176c3.777-.095,7.553-.276,11.319-.7a49.313,49.313,0,0,0,9.635-1.773A27,27,0,0,0,55.526,79.8a1.432,1.432,0,0,1,2.143.714,13.068,13.068,0,0,1,1.478,5.112,52.483,52.483,0,0,1-.137,5.941c-.006.191.012.382-.167.524-1.58,1.256-3.2,2.438-5.3,2.632-.5.046-.719-.126-.962-.644a5.966,5.966,0,0,1-.517-4.311,3.107,3.107,0,0,0,.008-.742,3.7,3.7,0,0,0-.25,4.21,17.965,17.965,0,0,1,2.031,6.8,15.346,15.346,0,0,1-.156,5.1c-.486,2.24-1.929,3.963-3.281,5.71a3.71,3.71,0,0,0-.861,2.2,31.005,31.005,0,0,0,3,14.607c1.854,4.025,3.545,8.094,5.106,12.228a26.122,26.122,0,0,1,1.127,3.679c.3,1.372-.744,2.266-1.551,3.089A47.668,47.668,0,0,1,47.2,154.061c-1.894,1.119-3.786,2.247-5.7,3.339a23.662,23.662,0,0,0-4.484,3.789c-1.508,1.448-2.891,3.074-4.84,4a1.582,1.582,0,0,1-1.181.22m3.917-55.578a26.373,26.373,0,0,0,6.733,1.779c-2.257-.545-4.346-1.721-6.733-1.779" transform="translate(-1.448 -27.983)" fill="#fdd6cf"/>
        <path id="Trazado_895083" data-name="Trazado 895083" d="M21.386,7.343a6.972,6.972,0,0,0-.005-.886c-.257-1.783.641-3.139,1.646-4.448.725-.945,1.885-1,2.9-1.339,2.257-.753,4.329.051,6.415.775,2.644.918,4.808,2.716,7.29,3.925.421.206.572.582.825.891A11.864,11.864,0,0,0,44.51,9.29c2.395,1.2,3.341,3.244,3.643,5.767a46.14,46.14,0,0,1,.012,5.272,2.048,2.048,0,0,0,.771,1.642,14.46,14.46,0,0,1,4.1,5.489,2.023,2.023,0,0,1-.2,1.824,8.051,8.051,0,0,1-2.825,2.878c-.806.508-.7,1.255-.519,1.947a4.266,4.266,0,0,0,1.026,2.027c.566.569.353,1.182-.443,1.3-1.115.162-2.263.608-3.338-.2-.252-.189-.534-.065-.809.085-2.508,1.372-4.189,1.109-6.117-.942A1.5,1.5,0,0,0,39.417,36,2.942,2.942,0,0,0,40.6,37.989c.2.189.541.345.321.69s-.546.095-.783.013a3.179,3.179,0,0,1-2.082-3.782,12.253,12.253,0,0,1,2.1-4.822,4.7,4.7,0,0,0,.342-3.208c-.065-.4-.163-.727.23-.864a1.026,1.026,0,0,0,.713-1.027c.012-.825.883-1.479.455-2.36a18.549,18.549,0,0,0-1-1.858,5.741,5.741,0,0,0-2.08-2.045,12.909,12.909,0,0,1-4.34-4.026,5.868,5.868,0,0,0,.347,2.547c.046.152.158.286.191.438.1.463.753,1.015.194,1.361-.611.38-1.061-.315-1.352-.762A8.815,8.815,0,0,1,32.3,11.322c.3-1.347.159-1.538-1.2-1.916a4.587,4.587,0,0,0-2.183-.01A14.05,14.05,0,0,0,23.6,11.6c-2.854,2.036-3.9,4.968-3.617,8.458a8.35,8.35,0,0,1-.338,4.161,3.4,3.4,0,0,1-1.289,1.758c.842.906.864,2.363,2.328,2.742.371.1.6.546.8.911a32.041,32.041,0,0,0,3.651,5.049c.1.123.2.342.309.35.451.03.923-.024,1.085.548a2.658,2.658,0,0,1-.018,1.864c-.039.088-.071.179-.105.269-.166.438-.215,1.076-.828,1.024-.746-.062-.111-.77-.5-1.144-1.277,1.142-2.59,2.494-4.6,1.737-.089-.5.4-.42.387-.711a1.911,1.911,0,0,0-2.082.121,5.56,5.56,0,0,1-2.446.753.969.969,0,0,1-1.1-.834,4.933,4.933,0,0,0,2.871-1.13c-.217-.4-.589-.452-.888-.607-1.564,1.328-4.428,1.16-5.288-.351.428-.275.914-.147,1.448-.2a1.406,1.406,0,0,1,.805-1.282,17.642,17.642,0,0,0-3.339-2.226,3.016,3.016,0,0,1-1.744-2.029,11.373,11.373,0,0,0-.372-1.192c-.661-1.867-.544-2.505,1.125-3.531,1.424-.875,2.606-2.033,3.946-3,.8-.575.346-1.514.156-2.137-1.124-3.686.076-6.981,1.715-10.122a6.69,6.69,0,0,1,5.708-3.511" transform="translate(-2.941 -0.13)" fill="#eacbc7"/>
        <path id="Trazado_895086" data-name="Trazado 895086" d="M32.248,21.757a6.033,6.033,0,0,1-.888-4.943,12.382,12.382,0,0,0,1.015,1.675,10.544,10.544,0,0,0,4.735,3.691c1.769.576,2.552,2.585,2.08,4.707a3.606,3.606,0,0,1-1.616,2.445c1.471.274,2.392-.951,2.753-3.448.447.425.268.893.2,1.317a3.96,3.96,0,0,1-.844,2,5.666,5.666,0,0,0-.124,7.925,2.452,2.452,0,0,1,.224.429c-1.229-.178-2.343-2-2.488-4.048a9.7,9.7,0,0,0-2.067,7.449,48.177,48.177,0,0,0,.911,5.069,4.674,4.674,0,0,0,2.554,3.14,34.914,34.914,0,0,0,8.541,2.7c1.687.36,3.386.662,5.082.978a6.786,6.786,0,0,1,5.21,4.716,15.936,15.936,0,0,1,.546,8.762,42.411,42.411,0,0,0-.153,5.282c-.24,3.995-.362,7.994-.681,11.988a91.737,91.737,0,0,0-.415,12.273,49.336,49.336,0,0,0,1.97,10.4,32.613,32.613,0,0,1,.361,14.18c-.51,3.054-.028,6.073.017,9.105a94.326,94.326,0,0,1-.6,10.9A88.332,88.332,0,0,1,56.76,150.63a103.568,103.568,0,0,1-5.288,16.558c-2.054,5.061-4.255,10.053-6.493,15.032-.769,1.71-1.634,3.378-2.339,5.113a9.481,9.481,0,0,0-.442,5.081,32.918,32.918,0,0,1,.04,7.834c-.534,6.275-2.7,12.047-5.284,17.711a75.255,75.255,0,0,0-4.7,12.707,23.416,23.416,0,0,0-.467,4.663c-.145,3.009-.478,6-.659,9a65.226,65.226,0,0,0,.745,14.115c.4,2.551.575,5.138.821,7.712.22,2.29.617,4.56.656,6.873a7.467,7.467,0,0,1-.895,4.018,1.369,1.369,0,0,1-1.251.686c-4.172.244-7.446-1.57-10.6-4.093-2.119-1.7-1.879-3.771-1.69-5.906a31.644,31.644,0,0,1,2.195-8.578A1.136,1.136,0,0,0,20.933,258a10.7,10.7,0,0,1-1.785-6.985,54.578,54.578,0,0,1,1.655-9.039c.329-1.531.542-3.076.724-4.628.206-1.745-.475-3.317-.959-4.927-1.929-6.418-4.251-12.73-5.378-19.365a32.658,32.658,0,0,1-.1-10.024c.237-1.705.919-3.252,1.238-4.909a13.532,13.532,0,0,0-.574-6.589c-1.212-4.015-3.3-7.651-4.81-11.529-2.24-5.734-4.366-11.5-6.034-17.443C3.6,157.894,2.4,153.2,1.187,148.512a48.028,48.028,0,0,1-1.046-7.29c-.265-2.641-.071-5.285-.087-7.927a44.517,44.517,0,0,1,1.487-11.133,19.582,19.582,0,0,0,.287-3.627A51.557,51.557,0,0,1,4.05,106.322a36.23,36.23,0,0,0,1.241-8.609c.178-3.188-.513-6.281-.805-9.414-.477-5.123-1.326-10.2-1.752-15.339a87.167,87.167,0,0,1-.475-10.055,8.889,8.889,0,0,1,4.6-7.765,29.175,29.175,0,0,1,5.872-2.3c2.641-.9,5.43-1.388,7.787-3.052a6.559,6.559,0,0,0,3.171-5.753,40.716,40.716,0,0,0-.212-4.943.989.989,0,0,0-.357-.736A15.467,15.467,0,0,1,18.2,32.212c-.1-.227-.185-.478-.479-.563a2.9,2.9,0,0,1-2.3-2.311,4.959,4.959,0,0,0-2.174,5.127,2.193,2.193,0,0,0,1.89,1.786,4.049,4.049,0,0,1,1.723.775,2.037,2.037,0,0,1,.628,3.119c-.241.4-.455.81-.745,1.33a3.741,3.741,0,0,0,2.091-1.942,10.343,10.343,0,0,0,.652-2.7A4.726,4.726,0,0,1,19.084,42a2.825,2.825,0,0,0,2.221-.6c.659-.412.827-1.229,1.336-1.856.338,1.564-1.249,2.742-2.646,2.887a2.923,2.923,0,0,1-1.684-.216,1.968,1.968,0,0,0-1.883.179,1.8,1.8,0,0,1-2.02-.082c.027-.134.032-.247.053-.25,1.472-.223,1.78-1.648,2.587-2.543.614-.68.213-1.724-.819-2.394a5.052,5.052,0,0,0-1.33-.527,2.794,2.794,0,0,1-2.064-2.678,5.394,5.394,0,0,1,2.047-4.927,4.65,4.65,0,0,0,1.846-4.265,17.436,17.436,0,0,1,.493-5.892,8.224,8.224,0,0,1,4.487-5.076c.462-.242.618-.445.583-.917a3.9,3.9,0,0,1,3.081-4.109,3.731,3.731,0,0,1,3.861,3.04,18.693,18.693,0,0,1,.348,5.541,4.833,4.833,0,0,0,2.665,4.445M3.005,120.173a3.591,3.591,0,0,0,.34.126,40.611,40.611,0,0,1,8.86,3.039,45.486,45.486,0,0,1,8.532,5.814A39.545,39.545,0,0,1,26.6,134.52a20.115,20.115,0,0,1,3.1,5.964c.34-.15.632-.274.921-.406a16.11,16.11,0,0,0,4.228-3.42,31.7,31.7,0,0,1,5.791-4.851c2.841-1.653,5.787-3.131,8.479-5.048a40.379,40.379,0,0,0,6.622-5.354c.724-.79,1.7-1.56,1.341-2.882a92.754,92.754,0,0,0-4.445-12.077,72.02,72.02,0,0,1-2.932-6.825,34.318,34.318,0,0,1-1.781-11.5,3.712,3.712,0,0,1,.872-2.361C50.231,84.04,51.686,82.246,52.1,80a16.981,16.981,0,0,0-1.682-11.07,5.288,5.288,0,0,1-.74-3.009,3.8,3.8,0,0,1,1.062-2.252c-.338,2.158-.309,4.213.989,6.034a8.158,8.158,0,0,0,3.316-1.147A3.8,3.8,0,0,0,57.5,64.818c.018-2.99.029-5.9-1.265-8.678-.582-1.251-1.187-1.536-2.4-.9a19.516,19.516,0,0,1-1.815.854,44.25,44.25,0,0,1-12.326,2.493c-3.85.376-7.719.512-11.59.567-5.027.07-10.058.176-15.011-.9A38.774,38.774,0,0,1,6.272,56.3a8.072,8.072,0,0,0-2.692,3.366c-1.053,2.305-.694,4.69-.511,7.085a1.038,1.038,0,0,0,1.018,1.1c1.636.269,3.275.519,4.911.784.419.068.583-.137.806-.478a5.981,5.981,0,0,0,.68-4.782c-.081-.376-.084-.663.245-.821a5.9,5.9,0,0,1-.252,6.252c-1.349,2.329-2.36,4.886-1.889,7.743a12.071,12.071,0,0,0,2.918,6.563A9.14,9.14,0,0,1,14.19,89.75a19.229,19.229,0,0,1-1.534,6.668c-2.375,6.367-4.881,12.679-7.7,18.867-.724,1.592-1.3,3.248-1.955,4.888m-.071.662a13.618,13.618,0,0,0-1.066,3.292,33.433,33.433,0,0,0-1.33,8.4c-.018,2.808.075,5.607.33,8.405a50.57,50.57,0,0,0,1.5,8.785c1.3,4.733,2.517,9.485,3.874,14.2A140.956,140.956,0,0,0,12.172,180.8a98.775,98.775,0,0,1,4.772,12.906,10.873,10.873,0,0,1-.057,6.327,25.758,25.758,0,0,0-1.042,8.995A46.067,46.067,0,0,0,17.8,220.114c1,3.43,1.944,6.879,3.013,10.288a55.313,55.313,0,0,1,2.369,10.5,50.6,50.6,0,0,1,.2,10.8,29.236,29.236,0,0,1-1.714,8.482A30.224,30.224,0,0,0,19.3,268.02a4.776,4.776,0,0,0,1.747,4.747,44.124,44.124,0,0,0,6.316,3.955,7.4,7.4,0,0,0,4.017.641.656.656,0,0,0,.628-.492,6.71,6.71,0,0,0,.717-2.652c-.021-1.826-.21-3.635-.367-5.452-.274-3.183-.493-6.378-1.063-9.516a63.034,63.034,0,0,1-1.332-12.606,43.974,43.974,0,0,1,.544-6.5,76.386,76.386,0,0,0,.816-9.54c.106-2.366.261-4.72.583-7.065.287-2.084.6-4.168.782-6.261.3-3.385.222-6.785.218-10.18a44.536,44.536,0,0,0-.434-7.358,18.734,18.734,0,0,1-.5-3.689c.058-1.716.312-3.414.253-5.15-.089-2.568.12-5.147.018-7.714-.088-2.193-.012-4.384-.01-6.57,0-3.364.053-6.734.043-10.1-.01-3.56-.359-7.11-.652-10.661A67.127,67.127,0,0,0,29.093,141.3a17.241,17.241,0,0,0-4.639-7.913,78.34,78.34,0,0,0-8.7-6.88,40.792,40.792,0,0,0-12.824-5.668M32.365,228.171a64.8,64.8,0,0,1,3.818-10.222,67.485,67.485,0,0,0,4.755-13.994,34.9,34.9,0,0,0,.633-9.727,18.253,18.253,0,0,1,1.586-9.851c2.441-5.063,4.559-10.272,6.684-15.473a122.552,122.552,0,0,0,5.743-17.039,97.492,97.492,0,0,0,2.749-16.211,54.622,54.622,0,0,0-.2-11.878,18.191,18.191,0,0,0-.655-3.4,18.6,18.6,0,0,1-4.551,4.773A75.291,75.291,0,0,1,42.091,131.8a15.209,15.209,0,0,0-4.694,3.429,33.03,33.03,0,0,1-4.232,4.167,5.429,5.429,0,0,1-3.373,1.571,43.057,43.057,0,0,1,2.1,10.125c.414,3.321.364,6.679.749,10.016.633,5.483.471,11.014.559,16.527.047,3.008-.011,6.02.069,9.026.051,1.888-.107,3.768-.087,5.656.019,1.768-.443,3.538-.084,5.328.213,1.061.45,2.124.557,3.2.318,3.183.227,6.379.226,9.573a76.931,76.931,0,0,1-.93,11.83,42.126,42.126,0,0,0-.585,5.921M54.259,54.3a4.092,4.092,0,0,0-1.345-.531,81.913,81.913,0,0,1-12.125-3.075c-2.081-.778-4.135-1.743-5.025-3.988a19.359,19.359,0,0,1-1.2-8.854,16.928,16.928,0,0,1-2.341,1.721,4.185,4.185,0,0,0-.806.819c-1.566,1.682-2.917,1.795-4.755.383a7.1,7.1,0,0,1-.871-.753,4.117,4.117,0,0,0-1.787-.9,18.837,18.837,0,0,1,.379,5.558,4.833,4.833,0,0,1-1.048,3.015,14.475,14.475,0,0,1-6.39,4.542c-2.591.884-5.216,1.667-7.812,2.536A4.567,4.567,0,0,0,6.861,56.05a69.952,69.952,0,0,0,7.989,1.785,88.486,88.486,0,0,0,15.092.558,96.529,96.529,0,0,0,15.914-1.308,30.21,30.21,0,0,0,8.4-2.786M26.863,9.751a2.307,2.307,0,0,0-.431-.258,3.024,3.024,0,0,0-3.562,3.29,1.306,1.306,0,0,1-.744,1.346c-1.308.842-2.711,1.6-3.478,3.076a14.494,14.494,0,0,0-1.315,7.647c.07,1.352.04,2.677-1.11,3.667-.224.193-.387.4-.177.742a4.011,4.011,0,0,0,1.625,1.753,13.931,13.931,0,0,1-.387-3.18,1.908,1.908,0,0,1,.371.726,17.4,17.4,0,0,0,3.981,7.653C23.347,38.125,25.218,39.685,28,39.8a7.3,7.3,0,0,0,6.666-3A23.226,23.226,0,0,0,37,32.1c.255-.593.081-1.528,1.1-1.637.047,0,.074-.2.117-.329-2.5-.11-3.36-.574-3.324-1.755a1.747,1.747,0,0,0,2.521.241,2.612,2.612,0,0,0,1.171-2.1c.347-2.112.08-3.327-2.02-4.176-.707-.286-1.418-.55-2.147-.783a3.3,3.3,0,0,0-1.533-.082c.063.5.625.582.6,1.059-.732.268-1.286-.416-1.911-.406-.519.447-.253,1.195-.921,1.831a5.76,5.76,0,0,1,.234-1.413,1.084,1.084,0,0,0-.376-1.475,4.824,4.824,0,0,1-1.573-2.983c-.237-1.19.17-2.351.088-3.535-.119-1.709-.1-1.709-1.733-1.862-.033,0-.058-.1-.106-.183a2.115,2.115,0,0,1,1.432-.266c-.064-.454-.173-.783-.6-.851-1.29-.207-1.981.718-2.771,1.473.256-1.584,1.587-1.789,2.844-2.106-.64-.635-1-.832-1.543-.653a2.736,2.736,0,0,0-1.886,2.934c-.7-1.6.124-2.832,2.193-3.292M58.3,120.946c.106-.646.173-1.043.237-1.441.244-1.514.11-3.056.286-4.564a25.506,25.506,0,0,0-1.13-10.674A44.547,44.547,0,0,1,56.065,88.11c.3-5.1.709-10.186.919-15.287a32.264,32.264,0,0,0,.163-4.925,9.153,9.153,0,0,1-5.389,2.322c.115.541.207,1.006.312,1.467a35.216,35.216,0,0,1,.788,7.213c.048,2.726-1.38,4.927-3.015,6.952A4.556,4.556,0,0,0,48.751,89.2c.111,1.747.246,3.486.513,5.215a32.934,32.934,0,0,0,2.38,8.546q2.98,6.62,5.364,13.465c.488,1.4.816,2.847,1.288,4.52M2.543,118.3c.338-.1.351-.324.418-.484,1.085-2.59,2.244-5.149,3.36-7.725,2.027-4.681,3.936-9.411,5.639-14.224.977-2.762,1.748-5.531,1.285-8.51A3.668,3.668,0,0,0,12.2,85.085c-3.912-3.763-5.392-8.221-3.761-13.542a8.1,8.1,0,0,0,.747-2.227,32.821,32.821,0,0,1-5.94-1.1,16.187,16.187,0,0,0,.326,3.074c.215,2.445.376,4.9.636,7.337.4,3.712.972,7.408,1.257,11.127a85.067,85.067,0,0,1,.466,10.617,25.1,25.1,0,0,1-1.084,7.081,36.587,36.587,0,0,0-2.3,10.845m19.7,121.266c-.252,2.945-1.2,5.745-1.8,8.612a18.362,18.362,0,0,0-.482,5.23,8.083,8.083,0,0,0,1.557,4.459c1.008-6.217,2.017-12.2.722-18.3M33.153,20.52c-.775-.512-.993-1.274-1.571-1.843.337,1.952.435,2.082,1.571,1.843" transform="translate(0 -3.061)" fill="#8e3a21"/>
        <path id="Trazado_895087" data-name="Trazado 895087" d="M50.569,36.969c-2.223-1.458-2.051-4.611.356-6.434,2.99-2.263,1.567-5.2-.688-6.8-.416-.295-.807-.624-1.223-.918a3.634,3.634,0,0,1-1.5-3.329c.043-1.67.471-3.346-.12-5.009a12.117,12.117,0,0,0-1.2-2.9,4.414,4.414,0,0,0-1.98-1.6c-2.292-.991-3.9-2.852-5.618-4.563a17.669,17.669,0,0,0-7.45-4.183,10.923,10.923,0,0,0-5.87-.412A5.157,5.157,0,0,0,21.475,3.73a3.4,3.4,0,0,0,.77,3.968c-.366-2.288.684-3.836,2.819-3.949-.94.688-2.038,1.125-2.316,2.247-.307,1.238.357,2.05,1.564,2.576-3.629.462-5.581,2.665-6.61,5.9C17.616,12.2,19.448,9.85,22.337,8.4a2.483,2.483,0,0,0-3.181-.508c-2.329,1-3.483,2.936-4.224,5.247a19.961,19.961,0,0,0-.694,7.312,3.984,3.984,0,0,1-2.456,4.233A15.406,15.406,0,0,0,9.836,25.9c-1.774,1.19-2.2,4.556.464,5.629a9.414,9.414,0,0,1,2.633,1.744c1.7,1.494,1.483,2.846-.628,3.686a2.686,2.686,0,0,0,3.123-.485c.246.324.016.458-.141.6a3.088,3.088,0,0,1-4.246-.239c-.34-.421-.492-.814.019-1.214.346.191.541.645,1,.653a1.37,1.37,0,0,0,1.319-.622,1.234,1.234,0,0,0-.28-1.334,6.647,6.647,0,0,0-2.666-1.992c-1.557-.72-2.657-1.67-2.668-3.474a4.687,4.687,0,0,1,2.588-4.078c.622-.39,1.256-.761,1.884-1.142a2.259,2.259,0,0,0,1.21-2.039c0-1.635-.093-3.278.039-4.9.241-2.978.972-5.831,3.188-8.008a4.923,4.923,0,0,1,4.291-1.673,5,5,0,0,1,.089-3.651A6.24,6.24,0,0,1,26.883,0c5.321-.047,9.672,2.21,13.339,5.9a16.224,16.224,0,0,0,4.714,3.546,4.023,4.023,0,0,1,1.966,1.9,11.664,11.664,0,0,1,1.52,6.222,15.84,15.84,0,0,0-.012,2.48,2.972,2.972,0,0,0,1.324,2.136,10.653,10.653,0,0,1,2.773,2.74c1.171,1.931,1.264,4.112-.917,5.765A4.535,4.535,0,0,0,50.1,32.295c-1.022,2.2-.163,4.466,2.7,4.407-.458.664-.873.712-2.239.262Z" transform="translate(-2.73 0)" fill="#8e3a21"/>
        <path id="Trazado_895088" data-name="Trazado 895088" d="M43.269,5.576A5.706,5.706,0,0,1,47.1,7.96c1.561,2.009,3.059,4.068,4.609,6.087a14.524,14.524,0,0,0,4.041,3.89,3.522,3.522,0,0,1,1.89,3.651.661.661,0,0,0,.1.434,11.179,11.179,0,0,1,.566,9.314c-.673,2.02.42,3.428,2.483,3.264a1.14,1.14,0,0,1,.287.055,2.057,2.057,0,0,1-2.241.034c-1.026-.43-1.157-1.248-1.165-2.178a10.581,10.581,0,0,1,.706-2.854c.965-3.535-.106-6.578-2.191-9.387a4.025,4.025,0,0,0-2.007-1.424,6.614,6.614,0,0,1-3.922-3.707c-.7-1.465-1.341-2.961-2.042-4.428a14.864,14.864,0,0,0-2.878-3.918c-.534-.548-1.369-.6-2.078-1.216M57.285,21a3.367,3.367,0,0,0-1.667-2.7,15.3,15.3,0,0,1-4.338-4.121c-.29-.38-.45-.9-1.047-1.149.215.469.378.87.577,1.253.785,1.51,1.6,3,3.24,3.777A7.882,7.882,0,0,1,57.285,21" transform="translate(-15.218 -1.961)" fill="#8e3a21"/>
        <path id="Trazado_895089" data-name="Trazado 895089" d="M20.227,25.405c.21,3.341-.7,7.1-4.054,8.92-1.771.961-2.206,4.657.405,6.252a3.55,3.55,0,0,1,1.892,2.491c.154.947-.078,1.367-1.147,1.66.683-.534,1.168-1.111.752-2.026a3.835,3.835,0,0,0-1.608-1.8c-2.443-1.449-2.976-5.451-.711-7.015C18.7,31.85,19.707,29.045,20,25.75c.01-.114-.038-.266.222-.345" transform="translate(-5.034 -8.935)" fill="#8e3a21"/>
        <path id="Trazado_895090" data-name="Trazado 895090" d="M67.411,56.092a2.6,2.6,0,0,1-3.431.635.962.962,0,0,0-.978.038,10.478,10.478,0,0,1-3.626.777c-1.468.088-3.247-1.567-3.717-2.764-.027-.067.036-.17.091-.39.987,1.18,1.9,2.4,3.532,2.388a7.036,7.036,0,0,0,4.112-.934,3.473,3.473,0,0,0,3.56.207c.116-.058.3.027.458.046v-.005" transform="translate(-19.573 -19.129)" fill="#8e3a21"/>
        <path id="Trazado_895091" data-name="Trazado 895091" d="M61.55,45.784c.252,4.611,1.409,5.9,4.775,5.312-.628.944-2.513.944-3.763,0-1.576-1.2-2.222-3.987-1.012-5.31" transform="translate(-21.426 -16.102)" fill="#8e3a21"/>
        <path id="Trazado_895092" data-name="Trazado 895092" d="M21.2,55.409a2.606,2.606,0,0,1-1.312,2.684c-.458.346-.972.735-1.721.158A4.084,4.084,0,0,0,21.2,55.409" transform="translate(-6.388 -19.487)" fill="#8e3a21"/>
        <path id="Trazado_895093" data-name="Trazado 895093" d="M56.991,58.038c-.284.427-.507.641-.8.433a1.945,1.945,0,0,1-.947-1.636c.7.357.774,1.326,1.748,1.2" transform="translate(-19.429 -19.989)" fill="#8e3a21"/>
        <path id="Trazado_895094" data-name="Trazado 895094" d="M35.954,127.272c6.048-3,12.051-1.7,18.045.679-.212.4-.521.262-.776.224a38.064,38.064,0,0,1-6.726-1.732,12.5,12.5,0,0,0-7.879.171,8.975,8.975,0,0,1-2.663.657" transform="translate(-12.645 -44.147)" fill="#8e3a21"/>
        <path id="Trazado_895095" data-name="Trazado 895095" d="M41.415,127.282a11.559,11.559,0,0,1-4.188.993,15.271,15.271,0,0,1,4.188-.993" transform="translate(-13.093 -44.765)" fill="#8e3a21"/>
        <path id="Trazado_895096" data-name="Trazado 895096" d="M32.958,299.658a4.009,4.009,0,0,1-1.179-2.443,2.253,2.253,0,0,0-.926-1.671,1.545,1.545,0,0,1-.27-2.266c.057.011.164.015.167.035a3.816,3.816,0,0,0,1.46,2.411.729.729,0,0,1,.228.514,27.3,27.3,0,0,0,.519,3.42" transform="translate(-10.627 -103.145)" fill="#8e3a21"/>
        <path id="Trazado_895097" data-name="Trazado 895097" d="M44.983,294.787c1.041,1.3.606,3.708-.816,4.183.311-1.438,1.077-2.724.816-4.183" transform="translate(-15.533 -103.676)" fill="#8e3a21"/>
        <path id="Trazado_895098" data-name="Trazado 895098" d="M59.045,288.5c-.888,1.33.015,3.273-1.547,4.428-.32-1.514.469-3.906,1.547-4.428" transform="translate(-20.197 -101.464)" fill="#8e3a21"/>
        <path id="Trazado_895099" data-name="Trazado 895099" d="M38.457,44.876c3.226-1.467,3.226-1.467,5.9-.321a2.744,2.744,0,0,1-3.165,2.295,1.761,1.761,0,0,1-1.037-.406c-.582-.477-.807-1.282-1.7-1.568" transform="translate(-13.525 -15.38)" fill="#8e3a21"/>
        <path id="Trazado_895100" data-name="Trazado 895100" d="M29.25,28.326c1.726-1.324,6.915-1.684,8.066-.668a1.359,1.359,0,0,1-1.214.41c-1.571,0-3.141,0-4.712.006a5.544,5.544,0,0,0-2.14.252" transform="translate(-10.287 -9.521)" fill="#8e3a21"/>
        <path id="Trazado_895101" data-name="Trazado 895101" d="M31.8,34.348c.246-.366.49-.664.983-.318a2.16,2.16,0,0,0,2.815-.091c.252-.2.652-.51.9-.071s-.156.711-.477.917a4.371,4.371,0,0,1-4.226-.438" transform="translate(-11.185 -11.833)" fill="#8e3a21"/>
        <path id="Trazado_895102" data-name="Trazado 895102" d="M53.233,33.69c.327.479-.088.7-.364.917a3.343,3.343,0,0,1-3.584.07c-.273-.2-.639-.471-.366-.844s.532-.027.784.159c1.179.865,1.532.862,2.794.075.229-.143.375-.467.736-.377" transform="translate(-17.171 -11.841)" fill="#8e3a21"/>
        <path id="Trazado_895103" data-name="Trazado 895103" d="M41.941,39.816c1.051,1.042,1.947.606,2.84-.262-.064.915-.325,1.144-1.135,1.194-1.167.072-1.546-.093-1.7-.932" transform="translate(-14.751 -13.911)" fill="#8e3a21"/>
      </g>
    </g>
  </g>
</svg>
