<svg xmlns="http://www.w3.org/2000/svg" xmlns:xlink="http://www.w3.org/1999/xlink" width="1320" height="507.045" viewBox="0 0 1320 507.045">
  <defs>
    <clipPath id="clip-path">
      <path id="Trazado_889256" data-name="Trazado 889256" d="M-11337-11537.045-11499-11031h-920l363-506.045Z" transform="translate(12691.333 11608)" fill="none" stroke="#707070" stroke-width="1"/>
    </clipPath>
    <clipPath id="clip-path-2">
      <rect id="Rectángulo_401741" data-name="Rectángulo 401741" width="1005.5" height="710.474" fill="#bdadea"/>
    </clipPath>
    <clipPath id="clip-path-4">
      <rect id="Rectángulo_401661" data-name="Rectángulo 401661" width="50.252" height="643.802" fill="#bdadea"/>
    </clipPath>
    <clipPath id="clip-path-5">
      <rect id="Rectángulo_401663" data-name="Rectángulo 401663" width="50.252" height="643.801" fill="#bdadea"/>
    </clipPath>
    <clipPath id="clip-path-7">
      <rect id="Rectángulo_401667" data-name="Rectángulo 401667" width="50.252" height="643.8" fill="#bdadea"/>
    </clipPath>
    <clipPath id="clip-path-13">
      <rect id="Rectángulo_401679" data-name="Rectángulo 401679" width="50.254" height="643.802" fill="#bdadea"/>
    </clipPath>
    <clipPath id="clip-path-19">
      <rect id="Rectángulo_401691" data-name="Rectángulo 401691" width="50.254" height="643.801" fill="#bdadea"/>
    </clipPath>
    <clipPath id="clip-path-26">
      <rect id="Rectángulo_401705" data-name="Rectángulo 401705" width="50.254" height="643.8" fill="#bdadea"/>
    </clipPath>
    <clipPath id="clip-path-28">
      <rect id="Rectángulo_401709" data-name="Rectángulo 401709" width="962.018" height="73.987" fill="#bdadea"/>
    </clipPath>
    <clipPath id="clip-path-30">
      <rect id="Rectángulo_401713" data-name="Rectángulo 401713" width="962.018" height="73.986" fill="#bdadea"/>
    </clipPath>
    <clipPath id="clip-path-31">
      <rect id="Rectángulo_401715" data-name="Rectángulo 401715" width="962.019" height="73.986" fill="#bdadea"/>
    </clipPath>
    <clipPath id="clip-path-34">
      <rect id="Rectángulo_401721" data-name="Rectángulo 401721" width="962.019" height="73.987" fill="#bdadea"/>
    </clipPath>
    <clipPath id="clip-path-43">
      <rect id="Rectángulo_401739" data-name="Rectángulo 401739" width="962.018" height="73.985" fill="#bdadea"/>
    </clipPath>
  </defs>
  <g id="Grupo_1113911" data-name="Grupo 1113911" transform="translate(-144.333 -69.955)">
    <path id="Banner" d="M19,0H1301a19,19,0,0,1,19,19V488a19,19,0,0,1-19,19H19A19,19,0,0,1,0,488V19A19,19,0,0,1,19,0Z" transform="translate(144.333 70)" fill="#e4def6"/>
    <g id="Enmascarar_grupo_1099815" data-name="Enmascarar grupo 1099815" opacity="0.5" clip-path="url(#clip-path)">
      <g id="Grupo_1100358" data-name="Grupo 1100358" transform="translate(308.333 3.826)">
        <g id="Grupo_1100357" data-name="Grupo 1100357" clip-path="url(#clip-path-2)">
          <g id="Grupo_1100356" data-name="Grupo 1100356">
            <g id="Grupo_1100355" data-name="Grupo 1100355" clip-path="url(#clip-path-2)">
              <g id="Grupo_1100237" data-name="Grupo 1100237" transform="translate(30.558)" opacity="0.2">
                <g id="Grupo_1100236" data-name="Grupo 1100236">
                  <g id="Grupo_1100235" data-name="Grupo 1100235" clip-path="url(#clip-path-4)">
                    <rect id="Rectángulo_401660" data-name="Rectángulo 401660" width="645.421" height="2.256" transform="translate(0.115 643.643) rotate(-85.755)" fill="#bdadea"/>
                  </g>
                </g>
              </g>
              <g id="Grupo_1100240" data-name="Grupo 1100240" transform="translate(69.425 2.9)" opacity="0.2">
                <g id="Grupo_1100239" data-name="Grupo 1100239">
                  <g id="Grupo_1100238" data-name="Grupo 1100238" clip-path="url(#clip-path-5)">
                    <rect id="Rectángulo_401662" data-name="Rectángulo 401662" width="645.421" height="2.256" transform="translate(0.115 643.642) rotate(-85.755)" fill="#bdadea"/>
                  </g>
                </g>
              </g>
              <g id="Grupo_1100243" data-name="Grupo 1100243" transform="translate(108.293 5.797)" opacity="0.2">
                <g id="Grupo_1100242" data-name="Grupo 1100242">
                  <g id="Grupo_1100241" data-name="Grupo 1100241" clip-path="url(#clip-path-5)">
                    <rect id="Rectángulo_401664" data-name="Rectángulo 401664" width="645.421" height="2.256" transform="translate(0.115 643.643) rotate(-85.755)" fill="#bdadea"/>
                  </g>
                </g>
              </g>
              <g id="Grupo_1100246" data-name="Grupo 1100246" transform="translate(147.16 8.697)" opacity="0.2">
                <g id="Grupo_1100245" data-name="Grupo 1100245">
                  <g id="Grupo_1100244" data-name="Grupo 1100244" clip-path="url(#clip-path-7)">
                    <rect id="Rectángulo_401666" data-name="Rectángulo 401666" width="645.421" height="2.256" transform="translate(0.115 643.642) rotate(-85.755)" fill="#bdadea"/>
                  </g>
                </g>
              </g>
              <g id="Grupo_1100249" data-name="Grupo 1100249" transform="translate(186.028 11.596)" opacity="0.2">
                <g id="Grupo_1100248" data-name="Grupo 1100248">
                  <g id="Grupo_1100247" data-name="Grupo 1100247" clip-path="url(#clip-path-5)">
                    <rect id="Rectángulo_401668" data-name="Rectángulo 401668" width="645.421" height="2.256" transform="translate(0.115 643.642) rotate(-85.755)" fill="#bdadea"/>
                  </g>
                </g>
              </g>
              <g id="Grupo_1100252" data-name="Grupo 1100252" transform="translate(224.895 14.495)" opacity="0.2">
                <g id="Grupo_1100251" data-name="Grupo 1100251">
                  <g id="Grupo_1100250" data-name="Grupo 1100250" clip-path="url(#clip-path-5)">
                    <rect id="Rectángulo_401670" data-name="Rectángulo 401670" width="645.421" height="2.256" transform="translate(0.115 643.643) rotate(-85.755)" fill="#bdadea"/>
                  </g>
                </g>
              </g>
              <g id="Grupo_1100255" data-name="Grupo 1100255" transform="translate(263.763 17.393)" opacity="0.2">
                <g id="Grupo_1100254" data-name="Grupo 1100254">
                  <g id="Grupo_1100253" data-name="Grupo 1100253" clip-path="url(#clip-path-5)">
                    <rect id="Rectángulo_401672" data-name="Rectángulo 401672" width="645.421" height="2.256" transform="translate(0.115 643.643) rotate(-85.755)" fill="#bdadea"/>
                  </g>
                </g>
              </g>
              <g id="Grupo_1100258" data-name="Grupo 1100258" transform="translate(302.63 20.292)" opacity="0.2">
                <g id="Grupo_1100257" data-name="Grupo 1100257">
                  <g id="Grupo_1100256" data-name="Grupo 1100256" clip-path="url(#clip-path-5)">
                    <rect id="Rectángulo_401674" data-name="Rectángulo 401674" width="645.421" height="2.256" transform="matrix(0.074, -0.997, 0.997, 0.074, 0.115, 643.642)" fill="#bdadea"/>
                  </g>
                </g>
              </g>
              <g id="Grupo_1100261" data-name="Grupo 1100261" transform="translate(341.498 23.191)" opacity="0.2">
                <g id="Grupo_1100260" data-name="Grupo 1100260">
                  <g id="Grupo_1100259" data-name="Grupo 1100259" clip-path="url(#clip-path-5)">
                    <rect id="Rectángulo_401676" data-name="Rectángulo 401676" width="645.421" height="2.256" transform="matrix(0.074, -0.997, 0.997, 0.074, 0.115, 643.643)" fill="#bdadea"/>
                  </g>
                </g>
              </g>
              <g id="Grupo_1100264" data-name="Grupo 1100264" transform="translate(380.365 26.089)" opacity="0.2">
                <g id="Grupo_1100263" data-name="Grupo 1100263">
                  <g id="Grupo_1100262" data-name="Grupo 1100262" clip-path="url(#clip-path-13)">
                    <rect id="Rectángulo_401678" data-name="Rectángulo 401678" width="645.421" height="2.256" transform="matrix(0.074, -0.997, 0.997, 0.074, 0.116, 643.643)" fill="#bdadea"/>
                  </g>
                </g>
              </g>
              <g id="Grupo_1100267" data-name="Grupo 1100267" transform="translate(419.233 28.988)" opacity="0.2">
                <g id="Grupo_1100266" data-name="Grupo 1100266">
                  <g id="Grupo_1100265" data-name="Grupo 1100265" clip-path="url(#clip-path-13)">
                    <rect id="Rectángulo_401680" data-name="Rectángulo 401680" width="645.421" height="2.256" transform="matrix(0.074, -0.997, 0.997, 0.074, 0.116, 643.643)" fill="#bdadea"/>
                  </g>
                </g>
              </g>
              <g id="Grupo_1100270" data-name="Grupo 1100270" transform="translate(458.1 31.887)" opacity="0.2">
                <g id="Grupo_1100269" data-name="Grupo 1100269">
                  <g id="Grupo_1100268" data-name="Grupo 1100268" clip-path="url(#clip-path-13)">
                    <rect id="Rectángulo_401682" data-name="Rectángulo 401682" width="645.422" height="2.256" transform="matrix(0.074, -0.997, 0.997, 0.074, 0.116, 643.644)" fill="#bdadea"/>
                  </g>
                </g>
              </g>
              <g id="Grupo_1100273" data-name="Grupo 1100273" transform="translate(496.969 34.787)" opacity="0.2">
                <g id="Grupo_1100272" data-name="Grupo 1100272">
                  <g id="Grupo_1100271" data-name="Grupo 1100271" clip-path="url(#clip-path-7)">
                    <rect id="Rectángulo_401684" data-name="Rectángulo 401684" width="645.421" height="2.256" transform="matrix(0.074, -0.997, 0.997, 0.074, 0.115, 643.642)" fill="#bdadea"/>
                  </g>
                </g>
              </g>
              <g id="Grupo_1100276" data-name="Grupo 1100276" transform="translate(535.836 37.685)" opacity="0.2">
                <g id="Grupo_1100275" data-name="Grupo 1100275">
                  <g id="Grupo_1100274" data-name="Grupo 1100274" clip-path="url(#clip-path-5)">
                    <rect id="Rectángulo_401686" data-name="Rectángulo 401686" width="645.421" height="2.256" transform="matrix(0.074, -0.997, 0.997, 0.074, 0.115, 643.642)" fill="#bdadea"/>
                  </g>
                </g>
              </g>
              <g id="Grupo_1100279" data-name="Grupo 1100279" transform="translate(574.703 40.584)" opacity="0.2">
                <g id="Grupo_1100278" data-name="Grupo 1100278">
                  <g id="Grupo_1100277" data-name="Grupo 1100277" clip-path="url(#clip-path-5)">
                    <rect id="Rectángulo_401688" data-name="Rectángulo 401688" width="645.421" height="2.256" transform="matrix(0.074, -0.997, 0.997, 0.074, 0.115, 643.643)" fill="#bdadea"/>
                  </g>
                </g>
              </g>
              <g id="Grupo_1100282" data-name="Grupo 1100282" transform="translate(613.571 43.483)" opacity="0.2">
                <g id="Grupo_1100281" data-name="Grupo 1100281">
                  <g id="Grupo_1100280" data-name="Grupo 1100280" clip-path="url(#clip-path-19)">
                    <rect id="Rectángulo_401690" data-name="Rectángulo 401690" width="645.421" height="2.256" transform="matrix(0.074, -0.997, 0.997, 0.074, 0.116, 643.643)" fill="#bdadea"/>
                  </g>
                </g>
              </g>
              <g id="Grupo_1100285" data-name="Grupo 1100285" transform="translate(652.438 46.382)" opacity="0.2">
                <g id="Grupo_1100284" data-name="Grupo 1100284">
                  <g id="Grupo_1100283" data-name="Grupo 1100283" clip-path="url(#clip-path-13)">
                    <rect id="Rectángulo_401692" data-name="Rectángulo 401692" width="645.422" height="2.256" transform="matrix(0.074, -0.997, 0.997, 0.074, 0.116, 643.643)" fill="#bdadea"/>
                  </g>
                </g>
              </g>
              <g id="Grupo_1100288" data-name="Grupo 1100288" transform="translate(691.306 49.28)" opacity="0.2">
                <g id="Grupo_1100287" data-name="Grupo 1100287">
                  <g id="Grupo_1100286" data-name="Grupo 1100286" clip-path="url(#clip-path-19)">
                    <rect id="Rectángulo_401694" data-name="Rectángulo 401694" width="645.421" height="2.256" transform="translate(0.115 643.643) rotate(-85.755)" fill="#bdadea"/>
                  </g>
                </g>
              </g>
              <g id="Grupo_1100291" data-name="Grupo 1100291" transform="translate(730.174 52.18)" opacity="0.2">
                <g id="Grupo_1100290" data-name="Grupo 1100290">
                  <g id="Grupo_1100289" data-name="Grupo 1100289" clip-path="url(#clip-path-7)">
                    <rect id="Rectángulo_401696" data-name="Rectángulo 401696" width="645.421" height="2.256" transform="translate(0.115 643.642) rotate(-85.755)" fill="#bdadea"/>
                  </g>
                </g>
              </g>
              <g id="Grupo_1100294" data-name="Grupo 1100294" transform="translate(769.042 55.078)" opacity="0.2">
                <g id="Grupo_1100293" data-name="Grupo 1100293">
                  <g id="Grupo_1100292" data-name="Grupo 1100292" clip-path="url(#clip-path-4)">
                    <rect id="Rectángulo_401698" data-name="Rectángulo 401698" width="645.421" height="2.256" transform="translate(0.115 643.643) rotate(-85.755)" fill="#bdadea"/>
                  </g>
                </g>
              </g>
              <g id="Grupo_1100297" data-name="Grupo 1100297" transform="translate(807.909 57.977)" opacity="0.2">
                <g id="Grupo_1100296" data-name="Grupo 1100296">
                  <g id="Grupo_1100295" data-name="Grupo 1100295" clip-path="url(#clip-path-19)">
                    <rect id="Rectángulo_401700" data-name="Rectángulo 401700" width="645.421" height="2.256" transform="translate(0.115 643.642) rotate(-85.755)" fill="#bdadea"/>
                  </g>
                </g>
              </g>
              <g id="Grupo_1100300" data-name="Grupo 1100300" transform="translate(846.777 60.875)" opacity="0.2">
                <g id="Grupo_1100299" data-name="Grupo 1100299">
                  <g id="Grupo_1100298" data-name="Grupo 1100298" clip-path="url(#clip-path-13)">
                    <rect id="Rectángulo_401702" data-name="Rectángulo 401702" width="645.422" height="2.256" transform="translate(0.115 643.644) rotate(-85.755)" fill="#bdadea"/>
                  </g>
                </g>
              </g>
              <g id="Grupo_1100303" data-name="Grupo 1100303" transform="translate(885.644 63.775)" opacity="0.2">
                <g id="Grupo_1100302" data-name="Grupo 1100302">
                  <g id="Grupo_1100301" data-name="Grupo 1100301" clip-path="url(#clip-path-26)">
                    <rect id="Rectángulo_401704" data-name="Rectángulo 401704" width="645.421" height="2.256" transform="translate(0.115 643.642) rotate(-85.755)" fill="#bdadea"/>
                  </g>
                </g>
              </g>
              <g id="Grupo_1100306" data-name="Grupo 1100306" transform="translate(924.511 66.674)" opacity="0.2">
                <g id="Grupo_1100305" data-name="Grupo 1100305">
                  <g id="Grupo_1100304" data-name="Grupo 1100304" clip-path="url(#clip-path-5)">
                    <rect id="Rectángulo_401706" data-name="Rectángulo 401706" width="645.421" height="2.256" transform="translate(0.115 643.642) rotate(-85.755)" fill="#bdadea"/>
                  </g>
                </g>
              </g>
              <g id="Grupo_1100309" data-name="Grupo 1100309" transform="translate(43.483 25.538)" opacity="0.2">
                <g id="Grupo_1100308" data-name="Grupo 1100308">
                  <g id="Grupo_1100307" data-name="Grupo 1100307" clip-path="url(#clip-path-28)">
                    <rect id="Rectángulo_401708" data-name="Rectángulo 401708" width="2.255" height="964.522" transform="translate(0 2.249) rotate(-85.735)" fill="#bdadea"/>
                  </g>
                </g>
              </g>
              <g id="Grupo_1100312" data-name="Grupo 1100312" transform="translate(40.583 64.405)" opacity="0.2">
                <g id="Grupo_1100311" data-name="Grupo 1100311">
                  <g id="Grupo_1100310" data-name="Grupo 1100310" clip-path="url(#clip-path-28)">
                    <rect id="Rectángulo_401710" data-name="Rectángulo 401710" width="2.255" height="964.522" transform="translate(0 2.249) rotate(-85.735)" fill="#bdadea"/>
                  </g>
                </g>
              </g>
              <g id="Grupo_1100315" data-name="Grupo 1100315" transform="translate(37.684 103.274)" opacity="0.2">
                <g id="Grupo_1100314" data-name="Grupo 1100314">
                  <g id="Grupo_1100313" data-name="Grupo 1100313" clip-path="url(#clip-path-30)">
                    <rect id="Rectángulo_401712" data-name="Rectángulo 401712" width="2.255" height="964.522" transform="translate(0 2.249) rotate(-85.735)" fill="#bdadea"/>
                  </g>
                </g>
              </g>
              <g id="Grupo_1100318" data-name="Grupo 1100318" transform="translate(34.786 142.141)" opacity="0.2">
                <g id="Grupo_1100317" data-name="Grupo 1100317">
                  <g id="Grupo_1100316" data-name="Grupo 1100316" clip-path="url(#clip-path-31)">
                    <rect id="Rectángulo_401714" data-name="Rectángulo 401714" width="2.255" height="964.522" transform="translate(0 2.249) rotate(-85.735)" fill="#bdadea"/>
                  </g>
                </g>
              </g>
              <g id="Grupo_1100321" data-name="Grupo 1100321" transform="translate(31.887 181.009)" opacity="0.2">
                <g id="Grupo_1100320" data-name="Grupo 1100320">
                  <g id="Grupo_1100319" data-name="Grupo 1100319" clip-path="url(#clip-path-30)">
                    <rect id="Rectángulo_401716" data-name="Rectángulo 401716" width="2.255" height="964.522" transform="translate(0 2.249) rotate(-85.735)" fill="#bdadea"/>
                  </g>
                </g>
              </g>
              <g id="Grupo_1100324" data-name="Grupo 1100324" transform="translate(28.988 219.876)" opacity="0.2">
                <g id="Grupo_1100323" data-name="Grupo 1100323">
                  <g id="Grupo_1100322" data-name="Grupo 1100322" clip-path="url(#clip-path-28)">
                    <rect id="Rectángulo_401718" data-name="Rectángulo 401718" width="2.255" height="964.522" transform="translate(0 2.249) rotate(-85.735)" fill="#bdadea"/>
                  </g>
                </g>
              </g>
              <g id="Grupo_1100327" data-name="Grupo 1100327" transform="translate(26.089 258.744)" opacity="0.2">
                <g id="Grupo_1100326" data-name="Grupo 1100326">
                  <g id="Grupo_1100325" data-name="Grupo 1100325" clip-path="url(#clip-path-34)">
                    <rect id="Rectángulo_401720" data-name="Rectángulo 401720" width="2.255" height="964.522" transform="translate(0 2.249) rotate(-85.735)" fill="#bdadea"/>
                  </g>
                </g>
              </g>
              <g id="Grupo_1100330" data-name="Grupo 1100330" transform="translate(23.19 297.611)" opacity="0.2">
                <g id="Grupo_1100329" data-name="Grupo 1100329">
                  <g id="Grupo_1100328" data-name="Grupo 1100328" clip-path="url(#clip-path-28)">
                    <rect id="Rectángulo_401722" data-name="Rectángulo 401722" width="2.255" height="964.522" transform="translate(0 2.249) rotate(-85.735)" fill="#bdadea"/>
                  </g>
                </g>
              </g>
              <g id="Grupo_1100333" data-name="Grupo 1100333" transform="translate(20.292 336.478)" opacity="0.2">
                <g id="Grupo_1100332" data-name="Grupo 1100332">
                  <g id="Grupo_1100331" data-name="Grupo 1100331" clip-path="url(#clip-path-28)">
                    <rect id="Rectángulo_401724" data-name="Rectángulo 401724" width="2.255" height="964.522" transform="translate(0 2.249) rotate(-85.735)" fill="#bdadea"/>
                  </g>
                </g>
              </g>
              <g id="Grupo_1100336" data-name="Grupo 1100336" transform="translate(17.393 375.347)" opacity="0.2">
                <g id="Grupo_1100335" data-name="Grupo 1100335">
                  <g id="Grupo_1100334" data-name="Grupo 1100334" clip-path="url(#clip-path-31)">
                    <rect id="Rectángulo_401726" data-name="Rectángulo 401726" width="2.255" height="964.522" transform="translate(0 2.249) rotate(-85.735)" fill="#bdadea"/>
                  </g>
                </g>
              </g>
              <g id="Grupo_1100339" data-name="Grupo 1100339" transform="translate(14.494 414.214)" opacity="0.2">
                <g id="Grupo_1100338" data-name="Grupo 1100338">
                  <g id="Grupo_1100337" data-name="Grupo 1100337" clip-path="url(#clip-path-30)">
                    <rect id="Rectángulo_401728" data-name="Rectángulo 401728" width="2.255" height="964.522" transform="translate(0 2.249) rotate(-85.735)" fill="#bdadea"/>
                  </g>
                </g>
              </g>
              <g id="Grupo_1100342" data-name="Grupo 1100342" transform="translate(11.595 453.082)" opacity="0.2">
                <g id="Grupo_1100341" data-name="Grupo 1100341">
                  <g id="Grupo_1100340" data-name="Grupo 1100340" clip-path="url(#clip-path-28)">
                    <rect id="Rectángulo_401730" data-name="Rectángulo 401730" width="2.255" height="964.522" transform="translate(0 2.249) rotate(-85.735)" fill="#bdadea"/>
                  </g>
                </g>
              </g>
              <g id="Grupo_1100345" data-name="Grupo 1100345" transform="translate(8.697 491.949)" opacity="0.2">
                <g id="Grupo_1100344" data-name="Grupo 1100344">
                  <g id="Grupo_1100343" data-name="Grupo 1100343" clip-path="url(#clip-path-34)">
                    <rect id="Rectángulo_401732" data-name="Rectángulo 401732" width="2.255" height="964.523" transform="matrix(0.074, -0.997, 0.997, 0.074, 0, 2.249)" fill="#bdadea"/>
                  </g>
                </g>
              </g>
              <g id="Grupo_1100348" data-name="Grupo 1100348" transform="translate(5.798 530.817)" opacity="0.2">
                <g id="Grupo_1100347" data-name="Grupo 1100347">
                  <g id="Grupo_1100346" data-name="Grupo 1100346" clip-path="url(#clip-path-30)">
                    <rect id="Rectángulo_401734" data-name="Rectángulo 401734" width="2.255" height="964.523" transform="translate(0 2.249) rotate(-85.735)" fill="#bdadea"/>
                  </g>
                </g>
              </g>
              <g id="Grupo_1100351" data-name="Grupo 1100351" transform="translate(2.899 569.684)" opacity="0.2">
                <g id="Grupo_1100350" data-name="Grupo 1100350">
                  <g id="Grupo_1100349" data-name="Grupo 1100349" clip-path="url(#clip-path-30)">
                    <rect id="Rectángulo_401736" data-name="Rectángulo 401736" width="2.255" height="964.522" transform="translate(0 2.248) rotate(-85.735)" fill="#bdadea"/>
                  </g>
                </g>
              </g>
              <g id="Grupo_1100354" data-name="Grupo 1100354" transform="translate(0 608.552)" opacity="0.2">
                <g id="Grupo_1100353" data-name="Grupo 1100353">
                  <g id="Grupo_1100352" data-name="Grupo 1100352" clip-path="url(#clip-path-43)">
                    <rect id="Rectángulo_401738" data-name="Rectángulo 401738" width="2.255" height="964.522" transform="translate(0 2.249) rotate(-85.735)" fill="#bdadea"/>
                  </g>
                </g>
              </g>
            </g>
          </g>
        </g>
      </g>
    </g>
    <path id="Trazado_887098" data-name="Trazado 887098" d="M642.893,323.28c-38.164,38.818-58.659,91.5-91.833,134.664-8.968,11.66-18.942,22.765-25.366,36-4.351,8.961-7,18.766-12.321,27.186-.2.323-.415.654-.633.97H90.074q11.966-14.317,25.288-27.4a365.161,365.161,0,0,1,68.8-52.868c13.34-7.914,27.235-15.006,39.619-24.346a133.78,133.78,0,0,0,38.024-44.968c9.98-19.216,15.118-40.5,21.184-61.281,27.284-93.386,77.355-182.921,155.37-241.046,9.193-6.853,19.089-13.389,30.349-15.533s24.248,1.082,30.749,10.522c5.236,7.591,5.4,17.522,4.554,26.708A155.323,155.323,0,0,1,484.346,154.3c-9.081,15.919-21.423,31.67-20.839,49.986.766,23.967,22.758,40.758,36.78,60.212,18.632,25.843,23.812,60.873,13.445,91-2.643,7.7-6.269,15.209-7.021,23.313s2.214,17.3,9.516,20.9c9.116,4.5,19.954-1.532,27.193-8.673C569.734,365.085,576,325.016,597,294.6c16.039-23.236,39.872-39.732,63.164-55.693,2.882-1.982,5.9-4.013,9.355-4.533,9.826-1.476,17.079,9.72,17.754,19.63,1.933,28.317-24.48,49.037-44.384,69.279" transform="translate(690.268 54.9)" fill="#ffe260"/>
    <path id="Trazado_887099" data-name="Trazado 887099" d="M935.841,0V134.552a52.894,52.894,0,0,1-9.98,5.475c-12.525,5.159-26.574,5.053-39.612,8.722-14.015,3.936-26.406,12.082-38.544,20.115q-25.239,16.689-50.464,33.378c-18.091,11.962-39.338,24.466-60.156,18.4a8.09,8.09,0,0,1-4.231-2.369c-1.708-2.151-1.117-5.264-.408-7.921,6.361-23.861,15.35-47.308,17.072-71.943,2.151-30.82-7.183-62.215-.611-92.4,3.669-16.847,12.068-31.93,21.76-46.008Z" transform="translate(528.492 69.955)" fill="#ffe260"/>
    <path id="Trazado_887101" data-name="Trazado 887101" d="M993.934,352.98V576.525c-11.8-8.315-21.732-20.382-29.836-32.5A316.668,316.668,0,0,1,935.57,491.1c-5.566-13.2-10.3-27.594-7.506-41.643,2.383-12.012,9.973-22.238,17.36-32.007,16.208-21.451,32.253-43.042,48.51-64.465" transform="translate(470.399 -33.937)" fill="#72688d"/>
    <path id="Trazado_887097" data-name="Trazado 887097" d="M518.77,43.949c-23.182,44.463-54.4,84.934-71.8,131.966-12.453,33.657-17.8,70.538-37.543,100.513-21.042,31.946-55.578,51.8-86.1,74.853A428.453,428.453,0,0,0,196.056,506.858H0V0H145.792c-11.08,23.154-3.1,53.255-14.171,77.078-7.089,15.262-21.823,27.666-22.64,44.477-.718,14.9,10.721,28.462,24.6,33.917s29.546,4.175,44.026.584C236.175,141.526,280.25,92.938,336.188,70.3c16.283-6.6,33.488-10.94,49.257-18.683C413.287,37.951,435.293,14.4,462.7,0h56.423a25.181,25.181,0,0,1,6.8,11.045c3.2,11.059-1.823,22.7-7.152,32.9" transform="translate(145.331 70.142)" fill="#f2eefb"/>
    <g id="Grupo_1100234" data-name="Grupo 1100234" transform="translate(12644.646 12309.22)">
      <path id="Trazado_889220" data-name="Trazado 889220" d="M3.666,1.833A1.833,1.833,0,1,1,1.833,0,1.834,1.834,0,0,1,3.666,1.833" transform="translate(-11267 -11845)" fill="#fefefe"/>
      <path id="Trazado_889221" data-name="Trazado 889221" d="M10.1,1.833A1.833,1.833,0,1,1,8.262,0,1.834,1.834,0,0,1,10.1,1.833" transform="translate(-11259.196 -11845)" fill="#fefefe"/>
      <path id="Trazado_889222" data-name="Trazado 889222" d="M16.523,1.833A1.833,1.833,0,1,1,14.69,0a1.834,1.834,0,0,1,1.833,1.833" transform="translate(-11251.395 -11845)" fill="#fefefe"/>
      <path id="Trazado_889223" data-name="Trazado 889223" d="M22.952,1.833A1.833,1.833,0,1,1,21.119,0a1.834,1.834,0,0,1,1.833,1.833" transform="translate(-11243.591 -11845)" fill="#fefefe"/>
      <path id="Trazado_889224" data-name="Trazado 889224" d="M29.381,1.833A1.833,1.833,0,1,1,27.548,0a1.834,1.834,0,0,1,1.833,1.833" transform="translate(-11235.787 -11845)" fill="#fefefe"/>
      <path id="Trazado_889225" data-name="Trazado 889225" d="M3.666,8.408A1.833,1.833,0,1,1,1.833,6.575,1.834,1.834,0,0,1,3.666,8.408" transform="translate(-11267 -11837.02)" fill="#fefefe"/>
      <path id="Trazado_889226" data-name="Trazado 889226" d="M10.1,8.408A1.833,1.833,0,1,1,8.262,6.575,1.834,1.834,0,0,1,10.1,8.408" transform="translate(-11259.196 -11837.02)" fill="#fefefe"/>
      <path id="Trazado_889227" data-name="Trazado 889227" d="M16.523,8.408A1.833,1.833,0,1,1,14.69,6.575a1.834,1.834,0,0,1,1.833,1.833" transform="translate(-11251.395 -11837.02)" fill="#fefefe"/>
      <path id="Trazado_889228" data-name="Trazado 889228" d="M22.952,8.408a1.833,1.833,0,1,1-1.833-1.833,1.834,1.834,0,0,1,1.833,1.833" transform="translate(-11243.591 -11837.02)" fill="#fefefe"/>
      <path id="Trazado_889229" data-name="Trazado 889229" d="M29.381,8.408a1.833,1.833,0,1,1-1.833-1.833,1.834,1.834,0,0,1,1.833,1.833" transform="translate(-11235.787 -11837.02)" fill="#fefefe"/>
      <path id="Trazado_889230" data-name="Trazado 889230" d="M3.666,14.982a1.833,1.833,0,1,1-1.833-1.833,1.836,1.836,0,0,1,1.833,1.833" transform="translate(-11267 -11829.04)" fill="#fefefe"/>
      <path id="Trazado_889231" data-name="Trazado 889231" d="M10.1,14.982a1.833,1.833,0,1,1-1.833-1.833A1.836,1.836,0,0,1,10.1,14.982" transform="translate(-11259.196 -11829.04)" fill="#fefefe"/>
      <path id="Trazado_889232" data-name="Trazado 889232" d="M16.523,14.982a1.833,1.833,0,1,1-1.833-1.833,1.836,1.836,0,0,1,1.833,1.833" transform="translate(-11251.395 -11829.04)" fill="#fefefe"/>
      <path id="Trazado_889233" data-name="Trazado 889233" d="M22.952,14.982a1.833,1.833,0,1,1-1.833-1.833,1.836,1.836,0,0,1,1.833,1.833" transform="translate(-11243.591 -11829.04)" fill="#fefefe"/>
      <path id="Trazado_889234" data-name="Trazado 889234" d="M29.381,14.982a1.833,1.833,0,1,1-1.833-1.833,1.836,1.836,0,0,1,1.833,1.833" transform="translate(-11235.787 -11829.04)" fill="#fefefe"/>
      <path id="Trazado_889235" data-name="Trazado 889235" d="M3.666,21.557a1.833,1.833,0,1,1-1.833-1.833,1.834,1.834,0,0,1,1.833,1.833" transform="translate(-11267 -11821.06)" fill="#fefefe"/>
      <path id="Trazado_889236" data-name="Trazado 889236" d="M10.1,21.557a1.833,1.833,0,1,1-1.833-1.833A1.834,1.834,0,0,1,10.1,21.557" transform="translate(-11259.196 -11821.06)" fill="#fefefe"/>
      <path id="Trazado_889237" data-name="Trazado 889237" d="M16.523,21.557a1.833,1.833,0,1,1-1.833-1.833,1.834,1.834,0,0,1,1.833,1.833" transform="translate(-11251.395 -11821.06)" fill="#fefefe"/>
      <path id="Trazado_889238" data-name="Trazado 889238" d="M22.952,21.557a1.833,1.833,0,1,1-1.833-1.833,1.834,1.834,0,0,1,1.833,1.833" transform="translate(-11243.591 -11821.06)" fill="#fefefe"/>
      <path id="Trazado_889239" data-name="Trazado 889239" d="M29.381,21.557a1.833,1.833,0,1,1-1.833-1.833,1.834,1.834,0,0,1,1.833,1.833" transform="translate(-11235.787 -11821.06)" fill="#fefefe"/>
      <path id="Trazado_889240" data-name="Trazado 889240" d="M3.666,28.132A1.833,1.833,0,1,1,1.833,26.3a1.834,1.834,0,0,1,1.833,1.833" transform="translate(-11267 -11813.078)" fill="#fefefe"/>
      <path id="Trazado_889241" data-name="Trazado 889241" d="M10.1,28.132A1.833,1.833,0,1,1,8.262,26.3,1.834,1.834,0,0,1,10.1,28.132" transform="translate(-11259.196 -11813.078)" fill="#fefefe"/>
      <path id="Trazado_889242" data-name="Trazado 889242" d="M16.523,28.132A1.833,1.833,0,1,1,14.69,26.3a1.834,1.834,0,0,1,1.833,1.833" transform="translate(-11251.395 -11813.078)" fill="#fefefe"/>
      <path id="Trazado_889243" data-name="Trazado 889243" d="M22.952,28.132A1.833,1.833,0,1,1,21.119,26.3a1.834,1.834,0,0,1,1.833,1.833" transform="translate(-11243.591 -11813.078)" fill="#fefefe"/>
      <path id="Trazado_889244" data-name="Trazado 889244" d="M29.381,28.132A1.833,1.833,0,1,1,27.548,26.3a1.834,1.834,0,0,1,1.833,1.833" transform="translate(-11235.787 -11813.078)" fill="#fefefe"/>
      <path id="Trazado_889245" data-name="Trazado 889245" d="M3.666,34.707a1.833,1.833,0,1,1-1.833-1.833,1.834,1.834,0,0,1,1.833,1.833" transform="translate(-11267 -11805.098)" fill="#fefefe"/>
      <path id="Trazado_889246" data-name="Trazado 889246" d="M10.1,34.707a1.833,1.833,0,1,1-1.833-1.833A1.834,1.834,0,0,1,10.1,34.707" transform="translate(-11259.196 -11805.098)" fill="#fefefe"/>
      <path id="Trazado_889247" data-name="Trazado 889247" d="M16.523,34.707a1.833,1.833,0,1,1-1.833-1.833,1.834,1.834,0,0,1,1.833,1.833" transform="translate(-11251.395 -11805.098)" fill="#fefefe"/>
      <path id="Trazado_889248" data-name="Trazado 889248" d="M22.952,34.707a1.833,1.833,0,1,1-1.833-1.833,1.834,1.834,0,0,1,1.833,1.833" transform="translate(-11243.591 -11805.098)" fill="#fefefe"/>
      <path id="Trazado_889249" data-name="Trazado 889249" d="M29.381,34.707a1.833,1.833,0,1,1-1.833-1.833,1.834,1.834,0,0,1,1.833,1.833" transform="translate(-11235.787 -11805.098)" fill="#fefefe"/>
      <path id="Trazado_889250" data-name="Trazado 889250" d="M3.666,41.282a1.833,1.833,0,1,1-1.833-1.833,1.834,1.834,0,0,1,1.833,1.833" transform="translate(-11267 -11797.116)" fill="#fefefe"/>
      <path id="Trazado_889251" data-name="Trazado 889251" d="M10.1,41.282a1.833,1.833,0,1,1-1.833-1.833A1.834,1.834,0,0,1,10.1,41.282" transform="translate(-11259.196 -11797.116)" fill="#fefefe"/>
      <path id="Trazado_889252" data-name="Trazado 889252" d="M16.523,41.282a1.833,1.833,0,1,1-1.833-1.833,1.834,1.834,0,0,1,1.833,1.833" transform="translate(-11251.395 -11797.116)" fill="#fefefe"/>
      <path id="Trazado_889253" data-name="Trazado 889253" d="M22.952,41.282a1.833,1.833,0,1,1-1.833-1.833,1.834,1.834,0,0,1,1.833,1.833" transform="translate(-11243.591 -11797.116)" fill="#fefefe"/>
      <path id="Trazado_889254" data-name="Trazado 889254" d="M29.381,41.282a1.833,1.833,0,1,1-1.833-1.833,1.834,1.834,0,0,1,1.833,1.833" transform="translate(-11235.787 -11797.116)" fill="#fefefe"/>
    </g>
  </g>
</svg>
