<svg xmlns="http://www.w3.org/2000/svg" xmlns:xlink="http://www.w3.org/1999/xlink" width="1328" height="985.302" viewBox="0 0 1328 985.302">
  <defs>
    <clipPath id="clip-path">
      <path id="Trazado_891379" data-name="Trazado 891379" d="M-11195.335-11537.045l-289,970.13-934.666,12.467,400.481-982.6Z" transform="translate(12419.001 11537.045)" fill="none" stroke="#707070" stroke-width="1"/>
    </clipPath>
    <clipPath id="clip-path-2">
      <rect id="Rectángulo_401824" data-name="Rectángulo 401824" width="1109.321" height="1379.544" fill="#ffe260"/>
    </clipPath>
    <clipPath id="clip-path-4">
      <rect id="Rectángulo_401744" data-name="Rectángulo 401744" width="55.441" height="1250.084" fill="#ffe260"/>
    </clipPath>
    <clipPath id="clip-path-5">
      <rect id="Rectángulo_401746" data-name="Rectángulo 401746" width="55.44" height="1250.083" fill="#ffe260"/>
    </clipPath>
    <clipPath id="clip-path-7">
      <rect id="Rectángulo_401750" data-name="Rectángulo 401750" width="55.441" height="1250.082" fill="#ffe260"/>
    </clipPath>
    <clipPath id="clip-path-8">
      <rect id="Rectángulo_401752" data-name="Rectángulo 401752" width="55.441" height="1250.083" fill="#ffe260"/>
    </clipPath>
    <clipPath id="clip-path-13">
      <rect id="Rectángulo_401762" data-name="Rectángulo 401762" width="55.442" height="1250.084" fill="#ffe260"/>
    </clipPath>
    <clipPath id="clip-path-14">
      <rect id="Rectángulo_401764" data-name="Rectángulo 401764" width="55.442" height="1250.085" fill="#ffe260"/>
    </clipPath>
    <clipPath id="clip-path-21">
      <rect id="Rectángulo_401778" data-name="Rectángulo 401778" width="55.442" height="1250.083" fill="#ffe260"/>
    </clipPath>
    <clipPath id="clip-path-22">
      <rect id="Rectángulo_401780" data-name="Rectángulo 401780" width="55.441" height="1250.081" fill="#ffe260"/>
    </clipPath>
    <clipPath id="clip-path-25">
      <rect id="Rectángulo_401786" data-name="Rectángulo 401786" width="55.442" height="1250.086" fill="#ffe260"/>
    </clipPath>
    <clipPath id="clip-path-26">
      <rect id="Rectángulo_401788" data-name="Rectángulo 401788" width="55.442" height="1250.082" fill="#ffe260"/>
    </clipPath>
    <clipPath id="clip-path-28">
      <rect id="Rectángulo_401792" data-name="Rectángulo 401792" width="1061.349" height="143.662" fill="#ffe260"/>
    </clipPath>
    <clipPath id="clip-path-29">
      <rect id="Rectángulo_401794" data-name="Rectángulo 401794" width="1061.35" height="143.662" fill="#ffe260"/>
    </clipPath>
    <clipPath id="clip-path-30">
      <rect id="Rectángulo_401796" data-name="Rectángulo 401796" width="1061.35" height="143.66" fill="#ffe260"/>
    </clipPath>
    <clipPath id="clip-path-38">
      <rect id="Rectángulo_401812" data-name="Rectángulo 401812" width="1061.349" height="143.66" fill="#ffe260"/>
    </clipPath>
    <clipPath id="clip-path-40">
      <rect id="Rectángulo_401816" data-name="Rectángulo 401816" width="1061.351" height="143.662" fill="#ffe260"/>
    </clipPath>
    <clipPath id="clip-path-41">
      <rect id="Rectángulo_401818" data-name="Rectángulo 401818" width="1061.35" height="143.661" fill="#ffe260"/>
    </clipPath>
    <clipPath id="clip-path-43">
      <rect id="Rectángulo_401822" data-name="Rectángulo 401822" width="1061.35" height="143.659" fill="#ffe260"/>
    </clipPath>
  </defs>
  <g id="Grupo_1113915" data-name="Grupo 1113915" transform="translate(-136.051 -3924.999)">
    <g id="Grupo_1113513" data-name="Grupo 1113513" transform="translate(0.051 -7343.086)" opacity="0.1">
      <rect id="Rectángulo_401825" data-name="Rectángulo 401825" width="1328" height="985.302" transform="translate(136 11268.085)" fill="#fffea7"/>
      <g id="Grupo_1100502" data-name="Grupo 1100502" transform="translate(136 11269.686)">
        <rect id="Rectángulo_401657" data-name="Rectángulo 401657" width="225.169" height="245.17" transform="translate(761.142 50.369)" fill="none"/>
        <g id="Enmascarar_grupo_1099818" data-name="Enmascarar grupo 1099818" transform="translate(98.115 1.104)" opacity="0.5" clip-path="url(#clip-path)">
          <g id="Grupo_1100487" data-name="Grupo 1100487" transform="translate(39.717 -130.346)">
            <g id="Grupo_1100486" data-name="Grupo 1100486" clip-path="url(#clip-path-2)" style="isolation: isolate">
              <g id="Grupo_1100485" data-name="Grupo 1100485">
                <g id="Grupo_1100484" data-name="Grupo 1100484" clip-path="url(#clip-path-2)">
                  <g id="Grupo_1100366" data-name="Grupo 1100366" transform="translate(33.713)" opacity="0.2">
                    <g id="Grupo_1100365" data-name="Grupo 1100365">
                      <g id="Grupo_1100364" data-name="Grupo 1100364" clip-path="url(#clip-path-4)">
                        <path id="Trazado_893707" data-name="Trazado 893707" d="M.1,38.846,1250.367-1.1l-.14,2.5L-.037,41.345Z" transform="translate(-38.621 1247.004) rotate(-85.755)" fill="#ffe260"/>
                      </g>
                    </g>
                  </g>
                  <g id="Grupo_1100369" data-name="Grupo 1100369" transform="translate(76.594 5.631)" opacity="0.2">
                    <g id="Grupo_1100368" data-name="Grupo 1100368">
                      <g id="Grupo_1100367" data-name="Grupo 1100367" clip-path="url(#clip-path-5)">
                        <path id="Trazado_893708" data-name="Trazado 893708" d="M.1,38.846,1250.367-1.1l-.14,2.5L-.037,41.345Z" transform="translate(-38.621 1247.002) rotate(-85.755)" fill="#ffe260"/>
                      </g>
                    </g>
                  </g>
                  <g id="Grupo_1100372" data-name="Grupo 1100372" transform="translate(119.474 11.257)" opacity="0.2">
                    <g id="Grupo_1100371" data-name="Grupo 1100371">
                      <g id="Grupo_1100370" data-name="Grupo 1100370" clip-path="url(#clip-path-5)">
                        <path id="Trazado_893709" data-name="Trazado 893709" d="M.1,38.846,1250.366-1.1l-.14,2.5L-.037,41.345Z" transform="translate(-38.621 1247.003) rotate(-85.755)" fill="#ffe260"/>
                      </g>
                    </g>
                  </g>
                  <g id="Grupo_1100375" data-name="Grupo 1100375" transform="translate(162.355 16.888)" opacity="0.2">
                    <g id="Grupo_1100374" data-name="Grupo 1100374">
                      <g id="Grupo_1100373" data-name="Grupo 1100373" clip-path="url(#clip-path-7)">
                        <path id="Trazado_893710" data-name="Trazado 893710" d="M.1,38.846,1250.366-1.1l-.14,2.5L-.037,41.345Z" transform="translate(-38.621 1247.002) rotate(-85.755)" fill="#ffe260"/>
                      </g>
                    </g>
                  </g>
                  <g id="Grupo_1100378" data-name="Grupo 1100378" transform="translate(205.236 22.516)" opacity="0.2">
                    <g id="Grupo_1100377" data-name="Grupo 1100377">
                      <g id="Grupo_1100376" data-name="Grupo 1100376" clip-path="url(#clip-path-8)">
                        <path id="Trazado_893711" data-name="Trazado 893711" d="M.1,38.846,1250.368-1.1l-.14,2.5L-.037,41.345Z" transform="translate(-38.621 1247.002) rotate(-85.755)" fill="#ffe260"/>
                      </g>
                    </g>
                  </g>
                  <g id="Grupo_1100381" data-name="Grupo 1100381" transform="translate(248.117 28.145)" opacity="0.2">
                    <g id="Grupo_1100380" data-name="Grupo 1100380">
                      <g id="Grupo_1100379" data-name="Grupo 1100379" clip-path="url(#clip-path-8)">
                        <path id="Trazado_893712" data-name="Trazado 893712" d="M.1,38.846,1250.368-1.1l-.14,2.5L-.037,41.345Z" transform="translate(-38.621 1247.003) rotate(-85.755)" fill="#ffe260"/>
                      </g>
                    </g>
                  </g>
                  <g id="Grupo_1100384" data-name="Grupo 1100384" transform="translate(290.997 33.773)" opacity="0.2">
                    <g id="Grupo_1100383" data-name="Grupo 1100383">
                      <g id="Grupo_1100382" data-name="Grupo 1100382" clip-path="url(#clip-path-4)">
                        <path id="Trazado_893713" data-name="Trazado 893713" d="M.1,38.846,1250.368-1.1l-.14,2.5L-.037,41.345Z" transform="translate(-38.621 1247.003) rotate(-85.755)" fill="#ffe260"/>
                      </g>
                    </g>
                  </g>
                  <g id="Grupo_1100387" data-name="Grupo 1100387" transform="translate(333.878 39.401)" opacity="0.2">
                    <g id="Grupo_1100386" data-name="Grupo 1100386">
                      <g id="Grupo_1100385" data-name="Grupo 1100385" clip-path="url(#clip-path-7)">
                        <path id="Trazado_893714" data-name="Trazado 893714" d="M.1,38.846,1250.366-1.1l-.14,2.5L-.037,41.345Z" transform="matrix(0.074, -0.997, 0.997, 0.074, -38.62, 1247.002)" fill="#ffe260"/>
                      </g>
                    </g>
                  </g>
                  <g id="Grupo_1100390" data-name="Grupo 1100390" transform="translate(376.758 45.03)" opacity="0.2">
                    <g id="Grupo_1100389" data-name="Grupo 1100389">
                      <g id="Grupo_1100388" data-name="Grupo 1100388" clip-path="url(#clip-path-8)">
                        <path id="Trazado_893715" data-name="Trazado 893715" d="M.1,38.846,1250.366-1.1l-.14,2.5L-.037,41.345Z" transform="matrix(0.074, -0.997, 0.997, 0.074, -38.62, 1247.003)" fill="#ffe260"/>
                      </g>
                    </g>
                  </g>
                  <g id="Grupo_1100393" data-name="Grupo 1100393" transform="translate(419.639 50.658)" opacity="0.2">
                    <g id="Grupo_1100392" data-name="Grupo 1100392">
                      <g id="Grupo_1100391" data-name="Grupo 1100391" clip-path="url(#clip-path-13)">
                        <path id="Trazado_893716" data-name="Trazado 893716" d="M.1,38.846,1250.368-1.1l-.14,2.5L-.037,41.345Z" transform="matrix(0.074, -0.997, 0.997, 0.074, -38.619, 1247.004)" fill="#ffe260"/>
                      </g>
                    </g>
                  </g>
                  <g id="Grupo_1100396" data-name="Grupo 1100396" transform="translate(462.52 56.287)" opacity="0.2">
                    <g id="Grupo_1100395" data-name="Grupo 1100395">
                      <g id="Grupo_1100394" data-name="Grupo 1100394" clip-path="url(#clip-path-14)">
                        <path id="Trazado_893717" data-name="Trazado 893717" d="M.1,38.846,1250.368-1.1l-.14,2.5L-.037,41.345Z" transform="matrix(0.074, -0.997, 0.997, 0.074, -38.619, 1247.004)" fill="#ffe260"/>
                      </g>
                    </g>
                  </g>
                  <g id="Grupo_1100399" data-name="Grupo 1100399" transform="translate(505.4 61.915)" opacity="0.2">
                    <g id="Grupo_1100398" data-name="Grupo 1100398">
                      <g id="Grupo_1100397" data-name="Grupo 1100397" clip-path="url(#clip-path-14)">
                        <path id="Trazado_893718" data-name="Trazado 893718" d="M.1,38.846,1250.369-1.1l-.14,2.5L-.037,41.345Z" transform="matrix(0.074, -0.997, 0.997, 0.074, -38.619, 1247.005)" fill="#ffe260"/>
                      </g>
                    </g>
                  </g>
                  <g id="Grupo_1100402" data-name="Grupo 1100402" transform="translate(548.282 67.546)" opacity="0.2">
                    <g id="Grupo_1100401" data-name="Grupo 1100401">
                      <g id="Grupo_1100400" data-name="Grupo 1100400" clip-path="url(#clip-path-7)">
                        <path id="Trazado_893719" data-name="Trazado 893719" d="M.1,38.846,1250.366-1.1l-.14,2.5L-.037,41.345Z" transform="matrix(0.074, -0.997, 0.997, 0.074, -38.62, 1247.001)" fill="#ffe260"/>
                      </g>
                    </g>
                  </g>
                  <g id="Grupo_1100405" data-name="Grupo 1100405" transform="translate(591.163 73.175)" opacity="0.2">
                    <g id="Grupo_1100404" data-name="Grupo 1100404">
                      <g id="Grupo_1100403" data-name="Grupo 1100403" clip-path="url(#clip-path-7)">
                        <path id="Trazado_893720" data-name="Trazado 893720" d="M.1,38.846,1250.366-1.1l-.14,2.5L-.037,41.345Z" transform="matrix(0.074, -0.997, 0.997, 0.074, -38.62, 1247.002)" fill="#ffe260"/>
                      </g>
                    </g>
                  </g>
                  <g id="Grupo_1100408" data-name="Grupo 1100408" transform="translate(634.043 78.803)" opacity="0.2">
                    <g id="Grupo_1100407" data-name="Grupo 1100407">
                      <g id="Grupo_1100406" data-name="Grupo 1100406" clip-path="url(#clip-path-8)">
                        <path id="Trazado_893721" data-name="Trazado 893721" d="M.1,38.846,1250.367-1.1l-.14,2.5L-.037,41.345Z" transform="matrix(0.074, -0.997, 0.997, 0.074, -38.62, 1247.002)" fill="#ffe260"/>
                      </g>
                    </g>
                  </g>
                  <g id="Grupo_1100411" data-name="Grupo 1100411" transform="translate(676.924 84.432)" opacity="0.2">
                    <g id="Grupo_1100410" data-name="Grupo 1100410">
                      <g id="Grupo_1100409" data-name="Grupo 1100409" clip-path="url(#clip-path-13)">
                        <path id="Trazado_893722" data-name="Trazado 893722" d="M.1,38.846,1250.368-1.1l-.14,2.5L-.037,41.345Z" transform="matrix(0.074, -0.997, 0.997, 0.074, -38.62, 1247.003)" fill="#ffe260"/>
                      </g>
                    </g>
                  </g>
                  <g id="Grupo_1100414" data-name="Grupo 1100414" transform="translate(719.805 90.06)" opacity="0.2">
                    <g id="Grupo_1100413" data-name="Grupo 1100413">
                      <g id="Grupo_1100412" data-name="Grupo 1100412" clip-path="url(#clip-path-13)">
                        <path id="Trazado_893723" data-name="Trazado 893723" d="M.1,38.846,1250.369-1.1l-.14,2.5L-.037,41.345Z" transform="matrix(0.074, -0.997, 0.997, 0.074, -38.62, 1247.004)" fill="#ffe260"/>
                      </g>
                    </g>
                  </g>
                  <g id="Grupo_1100417" data-name="Grupo 1100417" transform="translate(762.685 95.689)" opacity="0.2">
                    <g id="Grupo_1100416" data-name="Grupo 1100416">
                      <g id="Grupo_1100415" data-name="Grupo 1100415" clip-path="url(#clip-path-21)">
                        <path id="Trazado_893724" data-name="Trazado 893724" d="M.1,38.846,1250.366-1.1l-.14,2.5L-.037,41.345Z" transform="translate(-38.62 1247.002) rotate(-85.755)" fill="#ffe260"/>
                      </g>
                    </g>
                  </g>
                  <g id="Grupo_1100420" data-name="Grupo 1100420" transform="translate(805.567 101.319)" opacity="0.2">
                    <g id="Grupo_1100419" data-name="Grupo 1100419">
                      <g id="Grupo_1100418" data-name="Grupo 1100418" clip-path="url(#clip-path-22)">
                        <path id="Trazado_893725" data-name="Trazado 893725" d="M.1,38.846,1250.366-1.1l-.14,2.5L-.037,41.345Z" transform="translate(-38.621 1247.001) rotate(-85.755)" fill="#ffe260"/>
                      </g>
                    </g>
                  </g>
                  <g id="Grupo_1100423" data-name="Grupo 1100423" transform="translate(848.448 106.945)" opacity="0.2">
                    <g id="Grupo_1100422" data-name="Grupo 1100422">
                      <g id="Grupo_1100421" data-name="Grupo 1100421" clip-path="url(#clip-path-4)">
                        <path id="Trazado_893726" data-name="Trazado 893726" d="M.1,38.846,1250.367-1.1l-.14,2.5L-.037,41.345Z" transform="translate(-38.621 1247.004) rotate(-85.755)" fill="#ffe260"/>
                      </g>
                    </g>
                  </g>
                  <g id="Grupo_1100426" data-name="Grupo 1100426" transform="translate(891.328 112.576)" opacity="0.2">
                    <g id="Grupo_1100425" data-name="Grupo 1100425">
                      <g id="Grupo_1100424" data-name="Grupo 1100424" clip-path="url(#clip-path-21)">
                        <path id="Trazado_893727" data-name="Trazado 893727" d="M.1,38.846,1250.368-1.1l-.14,2.5L-.037,41.345Z" transform="translate(-38.62 1247.002) rotate(-85.755)" fill="#ffe260"/>
                      </g>
                    </g>
                  </g>
                  <g id="Grupo_1100429" data-name="Grupo 1100429" transform="translate(934.209 118.202)" opacity="0.2">
                    <g id="Grupo_1100428" data-name="Grupo 1100428">
                      <g id="Grupo_1100427" data-name="Grupo 1100427" clip-path="url(#clip-path-25)">
                        <path id="Trazado_893728" data-name="Trazado 893728" d="M.1,38.846,1250.369-1.1l-.14,2.5L-.037,41.345Z" transform="translate(-38.62 1247.005) rotate(-85.755)" fill="#ffe260"/>
                      </g>
                    </g>
                  </g>
                  <g id="Grupo_1100432" data-name="Grupo 1100432" transform="translate(977.09 123.833)" opacity="0.2">
                    <g id="Grupo_1100431" data-name="Grupo 1100431">
                      <g id="Grupo_1100430" data-name="Grupo 1100430" clip-path="url(#clip-path-26)">
                        <path id="Trazado_893729" data-name="Trazado 893729" d="M.1,38.846,1250.366-1.1l-.14,2.5L-.037,41.345Z" transform="translate(-38.62 1247.002) rotate(-85.755)" fill="#ffe260"/>
                      </g>
                    </g>
                  </g>
                  <g id="Grupo_1100435" data-name="Grupo 1100435" transform="translate(1019.97 129.462)" opacity="0.2">
                    <g id="Grupo_1100434" data-name="Grupo 1100434">
                      <g id="Grupo_1100433" data-name="Grupo 1100433" clip-path="url(#clip-path-8)">
                        <path id="Trazado_893730" data-name="Trazado 893730" d="M.1,38.846,1250.366-1.1l-.14,2.5L-.037,41.345Z" transform="translate(-38.62 1247.002) rotate(-85.755)" fill="#ffe260"/>
                      </g>
                    </g>
                  </g>
                  <g id="Grupo_1100438" data-name="Grupo 1100438" transform="translate(47.972 49.587)" opacity="0.2">
                    <g id="Grupo_1100437" data-name="Grupo 1100437">
                      <g id="Grupo_1100436" data-name="Grupo 1100436" clip-path="url(#clip-path-28)">
                        <path id="Trazado_893731" data-name="Trazado 893731" d="M59.027.084,63.4-.056,3.413,1068.53l-4.369.14Z" transform="translate(-4.475 63.225) rotate(-85.735)" fill="#ffe260"/>
                      </g>
                    </g>
                  </g>
                  <g id="Grupo_1100441" data-name="Grupo 1100441" transform="translate(44.774 125.057)" opacity="0.2">
                    <g id="Grupo_1100440" data-name="Grupo 1100440">
                      <g id="Grupo_1100439" data-name="Grupo 1100439" clip-path="url(#clip-path-29)">
                        <path id="Trazado_893732" data-name="Trazado 893732" d="M59.027.084,63.4-.056,3.413,1068.53l-4.368.14Z" transform="translate(-4.474 63.225) rotate(-85.735)" fill="#ffe260"/>
                      </g>
                    </g>
                  </g>
                  <g id="Grupo_1100444" data-name="Grupo 1100444" transform="translate(41.575 200.529)" opacity="0.2">
                    <g id="Grupo_1100443" data-name="Grupo 1100443">
                      <g id="Grupo_1100442" data-name="Grupo 1100442" clip-path="url(#clip-path-30)">
                        <path id="Trazado_893733" data-name="Trazado 893733" d="M59.026.084l4.368-.14L3.413,1068.53l-4.368.14Z" transform="translate(-4.474 63.224) rotate(-85.735)" fill="#ffe260"/>
                      </g>
                    </g>
                  </g>
                  <g id="Grupo_1100447" data-name="Grupo 1100447" transform="translate(38.378 275.999)" opacity="0.2">
                    <g id="Grupo_1100446" data-name="Grupo 1100446">
                      <g id="Grupo_1100445" data-name="Grupo 1100445" clip-path="url(#clip-path-30)">
                        <path id="Trazado_893734" data-name="Trazado 893734" d="M59.026.084,63.4-.056,3.413,1068.53l-4.369.14Z" transform="translate(-4.474 63.224) rotate(-85.735)" fill="#ffe260"/>
                      </g>
                    </g>
                  </g>
                  <g id="Grupo_1100450" data-name="Grupo 1100450" transform="translate(35.18 351.469)" opacity="0.2">
                    <g id="Grupo_1100449" data-name="Grupo 1100449">
                      <g id="Grupo_1100448" data-name="Grupo 1100448" clip-path="url(#clip-path-30)">
                        <path id="Trazado_893735" data-name="Trazado 893735" d="M59.026.084,63.4-.056,3.413,1068.53l-4.369.14Z" transform="translate(-4.474 63.223) rotate(-85.735)" fill="#ffe260"/>
                      </g>
                    </g>
                  </g>
                  <g id="Grupo_1100453" data-name="Grupo 1100453" transform="translate(31.982 426.939)" opacity="0.2">
                    <g id="Grupo_1100452" data-name="Grupo 1100452">
                      <g id="Grupo_1100451" data-name="Grupo 1100451" clip-path="url(#clip-path-29)">
                        <path id="Trazado_893736" data-name="Trazado 893736" d="M59.027.084,63.4-.056,3.413,1068.53l-4.369.14Z" transform="translate(-4.474 63.224) rotate(-85.735)" fill="#ffe260"/>
                      </g>
                    </g>
                  </g>
                  <g id="Grupo_1100456" data-name="Grupo 1100456" transform="translate(28.783 502.408)" opacity="0.2">
                    <g id="Grupo_1100455" data-name="Grupo 1100455">
                      <g id="Grupo_1100454" data-name="Grupo 1100454" clip-path="url(#clip-path-29)">
                        <path id="Trazado_893737" data-name="Trazado 893737" d="M59.027.084,63.4-.056,3.413,1068.53l-4.369.14Z" transform="translate(-4.474 63.224) rotate(-85.735)" fill="#ffe260"/>
                      </g>
                    </g>
                  </g>
                  <g id="Grupo_1100459" data-name="Grupo 1100459" transform="translate(25.585 577.878)" opacity="0.2">
                    <g id="Grupo_1100458" data-name="Grupo 1100458">
                      <g id="Grupo_1100457" data-name="Grupo 1100457" clip-path="url(#clip-path-29)">
                        <path id="Trazado_893738" data-name="Trazado 893738" d="M59.027.084,63.4-.056,3.413,1068.53l-4.369.14Z" transform="translate(-4.474 63.224) rotate(-85.735)" fill="#ffe260"/>
                      </g>
                    </g>
                  </g>
                  <g id="Grupo_1100462" data-name="Grupo 1100462" transform="translate(22.388 653.348)" opacity="0.2">
                    <g id="Grupo_1100461" data-name="Grupo 1100461">
                      <g id="Grupo_1100460" data-name="Grupo 1100460" clip-path="url(#clip-path-29)">
                        <path id="Trazado_893739" data-name="Trazado 893739" d="M59.027.084,63.4-.056,3.413,1068.53l-4.369.14Z" transform="translate(-4.474 63.224) rotate(-85.735)" fill="#ffe260"/>
                      </g>
                    </g>
                  </g>
                  <g id="Grupo_1100465" data-name="Grupo 1100465" transform="translate(19.189 728.82)" opacity="0.2">
                    <g id="Grupo_1100464" data-name="Grupo 1100464">
                      <g id="Grupo_1100463" data-name="Grupo 1100463" clip-path="url(#clip-path-30)">
                        <path id="Trazado_893740" data-name="Trazado 893740" d="M59.026.084,63.4-.056,3.413,1068.53l-4.369.14Z" transform="translate(-4.474 63.223) rotate(-85.735)" fill="#ffe260"/>
                      </g>
                    </g>
                  </g>
                  <g id="Grupo_1100468" data-name="Grupo 1100468" transform="translate(15.991 804.29)" opacity="0.2">
                    <g id="Grupo_1100467" data-name="Grupo 1100467">
                      <g id="Grupo_1100466" data-name="Grupo 1100466" clip-path="url(#clip-path-38)">
                        <path id="Trazado_893741" data-name="Trazado 893741" d="M59.026.084,63.4-.056,3.413,1068.53l-4.369.14Z" transform="translate(-4.474 63.223) rotate(-85.735)" fill="#ffe260"/>
                      </g>
                    </g>
                  </g>
                  <g id="Grupo_1100471" data-name="Grupo 1100471" transform="translate(12.792 879.759)" opacity="0.2">
                    <g id="Grupo_1100470" data-name="Grupo 1100470">
                      <g id="Grupo_1100469" data-name="Grupo 1100469" clip-path="url(#clip-path-29)">
                        <path id="Trazado_893742" data-name="Trazado 893742" d="M59.027.084,63.4-.056,3.413,1068.53l-4.369.14Z" transform="translate(-4.474 63.224) rotate(-85.735)" fill="#ffe260"/>
                      </g>
                    </g>
                  </g>
                  <g id="Grupo_1100474" data-name="Grupo 1100474" transform="translate(9.595 955.229)" opacity="0.2">
                    <g id="Grupo_1100473" data-name="Grupo 1100473">
                      <g id="Grupo_1100472" data-name="Grupo 1100472" clip-path="url(#clip-path-40)">
                        <path id="Trazado_893743" data-name="Trazado 893743" d="M59.027.084,63.4-.056,3.413,1068.53l-4.369.14Z" transform="matrix(0.074, -0.997, 0.997, 0.074, -4.474, 63.224)" fill="#ffe260"/>
                      </g>
                    </g>
                  </g>
                  <g id="Grupo_1100477" data-name="Grupo 1100477" transform="translate(6.396 1030.699)" opacity="0.2">
                    <g id="Grupo_1100476" data-name="Grupo 1100476">
                      <g id="Grupo_1100475" data-name="Grupo 1100475" clip-path="url(#clip-path-41)">
                        <path id="Trazado_893744" data-name="Trazado 893744" d="M59.027.084,63.4-.056,3.413,1068.53l-4.369.14Z" transform="translate(-4.474 63.224) rotate(-85.735)" fill="#ffe260"/>
                      </g>
                    </g>
                  </g>
                  <g id="Grupo_1100480" data-name="Grupo 1100480" transform="translate(3.198 1106.169)" opacity="0.2">
                    <g id="Grupo_1100479" data-name="Grupo 1100479">
                      <g id="Grupo_1100478" data-name="Grupo 1100478" clip-path="url(#clip-path-41)">
                        <path id="Trazado_893745" data-name="Trazado 893745" d="M59.027.084,63.4-.056,3.413,1068.53l-4.369.14Z" transform="translate(-4.474 63.224) rotate(-85.735)" fill="#ffe260"/>
                      </g>
                    </g>
                  </g>
                  <g id="Grupo_1100483" data-name="Grupo 1100483" transform="translate(0 1181.64)" opacity="0.2">
                    <g id="Grupo_1100482" data-name="Grupo 1100482">
                      <g id="Grupo_1100481" data-name="Grupo 1100481" clip-path="url(#clip-path-43)">
                        <path id="Trazado_893746" data-name="Trazado 893746" d="M59.026.084,63.4-.056,3.413,1068.53l-4.369.14Z" transform="translate(-4.474 63.223) rotate(-85.735)" fill="#ffe260"/>
                      </g>
                    </g>
                  </g>
                </g>
              </g>
            </g>
          </g>
        </g>
        <path id="Trazado_891381" data-name="Trazado 891381" d="M699.973,595.156c-42.1,78.014-64.716,183.883-101.315,270.64-9.894,23.434-20.9,45.752-27.985,72.35-4.8,18.01-7.723,37.714-13.593,54.636-.225.65-.457,1.314-.7,1.949H90.074q13.2-28.773,27.9-55.06c22.875-40.723,48.393-76.517,75.9-106.25,14.717-15.905,30.047-30.157,43.71-48.93,17.439-23.956,31.885-55.074,41.95-90.373,11.011-38.619,16.679-81.39,23.371-123.158,30.1-187.682,85.342-367.624,171.412-484.44C484.463,72.748,495.381,59.611,507.8,55.3s26.752,2.175,33.924,21.146c5.777,15.255,5.963,35.214,5.025,53.676-2.233,43.986-9.685,87.068-21.7,125.432-10.018,31.994-23.635,63.648-22.991,100.459.845,48.167,25.108,81.912,40.577,121.011,20.556,51.939,26.271,122.339,14.834,182.894-2.916,15.467-6.917,30.567-7.746,46.854s2.443,34.762,10.5,42.008c10.057,9.04,22.014-3.079,30-17.431,29.031-52.179,35.948-132.707,59.117-193.841,17.695-46.7,43.989-79.85,69.686-111.928,3.179-3.983,6.506-8.066,10.321-9.111,10.84-2.966,18.843,19.535,19.587,39.452,2.132,56.911-27.008,98.552-48.967,139.233" transform="translate(482.503 -11.03)" fill="#fff3bf"/>
        <path id="Trazado_891382" data-name="Trazado 891382" d="M956.915,0V148.445a58.356,58.356,0,0,1-11.011,6.04c-13.818,5.692-29.318,5.575-43.7,9.623-15.462,4.342-29.132,13.329-42.524,22.192Q831.834,204.712,804,223.124c-19.959,13.2-43.4,26.992-66.367,20.3a8.925,8.925,0,0,1-4.668-2.613c-1.884-2.373-1.233-5.808-.45-8.739,7.017-26.325,16.935-52.193,18.835-79.371,2.373-34-7.925-68.639-.675-101.943C754.727,32.172,763.993,15.531,774.686,0Z" transform="translate(370.279)" fill="#fff3bf"/>
        <path id="Trazado_891383" data-name="Trazado 891383" d="M1000.821,352.98V599.607c-13.019-9.173-23.976-22.487-32.916-35.855a349.378,349.378,0,0,1-31.474-58.4c-6.141-14.562-11.367-30.443-8.281-45.943,2.629-13.252,11-24.534,19.153-35.312,17.881-23.666,35.584-47.486,53.519-71.121" transform="translate(326.373 346.13)" fill="#ffe260"/>
        <path id="Trazado_891378" data-name="Trazado 891378" d="M572.334,85.277c-25.575,86.274-60.012,164.8-79.211,256.064-13.739,65.307-19.642,136.87-41.419,195.033-23.214,61.987-61.317,100.508-94.993,145.243C297.165,760.734,248.624,865.217,216.3,983.5H0V0H160.846c-12.225,44.927-3.425,103.335-15.634,149.56-7.821,29.614-24.076,53.682-24.977,86.3-.792,28.9,11.828,55.226,27.144,65.812s32.6,8.1,48.572,1.134c64.61-28.193,113.237-122.472,174.95-166.4,17.964-12.8,36.946-21.227,54.343-36.253,30.717-26.513,55-72.219,85.23-100.153h62.249a62.41,62.41,0,0,1,7.5,21.432c3.526,21.459-2.012,44.039-7.891,63.845" transform="translate(0 0.206)" fill="#fffedc"/>
        <g id="Grupo_1100489" data-name="Grupo 1100489" transform="translate(1231.555 606.031)">
          <path id="Trazado_889220" data-name="Trazado 889220" d="M4.045,2.022A2.022,2.022,0,1,1,2.022,0,2.023,2.023,0,0,1,4.045,2.022" transform="translate(0 0)" fill="#fefefe"/>
          <path id="Trazado_889221" data-name="Trazado 889221" d="M10.474,2.022A2.022,2.022,0,1,1,8.451,0a2.023,2.023,0,0,1,2.022,2.022" transform="translate(9.273 0)" fill="#fefefe"/>
          <path id="Trazado_889222" data-name="Trazado 889222" d="M16.9,2.022A2.022,2.022,0,1,1,14.879,0,2.023,2.023,0,0,1,16.9,2.022" transform="translate(18.544 0)" fill="#fefefe"/>
          <path id="Trazado_889223" data-name="Trazado 889223" d="M23.331,2.022A2.022,2.022,0,1,1,21.308,0a2.023,2.023,0,0,1,2.022,2.022" transform="translate(27.818 0)" fill="#fefefe"/>
          <path id="Trazado_889224" data-name="Trazado 889224" d="M29.76,2.022A2.022,2.022,0,1,1,27.737,0,2.023,2.023,0,0,1,29.76,2.022" transform="translate(37.091 0)" fill="#fefefe"/>
          <path id="Trazado_889225" data-name="Trazado 889225" d="M4.045,8.6A2.022,2.022,0,1,1,2.022,6.575,2.023,2.023,0,0,1,4.045,8.6" transform="translate(0 9.483)" fill="#fefefe"/>
          <path id="Trazado_889226" data-name="Trazado 889226" d="M10.474,8.6A2.022,2.022,0,1,1,8.451,6.575,2.023,2.023,0,0,1,10.474,8.6" transform="translate(9.273 9.483)" fill="#fefefe"/>
          <path id="Trazado_889227" data-name="Trazado 889227" d="M16.9,8.6a2.022,2.022,0,1,1-2.022-2.022A2.023,2.023,0,0,1,16.9,8.6" transform="translate(18.544 9.483)" fill="#fefefe"/>
          <path id="Trazado_889228" data-name="Trazado 889228" d="M23.331,8.6a2.022,2.022,0,1,1-2.022-2.022A2.023,2.023,0,0,1,23.331,8.6" transform="translate(27.818 9.483)" fill="#fefefe"/>
          <path id="Trazado_889229" data-name="Trazado 889229" d="M29.76,8.6a2.022,2.022,0,1,1-2.022-2.022A2.023,2.023,0,0,1,29.76,8.6" transform="translate(37.091 9.483)" fill="#fefefe"/>
          <path id="Trazado_889230" data-name="Trazado 889230" d="M4.045,15.171a2.022,2.022,0,1,1-2.022-2.022,2.025,2.025,0,0,1,2.022,2.022" transform="translate(0 18.966)" fill="#fefefe"/>
          <path id="Trazado_889231" data-name="Trazado 889231" d="M10.474,15.171a2.022,2.022,0,1,1-2.022-2.022,2.025,2.025,0,0,1,2.022,2.022" transform="translate(9.273 18.966)" fill="#fefefe"/>
          <path id="Trazado_889232" data-name="Trazado 889232" d="M16.9,15.171a2.022,2.022,0,1,1-2.022-2.022A2.025,2.025,0,0,1,16.9,15.171" transform="translate(18.544 18.966)" fill="#fefefe"/>
          <path id="Trazado_889233" data-name="Trazado 889233" d="M23.331,15.171a2.022,2.022,0,1,1-2.022-2.022,2.025,2.025,0,0,1,2.022,2.022" transform="translate(27.818 18.966)" fill="#fefefe"/>
          <path id="Trazado_889234" data-name="Trazado 889234" d="M29.76,15.171a2.022,2.022,0,1,1-2.022-2.022,2.025,2.025,0,0,1,2.022,2.022" transform="translate(37.091 18.966)" fill="#fefefe"/>
          <path id="Trazado_889235" data-name="Trazado 889235" d="M4.045,21.746a2.022,2.022,0,1,1-2.022-2.022,2.023,2.023,0,0,1,2.022,2.022" transform="translate(0 28.449)" fill="#fefefe"/>
          <path id="Trazado_889236" data-name="Trazado 889236" d="M10.474,21.746a2.022,2.022,0,1,1-2.022-2.022,2.023,2.023,0,0,1,2.022,2.022" transform="translate(9.273 28.449)" fill="#fefefe"/>
          <path id="Trazado_889237" data-name="Trazado 889237" d="M16.9,21.746a2.022,2.022,0,1,1-2.022-2.022A2.023,2.023,0,0,1,16.9,21.746" transform="translate(18.544 28.449)" fill="#fefefe"/>
          <path id="Trazado_889238" data-name="Trazado 889238" d="M23.331,21.746a2.022,2.022,0,1,1-2.022-2.022,2.023,2.023,0,0,1,2.022,2.022" transform="translate(27.818 28.449)" fill="#fefefe"/>
          <path id="Trazado_889239" data-name="Trazado 889239" d="M29.76,21.746a2.022,2.022,0,1,1-2.022-2.022,2.023,2.023,0,0,1,2.022,2.022" transform="translate(37.091 28.449)" fill="#fefefe"/>
          <path id="Trazado_889240" data-name="Trazado 889240" d="M4.045,28.321A2.022,2.022,0,1,1,2.022,26.3a2.023,2.023,0,0,1,2.022,2.022" transform="translate(0 37.933)" fill="#fefefe"/>
          <path id="Trazado_889241" data-name="Trazado 889241" d="M10.474,28.321A2.022,2.022,0,1,1,8.451,26.3a2.023,2.023,0,0,1,2.022,2.022" transform="translate(9.273 37.933)" fill="#fefefe"/>
          <path id="Trazado_889242" data-name="Trazado 889242" d="M16.9,28.321A2.022,2.022,0,1,1,14.879,26.3,2.023,2.023,0,0,1,16.9,28.321" transform="translate(18.544 37.933)" fill="#fefefe"/>
          <path id="Trazado_889243" data-name="Trazado 889243" d="M23.331,28.321A2.022,2.022,0,1,1,21.308,26.3a2.023,2.023,0,0,1,2.022,2.022" transform="translate(27.818 37.933)" fill="#fefefe"/>
          <path id="Trazado_889244" data-name="Trazado 889244" d="M29.76,28.321A2.022,2.022,0,1,1,27.737,26.3a2.023,2.023,0,0,1,2.022,2.022" transform="translate(37.091 37.933)" fill="#fefefe"/>
          <path id="Trazado_889245" data-name="Trazado 889245" d="M4.045,34.9a2.022,2.022,0,1,1-2.022-2.022A2.023,2.023,0,0,1,4.045,34.9" transform="translate(0 47.417)" fill="#fefefe"/>
          <path id="Trazado_889246" data-name="Trazado 889246" d="M10.474,34.9a2.022,2.022,0,1,1-2.022-2.022A2.023,2.023,0,0,1,10.474,34.9" transform="translate(9.273 47.417)" fill="#fefefe"/>
          <path id="Trazado_889247" data-name="Trazado 889247" d="M16.9,34.9a2.022,2.022,0,1,1-2.022-2.022A2.023,2.023,0,0,1,16.9,34.9" transform="translate(18.544 47.417)" fill="#fefefe"/>
          <path id="Trazado_889248" data-name="Trazado 889248" d="M23.331,34.9a2.022,2.022,0,1,1-2.022-2.022A2.023,2.023,0,0,1,23.331,34.9" transform="translate(27.818 47.417)" fill="#fefefe"/>
          <path id="Trazado_889249" data-name="Trazado 889249" d="M29.76,34.9a2.022,2.022,0,1,1-2.022-2.022A2.023,2.023,0,0,1,29.76,34.9" transform="translate(37.091 47.417)" fill="#fefefe"/>
          <path id="Trazado_889250" data-name="Trazado 889250" d="M4.045,41.471a2.022,2.022,0,1,1-2.022-2.022,2.023,2.023,0,0,1,2.022,2.022" transform="translate(0 56.901)" fill="#fefefe"/>
          <path id="Trazado_889251" data-name="Trazado 889251" d="M10.474,41.471a2.022,2.022,0,1,1-2.022-2.022,2.023,2.023,0,0,1,2.022,2.022" transform="translate(9.273 56.901)" fill="#fefefe"/>
          <path id="Trazado_889252" data-name="Trazado 889252" d="M16.9,41.471a2.022,2.022,0,1,1-2.022-2.022A2.023,2.023,0,0,1,16.9,41.471" transform="translate(18.544 56.901)" fill="#fefefe"/>
          <path id="Trazado_889253" data-name="Trazado 889253" d="M23.331,41.471a2.022,2.022,0,1,1-2.022-2.022,2.023,2.023,0,0,1,2.022,2.022" transform="translate(27.818 56.901)" fill="#fefefe"/>
          <path id="Trazado_889254" data-name="Trazado 889254" d="M29.76,41.471a2.022,2.022,0,1,1-2.022-2.022,2.023,2.023,0,0,1,2.022,2.022" transform="translate(37.091 56.901)" fill="#fefefe"/>
        </g>
        <path id="Trazado_891380" data-name="Trazado 891380" d="M204.068,0c-1.349,7.335-3.365,14.531-7.483,20.672-9.755,14.547-28.628,19.571-45.99,21.89-26.558,3.551-54.038,3.489-79.069,13.058C55.934,61.583,41.348,71.26,24.716,72.8,15.155,73.68,3.71,70.338.732,61.211c-1.287-3.962-.7-8.289.388-12.314C6.494,29.07,22.591,14.973,37.308,0Z" transform="translate(0 245.17) rotate(-90)" fill="#ffe260"/>
      </g>
    </g>
  </g>
</svg>
