<svg xmlns="http://www.w3.org/2000/svg" width="439.48" height="629.179" viewBox="0 0 439.48 629.179">
  <g id="Grupo_1113911" data-name="Grupo 1113911" transform="translate(-265.27 -6404.189)">
    <path id="Trazado_893668" data-name="Trazado 893668" d="M174.562,343.517c1.064-14.58,4.8-28.829,5.459-32.912,2.705-16.913,3.517-37.553,5.872-56.5,1.36-10.928,2.854-16.883,4.592-26.145,1.142-6.089,2.411-10.432,3.156-44.588.472-21.621.789-47.153,6.382-59.388,3.512-7.682,12.286-7.864,24.03-9.847,10.905-1.841,21.086-5.424,25.349-10.8,3.751-4.877,7.191-14.955.958-23.074-4.054-5.283-4.732-9.117-5.465-16.755a1.952,1.952,0,0,1-2.67-1.125c-.51-1.249-.235-3.01-.287-3.832-.182-2.864-2.363-4.223-1.786-8.968a2.281,2.281,0,0,1,3.122-2.081c0-9.94-4.01-28.837,15.25-36.863C258.543,5.447,261.621,0,269.832,0s11.289,5.446,11.307,10.645c19.259,8.026,15.25,26.923,15.25,36.863a2.281,2.281,0,0,1,3.122,2.081c.577,4.744-1.6,6.1-1.786,8.968-.052.822.223,2.582-.287,3.832a1.952,1.952,0,0,1-2.67,1.125c-.733,7.637-1.41,11.471-5.465,16.755-6.233,8.119-2.793,18.2.958,23.074,4.263,5.373,14.444,8.956,25.349,10.8,11.744,1.982,20.518,2.164,24.03,9.847,5.593,12.235,5.909,37.767,6.382,59.388.744,34.156,2.013,38.5,3.156,44.588,1.738,9.262,3.232,15.217,4.592,26.145,2.355,18.944,3.167,39.584,5.872,56.5.655,4.083,4.395,18.332,5.459,32.912.186,2.548-.737,4.975-1.567,8.9a29.716,29.716,0,0,1-3.142,9.265,127.488,127.488,0,0,1-7.508,10.8c-1.976,2.516-2.6,1.868-5.355,4.914-1.124,1.243-3.018,1.188-3.249-1.272a6.689,6.689,0,0,1,1.062-3.934c.742-1.283,2.015-2.032,2.283-3.1a75.183,75.183,0,0,1,3.418-9.829c.467-1.118.329-6.606.709-10.029.255-2.3-1.44-4.566-2.616-5.719-.052.04-.847-.9-.906.089-.082,1.342-.817,7.043-1.142,8.4a30.043,30.043,0,0,1-2.668,6.665c-1.4,2.509-4.291,1.642-3.526-2.409a42.5,42.5,0,0,0,.558-7.053c0-3.684-.2-9.92-.235-12.615-.108-9.439,1.321-11.778,1.379-17.437a15.3,15.3,0,0,0-.207-3.2c-4.847-25.745-11.53-34.254-16.913-54.476-2.534-9.523-2.569-20.3-2.709-22.975-.759-14.548-4.376-34.44-4.989-58.009-.964,14.6-4.1,20.579-5.565,37.647-1.548,17.991.726,26.215,4.48,39.231,3.025,10.482,7.815,23.541,12.118,40.709,9.885,39.441,4.858,72.33-2.957,121.463-4.151,26.11,2.2,37.346,3.228,56.236.75,13.871-.421,31.361-6.414,69.253-6.609,41.773-7.147,45.468-5.466,57,.156,1.072.761,3.768,1.34,7.075.307,1.768,1.263,5.158,2.893,7.072,1.524,1.786,3.939,4.359,5.613,5.117,2.251,1.02,3.26,4.164,2.6,5.628-.852,1.88-2.2,2.249-4.813,2.249H299.224c-6.178,0-6.827-3.075-6.579-7.444.169-3.012,1.407-6.025,2.095-8.514.873-3.152.8-4.644,1.44-8.012.7-3.652,1.661-5.041,2.032-10.286.644-9.054-.2-31.865-3.066-52.407-3.135-22.392-7.766-45.711-9-56.317-2.726-23.38.891-43.443-.789-61.64-2.648-28.639-8.6-46-14.385-87.568-.07-.5-.251-.155-1.142-.155s-1.072-.346-1.142.155c-5.783,41.566-11.737,58.929-14.384,87.568-1.68,18.2,1.937,38.259-.789,61.64-1.232,10.607-5.863,33.926-9,56.317-2.871,20.542-3.71,43.353-3.066,52.407.37,5.245,1.332,6.633,2.032,10.286.636,3.368.567,4.86,1.44,8.012.689,2.49,1.926,5.5,2.1,8.514.247,4.369-.4,7.444-6.579,7.444H214.828c-2.618,0-3.961-.369-4.814-2.249-.662-1.464.346-4.609,2.6-5.628,1.675-.757,4.09-3.33,5.614-5.117,1.63-1.914,2.586-5.3,2.893-7.072.579-3.307,1.183-6,1.34-7.075,1.68-11.533,1.142-15.228-5.467-57-5.993-37.891-7.163-55.382-6.413-69.253,1.027-18.889,7.379-30.126,3.228-56.236-7.815-49.133-12.842-82.022-2.957-121.463,4.3-17.168,9.093-30.227,12.118-40.709,3.755-13.016,6.028-21.241,4.481-39.231-1.47-17.068-4.6-23.045-5.565-37.647-.612,23.569-4.229,43.461-4.989,58.009-.139,2.68-.175,13.452-2.709,22.975-5.383,20.222-12.066,28.731-16.913,54.476a15.259,15.259,0,0,0-.207,3.2c.058,5.659,1.487,8,1.379,17.437-.03,2.7-.235,8.931-.235,12.615a42.481,42.481,0,0,0,.558,7.053c.765,4.051-2.121,4.919-3.526,2.409A30.034,30.034,0,0,1,192.575,352c-.326-1.354-1.06-7.055-1.142-8.4-.06-.986-.854-.048-.906-.089-1.176,1.153-2.871,3.424-2.616,5.719.38,3.424.242,8.911.709,10.029a75.21,75.21,0,0,1,3.418,9.829c.268,1.07,1.541,1.819,2.283,3.1a6.691,6.691,0,0,1,1.062,3.934c-.231,2.46-2.125,2.515-3.249,1.272-2.759-3.046-3.379-2.4-5.355-4.914a127.486,127.486,0,0,1-7.508-10.8,29.721,29.721,0,0,1-3.143-9.265c-.83-3.929-1.753-6.356-1.567-8.9" transform="translate(215.159 6404.188)" fill="#efa6a8"/>
    <path id="Trazado_893675" data-name="Trazado 893675" d="M972.673,2522.823H822.607c-.38,0-.693-.157-.693-.355s.313-.355.693-.355H972.673c.38,0,.693.157.693.355s-.313.355-.693.355" transform="translate(-297.394 4498.472)" fill="#72688d"/>
    <path id="Trazado_893676" data-name="Trazado 893676" d="M816.787,2513.972a3.02,3.02,0,1,1-3.019-3.019,3.019,3.019,0,0,1,3.019,3.019" transform="translate(-288.896 4506.966)" fill="#72688d"/>
    <path id="Trazado_893679" data-name="Trazado 893679" d="M975.623,1885.855H848.438c-.35,0-.638-.157-.638-.355s.288-.355.638-.355H975.623c.35,0,.638.156.638.355s-.288.355-.638.355" transform="translate(-325.003 5014.303)" fill="#72688d"/>
    <path id="Trazado_893680" data-name="Trazado 893680" d="M842.689,1877.011a3.02,3.02,0,1,1-3.019-3.02,3.019,3.019,0,0,1,3.019,3.02" transform="translate(-316.517 5022.792)" fill="#72688d"/>
    <path id="Trazado_893681" data-name="Trazado 893681" d="M1121.166,1540.969H994.46c-.686,0-1.248-.157-1.248-.355s.563-.355,1.248-.355h126.705c.686,0,1.249.157,1.249.355s-.563.355-1.249.355" transform="translate(-471.156 5238.814)" fill="#72688d"/>
    <path id="Trazado_893682" data-name="Trazado 893682" d="M988.087,1532.121a3.02,3.02,0,1,1-3.019-3.019,3.019,3.019,0,0,1,3.019,3.019" transform="translate(-463.012 5247.307)" fill="#72688d"/>
    <path id="Trazado_893683" data-name="Trazado 893683" d="M108.366,630.387H.281a.365.365,0,0,1,0-.71H108.366a.365.365,0,0,1,0,.71" transform="translate(312.738 5969.908)" fill="#72688d"/>
    <path id="Trazado_893684" data-name="Trazado 893684" d="M566.912,621.544a3.02,3.02,0,1,1-3.02-3.02,3.02,3.02,0,0,1,3.02,3.02" transform="translate(-142.864 5978.397)" fill="#72688d"/>
    <path id="Trazado_893685" data-name="Trazado 893685" d="M1172.3,1315.469H1010.549c-.976,0-1.777-.157-1.777-.355s.8-.355,1.777-.355H1172.3c.976,0,1.779.157,1.779.355s-.8.355-1.779.355" transform="translate(-522.824 5403.455)" fill="#72688d"/>
    <path id="Trazado_893686" data-name="Trazado 893686" d="M1003.654,1306.626a3.02,3.02,0,1,1-3.019-3.02,3.02,3.02,0,0,1,3.019,3.02" transform="translate(-514.332 5411.944)" fill="#72688d"/>
    <path id="Trazado_893689" data-name="Trazado 893689" d="M1099.356,954.859H959c-.615,0-1.12-.157-1.12-.355s.505-.355,1.12-.355h140.359c.615,0,1.121.157,1.121.355s-.506.355-1.121.355" transform="translate(-471.931 5690.934)" fill="#72688d"/>
    <path id="Trazado_893690" data-name="Trazado 893690" d="M952.767,946.01a3.02,3.02,0,1,1-3.019-3.019,3.019,3.019,0,0,1,3.019,3.019" transform="translate(-463.444 5699.428)" fill="#72688d"/>
    <path id="Trazado_893693" data-name="Trazado 893693" d="M1101.89,510.362H934.426c-.648,0-1.181-.157-1.181-.355s.533-.355,1.181-.355H1101.89c.648,0,1.181.157,1.181.355s-.533.355-1.181.355" transform="translate(-447.723 6037.265)" fill="#72688d"/>
    <path id="Trazado_893694" data-name="Trazado 893694" d="M928.125,501.52a3.02,3.02,0,1,1-3.02-3.02,3.02,3.02,0,0,1,3.02,3.02" transform="translate(-439.229 6045.754)" fill="#72688d"/>
    <path id="Trazado_893695" data-name="Trazado 893695" d="M864.9,372.629H700.525c-.3,0-.55-.157-.55-.355s.248-.355.55-.355H864.9c.3,0,.55.157.55.355s-.248.355-.55.355" transform="translate(-214.193 6126.102)" fill="#72688d"/>
    <path id="Trazado_893696" data-name="Trazado 893696" d="M694.846,363.779a3.02,3.02,0,1,1-3.019-3.019,3.019,3.019,0,0,1,3.019,3.019" transform="translate(-205.693 6134.595)" fill="#72688d"/>
    <path id="Trazado_893697" data-name="Trazado 893697" d="M61.011,1400.554H1.032c-.566,0-1.032-.157-1.032-.355s.466-.355,1.032-.355H61.011c.566,0,1.032.157,1.032.355s-.466.355-1.032.355" transform="translate(348.01 5283.448)" fill="#72688d"/>
    <path id="Trazado_893706" data-name="Trazado 893706" d="M81.483,1400.554H1.379c-.757,0-1.379-.157-1.379-.355s.622-.355,1.379-.355h80.1c.757,0,1.379.157,1.379.355s-.622.355-1.379.355" transform="translate(314.064 5347.448)" fill="#72688d"/>
    <path id="Trazado_893698" data-name="Trazado 893698" d="M81.273,1391.707a3.02,3.02,0,1,1-3.019-3.02,3.02,3.02,0,0,1,3.019,3.02" transform="translate(331.441 5291.94)" fill="#72688d"/>
    <path id="Trazado_893705" data-name="Trazado 893705" d="M81.273,1391.707a3.02,3.02,0,1,1-3.019-3.02,3.02,3.02,0,0,1,3.019,3.02" transform="translate(318.313 5355.94)" fill="#72688d"/>
    <path id="Trazado_893699" data-name="Trazado 893699" d="M750.039,222.668H572.5a.367.367,0,1,1,0-.71H750.039a.367.367,0,1,1,0,.71" transform="translate(-87.398 6235.245)" fill="#72688d"/>
    <path id="Trazado_893704" data-name="Trazado 893704" d="M730.678,222.668H572.447a.359.359,0,1,1,0-.71h158.23a.359.359,0,1,1,0,.71" transform="translate(-87.398 6187.245)" fill="#72688d"/>
    <path id="Trazado_893700" data-name="Trazado 893700" d="M566.912,213.816a3.02,3.02,0,1,1-3.02-3.02,3.02,3.02,0,0,1,3.02,3.02" transform="translate(-78.901 6243.741)" fill="#72688d"/>
    <path id="Trazado_893703" data-name="Trazado 893703" d="M566.912,213.816a3.02,3.02,0,1,1-3.02-3.02,3.02,3.02,0,0,1,3.02,3.02" transform="translate(-78.901 6195.741)" fill="#72688d"/>
    <path id="Trazado_896853" data-name="Trazado 896853" d="M-23.234-3.609A4.185,4.185,0,0,1-24.566-.824a4.365,4.365,0,0,1-2.98.98,4.008,4.008,0,0,1-3.23-1.445,5.815,5.815,0,0,1-1.215-3.867V-6.25a6.481,6.481,0,0,1,.566-2.789,4.231,4.231,0,0,1,1.605-1.848,4.47,4.47,0,0,1,2.406-.645,4.11,4.11,0,0,1,2.906,1.012,4.235,4.235,0,0,1,1.273,2.8h-1.508a3.254,3.254,0,0,0-.848-1.969,2.569,2.569,0,0,0-1.824-.609,2.685,2.685,0,0,0-2.254,1.063,4.875,4.875,0,0,0-.816,3.023v1.1a5.011,5.011,0,0,0,.773,2.945A2.5,2.5,0,0,0-27.547-1.07a2.886,2.886,0,0,0,1.918-.566,3.143,3.143,0,0,0,.887-1.973ZM-16.2,0a3.036,3.036,0,0,1-.2-.891A3.225,3.225,0,0,1-18.8.156a2.984,2.984,0,0,1-2.051-.707,2.287,2.287,0,0,1-.8-1.793,2.39,2.39,0,0,1,1-2.051,4.733,4.733,0,0,1,2.824-.73h1.406v-.664A1.623,1.623,0,0,0-16.875-7a1.821,1.821,0,0,0-1.336-.449,2.108,2.108,0,0,0-1.3.391,1.151,1.151,0,0,0-.523.945h-1.453a2,2,0,0,1,.449-1.223,3.066,3.066,0,0,1,1.219-.934,4.1,4.1,0,0,1,1.691-.344,3.342,3.342,0,0,1,2.289.73,2.635,2.635,0,0,1,.859,2.012v3.891a4.757,4.757,0,0,0,.3,1.852V0Zm-2.4-1.1A2.54,2.54,0,0,0-17.3-1.453a2.127,2.127,0,0,0,.883-.914V-4.1h-1.133q-2.656,0-2.656,1.555a1.316,1.316,0,0,0,.453,1.063A1.742,1.742,0,0,0-18.594-1.1Zm9.969-6.055a4.331,4.331,0,0,0-.711-.055A1.9,1.9,0,0,0-11.266-6V0h-1.445V-8.453H-11.3l.023.977A2.251,2.251,0,0,1-9.266-8.609a1.477,1.477,0,0,1,.641.109ZM-2.391,0a3.036,3.036,0,0,1-.2-.891A3.225,3.225,0,0,1-5,.156,2.984,2.984,0,0,1-7.051-.551a2.287,2.287,0,0,1-.8-1.793,2.39,2.39,0,0,1,1-2.051,4.733,4.733,0,0,1,2.824-.73h1.406v-.664A1.623,1.623,0,0,0-3.07-7a1.821,1.821,0,0,0-1.336-.449,2.107,2.107,0,0,0-1.3.391,1.151,1.151,0,0,0-.523.945H-7.68A2,2,0,0,1-7.23-7.332a3.066,3.066,0,0,1,1.219-.934A4.1,4.1,0,0,1-4.32-8.609a3.342,3.342,0,0,1,2.289.73,2.635,2.635,0,0,1,.859,2.012v3.891a4.757,4.757,0,0,0,.3,1.852V0Zm-2.4-1.1A2.54,2.54,0,0,0-3.5-1.453a2.127,2.127,0,0,0,.883-.914V-4.1H-3.75q-2.656,0-2.656,1.555a1.316,1.316,0,0,0,.453,1.063A1.742,1.742,0,0,0-4.789-1.1Z" transform="translate(705.102 6463.868)" fill="#992c30"/>
    <path id="Trazado_896854" data-name="Trazado 896854" d="M-34.914-3.609A4.185,4.185,0,0,1-36.246-.824a4.365,4.365,0,0,1-2.98.98,4.008,4.008,0,0,1-3.23-1.445,5.815,5.815,0,0,1-1.215-3.867V-6.25a6.481,6.481,0,0,1,.566-2.789A4.231,4.231,0,0,1-41.5-10.887a4.47,4.47,0,0,1,2.406-.645,4.11,4.11,0,0,1,2.906,1.012,4.235,4.235,0,0,1,1.273,2.8h-1.508a3.254,3.254,0,0,0-.848-1.969,2.569,2.569,0,0,0-1.824-.609,2.685,2.685,0,0,0-2.254,1.063,4.875,4.875,0,0,0-.816,3.023v1.1a5.011,5.011,0,0,0,.773,2.945A2.5,2.5,0,0,0-39.227-1.07a2.887,2.887,0,0,0,1.918-.566,3.143,3.143,0,0,0,.887-1.973Zm7.039,2.773a3.07,3.07,0,0,1-2.477.992A2.628,2.628,0,0,1-32.41-.629a3.4,3.4,0,0,1-.715-2.324v-5.5h1.445v5.461q0,1.922,1.563,1.922a2.163,2.163,0,0,0,2.2-1.234V-8.453h1.445V0h-1.375Zm7.109.992a3.693,3.693,0,0,1-2.8-1.129,4.19,4.19,0,0,1-1.078-3.02v-.266A5.073,5.073,0,0,1-24.16-6.5a3.748,3.748,0,0,1,1.344-1.547,3.378,3.378,0,0,1,1.871-.559,3.166,3.166,0,0,1,2.563,1.086,4.7,4.7,0,0,1,.914,3.109v.6H-23.2a3,3,0,0,0,.73,2.02,2.3,2.3,0,0,0,1.777.77,2.517,2.517,0,0,0,1.3-.312,3.259,3.259,0,0,0,.93-.828l.883.688A3.55,3.55,0,0,1-20.766.156Zm-.18-7.578a1.928,1.928,0,0,0-1.469.637A3.1,3.1,0,0,0-23.148-5h4.234v-.109a2.753,2.753,0,0,0-.594-1.707A1.815,1.815,0,0,0-20.945-7.422ZM-14.227,0h-1.445V-12h1.445Zm3.883,0h-1.445V-12h1.445Zm1.93-4.3a4.993,4.993,0,0,1,.488-2.234A3.643,3.643,0,0,1-6.566-8.07a3.7,3.7,0,0,1,1.988-.539,3.565,3.565,0,0,1,2.793,1.2A4.6,4.6,0,0,1-.719-4.234v.1a5.036,5.036,0,0,1-.473,2.215A3.589,3.589,0,0,1-2.543-.391a3.743,3.743,0,0,1-2.02.547,3.556,3.556,0,0,1-2.785-1.2A4.575,4.575,0,0,1-8.414-4.2Zm1.453.172a3.616,3.616,0,0,0,.652,2.258,2.088,2.088,0,0,0,1.746.852,2.075,2.075,0,0,0,1.75-.863A3.955,3.955,0,0,0-2.164-4.3a3.61,3.61,0,0,0-.66-2.254,2.1,2.1,0,0,0-1.754-.863A2.075,2.075,0,0,0-6.3-6.57,3.925,3.925,0,0,0-6.961-4.133Z" transform="translate(705.102 6504.868)" fill="#992c30"/>
    <path id="Trazado_896855" data-name="Trazado 896855" d="M-31.227-10.141h-3.656V0h-1.492V-10.141h-3.648v-1.234h8.8ZM-30.148-4.3a4.993,4.993,0,0,1,.488-2.234A3.643,3.643,0,0,1-28.3-8.07a3.7,3.7,0,0,1,1.988-.539,3.565,3.565,0,0,1,2.793,1.2,4.6,4.6,0,0,1,1.066,3.18v.1a5.036,5.036,0,0,1-.473,2.215A3.589,3.589,0,0,1-24.277-.391,3.743,3.743,0,0,1-26.3.156a3.556,3.556,0,0,1-2.785-1.2A4.575,4.575,0,0,1-30.148-4.2Zm1.453.172a3.616,3.616,0,0,0,.652,2.258,2.088,2.088,0,0,0,1.746.852,2.075,2.075,0,0,0,1.75-.863A3.955,3.955,0,0,0-23.9-4.3a3.61,3.61,0,0,0-.66-2.254,2.1,2.1,0,0,0-1.754-.863,2.075,2.075,0,0,0-1.727.852A3.925,3.925,0,0,0-28.7-4.133ZM-25.656-12h1.75L-26-9.7h-1.164Zm9.1,4.844a4.331,4.331,0,0,0-.711-.055A1.9,1.9,0,0,0-19.2-6V0h-1.445V-8.453h1.406l.023.977A2.251,2.251,0,0,1-17.2-8.609a1.477,1.477,0,0,1,.641.109ZM-10.32,0a3.036,3.036,0,0,1-.2-.891A3.225,3.225,0,0,1-12.93.156,2.984,2.984,0,0,1-14.98-.551a2.287,2.287,0,0,1-.8-1.793,2.39,2.39,0,0,1,1-2.051,4.733,4.733,0,0,1,2.824-.73h1.406v-.664A1.623,1.623,0,0,0-11-7a1.821,1.821,0,0,0-1.336-.449,2.107,2.107,0,0,0-1.3.391,1.151,1.151,0,0,0-.523.945h-1.453a2,2,0,0,1,.449-1.223,3.066,3.066,0,0,1,1.219-.934,4.1,4.1,0,0,1,1.691-.344,3.342,3.342,0,0,1,2.289.73A2.635,2.635,0,0,1-9.1-5.867v3.891A4.757,4.757,0,0,0-8.8-.125V0Zm-2.4-1.1a2.54,2.54,0,0,0,1.289-.352,2.127,2.127,0,0,0,.883-.914V-4.1H-11.68q-2.656,0-2.656,1.555a1.316,1.316,0,0,0,.453,1.063A1.742,1.742,0,0,0-12.719-1.1ZM-4-5.367l1.875-3.086H-.437L-3.2-4.273-.352,0H-2.023L-3.977-3.164-5.93,0h-1.68l2.852-4.273-2.766-4.18h1.672Z" transform="translate(705.102 6550.868)" fill="#992c30"/>
    <path id="Trazado_896856" data-name="Trazado 896856" d="M-61.289-2.969h-4.766L-67.125,0h-1.547l4.344-11.375h1.313L-58.664,0H-60.2ZM-65.6-4.2h3.867l-1.937-5.32Zm15.4.07a5.026,5.026,0,0,1-.891,3.113A2.846,2.846,0,0,1-53.484.156,2.947,2.947,0,0,1-55.961-.977l-.07.977h-1.328V-12h1.445v4.477A2.93,2.93,0,0,1-53.5-8.609a2.863,2.863,0,0,1,2.418,1.164A5.177,5.177,0,0,1-50.2-4.258ZM-51.648-4.3a3.906,3.906,0,0,0-.57-2.281,1.888,1.888,0,0,0-1.641-.8,2.122,2.122,0,0,0-2.055,1.328V-2.4a2.181,2.181,0,0,0,2.07,1.328,1.878,1.878,0,0,0,1.617-.8A4.153,4.153,0,0,0-51.648-4.3Zm2.914,0a4.952,4.952,0,0,1,.922-3.129A2.915,2.915,0,0,1-45.4-8.609a2.932,2.932,0,0,1,2.352,1.016V-12H-41.6V0H-42.93L-43-.906A2.943,2.943,0,0,1-45.414.156a2.887,2.887,0,0,1-2.395-1.2,5.008,5.008,0,0,1-.926-3.141Zm1.445.164a3.749,3.749,0,0,0,.594,2.25,1.92,1.92,0,0,0,1.641.813A2.108,2.108,0,0,0-43.047-2.3V-6.187a2.125,2.125,0,0,0-1.992-1.2,1.929,1.929,0,0,0-1.656.82A4.128,4.128,0,0,0-47.289-4.133Zm7.547-.172a4.993,4.993,0,0,1,.488-2.234A3.643,3.643,0,0,1-37.895-8.07a3.7,3.7,0,0,1,1.988-.539,3.565,3.565,0,0,1,2.793,1.2,4.6,4.6,0,0,1,1.066,3.18v.1a5.036,5.036,0,0,1-.473,2.215A3.589,3.589,0,0,1-33.871-.391a3.743,3.743,0,0,1-2.02.547,3.556,3.556,0,0,1-2.785-1.2A4.575,4.575,0,0,1-39.742-4.2Zm1.453.172a3.616,3.616,0,0,0,.652,2.258,2.088,2.088,0,0,0,1.746.852,2.075,2.075,0,0,0,1.75-.863A3.955,3.955,0,0,0-33.492-4.3a3.61,3.61,0,0,0-.66-2.254,2.1,2.1,0,0,0-1.754-.863,2.075,2.075,0,0,0-1.727.852A3.925,3.925,0,0,0-38.289-4.133Zm9.414-4.32.039.938a3.122,3.122,0,0,1,2.508-1.094A2.417,2.417,0,0,1-23.914-7.25a3.2,3.2,0,0,1,1.1-.984,3.242,3.242,0,0,1,1.6-.375q2.781,0,2.828,2.945V0h-1.445V-5.578a1.941,1.941,0,0,0-.414-1.355,1.823,1.823,0,0,0-1.391-.449,1.916,1.916,0,0,0-1.336.48,1.949,1.949,0,0,0-.617,1.293V0h-1.453V-5.539a1.613,1.613,0,0,0-1.8-1.844A1.934,1.934,0,0,0-28.8-6.172V0h-1.445V-8.453ZM-12.7.156A3.693,3.693,0,0,1-15.5-.973a4.19,4.19,0,0,1-1.078-3.02v-.266A5.073,5.073,0,0,1-16.1-6.5a3.748,3.748,0,0,1,1.344-1.547,3.378,3.378,0,0,1,1.871-.559A3.166,3.166,0,0,1-10.32-7.523a4.7,4.7,0,0,1,.914,3.109v.6h-5.727a3,3,0,0,0,.73,2.02,2.3,2.3,0,0,0,1.777.77,2.517,2.517,0,0,0,1.3-.312,3.259,3.259,0,0,0,.93-.828l.883.688A3.55,3.55,0,0,1-12.7.156Zm-.18-7.578a1.928,1.928,0,0,0-1.469.637A3.1,3.1,0,0,0-15.086-5h4.234v-.109a2.753,2.753,0,0,0-.594-1.707A1.815,1.815,0,0,0-12.883-7.422Zm6.516-1.031.047,1.063A3.08,3.08,0,0,1-3.789-8.609q2.68,0,2.7,3.023V0H-2.531V-5.594a1.946,1.946,0,0,0-.418-1.352,1.675,1.675,0,0,0-1.277-.437,2.086,2.086,0,0,0-1.234.375,2.546,2.546,0,0,0-.828.984V0H-7.734V-8.453Z" transform="translate(705.102 6648.868)" fill="#992c30"/>
    <path id="Trazado_896857" data-name="Trazado 896857" d="M-39.516-4.453V0h-1.5V-11.375h4.2a4.215,4.215,0,0,1,2.926.953A3.231,3.231,0,0,1-32.836-7.9a3.189,3.189,0,0,1-1.035,2.551,4.4,4.4,0,0,1-2.965.895Zm0-1.227h2.7a2.7,2.7,0,0,0,1.844-.566,2.069,2.069,0,0,0,.641-1.637,2.138,2.138,0,0,0-.641-1.625,2.528,2.528,0,0,0-1.758-.633h-2.781ZM-27.641.156a3.693,3.693,0,0,1-2.8-1.129,4.19,4.19,0,0,1-1.078-3.02v-.266a5.073,5.073,0,0,1,.48-2.246,3.748,3.748,0,0,1,1.344-1.547,3.378,3.378,0,0,1,1.871-.559,3.166,3.166,0,0,1,2.563,1.086,4.7,4.7,0,0,1,.914,3.109v.6H-30.07a3,3,0,0,0,.73,2.02,2.3,2.3,0,0,0,1.777.77,2.517,2.517,0,0,0,1.3-.312,3.259,3.259,0,0,0,.93-.828l.883.688A3.55,3.55,0,0,1-27.641.156Zm-.18-7.578a1.928,1.928,0,0,0-1.469.637A3.1,3.1,0,0,0-30.023-5h4.234v-.109a2.753,2.753,0,0,0-.594-1.707A1.815,1.815,0,0,0-27.82-7.422ZM-21.1,0h-1.445V-12H-21.1ZM-16-1.961l2.094-6.492h1.477L-15.461,0h-1.1l-3.062-8.453h1.477ZM-9.469,0h-1.445V-8.453h1.445Zm-1.562-10.7a.863.863,0,0,1,.215-.594.807.807,0,0,1,.637-.242.819.819,0,0,1,.641.242.854.854,0,0,1,.219.594.826.826,0,0,1-.219.586.834.834,0,0,1-.641.234.821.821,0,0,1-.637-.234A.834.834,0,0,1-11.031-10.7Zm8.8,8.453a1.064,1.064,0,0,0-.441-.91,4.249,4.249,0,0,0-1.539-.559,7.277,7.277,0,0,1-1.742-.562,2.479,2.479,0,0,1-.953-.781,1.869,1.869,0,0,1-.309-1.078A2.193,2.193,0,0,1-6.34-7.891a3.432,3.432,0,0,1,2.246-.719,3.532,3.532,0,0,1,2.332.742,2.357,2.357,0,0,1,.895,1.9H-2.32a1.3,1.3,0,0,0-.5-1.023,1.888,1.888,0,0,0-1.27-.43,1.976,1.976,0,0,0-1.234.344,1.082,1.082,0,0,0-.445.9.877.877,0,0,0,.414.789,5.1,5.1,0,0,0,1.5.508A7.8,7.8,0,0,1-2.109-4.3a2.558,2.558,0,0,1,1,.809A1.988,1.988,0,0,1-.789-2.344,2.163,2.163,0,0,1-1.7-.527,3.8,3.8,0,0,1-4.047.156,4.257,4.257,0,0,1-5.844-.2a2.922,2.922,0,0,1-1.223-1A2.42,2.42,0,0,1-7.508-2.6h1.445A1.5,1.5,0,0,0-5.48-1.449a2.258,2.258,0,0,0,1.434.426A2.331,2.331,0,0,0-2.73-1.355,1.02,1.02,0,0,0-2.234-2.242Z" transform="translate(705.102 6721.868)" fill="#992c30"/>
    <path id="Trazado_896858" data-name="Trazado 896858" d="M-40.789-11.375l3.719,9.281,3.719-9.281h1.945V0h-1.5V-4.43l.141-4.781L-36.5,0h-1.148l-3.727-9.187.148,4.758V0h-1.5V-11.375ZM-23.766-.836a3.07,3.07,0,0,1-2.477.992A2.628,2.628,0,0,1-28.3-.629a3.4,3.4,0,0,1-.715-2.324v-5.5h1.445v5.461q0,1.922,1.563,1.922A2.163,2.163,0,0,0-23.8-2.3V-8.453h1.445V0h-1.375Zm8.523-1.406a1.064,1.064,0,0,0-.441-.91,4.249,4.249,0,0,0-1.539-.559,7.277,7.277,0,0,1-1.742-.562,2.479,2.479,0,0,1-.953-.781,1.869,1.869,0,0,1-.309-1.078,2.193,2.193,0,0,1,.879-1.758A3.432,3.432,0,0,1-17.1-8.609a3.532,3.532,0,0,1,2.332.742,2.357,2.357,0,0,1,.895,1.9h-1.453a1.3,1.3,0,0,0-.5-1.023,1.888,1.888,0,0,0-1.27-.43,1.976,1.976,0,0,0-1.234.344,1.082,1.082,0,0,0-.445.9.877.877,0,0,0,.414.789,5.1,5.1,0,0,0,1.5.508,7.8,7.8,0,0,1,1.754.578,2.558,2.558,0,0,1,1,.809A1.988,1.988,0,0,1-13.8-2.344,2.163,2.163,0,0,1-14.7-.527a3.8,3.8,0,0,1-2.352.684,4.257,4.257,0,0,1-1.8-.359,2.922,2.922,0,0,1-1.223-1A2.42,2.42,0,0,1-20.516-2.6h1.445a1.5,1.5,0,0,0,.582,1.152,2.258,2.258,0,0,0,1.434.426,2.331,2.331,0,0,0,1.316-.332A1.02,1.02,0,0,0-15.242-2.242ZM-10.344,0h-1.445V-12h1.445Zm1.93-4.3a4.993,4.993,0,0,1,.488-2.234A3.643,3.643,0,0,1-6.566-8.07a3.7,3.7,0,0,1,1.988-.539,3.565,3.565,0,0,1,2.793,1.2A4.6,4.6,0,0,1-.719-4.234v.1a5.036,5.036,0,0,1-.473,2.215A3.589,3.589,0,0,1-2.543-.391a3.743,3.743,0,0,1-2.02.547,3.556,3.556,0,0,1-2.785-1.2A4.575,4.575,0,0,1-8.414-4.2Zm1.453.172a3.616,3.616,0,0,0,.652,2.258,2.088,2.088,0,0,0,1.746.852,2.075,2.075,0,0,0,1.75-.863A3.955,3.955,0,0,0-2.164-4.3a3.61,3.61,0,0,0-.66-2.254,2.1,2.1,0,0,0-1.754-.863A2.075,2.075,0,0,0-6.3-6.57,3.925,3.925,0,0,0-6.961-4.133Z" transform="translate(705.102 6785.868)" fill="#992c30"/>
    <path id="Trazado_896859" data-name="Trazado 896859" d="M-42.578-4.453V0h-1.5V-11.375h4.2a4.215,4.215,0,0,1,2.926.953A3.231,3.231,0,0,1-35.9-7.9a3.189,3.189,0,0,1-1.035,2.551,4.4,4.4,0,0,1-2.965.895Zm0-1.227h2.7a2.7,2.7,0,0,0,1.844-.566A2.069,2.069,0,0,0-37.4-7.883a2.138,2.138,0,0,0-.641-1.625,2.528,2.528,0,0,0-1.758-.633h-2.781ZM-32.641,0h-1.445V-8.453h1.445ZM-34.2-10.7a.863.863,0,0,1,.215-.594.807.807,0,0,1,.637-.242.819.819,0,0,1,.641.242.854.854,0,0,1,.219.594.826.826,0,0,1-.219.586.834.834,0,0,1-.641.234.821.821,0,0,1-.637-.234A.834.834,0,0,1-34.2-10.7ZM-26.82.156a3.693,3.693,0,0,1-2.8-1.129A4.19,4.19,0,0,1-30.7-3.992v-.266a5.073,5.073,0,0,1,.48-2.246,3.748,3.748,0,0,1,1.344-1.547A3.378,3.378,0,0,1-27-8.609a3.166,3.166,0,0,1,2.563,1.086,4.7,4.7,0,0,1,.914,3.109v.6H-29.25a3,3,0,0,0,.73,2.02,2.3,2.3,0,0,0,1.777.77,2.517,2.517,0,0,0,1.3-.312,3.259,3.259,0,0,0,.93-.828l.883.688A3.55,3.55,0,0,1-26.82.156ZM-27-7.422a1.928,1.928,0,0,0-1.469.637A3.1,3.1,0,0,0-29.2-5h4.234v-.109a2.753,2.753,0,0,0-.594-1.707A1.815,1.815,0,0,0-27-7.422Zm9.234.266a4.331,4.331,0,0,0-.711-.055A1.9,1.9,0,0,0-20.406-6V0h-1.445V-8.453h1.406l.023.977a2.251,2.251,0,0,1,2.016-1.133,1.477,1.477,0,0,1,.641.109Zm2.7-1.3.047,1.063a3.08,3.08,0,0,1,2.531-1.219q2.68,0,2.7,3.023V0h-1.445V-5.594a1.946,1.946,0,0,0-.418-1.352,1.675,1.675,0,0,0-1.277-.437,2.086,2.086,0,0,0-1.234.375,2.546,2.546,0,0,0-.828.984V0h-1.445V-8.453ZM-2.391,0a3.036,3.036,0,0,1-.2-.891A3.225,3.225,0,0,1-5,.156,2.984,2.984,0,0,1-7.051-.551a2.287,2.287,0,0,1-.8-1.793,2.39,2.39,0,0,1,1-2.051,4.733,4.733,0,0,1,2.824-.73h1.406v-.664A1.623,1.623,0,0,0-3.07-7a1.821,1.821,0,0,0-1.336-.449,2.107,2.107,0,0,0-1.3.391,1.151,1.151,0,0,0-.523.945H-7.68A2,2,0,0,1-7.23-7.332a3.066,3.066,0,0,1,1.219-.934A4.1,4.1,0,0,1-4.32-8.609a3.342,3.342,0,0,1,2.289.73,2.635,2.635,0,0,1,.859,2.012v3.891a4.757,4.757,0,0,0,.3,1.852V0Zm-2.4-1.1A2.54,2.54,0,0,0-3.5-1.453a2.127,2.127,0,0,0,.883-.914V-4.1H-3.75q-2.656,0-2.656,1.555a1.316,1.316,0,0,0,.453,1.063A1.742,1.742,0,0,0-4.789-1.1Z" transform="translate(705.102 6902.868)" fill="#992c30"/>
    <path id="Trazado_896860" data-name="Trazado 896860" d="M-19.633-4.453V0h-1.5V-11.375h4.2a4.215,4.215,0,0,1,2.926.953A3.231,3.231,0,0,1-12.953-7.9a3.189,3.189,0,0,1-1.035,2.551,4.4,4.4,0,0,1-2.965.895Zm0-1.227h2.7a2.7,2.7,0,0,0,1.844-.566,2.069,2.069,0,0,0,.641-1.637,2.138,2.138,0,0,0-.641-1.625,2.528,2.528,0,0,0-1.758-.633h-2.781ZM-9.7,0h-1.445V-8.453H-9.7Zm-1.562-10.7a.863.863,0,0,1,.215-.594.807.807,0,0,1,.637-.242.819.819,0,0,1,.641.242.854.854,0,0,1,.219.594.826.826,0,0,1-.219.586.834.834,0,0,1-.641.234.821.821,0,0,1-.637-.234A.834.834,0,0,1-11.258-10.7ZM-3.875.156a3.693,3.693,0,0,1-2.8-1.129A4.19,4.19,0,0,1-7.75-3.992v-.266A5.073,5.073,0,0,1-7.27-6.5,3.748,3.748,0,0,1-5.926-8.051a3.378,3.378,0,0,1,1.871-.559A3.166,3.166,0,0,1-1.492-7.523,4.7,4.7,0,0,1-.578-4.414v.6H-6.3a3,3,0,0,0,.73,2.02,2.3,2.3,0,0,0,1.777.77,2.517,2.517,0,0,0,1.3-.312,3.259,3.259,0,0,0,.93-.828l.883.688A3.55,3.55,0,0,1-3.875.156Zm-.18-7.578a1.928,1.928,0,0,0-1.469.637A3.1,3.1,0,0,0-6.258-5h4.234v-.109a2.753,2.753,0,0,0-.594-1.707A1.815,1.815,0,0,0-4.055-7.422Z" transform="translate(705.102 7024.868)" fill="#992c30"/>
    <path id="Trazado_896861" data-name="Trazado 896861" d="M-40.961-3.609A4.185,4.185,0,0,1-42.293-.824a4.365,4.365,0,0,1-2.98.98A4.008,4.008,0,0,1-48.5-1.289a5.815,5.815,0,0,1-1.215-3.867V-6.25a6.481,6.481,0,0,1,.566-2.789,4.231,4.231,0,0,1,1.605-1.848,4.47,4.47,0,0,1,2.406-.645,4.11,4.11,0,0,1,2.906,1.012,4.235,4.235,0,0,1,1.273,2.8h-1.508a3.254,3.254,0,0,0-.848-1.969,2.569,2.569,0,0,0-1.824-.609,2.685,2.685,0,0,0-2.254,1.063,4.875,4.875,0,0,0-.816,3.023v1.1a5.011,5.011,0,0,0,.773,2.945A2.5,2.5,0,0,0-45.273-1.07a2.887,2.887,0,0,0,1.918-.566,3.143,3.143,0,0,0,.887-1.973Zm5.906-3.547a4.331,4.331,0,0,0-.711-.055A1.9,1.9,0,0,0-37.7-6V0h-1.445V-8.453h1.406l.023.977A2.251,2.251,0,0,1-35.7-8.609a1.477,1.477,0,0,1,.641.109ZM-28.82,0a3.036,3.036,0,0,1-.2-.891A3.225,3.225,0,0,1-31.43.156,2.984,2.984,0,0,1-33.48-.551a2.287,2.287,0,0,1-.8-1.793,2.39,2.39,0,0,1,1-2.051,4.733,4.733,0,0,1,2.824-.73h1.406v-.664A1.623,1.623,0,0,0-29.5-7a1.821,1.821,0,0,0-1.336-.449,2.108,2.108,0,0,0-1.3.391,1.151,1.151,0,0,0-.523.945h-1.453a2,2,0,0,1,.449-1.223,3.066,3.066,0,0,1,1.219-.934,4.1,4.1,0,0,1,1.691-.344,3.342,3.342,0,0,1,2.289.73A2.635,2.635,0,0,1-27.6-5.867v3.891a4.757,4.757,0,0,0,.3,1.852V0Zm-2.4-1.1a2.54,2.54,0,0,0,1.289-.352,2.127,2.127,0,0,0,.883-.914V-4.1H-30.18q-2.656,0-2.656,1.555a1.316,1.316,0,0,0,.453,1.063A1.742,1.742,0,0,0-31.219-1.1Zm7.25-7.352.047,1.063a3.08,3.08,0,0,1,2.531-1.219q2.68,0,2.7,3.023V0h-1.445V-5.594a1.946,1.946,0,0,0-.418-1.352,1.675,1.675,0,0,0-1.277-.437,2.086,2.086,0,0,0-1.234.375,2.546,2.546,0,0,0-.828.984V0h-1.445V-8.453ZM-13,.156A3.693,3.693,0,0,1-15.8-.973a4.19,4.19,0,0,1-1.078-3.02v-.266a5.073,5.073,0,0,1,.48-2.246,3.748,3.748,0,0,1,1.344-1.547,3.378,3.378,0,0,1,1.871-.559,3.166,3.166,0,0,1,2.563,1.086A4.7,4.7,0,0,1-9.7-4.414v.6H-15.43a3,3,0,0,0,.73,2.02,2.3,2.3,0,0,0,1.777.77,2.517,2.517,0,0,0,1.3-.312,3.259,3.259,0,0,0,.93-.828l.883.688A3.55,3.55,0,0,1-13,.156Zm-.18-7.578a1.928,1.928,0,0,0-1.469.637A3.1,3.1,0,0,0-15.383-5h4.234v-.109a2.753,2.753,0,0,0-.594-1.707A1.815,1.815,0,0,0-13.18-7.422ZM-8.414-4.3a4.993,4.993,0,0,1,.488-2.234A3.643,3.643,0,0,1-6.566-8.07a3.7,3.7,0,0,1,1.988-.539,3.565,3.565,0,0,1,2.793,1.2A4.6,4.6,0,0,1-.719-4.234v.1a5.036,5.036,0,0,1-.473,2.215A3.589,3.589,0,0,1-2.543-.391a3.743,3.743,0,0,1-2.02.547,3.556,3.556,0,0,1-2.785-1.2A4.575,4.575,0,0,1-8.414-4.2Zm1.453.172a3.616,3.616,0,0,0,.652,2.258,2.088,2.088,0,0,0,1.746.852,2.075,2.075,0,0,0,1.75-.863A3.955,3.955,0,0,0-2.164-4.3a3.61,3.61,0,0,0-.66-2.254,2.1,2.1,0,0,0-1.754-.863A2.075,2.075,0,0,0-6.3-6.57,3.925,3.925,0,0,0-6.961-4.133Z" transform="translate(705.102 6415.868)" fill="#992c30"/>
    <path id="Trazado_896862" data-name="Trazado 896862" d="M1.32,0V-11.375H5.039a4.317,4.317,0,0,1,2.785.766,2.759,2.759,0,0,1,.934,2.266A2.31,2.31,0,0,1,8.3-6.934a2.937,2.937,0,0,1-1.234.949A2.638,2.638,0,0,1,8.527-5a2.814,2.814,0,0,1,.535,1.723A3.042,3.042,0,0,1,8.07-.875,4.1,4.1,0,0,1,5.266,0Zm1.5-5.32v4.094H5.3A2.385,2.385,0,0,0,6.949-1.77a1.907,1.907,0,0,0,.605-1.5q0-2.055-2.234-2.055Zm0-1.2H5.086A2.378,2.378,0,0,0,6.66-7.016a1.649,1.649,0,0,0,.59-1.336A1.621,1.621,0,0,0,6.7-9.715a2.69,2.69,0,0,0-1.664-.426H2.82Zm12.32-.633a4.331,4.331,0,0,0-.711-.055A1.9,1.9,0,0,0,12.5-6V0H11.055V-8.453h1.406l.023.977A2.251,2.251,0,0,1,14.5-8.609a1.477,1.477,0,0,1,.641.109ZM21.375,0a3.036,3.036,0,0,1-.2-.891A3.225,3.225,0,0,1,18.766.156a2.984,2.984,0,0,1-2.051-.707,2.287,2.287,0,0,1-.8-1.793,2.39,2.39,0,0,1,1-2.051,4.733,4.733,0,0,1,2.824-.73h1.406v-.664A1.623,1.623,0,0,0,20.7-7a1.821,1.821,0,0,0-1.336-.449,2.108,2.108,0,0,0-1.3.391,1.151,1.151,0,0,0-.523.945H16.086a2,2,0,0,1,.449-1.223,3.066,3.066,0,0,1,1.219-.934,4.1,4.1,0,0,1,1.691-.344,3.342,3.342,0,0,1,2.289.73,2.635,2.635,0,0,1,.859,2.012v3.891a4.757,4.757,0,0,0,.3,1.852V0Zm-2.4-1.1a2.54,2.54,0,0,0,1.289-.352,2.127,2.127,0,0,0,.883-.914V-4.1H20.016q-2.656,0-2.656,1.555a1.316,1.316,0,0,0,.453,1.063A1.742,1.742,0,0,0,18.977-1.1Zm7.242-.078h4.945V0H24.453V-1.062l4.664-6.2H24.523v-1.2H30.93V-7.43ZM32.281-4.3a4.993,4.993,0,0,1,.488-2.234A3.643,3.643,0,0,1,34.129-8.07a3.7,3.7,0,0,1,1.988-.539,3.565,3.565,0,0,1,2.793,1.2,4.6,4.6,0,0,1,1.066,3.18v.1A5.036,5.036,0,0,1,39.5-1.918,3.589,3.589,0,0,1,38.152-.391a3.743,3.743,0,0,1-2.02.547,3.556,3.556,0,0,1-2.785-1.2A4.575,4.575,0,0,1,32.281-4.2Zm1.453.172a3.616,3.616,0,0,0,.652,2.258,2.088,2.088,0,0,0,1.746.852,2.075,2.075,0,0,0,1.75-.863A3.955,3.955,0,0,0,38.531-4.3a3.61,3.61,0,0,0-.66-2.254,2.1,2.1,0,0,0-1.754-.863,2.075,2.075,0,0,0-1.727.852A3.925,3.925,0,0,0,33.734-4.133Z" transform="translate(265.051 6605.868)" fill="#992c30"/>
    <path id="Trazado_896863" data-name="Trazado 896863" d="M7.6-2.969H2.836L1.766,0H.219L4.563-11.375H5.875L10.227,0H8.688ZM3.289-4.2H7.156L5.219-9.523ZM12.9-8.453l.047,1.063a3.08,3.08,0,0,1,2.531-1.219q2.68,0,2.7,3.023V0H16.734V-5.594a1.946,1.946,0,0,0-.418-1.352,1.675,1.675,0,0,0-1.277-.437,2.086,2.086,0,0,0-1.234.375,2.546,2.546,0,0,0-.828.984V0H11.531V-8.453ZM22.32-10.5v2.047H23.9v1.117H22.32v5.242a1.171,1.171,0,0,0,.211.762.888.888,0,0,0,.719.254,3.5,3.5,0,0,0,.688-.094V0a4.19,4.19,0,0,1-1.109.156A1.8,1.8,0,0,1,21.367-.43a2.517,2.517,0,0,1-.492-1.664V-7.336H19.336V-8.453h1.539V-10.5ZM29.094.156A3.693,3.693,0,0,1,26.3-.973a4.19,4.19,0,0,1-1.078-3.02v-.266A5.073,5.073,0,0,1,25.7-6.5a3.748,3.748,0,0,1,1.344-1.547,3.378,3.378,0,0,1,1.871-.559,3.166,3.166,0,0,1,2.563,1.086,4.7,4.7,0,0,1,.914,3.109v.6H26.664a3,3,0,0,0,.73,2.02,2.3,2.3,0,0,0,1.777.77,2.517,2.517,0,0,0,1.3-.312,3.259,3.259,0,0,0,.93-.828l.883.688A3.55,3.55,0,0,1,29.094.156Zm-.18-7.578a1.928,1.928,0,0,0-1.469.637A3.1,3.1,0,0,0,26.711-5h4.234v-.109a2.753,2.753,0,0,0-.594-1.707A1.815,1.815,0,0,0,28.914-7.422Zm12.3,3.289a5.026,5.026,0,0,1-.891,3.113A2.846,2.846,0,0,1,37.938.156,2.947,2.947,0,0,1,35.461-.977L35.391,0H34.063V-12h1.445v4.477a2.93,2.93,0,0,1,2.414-1.086A2.863,2.863,0,0,1,40.34-7.445a5.177,5.177,0,0,1,.879,3.188ZM39.773-4.3a3.906,3.906,0,0,0-.57-2.281,1.888,1.888,0,0,0-1.641-.8,2.122,2.122,0,0,0-2.055,1.328V-2.4a2.181,2.181,0,0,0,2.07,1.328,1.878,1.878,0,0,0,1.617-.8A4.153,4.153,0,0,0,39.773-4.3Zm7.352-2.859a4.331,4.331,0,0,0-.711-.055A1.9,1.9,0,0,0,44.484-6V0H43.039V-8.453h1.406l.023.977a2.251,2.251,0,0,1,2.016-1.133,1.477,1.477,0,0,1,.641.109ZM53.359,0a3.036,3.036,0,0,1-.2-.891A3.225,3.225,0,0,1,50.75.156,2.984,2.984,0,0,1,48.7-.551a2.287,2.287,0,0,1-.8-1.793,2.39,2.39,0,0,1,1-2.051,4.733,4.733,0,0,1,2.824-.73h1.406v-.664A1.623,1.623,0,0,0,52.68-7a1.821,1.821,0,0,0-1.336-.449,2.107,2.107,0,0,0-1.3.391,1.151,1.151,0,0,0-.523.945H48.07a2,2,0,0,1,.449-1.223,3.066,3.066,0,0,1,1.219-.934,4.1,4.1,0,0,1,1.691-.344,3.342,3.342,0,0,1,2.289.73,2.635,2.635,0,0,1,.859,2.012v3.891a4.757,4.757,0,0,0,.3,1.852V0Zm-2.4-1.1a2.54,2.54,0,0,0,1.289-.352,2.127,2.127,0,0,0,.883-.914V-4.1H52q-2.656,0-2.656,1.555A1.316,1.316,0,0,0,49.8-1.484,1.742,1.742,0,0,0,50.961-1.1ZM58.2-1.18h4.945V0H56.438V-1.062l4.664-6.2H56.508v-1.2h6.406V-7.43ZM64.266-4.3a4.993,4.993,0,0,1,.488-2.234A3.643,3.643,0,0,1,66.113-8.07,3.7,3.7,0,0,1,68.1-8.609a3.565,3.565,0,0,1,2.793,1.2,4.6,4.6,0,0,1,1.066,3.18v.1a5.036,5.036,0,0,1-.473,2.215A3.589,3.589,0,0,1,70.137-.391a3.743,3.743,0,0,1-2.02.547,3.556,3.556,0,0,1-2.785-1.2A4.575,4.575,0,0,1,64.266-4.2Zm1.453.172a3.616,3.616,0,0,0,.652,2.258,2.088,2.088,0,0,0,1.746.852,2.075,2.075,0,0,0,1.75-.863A3.955,3.955,0,0,0,70.516-4.3a3.61,3.61,0,0,0-.66-2.254A2.1,2.1,0,0,0,68.1-7.422a2.075,2.075,0,0,0-1.727.852A3.925,3.925,0,0,0,65.719-4.133Z" transform="translate(265.051 6687.625)" fill="#992c30"/>
    <path id="Trazado_896864" data-name="Trazado 896864" d="M3.258-11.375,6.977-2.094,10.7-11.375h1.945V0h-1.5V-4.43l.141-4.781L7.547,0H6.4L2.672-9.187,2.82-4.43V0H1.32V-11.375ZM20.281,0a3.036,3.036,0,0,1-.2-.891A3.225,3.225,0,0,1,17.672.156a2.984,2.984,0,0,1-2.051-.707,2.287,2.287,0,0,1-.8-1.793,2.39,2.39,0,0,1,1-2.051,4.733,4.733,0,0,1,2.824-.73h1.406v-.664A1.623,1.623,0,0,0,19.6-7a1.821,1.821,0,0,0-1.336-.449,2.108,2.108,0,0,0-1.3.391,1.151,1.151,0,0,0-.523.945H14.992a2,2,0,0,1,.449-1.223,3.066,3.066,0,0,1,1.219-.934,4.1,4.1,0,0,1,1.691-.344,3.342,3.342,0,0,1,2.289.73A2.635,2.635,0,0,1,21.5-5.867v3.891a4.757,4.757,0,0,0,.3,1.852V0Zm-2.4-1.1a2.54,2.54,0,0,0,1.289-.352,2.127,2.127,0,0,0,.883-.914V-4.1H18.922q-2.656,0-2.656,1.555a1.316,1.316,0,0,0,.453,1.063A1.742,1.742,0,0,0,17.883-1.1Zm7.25-7.352.047,1.063a3.08,3.08,0,0,1,2.531-1.219q2.68,0,2.7,3.023V0H28.969V-5.594a1.946,1.946,0,0,0-.418-1.352,1.675,1.675,0,0,0-1.277-.437,2.086,2.086,0,0,0-1.234.375,2.546,2.546,0,0,0-.828.984V0H23.766V-8.453ZM32.211-4.3A4.993,4.993,0,0,1,32.7-6.539,3.643,3.643,0,0,1,34.059-8.07a3.7,3.7,0,0,1,1.988-.539,3.565,3.565,0,0,1,2.793,1.2,4.6,4.6,0,0,1,1.066,3.18v.1a5.036,5.036,0,0,1-.473,2.215A3.589,3.589,0,0,1,38.082-.391a3.743,3.743,0,0,1-2.02.547,3.556,3.556,0,0,1-2.785-1.2A4.575,4.575,0,0,1,32.211-4.2Zm1.453.172a3.616,3.616,0,0,0,.652,2.258,2.088,2.088,0,0,0,1.746.852,2.075,2.075,0,0,0,1.75-.863A3.955,3.955,0,0,0,38.461-4.3a3.61,3.61,0,0,0-.66-2.254,2.1,2.1,0,0,0-1.754-.863,2.075,2.075,0,0,0-1.727.852A3.925,3.925,0,0,0,33.664-4.133Z" transform="translate(265.051 6751.625)" fill="#992c30"/>
    <path id="Trazado_896865" data-name="Trazado 896865" d="M-43.562-3.7a4.107,4.107,0,0,1-1.344,2.84A4.581,4.581,0,0,1-48.023.156a4.436,4.436,0,0,1-2.395-.645,4.231,4.231,0,0,1-1.6-1.832A6.611,6.611,0,0,1-52.6-5.078V-6.141a6.659,6.659,0,0,1,.57-2.836,4.3,4.3,0,0,1,1.637-1.891,4.566,4.566,0,0,1,2.465-.664A4.386,4.386,0,0,1-44.9-10.508a4.276,4.276,0,0,1,1.336,2.891h-1.969a2.81,2.81,0,0,0-.715-1.77A2.363,2.363,0,0,0-47.93-9.93a2.309,2.309,0,0,0-1.98.941,4.7,4.7,0,0,0-.707,2.762v1.008a4.988,4.988,0,0,0,.66,2.813,2.191,2.191,0,0,0,1.934.969,2.555,2.555,0,0,0,1.75-.523A2.729,2.729,0,0,0-45.531-3.7ZM-36.93,0a2.93,2.93,0,0,1-.219-.789,2.955,2.955,0,0,1-2.219.945A2.982,2.982,0,0,1-41.445-.57a2.325,2.325,0,0,1-.8-1.8,2.4,2.4,0,0,1,1-2.074,4.865,4.865,0,0,1,2.871-.723h1.164v-.555a1.481,1.481,0,0,0-.367-1.051A1.456,1.456,0,0,0-38.7-7.164a1.672,1.672,0,0,0-1.062.324,1,1,0,0,0-.414.824h-1.9a2.107,2.107,0,0,1,.461-1.3,3.071,3.071,0,0,1,1.254-.949,4.4,4.4,0,0,1,1.77-.344,3.547,3.547,0,0,1,2.367.746,2.661,2.661,0,0,1,.906,2.1v3.813a4.321,4.321,0,0,0,.32,1.82V0Zm-2.086-1.367a2.16,2.16,0,0,0,1.059-.273,1.827,1.827,0,0,0,.746-.734V-3.969h-1.023A2.8,2.8,0,0,0-39.82-3.6a1.189,1.189,0,0,0-.531,1.039,1.109,1.109,0,0,0,.363.871A1.407,1.407,0,0,0-39.016-1.367Zm13.109-2.773a5.078,5.078,0,0,1-.879,3.133A2.863,2.863,0,0,1-29.2.156a2.758,2.758,0,0,1-2.312-1.07L-31.609,0h-1.719V-12h1.9v4.359a2.748,2.748,0,0,1,2.211-.969,2.9,2.9,0,0,1,2.43,1.148,5.162,5.162,0,0,1,.883,3.211ZM-27.8-4.3a3.589,3.589,0,0,0-.484-2.062A1.613,1.613,0,0,0-29.7-7.055,1.763,1.763,0,0,0-31.43-5.977v3.484a1.781,1.781,0,0,0,1.75,1.1A1.6,1.6,0,0,0-28.3-2.055a3.477,3.477,0,0,0,.5-2.008ZM-20.594.156A3.928,3.928,0,0,1-23.52-.98a4.124,4.124,0,0,1-1.121-3.027v-.234A5.072,5.072,0,0,1-24.152-6.5a3.716,3.716,0,0,1,1.371-1.551,3.625,3.625,0,0,1,1.969-.555,3.318,3.318,0,0,1,2.668,1.1A4.658,4.658,0,0,1-17.2-4.391v.766h-5.523a2.539,2.539,0,0,0,.7,1.656,2.1,2.1,0,0,0,1.543.609,2.571,2.571,0,0,0,2.125-1.055l1.023.977A3.418,3.418,0,0,1-18.691-.262,4.244,4.244,0,0,1-20.594.156Zm-.227-7.242a1.6,1.6,0,0,0-1.262.547A2.835,2.835,0,0,0-22.7-5.016h3.617v-.141A2.307,2.307,0,0,0-19.586-6.6,1.586,1.586,0,0,0-20.82-7.086Zm7.117,5.57h4.5V0h-6.859V-1.242l4.289-5.68h-4.211V-8.453h6.617v1.2ZM-2.633,0a2.93,2.93,0,0,1-.219-.789A2.955,2.955,0,0,1-5.07.156,2.982,2.982,0,0,1-7.148-.57a2.325,2.325,0,0,1-.8-1.8,2.4,2.4,0,0,1,1-2.074,4.865,4.865,0,0,1,2.871-.723h1.164v-.555A1.481,1.481,0,0,0-3.281-6.77,1.456,1.456,0,0,0-4.4-7.164a1.672,1.672,0,0,0-1.062.324,1,1,0,0,0-.414.824h-1.9a2.107,2.107,0,0,1,.461-1.3,3.071,3.071,0,0,1,1.254-.949,4.4,4.4,0,0,1,1.77-.344,3.547,3.547,0,0,1,2.367.746,2.661,2.661,0,0,1,.906,2.1v3.813A4.321,4.321,0,0,0-.7-.133V0ZM-4.719-1.367A2.159,2.159,0,0,0-3.66-1.641a1.827,1.827,0,0,0,.746-.734V-3.969H-3.937A2.8,2.8,0,0,0-5.523-3.6a1.189,1.189,0,0,0-.531,1.039,1.109,1.109,0,0,0,.363.871A1.407,1.407,0,0,0-4.719-1.367Z" transform="translate(419.102 6452.868)" fill="#72688d"/>
    <path id="Trazado_896866" data-name="Trazado 896866" d="M-40.664-9.781h-3.547V0h-1.961V-9.781h-3.516v-1.594h9.023Zm5.227,3.063a4.7,4.7,0,0,0-.773-.062,1.741,1.741,0,0,0-1.758,1V0h-1.9V-8.453h1.813l.047.945a2.139,2.139,0,0,1,1.906-1.1,1.777,1.777,0,0,1,.672.109Zm.563,2.414a4.984,4.984,0,0,1,.492-2.238A3.6,3.6,0,0,1-33-8.074a3.9,3.9,0,0,1,2.047-.535,3.692,3.692,0,0,1,2.777,1.1,4.333,4.333,0,0,1,1.152,2.922l.008.445a5.029,5.029,0,0,1-.48,2.234A3.551,3.551,0,0,1-28.871-.383a3.925,3.925,0,0,1-2.066.539A3.667,3.667,0,0,1-33.8-1.035a4.563,4.563,0,0,1-1.074-3.176Zm1.9.164A3.406,3.406,0,0,0-32.437-2.1a1.752,1.752,0,0,0,1.5.738,1.733,1.733,0,0,0,1.5-.75,3.762,3.762,0,0,0,.535-2.2,3.362,3.362,0,0,0-.551-2.031,1.759,1.759,0,0,0-1.5-.75,1.743,1.743,0,0,0-1.477.738A3.691,3.691,0,0,0-32.977-4.141Zm9.328-4.312.055.977a3.039,3.039,0,0,1,2.461-1.133q2.641,0,2.688,3.023V0h-1.9V-5.477a1.741,1.741,0,0,0-.348-1.191,1.462,1.462,0,0,0-1.137-.387,1.829,1.829,0,0,0-1.711,1.039V0h-1.9V-8.453Zm10.609,7.094a1.716,1.716,0,0,0,1.18-.414,1.415,1.415,0,0,0,.5-1.023H-9.57a2.789,2.789,0,0,1-.492,1.473,3.228,3.228,0,0,1-1.25,1.082,3.725,3.725,0,0,1-1.7.4A3.6,3.6,0,0,1-15.828-.992a4.555,4.555,0,0,1-1.039-3.172v-.2a4.479,4.479,0,0,1,1.031-3.09,3.571,3.571,0,0,1,2.813-1.16,3.473,3.473,0,0,1,2.457.879,3.148,3.148,0,0,1,1,2.309h-1.789a1.738,1.738,0,0,0-.5-1.2,1.6,1.6,0,0,0-1.184-.469,1.671,1.671,0,0,0-1.422.668,3.408,3.408,0,0,0-.508,2.027v.3a3.465,3.465,0,0,0,.5,2.051A1.669,1.669,0,0,0-13.039-1.359ZM-8.492-4.3A4.984,4.984,0,0,1-8-6.543,3.6,3.6,0,0,1-6.617-8.074,3.9,3.9,0,0,1-4.57-8.609a3.692,3.692,0,0,1,2.777,1.1A4.333,4.333,0,0,1-.641-4.586l.008.445a5.029,5.029,0,0,1-.48,2.234A3.551,3.551,0,0,1-2.488-.383,3.925,3.925,0,0,1-4.555.156,3.667,3.667,0,0,1-7.418-1.035,4.563,4.563,0,0,1-8.492-4.211Zm1.9.164A3.406,3.406,0,0,0-6.055-2.1a1.752,1.752,0,0,0,1.5.738,1.733,1.733,0,0,0,1.5-.75,3.762,3.762,0,0,0,.535-2.2,3.362,3.362,0,0,0-.551-2.031,1.759,1.759,0,0,0-1.5-.75,1.743,1.743,0,0,0-1.477.738A3.691,3.691,0,0,0-6.594-4.141Z" transform="translate(705.102 6603.868)" fill="#72688d"/>
    <path id="Trazado_896867" data-name="Trazado 896867" d="M-60.344-11.375l3.281,8.719,3.273-8.719h2.555V0H-53.2V-3.75l.2-5.016L-56.367,0h-1.414l-3.352-8.758.2,5.008V0h-1.969V-11.375ZM-47.062,0h-1.9V-8.453h1.9Zm-2.016-10.648a1.008,1.008,0,0,1,.277-.727,1.048,1.048,0,0,1,.793-.289,1.061,1.061,0,0,1,.8.289,1,1,0,0,1,.281.727.977.977,0,0,1-.281.715,1.069,1.069,0,0,1-.8.285,1.056,1.056,0,0,1-.793-.285A.984.984,0,0,1-49.078-10.648Zm7.8,10.8A3.928,3.928,0,0,1-44.2-.98,4.124,4.124,0,0,1-45.32-4.008v-.234A5.072,5.072,0,0,1-44.832-6.5a3.716,3.716,0,0,1,1.371-1.551,3.625,3.625,0,0,1,1.969-.555,3.318,3.318,0,0,1,2.668,1.1,4.658,4.658,0,0,1,.941,3.117v.766h-5.523a2.539,2.539,0,0,0,.7,1.656,2.1,2.1,0,0,0,1.543.609,2.571,2.571,0,0,0,2.125-1.055l1.023.977A3.418,3.418,0,0,1-39.371-.262,4.244,4.244,0,0,1-41.273.156ZM-41.5-7.086a1.6,1.6,0,0,0-1.262.547,2.835,2.835,0,0,0-.613,1.523h3.617v-.141A2.307,2.307,0,0,0-40.266-6.6,1.586,1.586,0,0,0-41.5-7.086Zm6.875-1.367.055.883a3.042,3.042,0,0,1,2.438-1.039,2.337,2.337,0,0,1,2.32,1.3,3,3,0,0,1,2.594-1.3,2.636,2.636,0,0,1,2.082.773,3.405,3.405,0,0,1,.7,2.281V0h-1.9V-5.5a1.681,1.681,0,0,0-.352-1.18,1.539,1.539,0,0,0-1.164-.375,1.581,1.581,0,0,0-1.059.348,1.833,1.833,0,0,0-.574.91l.008,5.8h-1.9V-5.562A1.354,1.354,0,0,0-32.9-7.055a1.671,1.671,0,0,0-1.617.93V0h-1.9V-8.453ZM-15.07-4.141a5.078,5.078,0,0,1-.879,3.133A2.863,2.863,0,0,1-18.367.156,2.758,2.758,0,0,1-20.68-.914L-20.773,0h-1.719V-12h1.9v4.359a2.748,2.748,0,0,1,2.211-.969,2.9,2.9,0,0,1,2.43,1.148A5.162,5.162,0,0,1-15.07-4.25Zm-1.9-.164a3.589,3.589,0,0,0-.484-2.062,1.613,1.613,0,0,0-1.406-.687,1.763,1.763,0,0,0-1.734,1.078v3.484a1.781,1.781,0,0,0,1.75,1.1,1.6,1.6,0,0,0,1.375-.664,3.477,3.477,0,0,0,.5-2.008Zm7.914-2.414a4.7,4.7,0,0,0-.773-.062,1.741,1.741,0,0,0-1.758,1V0h-1.9V-8.453h1.813l.047.945a2.139,2.139,0,0,1,1.906-1.1,1.777,1.777,0,0,1,.672.109ZM-8.492-4.3A4.984,4.984,0,0,1-8-6.543,3.6,3.6,0,0,1-6.617-8.074,3.9,3.9,0,0,1-4.57-8.609a3.692,3.692,0,0,1,2.777,1.1A4.333,4.333,0,0,1-.641-4.586l.008.445a5.029,5.029,0,0,1-.48,2.234A3.551,3.551,0,0,1-2.488-.383,3.925,3.925,0,0,1-4.555.156,3.667,3.667,0,0,1-7.418-1.035,4.563,4.563,0,0,1-8.492-4.211Zm1.9.164A3.406,3.406,0,0,0-6.055-2.1a1.752,1.752,0,0,0,1.5.738,1.733,1.733,0,0,0,1.5-.75,3.762,3.762,0,0,0,.535-2.2,3.362,3.362,0,0,0-.551-2.031,1.759,1.759,0,0,0-1.5-.75,1.743,1.743,0,0,0-1.477.738A3.691,3.691,0,0,0-6.594-4.141ZM-53.477,22.7a.861.861,0,0,0-.418-.773,4.445,4.445,0,0,0-1.387-.469,7.129,7.129,0,0,1-1.617-.516,2.158,2.158,0,0,1-1.422-1.992,2.25,2.25,0,0,1,.922-1.828,3.644,3.644,0,0,1,2.344-.734,3.792,3.792,0,0,1,2.449.75,2.38,2.38,0,0,1,.934,1.945h-1.9a1.17,1.17,0,0,0-.406-.91,1.557,1.557,0,0,0-1.078-.363,1.682,1.682,0,0,0-1.02.289.911.911,0,0,0-.395.773.769.769,0,0,0,.367.68,5.049,5.049,0,0,0,1.484.488,7.027,7.027,0,0,1,1.754.586,2.484,2.484,0,0,1,.945.816,2.082,2.082,0,0,1,.309,1.156,2.2,2.2,0,0,1-.945,1.848,4.031,4.031,0,0,1-2.477.707,4.371,4.371,0,0,1-1.852-.375,3.047,3.047,0,0,1-1.266-1.031,2.441,2.441,0,0,1-.453-1.414h1.844a1.338,1.338,0,0,0,.508,1.035,1.973,1.973,0,0,0,1.242.363,1.92,1.92,0,0,0,1.141-.285A.883.883,0,0,0-53.477,22.7Zm8.641,1.469a2.944,2.944,0,0,1-2.375.984,2.624,2.624,0,0,1-2.082-.8A3.423,3.423,0,0,1-50,22.023V16.547h1.9V22q0,1.609,1.336,1.609a1.876,1.876,0,0,0,1.867-.992v-6.07H-43V25h-1.789Zm11.172-3.312a5.033,5.033,0,0,1-.891,3.129,2.852,2.852,0,0,1-2.391,1.168,2.871,2.871,0,0,1-2.227-.914V28.25h-1.9v-11.7h1.75l.078.859a2.788,2.788,0,0,1,2.273-1.016,2.881,2.881,0,0,1,2.426,1.152,5.167,5.167,0,0,1,.879,3.2Zm-1.891-.164a3.526,3.526,0,0,0-.5-2.008,1.638,1.638,0,0,0-1.441-.742,1.747,1.747,0,0,0-1.672.961v3.75a1.763,1.763,0,0,0,1.688.984,1.636,1.636,0,0,0,1.418-.73A3.881,3.881,0,0,0-35.555,20.7Zm7.219,4.461a3.928,3.928,0,0,1-2.926-1.137,4.124,4.124,0,0,1-1.121-3.027v-.234a5.072,5.072,0,0,1,.488-2.262,3.716,3.716,0,0,1,1.371-1.551,3.625,3.625,0,0,1,1.969-.555,3.318,3.318,0,0,1,2.668,1.1,4.658,4.658,0,0,1,.941,3.117v.766h-5.523a2.539,2.539,0,0,0,.7,1.656,2.1,2.1,0,0,0,1.543.609A2.571,2.571,0,0,0-26.1,22.586l1.023.977a3.418,3.418,0,0,1-1.355,1.176A4.244,4.244,0,0,1-28.336,25.156Zm-.227-7.242a1.6,1.6,0,0,0-1.262.547,2.835,2.835,0,0,0-.613,1.523h3.617v-.141a2.307,2.307,0,0,0-.508-1.441A1.586,1.586,0,0,0-28.562,17.914Zm9.516.367a4.7,4.7,0,0,0-.773-.062,1.741,1.741,0,0,0-1.758,1V25h-1.9V16.547h1.813l.047.945a2.139,2.139,0,0,1,1.906-1.1,1.777,1.777,0,0,1,.672.109ZM-15.828,25h-1.9V16.547h1.9Zm-2.016-10.648a1.008,1.008,0,0,1,.277-.727,1.048,1.048,0,0,1,.793-.289,1.061,1.061,0,0,1,.8.289,1,1,0,0,1,.281.727.977.977,0,0,1-.281.715,1.069,1.069,0,0,1-.8.285,1.056,1.056,0,0,1-.793-.285A.984.984,0,0,1-17.844,14.352Zm3.727,6.344a4.984,4.984,0,0,1,.492-2.238,3.6,3.6,0,0,1,1.383-1.531,3.9,3.9,0,0,1,2.047-.535,3.692,3.692,0,0,1,2.777,1.1,4.333,4.333,0,0,1,1.152,2.922l.008.445a5.029,5.029,0,0,1-.48,2.234,3.551,3.551,0,0,1-1.375,1.523,3.925,3.925,0,0,1-2.066.539,3.667,3.667,0,0,1-2.863-1.191,4.563,4.563,0,0,1-1.074-3.176Zm1.9.164A3.406,3.406,0,0,0-11.68,22.9a1.752,1.752,0,0,0,1.5.738,1.733,1.733,0,0,0,1.5-.75,3.762,3.762,0,0,0,.535-2.2A3.362,3.362,0,0,0-8.7,18.664a1.759,1.759,0,0,0-1.5-.75,1.743,1.743,0,0,0-1.477.738A3.691,3.691,0,0,0-12.219,20.859ZM-.227,18.281A4.7,4.7,0,0,0-1,18.219a1.741,1.741,0,0,0-1.758,1V25h-1.9V16.547h1.813l.047.945a2.139,2.139,0,0,1,1.906-1.1,1.777,1.777,0,0,1,.672.109Z" transform="translate(349.102 6540.868)" fill="#72688d"/>
    <path id="Trazado_896868" data-name="Trazado 896868" d="M-73.547-5.078h-4.672v3.5h5.461V0H-80.2V-11.375h7.383v1.594h-5.406v3.141h4.672Zm5.25-.594,1.609-2.781h2.109l-2.586,4.164L-64.492,0h-2.094l-1.687-2.891L-69.953,0h-2.109l2.672-4.289-2.578-4.164h2.094Zm7.391-4.836v2.055h1.492v1.406h-1.492v4.719a1.039,1.039,0,0,0,.191.7.888.888,0,0,0,.684.215,2.924,2.924,0,0,0,.664-.078V-.023a4.676,4.676,0,0,1-1.25.18Q-62.8.156-62.8-2.258V-7.047H-64.2V-8.453H-62.8v-2.055Zm7.367,3.789a4.7,4.7,0,0,0-.773-.062,1.741,1.741,0,0,0-1.758,1V0h-1.9V-8.453h1.813l.047.945a2.139,2.139,0,0,1,1.906-1.1,1.777,1.777,0,0,1,.672.109ZM-48.617.156A3.928,3.928,0,0,1-51.543-.98a4.124,4.124,0,0,1-1.121-3.027v-.234A5.072,5.072,0,0,1-52.176-6.5,3.716,3.716,0,0,1-50.8-8.055a3.625,3.625,0,0,1,1.969-.555,3.318,3.318,0,0,1,2.668,1.1,4.658,4.658,0,0,1,.941,3.117v.766H-50.75a2.539,2.539,0,0,0,.7,1.656,2.1,2.1,0,0,0,1.543.609,2.571,2.571,0,0,0,2.125-1.055l1.023.977A3.418,3.418,0,0,1-46.715-.262,4.244,4.244,0,0,1-48.617.156Zm-.227-7.242a1.6,1.6,0,0,0-1.262.547,2.835,2.835,0,0,0-.613,1.523H-47.1v-.141A2.307,2.307,0,0,0-47.609-6.6,1.586,1.586,0,0,0-48.844-7.086Zm6.875-1.367.055.883a3.042,3.042,0,0,1,2.438-1.039,2.337,2.337,0,0,1,2.32,1.3,3,3,0,0,1,2.594-1.3,2.636,2.636,0,0,1,2.082.773,3.405,3.405,0,0,1,.7,2.281V0h-1.9V-5.5a1.681,1.681,0,0,0-.352-1.18A1.539,1.539,0,0,0-35.2-7.055a1.581,1.581,0,0,0-1.059.348,1.833,1.833,0,0,0-.574.91L-36.82,0h-1.9V-5.562a1.354,1.354,0,0,0-1.523-1.492,1.671,1.671,0,0,0-1.617.93V0h-1.9V-8.453ZM-27.812,0h-1.9V-8.453h1.9Zm-2.016-10.648a1.008,1.008,0,0,1,.277-.727,1.048,1.048,0,0,1,.793-.289,1.061,1.061,0,0,1,.8.289,1,1,0,0,1,.281.727.977.977,0,0,1-.281.715,1.069,1.069,0,0,1-.8.285,1.056,1.056,0,0,1-.793-.285A.984.984,0,0,1-29.828-10.648ZM-26.1-4.289A5.026,5.026,0,0,1-25.2-7.426a2.9,2.9,0,0,1,2.43-1.184,2.759,2.759,0,0,1,2.172.938V-12h1.9V0h-1.719l-.094-.875A2.8,2.8,0,0,1-22.781.156a2.887,2.887,0,0,1-2.4-1.2A5.21,5.21,0,0,1-26.1-4.289Zm1.9.164a3.519,3.519,0,0,0,.5,2.012,1.61,1.61,0,0,0,1.41.723,1.793,1.793,0,0,0,1.7-1.039V-6.039a1.766,1.766,0,0,0-1.687-1.016,1.622,1.622,0,0,0-1.422.73A3.918,3.918,0,0,0-24.2-4.125ZM-11.664,0a2.93,2.93,0,0,1-.219-.789A2.955,2.955,0,0,1-14.1.156,2.982,2.982,0,0,1-16.18-.57a2.325,2.325,0,0,1-.8-1.8,2.4,2.4,0,0,1,1-2.074,4.865,4.865,0,0,1,2.871-.723h1.164v-.555a1.481,1.481,0,0,0-.367-1.051,1.456,1.456,0,0,0-1.117-.395,1.672,1.672,0,0,0-1.062.324,1,1,0,0,0-.414.824h-1.9a2.107,2.107,0,0,1,.461-1.3,3.071,3.071,0,0,1,1.254-.949,4.4,4.4,0,0,1,1.77-.344,3.547,3.547,0,0,1,2.367.746,2.661,2.661,0,0,1,.906,2.1v3.813a4.321,4.321,0,0,0,.32,1.82V0ZM-13.75-1.367a2.159,2.159,0,0,0,1.059-.273,1.827,1.827,0,0,0,.746-.734V-3.969h-1.023a2.8,2.8,0,0,0-1.586.367,1.189,1.189,0,0,0-.531,1.039,1.109,1.109,0,0,0,.363.871A1.407,1.407,0,0,0-13.75-1.367Zm5.336-2.922a5.026,5.026,0,0,1,.906-3.137,2.9,2.9,0,0,1,2.43-1.184,2.759,2.759,0,0,1,2.172.938V-12h1.9V0H-2.727L-2.82-.875A2.8,2.8,0,0,1-5.094.156a2.887,2.887,0,0,1-2.4-1.2A5.21,5.21,0,0,1-8.414-4.289Zm1.9.164a3.519,3.519,0,0,0,.5,2.012,1.61,1.61,0,0,0,1.41.723,1.793,1.793,0,0,0,1.7-1.039V-6.039A1.766,1.766,0,0,0-4.594-7.055a1.622,1.622,0,0,0-1.422.73A3.918,3.918,0,0,0-6.516-4.125ZM-76.453,20.7a4.984,4.984,0,0,1,.492-2.238,3.6,3.6,0,0,1,1.383-1.531,3.9,3.9,0,0,1,2.047-.535,3.692,3.692,0,0,1,2.777,1.1A4.333,4.333,0,0,1-68.6,20.414l.008.445a5.029,5.029,0,0,1-.48,2.234,3.551,3.551,0,0,1-1.375,1.523,3.925,3.925,0,0,1-2.066.539,3.667,3.667,0,0,1-2.863-1.191,4.563,4.563,0,0,1-1.074-3.176Zm1.9.164a3.406,3.406,0,0,0,.539,2.043,1.752,1.752,0,0,0,1.5.738,1.733,1.733,0,0,0,1.5-.75,3.762,3.762,0,0,0,.535-2.2,3.362,3.362,0,0,0-.551-2.031,1.759,1.759,0,0,0-1.5-.75,1.743,1.743,0,0,0-1.477.738A3.691,3.691,0,0,0-74.555,20.859Zm13.336-4.312.055.883a3.042,3.042,0,0,1,2.438-1.039,2.337,2.337,0,0,1,2.32,1.3,3,3,0,0,1,2.594-1.3,2.636,2.636,0,0,1,2.082.773,3.405,3.405,0,0,1,.7,2.281V25h-1.9V19.5a1.681,1.681,0,0,0-.352-1.18,1.539,1.539,0,0,0-1.164-.375,1.581,1.581,0,0,0-1.059.348,1.833,1.833,0,0,0-.574.91l.008,5.8h-1.9V19.438a1.354,1.354,0,0,0-1.523-1.492,1.671,1.671,0,0,0-1.617.93V25h-1.9V16.547ZM-47.062,25h-1.9V16.547h1.9Zm-2.016-10.648a1.008,1.008,0,0,1,.277-.727,1.048,1.048,0,0,1,.793-.289,1.061,1.061,0,0,1,.8.289,1,1,0,0,1,.281.727.977.977,0,0,1-.281.715,1.069,1.069,0,0,1-.8.285,1.056,1.056,0,0,1-.793-.285A.984.984,0,0,1-49.078,14.352Zm7.8,10.8A3.928,3.928,0,0,1-44.2,24.02a4.124,4.124,0,0,1-1.121-3.027v-.234a5.072,5.072,0,0,1,.488-2.262,3.716,3.716,0,0,1,1.371-1.551,3.625,3.625,0,0,1,1.969-.555,3.318,3.318,0,0,1,2.668,1.1,4.658,4.658,0,0,1,.941,3.117v.766h-5.523a2.539,2.539,0,0,0,.7,1.656,2.1,2.1,0,0,0,1.543.609,2.571,2.571,0,0,0,2.125-1.055l1.023.977a3.418,3.418,0,0,1-1.355,1.176A4.244,4.244,0,0,1-41.273,25.156Zm-.227-7.242a1.6,1.6,0,0,0-1.262.547,2.835,2.835,0,0,0-.613,1.523h3.617v-.141a2.307,2.307,0,0,0-.508-1.441A1.586,1.586,0,0,0-41.5,17.914Zm6.875-1.367.055.883a3.042,3.042,0,0,1,2.438-1.039,2.337,2.337,0,0,1,2.32,1.3,3,3,0,0,1,2.594-1.3,2.636,2.636,0,0,1,2.082.773,3.405,3.405,0,0,1,.7,2.281V25h-1.9V19.5a1.681,1.681,0,0,0-.352-1.18,1.539,1.539,0,0,0-1.164-.375,1.581,1.581,0,0,0-1.059.348,1.833,1.833,0,0,0-.574.91l.008,5.8h-1.9V19.438A1.354,1.354,0,0,0-32.9,17.945a1.671,1.671,0,0,0-1.617.93V25h-1.9V16.547Zm19.555,4.313a5.078,5.078,0,0,1-.879,3.133,2.863,2.863,0,0,1-2.418,1.164,2.758,2.758,0,0,1-2.312-1.07l-.094.914h-1.719V13h1.9v4.359a2.748,2.748,0,0,1,2.211-.969,2.9,2.9,0,0,1,2.43,1.148,5.162,5.162,0,0,1,.883,3.211Zm-1.9-.164a3.589,3.589,0,0,0-.484-2.062,1.613,1.613,0,0,0-1.406-.687,1.763,1.763,0,0,0-1.734,1.078v3.484a1.781,1.781,0,0,0,1.75,1.1,1.6,1.6,0,0,0,1.375-.664,3.477,3.477,0,0,0,.5-2.008Zm7.914-2.414a4.7,4.7,0,0,0-.773-.062,1.741,1.741,0,0,0-1.758,1V25h-1.9V16.547h1.813l.047.945a2.139,2.139,0,0,1,1.906-1.1,1.777,1.777,0,0,1,.672.109Zm.563,2.414A4.984,4.984,0,0,1-8,18.457a3.6,3.6,0,0,1,1.383-1.531,3.9,3.9,0,0,1,2.047-.535,3.692,3.692,0,0,1,2.777,1.1A4.333,4.333,0,0,1-.641,20.414l.008.445a5.029,5.029,0,0,1-.48,2.234,3.551,3.551,0,0,1-1.375,1.523,3.925,3.925,0,0,1-2.066.539,3.667,3.667,0,0,1-2.863-1.191,4.563,4.563,0,0,1-1.074-3.176Zm1.9.164A3.406,3.406,0,0,0-6.055,22.9a1.752,1.752,0,0,0,1.5.738,1.733,1.733,0,0,0,1.5-.75,3.762,3.762,0,0,0,.535-2.2,3.362,3.362,0,0,0-.551-2.031,1.759,1.759,0,0,0-1.5-.75,1.743,1.743,0,0,0-1.477.738A3.691,3.691,0,0,0-6.594,20.859ZM-48.7,50h-1.9V41.547h1.9Zm-2.016-10.648a1.008,1.008,0,0,1,.277-.727,1.048,1.048,0,0,1,.793-.289,1.061,1.061,0,0,1,.8.289,1,1,0,0,1,.281.727.977.977,0,0,1-.281.715,1.069,1.069,0,0,1-.8.285,1.056,1.056,0,0,1-.793-.285A.984.984,0,0,1-50.711,39.352Zm5.844,2.2.055.977a3.039,3.039,0,0,1,2.461-1.133q2.641,0,2.688,3.023V50h-1.9V44.523a1.741,1.741,0,0,0-.348-1.191,1.462,1.462,0,0,0-1.137-.387,1.829,1.829,0,0,0-1.711,1.039V50h-1.9V41.547Zm7.8,8.453V42.953h-1.289V41.547h1.289v-.773a2.9,2.9,0,0,1,.781-2.172,2.993,2.993,0,0,1,2.188-.766,4.388,4.388,0,0,1,1.063.141l-.047,1.484A3.739,3.739,0,0,0-33.8,39.4a1.219,1.219,0,0,0-1.359,1.4v.75h1.719v1.406h-1.719V50Zm8.727.156a3.928,3.928,0,0,1-2.926-1.137,4.124,4.124,0,0,1-1.121-3.027v-.234a5.072,5.072,0,0,1,.488-2.262,3.716,3.716,0,0,1,1.371-1.551,3.625,3.625,0,0,1,1.969-.555,3.318,3.318,0,0,1,2.668,1.1,4.658,4.658,0,0,1,.941,3.117v.766h-5.523a2.539,2.539,0,0,0,.7,1.656,2.1,2.1,0,0,0,1.543.609A2.571,2.571,0,0,0-26.1,47.586l1.023.977a3.418,3.418,0,0,1-1.355,1.176A4.244,4.244,0,0,1-28.336,50.156Zm-.227-7.242a1.6,1.6,0,0,0-1.262.547,2.835,2.835,0,0,0-.613,1.523h3.617v-.141a2.307,2.307,0,0,0-.508-1.441A1.586,1.586,0,0,0-28.562,42.914Zm9.516.367a4.7,4.7,0,0,0-.773-.062,1.741,1.741,0,0,0-1.758,1V50h-1.9V41.547h1.813l.047.945a2.139,2.139,0,0,1,1.906-1.1,1.777,1.777,0,0,1,.672.109ZM-15.828,50h-1.9V41.547h1.9Zm-2.016-10.648a1.008,1.008,0,0,1,.277-.727,1.048,1.048,0,0,1,.793-.289,1.061,1.061,0,0,1,.8.289,1,1,0,0,1,.281.727.977.977,0,0,1-.281.715,1.069,1.069,0,0,1-.8.285,1.056,1.056,0,0,1-.793-.285A.984.984,0,0,1-17.844,39.352Zm3.727,6.344a4.984,4.984,0,0,1,.492-2.238,3.6,3.6,0,0,1,1.383-1.531,3.9,3.9,0,0,1,2.047-.535,3.692,3.692,0,0,1,2.777,1.1,4.333,4.333,0,0,1,1.152,2.922l.008.445a5.029,5.029,0,0,1-.48,2.234,3.551,3.551,0,0,1-1.375,1.523,3.925,3.925,0,0,1-2.066.539,3.667,3.667,0,0,1-2.863-1.191,4.563,4.563,0,0,1-1.074-3.176Zm1.9.164A3.406,3.406,0,0,0-11.68,47.9a1.752,1.752,0,0,0,1.5.738,1.733,1.733,0,0,0,1.5-.75,3.762,3.762,0,0,0,.535-2.2A3.362,3.362,0,0,0-8.7,43.664a1.759,1.759,0,0,0-1.5-.75,1.743,1.743,0,0,0-1.477.738A3.691,3.691,0,0,0-12.219,45.859ZM-.227,43.281A4.7,4.7,0,0,0-1,43.219a1.741,1.741,0,0,0-1.758,1V50h-1.9V41.547h1.813l.047.945a2.139,2.139,0,0,1,1.906-1.1,1.777,1.777,0,0,1,.672.109Z" transform="translate(346.102 6867.868)" fill="#72688d"/>
  </g>
</svg>
