<svg xmlns="http://www.w3.org/2000/svg" xmlns:xlink="http://www.w3.org/1999/xlink" width="1030" height="479.915" viewBox="0 0 1030 479.915">
  <defs>
    <clipPath id="clip-path">
      <rect id="Rectángulo_407236" data-name="Rectángulo 407236" width="101.746" height="478.52" fill="none"/>
    </clipPath>
    <clipPath id="clip-path-2">
      <rect id="Rectángulo_407247" data-name="Rectángulo 407247" width="96.73" height="479.915" fill="none"/>
    </clipPath>
    <clipPath id="clip-path-3">
      <rect id="Rectángulo_407248" data-name="Rectángulo 407248" width="101.514" height="477.953" fill="none"/>
    </clipPath>
    <clipPath id="clip-path-4">
      <rect id="Rectángulo_407249" data-name="Rectángulo 407249" width="93.697" height="479.915" fill="none"/>
    </clipPath>
    <clipPath id="clip-path-5">
      <rect id="Rectángulo_407250" data-name="Rectángulo 407250" width="104.091" height="478.519" fill="none"/>
    </clipPath>
  </defs>
  <g id="Grupo_1113518" data-name="Grupo 1113518" transform="translate(-285 -7482.563)">
    <g id="Grupo_1113498" data-name="Grupo 1113498" transform="translate(-31.507)">
      <path id="Polígono_8" data-name="Polígono 8" d="M28,0,56,65H0Z" transform="translate(896.303 7961.409) rotate(180)" fill="#bdadea"/>
      <g id="Grupo_1113457" data-name="Grupo 1113457" transform="translate(766.557 7482.563)">
        <g id="Grupo_1113456" data-name="Grupo 1113456" clip-path="url(#clip-path)">
          <path id="Trazado_894995" data-name="Trazado 894995" d="M12.569,173a64.638,64.638,0,0,1,7.255-18.229c3.1-5.608,5.517-11.567,5.863-18.145.107-2.022.536-4.025.733-6.045a29.057,29.057,0,0,0-1.4-12.14c-1.661-4.985-3.2-10.011-4.785-15.021a.808.808,0,0,1-.03-.536c1.643-3.223,1.727-7.2,4.821-9.726a26.384,26.384,0,0,1,11.162-5.128,33.154,33.154,0,0,1,7.677-.794A22.241,22.241,0,0,1,54.416,90.1c1.832,1,3.725,2.612,6.119,1.415,2.754-1.378,5.461-2.841,8.341-3.964a14.432,14.432,0,0,1,9.975-.35,2.068,2.068,0,0,1,1.553,1.5,26.26,26.26,0,0,1,.606,14.456c-1,4.339-3.361,8.069-5.165,12.042-1.727,3.806-3.038,7.649-2.777,11.89.1,1.694-.287,3.362-.325,5.034-.11,4.8,1.469,9.25,3.29,13.6,2.87,6.856,6.661,13.258,10.045,19.856,1.821,3.553,1.447,6.595-.222,9.912a99.005,99.005,0,0,1-7.435,11.549c-4.217,6.105-9.579,11.245-14.451,16.8A38.367,38.367,0,0,1,52.3,213.219c-.424.212-.874.372-1.31.56-1.412.61-2.152.519-2.88-1.256A84.047,84.047,0,0,0,37.123,193.7a62.355,62.355,0,0,0-7.332-8.422,81.714,81.714,0,0,0-15.033-11.238c-.711-.4-1.638-.349-2.189-1.036" transform="translate(2.579 17.743)" fill="#fdd6cf"/>
          <path id="Trazado_894996" data-name="Trazado 894996" d="M11.265,66.886c-5.985-5.711-5.081-12.737.979-17.727,4.572-3.767,9.791-4.445,15.339-3.961a9.817,9.817,0,0,1,6.7,3.931c1.356,1.652,2.739,2.853,5.05,2.457.914-.155,1.97.172,1.678,1.286-.456,1.731-.017,3.373.086,5.038a6.256,6.256,0,0,1-1.726,4.623,22.883,22.883,0,0,1-8.853,6.392c-3.495,1.446-7.141,1.909-10.736,2.769-3.482.833-7.091,1.664-9.5,4.757-.674.865-1.512,1.566-2.644,1.011-1.177-.577-1.163-1.711-.987-2.856.483-3.139,2.211-5.544,4.613-7.72" transform="translate(1.347 9.245)" fill="#eacbc7"/>
          <path id="Trazado_894997" data-name="Trazado 894997" d="M81.171,53.257a8.166,8.166,0,0,1-.716,3.913,4.2,4.2,0,0,0,1.14,4.757,8.036,8.036,0,0,1,.706,10.8c-1.071,1.5-3.129,2.348-4.836,3.315a1.53,1.53,0,0,1-1.885-.748,2.851,2.851,0,0,0-2.421-1.306,7.013,7.013,0,0,1-3.732-1.265,2.072,2.072,0,0,0-1.364-.421A18.775,18.775,0,0,1,55.53,67.4a13.243,13.243,0,0,1-4.736-11.843c.67-5.309,4.932-6.409,9.211-4.739a6.666,6.666,0,0,0,8.018-2.4c3-4.858,7.117-5.105,11.045-1.531,1.849,1.681,1.9,4.088,2.1,6.375" transform="translate(10.399 9.12)" fill="#eacbc7"/>
          <path id="Trazado_895000" data-name="Trazado 895000" d="M43.01,17.3c-1.189-1.8-.921-3.4.915-5.455,3.224-3.607,9.05-3.7,12.884-.071,3.794,3.591,5.459,8.2,5.7,13.315.149,3.139-.371,6.315.363,9.422,1.282,5.423,4.189,9.581,9.57,11.618a4.68,4.68,0,0,0,4.172-.591c.533-.325,1.064-.654,1.769-1.089C77.7,46.259,76.7,46.784,73.5,47.166c1.305,1.421,2.982,2.138,4.457,3.124a6.552,6.552,0,0,1,2.771,3.019c.835,2.168-.306,5.735-3.34,7.206a22.73,22.73,0,0,0-4.064,2.368c-2.15,1.67-3.462,4.462-.289,6.938.239.187.446.412.682.6,2.267,1.816,2.233,3.755-.1,5.528-.294-.362.1-.553.228-.768,1.558-2.712,1.693-2.986-1.008-4.811-3.6-2.431-2.662-6.755.682-8.911a26.284,26.284,0,0,1,3.264-1.943,5.1,5.1,0,0,0,3.076-4.74c.058-1.745-1.32-2.884-2.776-3.765a16.5,16.5,0,0,1-4.427-3.665c-.728-.892-2.136-1.229-3.388-1.9a31.86,31.86,0,0,1-7.065,13.7c-.118.14-.331.275-.337.419-.2,4.369-1.311,8.793.829,13.019,1.85,3.65,5.282,5.252,8.823,6.467,3.341,1.146,6.859,1.775,10.289,2.667,5.615,1.461,10.525,7.52,11.049,13.542a232.133,232.133,0,0,0,5.45,34.3,146.665,146.665,0,0,1,3.376,21.981c.572,6.761-2.378,11.964-6.27,16.808a90.445,90.445,0,0,1-8.394,9.417,91.084,91.084,0,0,1,5.038,11.338c1.72,4.666,2.369,9.61,3.69,14.386,1.844,6.66,2.309,13.535,2.526,20.425a188.551,188.551,0,0,1-.482,19.966,132.705,132.705,0,0,1-2.263,14.861c-2,10.51-5.238,20.69-8.39,30.9-2.937,9.511-6.192,18.926-8.683,28.573-.046.175-.183.342-.181.512.071,5.5-.747,11.012.157,16.5,1.664,10.111,1.349,19.991-2.266,29.771-3.183,8.608-6.639,17.1-9.892,25.682-2.348,6.191-4.777,12.348-7.2,18.507-1.732,4.4-2.647,9.128-3.822,13.736-.758,2.974-1.349,5.993-1.978,9a13.472,13.472,0,0,0,.231,5.023c1.269,8.075,3.948,15.754,6.542,23.475a40.579,40.579,0,0,1,2.237,12.788c.007,2.851-1.587,4.1-5.753,5.087-3.07.729-5.947-.537-8.753-1.64a20.3,20.3,0,0,1-7.854-5.051,6.691,6.691,0,0,1-2.149-5.191,104.545,104.545,0,0,1,1.479-12.216,42.034,42.034,0,0,0,.416-14.738c-.468-3.113-.034-6.307-.459-9.452-.9-6.65-1.582-13.324-2.248-20-.381-3.831-1.206-7.617-1.8-11.429-1.14-7.332-2.4-14.645-3.236-22.026-.964-8.475-1.86-16.955-2.492-25.462a119.331,119.331,0,0,1-.165-21.212A52.049,52.049,0,0,1,32.151,318.3a68.8,68.8,0,0,1,2.718-6.865,6.174,6.174,0,0,0-.437-6.408C27.3,294.779,22.361,283.461,18.01,271.837A148.357,148.357,0,0,1,10.4,242.951a117.652,117.652,0,0,1-1.294-21.71c.157-5.737.729-11.4,1.29-17.07a64.638,64.638,0,0,1,3.054-13.044,44.588,44.588,0,0,1,2.214-6.291c.963-1.956-.319-2.762-1.456-3.636-6.516-5-10.405-11.325-10.807-19.754-.294-6.167-.313-12.324-.117-18.479.425-13.279.588-26.557.566-39.843-.01-5.2.926-10.187,3.893-14.642A2.2,2.2,0,0,0,6.9,85.42c-3.136-2.161-3.536-4.266-1.162-7.283,2.3-2.918,2.291-3.041-.891-4.981-2.3-1.4-4.155-3.153-4.7-5.915-.724-3.71,1.216-6.436,3.635-8.79a20.951,20.951,0,0,1,8.429-4.85c5.762-1.811,7.417-6.518,7.916-11.627.492-5.051-.306-10.24.869-15.233,1.527-6.485,4.247-12.346,10.354-15.921a6.023,6.023,0,0,1,4.466-.729c-.879-1.639-1.6-3.215-.671-5.038,1.11-2.175,3.091-3.153,5.2-3.925C44.21-.287,48.2-.178,52.182.405A73.168,73.168,0,0,1,63.158,2.513c8.812,2.7,14.072,8.715,16.877,17.236,1.192,3.623,1.529,7.4,2.105,11.124,1.008,6.522,5.033,10.556,10.965,12.449,3.772,1.2,5.484,3.693,6.515,7.01a12.04,12.04,0,0,1-4.994,14.214c-3.863,2.49-4.118,5.766-.994,9.063,2.271,2.4,2.263,5.291-.182,7.473A10.029,10.029,0,0,1,88.193,83.3c.531-1.057,1.365-1.026,2.038-1.257,1.425-.488,2.832-.951,3.658-2.4,1.237-2.169.975-3.8-1.027-5.314-3.291-2.492-4.584-7.342-.017-10.475,2.991-2.051,5.693-4.255,6.262-8.211a11.8,11.8,0,0,0-2.918-9.71c-1.075-1.263-2.906-1.047-4.341-1.667C86.595,42,82.707,38.721,81.357,32.736c-.876-3.888-.9-7.871-1.98-11.727C76.6,11.07,70.336,4.828,60.273,2.578A55.493,55.493,0,0,0,45.166,1.055a13.276,13.276,0,0,0-7.582,2.58C35.3,5.388,34.815,7.6,36.9,9.819c.254.272.522.517.46.975-.259.483-.726.484-1.233.417-3.722-.5-6.148,1.537-8.284,4.2a29.052,29.052,0,0,0-6.2,17.641c-.127,3.261.362,6.562-.363,9.778-1.171,5.205-3.044,9.892-8.658,12.029a19.629,19.629,0,0,0-7.831,4.8c-2.048,2.263-3.951,4.788-2.769,8.13A10.308,10.308,0,0,0,6.278,72.6c2.391,1.653,2.6,3.237.627,5.364A6.943,6.943,0,0,0,5.17,81.073a2.553,2.553,0,0,0,1.584,3.387A2.951,2.951,0,0,1,9.01,86.975c3.117-4.122,7.348-5.738,11.925-6.693a54.654,54.654,0,0,0,17.09-6.148,5.851,5.851,0,0,0,3.255-5.056c.08-2.579.578-5.136.181-7.76a4.981,4.981,0,0,0-1.405-3.13,19.785,19.785,0,0,1-4.718-6.6c-.741-1.893-2.327-1.721-3.8-2.291-.143,6.589-3.934,10.316-9.559,12.688a10,10,0,0,0-4.807,3.421A4.835,4.835,0,0,0,18.576,72.6,10.88,10.88,0,0,0,20,73.351,2.54,2.54,0,0,1,21.584,76.6,3.345,3.345,0,0,1,18.4,79.074c.176-.887.909-.873,1.378-1.193,1.816-1.243,1.681-3.091-.319-4.025a6.3,6.3,0,0,1-3.432-3.018,5.726,5.726,0,0,1,.916-6.479c1.932-2.337,4.7-3.406,7.2-4.807,4.1-2.3,5.487-6.041,6.325-10.246.148-.747-.231-1.087-.7-1.505A11.039,11.039,0,0,1,26.2,39.178c.016-3.133,2.2-5.731,6.292-3.877a18.159,18.159,0,0,1,3.9-10.09,33.491,33.491,0,0,0-3.407,12.107c.628-.435.023-1.347,1.042-1.463a4.974,4.974,0,0,1-1.087,3.435,1.267,1.267,0,0,1-.663-1.345,1.852,1.852,0,0,0-2.021-2.211,2.525,2.525,0,0,0-2.718,2.172c-.712,3.329,1.529,8.527,4.38,10.387.349.228.8.575,1.135.506,2.385-.489,2.982,1.369,3.781,2.857,2.6,4.85,6.138,8.642,11.453,10.537a11.062,11.062,0,0,0,7.756-.081c5.393-1.929,7.95-6.295,10.194-11.088a63.174,63.174,0,0,0,2-6.16,15.452,15.452,0,0,1-4.3-4.893c-2.879.435-4.33-.147-4.6-1.864,1.343-.1,2.273,2.158,3.9.625a17.133,17.133,0,0,1-1.875-7.875c-1.033-.539-1.854.26-2.827.155-.21-1.317.769-1.708,1.6-2.057a2.084,2.084,0,0,0,1.334-2.062c.3-3.166-.541-6.1-1.509-9.039-.857-2.6-7.646-5.1-10.561-2.185-.2.2-.272.553-.654.533.1-2.9,3.3-3.5,8.854-1.684-1.487-3.934-8.084-3.387-11.715.973-.076-2.526,1.966-3.869,7.13-4.692-3.56-2.255-9.608.633-10.055,4.692-.071.641,1.414,1.226.036,1.793ZM15.148,191.326c-.8,5.011-2.668,9.524-2.822,14.592a133.245,133.245,0,0,1-1.514,13.451c-1.022,7.623.04,15.172,1.324,22.7a174.3,174.3,0,0,0,5.182,21.466c.983,3.227,2.279,6.349,3.453,9.512C24.5,283.1,28.491,293.016,34.422,302c2.314,3.506,3.145,7.06,1.464,10.989-.9,2.114-1.491,4.333-2.309,6.467-3.033,7.914-3.6,16.141-2.977,24.466.618,8.266,1.02,16.551,2,24.79.71,6,1.165,12.032,2.113,18.005,1.114,7.024,2.619,14.01,3.254,21.076.806,8.962,2.7,17.818,2.577,26.873a14.154,14.154,0,0,0,.349,3.779,28.4,28.4,0,0,1,.141,12.563,86.962,86.962,0,0,0-1.4,15.479c-.017,2.139-.306,4.88,2.526,5.984A78.189,78.189,0,0,0,51,475.682c2.383.609,4.886,1.171,7.432.024,2.172-.98,2.951-1.723,2.6-4.043a66.92,66.92,0,0,0-2.777-11.595c-1.738-5.081-3.7-10.108-4.778-15.375a171.571,171.571,0,0,1-2.733-19.825c-.811-9.508-.6-19.013-.625-28.515a195.788,195.788,0,0,1,1.729-23.683c1.033-8.651,1.857-17.327,3.048-25.959.976-7.076,2.372-14.08,3.957-21.039a72.044,72.044,0,0,0,1.668-15.443c.028-3.055-.681-5.987-.956-8.986-.534-5.829-1.07-11.666-1.87-17.463-1.074-7.791-1.678-15.625-2.034-23.462-.448-9.84-1.758-19.431-5.363-28.684-2.839-7.286-6.913-13.832-11.325-20.195A57.7,57.7,0,0,0,26.35,198.48a60.2,60.2,0,0,0-11.2-7.154M51.905,231.8c3.887-1.638,7.546-3.437,10.362-6.408,6.364-6.713,13.01-13.2,18.292-20.854,3.148-4.558,6.771-8.853,8.6-14.208.372-1.089,1.057-2.137.483-3.42-2.419-5.411-5.091-10.686-7.928-15.894a68.831,68.831,0,0,1-5.86-14.17c-1.062-3.748-.55-7.529-.646-11.316-.163-6.383,2.122-11.913,5.027-17.3,3.332-6.185,4.7-12.635,3.033-19.568-.688-2.857-2.083-4.076-5.006-4.2a16.008,16.008,0,0,0-3.773.364c-3.841.763-7.171,2.78-10.6,4.524a4.236,4.236,0,0,1-4.1.327c-1.13-.569-2.328-1.022-3.4-1.682a17.911,17.911,0,0,0-8.008-2.556,32.7,32.7,0,0,0-17.159,3.52c-4.907,2.4-9.605,9.987-6.627,16.928a101.378,101.378,0,0,1,3.649,10.954c1.492,4.986,1.23,10.032.763,15.185a53.115,53.115,0,0,1-6.668,21.46c-3.014,5.381-5.581,10.926-6.692,17.015,17.471,8.992,28.621,23.581,36.261,41.311m38.974-41.881a1.652,1.652,0,0,0-.824,1.086c-1.7,4.678-4.916,8.423-7.666,12.453-3.926,5.757-8.659,10.857-13.188,16.124-2.884,3.354-5.634,6.821-9.369,9.333a43.881,43.881,0,0,1-7.625,3.848c2.824,6.36,3.93,13,4.537,19.733.337,3.741.474,7.5.785,11.242.529,6.38,1.268,12.747,1.641,19.137.27,4.617.877,9.2,1.311,13.789.659,7,2.073,13.892,1.03,21.037-.942,6.456-2.13,12.86-3.23,19.284-.815,4.765-1.675,9.527-2.3,14.317-.868,6.651-1.332,13.359-2.344,19.986a171.7,171.7,0,0,0-1.979,20.566c-.311,9.89-.137,19.8-.048,29.7a32.9,32.9,0,0,0,.813,8.189c.756-1.117.462-2.332.756-3.419,2.1-7.779,3.594-15.713,6.785-23.207,3.143-7.378,5.847-14.945,8.652-22.464,2.778-7.45,6.068-14.725,7.935-22.5a46.931,46.931,0,0,0,1.4-11.809c-.112-6.906-1.837-13.673-1.568-20.614.155-4.043-.027-8.06,1.269-12.014,2.784-8.5,5.379-17.06,8.05-25.6a280.08,280.08,0,0,0,8.318-31.656,158.876,158.876,0,0,0,2.774-29.545c0-8.519-.393-17.017-2.561-25.312-1.016-3.887-1.725-7.869-3.35-11.689M42.368,60.221c1.145,2.591.577,4.753.507,6.913-.119,3.669-1.484,6.36-5,8.072-2.642,1.285-5.416,2.286-7.812,3.523,1.717,5.641.416,11.055-.384,16.438-.8,5.362-2.286,10.59-3.489,15.931a25.484,25.484,0,0,1,14.969-6.709c5.555-.654,10.884.007,15.662,2.979,2.895,1.8,5.252,2.028,8.217-.03,4.527-3.143,9.538-5.205,15.3-3.8a2.559,2.559,0,0,0-.491-2.1c-3.03-5.3-5.023-11.061-7.548-16.586-1.1-2.413-1.973-5.134-4.871-6.223-5.941-2.232-7.979-8.411-7.182-14.529.139-1.057.805-2.121.249-3.312a5.145,5.145,0,0,0-1.911,1.772c-2.657,3.654-6.671,5.492-10.763,1.29-1.423-1.462-3.233-2.242-5.455-3.62M16.661,181.712c1.57-3.288,3.056-6.525,4.654-9.705,1.065-2.119,1.907-4.1-.419-5.981a10.563,10.563,0,0,1-1.414-1.878c-1.7-2.214-2.831-4.54-2.513-7.508.4-3.76.5-7.553.727-11.331.242-4.046.333-8.107.758-12.134.741-7.022,1.62-14.033,2.591-21.028a14.325,14.325,0,0,1,1.926-6.12c.356,1.585-.2,2.861-.245,4.174a27.377,27.377,0,0,1-.517,3.935c-.341,1.854-.333,2.178.559,3.7.26-.758.546-1.423.715-2.116,1.881-7.717,3.82-15.424,5.056-23.278a45.394,45.394,0,0,0,.846-11.532c-.137-1.4-.622-1.914-2.06-1.468a48.994,48.994,0,0,1-5.574,1.465C13.983,82.337,8.776,86.666,6.481,94.279c-1.358,4.506-1.2,9.209-1.484,13.84-.444,7.306.386,14.617.086,21.93-.4,9.757-.732,19.516-.525,29.283.077,3.67.1,7.373,1.843,10.772,2.419,4.713,6.228,8.2,10.261,11.607M86.537,176.6a19.376,19.376,0,0,0,1.44-1.346c2.76-3.207,5.708-6.279,8.2-9.687,2.81-3.849,4.75-8.1,4.322-13.148a144.227,144.227,0,0,0-2.26-16.512c-1.873-9.25-2.915-18.667-5.811-27.715-1.334-4.166-.857-8.611-1.34-12.916-.589-5.256-2.533-9.615-7.742-11.919a28.781,28.781,0,0,0-4.158-1.217c-2.667-.734-5.385-1.282-8.31-1.961,4.014,6.025,5.662,12.857,8.983,19.451.321-2.149-.1-3.891,1.6-5.576-.1,3.521-.19,6.519,1.12,9.362a26.958,26.958,0,0,1,.371,22.124c-.64,1.6-1.468,3.194-1.027,5.053.692,2.918,1.492,5.805,1.963,8.781.662,4.166,1.579,8.293,1.633,12.537a4.279,4.279,0,0,1-.523,2.619c-1.622,2.33-2.689,5.01-4.569,7.176a1.846,1.846,0,0,0-.316,2.29c.874,1.711,1.519,3.54,2.4,5.248,1.256,2.444,2.637,4.824,4.032,7.356M21.342,119.436c-.494,3.946-1.117,7.879-1.457,11.838-.693,8.053-1.273,16.118-1.8,24.184-.1,1.48-.552,3.137.275,4.471,1.533,2.477,3.3,4.812,4.986,7.237.676-1.929,1.164-3.824,1.855-5.606,2.019-5.217,2.5-10.666,2.619-16.137.08-3.513-1.016-6.9-2.074-10.268-1.625-5.168-3.119-10.379-4.4-15.719M79.08,160.607a54.224,54.224,0,0,1,5.02-6.824,2.2,2.2,0,0,0,.3-1.916c-.255-1.967-.539-3.934-.907-5.882-.927-4.889-1.641-9.821-2.921-14.6-4.762,5-5.61,23.252-1.5,29.224" transform="translate(0 0)" fill="#8e3a21"/>
          <path id="Trazado_895001" data-name="Trazado 895001" d="M33.308,10.95c-.554-3.8,2.339-7.131,6.9-7.829,7.142-1.093,13.617.835,19.557,4.672,2.572,1.661,3.854,4.41,5.018,7.164,1.972,4.668,2.225,9.573,2.163,14.543-.048,3.931,2.11,6.678,5.058,8.942.281.216.658.322.668.769-2.258-.368-5.515-3.793-6.421-6.432-1.063-3.092-.3-6.209-.412-9.311-.234-6.164-1.6-12.028-7.071-15.613A23.757,23.757,0,0,0,38.754,4.534a7.868,7.868,0,0,0-3.817,2.655,3.1,3.1,0,0,0-.885,2.638c.1.588.306,1.31-.771,1.1Z" transform="translate(6.82 0.578)" fill="#8e3a21"/>
          <path id="Trazado_895002" data-name="Trazado 895002" d="M38.806,42.376c3.488-.647,6.646-4.376,9.822.422a4.707,4.707,0,0,1-3.712,3.6c-3.194.627-4.319-1.979-6.11-4.022" transform="translate(7.962 8.286)" fill="#8e3a21"/>
          <path id="Trazado_895003" data-name="Trazado 895003" d="M43.613,26.8c-4.431-.13-8.555-.785-13.039-.7,4.142-3.092,11.5-2.8,13.039.7" transform="translate(6.273 4.917)" fill="#8e3a21"/>
          <path id="Trazado_895004" data-name="Trazado 895004" d="M37.754,14.4c-7.488,2.161-9.245,8.59-11.12,14.93-.1.341-.141.7-.241,1.039-.078.268-.206.521-.368.921-.894-1.039-.252-1.98-.082-2.835.933-4.687,2.532-9.094,6.375-12.218,1.506-1.226,3.09-2.848,5.446-1.821l-.011-.016" transform="translate(5.244 2.89)" fill="#8e3a21"/>
          <path id="Trazado_895005" data-name="Trazado 895005" d="M26.2,39.532c1.132-1.962.465-5.265-1.446-7.546-.735.585.076,1.322-.184,2.034-1.116-.335-.8-1.217-.768-1.9a.983.983,0,0,1,.952-.934c.873-.1,1.116.574,1.422,1.155a34.152,34.152,0,0,1,1.719,4.741c.589,1.674-.039,2.289-1.694,2.454" transform="translate(4.869 6.396)" fill="#8e3a21"/>
          <path id="Trazado_895006" data-name="Trazado 895006" d="M33.42,31.372c1.384-1.028,2.16.8,3.4.707,1.375-.1,2.251-1.046,3.464-1.431.854,1.226-.053,1.719-.8,2.142a5.307,5.307,0,0,1-6.064-1.418" transform="translate(6.857 6.288)" fill="#8e3a21"/>
          <path id="Trazado_895007" data-name="Trazado 895007" d="M34.639,9.548l1.4,1.081c-4.1.255-6.707,2.422-9.418,4.421a14.545,14.545,0,0,1,8.044-5.476l-.029-.025" transform="translate(5.462 1.959)" fill="#8e3a21"/>
          <path id="Trazado_895008" data-name="Trazado 895008" d="M48.224,26.724c-.6,3.1-1.639,6.082-1.933,9.236-.521-3.336.763-6.287,1.933-9.236" transform="translate(9.473 5.483)" fill="#8e3a21"/>
          <path id="Trazado_895009" data-name="Trazado 895009" d="M46.758,35.755a1.777,1.777,0,0,1,.249,2.534c-.63.91-1.459,1.277-3.018.752,2.091-.434,2.968-1.434,2.768-3.286" transform="translate(9.025 7.336)" fill="#8e3a21"/>
          <path id="Trazado_895010" data-name="Trazado 895010" d="M41.148,271.689c-3.393-1.864-3.853-3.6-1.908-6.432a1.268,1.268,0,0,0-.02-1.76c-.328-.39-.873-.668-.909-1.392,1.111-.583,1.587.348,2.2.869a1.591,1.591,0,0,1,.611,1.919.835.835,0,0,1-.2.3c-2.38,2.2-2.028,4.335.224,6.493" transform="translate(7.815 53.737)" fill="#8e3a21"/>
          <path id="Trazado_895011" data-name="Trazado 895011" d="M43.052,109.889c4.892-1.208,9.586-4.971,15.312-1.17-2.924.594-5.293-1.1-7.879-.562-2.5.519-4.8,1.84-7.432,1.732" transform="translate(8.833 21.966)" fill="#8e3a21"/>
          <path id="Trazado_895012" data-name="Trazado 895012" d="M57.921,270.72c-1.337-1.011-1.11-2.346-.769-3.443.51-1.638,2.042-2.937,1.363-5.028,1.067.942,1.7,1.9,1.17,3.048a14.3,14.3,0,0,0-1.764,5.423" transform="translate(11.672 53.805)" fill="#8e3a21"/>
        </g>
      </g>
    </g>
    <g id="Grupo_1113499" data-name="Grupo 1113499" transform="translate(38.613)">
      <path id="Polígono_9" data-name="Polígono 9" d="M28,0,56,65H0Z" transform="translate(576.116 7897.139)" fill="#bdadea"/>
      <g id="Grupo_1113489" data-name="Grupo 1113489" transform="translate(507.387 7482.563)">
        <g id="Grupo_1113488" data-name="Grupo 1113488" clip-path="url(#clip-path-2)">
          <path id="Trazado_895013" data-name="Trazado 895013" d="M46.589,215.632c-.793-2.009-.7-4.2-1.14-6.3a44.781,44.781,0,0,0-6.223-15.561c-4.276-6.54-9.729-11.986-15.569-17.13a111.506,111.506,0,0,0-8.923-7.078c-.606-.433-.822-.876-.388-1.778,2.024-4.217,3.785-8.561,5.841-12.761,1.559-3.183,3.163-6.332,4.466-9.63a16.246,16.246,0,0,0,1.143-7.274c-.209-2.823.016-5.641-.282-8.487a73.945,73.945,0,0,0-3.559-14.876c-1.463-4.57-2.93-9.132-4.112-13.8-.931-3.682.107-6.489,2.4-9.23,2.737-3.266,6.253-4.4,10.364-4.664a20.056,20.056,0,0,1,8.414.765,21.929,21.929,0,0,1,5.889,3.616c2.019,1.6,4.037,1.172,5.893.342A50.579,50.579,0,0,1,63.4,87.572a7.461,7.461,0,0,1,2.474-.047,2.632,2.632,0,0,1,2.118,1.814c3.3,7.2,2.4,14.141-.447,21.172-1.305,3.229-1.717,6.716-2.236,10.159a63.652,63.652,0,0,0-.318,9.373,32.942,32.942,0,0,0,3.066,12.987c2.43,5.722,6.06,10.81,9.28,16.105a4.625,4.625,0,0,1,.685,3.815c-2.474,8.974-5.654,17.613-10.761,25.518-3.686,5.706-6.921,11.706-10.267,17.625-2.184,3.865-5.563,6.517-8.891,9.252a1.543,1.543,0,0,1-1.516.286" transform="translate(2.801 17.253)" fill="#fdd6cf"/>
          <path id="Trazado_895014" data-name="Trazado 895014" d="M56.576,18.98a11.137,11.137,0,0,0,.387,2.136c.8,2.03-.5,3.847-.539,5.8C56.4,28.09,55.2,28.672,53.943,28.79a10.653,10.653,0,0,1-11.264-7.341c-.766-2.225-1.557-4.444-2.27-6.686a7.514,7.514,0,0,1-.109-3.695,2.163,2.163,0,0,1,1.582-1.754c.848-.254,1.424.243,2.048.749,2.009,1.627,3.2,3.92,4.884,5.813a7.393,7.393,0,0,0,.657.564c.115-1.707.64-2.944,2.634-2.76.168-1.516.854-2.821,1.023-4.313.258-2.273,4.414-4.252,6.524-3.181a1.946,1.946,0,0,0,1.928.155,4.022,4.022,0,0,1,5.677,3.033c1.128,5.4-2.225,9.786-7.846,10.306-.995.091-1.78-.525-2.835-.7" transform="translate(7.961 1.168)" fill="#eacbc7"/>
          <path id="Trazado_895015" data-name="Trazado 895015" d="M20.094,20.51a5.094,5.094,0,0,0-2.816.842,4.31,4.31,0,0,1-6.239-2.1c-.974-1.951-1.708-4-2.692-5.961-1.6-3.2.664-7.754,4.1-8.916,1.383-.467,2.625-1.348,4.227-1.065A9.107,9.107,0,0,1,23.2,9.772c.1.581.24,1.155.376,1.808a10.763,10.763,0,0,1,1.814-.473c1.717-.141,2.376.69,1.854,2.294a3.369,3.369,0,0,0-.158,1.85c.995-.448,1.28-1.505,2.009-2.122.638-.54,1.2-1.272,2.14-.682.842.531.616,1.358.331,2.077C30.548,17.1,29.58,19.7,28.582,22.281c-.817,2.113-1.106,4.348-2,6.416-.8,1.83-1.983,2.73-3.8,2.527-1.756-.2-2.414-1.345-2.765-2.978a22,22,0,0,1,.084-7.737" transform="translate(1.552 0.645)" fill="#eacbc7"/>
          <path id="Trazado_895018" data-name="Trazado 895018" d="M21.569,20.463c-5.31,2.2-10.236-.654-11.824-6.417C8.336,8.923,12.727,1.377,19.444.822a6.186,6.186,0,0,1,6.64,6.289c.006.463,0,.924,0,1.673A11.05,11.05,0,0,1,31.362,5.7c.223-.053.55-.092.633-.244,1.876-3.456,5.337-3.38,8.491-3.59,4.481-.3,8.758,1.009,12.925,2.512A20.739,20.739,0,0,1,58.366,6.6c.3-1.22-.067-2.343.344-3.394C59.813.393,62.793-.8,65.917.561a6.83,6.83,0,0,0,2.732.523c4.983.093,8.027,3.185,7.8,8.693-.165,4.095-1.662,7.373-5.316,9.333a31.314,31.314,0,0,1-5.123,1.731v3.68c1.482-.161,2.265-.886,2.242-2.372,1.121.074,1,.757.817,1.406-.445,1.6-2.028,2.366-4.74,2.2a10.282,10.282,0,0,0,8.722,2.622,13.63,13.63,0,0,1-6.923,1.542c1.576,2.719.525,5.289-.446,7.689-.835,2.065-1.568,4.409-4.037,5.364-.523.2-.59.832-.706,1.366a19.116,19.116,0,0,1-5.428,9.744c-1.124,1.107-.56,2.814-.857,4.227-.385,1.83-.162,3.779-.443,5.64-.712,4.7,1.838,7.442,5.557,9.46a76.366,76.366,0,0,0,15.033,5.668c4.264,1.26,6.549,3.914,7.707,8.28,1.6,6.017.941,11.893.351,17.887-.427,4.337-.769,8.686-1.2,13.024-.545,5.467-1.186,10.927-1.637,16.4-.708,8.59-1.456,17.16.636,25.729,1.152,4.715.693,9.635.709,14.471A3.015,3.015,0,0,0,82,176.954a78.253,78.253,0,0,1,10.375,16.815c2.006,4.544,2.823,9.374,3.495,14.219a108.043,108.043,0,0,1,.627,21.062,204.335,204.335,0,0,1-2.84,22.654c-1.586,9.276-4.04,18.318-6.494,27.37-1.559,5.749-3.879,11.251-5.685,16.92-2.633,8.274-5.8,16.344-9.193,24.325a15.332,15.332,0,0,0-.857,7.834c.669,6.174,1.454,12.339,1.681,18.548a60.1,60.1,0,0,1-4.6,24.333c-5.237,13.366-11.922,26.04-18.144,38.938a37.182,37.182,0,0,0-3.618,14.651c-.271,5.889.8,11.647,1.351,17.458q.606,6.435,1.128,12.879c.466,5.778,1.476,11.48,2.313,17.206.093.641.147,1.288.212,1.933.5,4.984-2.255,6.3-6.253,5.668a23.872,23.872,0,0,1-16.386-10.14c-2.5-3.64-2.441-8.144-1.752-12.479a54.051,54.051,0,0,1,2.623-9.122,109.107,109.107,0,0,0,4.234-17.467c.228-1.345,1.239-2.217,1.239-3.715a39.514,39.514,0,0,0-1.637-10.469c-1.77-6.439-2.7-13.036-4.139-19.533a139.063,139.063,0,0,1-2.916-24.253,121.526,121.526,0,0,1,.943-19.05c.778-6.794,2.446-13.486,2.261-20.4-.12-4.466-1.245-8.711-2.294-13A81.432,81.432,0,0,0,22,304.75a201.633,201.633,0,0,1-11.23-30.483c-1.909-6.627-3.9-13.235-4.931-20.06a140.662,140.662,0,0,1-1.206-21.219A102.673,102.673,0,0,1,6.28,212.155a84.811,84.811,0,0,1,5.987-18.666,9.487,9.487,0,0,0,.358-7.726,84.04,84.04,0,0,1-4.7-29.021c.038-5.877-1.184-11.62-1.934-17.413C5,131.666,3.5,124.08,2.544,116.409c-.525-4.193-1.719-8.3-2.218-12.5-.85-7.143-.272-14.05,4.529-19.977,2.477-3.058,6.015-4.2,9.467-5.564,6.33-2.507,12.821-4.605,18.583-8.46,2.627-1.758,2.6-4.218,2.744-6.63.189-3.16-.165-6.349-.122-9.524a2.05,2.05,0,0,0-.753-1.818,18.2,18.2,0,0,1-4.718-6.573,1.747,1.747,0,0,0-1.842-1.236,4.638,4.638,0,0,1-3.8-1.987c-1.935-2.61-3.237-5.517-1.879-8.868a3.426,3.426,0,0,0-.043-2.7,17.7,17.7,0,0,1-.923-10.112M16.7,187.013c-2.148,5.031-4.075,9.838-5.768,14.751a90.839,90.839,0,0,0-4.745,26.9,139.489,139.489,0,0,0,.338,18.127c.416,4.23.6,8.5,1.642,12.654,1.248,4.966,2.488,9.929,3.907,14.858a161.084,161.084,0,0,0,7.3,20.977c3.586,8.077,7.73,15.918,9.745,24.632a96.859,96.859,0,0,1,2.592,14.942c.3,4.2-.594,8.352-1.2,12.5-.651,4.432-1.532,8.848-1.86,13.3a111.492,111.492,0,0,0-.256,14.352,124.089,124.089,0,0,0,1.787,16.725c1.355,6.994,2.487,14.035,3.993,21,1.1,5.1,2.747,10.131,1.943,15.515-.284,1.895-1.059,3.6-1.414,5.456-.54,2.827-1.3,5.61-1.932,8.421-1.1,4.922-3.408,9.509-4.09,14.537-.333,2.458-.925,4.953-.419,7.431.859,4.209,2.811,7.774,6.737,9.912a65.088,65.088,0,0,0,10.284,4.275,6.376,6.376,0,0,0,2.625.207c2.67-.237,3.607-1.218,3.058-3.751-.66-3.048-1.152-6.107-1.636-9.186-.614-3.9-1.341-7.771-1.571-11.728-.209-3.6-.691-7.177-.866-10.774-.2-4.193-.9-8.36-1.023-12.526a168.216,168.216,0,0,1,.479-16.926c.533-7.364,1.43-14.687,2.12-22.032q1.12-11.9,2.2-23.8c.509-5.643.914-11.3,1.484-16.935a189.225,189.225,0,0,0,.6-23.238c-.176-7.862-.634-15.718-.916-23.579-.117-3.312.054-6.642-.173-9.944-.466-6.781-.465-13.576-.807-20.359-.254-5.06-.294-10.134-.7-15.179-.708-8.895-1.252-17.8-2.321-26.671-1.131-9.38-4.133-17.91-9.826-25.4-3.557-4.679-7.98-8.583-12.351-12.5a85.614,85.614,0,0,0-8.961-6.951M47.785,412.885c2.77-6.64,6.2-12.836,9.277-19.189,3.84-7.914,7.506-15.9,10.612-24.126a62.949,62.949,0,0,0,3.78-15.953,87.6,87.6,0,0,0-.174-13.486c-.155-2.995-.416-5.99-.787-8.964a26.328,26.328,0,0,1,.4-9.847c1.526-5.941,3.973-11.583,6.153-17.305,1.639-4.306,2.677-8.813,4.377-13.078a195.268,195.268,0,0,0,7-22.627c1.533-5.8,2.766-11.685,3.789-17.617a176.392,176.392,0,0,0,2.541-19.473,110.558,110.558,0,0,0,.175-16.308C94.4,208.9,93.828,202.9,91.87,197.126a62.721,62.721,0,0,0-6.9-13.326c-1.015-1.6-2.272-3.036-3.442-4.579-.707,2.427-1.349,4.681-2.019,6.928a78.118,78.118,0,0,1-4.844,13.023c-3.487,6.909-7.576,13.482-11.309,20.252a36.06,36.06,0,0,1-12.909,14.008c-.719.434-.654.977-.544,1.653.82,5.029,1.005,10.122,1.45,15.186.484,5.522.793,11.064,1.031,16.6.411,9.562.854,19.127,1,28.694.095,6.249.389,12.491.27,18.753-.1,4.967-.121,9.959.174,14.951a134.232,134.232,0,0,1,.047,19.414c-.425,4.946-.557,9.928-1.2,14.843-.918,7.032-1.191,14.116-1.993,21.153-.591,5.174-1.023,10.364-1.551,15.543-.429,4.222-.894,8.439-1.343,12.658m-30.564-226.9a111.375,111.375,0,0,1,20.82,18.886A45.267,45.267,0,0,1,48.962,228.81c.164,1.276.067,2.681,1.022,4.006,3.519-2.873,7.008-5.55,9.29-9.467q6.328-10.861,12.7-21.7a85.207,85.207,0,0,0,8.446-21.613,3.4,3.4,0,0,0-.534-3.159c-1.558-2.024-2.554-4.39-3.962-6.518a63.56,63.56,0,0,1-4.9-8.564,39.976,39.976,0,0,1-3.554-20.174c.452-5.47,1.128-10.895,3.268-16.031a22.5,22.5,0,0,0,.87-15.791c-1.539-4.795-1.161-5.213-6.405-4.417-1.18.179-2.3.532-3.443.819-3.4.85-6.306,2.979-9.737,3.658-1.467.289-2.876.611-4.391-.7a18.23,18.23,0,0,0-6.477-3.926c-4.923-1.468-10-1.337-14.387,1.258-4.409,2.611-7.316,6.407-5.792,11.809,1.167,4.138,2.364,8.265,3.732,12.348a76.249,76.249,0,0,1,3.958,15.567c.344,3.027.044,6.047.312,9.048a14.691,14.691,0,0,1-1.076,7.244c-3.425,7.817-7.054,15.545-10.683,23.474m-2.7,1.953c.481-1.178.841-2.237,1.33-3.233q4.021-8.176,8.1-16.321a1.578,1.578,0,0,0,.139-1.146,196.427,196.427,0,0,1-2.907-24.384c-.495-6.717-.712-13.455-1.148-20.178-.3-4.646-.679-9.288-1.275-13.911-.3-2.338-.342-4.71-.5-7.067l.466-.056c1.1,3.317.751,6.934,1.763,10.394.845-1.24,1.5-2.367,2.317-3.365,1.578-1.934,3.254-3.853,5.788-4.5,6.527-1.669,12.818-1.306,18.357,2.94a6.4,6.4,0,0,0,7.256.657c5.021-2.338,10.04-4.713,15.928-3.727.349-2.062.681-4.031,1.013-6a4.5,4.5,0,0,1,.663,2.978c-.177,1.786-.955,3.57-.08,5.4,2.869,5.987,2.675,12.165.689,18.281a85.16,85.16,0,0,0-3.287,13.178,42.5,42.5,0,0,0,1.806,21.068c1.475,4.188,4.592,7.4,6.672,11.239.718,1.323,1.614,2.549,2.72,4.274a77.938,77.938,0,0,0-.585-12.688c-.527-3.194-1.252-6.367-1.565-9.58a81.451,81.451,0,0,1-.059-11.947c.286-5.715.792-11.411,1.418-17.1.411-3.751,1.382-7.416,1.516-11.209a92.32,92.32,0,0,1,.717-9.892c.712-4.947,1.13-9.834-.455-14.69-.942-2.882-2.246-5.456-5.392-6.5-1.117-.372-2.242-.717-3.358-1.091C67.379,78.017,61.967,76.8,57.5,73.4c-1.945-1.48-4.252-2.68-4.535-5.579-.1-1.067-.15-2.122-.15-3.187a84.451,84.451,0,0,1,.832-8.817,6.122,6.122,0,0,0-2.928,2.465A8.885,8.885,0,0,1,47.64,61.62c-1.683,1.029-2.694.958-4.089-.465a14.592,14.592,0,0,1-2.868-3.828c-.792-1.649-2.32-2.348-3.861-3.478,0,3.321.09,6.328-.029,9.326-.093,2.339-.061,4.878-2.222,6.453a38.152,38.152,0,0,1-8.2,4.79c-5.181,2.079-10.342,4.209-15.5,6.336-5.652,2.33-7.923,7.164-8.955,12.671-1.067,5.692-.029,11.416.757,17.034,1.358,9.686,3.284,19.29,4.827,28.95a113.89,113.89,0,0,1,1.786,20.979A61.673,61.673,0,0,0,10.5,173.258a101.685,101.685,0,0,0,4.017,14.683M39.957,15.5a2.438,2.438,0,0,1-1.756-2.09,4.253,4.253,0,0,1,2.11-4.489A4.63,4.63,0,0,1,45.749,10.3a14.886,14.886,0,0,1,2.462,5.623,24.877,24.877,0,0,0,2.868,8.312c2.536,4.39,7.272,6.817,11.633,5.853.307-.986-.144-1.575-.845-2.283-2.53-2.55-5.062-5.08-6.422-8.577-1.093-2.814-2.14-5.744-4.634-7.775,1.928.851,2.9,2.574,3.753,4.313,1.509,3.067,2.828,6.232,5.4,8.63.4.37.707.892,1.505.783-1.029-1.6-2.3-2.855-3-4.529-2.9-6.881-7.138-12.472-14.646-14.855-2.544-.808-6.362-.978-7.528,2.1a4.119,4.119,0,0,0,.775,4.4c-2.744-1.735-4.611-.219-6.594.665a5.871,5.871,0,0,1,4.265-2.468c-2.465-.61-4.035,1.3-6.021,2.058a7.273,7.273,0,0,1,6.226-2.966c.387-4.139,3.419-6.154,7.621-5.117C51,6.548,56.3,12.1,59.595,19.879a7.23,7.23,0,0,0,5.242,4.73c.551-1.485.174-2.964.089-4.4-.292-4.97-1.865-9.532-6.3-12.143-6.076-3.58-12.719-5.784-19.91-5.154-2.415.211-5.168.54-6.086,3.472-3.329.2-5.407,2.248-6.835,4.77-3.23,5.709-4.5,11.838-2.84,18.342.17.666.268,1.782,1.123,1.788a5.732,5.732,0,0,1,3.1,1.226c-.032-3,.125-5.772,1.379-8.291,1.246-2.5,2.777-4.812,5.417-6.211-5.447,4.907-6.446,11.22-5.594,18.44a4.058,4.058,0,0,1-1.22-2.054,2.5,2.5,0,0,0-2.375-1.812c-1.067-.044-1.077,1.156-1.287,2.013-.653,2.669.5,4.851,1.916,6.9A3.053,3.053,0,0,0,28.864,43c-.49-3.014-.49-3.014-.049-3.837.568.271.6.869.745,1.348,2.329,7.866,7.868,12.992,14.61,17.059a4.265,4.265,0,0,0,4.4.018,24.788,24.788,0,0,0,9.362-8.965c3.146-5.359,3.292-11.561,4.64-17.8-4.487.908-7.9-1.76-11.777-2.684-.132-.523.935-.735.271-1.486-2.888-3.269-3.6-7.315-3.957-11.482-.146-1.7-1.312-2.186-2.766-1.24-.312.2-.476.717-1.109.453.332-1.671,1.681-1.614,3.038-1.636-.742-1.721-1.913-1.812-3.282-1.28-1.77.688-2.015,1.862-.651,3.6-1.6-.853-1.715-.955-1.629-1.979.2-2.343,2.362-2.176,3.895-2.868-1.631-1.1-3.652-1.13-4.589-.126-1.322,1.415-1.31,3.324-.062,5.4M25.151,7.854c.382-4.882-4.2-6.791-7.887-5.569-2.988.991-4.674,3.173-6.041,5.845-2.515,4.913.656,11.206,5.926,12.665,2.071.573,4.577-.742,4.918-2.8a31.043,31.043,0,0,1,1.53-4.879A10.408,10.408,0,0,0,24.323,9.5a2.632,2.632,0,0,0-3.38-2.559c-3.03.653-5.893,5.507-4.028,9.132,4.323-6.733,4.834-7.213,7.1-6.241a3.814,3.814,0,0,0-3.391,1.95c-1.542,2.554-4.554,4.791-2.1,8.367-.111.008-.274.068-.322.018C15.2,17.034,13.718,11.8,17.629,7.632c2.4-2.553,5.1-2.549,7.522.223m40.515,11.7a7.867,7.867,0,0,0,7.393-8.787,11.49,11.49,0,0,0-7.491-9.1,4.34,4.34,0,0,0-4.39.156,4.365,4.365,0,0,0-1.6,4.269c.175,1.522,1.346,2.21,2.356,3.067.929-1.378,1.6-3.214,3.684-2.716,1.649.394,2.388,1.786,2.608,3.426a11.5,11.5,0,0,1-1.478-1.638c-.64-.774-1.43-1.436-2.379-.608-.911.795-1.941,1.8-1.182,3.146a16.237,16.237,0,0,1,2.477,8.786M24.953,165.68a19.389,19.389,0,0,0,3.2-12.931,64.236,64.236,0,0,0-2.843-14.893c-1.2-3.584-2.37-7.178-3.554-10.768.82,12.915.912,25.846,3.2,38.591M72.93,16.6A10.716,10.716,0,0,0,75.15,6.214c-.908-3.37-3.751-4.155-6.785-4.661,5.607,3.812,7.188,8.783,4.566,15.048m-11.7,25.606c2.759-1.649,5.015-7.962,4.765-10.1a1.656,1.656,0,0,0-1.354-1.581c-2.557,3.346-1.911,7.639-3.411,11.686m1.025-16.326a5.375,5.375,0,0,0,6,3.054,14.343,14.343,0,0,1-6-3.054" transform="translate(0 0)" fill="#8e3a21"/>
          <path id="Trazado_895019" data-name="Trazado 895019" d="M32.517,272.252c.108.484.232.714.192.912a7.89,7.89,0,0,0,.678,5.851,2.166,2.166,0,0,1-.586,2.736c-1.061-3.148-2.918-6.089-.284-9.5" transform="translate(6.184 54.017)" fill="#8e3a21"/>
          <path id="Trazado_895020" data-name="Trazado 895020" d="M52.315,277.057c1.545-3.149-.163-6.57,1.268-9.713,1.015.3.683,1.423.551,2.187a10.123,10.123,0,0,0-.035,3.992c.313,1.463-.644,2.595-1.784,3.534" transform="translate(10.38 53.044)" fill="#8e3a21"/>
          <path id="Trazado_895021" data-name="Trazado 895021" d="M41.059,88.738c-2-3.334-4.922-5.34-7.633-7.7,2.441.186,7.5,5.136,7.633,7.7" transform="translate(6.632 16.079)" fill="#8e3a21"/>
          <path id="Trazado_895022" data-name="Trazado 895022" d="M33.374,39.419a3.522,3.522,0,0,0,3.243-.669,4.786,4.786,0,0,1,5.32.017c.721.433,1.343,1.222,2.434.482-1.883,1.292-2.544,4.193-5.453,3.57-2.237-.479-3.635-2.294-5.544-3.4" transform="translate(6.622 7.53)" fill="#8e3a21"/>
          <path id="Trazado_895023" data-name="Trazado 895023" d="M21.79,24.247c.12-5.712,6.746-13.584,10.767-11.121-5.659.5-7.814,4.681-9.742,9.119-.285.654-.289,1.479-1.025,2" transform="translate(4.323 2.512)" fill="#8e3a21"/>
          <path id="Trazado_895024" data-name="Trazado 895024" d="M26.934,24.963c2.988-2.469,9.614-4.005,10.562-.735-3.737-1.4-7.042.669-10.562.735" transform="translate(5.344 4.437)" fill="#8e3a21"/>
          <path id="Trazado_895025" data-name="Trazado 895025" d="M28.811,27.922c4,1.02,4,1.02,6.551.044-.138,1.227-1.841,2.248-3.495,2.095-1.715-.158-3.119-1.142-3.056-2.139" transform="translate(5.716 5.54)" fill="#8e3a21"/>
          <path id="Trazado_895026" data-name="Trazado 895026" d="M39.636,37.158c-.061-1.4,1.268-2.217.791-3.652a3.775,3.775,0,0,1,.355-3.291c.267,1.571.274,3.136.5,4.691a1.778,1.778,0,0,1-1.65,2.252" transform="translate(7.864 5.995)" fill="#8e3a21"/>
          <path id="Trazado_895027" data-name="Trazado 895027" d="M47.959,27.637c-.55,1.689-1.774,1.908-3.115,1.774-.976-.1-1.935-.325-2.131-1.843,1.776,1.569,3.49,1.109,5.245.07" transform="translate(8.475 5.47)" fill="#8e3a21"/>
          <path id="Trazado_895028" data-name="Trazado 895028" d="M42.213,23.608c-.829,1.6-2.034,3.039-1.715,5.015-.706-2.264-.1-4.143,1.715-5.015" transform="translate(7.978 4.684)" fill="#8e3a21"/>
          <path id="Trazado_895029" data-name="Trazado 895029" d="M56.785,13.3c.056-1.2.113-2.409.189-4.052,1.342,1.683.682,2.887-.189,4.052" transform="translate(11.267 1.834)" fill="#8e3a21"/>
        </g>
      </g>
    </g>
    <g id="Grupo_1113500" data-name="Grupo 1113500" transform="translate(14.746)">
      <g id="Grupo_1113348" data-name="Grupo 1113348" transform="translate(-28.782 -444.483)">
        <g id="Grupo_1113337" data-name="Grupo 1113337" transform="translate(-788 538.621)">
          <g id="Grupo_1113342" data-name="Grupo 1113342" transform="translate(1165.051 7801)">
            <path id="Polígono_7" data-name="Polígono 7" d="M23.5,0,47,32H0Z" transform="translate(0 33.378)" fill="#bdadea"/>
            <path id="Polígono_8-2" data-name="Polígono 8" d="M23.5,0,47,33H0Z" transform="translate(47 33.379) rotate(180)" fill="#bdadea"/>
          </g>
        </g>
      </g>
      <g id="Grupo_1113491" data-name="Grupo 1113491" transform="translate(270.254 7482.563)">
        <g id="Grupo_1113490" data-name="Grupo 1113490" clip-path="url(#clip-path-3)">
          <path id="Trazado_895030" data-name="Trazado 895030" d="M37.415,64c.163,3.031-.883,5.838-1.2,8.734-.486,4.365-1.484,8.7-1.193,13.115a54.019,54.019,0,0,0,1.135,7.144,10.521,10.521,0,0,0,4.7,6.577c2.942,2.066,6.027,4.01,9.588,4.371,4.6.465,9.1.845,13.8-1.081,3.819-1.566,9.449-9.043,8.716-13.414a59.128,59.128,0,0,0-3.3-12.415c-1.519-3.771-2.823-7.656-5.28-10.982a1.265,1.265,0,0,1,.006-1.42c3.045,1.054,6.014,2,7.861,5.085,3.1,5.173,6.148,10.336,7.526,16.285a12.448,12.448,0,0,1,.361,5.085c-.308,1.815.955,3.519,2.008,5,3.322,4.683,5.342,9.785,5.234,15.581-.05,2.662-.46,5.328-2.511,7.281A9.671,9.671,0,0,1,78,121.607a17.7,17.7,0,0,1-5.343-.366c2.059,1.214,4.336,1.071,6.765,1.11-.75,2.01-1.318,3.862-2.114,5.61A22.8,22.8,0,0,0,75.6,142.4a47.447,47.447,0,0,0,3.5,11.453c2.577,5.255,5.4,10.391,8.1,15.585.586,1.123,1.11,2.278,1.681,3.406.39.77.5,1.486-.46,1.865-2.808,1.111-4.3,3.568-6,5.8a142.185,142.185,0,0,0-9.579,14.506c-2.253,3.855-4.475,7.733-6.87,11.5-2.611,4.1-5.41,8.083-8.122,12.12a17.407,17.407,0,0,1-5.331,4.788,2.913,2.913,0,0,1-1.123.181A123.451,123.451,0,0,0,43.271,207.3a173.566,173.566,0,0,0-10.025-14.413c-2.57-3.441-4.856-7.162-8.2-9.958-3.443-2.879-6.96-5.642-11.408-6.925-1.285-.371-2.557.034-3.9-.357-.441-1.7,1-2.58,1.8-3.63,2.8-3.7,5.725-7.318,8.653-10.924,1.9-2.347,3.8-4.684,5.571-7.15A34.032,34.032,0,0,0,31.6,139.594a10.472,10.472,0,0,0-1.448-6.421,99.033,99.033,0,0,1-5.131-10.129c-2.124-4.875-4.393-9.8-4.076-15.3.175-3.034.807-6.041,1.22-9.063a30.215,30.215,0,0,0,.471-3.945,55.416,55.416,0,0,1,2.429-14.424A47.583,47.583,0,0,1,29.7,68.378a3.607,3.607,0,0,1,1.574-1.514A19.038,19.038,0,0,0,36,64.16c.42-.356.864-.187,1.42-.162m14.245,58.51c3.887-1.077,6.616-3.877,5.7-5.965-.881,3.1-3.581,4.249-5.7,5.965" transform="translate(1.769 11.709)" fill="#e85722"/>
          <path id="Trazado_895031" data-name="Trazado 895031" d="M41.877,16.169c.521-.175.67-.587.847-.943a1.256,1.256,0,0,1,2.27-.316,2.918,2.918,0,0,0,2.654.922,26.072,26.072,0,0,1,4.9.375c.69-2.5,1.972-4.314,4.7-4.587.51-.051.573-.517.825-.819,1.394-1.672,3.551-1.249,4.514.737a37.586,37.586,0,0,1,1.984,5.474c2.247-1.632,3.823-.011,5.18,1.094,1.575,1.283.726,3.669,1.569,5.536,1.335-1.212,1.878-.422,2.289.818a73.244,73.244,0,0,1,2.637,8.333c.188.913.681,2-.418,2.5-1.292.59-1.377-.848-1.913-1.5-.072-.088-.16-.163-.349-.353-.506,1.529-.117,3.009-.131,4.46-.009.873-.038,1.7-1.055,1.946-1.039.256-1.449-.555-1.83-1.274-.484-.91-.9-1.856-1.494-3.1-.319,1.485-.553,2.641-.821,3.79a2.151,2.151,0,0,1-1.906,1.807,2.314,2.314,0,0,1-2.35-1.213,4.2,4.2,0,0,1-.865-2.443c.149-3.716-.557-7.455.259-11.153a2.02,2.02,0,0,0-.106-1.491c-1.213.434-2.427,1.046-3.777.439-1.325-.6-1.729-1.816-2.205-3.3-2.741,1.493-3.89-.271-5.112-2.268-1.078-1.762-3.009-2.332-4.959-2.481a7.557,7.557,0,0,1-2.351-.451c-.935,1.711-.774,4.346-3.341,4.62-2.2.235-3.526-1.46-4.705-3.226-1.068.9-2.026,1.734-3.016,2.531-1.485,1.194-3.154,1.684-4.886.7a4.62,4.62,0,0,1-2.552-4.64,10.632,10.632,0,0,1,.214-1.9c.264-.957,1.045-1.662,1.959-1.324,1.73.64,2.853-.266,3.9-1.252A5.013,5.013,0,0,1,38.1,11.146a3.506,3.506,0,0,1,2.588,2.785,5.053,5.053,0,0,0,1.188,2.238" transform="translate(4.825 1.788)" fill="#eacbc7"/>
          <path id="Trazado_895032" data-name="Trazado 895032" d="M23.438,41.464a14.254,14.254,0,0,1,.215,2.362,2.041,2.041,0,0,1-1.743,2.125c-1.193.157-1.756-.564-2.1-1.658a51.8,51.8,0,0,1-2.493-10.3,42.5,42.5,0,0,1,1.006-13.879,10.118,10.118,0,0,1,3.192-5.852,1.8,1.8,0,0,1,2.092-.385,1.676,1.676,0,0,1,.846,1.782,20.765,20.765,0,0,0-.173,2.931c.258,1.931,1.067,3.778,1.3,5.76a3.1,3.1,0,0,0,2.207.945c1.148-.138,1.4.53,1.49,1.452.318,3.113.95,6.2.756,9.355-.033.531-.183.944-.705,1.062-.573.129-.868-.264-.987-.758a19.8,19.8,0,0,0-1.091-3.632c.3,2.459.563,4.927.93,7.378A7.539,7.539,0,0,1,28.2,42.24a1.755,1.755,0,0,1-1.532,1.679,2.089,2.089,0,0,1-2.266-.974c-.28-.435-.182-1.068-.964-1.481" transform="translate(3.136 2.507)" fill="#eacbc7"/>
          <path id="Trazado_895035" data-name="Trazado 895035" d="M41.706,64.045l-.842.54a2.353,2.353,0,0,1,0-2.126c1.338-3.541.747-7-.619-10.348-2.041-5.009-4.174-9.982-6.33-14.944a31.731,31.731,0,0,1-1.966-8.3,69.424,69.424,0,0,1-.505-7.693c-.125-3.973,1.2-7.514,2.72-11.04a2.994,2.994,0,0,1,2.4-1.975c-2.793,2.712-3.3,6.282-3.65,9.808a17.765,17.765,0,0,0,2.524,10.376A18.423,18.423,0,0,1,45.5,26.921a2.341,2.341,0,0,1,2.106,2.113c-.117.125-.209.289-.265.277a36.905,36.905,0,0,0-11.37-.274c-.777.082-1.3-.708-1.685-1.371-.429-.748-.786-1.538-1.273-2.287A41.1,41.1,0,0,0,35,36.147c2.194,6.249,5.185,12.2,7.05,18.571a1.417,1.417,0,0,0,.343.6c3.022,2.9,6.172,5.575,10.726,5.414,2.659-.095,4.587-1.781,6.678-3.146,5.116-3.34,6.827-8.653,8.225-14.114a24.362,24.362,0,0,0,.1-9.489c-.23-1.64.29-3.245.517-4.86.08-.571.327-1.194-.183-1.647-2.371-2.113-3.334-5.06-4.375-7.857-1.761-4.734-3.391-9.454-7.868-12.436-.108-.072-.124-.283-.283-.673a11.516,11.516,0,0,1,5.648,4.932c2.137,3.255,3.649,6.868,5.715,10.179,1.451,2.326,2.927,4.553,5.584,6.075-1.206.427-1.769-.644-2.467-.556-1.368,4.478-.7,9.056-.967,13.576-.364,6.248-2.325,11.853-7.19,16.118-.989.867-.872,2.021-.815,3.088.17,3.262.566,6.5,1.014,9.742.5,3.605,3.225,4.856,6.054,5.749a37.887,37.887,0,0,0,7.625,1.946c2.731.274,5.483.181,8.2.615,3.139.5,6.366.568,9.258,2.167a14.661,14.661,0,0,1,7.543,10.907c.987,5.48-.149,10.81-.833,16.188-.6,4.684-1.084,9.381-1.613,14.073-.68,6.025-1.43,12.044-2.013,18.08-.724,7.515-2.837,14.868-2.6,22.493.106,3.476,1.29,6.723,2.311,9.97a77.9,77.9,0,0,1,3.672,25.286,52.452,52.452,0,0,1-.6,6.442,10.311,10.311,0,0,0,.007,3.146,112.176,112.176,0,0,1,1.123,24.769,154.238,154.238,0,0,1-2.65,19.345c-1.078,5.894-3.032,11.567-4.689,17.318-2.416,8.38-4.6,16.827-6.921,25.235-.7,2.52-1.508,5.009-2.3,7.5a89.942,89.942,0,0,0-2.656,10.484c-.681,3.623-.185,7.233.218,10.8.751,6.669,1.972,13.3,1.552,20.044a70.9,70.9,0,0,1-2.324,13.226c-2.822,10.943-7.022,21.435-10.644,32.119-3.915,11.549-8.267,22.979-10.95,34.911a23.708,23.708,0,0,0,.181,10.6c.866,3.722.892,7.518,1.262,11.284a24.3,24.3,0,0,1-.6,10.025c-.706,2.223.558,4.689.783,7.068.274,2.9.942,5.739.9,8.684a6.937,6.937,0,0,1-9,6.28,40.694,40.694,0,0,0-8.566-2.209,10.163,10.163,0,0,1-8.278-12.851c2.268-7.454,1.969-15.107,2.578-22.691.2-2.515.878-4.919,1.144-7.41.558-5.214-.5-10.2-1.925-15.137-3.2-11.068-6.118-22.212-8.575-33.469-2.074-9.5-3.809-19.1-4.148-28.821a51.228,51.228,0,0,1,3.394-21.06c2.124-5.3,3.284-10.834,1.7-16.558-.989-3.58-3.055-6.665-4.937-9.792A151.625,151.625,0,0,1,10.658,273.21c-2.746-8.779-4.935-17.7-6.8-26.681C2.372,239.41,1.429,232.187.414,224.978c-.976-6.936.681-13.527,1.367-20.265a36.664,36.664,0,0,0-.64-10.035c-1.64-9.3-1.692-18.5,1.039-27.626,1.986-6.641,2.075-13.431,1.71-20.3-.291-5.481-.127-10.985-.246-16.478-.085-3.913-.334-7.822-.459-11.734-.222-6.95-.551-13.905.489-20.826.183-1.214,0-2.424.189-3.661.818-5.334,4.638-8.122,8.753-10.711,2.571-1.617,5.518-2.153,8.387-2.9A72.874,72.874,0,0,0,36.72,74.736c2.323-1.216,3.91-2.8,4.335-5.479a47.222,47.222,0,0,0,.651-5.212m17.236,230.9c0-3.973-.034-7.946.007-11.918a149.441,149.441,0,0,0-1.176-20.569c-.9-7.027-1.523-14.129-3.474-20.978-.877-3.076-1.136-6.319-2.411-9.27a101.506,101.506,0,0,0-8.98-16.314c-4.453-6.628-9.188-13.065-14.116-19.34-3.651-4.649-8.23-8.251-14.137-9.762-2.389-.61-3.89.07-5.039,2.159a63.055,63.055,0,0,0-7.67,21.583c-.4,2.815-1.288,5.586-.963,8.472.863,7.624,1.852,15.22,3.32,22.768a286.719,286.719,0,0,0,6.82,28.492,184.811,184.811,0,0,0,9.018,23.963c2.25,4.87,5.052,9.426,7.7,14.07,1.934,3.39,3.7,6.8,4.034,10.83a30.139,30.139,0,0,1-2.065,12.615C26.352,341.462,26,351.369,27.3,361.383a271.225,271.225,0,0,0,5.412,28.827c2.37,9.78,4.7,19.569,7.081,29.348a38.884,38.884,0,0,1,1.468,12.253c-.065.842.085,1.745-.941,2.247-.257.124-.381.712-.4,1.1-.218,3.891-.439,7.783-.583,11.676a47.23,47.23,0,0,1-.887,9.7c-.5,2.023-1.594,3.88-1.9,5.964-.244,1.661-.777,3.556.3,4.932,2.33,2.982,5.2,5.345,9.163,5.9a22.261,22.261,0,0,1,6.751,1.634,5.944,5.944,0,0,0,5.232-.3c2.673-1.221,2.838-3.743,2.729-6.248a78.677,78.677,0,0,0-2.643-15.138c-1.3-5.366-2.771-10.687-3.81-16.12-1.531-8.005-1.4-16.14-2.008-24.215-.432-5.77.225-11.55.582-17.325.46-7.453.713-14.921.939-22.385.189-6.3.674-12.593,1.343-18.852.847-7.929,2.133-15.813,3.189-23.722a161.312,161.312,0,0,0,.873-18c.123-5.9.2-11.8-.251-17.7m-5.393-60.978c1.746-1.247,3.539-2.2,4.786-3.9,3.174-4.32,6.228-8.722,9.056-13.275,4.367-7.033,8.282-14.351,13.022-21.145,2.9-4.156,5.274-8.863,10.289-11.275-.944-1.879-1.866-3.748-2.819-5.6-3.716-7.221-7.976-14.156-10.106-22.146-1.427-5.348-1.727-10.56-.077-15.809.807-2.567,1.976-5.022,3-7.567-6.372-.444-8.084-.9-8.968-2.479,1.487.308,2.882.667,4.3.873a13.9,13.9,0,0,0,7.671-.771c3.708-1.619,5.015-4.8,5.1-8.607.133-5.713-2.039-10.661-5.114-15.318-1.04-1.574-2.384-3.094-2.053-5.186a12.532,12.532,0,0,0-.472-5.35A54.366,54.366,0,0,0,71.74,78.051a2.2,2.2,0,0,0-1.077-.84c-1.459-.495-2.9-1.046-4.694-1.7a27.775,27.775,0,0,1,3.814,6.967c.955,2.375,1.874,4.766,2.79,7.157a34.074,34.074,0,0,1,2.4,10.856c.245,6.579-4.911,12.934-11.85,14.291-6.274,1.226-12.584.718-18.31-2.712-3.41-2.043-6.363-4.357-7.347-8.606a45.683,45.683,0,0,1-.189-17.655c.583-3.695,1.191-7.384,1.859-11.515A31.637,31.637,0,0,1,32.8,78.013a2.665,2.665,0,0,0-1.016,1.156,35.509,35.509,0,0,0-3.219,7.461,64.565,64.565,0,0,0-3.758,17.141,74.394,74.394,0,0,1-.965,8.16c-.916,5.116-1.075,10.112.773,15.1a118.35,118.35,0,0,0,7.07,15.382,13.565,13.565,0,0,1,1.842,8.669,34.534,34.534,0,0,1-7.1,15.726c-3.587,4.594-7.38,9.026-11.02,13.58a26.533,26.533,0,0,0-3.768,5.494,15.866,15.866,0,0,1,4.717.489,31.821,31.821,0,0,1,12.692,8.74c3.949,4.359,7.183,9.294,10.711,13.991a106.731,106.731,0,0,1,13.787,24.86m5.87,217.784c.458-4.621-.17-9.208-.315-13.81a15.105,15.105,0,0,0-.522-4.13,23.517,23.517,0,0,1-.474-12.748c1.889-7.869,4.9-15.385,7.326-23.087,2.476-7.87,5.493-15.545,8.067-23.38a244.875,244.875,0,0,0,7.082-25.3c1.677-7.85,1-15.564.04-23.327-.923-7.417-1.014-14.767,1.034-22.023,2.119-7.508,4.3-15,6.434-22.5,1.035-3.638,1.306-7.5,2.858-10.974,2.131-4.768,3.061-9.876,4.494-14.839,1.42-4.915,2.029-10.008,2.858-15.049a115.553,115.553,0,0,0,1.367-14.973,111.2,111.2,0,0,0-.607-13.423,75.507,75.507,0,0,0-7.081-25.194c-.848-1.834-1.668-1.956-3.075-.515a35.062,35.062,0,0,0-3.069,3.591c-5.144,6.953-9.234,14.57-13.636,21.983-4.905,8.262-10.259,16.129-17.5,22.56-.428.38-.784.665-.566,1.453A145.019,145.019,0,0,1,57.973,255.4a198.345,198.345,0,0,1,2.259,22.945c.2,10.909.918,21.811.558,32.729-.127,3.856,0,7.733-.363,11.565-.744,7.823-1.712,15.625-2.647,23.428-.728,6.078-1.267,12.172-1.83,18.266-.694,7.509-.685,15.048-1.215,22.562-.357,5.069-.375,10.164-.852,15.219-.78,8.27-.063,16.5.624,24.7A101.878,101.878,0,0,0,57.1,442.659a73.472,73.472,0,0,0,2.321,9.091M30.628,79.1c-2.463.749-4.606,1.456-6.781,2.049-5.215,1.423-10.6,2.412-14.8,6.252C7.618,88.7,6.274,90,5.873,92.012a82.08,82.08,0,0,0-1.421,17.851c.143,6.834.454,13.664.594,20.5.1,4.86.054,9.723.035,14.585-.03,7.341.463,14.718-1.424,21.941A59.646,59.646,0,0,0,1.891,189.74a70.285,70.285,0,0,1,.89,10.48,81.514,81.514,0,0,1,11.4-20.8c1.26-1.62,2.992-3.031,3.222-5.291.715-7.056,1.607-14.1,2.059-21.177.476-7.457.577-14.938,1.077-22.4.315-4.711.752-9.4,1.359-14.089.4-3.109,1.242-6.164,1.207-9.34a50.728,50.728,0,0,1,1.645-12.258c1.275-5.382,3.489-10.436,5.884-15.774M98.58,201.974a101.959,101.959,0,0,0,.021-13.89A90.251,90.251,0,0,0,95.08,170.9a46.539,46.539,0,0,1-2.15-10.71c-.28-6.1,1.214-12.034,1.99-18.026.913-7.057,1.518-14.143,2.312-21.211.687-6.124,1.146-12.274,2.313-18.341a34.049,34.049,0,0,0,.241-12.258c-.977-5.762-4.29-9.148-9.8-10.448a40.831,40.831,0,0,0-6.421-.716,101,101,0,0,1-10.8-1.109c5.248,5.279,7.993,11.785,9.895,19.14a5.646,5.646,0,0,1,1.3-2.887c.826.958.347,1.887.047,2.689-1.372,3.68-.777,7,1.275,10.31a30.855,30.855,0,0,1,4.5,11.081c.947,5.557.134,11.827-6.292,13.786a2.1,2.1,0,0,0-1.447,1.57c-1.033,3.328-2.449,6.5-3.255,9.941-1.594,6.814.051,13.16,2.131,19.459,1.423,4.315,3.953,8.142,6.111,12.13,3.6,6.647,7.347,13.225,9.732,20.455.644,1.951.735,4.065,1.823,6.219m-38.092-88.24c2,.506,3.551-.569,5.247-1.128,5.051-1.659,9.188-8.417,7.777-14.55A106.3,106.3,0,0,0,68.02,82.1c-1.042-2.576-1.952-5.321-3.845-7.386a11.714,11.714,0,0,1-2.692-4.794,31.524,31.524,0,0,1-1.19-9.666,2.412,2.412,0,0,0-.288-1.856,29.6,29.6,0,0,0-2.566,2.237,12.889,12.889,0,0,0-1.408,2.2c-1.272,2.133-2.931,2.831-5.175,1.7a13,13,0,0,1-5.8-4.871,6.708,6.708,0,0,0-2.631-2.33c.185,1.595.452,2.974.486,4.361.086,3.554.337,7.24-1.562,10.4a17.5,17.5,0,0,0-2.162,6.5c-.538,3.394-.777,6.824-1.119,10.242-.4,3.951-.858,7.89-.237,11.827.366,2.32.717,4.768,2.573,6.516a23.864,23.864,0,0,0,18.836,6.639,45.742,45.742,0,0,0-7.629-12.044,23.273,23.273,0,0,1,8.879,11.97M18.466,173.892c5.046-6.075,9.832-11.745,12.686-18.806a12.946,12.946,0,0,0-.954-12.269c-.691-1.15-1.3-2.349-1.908-3.546a65.79,65.79,0,0,1-5.8-14.929q-.9,12.336-1.577,24.6c-.447,8.2-1.481,16.341-2.446,24.949" transform="translate(0 1.192)" fill="#8e3a21"/>
          <path id="Trazado_895036" data-name="Trazado 895036" d="M90.506,46.113c-1.421.569-2.579-.065-3.667-.76-3.624-2.313-5.069-6.056-6.48-9.86-1.794-4.83-2.209-9.966-3.5-14.906-2.285-8.778-7.653-15.019-16.131-17.92A33.027,33.027,0,0,0,43.517,1.174c-3.671.721-7.328,1.3-10.687,3.005-7.468,3.784-11.2,10.232-12.553,18.192-.8,4.7-1.2,9.473-1.84,14.2-.619,4.565-1.616,9.023-4.214,12.949-1.545,2.337-3.937,3.224-6.434,3.954-.342-.655.054-.847.354-.925,6.1-1.566,7.539-6.582,8.539-11.77,1.088-5.657,1.357-11.433,2.156-17.133.951-6.777,3.5-13,8.947-17.235A30.388,30.388,0,0,1,42.792.369a42.538,42.538,0,0,1,16.013.91C69.125,3.887,75.12,10.5,77.893,20.48c1.078,3.88,1.212,7.955,2.482,11.785,1.15,3.468,2.1,7.022,4.388,10.008a9.765,9.765,0,0,0,5.743,3.839" transform="translate(1.402 0)" fill="#8e3a21"/>
          <path id="Trazado_895037" data-name="Trazado 895037" d="M31,43.962c-1.028,5.364-.176,10.855-4.721,14.419,2.275-2.824,2.578-6.372,3.142-9.793a34.886,34.886,0,0,0,.558-6.255c-.031-1.8-1.182-3.348-1.885-4.986a54.513,54.513,0,0,1-3.521-11.475,1.972,1.972,0,0,1,.133-1.061A13.382,13.382,0,0,1,26,28.721c1.2,4.521,3.461,8.624,5.141,12.957,1.924,4.96,3.717,9.938,2.857,15.41-.05.318.108.723-.654,1.042-.206-2.724.11-5.394-.631-8.4a20.97,20.97,0,0,1-.987,5.512c-.548,1.594-1.007,3.366-3.094,4.24C31.615,54.574,32.852,49.74,31,43.962" transform="translate(4.496 4.544)" fill="#8e3a21"/>
          <path id="Trazado_895038" data-name="Trazado 895038" d="M23.14,22.235c1.193,1.824.907,3.478,1.072,4.972.438,3.977.575,7.989.741,11.99.051,1.209-.573,2.55-.237,3.628,1.342,4.305-.777,7.977-1.945,11.791a6.3,6.3,0,0,1-4.046,4.424c3.284-3.136,4.013-7.379,5.106-11.466A32.725,32.725,0,0,1,20.9,53.809,13.388,13.388,0,0,1,16.278,58.7c-.681.376-1.447.892-2.165-.16,3.409-1.252,4.809-4.348,6.4-7.153,3.3-5.836,3.833-12.249,3.353-18.794-.243-3.3-.112-6.617-.723-10.361" transform="translate(2.585 4.072)" fill="#8e3a21"/>
          <path id="Trazado_895039" data-name="Trazado 895039" d="M40.438,5.644c3.364,1.23,4.4,4.378,5.88,7.184.366.024.241-.272.263-.445.027-.214.006-.434.006-1.032,1.613,3.268,3.023,6.232,4.533,9.143.88,1.7,1.93,3.3,2.88,4.967.31.543.814.525,1.323.663A13.164,13.164,0,0,1,60.4,28.217c-.648.839-1.389.389-1.968.179a9.954,9.954,0,0,0-6.007-.36c-.858.22-1.479-.117-1.158-.858.389-.9-.137-1.312-.485-1.831-2.118-3.17-3.364-6.733-4.733-10.246-1.345-3.452-2.612-6.965-5.61-9.457m7.281,10.263a36.588,36.588,0,0,0,4.142,9.641,1.067,1.067,0,0,0,1.635.33,95.322,95.322,0,0,1-5.777-9.971" transform="translate(7.406 1.034)" fill="#8e3a21"/>
          <path id="Trazado_895040" data-name="Trazado 895040" d="M78.185,51.89c-3.947-.106-8.942-6.049-9.684-11.855.684,1.313,1.445,2.593,2.031,3.949a18.7,18.7,0,0,0,2.441,3.826c.92,1.214,1.871,2.479,3.535,2.857a34.175,34.175,0,0,1-5.04-6.375,43.543,43.543,0,0,1-4.1-10.309c-1.678-5.623-1.827-11.472-2.746-17.21a37.246,37.246,0,0,1,1.747,8.194c1.11,7.812,3.234,15.238,7.958,21.707A15.488,15.488,0,0,0,77.59,50.3c.59.426.89.873.6,1.587" transform="translate(11.835 3.072)" fill="#8e3a21"/>
          <path id="Trazado_895041" data-name="Trazado 895041" d="M20.076,38.614c-1.855,4.407-4.013,8.564-8.491,10.888a4.1,4.1,0,0,1-3.8.478,11.93,11.93,0,0,0,5.788-3.1A27.1,27.1,0,0,0,20.2,33.636a22.659,22.659,0,0,1,.732-2.909c.672,1.845-.211,3.574-.38,5.435.441-.064.315-.654.711-.6.54,5.626-4.531,17.777-10.564,18.747,6.049-3.816,7.958-9.618,9.378-15.692" transform="translate(1.426 5.627)" fill="#8e3a21"/>
          <path id="Trazado_895042" data-name="Trazado 895042" d="M49.156,43.272c-4.2,5.3-5.655,5.269-9.731-.368,1.635-.93,3.061-2.2,5.02-2.447,2.286-.285,3.241,1.707,4.711,2.815" transform="translate(7.22 7.404)" fill="#8e3a21"/>
          <path id="Trazado_895043" data-name="Trazado 895043" d="M65.956,39.952c.9,4.909,2.134,9.741,5.93,13.661-1.365.248-1.94-.568-2.483-1.305-2.693-3.655-3.881-7.9-4.647-12.282a6.053,6.053,0,0,1-.241-3.1c.789.164.789.164,1.329-1.007,1.927,5.888,2.722,12.287,8.8,15.766-.679.881-1.336.265-1.915-.08-2.709-1.613-4.064-4.26-5.2-7.035-.613-1.5-1.057-3.076-1.577-4.618" transform="translate(11.789 6.578)" fill="#8e3a21"/>
          <path id="Trazado_895044" data-name="Trazado 895044" d="M61.341,25.22c.4,4,.744,7.99,1.2,11.962Q63.26,43.51,63.8,49.853c.318,3.667-1.912,9.536-4.8,11.325.7-1.533,1.62-2.67,2.189-4.008,1.447-3.406,1.494-6.934,1.213-10.5-.408-5.175-1.124-10.324-1.28-15.522-.05-1.628-.2-3.252-.295-4.879-.026-.416-.045-.833.516-1.049" transform="translate(10.805 4.619)" fill="#8e3a21"/>
          <path id="Trazado_895045" data-name="Trazado 895045" d="M39.136,29.636c-.889,1.6-3.147,2.53-4.6,1.687a2.439,2.439,0,0,0-2.729-.232c.464-2.044,2.027-2.77,3.727-3.257,2.36-.677,4.359.2,6.195,2.694-1.06.115-1.621-.878-2.6-.892" transform="translate(5.826 5.057)" fill="#8e3a21"/>
          <path id="Trazado_895046" data-name="Trazado 895046" d="M33.965,6.825c1.642.146,2.121,1.323,2.513,2.635.98,3.294,1.023,6.775,2.093,10.053a51.85,51.85,0,0,0,3.043,7.023c-1.12-.008-1.3-.776-1.609-1.3a28.455,28.455,0,0,1-3.858-12.012,33.222,33.222,0,0,0-.793-4.284,3.448,3.448,0,0,0-1.389-2.115" transform="translate(6.22 1.25)" fill="#8e3a21"/>
          <path id="Trazado_895047" data-name="Trazado 895047" d="M54.372,56.643c2.773-2.58,4.139-5.952,5.237-9.453.495-1.578.816-3.211,1.24-4.914,1.7,3.494-3.456,15.087-7.031,15.989-.266-.736.8-.988.612-1.675Z" transform="translate(9.848 7.742)" fill="#8e3a21"/>
          <path id="Trazado_895048" data-name="Trazado 895048" d="M57.335,30.3c-1.092-.319-1.919-1.129-3.069-1.195-1.795,2.813-2.655,3.013-5.936,1.274a5.066,5.066,0,0,1,3.986-2.7c2.223-.167,3.725,1.067,5.019,2.618" transform="translate(8.851 5.067)" fill="#8e3a21"/>
          <path id="Trazado_895049" data-name="Trazado 895049" d="M37.106,7a17.792,17.792,0,0,1,2.247,6.663,38.994,38.994,0,0,0,4.954,13.451.51.51,0,0,1,.022.647C41.662,25.521,38.066,15.344,37.106,7" transform="translate(6.795 1.283)" fill="#8e3a21"/>
          <path id="Trazado_895050" data-name="Trazado 895050" d="M19.786,54.879c4.208-3.415,5.938-7.945,6.81-12.938,1.587,4.012-3.087,12.79-6.81,12.938" transform="translate(3.624 7.681)" fill="#8e3a21"/>
          <path id="Trazado_895051" data-name="Trazado 895051" d="M30.382,10.143a21.686,21.686,0,0,0,1.591,16.385c-3.4-2.55-4.227-11.693-1.591-16.385" transform="translate(5.279 1.858)" fill="#8e3a21"/>
          <path id="Trazado_895052" data-name="Trazado 895052" d="M64.267,43.516c1.9,2.5.453,12.818-2.222,13.682a24.383,24.383,0,0,0,2.222-13.682" transform="translate(11.363 7.969)" fill="#8e3a21"/>
          <path id="Trazado_895053" data-name="Trazado 895053" d="M54.687,55.313c-.855.1-1,1.258-2.325,1.324A51.237,51.237,0,0,0,56.8,49.246c-.022,2.312-1.49,4.074-2.172,6.122l.058-.054" transform="translate(9.589 9.019)" fill="#8e3a21"/>
          <path id="Trazado_895054" data-name="Trazado 895054" d="M64.181,23.243c-2.041.557-5.083-1.977-6.015-4.951,2,1.852,3.347,4.032,6.015,4.951" transform="translate(10.652 3.35)" fill="#8e3a21"/>
          <path id="Trazado_895055" data-name="Trazado 895055" d="M41.844,36.839c1.71,1.991,3.178,1.448,4.61-.853.225,2.136-.928,2.595-2,2.718a2.23,2.23,0,0,1-2.605-1.865" transform="translate(7.663 6.59)" fill="#8e3a21"/>
          <path id="Trazado_895056" data-name="Trazado 895056" d="M36.776,280.393a4.207,4.207,0,0,1-2.267-3.987,8.5,8.5,0,0,0-1.682-5.185,4.338,4.338,0,0,1-.426-5.056,13.324,13.324,0,0,0,3.005,6.62,1.968,1.968,0,0,1,.277,1c.167,2.221.148,4.469,1.093,6.605" transform="translate(5.818 48.745)" fill="#8e3a21"/>
          <path id="Trazado_895057" data-name="Trazado 895057" d="M48.2,268.249c.952,1.363-.708,9.024-2.45,10.465.147-3.785-.1-7.43,2.45-10.465" transform="translate(8.379 49.126)" fill="#8e3a21"/>
          <path id="Trazado_895058" data-name="Trazado 895058" d="M35.285,116.859c7.07-.634,13.679-2.138,17.813-8.916.813,2.359-.5,3.623-1.8,4.679a18.546,18.546,0,0,1-10.186,4.146,25.011,25.011,0,0,1-5.828.091" transform="translate(6.462 19.768)" fill="#8e3a21"/>
          <path id="Trazado_895059" data-name="Trazado 895059" d="M61.567,274.782c-.407-.582,0-.928.2-1.327a7.466,7.466,0,0,0,1.113-4.917,3.914,3.914,0,0,1,2.615-4.244c-2.06,2.965-.428,6.636-2.754,9.3-.228.261-.419.556-.657.809a3.341,3.341,0,0,1-.522.377" transform="translate(11.243 48.402)" fill="#8e3a21"/>
        </g>
      </g>
    </g>
    <g id="Grupo_1113497" data-name="Grupo 1113497" transform="translate(-98.363)">
      <rect id="Rectángulo_406759" data-name="Rectángulo 406759" width="40" height="65" transform="translate(1138.06 7897.478)" fill="#bdadea"/>
      <g id="Grupo_1113493" data-name="Grupo 1113493" transform="translate(1064.363 7482.563)">
        <g id="Grupo_1113492" data-name="Grupo 1113492" clip-path="url(#clip-path-4)">
          <path id="Trazado_895060" data-name="Trazado 895060" d="M56.037,6.406a13.5,13.5,0,0,1,8.889-.756c3.423.792,4.7,3.593,6.324,6.12,2.758,4.294,2.843,9.18,3.372,14.051.474,4.37-.036,9.069,1.972,13.04,2.317,4.584,2.059,9.187,1.708,13.947-.222,3-2.472,4.416-4.589,5.933a5.078,5.078,0,0,1-.855.3c-3.729,1.718-5.055.868-5.133-3.3,0-.1-.1-.2-.33-.637-.643,2.118-2.57,2.927-3.5,4.673a6.965,6.965,0,0,1-3.26,2.537,2.572,2.572,0,0,1-3.164-.668,3.064,3.064,0,0,1-.694-3.679C57.5,56.5,58.187,55,59.029,53.6a38.905,38.905,0,0,0,5.262-17.5,18.98,18.98,0,0,0-.435-4.518,3.586,3.586,0,0,0-2.739-2.64A36.123,36.123,0,0,1,50.106,23.6c-.41-.292-.769-.667-1.458-.487a7.09,7.09,0,0,1-7.515-3.926c-.991-2.64-2.635-5.012-3-8.422-2.493,3.854-3.416,9.509-9.73,5.861a40.67,40.67,0,0,0-1.957,6.156,89.9,89.9,0,0,1-2.672,10.342c-1.061,3.821.028,9.588,3.3,11.846,2.64,1.822,3.318,4.391,3.965,7.051A47.329,47.329,0,0,0,32.414,56.9c.426,1.178,1.176,2.409-.022,3.545-1.175,1.112-2.257.028-3.455-.3a3.524,3.524,0,0,0-.43.5c-1.666,2.778-4.285,3.6-7.15,2.087a3.292,3.292,0,0,0-3.027-.3,5.339,5.339,0,0,1-4.877-.645c-5.58-3.727-6.708-8.15-4-14.3,1.431-3.252,3.692-5.984,5.2-9.169a7.691,7.691,0,0,0,.776-2.566,70.822,70.822,0,0,1,2.682-13.688,16.873,16.873,0,0,1,2.155-5.22c1.192-1.665,2.047-3.509,3.792-4.786,2.047-1.5,3.7-3.49,5.593-5.155C32.557,4.342,36.4,3.755,40.078,2.972c2.42-.516,4.923-.519,7.3-1.365a6.434,6.434,0,0,1,8.06,3.454c.176.377.339.761.6,1.346" transform="translate(1.833 0.279)" fill="#eacbc7"/>
          <path id="Trazado_895063" data-name="Trazado 895063" d="M13.4,83.513c19.345,3.4,38.156,1.629,57.105-2.279-.281,4.466,2.044,8.042,2.636,12.046a39.359,39.359,0,0,1,.15,9.029c-.475,5.828-3.818,10.86-4.352,16.638-.219,2.361-.755,4.642-.367,7.118a33.358,33.358,0,0,1-.048,7.4,31.988,31.988,0,0,0,.238,5.733c.723,6.4,2.13,12.683,3.266,19.012.691,3.851,1.785,7.629,2.612,11.458a22.01,22.01,0,0,1,.885,5.974c-.123,1.769-1.356,3.369-2.424,4.865-3.846,5.381-8.487,10.064-12.99,14.877-2.316,2.475-4.59,4.99-7.038,7.334a51.423,51.423,0,0,1-8.873,6.657c-1.855,1.13-2.922.684-3.768-1.236-3.793-8.61-8.7-16.5-15.663-22.906-3.146-2.9-6.351-5.836-10.628-7.124-1.4-.422-1.051-1.665-.856-2.571,1.8-8.308,4.587-16.317,7.316-24.353A28.185,28.185,0,0,0,22.1,138.866c-.734-6.728-2.539-13.209-3.64-19.828-.86-5.167-1.817-10.339-2.367-15.57a102.1,102.1,0,0,0-2.065-13.977c-.449-1.819.131-3.805-.624-5.977" transform="translate(2.985 18.514)" fill="#e85722"/>
          <path id="Trazado_895064" data-name="Trazado 895064" d="M62.084,91.379c-.494-2.672-1.846-4.928-1.643-7.6a2.311,2.311,0,0,1,1.815-2.442c3.6-1.128,7.22-2.262,10.339-4.527.29-.211.8-.117,1.273-.172.475,3.716-.561,7.3-.254,10.91.044.521-.241.71-.663.911a32.076,32.076,0,0,1-10.867,2.916" transform="translate(13.771 17.468)" fill="#e85722"/>
          <path id="Trazado_895065" data-name="Trazado 895065" d="M1.8,79.609c1.973.045,3.376.944,4.824,1.539a32.047,32.047,0,0,0,6.984,2.03c1.559.255,2.213,1.171,2.084,2.3-.23,2.016.464,4.012-.08,6.208-4.519-.2-9.094.514-13.6-.855-.433-3.69.436-7.333-.214-11.221" transform="translate(0.409 18.144)" fill="#e85722"/>
          <path id="Trazado_895066" data-name="Trazado 895066" d="M54.523,24.869C50.108,20.44,48.391,14.837,47.38,8.9,50.192,17.911,54.7,25.25,64.831,27.573a47.787,47.787,0,0,0-.465-13.836c-.6-3.087-1.966-5.7-4.906-7.23A.808.808,0,0,1,59.1,5.9a8.668,8.668,0,0,1,5.938,6.169c1.41,4.364,1.481,8.9,1.423,13.43a143.588,143.588,0,0,1-2.026,23.648c-.64,3.555-1.151,7.7-4.5,11.822,2.716-.473,4.069-2.448,5.44-4.305,2.075-2.814,2.65-6.361,4.26-9.354s1.283-6,1.33-9.058c.05-3.22,0-6.44-.043-9.66-.041-2.8-.474-5.6-.065-8.417.259,2.727.7,5.452.742,8.183.092,6.362.893,12.718.4,19.077-.281,3.66-.769,7.339-3.017,10.47a5.893,5.893,0,0,1-2.409,2.16c-.812.347-1.539.382-1.919-.615a2.044,2.044,0,0,0,2.444-.684,24.714,24.714,0,0,0,2.516-3.711c1.062-1.773-.174-3.69.724-5.378a2.075,2.075,0,0,0,.09-1.922c-1.611,4.114-2.367,8.567-5.733,11.739-1.79,1.394-3.492,3.054-6.5,1.97,4.91-4.829,5.074-11.062,5.788-17.132-1.2,2.123-1.992,4.428-3.026,6.615-.623,1.319-.064,3.164-.566,4.746-.84,2.645-2.685,4.166-5.348,5.125-.083,2.6-.162,5.37,1.047,7.959a8.337,8.337,0,0,0,5.37,4.72A47.16,47.16,0,0,0,79,75.273a7.242,7.242,0,0,1,4.923,1.488c2.649,1.994,3.668,4.848,4.171,7.975.95,5.9.6,11.833.409,17.761a54.012,54.012,0,0,0,1.221,12.956c1.257,5.935,1.687,11.977,2.414,17.98s1.04,12.047,1.5,18.077a17.324,17.324,0,0,1-4.444,12.83A41.742,41.742,0,0,1,78.6,173.4a4.305,4.305,0,0,1-1.607.8c-.959.139-1.035.812-.85,1.643.906,4.064,1.787,8.134,2.541,12.234.616,3.356.555,6.755.984,10.122a126.488,126.488,0,0,1,.772,20.17,128.407,128.407,0,0,1-2.349,19.981c-1.353,7.056-2.827,14.085-4.233,21.129-1.133,5.679-2.387,11.335-3.459,17.025-1.271,6.751-2.537,13.5-3.536,20.3a122.184,122.184,0,0,0-1.529,17.521,85.615,85.615,0,0,0,1.746,17.111,120.84,120.84,0,0,1,2.129,32.753c-.761,10.48-3.438,20.6-5.421,30.848q-1.809,9.349-3.089,18.78c-.776,5.625-.313,11.264-.313,16.892a101.35,101.35,0,0,1-.489,12.17,21.851,21.851,0,0,1-5.947,12,7.768,7.768,0,0,0-2.387,6.4c.286,2.645.022,5.346.063,8.022a14.38,14.38,0,0,1-.653,4.563c-.921-.937-.25-1.916-.317-2.757-.492-6.229-.715-12.481-1.266-18.7-.524-5.919-.882-11.844-1.031-17.775a152.083,152.083,0,0,1,.5-17.083c.3-3.466-.185-7-.183-10.5,0-5.171-.291-10.33-.086-15.516.284-7.162.111-14.342.119-21.516.014-10.473.211-20.964,2.344-31.239a85.715,85.715,0,0,0,1.572-22.063c-.424-8.039-1.094-16.065-1.731-24.092-.614-7.719-1.528-15.419-1.928-23.147-.357-6.891-.336-13.813-1.406-20.639-.944-6.03-1.464-12.138-2.992-18.069-1.857-7.2-5.591-13.449-9.958-19.373a64.684,64.684,0,0,0-11.968-12.342,19.136,19.136,0,0,0-6.321-3.588c-1.015,1.785-1.063,3.848-1.422,5.758-1.056,5.624-2.141,11.249-2.76,16.954-.511,4.7-.339,9.4-.447,14.1A84.1,84.1,0,0,0,12.9,247.915q1.912,11.624,4.735,23.092c2.44,9.852,4.869,19.7,7.657,29.464,1.8,6.309,3.529,12.639,5.341,18.947,1.7,5.905.81,11.821-1.142,17.64-1.8,5.368-2.283,10.982-2.575,16.627a79.192,79.192,0,0,0,.825,16.142,139.535,139.535,0,0,0,4.121,18.188q1.9,6.439,3.319,13c2.428,11.121,2.9,22.4,2.974,33.737.018,2.593.3,5.2.281,7.812-.039,4.261-1.2,8.319-2.277,12.39s-2.679,8.021-2.521,12.356a7.108,7.108,0,0,0,4.953,6.631c2.006.6,3.653,1.907,5.6,2.6,3.46,1.239,4.6.907,6.406-1.973.457,2.124-1.006,3.8-3.61,3.978-3.538.239-6.547-1.261-9.15-3.4-2.9-2.381-5.639-5.021-5.782-9.2a23.547,23.547,0,0,1,1.817-8.843,47.609,47.609,0,0,0,2.86-13.409c.376-6.12.3-12.234.255-18.349-.033-4.723-.97-9.37-1.6-14.042-1.289-9.646-4.473-18.8-6.965-28.143-2.2-8.237-3.815-16.635-3.756-25.235A78.465,78.465,0,0,1,28.738,332.6a22.429,22.429,0,0,0,.355-14.579c-2.974-9.128-5.935-18.266-8.6-27.486-1.95-6.74-3.376-13.629-5.13-20.428-1.105-4.285-1.95-8.624-2.755-12.966a124.319,124.319,0,0,1-2.3-17.257c-.142-3.267-.564-6.525-.626-9.791a52.879,52.879,0,0,1,.99-10.973c.75-3.918.874-7.941,1.421-11.91.776-5.641,2.037-11.17,3.225-16.721a83.512,83.512,0,0,1,3.331-11.762c-3.434-1.893-6.988-3.608-9.773-6.478A40.841,40.841,0,0,1,1.291,161.9c-1.573-3.2-1.418-6.781-1.034-10.176.474-4.174.314-8.344.452-12.506.263-8.035.05-16.084.189-24.126.14-8.182.4-16.362.74-24.537a20.219,20.219,0,0,1,2.119-8.728c2.251-4.3,6.113-5.781,10.474-6.572A72.334,72.334,0,0,0,32.68,69.838c2.323-1.105,3.892-2.48,4.056-5.183.1-1.691.473-3.364.58-5.055.306-4.828.276-4.831-4.018-7.962a11.054,11.054,0,0,0,3.492,6.932,3.949,3.949,0,0,1-2.948-2.413c-1.278-2.467-1.487-5.2-1.914-7.87-.338-2.108-.621-4.234-3.217-4.859-2.678,3.172.694,15.307,5.766,18.1a1.473,1.473,0,0,1-2-.685c-.172-.054-.4-.054-.5-.167a19.411,19.411,0,0,1-4.8-10.16c-.128-.744.1-1.568-.666-2.274-.4,4.2.029,8.074,2.694,11.427.851,1.071,1.827,1.784,3.28,1.173-.485,1.509-1.466,1.594-2.678.9A7.987,7.987,0,0,1,26.4,57.628c-1.532-3.7-1.291-7.441-.3-11.195.349-1.326,2.058-1.848,1.976-3.555A13.817,13.817,0,0,1,24.6,32.19c.162-1.407.651-2.6,2.337-2.7C26.029,24.115,26,18.98,30.2,14.8c-2.566,3.551-3.04,7.631-3.073,12.384.947-2.241.575-4.3,1.82-5.914-.263,1.944-.427,3.908-.821,5.826a7.33,7.33,0,0,0,.339,4.188c1.191,3.341,1.944,6.837,3.061,10.208,1.126,3.4,1.225,7.338,3.815,10.022,5.782,6,14.287,8.664,21.648,2.774,2.6-2.078,4.053-5.093,5.092-8.215a23.418,23.418,0,0,1,1.221-3c1.766-3.57,1.234-7.428,1.435-11.181.178-3.337.1-3.409-3.153-4.283-2.156-.581-4.057-1.927-6.351-2.059l-.711-.68M73.5,98.789c-18.907,3.81-37.552,5.648-56.415,2.338a80.671,80.671,0,0,0,.861,8.594c1.131,7.173,1.994,14.389,3.029,21.578,1.044,7.243,3.092,14.29,4.174,21.539a33.116,33.116,0,0,1-1.309,16.084c-2.759,7.94-5.6,15.854-7.207,24.138-.139.712-.313,1.438.666,1.777a27.489,27.489,0,0,1,8.412,5.206,62.629,62.629,0,0,1,14.642,18.075A91.364,91.364,0,0,1,44.48,226.9c2.39-.208,3.981-1.709,5.717-2.873,4.87-3.267,8.75-7.6,12.693-11.874,4.471-4.842,9.2-9.471,12.9-14.956,1.084-1.607,2.553-3.094,2.234-5.485-.81-6.056-2.6-11.9-3.656-17.9-1.54-8.759-3.588-17.436-3.092-26.444.226-4.087-.572-8.2.4-12.285.769-3.232,1.785-6.359,2.856-9.5a29.992,29.992,0,0,0-.357-20.9c-.674-1.767-1.548-3.6-.675-5.887m-28.47,129.2c.809,2.976,1.76,5.819,2.285,8.81,1.613,9.188,3.131,18.37,3.256,27.737.054,4.044.334,8.1.745,12.121.867,8.491,1.607,17,1.962,25.519.295,7.094.739,14.2.5,21.31a7.77,7.77,0,0,0,.026,1.821c.729,3.466.12,6.922-.589,10.229-2.248,10.474-2.8,21.082-3.035,31.724-.205,9.412.138,18.829-.33,28.241-.183,3.663-.141,7.348.023,11.013a92.9,92.9,0,0,1,.242,11.027c-.427,5.795-.592,11.6-.554,17.4.032,4.831.743,9.658,1.164,14.485.2,2.245.42,4.487.641,6.835a2.4,2.4,0,0,0,.336-.232c.4-.527.77-1.087,1.208-1.583,4.957-5.6,6.228-12.42,6.278-19.558.031-4.347-.3-8.7-.486-13.047-.3-6.869,1.246-13.561,2.176-20.288.923-6.681,2.565-13.266,3.994-19.873a117.168,117.168,0,0,0,2.92-22.784A157.055,157.055,0,0,0,66.019,334.1c-.575-4.072-1.494-8.109-1.561-12.239a152.782,152.782,0,0,1,.963-22.854c1.033-7.716,2.274-15.391,3.616-23.054.823-4.7,1.762-9.376,2.644-14.065q1.995-10.6,3.985-21.2c1.214-6.453,2.332-12.927,2.91-19.469a152.829,152.829,0,0,0,.371-20.482c-.081-1.774-.346-3.54-.566-5.69A114.209,114.209,0,0,1,68.1,207.91c-4.352,4.875-8.187,10.242-13.356,14.344-2.924,2.32-5.781,4.809-9.71,5.729m30.4-131.411a57.72,57.72,0,0,0,10.14-3.9,2.741,2.741,0,0,0,1.8-3.259c-.3-1.971-.312-4-.794-5.922-1.11-4.413-3.31-8.033-9.126-7.149A30.339,30.339,0,0,1,61.991,74.51c-4.725-1.765-7.978-4.709-8.271-10.033a28.456,28.456,0,0,1,.405-6.822,8.745,8.745,0,0,0-2.816,1.625c-3.125,2.4-5.675,2.23-8.255-.74C41.8,57.1,40.083,56.624,38.413,55.4a59.307,59.307,0,0,1-.265,8.295c-.357,2.936-1.029,5.56-4.279,6.643-1.658.553-3.245,1.318-4.872,1.967-5.453,2.178-11.261,3-16.923,4.368a10.746,10.746,0,0,0-7.706,6.475c-1.422,3.168-1.178,6.5-1.561,9.777A2.66,2.66,0,0,0,4.42,95.88a42.812,42.812,0,0,0,11.012,3.426c.22-.817.41-1.521.6-2.22a.982.982,0,0,1,.8,1.045c-.181,1.758.874,1.893,2.242,2,2.344.188,4.664.672,7.006.86,4.222.338,8.452.712,12.682.765s8.444-.55,12.665-.858c7.213-.527,14.219-2.087,21.265-3.509a1.979,1.979,0,0,0,1.681-1.6c.343-1.157.043-2.372.487-3.723,1.367,1.395.467,2.877.581,4.51M16.159,109.08a43.535,43.535,0,0,1-13.571-.653c-.2,6.481-.473,12.756-.571,19.033-.141,8.954.211,17.929-.6,26.855-.443,4.869,1.582,8.7,4.246,12.311,3.475,4.708,7.66,8.685,13.3,11.068,1.334-3.3,2.712-6.692,4.073-10.092a1.067,1.067,0,0,0-.3-1.308C20.053,163.888,18.3,160.722,16,158a9.259,9.259,0,0,1-2.227-6.186c.021-7.42,1.591-14.654,2.615-21.954.445-3.175,1.171-6.369,1.111-9.542-.069-3.724-.855-7.434-1.341-11.237m60.424-1.251A33.125,33.125,0,0,1,75.3,128.3a1.931,1.931,0,0,0-.021,1.217c.722,3.61,1.456,7.219,2.127,10.839.839,4.529,1.726,9.064-1.034,13.335-.883,1.365-1.625,2.821-2.45,4.224a3.261,3.261,0,0,0-.408,2.264c.744,4.449,1.487,8.9,2.254,13.492a12.726,12.726,0,0,0,1.767-.79,47.362,47.362,0,0,0,10.631-9.27c2.517-3.029,4.509-6.5,4.31-10.694-.187-3.912-.307-7.841-.776-11.724-1.147-9.482-1.529-19.061-3.554-28.435a46.136,46.136,0,0,1-.894-7.671,28,28,0,0,1-10.674,2.744M18.133,126.58c-.108,1.115-.173,2.237-.332,3.345-.871,6.049-1.835,12.084-2.625,18.142-.491,3.755-.258,7.4,2.887,10.184a5.085,5.085,0,0,1,.6.9c1.548,2.166,3.1,4.33,4.741,6.612A16.146,16.146,0,0,0,24.4,155.6c-1.841-9.719-4.757-19.207-6.269-29.019m57.938-19.518c3.382-.173,6.3-1.288,9.256-2.238a2.356,2.356,0,0,0,1.846-2.808,41.155,41.155,0,0,1,.19-4.488c.041-1.472.009-2.947.009-4.669a39.179,39.179,0,0,1-10.924,4.935,2.318,2.318,0,0,0-1.907,2.4c-.15,2.392,1.363,4.337,1.53,6.864M2.674,96.491c0,3.4.042,6.56-.026,9.715a1.272,1.272,0,0,0,1.169,1.5c3.969.7,7.956.406,11.949.366.236-1.979-.3-3.759-.038-5.574.167-1.151-.362-1.891-1.749-2.117A41.175,41.175,0,0,1,2.674,96.491m70.632,60.261c1.806-3.9,5.267-7.135,3.164-11.923-.044-.1.011-.244-.01-.361-.7-4.009-1.411-8.017-2.137-12.129-1.773,3.207-2.528,20.629-1.018,24.413M30.481,43.279c-.976-4.032-1.819-7.591-2.712-11.137-.155-.613-.332-1.434-1.171-1.416-.75.016-.877.77-.9,1.336-.153,4.294.991,8.065,4.78,11.217m24.8,16.748c3.172-1.616,4.366-4.128,4.692-7.425-1.3.839-1.46,2.475-2.732,3-1.971.81-2,2.431-1.96,4.427" transform="translate(0 1.344)" fill="#8e3a21"/>
          <path id="Trazado_895067" data-name="Trazado 895067" d="M58.45,3.535a20.394,20.394,0,0,1,5.343.565c4.044,1.345,5.473,4.8,6.927,8.3,2.207,5.295,2.689,11,4.066,16.5,1.541,6.143,3.286,12.236,4.946,18.349a17.65,17.65,0,0,1,.437,8.815,4.622,4.622,0,0,1-3.1,3.678c-2.113.729-4.181,1.594-6.257,2.426a2.008,2.008,0,0,1-1.623-.006c2.479-1.58,4.292-3.514,4.5-6.9-.891,1.25-1.128,2.487-2.1,3.24-.91.7-1.513,1.854-3.038,1.877,4.553-3.283,5.02-7.866,4.262-12.892.667,2.2,2.366,3.937,1.934,6.427-.411,2.37-.445,4.809-2.107,6.771,4.828-.647,7.613-4.657,6.685-9.505-1.077-5.628-2.8-11.087-4.346-16.585-1.623-5.769-2.419-11.707-3.933-17.489a31.9,31.9,0,0,0-3.481-8.528c-2.086-3.454-5.413-4.193-9.909-4.028C57.488,2,56.415,1.127,53.321,1.026c-5.586-.182-10.9,1.331-16.2,2.741A23.841,23.841,0,0,0,25.779,9.914c-3.89,4.005-5.55,9.062-6.6,14.408-.691,3.541-.825,7.169-2.083,10.634a17.005,17.005,0,0,1-4.785,6.735c-7.256,6.636-3.39,17.785,3.851,21.571A20.772,20.772,0,0,0,19.5,64.341c-.684.836-1.395.51-2.138.3-8.1-2.23-13.823-14.115-6.388-22.58a24.161,24.161,0,0,0,6.06-13.473,41.918,41.918,0,0,1,3.791-13.35,20.859,20.859,0,0,1,11.535-10.7A58.145,58.145,0,0,1,53.086,0c3.589-.045,5.128,1.137,5.364,3.533" transform="translate(1.716 0)" fill="#8e3a21"/>
          <path id="Trazado_895068" data-name="Trazado 895068" d="M31.2,15.61c.3,4.332,1.218,7.293,2.747,9.062-2.3.351-6.961-4.258-7.835-8-.949-4.062-.258-9.915,3.331-10.677a10.5,10.5,0,0,0-2.069,8.646c.512,3.226,2.347,5.6,4.3,8.013a43.975,43.975,0,0,1-1.19-6.955,22.389,22.389,0,0,1,.749-6.962c.781,8.217,4.691,13.857,13,16.123C40.442,25.882,35.022,22,31.2,15.61" transform="translate(5.863 1.366)" fill="#8e3a21"/>
          <path id="Trazado_895069" data-name="Trazado 895069" d="M16.75,35.975c-3.633,9.053.37,17.634,7.306,19.609a6.252,6.252,0,0,1-7.28-1.983c-3.858-5.4-3.913-11.029-.9-16.806.19-.365.365-.77.872-.819" transform="translate(3.131 8.199)" fill="#8e3a21"/>
          <path id="Trazado_895070" data-name="Trazado 895070" d="M46.89,25.11l.711.68c-.793.862-1.473.107-2.087-.23-4.214-2.3-6.695-6-8.1-10.462-.614-1.954-.981-3.983-1.483-5.973a6.646,6.646,0,0,0-2.441-4c1.057-.654,1.558-.045,2.058.545,1.83,2.162,2.253,4.888,2.963,7.49a22.392,22.392,0,0,0,6.067,10.73A3.409,3.409,0,0,0,46.89,25.11" transform="translate(7.633 1.103)" fill="#8e3a21"/>
          <path id="Trazado_895071" data-name="Trazado 895071" d="M34.568,39.544c2.921-1.406,5.575-1.828,8.315-.118-1.115,1.8-2.25,3.605-4.7,3.574-2.2-.027-2.553-2.056-3.611-3.457" transform="translate(7.879 8.731)" fill="#8e3a21"/>
          <path id="Trazado_895072" data-name="Trazado 895072" d="M24.57,24.8c2.743-2.238,8.992-2.25,11.159.069-3.851.239-7.507-1.572-11.159-.069" transform="translate(5.6 5.27)" fill="#8e3a21"/>
          <path id="Trazado_895073" data-name="Trazado 895073" d="M31.709,273.376c-.964-1.66-.232-3.224.29-4.66.67-1.847-2.08-2.63-1.12-4.416,1.079.4,2.872,2.7,2.582,3.64-.559,1.805-1.273,3.563-1.752,5.436" transform="translate(6.991 60.238)" fill="#8e3a21"/>
          <path id="Trazado_895074" data-name="Trazado 895074" d="M52.077,25.087a27.913,27.913,0,0,0-9.387.086c-.573.1-1.395.237-1.445-.609-.048-.808.753-.818,1.353-.812,3.222.029,6.439.111,9.48,1.335" transform="translate(9.4 5.413)" fill="#8e3a21"/>
          <path id="Trazado_895075" data-name="Trazado 895075" d="M27.606,28.336c2.328.372,4.509,2.776,6.922.117A3.071,3.071,0,0,1,31.6,30.635a4.357,4.357,0,0,1-4-2.3" transform="translate(6.292 6.458)" fill="#8e3a21"/>
          <path id="Trazado_895076" data-name="Trazado 895076" d="M48.756,28.58a4.559,4.559,0,0,1-5.524,1.79c-.947-.317-.947-.317-.993-1.821,2.213,1.434,4.4,2.08,6.518.031" transform="translate(9.627 6.507)" fill="#8e3a21"/>
          <path id="Trazado_895077" data-name="Trazado 895077" d="M34.829,24.18c3.867,1.765,3.869,5.853,2.216,8.657.431-1.924.815-3.388.419-4.974-.388-1.551-2.509-1.718-2.635-3.683" transform="translate(7.938 5.511)" fill="#8e3a21"/>
          <path id="Trazado_895078" data-name="Trazado 895078" d="M36.15,33.453l1.475,3.868c-1.728-.619-2.058-1.349-1.475-3.868" transform="translate(8.179 7.624)" fill="#8e3a21"/>
          <path id="Trazado_895079" data-name="Trazado 895079" d="M42.144,106.412c-1.787.57-3.389,1.763-5.453,1.518a18.04,18.04,0,0,0,8.087-4.919c-.19,1.8-1.515,2.091-1.92,3.043l-.713.359" transform="translate(8.362 23.478)" fill="#8e3a21"/>
          <path id="Trazado_895080" data-name="Trazado 895080" d="M41.582,105.958l.713-.359c.776,0,1.32-.874,2.5-.506-1.966,1.051-3.427,2.484-5.639,3.13.533-1.345,2.024-1.2,2.426-2.266" transform="translate(8.924 23.932)" fill="#8e3a21"/>
          <path id="Trazado_895081" data-name="Trazado 895081" d="M50.847,264.616c-.657,2.493.108,5.1-.728,7.516a7.252,7.252,0,0,1-2.523,3.22c-.569-.939.287-1.418.621-1.938a4.747,4.747,0,0,0,.86-4.267c-.736-2.042.658-3.175,1.771-4.531" transform="translate(10.804 60.31)" fill="#8e3a21"/>
        </g>
      </g>
    </g>
    <g id="Grupo_1113496" data-name="Grupo 1113496" transform="translate(-91.721)">
      <circle id="Elipse_11496" data-name="Elipse 11496" cx="32.5" cy="32.5" r="32.5" transform="translate(1341.721 7896.61)" fill="#bdadea"/>
      <g id="Grupo_1113495" data-name="Grupo 1113495" transform="translate(1270.13 7482.563)">
        <g id="Grupo_1113494" data-name="Grupo 1113494" clip-path="url(#clip-path-5)">
          <path id="Trazado_895082" data-name="Trazado 895082" d="M50.951,229.105c-1.1-2.481-1.892-5.168-3.377-7.392a31.268,31.268,0,0,0-6.126-6.984c-3.755-3.053-7.424-6.207-11.343-9.063-5.429-3.958-11.095-7.364-17.623-9.246-2.667-.769-5.28-1.736-8.249-2.332,1.008-2.657,1.909-5.275,2.987-7.818,1.674-3.949,3.573-7.8,5.188-11.774,2.669-6.566,5.146-13.209,7.785-19.786a50.242,50.242,0,0,0,3.37-10.934c.71-4.567.4-8.98-2.872-12.544a26.513,26.513,0,0,1-6.254-11.612,18.125,18.125,0,0,1,1.535-12.585c.98-2.071,1.843-4.2,3-6.209,1.1-1.919.163-4-.621-6a4.249,4.249,0,0,0,.025,2.529c.592,2.541-.9,4.523-1.839,6.64-.233.526-.929.343-1.392.274-2.762-.41-5.5-.971-8.276-1.282a2.4,2.4,0,0,1-2.454-2.466c-.281-4.226-.818-8.475.973-12.55a17.288,17.288,0,0,1,4.306-5.6.987.987,0,0,1,1.1-.193c3.722,1.791,7.8,2.4,11.736,3.428a51.646,51.646,0,0,0,8.14,1.206,164.187,164.187,0,0,0,19.736.306c6.58-.165,13.157-.481,19.718-1.225A85.9,85.9,0,0,0,86.905,82.8a47.04,47.04,0,0,0,6.767-2.831c1.61-.812,2.85-.4,3.734,1.243a22.764,22.764,0,0,1,2.575,8.9,91.425,91.425,0,0,1-.238,10.349c-.01.332.021.665-.29.914-2.752,2.189-5.566,4.247-9.238,4.585-.866.08-1.252-.219-1.676-1.121a10.392,10.392,0,0,1-.9-7.509,5.412,5.412,0,0,0,.014-1.292,6.444,6.444,0,0,0-.435,7.334,31.3,31.3,0,0,1,3.538,11.851,26.733,26.733,0,0,1-.272,8.891c-.847,3.9-3.36,6.9-5.716,9.947a6.463,6.463,0,0,0-1.5,3.831A54.011,54.011,0,0,0,88.5,163.343c3.229,7.011,6.175,14.1,8.895,21.3a45.5,45.5,0,0,1,1.963,6.409c.518,2.391-1.3,3.947-2.7,5.381-5.123,5.224-11.222,9.205-17.479,12.9-3.3,1.949-6.6,3.914-9.923,5.816-3.023,1.727-5.34,4.228-7.812,6.6-2.627,2.522-5.036,5.355-8.432,6.969a2.757,2.757,0,0,1-2.058.383m6.823-96.817c3.83,1.335,7.629,2.8,11.728,3.1-3.931-.95-7.57-3-11.728-3.1" transform="translate(0.532 10.291)" fill="#fdd6cf"/>
          <path id="Trazado_895083" data-name="Trazado 895083" d="M31.051,12.518a12.146,12.146,0,0,0-.009-1.543c-.447-3.107,1.117-5.468,2.867-7.748C35.173,1.582,37.193,1.485,38.962.9,42.893-.416,46.5.983,50.136,2.245c4.605,1.6,8.375,4.731,12.7,6.838.734.358,1,1.013,1.437,1.552a20.668,20.668,0,0,0,7.061,5.275c4.172,2.084,5.819,5.651,6.347,10.047.368,3.073,0,6.123.02,9.184A3.567,3.567,0,0,0,79.042,38c2.963,2.73,5.693,5.677,7.134,9.561a3.525,3.525,0,0,1-.34,3.177,14.025,14.025,0,0,1-4.922,5.013c-1.4.884-1.22,2.186-.9,3.393A7.432,7.432,0,0,0,81.8,62.676c.986.992.615,2.06-.771,2.261-1.942.282-3.941,1.059-5.815-.343-.439-.329-.931-.114-1.409.148-4.369,2.39-7.3,1.932-10.656-1.641a2.611,2.611,0,0,0-.683-.666c.071,1.558,1.06,2.514,2.053,3.468.343.33.943.6.559,1.2s-.951.165-1.363.023c-2.932-1.013-4.054-3.538-3.627-6.587.449-3.215,2.01-5.751,3.66-8.4.994-1.595.9-3.7.6-5.589-.114-.7-.285-1.266.4-1.5a1.787,1.787,0,0,0,1.242-1.789c.02-1.438,1.538-2.577.793-4.111a32.312,32.312,0,0,0-1.745-3.237,10,10,0,0,0-3.623-3.562,22.487,22.487,0,0,1-7.561-7.013,10.222,10.222,0,0,0,.605,4.437c.08.264.274.5.332.763.177.806,1.311,1.767.338,2.372-1.065.662-1.848-.549-2.356-1.327-2.412-3.688-3.706-7.664-2.7-12.13.527-2.346.278-2.68-2.1-3.338a7.991,7.991,0,0,0-3.8-.017A24.476,24.476,0,0,0,34.9,19.937c-4.972,3.546-6.8,8.654-6.3,14.733.2,2.4.445,4.89-.59,7.249a5.917,5.917,0,0,1-2.246,3.062c1.467,1.579,1.505,4.116,4.055,4.777.646.168,1.048.951,1.4,1.587a55.814,55.814,0,0,0,6.36,8.8c.178.213.346.6.538.61.786.053,1.607-.042,1.891.954a4.631,4.631,0,0,1-.03,3.247c-.068.154-.124.312-.183.469-.289.763-.375,1.874-1.442,1.784-1.3-.107-.193-1.342-.863-1.992-2.224,1.99-4.512,4.345-8.022,3.025-.156-.87.7-.732.674-1.238-1.268-.826-2.444-.4-3.626.211a9.686,9.686,0,0,1-4.261,1.312,1.687,1.687,0,0,1-1.909-1.452c1.861-.317,3.659-.62,5-1.968-.378-.7-1.027-.787-1.547-1.057-2.724,2.313-7.713,2.02-9.211-.611.745-.479,1.592-.255,2.522-.349a2.449,2.449,0,0,1,1.4-2.233A30.733,30.733,0,0,0,12.7,56.976a5.253,5.253,0,0,1-3.038-3.534,19.812,19.812,0,0,0-.648-2.077c-1.152-3.252-.948-4.364,1.959-6.15,2.48-1.525,4.54-3.542,6.874-5.225,1.387-1,.6-2.638.271-3.723-1.957-6.421.133-12.161,2.987-17.632,1.963-3.766,5.515-5.736,9.944-6.115" transform="translate(1.081 0.048)" fill="#eacbc7"/>
          <path id="Trazado_895086" data-name="Trazado 895086" d="M56.175,31.442c-1.919-2.619-2.127-5.513-1.547-8.611A21.57,21.57,0,0,0,56.4,25.748c2.279,2.722,4.665,5.263,8.248,6.43,3.082,1,4.446,4.5,3.624,8.2a6.281,6.281,0,0,1-2.815,4.26c2.562.477,4.167-1.657,4.8-6.006.778.74.468,1.556.348,2.294a6.9,6.9,0,0,1-1.47,3.49c-3.817,4.409-3.908,9.294-.216,13.805a4.271,4.271,0,0,1,.39.748c-2.141-.309-4.081-3.491-4.333-7.052-2.793,3.923-4.413,8.092-3.6,12.976a83.923,83.923,0,0,0,1.587,8.83,8.142,8.142,0,0,0,4.45,5.471,60.82,60.82,0,0,0,14.878,4.712c2.939.627,5.9,1.153,8.853,1.7,4.715.879,7.477,4.015,9.075,8.216a27.76,27.76,0,0,1,.951,15.263c-.566,3.027-.082,6.135-.267,9.2-.418,6.959-.63,13.926-1.186,20.883a159.8,159.8,0,0,0-.723,21.379,85.943,85.943,0,0,0,3.431,18.116c2.249,8.185,2.006,16.452.629,24.7-.888,5.319-.049,10.58.029,15.862a164.315,164.315,0,0,1-1.038,18.989,153.874,153.874,0,0,1-3.16,17.719,180.415,180.415,0,0,1-9.211,28.843c-3.579,8.816-7.412,17.513-11.311,26.186-1.339,2.978-2.846,5.885-4.075,8.907a16.516,16.516,0,0,0-.77,8.852,57.343,57.343,0,0,1,.07,13.647c-.929,10.931-4.712,20.985-9.205,30.852a131.094,131.094,0,0,0-8.194,22.136,40.79,40.79,0,0,0-.813,8.123c-.252,5.241-.832,10.451-1.147,15.682a113.624,113.624,0,0,0,1.3,24.588c.7,4.444,1,8.951,1.431,13.435.383,3.99,1.074,7.944,1.143,11.972a13.007,13.007,0,0,1-1.558,7,2.385,2.385,0,0,1-2.178,1.195c-7.267.426-12.97-2.734-18.458-7.131-3.692-2.958-3.273-6.569-2.944-10.288a55.123,55.123,0,0,1,3.823-14.943,1.979,1.979,0,0,0-.308-2.019c-2.6-3.643-3.3-7.737-3.11-12.169.239-5.4,1.763-10.529,2.883-15.746.573-2.666.944-5.359,1.261-8.062.358-3.039-.828-5.778-1.671-8.583-3.36-11.179-7.405-22.176-9.368-33.734a56.89,56.89,0,0,1-.166-17.462c.412-2.97,1.6-5.665,2.157-8.551a23.573,23.573,0,0,0-1-11.479c-2.112-6.994-5.74-13.328-8.38-20.084-3.9-9.989-7.6-20.041-10.512-30.386-2.285-8.127-4.378-16.3-6.49-24.469a83.665,83.665,0,0,1-1.823-12.7c-.461-4.6-.124-9.206-.151-13.808a77.548,77.548,0,0,1,2.591-19.394,34.111,34.111,0,0,0,.5-6.318,89.812,89.812,0,0,1,3.87-21.274,63.112,63.112,0,0,0,2.162-15c.311-5.553-.894-10.941-1.4-16.4-.83-8.924-2.309-17.777-3.051-26.72a151.844,151.844,0,0,1-.827-17.515A15.485,15.485,0,0,1,11.942,89.6c3.205-1.927,6.756-2.827,10.228-4.006,4.6-1.562,9.459-2.418,13.564-5.316,3.512-2.478,5.59-5.55,5.525-10.022a70.927,70.927,0,0,0-.369-8.61,1.722,1.722,0,0,0-.621-1.282,26.944,26.944,0,0,1-8.563-10.707c-.166-.4-.322-.833-.835-.981a5.052,5.052,0,0,1-4-4.025,8.639,8.639,0,0,0-3.787,8.932,3.82,3.82,0,0,0,3.293,3.111,7.054,7.054,0,0,1,3,1.351c2.13,1.529,2.445,3.2,1.093,5.433-.419.692-.793,1.412-1.3,2.317a6.517,6.517,0,0,0,3.643-3.383,18.018,18.018,0,0,0,1.135-4.7,8.232,8.232,0,0,1-.708,8.993,4.921,4.921,0,0,0,3.869-1.047c1.147-.718,1.44-2.141,2.328-3.233.588,2.724-2.176,4.776-4.61,5.029a5.092,5.092,0,0,1-2.934-.376c-1.222-.649-2.2-.155-3.28.312-1.172.5-2.4.8-3.519-.142.047-.234.055-.43.093-.436,2.565-.388,3.1-2.871,4.507-4.429,1.069-1.185.372-3-1.427-4.171a8.8,8.8,0,0,0-2.317-.918,4.867,4.867,0,0,1-3.595-4.665,9.4,9.4,0,0,1,3.566-8.583,8.1,8.1,0,0,0,3.216-7.429A30.373,30.373,0,0,1,30,26.348c1.252-4.279,4.113-6.909,7.816-8.842.805-.421,1.077-.775,1.015-1.6-.256-3.4,2.258-6.732,5.368-7.158,2.985-.408,5.808,1.891,6.726,5.3.861,3.19.708,6.421.606,9.652-.111,3.569,1.735,5.945,4.643,7.743M5.234,202.882a6.256,6.256,0,0,0,.593.219,70.744,70.744,0,0,1,15.434,5.293,79.236,79.236,0,0,1,14.862,10.128c3.552,2.945,7.274,5.7,10.221,9.352a35.039,35.039,0,0,1,5.395,10.39c.592-.261,1.1-.478,1.6-.708,2.966-1.353,5.081-3.774,7.366-5.957,3.181-3.038,6.2-6.19,10.087-8.45,4.949-2.88,10.08-5.455,14.769-8.794,4.042-2.879,8.167-5.648,11.536-9.327,1.26-1.377,2.957-2.717,2.337-5.02a161.576,161.576,0,0,0-7.744-21.037c-1.686-3.968-3.821-7.721-5.108-11.89a59.782,59.782,0,0,1-3.1-20.031A6.467,6.467,0,0,1,85,142.937c2.5-3,5.033-6.124,5.758-10.038a29.581,29.581,0,0,0-2.929-19.285,9.211,9.211,0,0,1-1.289-5.242,6.625,6.625,0,0,1,1.85-3.922c-.59,3.76-.538,7.338,1.723,10.512a14.212,14.212,0,0,0,5.777-2c2.683-1.37,4.252-3.042,4.273-6.509.032-5.209.051-10.27-2.2-15.117-1.013-2.178-2.068-2.675-4.189-1.563a34,34,0,0,1-3.162,1.487c-6.888,2.759-14.18,3.63-21.471,4.342-6.706.655-13.447.892-20.19.987-8.757.122-17.521.307-26.15-1.569a67.544,67.544,0,0,1-11.875-3.407,14.062,14.062,0,0,0-4.689,5.864c-1.835,4.016-1.21,8.17-.89,12.341a1.809,1.809,0,0,0,1.773,1.916c2.849.469,5.7.9,8.555,1.367.73.119,1.015-.239,1.4-.833a10.419,10.419,0,0,0,1.185-8.33c-.141-.655-.146-1.154.427-1.43,2.016,3.764,1.719,7.167-.439,10.891-2.35,4.058-4.112,8.511-3.29,13.488.7,4.269,2.116,8.322,5.083,11.432a15.922,15.922,0,0,1,4.673,11.566c-.012,4.075-1.269,7.856-2.672,11.616-4.137,11.091-8.5,22.086-13.407,32.866-1.26,2.773-2.27,5.658-3.4,8.514m-.124,1.153a23.722,23.722,0,0,0-1.858,5.735A58.239,58.239,0,0,0,.935,224.4c-.03,4.891.13,9.766.575,14.642a88.093,88.093,0,0,0,2.605,15.3c2.26,8.245,4.385,16.523,6.749,24.743A245.543,245.543,0,0,0,21.2,308.493a172.065,172.065,0,0,1,8.312,22.483,18.94,18.94,0,0,1-.1,11.021A44.871,44.871,0,0,0,27.6,357.666,80.249,80.249,0,0,0,31,376.977c1.747,5.974,3.386,11.983,5.248,17.921a96.355,96.355,0,0,1,4.127,18.3,88.151,88.151,0,0,1,.351,18.809c-.526,5.006-.988,10.039-2.986,14.776a52.649,52.649,0,0,0-4.122,13.646c-.422,3.271.246,6,3.042,8.27a76.86,76.86,0,0,0,11,6.89c2.206,1.245,4.591,1.181,7,1.117a1.143,1.143,0,0,0,1.094-.857A11.689,11.689,0,0,0,57,471.228c-.037-3.181-.366-6.332-.639-9.5-.478-5.545-.859-11.11-1.851-16.576-1.318-7.275-2.478-14.531-2.32-21.959a76.6,76.6,0,0,1,.948-11.322,133.064,133.064,0,0,0,1.421-16.618c.184-4.121.455-8.222,1.016-12.307.5-3.63,1.038-7.261,1.363-10.907.525-5.9.387-11.82.381-17.733a77.582,77.582,0,0,0-.756-12.817,32.634,32.634,0,0,1-.875-6.426c.1-2.989.544-5.947.44-8.971-.155-4.473.209-8.966.03-13.437-.152-3.819-.021-7.638-.017-11.445.008-5.86.091-11.73.075-17.593-.017-6.2-.626-12.385-1.136-18.572-.709-8.6-1.825-17.079-4.4-25.369-1.645-5.289-4.01-10.064-8.08-13.784a136.466,136.466,0,0,0-15.15-11.986A71.059,71.059,0,0,0,5.11,204.035M56.38,391.013c1.517-6.194,4.133-11.989,6.651-17.807,3.422-7.909,6.647-15.864,8.284-24.378a60.8,60.8,0,0,0,1.1-16.945,31.8,31.8,0,0,1,2.763-17.16c4.252-8.819,7.941-17.894,11.643-26.954a213.484,213.484,0,0,0,10-29.681,169.83,169.83,0,0,0,4.79-28.24,95.151,95.151,0,0,0-.346-20.691,31.688,31.688,0,0,0-1.142-5.914,32.407,32.407,0,0,1-7.928,8.315c-5.825,4.63-12.4,8.022-18.881,11.586-2.981,1.641-5.98,3.293-8.176,5.973a57.536,57.536,0,0,1-7.372,7.259c-1.653,1.4-3.454,2.657-5.876,2.736,2.174,5.736,2.918,11.7,3.657,17.638.721,5.786.635,11.634,1.306,17.447,1.1,9.551.821,19.186.973,28.79.082,5.24-.019,10.486.121,15.724.088,3.289-.186,6.564-.151,9.852.034,3.08-.771,6.163-.147,9.281.37,1.848.784,3.7.97,5.57.553,5.545.4,11.113.394,16.677A134.013,134.013,0,0,1,57.4,380.7a73.384,73.384,0,0,0-1.019,10.314M94.518,88.13a7.128,7.128,0,0,0-2.343-.925c-7.118-1.483-14.286-2.8-21.121-5.356-3.625-1.355-7.2-3.037-8.753-6.948a33.723,33.723,0,0,1-2.1-15.423,29.489,29.489,0,0,1-4.078,3,7.29,7.29,0,0,0-1.4,1.427c-2.728,2.931-5.081,3.126-8.284.667a12.372,12.372,0,0,1-1.517-1.312,7.172,7.172,0,0,0-3.114-1.573,32.814,32.814,0,0,1,.66,9.682,8.42,8.42,0,0,1-1.826,5.253,25.216,25.216,0,0,1-11.132,7.912C25,86.07,20.423,87.436,15.9,88.948a7.955,7.955,0,0,0-3.948,2.233A121.856,121.856,0,0,0,25.869,94.29c8.716,1.31,17.523,1.16,26.291.971,9.272-.2,18.56-.544,27.722-2.278A52.626,52.626,0,0,0,94.518,88.13m-47.724-77.6a4.018,4.018,0,0,0-.751-.449c-3.2-.844-6.368,2-6.206,5.731a2.275,2.275,0,0,1-1.3,2.345c-2.279,1.467-4.723,2.787-6.059,5.358-2.183,4.2-2.531,8.707-2.291,13.322.122,2.355.069,4.664-1.933,6.388-.391.337-.674.693-.308,1.292a6.988,6.988,0,0,0,2.83,3.054c-.164-1.92-.948-3.659-.674-5.539a3.324,3.324,0,0,1,.647,1.265,30.308,30.308,0,0,0,6.934,13.331c2.984,3.333,6.244,6.05,11.092,6.243,4.828.193,8.734-1.3,11.612-5.233,1.823-2.49,2.858-5.375,4.067-8.178.445-1.032.141-2.662,1.914-2.852.082-.008.129-.352.2-.573-4.351-.191-5.853-1-5.79-3.057,1.66,1.451,2.49,1.482,4.392.419,1.469-.821,1.811-2.269,2.04-3.657.605-3.678.139-5.8-3.519-7.275-1.232-.5-2.471-.959-3.739-1.363a5.751,5.751,0,0,0-2.67-.143c.11.873,1.089,1.013,1.051,1.845-1.275.466-2.241-.724-3.328-.707-.9.779-.442,2.081-1.6,3.19a10.034,10.034,0,0,1,.408-2.461,1.889,1.889,0,0,0-.655-2.569,8.4,8.4,0,0,1-2.741-5.2c-.412-2.072.3-4.1.154-6.157-.207-2.977-.172-2.977-3.019-3.243-.058-.006-.1-.168-.184-.318a3.685,3.685,0,0,1,2.495-.463c-.112-.791-.3-1.364-1.045-1.483-2.247-.361-3.451,1.251-4.828,2.566.446-2.76,2.765-3.116,4.954-3.668-1.115-1.106-1.745-1.449-2.688-1.138-2.385.785-3.291,2.653-3.285,5.111-1.22-2.783.216-4.934,3.821-5.735m54.757,193.7c.185-1.125.3-1.817.413-2.509.425-2.637.192-5.324.5-7.951a44.432,44.432,0,0,0-1.968-18.593c-2.89-9.215-3.395-18.642-2.83-28.145.527-8.877,1.235-17.744,1.6-26.63.115-2.785.6-5.571.285-8.578-2.848,2.255-5.766,3.9-9.387,4.044.2.942.36,1.752.543,2.556a61.345,61.345,0,0,1,1.373,12.565c.084,4.749-2.4,8.583-5.251,12.11a7.937,7.937,0,0,0-1.9,5.831c.193,3.042.429,6.072.894,9.084A57.371,57.371,0,0,0,89.964,172.9q5.19,11.533,9.344,23.456c.85,2.43,1.422,4.959,2.243,7.874M4.43,199.617c.59-.173.611-.565.727-.842,1.891-4.512,3.909-8.969,5.852-13.456,3.53-8.154,6.856-16.395,9.823-24.778,1.7-4.811,3.045-9.635,2.238-14.824a6.389,6.389,0,0,0-1.822-3.958c-6.814-6.555-9.393-14.321-6.552-23.591.4-1.3,1.277-2.447,1.3-3.879A57.174,57.174,0,0,1,5.65,112.374c-.165,1.989.418,3.65.568,5.355.375,4.26.655,8.53,1.108,12.782.69,6.467,1.694,12.9,2.19,19.384.47,6.147,1.112,12.3.812,18.5a43.729,43.729,0,0,1-1.888,12.335A63.735,63.735,0,0,0,4.43,199.617M38.751,410.861c-.439,5.131-2.087,10.007-3.128,15a31.986,31.986,0,0,0-.84,9.11,14.08,14.08,0,0,0,2.712,7.768c1.756-10.83,3.513-21.259,1.257-31.88m19-381.574c-1.351-.892-1.73-2.219-2.736-3.211.587,3.4.758,3.626,2.736,3.211" transform="translate(0 1.126)" fill="#8e3a21"/>
          <path id="Trazado_895087" data-name="Trazado 895087" d="M82.331,64.4c-3.872-2.54-3.573-8.032.62-11.208,5.209-3.943,2.73-9.063-1.2-11.85-.724-.514-1.406-1.086-2.131-1.6a6.331,6.331,0,0,1-2.611-5.8c.076-2.909.82-5.829-.209-8.726a21.107,21.107,0,0,0-2.084-5.05,7.689,7.689,0,0,0-3.449-2.783c-3.992-1.727-6.79-4.968-9.786-7.949A30.78,30.78,0,0,0,48.5,2.148,19.027,19.027,0,0,0,38.28,1.431c-2.933.7-5.352,2.18-6.63,5.066a5.922,5.922,0,0,0,1.341,6.912c-.638-3.985,1.191-6.682,4.91-6.88-1.638,1.2-3.551,1.961-4.034,3.914-.534,2.157.621,3.571,2.725,4.487-6.321.805-9.722,4.643-11.515,10.28-.149-3.95,3.041-8.051,8.074-10.583-1.618-1.86-3.529-1.753-5.541-.885-4.057,1.75-6.068,5.115-7.358,9.141a34.772,34.772,0,0,0-1.21,12.737c.2,3.474-1.114,5.883-4.279,7.373a26.837,26.837,0,0,0-3.39,2.132c-3.091,2.072-3.83,7.937.809,9.806a16.4,16.4,0,0,1,4.587,3.038c2.958,2.6,2.584,4.958-1.093,6.42a4.679,4.679,0,0,0,5.44-.845c.428.565.028.8-.245,1.047a5.38,5.38,0,0,1-7.4-.416c-.592-.733-.857-1.417.034-2.114.6.332.943,1.124,1.737,1.137a2.387,2.387,0,0,0,2.3-1.083,2.15,2.15,0,0,0-.488-2.324,11.58,11.58,0,0,0-4.645-3.47C9.7,55.066,7.783,53.412,7.763,50.27c-.021-3.289,1.881-5.452,4.508-7.1,1.083-.68,2.188-1.326,3.282-1.989a3.935,3.935,0,0,0,2.108-3.552c0-2.848-.161-5.711.068-8.542.42-5.187,1.693-10.158,5.554-13.951,1.959-1.923,4.314-3.371,7.475-2.914-.516-2.223-.928-4.351.156-6.36C33.088,1.834,36.648.04,41.069,0c9.268-.081,16.849,3.85,23.237,10.277a28.263,28.263,0,0,0,8.211,6.177,7.009,7.009,0,0,1,3.424,3.306c1.65,3.388,3.009,6.91,2.647,10.838a27.594,27.594,0,0,0-.02,4.321,5.177,5.177,0,0,0,2.306,3.72,18.557,18.557,0,0,1,4.83,4.774c2.041,3.363,2.2,7.163-1.6,10.043a7.9,7.9,0,0,0-2.59,2.8c-1.781,3.841-.283,7.779,4.712,7.677-.8,1.156-1.521,1.24-3.9.456Z" transform="translate(1.004 0)" fill="#8e3a21"/>
          <path id="Trazado_895088" data-name="Trazado 895088" d="M43.269,5.576a9.939,9.939,0,0,1,6.68,4.153c2.719,3.5,5.329,7.087,8.03,10.6a25.3,25.3,0,0,0,7.039,6.776,6.136,6.136,0,0,1,3.293,6.36,1.151,1.151,0,0,0,.182.756c2.89,5.253,2.827,10.694.986,16.225-1.172,3.519.732,5.972,4.325,5.686a1.986,1.986,0,0,1,.5.1c-1.022.837-2.284.739-3.9.06-1.788-.75-2.016-2.174-2.029-3.795-.014-1.762.782-3.327,1.23-4.971,1.68-6.158-.184-11.458-3.816-16.353a7.012,7.012,0,0,0-3.5-2.481,11.521,11.521,0,0,1-6.831-6.458c-1.228-2.551-2.337-5.159-3.556-7.713a25.893,25.893,0,0,0-5.013-6.826c-.929-.954-2.385-1.047-3.62-2.119M67.684,32.443a5.865,5.865,0,0,0-2.9-4.7,26.646,26.646,0,0,1-7.558-7.179c-.506-.662-.784-1.573-1.824-2,.374.817.658,1.516,1.005,2.183,1.368,2.63,2.785,5.228,5.644,6.58a13.73,13.73,0,0,1,5.637,5.12" transform="translate(5.596 0.721)" fill="#8e3a21"/>
          <path id="Trazado_895089" data-name="Trazado 895089" d="M24.614,25.405c.366,5.821-1.219,12.367-7.062,15.539-3.085,1.675-3.842,8.113.706,10.89a6.184,6.184,0,0,1,3.3,4.34c.268,1.649-.137,2.381-2,2.891,1.19-.929,2.035-1.935,1.31-3.529a6.681,6.681,0,0,0-2.8-3.134c-4.256-2.524-5.184-9.5-1.239-12.221,5.134-3.548,6.886-8.435,7.4-14.175.018-.2-.067-.463.386-.6" transform="translate(1.851 3.286)" fill="#8e3a21"/>
          <path id="Trazado_895090" data-name="Trazado 895090" d="M76.136,57.356c-1.731,1.783-3.7,2.407-5.978,1.107a1.676,1.676,0,0,0-1.7.067,18.252,18.252,0,0,1-6.316,1.354c-2.558.152-5.657-2.73-6.474-4.814-.046-.117.063-.3.159-.679,1.72,2.055,3.315,4.185,6.153,4.159,2.444-.023,4.926-.111,7.163-1.626a6.05,6.05,0,0,0,6.2.361c.2-.1.529.047.8.08v-.009" transform="translate(7.198 7.035)" fill="#8e3a21"/>
          <path id="Trazado_895091" data-name="Trazado 895091" d="M62.016,45.784c.439,8.033,2.455,10.276,8.318,9.254-1.093,1.644-4.378,1.644-6.555,0-2.745-2.082-3.871-6.945-1.763-9.249" transform="translate(7.879 5.922)" fill="#8e3a21"/>
          <path id="Trazado_895092" data-name="Trazado 895092" d="M23.447,55.409c.426,2.138-.759,3.521-2.286,4.675-.8.6-1.693,1.281-3,.276a7.114,7.114,0,0,0,5.283-4.951" transform="translate(2.349 7.166)" fill="#8e3a21"/>
          <path id="Trazado_895093" data-name="Trazado 895093" d="M58.288,58.931c-.495.743-.883,1.117-1.395.754a3.388,3.388,0,0,1-1.65-2.85c1.219.621,1.348,2.309,3.045,2.1" transform="translate(7.145 7.351)" fill="#8e3a21"/>
          <path id="Trazado_895094" data-name="Trazado 895094" d="M35.954,128.566c10.536-5.225,20.992-2.969,31.434,1.184-.369.7-.907.456-1.352.391a66.308,66.308,0,0,1-11.717-3.016c-4.638-1.583-9.176-1.08-13.726.3-1.595.483-3.15,1.191-4.639,1.145" transform="translate(4.65 16.235)" fill="#8e3a21"/>
          <path id="Trazado_895095" data-name="Trazado 895095" d="M44.523,127.282a20.136,20.136,0,0,1-7.3,1.729,26.6,26.6,0,0,1,7.3-1.729" transform="translate(4.815 16.462)" fill="#8e3a21"/>
          <path id="Trazado_895096" data-name="Trazado 895096" d="M34.992,304.392a6.983,6.983,0,0,1-2.054-4.256,3.924,3.924,0,0,0-1.613-2.91c-1.331-1.079-1.432-2.391-.47-3.947.1.019.286.026.291.061a6.648,6.648,0,0,0,2.543,4.2,1.27,1.27,0,0,1,.4.9c-.055,2.035.7,3.938.9,5.957" transform="translate(3.908 37.932)" fill="#8e3a21"/>
          <path id="Trazado_895097" data-name="Trazado 895097" d="M45.589,294.787c1.813,2.269,1.056,6.46-1.422,7.286.541-2.5,1.876-4.746,1.422-7.286" transform="translate(5.712 38.127)" fill="#8e3a21"/>
          <path id="Trazado_895098" data-name="Trazado 895098" d="M60.246,288.5c-1.547,2.316.026,5.7-2.695,7.713-.557-2.637.817-6.8,2.695-7.713" transform="translate(7.427 37.314)" fill="#8e3a21"/>
          <path id="Trazado_895099" data-name="Trazado 895099" d="M38.457,45.725c5.62-2.556,5.62-2.556,10.28-.559a4.781,4.781,0,0,1-5.513,4,3.067,3.067,0,0,1-1.807-.708c-1.014-.831-1.406-2.234-2.96-2.731" transform="translate(4.974 5.656)" fill="#8e3a21"/>
          <path id="Trazado_895100" data-name="Trazado 895100" d="M29.25,29.256C32.257,26.95,41.3,26.322,43.3,28.093a2.367,2.367,0,0,1-2.114.714c-2.736.006-5.472,0-8.208.01a9.657,9.657,0,0,0-3.728.439" transform="translate(3.783 3.502)" fill="#8e3a21"/>
          <path id="Trazado_895101" data-name="Trazado 895101" d="M31.8,34.869c.429-.637.854-1.156,1.713-.553a3.762,3.762,0,0,0,4.9-.159c.439-.34,1.135-.889,1.574-.123.426.741-.272,1.239-.83,1.6-1.727,1.11-5.648.7-7.361-.762" transform="translate(4.113 4.352)" fill="#8e3a21"/>
          <path id="Trazado_895102" data-name="Trazado 895102" d="M56.506,33.707c.57.835-.152,1.212-.635,1.6a5.823,5.823,0,0,1-6.244.122c-.475-.353-1.112-.82-.637-1.47s.926-.046,1.366.277c2.054,1.508,2.669,1.5,4.866.13.4-.25.654-.814,1.283-.656" transform="translate(6.315 4.354)" fill="#8e3a21"/>
          <path id="Trazado_895103" data-name="Trazado 895103" d="M41.941,40.01c1.831,1.816,3.393,1.056,4.946-.456-.112,1.595-.567,1.992-1.977,2.079-2.033.125-2.692-.163-2.969-1.623" transform="translate(5.425 5.116)" fill="#8e3a21"/>
        </g>
      </g>
    </g>
  </g>
</svg>
