<svg xmlns="http://www.w3.org/2000/svg" width="190" height="83" viewBox="0 0 190 83">
  <g id="Grupo_1113911" data-name="Grupo 1113911" transform="translate(-1210 -1610)">
    <g id="Grupo_1113910" data-name="Grupo 1113910" transform="translate(1029.949)">
      <rect id="Rectángulo_407286" data-name="Rectángulo 407286" width="190" height="83" rx="14" transform="translate(180.051 1610)" fill="#ffedee"/>
      <g id="hilo" transform="translate(219.851 1595.105)">
        <g id="Grupo_1113640" data-name="Grupo 1113640" transform="translate(18.572 26.271)">
          <path id="Trazado_896644" data-name="Trazado 896644" d="M18.9,63a28.938,28.938,0,0,0,1.534,9.443l6.215-6.215L19.223,58.8A35.364,35.364,0,0,0,18.9,63Z" transform="translate(-18.9 -32.811)" fill="#bdadea"/>
          <path id="Trazado_896645" data-name="Trazado 896645" d="M55.278,26.6A25.451,25.451,0,0,0,51,26.923l7.425,7.425,6.215-6.215A30.341,30.341,0,0,0,55.278,26.6Z" transform="translate(-25.092 -26.6)" fill="#efa6a8"/>
          <path id="Trazado_896646" data-name="Trazado 896646" d="M19.3,56.385l7.425,7.425L33.1,57.435,22.448,46.7A29.657,29.657,0,0,0,19.3,56.385Z" transform="translate(-18.977 -30.477)" fill="#efa6a8"/>
          <path id="Trazado_896647" data-name="Trazado 896647" d="M23.2,44.945,33.935,55.679,40.311,49.3l-11.7-11.7A29.765,29.765,0,0,0,23.2,44.945Z" transform="translate(-19.729 -28.722)" fill="#bdadea"/>
          <path id="Trazado_896648" data-name="Trazado 896648" d="M29.9,36.308l11.7,11.7,6.376-6.376L37.245,30.9A28.338,28.338,0,0,0,29.9,36.308Z" transform="translate(-21.022 -27.429)" fill="#efa6a8"/>
          <path id="Trazado_896649" data-name="Trazado 896649" d="M39,30.148,49.735,40.882l6.376-6.376L48.685,27A29.657,29.657,0,0,0,39,30.148Z" transform="translate(-22.777 -26.677)" fill="#bdadea"/>
          <path id="Trazado_896650" data-name="Trazado 896650" d="M44.6,98.015a31.256,31.256,0,0,0,9.443,1.534,25.451,25.451,0,0,0,4.278-.323L50.9,91.8Z" transform="translate(-23.857 -39.176)" fill="#bdadea"/>
          <path id="Trazado_896651" data-name="Trazado 896651" d="M90.3,52.3,84,58.515l7.425,7.425a36.75,36.75,0,0,0,.323-4.278A31.046,31.046,0,0,0,90.3,52.3Z" transform="translate(-31.457 -31.557)" fill="#efa6a8"/>
          <path id="Trazado_896652" data-name="Trazado 896652" d="M52.3,90.176,59.725,97.6a29.049,29.049,0,0,0,9.685-3.148L58.676,83.8Z" transform="translate(-25.343 -37.633)" fill="#efa6a8"/>
          <path id="Trazado_896653" data-name="Trazado 896653" d="M60.2,82.276,70.935,93.011A30.752,30.752,0,0,0,78.36,87.6l-11.7-11.7Z" transform="translate(-26.866 -36.109)" fill="#bdadea"/>
          <path id="Trazado_896654" data-name="Trazado 896654" d="M68.2,74.376l11.7,11.7a29.765,29.765,0,0,0,5.408-7.345L74.576,68Z" transform="translate(-28.409 -34.586)" fill="#efa6a8"/>
          <path id="Trazado_896655" data-name="Trazado 896655" d="M76.1,66.457,86.835,77.191a29.05,29.05,0,0,0,3.148-9.685L82.476,60Z" transform="translate(-29.933 -33.043)" fill="#bdadea"/>
          <path id="Trazado_896656" data-name="Trazado 896656" d="M67.29,32.858l-8.233,8.313L46.224,53.924l-6.376,6.457-6.376,6.376L25.158,74.99A30.132,30.132,0,0,1,20.8,66.515L27.015,60.3l6.376-6.376,6.376-6.376L52.6,34.715,58.815,28.5a31.191,31.191,0,0,1,8.475,4.358Z" transform="translate(-19.266 -26.966)" fill="#978bbb"/>
          <path id="Trazado_896657" data-name="Trazado 896657" d="M74.788,40.276l-8.313,8.313L60.1,54.966l-6.457,6.457L47.266,67.8l-6.376,6.376-8.313,8.313A29.853,29.853,0,0,1,26.2,76.112L34.513,67.8l6.376-6.376,6.376-6.376L60.1,42.213,68.412,33.9A31.82,31.82,0,0,1,74.788,40.276Z" transform="translate(-20.308 -28.008)" fill="#ff494f"/>
          <path id="Trazado_896658" data-name="Trazado 896658" d="M80.67,50.275l-6.3,6.215L68,62.946l-6.376,6.376L48.789,82.075,42.575,88.29A30.132,30.132,0,0,1,34.1,83.931l8.313-8.313,6.376-6.376,6.376-6.376,6.376-6.376,6.376-6.376L76.231,41.8a30.361,30.361,0,0,1,4.439,8.475Z" transform="translate(-21.832 -29.532)" fill="#978bbb"/>
        </g>
        <path id="Trazado_896659" data-name="Trazado 896659" d="M86.773,76.231H85.078a2.1,2.1,0,0,1-2.179-2.1,2.17,2.17,0,0,1,2.179-2.179h2.986a1.453,1.453,0,0,0,0-2.906H85.078a4.964,4.964,0,1,0,0,9.927h1.695a3.134,3.134,0,0,1,3.148,3.067,3.1,3.1,0,0,1-3.148,3.148H61.752A31.544,31.544,0,1,0,17.2,56.457,29.759,29.759,0,0,0,19.541,68.4,1.431,1.431,0,1,0,22.2,67.353c-.161-.323-.242-.646-.4-1.049L58.6,29.5A26.672,26.672,0,0,1,64.5,32.4l-4.923,4.923a1.427,1.427,0,0,0,2.018,2.018L66.837,34.1a32.324,32.324,0,0,1,4.439,4.358L30.759,78.894A28.342,28.342,0,0,1,26.4,74.455L47.467,53.39a1.413,1.413,0,0,0,0-2.018,1.318,1.318,0,0,0-1.937,0l-20.9,20.743a1.475,1.475,0,0,0-2.018-.484,1.414,1.414,0,0,0-.4,1.937A31.545,31.545,0,0,0,48.677,87.934H86.692a5.926,5.926,0,0,0,5.973-5.811A5.774,5.774,0,0,0,86.773,76.231Zm-66.748-20.9L24.3,59.6l-3.551,3.551A28.916,28.916,0,0,1,20.025,55.327Zm2.421-10.412,8.313,8.313L26.32,57.668l-5.973-5.973A28.69,28.69,0,0,1,22.446,44.915Zm5-7.748,9.685,9.685L32.7,51.291l-8.959-9.04A32.82,32.82,0,0,1,27.45,37.167ZM44,28.127,49.969,34.1,45.53,38.539l-8.313-8.394A28.5,28.5,0,0,1,44,28.127Zm-9.443,3.39,8.959,8.959-4.439,4.439L29.387,35.23A25.332,25.332,0,0,1,34.553,31.517Zm20.9-2.986-3.551,3.551L47.628,27.8a27.209,27.209,0,0,1,7.829.726ZM72.81,40.8a26.672,26.672,0,0,1,2.906,5.892l-36.8,36.8a26.672,26.672,0,0,1-5.892-2.906ZM75.07,68l-8.313-8.313L71.2,55.246l5.973,5.973A33,33,0,0,1,75.07,68Zm-5.085,7.748L60.3,66.061,64.739,61.7,73.7,70.662A28.278,28.278,0,0,1,69.985,75.747Zm-7.1,5.65-8.959-8.959L58.363,68l9.685,9.685A25.331,25.331,0,0,1,62.882,81.4Zm10.25-28.168,3.551-3.551a26.893,26.893,0,0,1,.807,6.78v1.13ZM51.906,74.455l8.313,8.313a28.5,28.5,0,0,1-6.78,2.018l-5.973-5.973ZM45.53,80.832l4.278,4.278a28.389,28.389,0,0,1-7.829-.807Zm5.65-34.625a1.337,1.337,0,0,1,.4-.969L53.116,43.7a1.427,1.427,0,1,1,2.018,2.018L53.6,47.256a1.466,1.466,0,0,1-2.421-1.049Z" transform="translate(0 0)" fill="#0e2d7a"/>
      </g>
    </g>
  </g>
</svg>
