<svg xmlns="http://www.w3.org/2000/svg" xmlns:xlink="http://www.w3.org/1999/xlink" width="295" height="150.975" viewBox="0 0 295 150.975">
  <defs>
    <clipPath id="clip-path">
      <rect id="Rectángulo_407325" data-name="Rectángulo 407325" width="197.414" height="150.975" fill="none"/>
    </clipPath>
    <clipPath id="clip-path-3">
      <rect id="Rectángulo_407315" data-name="Rectángulo 407315" width="2.972" height="4.7" fill="none"/>
    </clipPath>
    <clipPath id="clip-path-4">
      <rect id="Rectángulo_407316" data-name="Rectángulo 407316" width="4.739" height="7.39" fill="none"/>
    </clipPath>
    <clipPath id="clip-path-5">
      <rect id="Rectángulo_407317" data-name="Rectángulo 407317" width="46.296" height="43.848" fill="none"/>
    </clipPath>
    <clipPath id="clip-path-6">
      <rect id="Rectángulo_407318" data-name="Rectángulo 407318" width="50.674" height="71.45" fill="none"/>
    </clipPath>
    <clipPath id="clip-path-7">
      <rect id="Rectángulo_407319" data-name="Rectángulo 407319" width="48.416" height="91.698" fill="none"/>
    </clipPath>
    <clipPath id="clip-path-8">
      <rect id="Rectángulo_407320" data-name="Rectángulo 407320" width="5.327" height="24.79" fill="none"/>
    </clipPath>
    <clipPath id="clip-path-9">
      <rect id="Rectángulo_407321" data-name="Rectángulo 407321" width="3.014" height="5.571" fill="none"/>
    </clipPath>
    <clipPath id="clip-path-10">
      <rect id="Rectángulo_407322" data-name="Rectángulo 407322" width="11.463" height="5.44" fill="none"/>
    </clipPath>
    <clipPath id="clip-path-11">
      <rect id="Rectángulo_407323" data-name="Rectángulo 407323" width="3.284" height="3.495" fill="none"/>
    </clipPath>
  </defs>
  <g id="Grupo_1113911" data-name="Grupo 1113911" transform="translate(-180.051 -1142.173)">
    <rect id="Rectángulo_407314" data-name="Rectángulo 407314" width="295" height="132" transform="translate(180.051 1161.147)" fill="#ffedee"/>
    <g id="Grupo_1113729" data-name="Grupo 1113729" transform="translate(229.051 1142.173)">
      <g id="Grupo_1113728" data-name="Grupo 1113728" clip-path="url(#clip-path)">
        <g id="Grupo_1113727" data-name="Grupo 1113727">
          <g id="Grupo_1113726" data-name="Grupo 1113726" clip-path="url(#clip-path)">
            <path id="Trazado_896721" data-name="Trazado 896721" d="M417.389,606.9c0,.689-1.269,1.723-1.269,2.527s.575,5.628.575,5.628h1.037v-4.34l2.533,4.34h4.951l-.347-1.263s-2.646-.8-2.762-1.263c0,0-1.807-.623-2.169-1.707s-1.193-3.864-2.549-3.92" transform="translate(-325.228 -474.34)" fill="#ffa23a"/>
            <path id="Trazado_896722" data-name="Trazado 896722" d="M208.752,589.1l2.938-2.525-1.211,4.133,2.478,2.873,1.267-1.354-.921-1.173-1.122-1.174a38.7,38.7,0,0,1,1.351-3.676c.427-.789,0-2.958,0-2.958s-2.3.228-2.877,1.147-2.764,4.135-2.764,4.135Z" transform="translate(-162.481 -455.853)" fill="#ffa23a"/>
            <path id="Trazado_896723" data-name="Trazado 896723" d="M227.531,563.878l1.122,1.175h0c.028-.075,1.454-3.953,2.3-5.98.128-.307,1.91-3.408,4.482-7.368q-.166-.058-.331-.121h0a19.489,19.489,0,0,1-3.173-1.6c-1.672,3.966-2.974,7.088-3.047,7.26l0,.008s.427,2.169,0,2.958a38.677,38.677,0,0,0-1.351,3.676" transform="translate(-177.832 -429.847)" fill="#9e4e29"/>
            <path id="Trazado_896724" data-name="Trazado 896724" d="M406.786,541.327c1.446,6.284,3.308,13.856,3.308,14.323,1.355.056,2.188,2.836,2.549,3.921s2.168,1.707,2.168,1.707c-.115-.459-1.727-4.364-1.956-5.513a100.107,100.107,0,0,1-.519-12.243c-2.022-.439-3.546-1.395-5.55-2.2" transform="translate(-317.933 -423.087)" fill="#9e4e29"/>
            <path id="Trazado_896725" data-name="Trazado 896725" d="M312.186,76.88c2.036,4.793,5.1,9.425,5.116,11.585l2.038-22.627h0a39.5,39.5,0,0,1,.554-6h0c.2-1.468.371-2.623.371-2.623h.007l.092.007h0c.46.035,2.085.479,2.821,0,.507-.333,1.7-5.184,1.73-6.164a7.621,7.621,0,0,0-.555-3.562c.015.053.028.106.041.159,0,0-2.612-1.12-4.147,1.029-1.072,1.5-1.458,2.679-1.919,2.756s-.461-1.455-1.3-1.148-.739,2.329-1.438,3.522a.306.306,0,0,1-.215.157c-.258.964-1.622,6.062-1.8,6.62-.049.151-.127.37-.226.636-.6,1.591-1.958,4.87-2.307,5.6a6.67,6.67,0,0,0-.6,2.292c-.21,2.371.6,5.091,1.738,7.76" transform="translate(-242.612 -37.015)" fill="#9e4e29"/>
            <path id="Trazado_896726" data-name="Trazado 896726" d="M309.25,14.493a2.626,2.626,0,0,1-.463-.223,2.641,2.641,0,0,0,.42.315,2.7,2.7,0,0,0,.484.225,3.244,3.244,0,0,0,.525.132,4.043,4.043,0,0,0,.542.046,5.138,5.138,0,0,0,1.087-.109c.088-.018.175-.038.262-.06a6.051,6.051,0,0,0-.424.566c-2.2,3.33,1.322,8.245,2.415,8.043a.305.305,0,0,0,.215-.157c.7-1.193.593-3.216,1.438-3.522s.844,1.225,1.3,1.148.847-1.254,1.919-2.756c1.535-2.15,4.147-1.029,4.147-1.029-.013-.053-.026-.107-.041-.159-.949-3.508-5.2-5.1-8.506-3.862q.08-.141.15-.286a4.693,4.693,0,0,0,.356-.986,3.251,3.251,0,0,0,.076-1.062,2.582,2.582,0,0,0-.462-1.239c-.05-.07-.1-.138-.156-.2a3.143,3.143,0,0,0-.357-.37,2.64,2.64,0,0,0-.879-.515,2.7,2.7,0,0,0-.986-.142,2.973,2.973,0,0,0-.955.194,2.894,2.894,0,0,1,.953-.081,2.53,2.53,0,0,1,.9.238,2.348,2.348,0,0,1,.727.548,2.766,2.766,0,0,1,.275.362l.008.012c-.5-.5-1.486-.768-3.255-.513-3.3.474-2.092,3.826-1.439,4.371a3.725,3.725,0,0,0,2.208.845l-.073.032a4.615,4.615,0,0,1-.942.287,3.657,3.657,0,0,1-.491.055,2.9,2.9,0,0,1-.5-.025,2.54,2.54,0,0,1-.49-.119" transform="translate(-241.326 -6.476)" fill="#1b1937"/>
            <g id="Grupo_1113701" data-name="Grupo 1113701" transform="translate(74.682 18.124)" style="mix-blend-mode: multiply;isolation: isolate">
              <g id="Grupo_1113700" data-name="Grupo 1113700">
                <g id="Grupo_1113699" data-name="Grupo 1113699" clip-path="url(#clip-path-3)">
                  <path id="Trazado_896727" data-name="Trazado 896727" d="M341.91,82.975c.072,2.676,2.6,4.7,2.6,4.7h0c.2-1.468.371-2.623.371-2.623a4.142,4.142,0,0,1-2.972-2.076" transform="translate(-341.91 -82.975)" fill="#9e4e29"/>
                </g>
              </g>
            </g>
            <path id="Trazado_896728" data-name="Trazado 896728" d="M331.494,76.642a1.045,1.045,0,1,0,1.349-1,.622.622,0,1,0-.609,0,1.044,1.044,0,0,0-.74,1" transform="translate(-259.087 -58.212)" fill="#ffa23a"/>
            <path id="Trazado_896729" data-name="Trazado 896729" d="M353.975,114.969c.869.821,2.488,2.314,4,3.77,7.54.5,15.1-.763,13.489-2.718a1.44,1.44,0,0,0-1-.593c-1.334-.111-2.692,2.033-3.684,1.257-.421-.329-.253-1.1.077-2.01.642-1.774,1.9-4.074.6-4.649l-.061-.026-.044-.017c-3.047-1.144-4.249,6.179-5.992,6.972-.021.009-.042.019-.064.027l-.058.021c-.027.009-.055.017-.084.024l-.045.011a.4.4,0,0,1-.047.01c-1.695.341-5.706-1.434-7.083-2.078" transform="translate(-276.657 -85.864)" fill="#db7e3b"/>
            <path id="Trazado_896730" data-name="Trazado 896730" d="M415.382,132.647c-1.335-.112-2.692,2.033-3.684,1.257-.421-.329-.253-1.1.077-2.01Z" transform="translate(-321.576 -103.085)" fill="#ffa23a"/>
            <path id="Trazado_896731" data-name="Trazado 896731" d="M178.038,201.416c.02-.023.041-.048.064-.073h0c.483-.527,1.8-1.392,5.2-1.338,3.089.049,6.3,3.057,9.945,5.282a19.473,19.473,0,0,0,3.173,1.6h0q.164.063.331.121a10.462,10.462,0,0,0,3.3.624c6.7.116,8.432-4.62,18.4-5.427A19.812,19.812,0,0,1,228,203.4c2,.8,3.528,1.757,5.55,2.2a10.652,10.652,0,0,0,1.758.229h.017a14.91,14.91,0,0,0,2.274-.055h0a10.546,10.546,0,0,0,2.471-.553c2.392-.853,4.137-2.481,6.956-4.276a9.366,9.366,0,0,1,3.068-1.269,9.545,9.545,0,0,1,2.739-.183,9.114,9.114,0,0,1,2.835.649l0,0-12.768-13.259-3.718-3.752a25.385,25.385,0,0,1,2.271-1.145l.02-.009a11.01,11.01,0,0,1,2.91-.849,23.938,23.938,0,0,1,3.179-.221,11.088,11.088,0,0,1,4.743.868,4.212,4.212,0,0,1,.773.46l-13.948-11.8-12.6-11.267c-2.526-5.961-4.671-10.578-4.671-10.808,0-.574,1.107-7.117,1.151-8.613.016-.527,0-1.152-.027-1.84-.2-4.407-1.215-11.368-1.215-11.368s.2-.309.476-.773h0c.677-1.134,1.817-3.194,1.653-3.93-.107-.482-1.7-2.113-3.441-3.8-1.507-1.455-3.127-2.949-4-3.77,1.377.643,5.388,2.418,7.083,2.078l.046-.01.045-.011c.029-.007.056-.015.084-.024l.058-.021.064-.027c1.743-.793,2.945-8.117,5.992-6.972-3.77-1.524-11.142,2.843-13.367,4.254a11.335,11.335,0,0,0-2.4-.639,8.474,8.474,0,0,0-5.131.664,22.989,22.989,0,0,0-6.423-1.441,14.61,14.61,0,0,0-7.186,1.262,1.5,1.5,0,0,1,.41-.065h0a7.105,7.105,0,0,1,1.821.2c.916.2,1.8,1.431,2.89,2.5a4.51,4.51,0,0,0,3.472,1.641c2.851-.219,5.412-3.4,5.715-3.788a9.341,9.341,0,0,1,6.222.054l.007.025h0l-.328,3.653-.772,8.612-.931,10.392a1.858,1.858,0,0,1-.034.376c-.691,3.33-4.212,9.415-3.956,15.275,0,0-.083,3.059-.219,7.189l-27.252,23.626s1.617,1.251,5.5,1.44a23.371,23.371,0,0,0,3.416-.1l-.624.806-2.863,3.706Z" transform="translate(-139.15 -85.158)" fill="#ffa23a"/>
            <path id="Trazado_896732" data-name="Trazado 896732" d="M249.183,132.136c.5-1.411,5.076-.728,6.1-.556-1.088-1.072-1.973-2.305-2.89-2.5a7.092,7.092,0,0,0-1.821-.2h0c-.137.016-.276.039-.419.068h0c-3.379.717-1.472,4.607-.968,3.194" transform="translate(-193.98 -100.72)" fill="#db7e3b"/>
            <path id="Trazado_896733" data-name="Trazado 896733" d="M235.825,442.44a22.766,22.766,0,0,0,10.405-1.1,17.67,17.67,0,0,1,3.431-1.052,11.485,11.485,0,0,1,3.5.212,45.546,45.546,0,0,1,7.235,2.314,40.879,40.879,0,0,0,9.712,2.67,20.167,20.167,0,0,0,12.649-2.953c.209-.131.433-.266.664-.391a2.6,2.6,0,0,1,2.307-.37l1.38,1.365s12.963-1.752,11.3-3.544l-.014-.014a3.567,3.567,0,0,0-.916-.581,15.324,15.324,0,0,0-4.743-.925,24.88,24.88,0,0,0-3.179.279,10.993,10.993,0,0,0-2.91.849l-2.05,1.014,0,0-.287.142c-.062.033-.123.068-.182.1a28.676,28.676,0,0,1-10.451,3.608,19.145,19.145,0,0,1-7.835-.364,44.68,44.68,0,0,1-7.091-3.214,13.886,13.886,0,0,0-7.489-1.755,23.651,23.651,0,0,0-4.711,1.368,27.165,27.165,0,0,1-8.346,1.455c-2.143.02-1.962.1-2.375.888" transform="translate(-184.315 -342.38)" fill="#db7e3b"/>
            <path id="Trazado_896734" data-name="Trazado 896734" d="M462.052,529.121c7-1.326,8.631.623,12.041,0,3.779-.693,3.561-5.076,3.561-5.076l0,0a9.122,9.122,0,0,0-2.835-.649,15.31,15.31,0,0,0-2.739.183,9.37,9.37,0,0,0-3.068,1.27c-2.819,1.795-4.564,3.423-6.956,4.276" transform="translate(-361.127 -409.065)" fill="#db7e3b"/>
            <path id="Trazado_896735" data-name="Trazado 896735" d="M187.8,530.253c2.777-.125,7.326,2.391,7.408,2.417h0c-5.007-1.91-9.163-6.823-13.118-6.886-3.4-.054-4.719.811-5.2,1.338h0a3.8,3.8,0,0,0-.263.391c-1.39,2.384,7.891,2.888,11.176,2.74" transform="translate(-137.931 -410.936)" fill="#db7e3b"/>
            <path id="Trazado_896736" data-name="Trazado 896736" d="M378.276,186.647s1.015,6.961,1.215,11.368a5.891,5.891,0,0,0,.627.733c1.121.9,18.521,9.265,18.521,9.265a6.447,6.447,0,0,0,.362,2.025,31.935,31.935,0,0,0,2.1,2.711s.615-.759.254-1.121c-.164-.164-1.265-1.374-1.085-1.663,0,0,1.41,1.3,1.808,1.807a9.913,9.913,0,0,1,.4,1.989.283.283,0,0,0,.525.061,4.509,4.509,0,0,0,.415-2.953,21.235,21.235,0,0,0-3.037-4.647s-4.276-3.823-16.134-11.415c-.692-.443-3-4.753-5.487-8.934-.277.464-.476.773-.476.773" transform="translate(-295.65 -145.274)" fill="#9e4e29"/>
            <path id="Trazado_896737" data-name="Trazado 896737" d="M257.78,159.463c0,2.241,14.388,9.554,15.256,9.554s3.326-.794,3.9-.722,3.76.868,3.832.506-2.747-3.109-3.615-3.109a29.24,29.24,0,0,0-4.121.978s-10.122-8.673-10.05-8.89c.045-.133,4.508-3.541,8.062-6.46-1.134-2.67-1.948-5.39-1.738-7.76a7.2,7.2,0,0,1,.147-.955c-.274.193-.583.386-.811.523-3.717,5.2-10.866,13.715-10.866,16.334" transform="translate(-201.474 -111.456)" fill="#9e4e29"/>
            <g id="Grupo_1113704" data-name="Grupo 1113704" transform="translate(69.647 34.314)" style="mix-blend-mode: multiply;isolation: isolate">
              <g id="Grupo_1113703" data-name="Grupo 1113703">
                <g id="Grupo_1113702" data-name="Grupo 1113702" clip-path="url(#clip-path-4)">
                  <path id="Trazado_896738" data-name="Trazado 896738" d="M323.482,157.094a4.033,4.033,0,0,1-1.431,2.732c-1.419,1.268-3.2,2.758-3.2,2.758l.757,1.9s4.764-4.36,3.871-7.39" transform="translate(-318.855 -157.094)" fill="#9e4e29"/>
                </g>
              </g>
            </g>
            <path id="Trazado_896739" data-name="Trazado 896739" d="M338.531,260.818s-3.247-.6-3.563-.6a25.228,25.228,0,0,0-2.734.54l-.209.573a28.551,28.551,0,0,1,2.861-.557c.308.04,3.106.327,3.645.042" transform="translate(-259.502 -203.38)" fill="#db7e3b"/>
            <path id="Trazado_896740" data-name="Trazado 896740" d="M109.1,625.241c.316.271,5.142,2.8,5.142,2.8l.455-.835a21.087,21.087,0,0,1-2.033-2.388s-1.455-.981-1.591-1.64c-.1-.483.595-2.332,1.7-4.7a6.2,6.2,0,0,0-.251-4.969s-2.508,1.884-3.058,3.063l-3.3,7.07.643.35s2.814-5.264,3.763-4.747-1.794,5.722-1.478,5.992" transform="translate(-82.984 -479.505)" fill="#1b1937"/>
            <path id="Trazado_896741" data-name="Trazado 896741" d="M313.794,625.579c.081,1.3.488,7.786.488,7.786h.732s-.048-5.969,1.033-5.969,1.162,5.882,1.569,5.969,5.855,0,5.855,0v-.952a21.053,21.053,0,0,1-2.928-1.124s-1.747-.165-2.182-.679c-.318-.376-.593-2.332-.751-4.94a6.2,6.2,0,0,0-2.6-4.244s-1.3,2.855-1.22,4.153" transform="translate(-245.25 -485.69)" fill="#1b1937"/>
            <path id="Trazado_896742" data-name="Trazado 896742" d="M128.576,332.127c.136.659,1.591,1.64,1.591,1.64-.089-.345,1.63-3.841,2.03-7.465s6.035-20.62,8.13-28.752c1.142-4.432,5.333-11.618,5.78-12.928.377-1.1,1.341-7.8,2.177-16.4,5.466,8.679,11.472,17.641,11.472,17.641s-1.708,8.218-.895,13.841c1.21,8.368,11.387,24.482,11.387,24.482a6.2,6.2,0,0,1,2.6,4.244c.158,2.608.432,4.563.751,4.94.435.514,2.182.679,2.182.679-.244-.259-.406-4.152-1.789-7.526s-7.319-21.282-7.645-29.673c-.141-3.632.153-12.218-.081-13.582-.378-2.2-4.879-26.3-14.72-39.276a7.759,7.759,0,0,0-1.844-1.775,6.35,6.35,0,0,0-3.552-1.1h0c-.122.007-.268.01-.435.012-2.4.034-9.138-.115-10.859,7.366-1.691,7.355,2.29,34.976,2.29,34.976s-3.418,6.713-5.394,12.04c-2.941,7.928-1.715,26.946-1.715,26.946a6.2,6.2,0,0,1,.251,4.969c-1.109,2.366-1.8,4.214-1.7,4.7" transform="translate(-100.484 -188.454)" fill="#9e4e29"/>
            <path id="Trazado_896743" data-name="Trazado 896743" d="M95.088,44.546l16.673,4.78h0l-4.109-13.756,2.4-12.143.387-1.953,1.515-7.749a28.606,28.606,0,0,0,1.752-2.262c.685-1.027.274-3.219,1.027-3.425s1.164.685,1.507.822,2.192-2.4,2.535-3.014a6.693,6.693,0,0,0,.479-1.918,8.207,8.207,0,0,0,1.918,0A1.55,1.55,0,0,0,122.2,3.4c-2.067-2.723-7.729-4.949-11.154-2-2.681,2.306-.548,7.056,0,8.494a8.329,8.329,0,0,1,.259.825c-.1.006-9.736.573-10.523,3.876-.79,3.319,1.818,9.484.317,11.223s-9.722,2.371-10.2,8.457,4.189,10.277,4.189,10.277" transform="translate(-71.018 0)" fill="#1b1937"/>
            <path id="Trazado_896744" data-name="Trazado 896744" d="M181.8,137.823s-.158-7.35-.316-10.038-.632-8.466-.632-8.466,3.4-2.79,2.529-6.63a6.971,6.971,0,0,0-2.181-2.266c-1.949-1.563-4.8-3.49-6.842-4.829a6.554,6.554,0,0,1,.013,5.119c-.262.706-3.433,4.076-6.638,7.386h0l4.1,13.755h0l.758,3.538Z" transform="translate(-131.096 -82.53)" fill="#272363"/>
            <g id="Grupo_1113707" data-name="Grupo 1113707" transform="translate(4.378 51.93)" opacity="0.6">
              <g id="Grupo_1113706" data-name="Grupo 1113706">
                <g id="Grupo_1113705" data-name="Grupo 1113705" clip-path="url(#clip-path-5)">
                  <path id="Trazado_896745" data-name="Trazado 896745" d="M66.34,239.356s-5.9,5.633-14.037,17.567a147.848,147.848,0,0,0-13.279,24.67l-18.98-26.017s19.692-24.189,46.3-16.22" transform="translate(-20.044 -237.745)" fill="#272363"/>
                </g>
              </g>
            </g>
            <g id="Grupo_1113710" data-name="Grupo 1113710" transform="translate(0 52.188)" opacity="0.69">
              <g id="Grupo_1113709" data-name="Grupo 1113709">
                <g id="Grupo_1113708" data-name="Grupo 1113708" clip-path="url(#clip-path-6)">
                  <path id="Trazado_896746" data-name="Trazado 896746" d="M50.674,240.278l-24.866,70.1L0,278.5s26.5-48.171,50.674-38.222" transform="translate(0 -238.925)" fill="#272363"/>
                </g>
              </g>
            </g>
            <g id="Grupo_1113713" data-name="Grupo 1113713" transform="translate(2.289 52.538)" opacity="0.84">
              <g id="Grupo_1113712" data-name="Grupo 1113712">
                <g id="Grupo_1113711" data-name="Grupo 1113711" clip-path="url(#clip-path-7)">
                  <path id="Trazado_896747" data-name="Trazado 896747" d="M58.893,242.571s-11.64,32.148-12.161,89.323c-.029,3.162-36.256-17.117-36.256-17.117S33.526,226.1,58.893,242.571" transform="translate(-10.477 -240.53)" fill="#272363"/>
                </g>
              </g>
            </g>
            <path id="Trazado_896748" data-name="Trazado 896748" d="M110.2,56.231c0,2.45,15.728,7.824,16.676,7.824a4.414,4.414,0,0,0,.736-.088,29.67,29.67,0,0,1,3.532-.7c.632.079,4.11.948,4.189.553s-3-3.4-3.952-3.4a31.979,31.979,0,0,0-4.505,1.068l0,0c-.233-.136-11.06-6.443-10.982-6.678.041-.122,3.478-3.566,6.877-7.078,3.2-3.31,6.376-6.679,6.638-7.386a6.557,6.557,0,0,0-.013-5.119c2.042,1.338,4.892,3.265,6.842,4.829l-4.66-7.37s.375-1.327.732-2.8a20.009,20.009,0,0,0,.629-3.455h0l.1.045h0c.474.2,2.385.979,3.044.776.413-.128,2.328-5.137,2.328-6.3,0-.98-.1-4.289-1.107-5.394a1.55,1.55,0,0,1-1.016.531,8.194,8.194,0,0,1-1.918,0,6.691,6.691,0,0,1-.479,1.918c-.342.617-2.192,3.151-2.535,3.014s-.753-1.027-1.507-.822-.342,2.4-1.027,3.425a28.6,28.6,0,0,1-1.752,2.262l-1.515,7.749-.03.152c-1.038.381-2.3,1.37-3.708,3.6C118.563,42.534,110.2,52.99,110.2,56.231" transform="translate(-86.127 -12.16)" fill="#9e4e29"/>
            <g id="Grupo_1113716" data-name="Grupo 1113716" transform="translate(45.246 54.956)" style="mix-blend-mode: multiply;isolation: isolate">
              <g id="Grupo_1113715" data-name="Grupo 1113715">
                <g id="Grupo_1113714" data-name="Grupo 1113714" clip-path="url(#clip-path-8)">
                  <path id="Trazado_896749" data-name="Trazado 896749" d="M212.474,251.6a105.8,105.8,0,0,0-2.972,10.34c-.658,2.709-2.355,10.372-2.355,10.372l2.626,4.078Z" transform="translate(-207.147 -251.6)" fill="#9e4e29"/>
                </g>
              </g>
            </g>
            <g id="Grupo_1113719" data-name="Grupo 1113719" transform="translate(43.792 12.157)" style="mix-blend-mode: multiply;isolation: isolate">
              <g id="Grupo_1113718" data-name="Grupo 1113718">
                <g id="Grupo_1113717" data-name="Grupo 1113717" clip-path="url(#clip-path-9)">
                  <path id="Trazado_896750" data-name="Trazado 896750" d="M200.486,55.657c.069,2.473,2.385,5.571,2.385,5.571a19.979,19.979,0,0,0,.63-3.455,9.172,9.172,0,0,1-3.014-2.116" transform="translate(-200.486 -55.657)" fill="#9e4e29"/>
                </g>
              </g>
            </g>
            <path id="Trazado_896751" data-name="Trazado 896751" d="M889.006,650.6c-.355-1.9-.955-4.383-.955-4.383l.312-3.852,3.128.419-.831,10.247a2.988,2.988,0,0,1-1.655-2.431" transform="translate(-694.077 -502.052)" fill="#672a52"/>
            <path id="Trazado_896752" data-name="Trazado 896752" d="M709.476,636.829q-2.044-.13-4.077-.266a76.645,76.645,0,0,1-9.124-.922c-1.375-.275-3.852-.828-4.488-2.372-.857-2.081,2.412-3.5,3.9-3.892,7.94-2.08,16.286.378,24.295.736q7.468.334,14.937.656l-.48,5.921-9.91.779c-1.58-.045-3.16-.071-4.74-.119-3.412-.1-6.872-.3-10.316-.521" transform="translate(-540.571 -491.258)" fill="#301c2f"/>
            <path id="Trazado_896753" data-name="Trazado 896753" d="M702.018,533.24c-.525,1.58-1.513,2.715-3.969,3-2.807.322-7.682-.218-8.031-3.656a32.959,32.959,0,0,1,.023-4.1c.154-2.951,2.651-24.7,3.082-27.139l14.309.743c-.005,1.479.535,2.484.086,4.263-.257,1.021-.725,2.645-1.312,4.606q-1.707,9.208-3.414,18.416a31.474,31.474,0,0,1-.773,3.871" transform="translate(-539.255 -391.834)" fill="#301c2f"/>
            <path id="Trazado_896754" data-name="Trazado 896754" d="M718.447,345.692c-.363,1.523-3.331,14.012-3.331,14.012l-.028,0-15.427-1.785,1.8-5.474,2.425-8.4.472-1.638a6.226,6.226,0,0,1-1.542-.212c-5.547-1.542-2.537-16.964-1.463-21.736.2-.882.331-1.4.331-1.4l3.073-1.077s2.4,15.406,2.122,15.72c-.045.051.257-.077.794-.329a24.084,24.084,0,0,1,5.694-7.513l4.54-2.348,2.882-1.491.614-.318h0a24.6,24.6,0,0,1,1.592,3.56,9.706,9.706,0,0,1,.611,4.528,21.226,21.226,0,0,1-.558,3.6,39.641,39.641,0,0,1-3.921,9.449c-.364,1.495-.626,2.6-.686,2.856" transform="translate(-546.768 -248.522)" fill="#672a52"/>
            <path id="Trazado_896755" data-name="Trazado 896755" d="M763.1,329.818l-.358,2.865,4.54-2.348,2.882-1.491.614-.318h0l-.9-1.813-.066.03-6.58,3.013Z" transform="translate(-596.14 -255.349)" fill="#10215f"/>
            <g id="Grupo_1113722" data-name="Grupo 1113722" transform="translate(157.122 90.077)" style="mix-blend-mode: multiply;isolation: isolate">
              <g id="Grupo_1113721" data-name="Grupo 1113721">
                <g id="Grupo_1113720" data-name="Grupo 1113720" clip-path="url(#clip-path-10)">
                  <path id="Trazado_896756" data-name="Trazado 896756" d="M730.8,412.388c-2.656,2.131-7.342,5.355-11.463,5.44l.472-1.638c3.491.074,8.078-2.15,10.991-3.8" transform="translate(-719.333 -412.388)" fill="#0c48ac"/>
                </g>
              </g>
            </g>
            <path id="Trazado_896757" data-name="Trazado 896757" d="M672.128,267.8l-2.164,7.337a1.187,1.187,0,0,1-1.393.81l-3.126-.746a1.045,1.045,0,0,1-.763-1.325l.357-1.208-1.351-.322-.14.476-4.913-1.173.163-.554-1.35-.322.005-.018-2.956.212,1.913-6.485,2.45,1.5.005-.018,1.351.322.163-.553,4.913,1.173-.186.63,1.351.322.39-1.323a1.187,1.187,0,0,1,1.393-.81l1.845.44.33-1.119,1.247.3-.33,1.119.034.008a1.045,1.045,0,0,1,.763,1.325" transform="translate(-511.537 -206.711)" fill="#1b1937"/>
            <path id="Trazado_896758" data-name="Trazado 896758" d="M705.447,280.6s1.214,2.49,2.114,2.967.826-1.406.986-1.986,1.4-1.066,1.4-1.066-.489,5.718-.624,5.9-1.165,2.287-1.165,2.287l-3.073,1.076s-1.4-4.259-1.127-5.3a29.05,29.05,0,0,1,1.488-3.875" transform="translate(-550.168 -219.245)" fill="#febc6f"/>
            <path id="Trazado_896759" data-name="Trazado 896759" d="M750.464,279.083a34.74,34.74,0,0,0-1.1,5.173c.034,1.35-.454,3.829-.217,4.054a17.965,17.965,0,0,0,3.069.553l.3,3.654,6.313-2.9c.151-.727.3-1.322.5-2.253-.326-.14-1.731-.81-1.929-2.082-.157-1.009.457-1.53-.36-1.843s-1.6,1.207-1.6,1.207-.95-1-.941-1.744.253-1.176-.032-1.446-3.121-1.4-3.992-2.375" transform="translate(-585.459 -218.124)" fill="#febc6f"/>
            <path id="Trazado_896760" data-name="Trazado 896760" d="M753.02,262.54c.871.976,3.707,2.1,3.992,2.375s.04.7.032,1.446.941,1.744.941,1.744.786-1.52,1.6-1.207.2.834.36,1.843c.2,1.272,1.6,1.942,1.929,2.082l.068.027c.792-2.295,4.179-7.765,1.508-9.453-1.843-1.163-2.945-.884-5.338-1.646a22.422,22.422,0,0,1-4.2-1.835s-2.823,2.466-.9,4.623" transform="translate(-588.015 -201.581)" fill="#10215f"/>
            <g id="Grupo_1113725" data-name="Grupo 1113725" transform="translate(166.753 69.231)" style="mix-blend-mode: multiply;isolation: isolate">
              <g id="Grupo_1113724" data-name="Grupo 1113724">
                <g id="Grupo_1113723" data-name="Grupo 1113723" clip-path="url(#clip-path-11)">
                  <path id="Trazado_896761" data-name="Trazado 896761" d="M766.711,316.953a5.557,5.557,0,0,1-1.069,1.062,14.007,14.007,0,0,1-2.215.446l.215,1.986a10.225,10.225,0,0,0,2.327-1.649,3.1,3.1,0,0,0,.741-1.846" transform="translate(-763.428 -316.953)" fill="#febc6f"/>
                </g>
              </g>
            </g>
            <path id="Trazado_896762" data-name="Trazado 896762" d="M568.313,673.792c1.868-.508,4.291-1.306,4.291-1.306h3.865l-.165,3.151H566.024a2.987,2.987,0,0,1,2.289-1.845" transform="translate(-442.389 -525.597)" fill="#672a52"/>
            <path id="Trazado_896763" data-name="Trazado 896763" d="M592.806,503.56q-.514-.091-1.027-.185c-1.016-.187-1.467-.8-2.193-1.517a6.2,6.2,0,0,1-1.124-6.085,13.771,13.771,0,0,1,2.594-4.28,4.164,4.164,0,0,1,3.2-1.018c4.194.286,8.387.947,12.555,1.481q3.821.49,7.638,1.011c.313.043,4.356.411,4.39.654l2.184,15.375a20.615,20.615,0,0,1-4.948-.689c-1.017-.274-2.633-.768-4.583-1.387a7.937,7.937,0,0,0-.962-.176q-4.355-.794-8.713-1.578-3.259-.586-6.519-1.167c-.831-.148-1.662-.291-2.493-.439" transform="translate(-459.659 -383.333)" fill="#301c2f"/>
            <path id="Trazado_896764" data-name="Trazado 896764" d="M577.587,495.028a6.351,6.351,0,0,1,2.3-3.485,6.435,6.435,0,0,1,4.807-1.126,5.878,5.878,0,0,1,3.911,2.562,5.242,5.242,0,0,1,.785,2.15c-1.777,11.14-3.56,22.8-3.481,24.233-.343,5.481-.668,10.752-.668,10.752h-4.8s-2.321-20.892-3.326-32.026a13.715,13.715,0,0,1,.467-3.061" transform="translate(-451.061 -383.226)" fill="#301c2f"/>
          </g>
        </g>
      </g>
    </g>
  </g>
</svg>
