<svg xmlns="http://www.w3.org/2000/svg" xmlns:xlink="http://www.w3.org/1999/xlink" width="71.551" height="275.304" viewBox="0 0 71.551 275.304">
  <defs>
    <clipPath id="clip-path">
      <rect id="Rectángulo_407247" data-name="Rectángulo 407247" width="55.489" height="275.304" fill="none"/>
    </clipPath>
  </defs>
  <g id="Grupo_1113502" data-name="Grupo 1113502" transform="translate(-507.387 -7482.563)">
    <path id="Polígono_9" data-name="Polígono 9" d="M16.062,0,32.125,37.287H0Z" transform="translate(546.814 7720.385)" fill="#bdadea"/>
    <g id="Grupo_1113489" data-name="Grupo 1113489" transform="translate(507.387 7482.563)">
      <g id="Grupo_1113488" data-name="Grupo 1113488" clip-path="url(#clip-path)">
        <path id="Trazado_895013" data-name="Trazado 895013" d="M32.745,160.771a21.589,21.589,0,0,1-.654-3.616,25.689,25.689,0,0,0-3.57-8.927A49.1,49.1,0,0,0,19.59,138.4a63.961,63.961,0,0,0-5.119-4.06c-.348-.248-.472-.5-.223-1.02C15.41,130.9,16.42,128.409,17.6,126c.894-1.826,1.814-3.633,2.562-5.525a9.319,9.319,0,0,0,.656-4.173c-.12-1.62.009-3.236-.162-4.869a42.419,42.419,0,0,0-2.042-8.534c-.839-2.621-1.681-5.239-2.359-7.914a5.537,5.537,0,0,1,1.379-5.295,7.832,7.832,0,0,1,5.945-2.676,11.505,11.505,0,0,1,4.827.439,12.58,12.58,0,0,1,3.378,2.074,3.012,3.012,0,0,0,3.38.2,29.014,29.014,0,0,1,7.225-2.416,4.28,4.28,0,0,1,1.419-.027,1.51,1.51,0,0,1,1.215,1.041c1.9,4.13,1.374,8.112-.256,12.146a25.509,25.509,0,0,0-1.283,5.828,36.514,36.514,0,0,0-.182,5.377,18.9,18.9,0,0,0,1.759,7.45c1.394,3.283,3.477,6.2,5.324,9.239a2.653,2.653,0,0,1,.393,2.188A51.919,51.919,0,0,1,44.6,145.188c-2.115,3.273-3.97,6.715-5.89,10.111a19.748,19.748,0,0,1-5.1,5.307.885.885,0,0,1-.87.164" transform="translate(-4.412 -27.176)" fill="#fdd6cf"/>
        <path id="Trazado_895014" data-name="Trazado 895014" d="M49.561,13.4a6.389,6.389,0,0,0,.222,1.225c.461,1.165-.285,2.207-.309,3.329-.014.672-.7,1.006-1.423,1.073a6.111,6.111,0,0,1-6.462-4.211c-.439-1.277-.893-2.549-1.3-3.835a4.311,4.311,0,0,1-.063-2.119,1.241,1.241,0,0,1,.907-1.006c.487-.146.817.14,1.175.43a26.075,26.075,0,0,1,2.8,3.335,4.241,4.241,0,0,0,.377.324c.066-.979.367-1.689,1.511-1.583.1-.87.49-1.618.587-2.474.148-1.3,2.532-2.439,3.743-1.825a1.117,1.117,0,0,0,1.106.089,2.307,2.307,0,0,1,3.257,1.74,4.749,4.749,0,0,1-4.5,5.912c-.571.052-1.021-.3-1.627-.4" transform="translate(-12.54 -1.84)" fill="#eacbc7"/>
        <path id="Trazado_895015" data-name="Trazado 895015" d="M14.861,13.153a2.922,2.922,0,0,0-1.616.483A2.473,2.473,0,0,1,9.667,12.43c-.559-1.119-.98-2.3-1.544-3.419C7.2,7.176,8.5,4.563,10.475,3.9A4.736,4.736,0,0,1,12.9,3.285a5.224,5.224,0,0,1,3.746,3.708c.059.333.137.663.216,1.037A6.174,6.174,0,0,1,17.9,7.759c.985-.081,1.363.4,1.064,1.316a1.933,1.933,0,0,0-.091,1.061c.571-.257.734-.863,1.152-1.218.366-.31.691-.729,1.228-.391.483.3.353.779.19,1.191-.586,1.478-1.141,2.971-1.714,4.45-.469,1.212-.635,2.494-1.15,3.681A2,2,0,0,1,16.4,19.3c-1.007-.113-1.385-.771-1.586-1.708a12.62,12.62,0,0,1,.048-4.438" transform="translate(-2.444 -1.017)" fill="#eacbc7"/>
        <path id="Trazado_895018" data-name="Trazado 895018" d="M12.373,11.738C9.327,13,6.5,11.363,5.59,8.057,4.782,5.119,7.3.79,11.154.471a3.549,3.549,0,0,1,3.809,3.608c0,.265,0,.53,0,.96a6.339,6.339,0,0,1,3.027-1.767c.128-.03.316-.053.363-.14,1.076-1.983,3.061-1.939,4.871-2.06a18.342,18.342,0,0,1,7.414,1.441,11.9,11.9,0,0,1,2.843,1.275c.175-.7-.038-1.344.2-1.947A2.936,2.936,0,0,1,37.813.322a3.918,3.918,0,0,0,1.567.3c2.858.054,4.6,1.827,4.477,4.987a5.836,5.836,0,0,1-3.05,5.354,17.963,17.963,0,0,1-2.939.993v2.111c.85-.092,1.3-.508,1.286-1.361.643.043.572.434.469.806-.255.92-1.163,1.357-2.719,1.259a5.9,5.9,0,0,0,5,1.5,7.819,7.819,0,0,1-3.972.885c.9,1.56.3,3.034-.256,4.411-.479,1.185-.9,2.529-2.316,3.077-.3.115-.338.477-.4.784a10.966,10.966,0,0,1-3.114,5.59c-.645.635-.321,1.614-.492,2.425-.221,1.05-.093,2.168-.254,3.235-.408,2.7,1.055,4.269,3.188,5.427a43.808,43.808,0,0,0,8.624,3.252,6.045,6.045,0,0,1,4.421,4.75c.916,3.452.54,6.822.2,10.261-.245,2.488-.441,4.983-.69,7.471-.313,3.136-.681,6.268-.939,9.409-.406,4.928-.835,9.844.365,14.759.661,2.7.4,5.527.407,8.3a1.73,1.73,0,0,0,.36,1.2,44.891,44.891,0,0,1,5.951,9.646,30.11,30.11,0,0,1,2,8.157,61.979,61.979,0,0,1,.36,12.082,117.219,117.219,0,0,1-1.629,13c-.91,5.321-2.317,10.508-3.725,15.7-.894,3.3-2.225,6.454-3.261,9.706-1.51,4.746-3.325,9.376-5.274,13.954a8.8,8.8,0,0,0-.492,4.494c.384,3.542.834,7.078.965,10.64A34.477,34.477,0,0,1,39.3,212.844c-3,7.667-6.839,14.938-10.408,22.337a21.33,21.33,0,0,0-2.075,8.4c-.155,3.378.461,6.682.775,10.015q.348,3.692.647,7.388c.267,3.314.847,6.585,1.327,9.87.054.368.085.739.122,1.109.286,2.859-1.294,3.616-3.587,3.252a13.694,13.694,0,0,1-9.4-5.817c-1.433-2.088-1.4-4.672-1.005-7.159a31.007,31.007,0,0,1,1.5-5.233,62.589,62.589,0,0,0,2.429-10.02c.131-.771.711-1.272.711-2.131a22.667,22.667,0,0,0-.939-6.006c-1.015-3.694-1.547-7.478-2.375-11.205a79.773,79.773,0,0,1-1.673-13.913,69.713,69.713,0,0,1,.541-10.928c.446-3.9,1.4-7.736,1.3-11.7a35.306,35.306,0,0,0-1.316-7.456,46.714,46.714,0,0,0-3.254-8.83,115.667,115.667,0,0,1-6.442-17.486,91.209,91.209,0,0,1-2.829-11.508,80.691,80.691,0,0,1-.692-12.172A58.9,58.9,0,0,1,3.6,121.7a48.652,48.652,0,0,1,3.435-10.708,5.442,5.442,0,0,0,.206-4.432A48.21,48.21,0,0,1,4.547,89.915a74.1,74.1,0,0,0-1.11-9.989c-.569-4.4-1.429-8.747-1.979-13.148-.3-2.405-.986-4.764-1.273-7.17-.487-4.1-.156-8.06,2.6-11.46,1.421-1.754,3.45-2.408,5.431-3.192,3.631-1.438,7.355-2.642,10.66-4.853,1.507-1.009,1.491-2.42,1.574-3.8.109-1.813-.095-3.642-.07-5.463a1.176,1.176,0,0,0-.432-1.043,10.442,10.442,0,0,1-2.707-3.771,1,1,0,0,0-1.057-.709,2.661,2.661,0,0,1-2.18-1.14c-1.11-1.5-1.857-3.165-1.078-5.087a1.965,1.965,0,0,0-.025-1.547,10.154,10.154,0,0,1-.529-5.8M9.58,107.28c-1.232,2.886-2.337,5.643-3.309,8.462a52.11,52.11,0,0,0-2.722,15.431,80.019,80.019,0,0,0,.194,10.4,49.307,49.307,0,0,0,.942,7.259c.716,2.849,1.427,5.7,2.241,8.523a92.408,92.408,0,0,0,4.187,12.033c2.057,4.634,4.434,9.132,5.591,14.13a55.564,55.564,0,0,1,1.487,8.571,33.353,33.353,0,0,1-.69,7.172c-.373,2.542-.879,5.076-1.067,7.632a63.957,63.957,0,0,0-.147,8.233,71.184,71.184,0,0,0,1.025,9.594c.778,4.012,1.427,8.051,2.291,12.048.632,2.928,1.576,5.812,1.114,8.9-.163,1.087-.608,2.067-.811,3.13-.31,1.622-.748,3.218-1.108,4.831-.63,2.823-1.955,5.455-2.346,8.339a12.721,12.721,0,0,0-.241,4.263,7.821,7.821,0,0,0,3.865,5.686,37.339,37.339,0,0,0,5.9,2.452,3.658,3.658,0,0,0,1.506.119c1.532-.136,2.069-.7,1.754-2.152-.379-1.748-.661-3.5-.938-5.269-.352-2.238-.769-4.458-.9-6.728-.12-2.063-.4-4.117-.5-6.18-.117-2.405-.518-4.8-.587-7.185a96.5,96.5,0,0,1,.275-9.71c.306-4.225.82-8.425,1.216-12.638q.642-6.827,1.262-13.655c.292-3.237.525-6.481.851-9.715a108.549,108.549,0,0,0,.345-13.331c-.1-4.51-.364-9.017-.525-13.526-.067-1.9.031-3.81-.1-5.7-.267-3.89-.267-7.788-.463-11.679-.146-2.9-.168-5.813-.4-8.708-.406-5.1-.718-10.209-1.332-15.3a29.266,29.266,0,0,0-5.637-14.571,53.1,53.1,0,0,0-7.085-7.17,49.111,49.111,0,0,0-5.14-3.987M27.412,236.852c1.589-3.809,3.554-7.363,5.322-11.008,2.2-4.54,4.306-9.119,6.088-13.84a36.11,36.11,0,0,0,2.168-9.152,50.25,50.25,0,0,0-.1-7.736c-.089-1.718-.239-3.436-.452-5.142a15.1,15.1,0,0,1,.232-5.649A93.61,93.61,0,0,1,44.2,174.4c.94-2.47,1.536-5.056,2.511-7.5a112.015,112.015,0,0,0,4.018-12.98c.879-3.329,1.587-6.7,2.174-10.106a101.187,101.187,0,0,0,1.457-11.171,63.421,63.421,0,0,0,.1-9.355,43.213,43.213,0,0,0-1.758-10.2,35.98,35.98,0,0,0-3.959-7.645c-.582-.915-1.3-1.741-1.974-2.627-.406,1.392-.774,2.685-1.158,3.974a44.813,44.813,0,0,1-2.779,7.471c-2,3.963-4.346,7.734-6.488,11.618a20.686,20.686,0,0,1-7.405,8.036c-.412.249-.375.56-.312.948.47,2.885.577,5.806.832,8.712.278,3.168.455,6.347.591,9.525.236,5.485.49,10.972.573,16.46.054,3.584.223,7.165.155,10.758-.055,2.85-.069,5.713.1,8.577a77,77,0,0,1,.027,11.137c-.244,2.837-.32,5.695-.687,8.515-.527,4.034-.683,8.1-1.143,12.135-.339,2.968-.587,5.945-.89,8.916-.246,2.422-.513,4.841-.771,7.261M9.879,106.692a63.89,63.89,0,0,1,11.943,10.834,25.967,25.967,0,0,1,6.265,13.732,4.407,4.407,0,0,0,.586,2.3c2.018-1.648,4.02-3.184,5.329-5.431q3.63-6.231,7.287-12.446a48.879,48.879,0,0,0,4.845-12.4,1.949,1.949,0,0,0-.307-1.812c-.894-1.161-1.465-2.518-2.273-3.739a36.461,36.461,0,0,1-2.811-4.913,22.932,22.932,0,0,1-2.039-11.573,29.925,29.925,0,0,1,1.875-9.2,12.9,12.9,0,0,0,.5-9.059c-.883-2.751-.666-2.99-3.675-2.534-.677.1-1.318.305-1.975.47-1.948.487-3.617,1.709-5.586,2.1a2.571,2.571,0,0,1-2.519-.4,10.458,10.458,0,0,0-3.716-2.252,10.178,10.178,0,0,0-8.253.722c-2.529,1.5-4.2,3.675-3.323,6.774.67,2.374,1.356,4.741,2.141,7.084a43.741,43.741,0,0,1,2.271,8.93c.2,1.737.025,3.469.179,5.19a8.428,8.428,0,0,1-.617,4.156c-1.965,4.484-4.046,8.917-6.128,13.466m-1.551,1.121c.276-.676.483-1.284.763-1.855q2.307-4.69,4.647-9.363a.905.905,0,0,0,.08-.657A112.68,112.68,0,0,1,12.15,81.95c-.284-3.853-.408-7.718-.659-11.575-.173-2.665-.39-5.328-.731-7.98-.173-1.341-.2-2.7-.287-4.054l.267-.032c.63,1.9.431,3.978,1.011,5.962.485-.712.861-1.358,1.329-1.93a6.589,6.589,0,0,1,3.32-2.582c3.744-.958,7.353-.749,10.531,1.686a3.671,3.671,0,0,0,4.163.377c2.88-1.341,5.76-2.7,9.137-2.138.2-1.183.39-2.313.581-3.442a2.584,2.584,0,0,1,.38,1.708c-.1,1.024-.548,2.048-.046,3.1a13.7,13.7,0,0,1,.4,10.487,48.852,48.852,0,0,0-1.886,7.559,24.379,24.379,0,0,0,1.036,12.086c.846,2.4,2.634,4.248,3.827,6.447.412.759.926,1.462,1.561,2.452a44.71,44.71,0,0,0-.335-7.278c-.3-1.832-.718-3.653-.9-5.5a46.724,46.724,0,0,1-.034-6.853c.164-3.279.454-6.546.813-9.81.236-2.152.793-4.254.87-6.43a52.96,52.96,0,0,1,.411-5.674,18.213,18.213,0,0,0-.261-8.427c-.54-1.653-1.288-3.13-3.093-3.732-.641-.213-1.286-.411-1.926-.626-2.973-1-6.078-1.691-8.643-3.643-1.116-.849-2.439-1.537-2.6-3.2-.06-.612-.086-1.218-.086-1.828a48.445,48.445,0,0,1,.477-5.058,3.512,3.512,0,0,0-1.679,1.414,5.1,5.1,0,0,1-1.764,1.913,1.577,1.577,0,0,1-2.346-.267,8.371,8.371,0,0,1-1.645-2.2c-.454-.946-1.331-1.347-2.215-2,0,1.9.052,3.63-.016,5.35-.054,1.342-.035,2.8-1.275,3.7a21.886,21.886,0,0,1-4.705,2.748c-2.972,1.193-5.933,2.414-8.894,3.635-3.242,1.336-4.545,4.11-5.137,7.269-.612,3.265-.016,6.549.434,9.772C2.31,68.921,3.415,74.431,4.3,79.972A65.333,65.333,0,0,1,5.324,92.007a35.379,35.379,0,0,0,.7,7.382,58.332,58.332,0,0,0,2.3,8.423M22.921,8.89a1.4,1.4,0,0,1-1.007-1.2,2.44,2.44,0,0,1,1.211-2.575,2.656,2.656,0,0,1,3.119.793,8.539,8.539,0,0,1,1.412,3.226A14.271,14.271,0,0,0,29.3,13.9a6.381,6.381,0,0,0,6.673,3.358c.176-.566-.082-.9-.485-1.31a14.761,14.761,0,0,1-3.684-4.92,9.939,9.939,0,0,0-2.658-4.46A4.637,4.637,0,0,1,31.3,9.044a15.947,15.947,0,0,0,3.1,4.95c.227.212.406.511.863.449a18.206,18.206,0,0,1-1.723-2.6c-1.665-3.947-4.095-7.154-8.4-8.522-1.459-.463-3.65-.561-4.319,1.2a2.363,2.363,0,0,0,.445,2.524c-1.574-1-2.645-.126-3.782.382a3.368,3.368,0,0,1,2.447-1.416c-1.414-.35-2.315.743-3.454,1.18a4.172,4.172,0,0,1,3.571-1.7c.222-2.375,1.961-3.53,4.372-2.935,4.84,1.195,7.883,4.38,9.772,8.842a4.148,4.148,0,0,0,3.007,2.713,5.89,5.89,0,0,0,.051-2.522c-.168-2.851-1.07-5.468-3.613-6.966A19.045,19.045,0,0,0,22.21,1.672c-1.385.121-2.964.31-3.491,1.992A4.755,4.755,0,0,0,14.8,6.4a13.831,13.831,0,0,0-1.629,10.522c.1.382.154,1.022.644,1.026a3.288,3.288,0,0,1,1.776.7,10.151,10.151,0,0,1,.791-4.756,7.507,7.507,0,0,1,3.107-3.563c-3.125,2.815-3.7,6.436-3.209,10.578a2.328,2.328,0,0,1-.7-1.178,1.437,1.437,0,0,0-1.363-1.039c-.612-.025-.618.663-.738,1.155a4.764,4.764,0,0,0,1.1,3.957,1.751,1.751,0,0,0,1.98.865c-.281-1.729-.281-1.729-.028-2.2.326.155.346.5.428.773,1.336,4.513,4.513,7.453,8.381,9.786a2.447,2.447,0,0,0,2.526.01,14.22,14.22,0,0,0,5.371-5.143c1.8-3.074,1.888-6.632,2.662-10.21-2.574.521-4.53-1.01-6.756-1.54-.076-.3.536-.421.155-.852-1.657-1.875-2.064-4.2-2.27-6.587-.084-.977-.753-1.254-1.587-.712-.179.116-.273.411-.636.26.19-.958.965-.926,1.743-.938a1.269,1.269,0,0,0-1.883-.734c-1.015.395-1.156,1.068-.373,2.064-.92-.489-.984-.548-.934-1.135.113-1.344,1.355-1.248,2.234-1.645a2.134,2.134,0,0,0-2.632-.072,2.429,2.429,0,0,0-.036,3.1M14.428,4.505c.219-2.8-2.41-3.9-4.524-3.195A6.039,6.039,0,0,0,6.438,4.664a5.306,5.306,0,0,0,3.4,7.265,2.286,2.286,0,0,0,2.821-1.608,17.808,17.808,0,0,1,.878-2.8,5.97,5.97,0,0,0,.416-2.071,1.51,1.51,0,0,0-1.939-1.468A3.958,3.958,0,0,0,9.7,9.222c2.48-3.862,2.773-4.138,4.073-3.58A2.188,2.188,0,0,0,11.831,6.76c-.885,1.465-2.612,2.749-1.2,4.8-.064,0-.157.039-.185.01-1.724-1.8-2.573-4.8-.329-7.192,1.376-1.464,2.927-1.462,4.315.128m23.241,6.713A4.513,4.513,0,0,0,41.91,6.178a6.591,6.591,0,0,0-4.3-5.221,2.49,2.49,0,0,0-2.518.089A2.5,2.5,0,0,0,34.177,3.5c.1.873.772,1.268,1.352,1.759.533-.791.917-1.844,2.113-1.558a2.076,2.076,0,0,1,1.5,1.965,6.6,6.6,0,0,1-.848-.94c-.367-.444-.82-.824-1.365-.349-.522.456-1.114,1.034-.678,1.8a9.315,9.315,0,0,1,1.421,5.04M14.314,95.043a11.123,11.123,0,0,0,1.836-7.418,36.849,36.849,0,0,0-1.631-8.543c-.687-2.056-1.36-4.118-2.039-6.177.47,7.409.523,14.827,1.834,22.138M41.837,9.523A6.147,6.147,0,0,0,43.11,3.564c-.521-1.933-2.152-2.383-3.892-2.674,3.217,2.187,4.123,5.038,2.619,8.633m-6.71,14.689c1.583-.946,2.877-4.568,2.733-5.8a.95.95,0,0,0-.777-.907c-1.467,1.919-1.1,4.382-1.957,6.7m.588-9.365A3.083,3.083,0,0,0,39.155,16.6a8.228,8.228,0,0,1-3.441-1.752" transform="translate(0 0)" fill="#8e3a21"/>
        <path id="Trazado_895019" data-name="Trazado 895019" d="M31.943,272.252c.062.278.133.41.11.523a4.526,4.526,0,0,0,.389,3.356,1.243,1.243,0,0,1-.336,1.569c-.608-1.806-1.674-3.493-.163-5.449" transform="translate(-9.741 -85.087)" fill="#8e3a21"/>
        <path id="Trazado_895020" data-name="Trazado 895020" d="M52.315,272.916c.886-1.807-.093-3.769.727-5.572.582.171.392.816.316,1.255a5.807,5.807,0,0,0-.02,2.29,2.117,2.117,0,0,1-1.024,2.027" transform="translate(-16.35 -83.553)" fill="#8e3a21"/>
        <path id="Trazado_895021" data-name="Trazado 895021" d="M37.8,85.455c-1.145-1.913-2.823-3.063-4.378-4.417,1.4.107,4.3,2.947,4.378,4.417" transform="translate(-10.447 -25.327)" fill="#8e3a21"/>
        <path id="Trazado_895022" data-name="Trazado 895022" d="M33.374,38.793a2.02,2.02,0,0,0,1.86-.384,2.746,2.746,0,0,1,3.052.01c.414.248.771.7,1.4.276-1.08.741-1.459,2.405-3.128,2.048-1.284-.275-2.085-1.316-3.18-1.95" transform="translate(-10.43 -11.861)" fill="#8e3a21"/>
        <path id="Trazado_895023" data-name="Trazado 895023" d="M21.79,19.308c.069-3.276,3.87-7.792,6.176-6.38-3.246.287-4.482,2.685-5.588,5.231-.164.375-.166.848-.588,1.149" transform="translate(-6.81 -3.957)" fill="#8e3a21"/>
        <path id="Trazado_895024" data-name="Trazado 895024" d="M26.934,23.854c1.714-1.416,5.515-2.3,6.059-.421-2.144-.8-4.04.384-6.059.421" transform="translate(-8.418 -6.989)" fill="#8e3a21"/>
        <path id="Trazado_895025" data-name="Trazado 895025" d="M28.81,27.922c2.295.585,2.295.585,3.758.025-.079.7-1.056,1.29-2,1.2-.984-.091-1.789-.655-1.753-1.227" transform="translate(-9.004 -8.726)" fill="#8e3a21"/>
        <path id="Trazado_895026" data-name="Trazado 895026" d="M39.635,34.2c-.035-.806.727-1.272.454-2.095a2.165,2.165,0,0,1,.2-1.888c.153.9.157,1.8.289,2.691a1.02,1.02,0,0,1-.947,1.292" transform="translate(-12.387 -9.443)" fill="#8e3a21"/>
        <path id="Trazado_895027" data-name="Trazado 895027" d="M45.723,27.607a1.454,1.454,0,0,1-1.787,1.017c-.56-.056-1.11-.186-1.222-1.057,1.019.9,2,.636,3.009.04" transform="translate(-13.349 -8.616)" fill="#8e3a21"/>
        <path id="Trazado_895028" data-name="Trazado 895028" d="M41.359,23.608c-.476.92-1.167,1.743-.984,2.877a2.191,2.191,0,0,1,.984-2.877" transform="translate(-12.567 -7.378)" fill="#8e3a21"/>
        <path id="Trazado_895029" data-name="Trazado 895029" d="M56.785,11.569l.109-2.324a1.642,1.642,0,0,1-.109,2.324" transform="translate(-17.747 -2.889)" fill="#8e3a21"/>
      </g>
    </g>
  </g>
</svg>
