<svg id="Grupo_1113393" data-name="Grupo 1113393" xmlns="http://www.w3.org/2000/svg" xmlns:xlink="http://www.w3.org/1999/xlink" width="1141.811" height="72.711" viewBox="0 0 1141.811 72.711">
  <defs>
    <clipPath id="clip-path">
      <rect id="Rectángulo_407042" data-name="Rectángulo 407042" width="1141.811" height="72.711" fill="none"/>
    </clipPath>
  </defs>
  <rect id="Rectángulo_406791" data-name="Rectángulo 406791" width="1.59" height="30.815" transform="translate(3.545 19.312)"/>
  <rect id="Rectángulo_406792" data-name="Rectángulo 406792" width="1.59" height="30.815" transform="translate(48.608 19.312)"/>
  <rect id="Rectángulo_406793" data-name="Rectángulo 406793" width="1.59" height="30.815" transform="translate(93.669 19.312)"/>
  <rect id="Rectángulo_406794" data-name="Rectángulo 406794" width="1.59" height="30.815" transform="translate(138.73 19.312)"/>
  <rect id="Rectángulo_406795" data-name="Rectángulo 406795" width="1.591" height="30.815" transform="translate(183.793 19.312)"/>
  <rect id="Rectángulo_406796" data-name="Rectángulo 406796" width="1.59" height="30.815" transform="translate(228.854 19.312)"/>
  <rect id="Rectángulo_406797" data-name="Rectángulo 406797" width="1.59" height="30.815" transform="translate(273.917 19.312)"/>
  <rect id="Rectángulo_406798" data-name="Rectángulo 406798" width="1.59" height="30.815" transform="translate(318.979 19.312)"/>
  <rect id="Rectángulo_406799" data-name="Rectángulo 406799" width="1.59" height="30.815" transform="translate(364.041 19.312)"/>
  <rect id="Rectángulo_406800" data-name="Rectángulo 406800" width="1.59" height="30.815" transform="translate(409.104 19.312)"/>
  <rect id="Rectángulo_406801" data-name="Rectángulo 406801" width="1.59" height="30.815" transform="translate(454.164 19.312)"/>
  <rect id="Rectángulo_406802" data-name="Rectángulo 406802" width="1.591" height="30.815" transform="translate(499.227 19.312)"/>
  <rect id="Rectángulo_406803" data-name="Rectángulo 406803" width="1.59" height="30.815" transform="translate(544.29 19.312)"/>
  <rect id="Rectángulo_406804" data-name="Rectángulo 406804" width="1.59" height="30.815" transform="translate(589.351 19.312)"/>
  <rect id="Rectángulo_406805" data-name="Rectángulo 406805" width="1.591" height="30.815" transform="translate(634.414 19.312)"/>
  <rect id="Rectángulo_406806" data-name="Rectángulo 406806" width="1.59" height="15.714" transform="translate(8.052 19.31)"/>
  <rect id="Rectángulo_406807" data-name="Rectángulo 406807" width="1.59" height="15.714" transform="translate(12.557 19.31)"/>
  <rect id="Rectángulo_406808" data-name="Rectángulo 406808" width="1.59" height="15.714" transform="translate(17.064 19.31)"/>
  <rect id="Rectángulo_406809" data-name="Rectángulo 406809" width="1.59" height="15.714" transform="translate(21.57 19.31)"/>
  <rect id="Rectángulo_406810" data-name="Rectángulo 406810" width="1.59" height="23.661" transform="translate(26.076 19.312)"/>
  <rect id="Rectángulo_406811" data-name="Rectángulo 406811" width="1.59" height="23.661" transform="translate(71.138 19.312)"/>
  <rect id="Rectángulo_406812" data-name="Rectángulo 406812" width="1.59" height="23.661" transform="translate(116.2 19.312)"/>
  <rect id="Rectángulo_406813" data-name="Rectángulo 406813" width="1.59" height="23.661" transform="translate(161.263 19.312)"/>
  <rect id="Rectángulo_406814" data-name="Rectángulo 406814" width="1.59" height="23.661" transform="translate(206.324 19.312)"/>
  <rect id="Rectángulo_406815" data-name="Rectángulo 406815" width="1.591" height="23.661" transform="translate(251.385 19.312)"/>
  <rect id="Rectángulo_406816" data-name="Rectángulo 406816" width="1.59" height="23.661" transform="translate(296.448 19.312)"/>
  <rect id="Rectángulo_406817" data-name="Rectángulo 406817" width="1.59" height="23.661" transform="translate(341.509 19.312)"/>
  <rect id="Rectángulo_406818" data-name="Rectángulo 406818" width="1.59" height="23.661" transform="translate(386.572 19.312)"/>
  <rect id="Rectángulo_406819" data-name="Rectángulo 406819" width="1.59" height="23.661" transform="translate(431.635 19.312)"/>
  <rect id="Rectángulo_406820" data-name="Rectángulo 406820" width="1.59" height="23.661" transform="translate(476.696 19.312)"/>
  <rect id="Rectángulo_406821" data-name="Rectángulo 406821" width="1.59" height="23.661" transform="translate(521.759 19.312)"/>
  <rect id="Rectángulo_406822" data-name="Rectángulo 406822" width="1.591" height="23.661" transform="translate(566.819 19.312)"/>
  <rect id="Rectángulo_406823" data-name="Rectángulo 406823" width="1.59" height="23.661" transform="translate(611.883 19.312)"/>
  <rect id="Rectángulo_406824" data-name="Rectángulo 406824" width="1.59" height="15.714" transform="translate(30.582 19.31)"/>
  <rect id="Rectángulo_406825" data-name="Rectángulo 406825" width="1.59" height="15.714" transform="translate(35.088 19.31)"/>
  <rect id="Rectángulo_406826" data-name="Rectángulo 406826" width="1.59" height="15.714" transform="translate(39.596 19.31)"/>
  <rect id="Rectángulo_406827" data-name="Rectángulo 406827" width="1.59" height="15.714" transform="translate(44.103 19.31)"/>
  <rect id="Rectángulo_406828" data-name="Rectángulo 406828" width="1.59" height="15.714" transform="translate(53.115 19.31)"/>
  <rect id="Rectángulo_406829" data-name="Rectángulo 406829" width="1.591" height="15.714" transform="translate(57.62 19.31)"/>
  <rect id="Rectángulo_406830" data-name="Rectángulo 406830" width="1.59" height="15.714" transform="translate(62.127 19.31)"/>
  <rect id="Rectángulo_406831" data-name="Rectángulo 406831" width="1.59" height="15.714" transform="translate(66.632 19.31)"/>
  <rect id="Rectángulo_406832" data-name="Rectángulo 406832" width="1.59" height="15.714" transform="translate(75.645 19.31)"/>
  <rect id="Rectángulo_406833" data-name="Rectángulo 406833" width="1.59" height="15.714" transform="translate(80.15 19.31)"/>
  <rect id="Rectángulo_406834" data-name="Rectángulo 406834" width="1.59" height="15.714" transform="translate(84.657 19.31)"/>
  <rect id="Rectángulo_406835" data-name="Rectángulo 406835" width="1.591" height="15.714" transform="translate(89.162 19.31)"/>
  <rect id="Rectángulo_406836" data-name="Rectángulo 406836" width="1.59" height="15.714" transform="translate(98.176 19.31)"/>
  <rect id="Rectángulo_406837" data-name="Rectángulo 406837" width="1.59" height="15.714" transform="translate(102.681 19.31)"/>
  <rect id="Rectángulo_406838" data-name="Rectángulo 406838" width="1.59" height="15.714" transform="translate(107.188 19.31)"/>
  <rect id="Rectángulo_406839" data-name="Rectángulo 406839" width="1.59" height="15.714" transform="translate(111.695 19.31)"/>
  <rect id="Rectángulo_406840" data-name="Rectángulo 406840" width="1.59" height="15.714" transform="translate(120.706 19.31)"/>
  <rect id="Rectángulo_406841" data-name="Rectángulo 406841" width="1.59" height="15.714" transform="translate(125.212 19.31)"/>
  <rect id="Rectángulo_406842" data-name="Rectángulo 406842" width="1.59" height="15.714" transform="translate(129.718 19.31)"/>
  <rect id="Rectángulo_406843" data-name="Rectángulo 406843" width="1.59" height="15.714" transform="translate(134.225 19.31)"/>
  <rect id="Rectángulo_406844" data-name="Rectángulo 406844" width="1.59" height="15.714" transform="translate(143.237 19.31)"/>
  <rect id="Rectángulo_406845" data-name="Rectángulo 406845" width="1.59" height="15.714" transform="translate(147.744 19.31)"/>
  <rect id="Rectángulo_406846" data-name="Rectángulo 406846" width="1.59" height="15.714" transform="translate(152.249 19.31)"/>
  <rect id="Rectángulo_406847" data-name="Rectángulo 406847" width="1.59" height="15.714" transform="translate(156.756 19.31)"/>
  <rect id="Rectángulo_406848" data-name="Rectángulo 406848" width="1.59" height="15.714" transform="translate(165.769 19.31)"/>
  <rect id="Rectángulo_406849" data-name="Rectángulo 406849" width="1.59" height="15.714" transform="translate(170.276 19.31)"/>
  <rect id="Rectángulo_406850" data-name="Rectángulo 406850" width="1.59" height="15.714" transform="translate(174.781 19.31)"/>
  <rect id="Rectángulo_406851" data-name="Rectángulo 406851" width="1.59" height="15.714" transform="translate(179.288 19.31)"/>
  <rect id="Rectángulo_406852" data-name="Rectángulo 406852" width="1.59" height="15.714" transform="translate(188.3 19.31)"/>
  <rect id="Rectángulo_406853" data-name="Rectángulo 406853" width="1.59" height="15.714" transform="translate(192.805 19.31)"/>
  <rect id="Rectángulo_406854" data-name="Rectángulo 406854" width="1.59" height="15.714" transform="translate(197.312 19.31)"/>
  <rect id="Rectángulo_406855" data-name="Rectángulo 406855" width="1.59" height="15.714" transform="translate(201.819 19.31)"/>
  <rect id="Rectángulo_406856" data-name="Rectángulo 406856" width="1.59" height="15.714" transform="translate(210.831 19.31)"/>
  <rect id="Rectángulo_406857" data-name="Rectángulo 406857" width="1.591" height="15.714" transform="translate(215.336 19.31)"/>
  <rect id="Rectángulo_406858" data-name="Rectángulo 406858" width="1.59" height="15.714" transform="translate(219.843 19.31)"/>
  <rect id="Rectángulo_406859" data-name="Rectángulo 406859" width="1.59" height="15.714" transform="translate(224.349 19.31)"/>
  <rect id="Rectángulo_406860" data-name="Rectángulo 406860" width="1.59" height="15.714" transform="translate(233.361 19.31)"/>
  <rect id="Rectángulo_406861" data-name="Rectángulo 406861" width="1.59" height="15.714" transform="translate(237.868 19.31)"/>
  <rect id="Rectángulo_406862" data-name="Rectángulo 406862" width="1.59" height="15.714" transform="translate(242.373 19.31)"/>
  <rect id="Rectángulo_406863" data-name="Rectángulo 406863" width="1.59" height="15.714" transform="translate(246.88 19.31)"/>
  <rect id="Rectángulo_406864" data-name="Rectángulo 406864" width="1.59" height="15.714" transform="translate(255.892 19.31)"/>
  <rect id="Rectángulo_406865" data-name="Rectángulo 406865" width="1.59" height="15.714" transform="translate(260.399 19.31)"/>
  <rect id="Rectángulo_406866" data-name="Rectángulo 406866" width="1.59" height="15.714" transform="translate(264.904 19.31)"/>
  <rect id="Rectángulo_406867" data-name="Rectángulo 406867" width="1.59" height="15.714" transform="translate(269.412 19.31)"/>
  <rect id="Rectángulo_406868" data-name="Rectángulo 406868" width="1.59" height="15.714" transform="translate(278.424 19.31)"/>
  <rect id="Rectángulo_406869" data-name="Rectángulo 406869" width="1.59" height="15.714" transform="translate(282.929 19.31)"/>
  <rect id="Rectángulo_406870" data-name="Rectángulo 406870" width="1.59" height="15.714" transform="translate(287.436 19.31)"/>
  <rect id="Rectángulo_406871" data-name="Rectángulo 406871" width="1.59" height="15.714" transform="translate(291.943 19.31)"/>
  <rect id="Rectángulo_406872" data-name="Rectángulo 406872" width="1.59" height="15.714" transform="translate(300.955 19.31)"/>
  <rect id="Rectángulo_406873" data-name="Rectángulo 406873" width="1.59" height="15.714" transform="translate(305.461 19.31)"/>
  <rect id="Rectángulo_406874" data-name="Rectángulo 406874" width="1.591" height="15.714" transform="translate(309.967 19.31)"/>
  <rect id="Rectángulo_406875" data-name="Rectángulo 406875" width="1.59" height="15.714" transform="translate(314.473 19.31)"/>
  <rect id="Rectángulo_406876" data-name="Rectángulo 406876" width="1.59" height="15.714" transform="translate(323.485 19.31)"/>
  <rect id="Rectángulo_406877" data-name="Rectángulo 406877" width="1.591" height="15.714" transform="translate(327.99 19.31)"/>
  <rect id="Rectángulo_406878" data-name="Rectángulo 406878" width="1.59" height="15.714" transform="translate(332.497 19.31)"/>
  <rect id="Rectángulo_406879" data-name="Rectángulo 406879" width="1.59" height="15.714" transform="translate(337.004 19.31)"/>
  <rect id="Rectángulo_406880" data-name="Rectángulo 406880" width="1.59" height="15.714" transform="translate(346.016 19.31)"/>
  <rect id="Rectángulo_406881" data-name="Rectángulo 406881" width="1.59" height="15.714" transform="translate(350.523 19.31)"/>
  <rect id="Rectángulo_406882" data-name="Rectángulo 406882" width="1.59" height="15.714" transform="translate(355.029 19.31)"/>
  <rect id="Rectángulo_406883" data-name="Rectángulo 406883" width="1.59" height="15.714" transform="translate(359.535 19.31)"/>
  <rect id="Rectángulo_406884" data-name="Rectángulo 406884" width="1.59" height="15.714" transform="translate(368.548 19.31)"/>
  <rect id="Rectángulo_406885" data-name="Rectángulo 406885" width="1.591" height="15.714" transform="translate(373.053 19.31)"/>
  <rect id="Rectángulo_406886" data-name="Rectángulo 406886" width="1.591" height="15.714" transform="translate(377.559 19.31)"/>
  <rect id="Rectángulo_406887" data-name="Rectángulo 406887" width="1.59" height="15.714" transform="translate(382.065 19.31)"/>
  <rect id="Rectángulo_406888" data-name="Rectángulo 406888" width="1.59" height="15.714" transform="translate(391.079 19.31)"/>
  <rect id="Rectángulo_406889" data-name="Rectángulo 406889" width="1.59" height="15.714" transform="translate(395.586 19.31)"/>
  <rect id="Rectángulo_406890" data-name="Rectángulo 406890" width="1.59" height="15.714" transform="translate(400.091 19.31)"/>
  <rect id="Rectángulo_406891" data-name="Rectángulo 406891" width="1.59" height="15.714" transform="translate(404.597 19.31)"/>
  <rect id="Rectángulo_406892" data-name="Rectángulo 406892" width="1.59" height="15.714" transform="translate(413.609 19.31)"/>
  <rect id="Rectángulo_406893" data-name="Rectángulo 406893" width="1.59" height="15.714" transform="translate(418.116 19.31)"/>
  <rect id="Rectángulo_406894" data-name="Rectángulo 406894" width="1.59" height="15.714" transform="translate(422.623 19.31)"/>
  <rect id="Rectángulo_406895" data-name="Rectángulo 406895" width="1.59" height="15.714" transform="translate(427.128 19.31)"/>
  <rect id="Rectángulo_406896" data-name="Rectángulo 406896" width="1.59" height="15.714" transform="translate(436.142 19.31)"/>
  <rect id="Rectángulo_406897" data-name="Rectángulo 406897" width="1.591" height="15.714" transform="translate(440.645 19.31)"/>
  <rect id="Rectángulo_406898" data-name="Rectángulo 406898" width="1.59" height="15.714" transform="translate(445.152 19.31)"/>
  <rect id="Rectángulo_406899" data-name="Rectángulo 406899" width="1.59" height="15.714" transform="translate(449.659 19.31)"/>
  <rect id="Rectángulo_406900" data-name="Rectángulo 406900" width="1.59" height="15.714" transform="translate(458.671 19.31)"/>
  <rect id="Rectángulo_406901" data-name="Rectángulo 406901" width="1.59" height="15.714" transform="translate(463.177 19.31)"/>
  <rect id="Rectángulo_406902" data-name="Rectángulo 406902" width="1.59" height="15.714" transform="translate(467.683 19.31)"/>
  <rect id="Rectángulo_406903" data-name="Rectángulo 406903" width="1.59" height="15.714" transform="translate(472.189 19.31)"/>
  <rect id="Rectángulo_406904" data-name="Rectángulo 406904" width="1.59" height="15.714" transform="translate(481.201 19.31)"/>
  <rect id="Rectángulo_406905" data-name="Rectángulo 406905" width="1.59" height="15.714" transform="translate(485.708 19.31)"/>
  <rect id="Rectángulo_406906" data-name="Rectángulo 406906" width="1.59" height="15.714" transform="translate(490.215 19.31)"/>
  <rect id="Rectángulo_406907" data-name="Rectángulo 406907" width="1.59" height="15.714" transform="translate(494.722 19.31)"/>
  <rect id="Rectángulo_406908" data-name="Rectángulo 406908" width="1.591" height="15.714" transform="translate(503.733 19.31)"/>
  <rect id="Rectángulo_406909" data-name="Rectángulo 406909" width="1.591" height="15.714" transform="translate(508.24 19.31)"/>
  <rect id="Rectángulo_406910" data-name="Rectángulo 406910" width="1.59" height="15.714" transform="translate(512.745 19.31)"/>
  <rect id="Rectángulo_406911" data-name="Rectángulo 406911" width="1.59" height="15.714" transform="translate(517.252 19.31)"/>
  <rect id="Rectángulo_406912" data-name="Rectángulo 406912" width="1.59" height="15.714" transform="translate(526.264 19.31)"/>
  <rect id="Rectángulo_406913" data-name="Rectángulo 406913" width="1.59" height="15.714" transform="translate(530.771 19.31)"/>
  <rect id="Rectángulo_406914" data-name="Rectángulo 406914" width="1.59" height="15.714" transform="translate(535.278 19.31)"/>
  <rect id="Rectángulo_406915" data-name="Rectángulo 406915" width="1.59" height="15.714" transform="translate(539.783 19.31)"/>
  <rect id="Rectángulo_406916" data-name="Rectángulo 406916" width="1.59" height="15.714" transform="translate(548.796 19.31)"/>
  <rect id="Rectángulo_406917" data-name="Rectángulo 406917" width="1.59" height="15.714" transform="translate(553.302 19.31)"/>
  <rect id="Rectángulo_406918" data-name="Rectángulo 406918" width="1.59" height="15.714" transform="translate(557.808 19.31)"/>
  <rect id="Rectángulo_406919" data-name="Rectángulo 406919" width="1.59" height="15.714" transform="translate(562.315 19.31)"/>
  <rect id="Rectángulo_406920" data-name="Rectángulo 406920" width="1.59" height="15.714" transform="translate(571.325 19.31)"/>
  <rect id="Rectángulo_406921" data-name="Rectángulo 406921" width="1.59" height="15.714" transform="translate(575.832 19.31)"/>
  <rect id="Rectángulo_406922" data-name="Rectángulo 406922" width="1.59" height="15.714" transform="translate(580.337 19.31)"/>
  <rect id="Rectángulo_406923" data-name="Rectángulo 406923" width="1.59" height="15.714" transform="translate(584.844 19.31)"/>
  <rect id="Rectángulo_406924" data-name="Rectángulo 406924" width="1.59" height="15.714" transform="translate(593.856 19.31)"/>
  <rect id="Rectángulo_406925" data-name="Rectángulo 406925" width="1.59" height="15.714" transform="translate(598.363 19.31)"/>
  <rect id="Rectángulo_406926" data-name="Rectángulo 406926" width="1.59" height="15.714" transform="translate(602.87 19.31)"/>
  <rect id="Rectángulo_406927" data-name="Rectángulo 406927" width="1.59" height="15.714" transform="translate(607.375 19.31)"/>
  <rect id="Rectángulo_406928" data-name="Rectángulo 406928" width="1.59" height="15.714" transform="translate(616.388 19.31)"/>
  <rect id="Rectángulo_406929" data-name="Rectángulo 406929" width="1.59" height="15.714" transform="translate(620.895 19.31)"/>
  <rect id="Rectángulo_406930" data-name="Rectángulo 406930" width="1.59" height="15.714" transform="translate(625.402 19.31)"/>
  <rect id="Rectángulo_406931" data-name="Rectángulo 406931" width="1.591" height="15.714" transform="translate(629.907 19.31)"/>
  <g id="Grupo_1113392" data-name="Grupo 1113392" transform="translate(0 0)">
    <g id="Grupo_1113391" data-name="Grupo 1113391" clip-path="url(#clip-path)">
      <path id="Trazado_894849" data-name="Trazado 894849" d="M9.007,43.925A9.938,9.938,0,0,1,7.893,49.2a3.756,3.756,0,0,1-3.4,1.742,3.731,3.731,0,0,1-3.345-1.784A9.756,9.756,0,0,1,0,43.925a9.936,9.936,0,0,1,1.108-5.281,3.743,3.743,0,0,1,3.381-1.723,3.747,3.747,0,0,1,3.367,1.8,9.709,9.709,0,0,1,1.151,5.206m-7.443,0a9.98,9.98,0,0,0,.7,4.327,2.337,2.337,0,0,0,2.227,1.354,2.338,2.338,0,0,0,2.24-1.373,10.051,10.051,0,0,0,.695-4.308,9.982,9.982,0,0,0-.695-4.3,2.341,2.341,0,0,0-2.24-1.366,2.341,2.341,0,0,0-2.227,1.346,9.913,9.913,0,0,0-.7,4.318" transform="translate(0 21.771)"/>
      <path id="Trazado_894850" data-name="Trazado 894850" d="M33.5,50.673H31.994V40.968q0-1.211.075-2.292-.2.2-.439.41T29.414,40.9l-.82-1.062L32.2,37.056h1.3Z" transform="translate(16.861 21.851)"/>
      <path id="Trazado_894851" data-name="Trazado 894851" d="M65.369,50.746H56.417V49.414L60,45.81a26.4,26.4,0,0,0,2.16-2.367,6.08,6.08,0,0,0,.784-1.378,3.959,3.959,0,0,0,.261-1.443,2.292,2.292,0,0,0-.661-1.728,2.535,2.535,0,0,0-1.836-.637,4.63,4.63,0,0,0-1.607.278,6.442,6.442,0,0,0-1.69,1.016l-.82-1.052a6.285,6.285,0,0,1,4.1-1.564,4.33,4.33,0,0,1,3.008.982,3.381,3.381,0,0,1,1.091,2.64,5.108,5.108,0,0,1-.726,2.561,16.312,16.312,0,0,1-2.72,3.2l-2.981,2.915v.075h7Z" transform="translate(33.268 21.779)"/>
      <path id="Trazado_894852" data-name="Trazado 894852" d="M93.716,40.332a3.1,3.1,0,0,1-.731,2.133,3.665,3.665,0,0,1-2.073,1.108v.075a3.9,3.9,0,0,1,2.432,1.043,3.073,3.073,0,0,1,.792,2.2,3.571,3.571,0,0,1-1.351,2.995,6.145,6.145,0,0,1-3.837,1.048,11.179,11.179,0,0,1-1.979-.162,6.822,6.822,0,0,1-1.747-.574V48.724a8.4,8.4,0,0,0,1.887.666A8.513,8.513,0,0,0,89,49.619q3.532,0,3.531-2.766,0-2.478-3.893-2.478H87.3V43.043h1.359a4.092,4.092,0,0,0,2.524-.7,2.307,2.307,0,0,0,.932-1.952,1.918,1.918,0,0,0-.685-1.564,2.82,2.82,0,0,0-1.857-.569,5.715,5.715,0,0,0-1.687.243,7.54,7.54,0,0,0-1.807.893L85.3,38.348a6.537,6.537,0,0,1,1.933-1.038,7.031,7.031,0,0,1,2.305-.378,4.712,4.712,0,0,1,3.084.909,3.055,3.055,0,0,1,1.1,2.491" transform="translate(50.254 21.778)"/>
      <path id="Trazado_894853" data-name="Trazado 894853" d="M122.637,47.572h-2.02V50.7h-1.482v-3.13h-6.623V46.221l6.464-9.212h1.641v9.157h2.02Zm-3.5-1.407V41.638q0-1.331.094-3.008h-.075a14.1,14.1,0,0,1-.839,1.48l-4.256,6.055Z" transform="translate(66.347 21.823)"/>
      <path id="Trazado_894854" data-name="Trazado 894854" d="M146.078,42.356a5.012,5.012,0,0,1,3.386,1.067,3.653,3.653,0,0,1,1.234,2.92,4.218,4.218,0,0,1-1.345,3.316,5.377,5.377,0,0,1-3.712,1.2,6.837,6.837,0,0,1-3.512-.736V48.634a5.3,5.3,0,0,0,1.62.657,7.969,7.969,0,0,0,1.909.238,3.808,3.808,0,0,0,2.548-.774,2.771,2.771,0,0,0,.908-2.235q0-2.85-3.493-2.85a13.95,13.95,0,0,0-2.365.27l-.8-.512.512-6.371h6.772V38.48h-5.449l-.345,4.09a10.839,10.839,0,0,1,2.133-.215" transform="translate(83.812 21.851)"/>
      <path id="Trazado_894855" data-name="Trazado 894855" d="M170.374,44.924q0-4.016,1.561-6a5.508,5.508,0,0,1,4.615-1.989,6.171,6.171,0,0,1,1.658.176v1.332a5.291,5.291,0,0,0-1.639-.234,4.134,4.134,0,0,0-3.345,1.366,7,7,0,0,0-1.267,4.289h.111a3.568,3.568,0,0,1,3.243-1.6,3.813,3.813,0,0,1,2.892,1.108,4.183,4.183,0,0,1,1.057,3.009,4.636,4.636,0,0,1-1.16,3.34,4.128,4.128,0,0,1-3.133,1.215,4.031,4.031,0,0,1-3.354-1.588,7.031,7.031,0,0,1-1.238-4.419m4.574,4.694A2.59,2.59,0,0,0,177,48.786a3.544,3.544,0,0,0,.731-2.408,3.107,3.107,0,0,0-.68-2.124,2.562,2.562,0,0,0-2.03-.773,3.436,3.436,0,0,0-1.537.343,2.851,2.851,0,0,0-1.113.951,2.2,2.2,0,0,0-.415,1.257,4.3,4.3,0,0,0,.374,1.788,3.141,3.141,0,0,0,1.056,1.313,2.643,2.643,0,0,0,1.561.485" transform="translate(100.467 21.779)"/>
      <path id="Trazado_894856" data-name="Trazado 894856" d="M200.858,50.673,206.5,38.48h-7.424V37.056h9.063v1.238l-5.57,12.379Z" transform="translate(117.394 21.851)"/>
      <path id="Trazado_894857" data-name="Trazado 894857" d="M231.949,36.933a4.618,4.618,0,0,1,2.952.866,2.889,2.889,0,0,1,1.091,2.394,2.978,2.978,0,0,1-.625,1.834,5.512,5.512,0,0,1-1.993,1.509,6.7,6.7,0,0,1,2.358,1.663,3.129,3.129,0,0,1,.7,2.017,3.379,3.379,0,0,1-1.183,2.706A4.829,4.829,0,0,1,232,50.933a5.2,5.2,0,0,1-3.354-.955,3.29,3.29,0,0,1-1.173-2.706q0-2.339,2.85-3.642a5.268,5.268,0,0,1-1.844-1.569,3.346,3.346,0,0,1-.56-1.887,2.873,2.873,0,0,1,1.1-2.361,4.531,4.531,0,0,1,2.93-.881M229,47.309a2.106,2.106,0,0,0,.779,1.742,3.4,3.4,0,0,0,2.183.625,3.252,3.252,0,0,0,2.162-.653,2.214,2.214,0,0,0,.773-1.788,2.178,2.178,0,0,0-.726-1.606,7.433,7.433,0,0,0-2.534-1.366,5.513,5.513,0,0,0-2.011,1.318A2.553,2.553,0,0,0,229,47.309m2.925-9.118a2.735,2.735,0,0,0-1.825.56,1.846,1.846,0,0,0-.661,1.49,2.138,2.138,0,0,0,.548,1.472,5.755,5.755,0,0,0,2.032,1.229,5.068,5.068,0,0,0,1.885-1.2,2.22,2.22,0,0,0,.555-1.5,1.833,1.833,0,0,0-.676-1.494,2.841,2.841,0,0,0-1.858-.555" transform="translate(134.14 21.779)"/>
      <path id="Trazado_894858" data-name="Trazado 894858" d="M264.724,42.94q0,7.993-6.185,7.993a6.238,6.238,0,0,1-1.714-.188V49.415a5.507,5.507,0,0,0,1.695.242,4.127,4.127,0,0,0,3.378-1.383,7,7,0,0,0,1.243-4.243h-.113a3.312,3.312,0,0,1-1.359,1.178,4.374,4.374,0,0,1-1.909.405,3.84,3.84,0,0,1-2.869-1.081,4.123,4.123,0,0,1-1.062-3.017,4.626,4.626,0,0,1,1.188-3.354,4.546,4.546,0,0,1,5.551-.517,4.5,4.5,0,0,1,1.6,2.078,8.438,8.438,0,0,1,.56,3.218m-4.583-4.685a2.552,2.552,0,0,0-2.059.857,3.571,3.571,0,0,0-.726,2.385,3.1,3.1,0,0,0,.671,2.11,2.566,2.566,0,0,0,2.04.769,3.55,3.55,0,0,0,1.561-.345,2.833,2.833,0,0,0,1.122-.941,2.18,2.18,0,0,0,.409-1.248,4.275,4.275,0,0,0-.382-1.807,3.132,3.132,0,0,0-1.067-1.3,2.687,2.687,0,0,0-1.569-.475" transform="translate(150.858 21.779)"/>
      <path id="Trazado_894859" data-name="Trazado 894859" d="M286.557,50.673h-1.509V40.968q0-1.211.075-2.292-.2.2-.439.41T282.468,40.9l-.82-1.062,3.605-2.785h1.3Z" transform="translate(166.084 21.851)"/>
      <path id="Trazado_894860" data-name="Trazado 894860" d="M296.378,43.925a9.937,9.937,0,0,1-1.114,5.271,4.11,4.11,0,0,1-6.748-.041,9.755,9.755,0,0,1-1.145-5.23,9.936,9.936,0,0,1,1.108-5.281,4.114,4.114,0,0,1,6.748.075,9.709,9.709,0,0,1,1.151,5.206m-7.443,0a9.98,9.98,0,0,0,.7,4.327,2.511,2.511,0,0,0,4.467-.019,10.055,10.055,0,0,0,.693-4.308,9.987,9.987,0,0,0-.693-4.3,2.517,2.517,0,0,0-4.467-.019,9.912,9.912,0,0,0-.7,4.318" transform="translate(169.459 21.771)"/>
      <path id="Trazado_894861" data-name="Trazado 894861" d="M314.646,50.673h-1.509V40.968q0-1.211.075-2.292-.2.2-.439.41T310.557,40.9l-.82-1.062,3.605-2.785h1.3Z" transform="translate(182.648 21.851)"/>
      <path id="Trazado_894862" data-name="Trazado 894862" d="M320.363,50.673h-1.509V40.968q0-1.211.075-2.292-.2.2-.439.41T316.274,40.9l-.82-1.062,3.605-2.785h1.3Z" transform="translate(186.019 21.851)"/>
      <path id="Trazado_894863" data-name="Trazado 894863" d="M342.736,50.673h-1.509V40.968q0-1.211.075-2.292-.2.2-.439.41T338.647,40.9l-.82-1.062,3.605-2.785h1.3Z" transform="translate(199.212 21.851)"/>
      <path id="Trazado_894864" data-name="Trazado 894864" d="M352.238,50.746h-8.951V49.414l3.586-3.6a26.4,26.4,0,0,0,2.16-2.367,6.082,6.082,0,0,0,.784-1.378,3.959,3.959,0,0,0,.261-1.443,2.292,2.292,0,0,0-.661-1.728,2.535,2.535,0,0,0-1.836-.637,4.615,4.615,0,0,0-1.606.278,6.421,6.421,0,0,0-1.691,1.016l-.82-1.052a6.285,6.285,0,0,1,4.1-1.564,4.33,4.33,0,0,1,3.008.982,3.38,3.38,0,0,1,1.09,2.64,5.108,5.108,0,0,1-.726,2.561,16.313,16.313,0,0,1-2.72,3.2l-2.981,2.915v.075h7Z" transform="translate(202.431 21.779)"/>
      <path id="Trazado_894865" data-name="Trazado 894865" d="M371.325,50.673h-1.509V40.968q0-1.211.075-2.292-.2.2-.439.41T367.236,40.9l-.82-1.062,3.605-2.785h1.3Z" transform="translate(216.071 21.851)"/>
      <path id="Trazado_894866" data-name="Trazado 894866" d="M380.353,40.332a3.1,3.1,0,0,1-.731,2.133,3.665,3.665,0,0,1-2.073,1.108v.075a3.9,3.9,0,0,1,2.432,1.043,3.073,3.073,0,0,1,.792,2.2,3.571,3.571,0,0,1-1.351,2.995,6.145,6.145,0,0,1-3.837,1.048,11.18,11.18,0,0,1-1.979-.162,6.822,6.822,0,0,1-1.747-.574V48.724a8.4,8.4,0,0,0,1.887.666,8.512,8.512,0,0,0,1.895.229q3.531,0,3.531-2.766,0-2.478-3.893-2.478h-1.342V43.043h1.359a4.093,4.093,0,0,0,2.524-.7,2.307,2.307,0,0,0,.932-1.952,1.918,1.918,0,0,0-.685-1.564,2.821,2.821,0,0,0-1.858-.569,5.7,5.7,0,0,0-1.685.243,7.54,7.54,0,0,0-1.807.893l-.782-1.043a6.536,6.536,0,0,1,1.933-1.038,7.03,7.03,0,0,1,2.305-.378,4.712,4.712,0,0,1,3.084.909,3.059,3.059,0,0,1,1.1,2.491" transform="translate(219.28 21.778)"/>
      <path id="Trazado_894867" data-name="Trazado 894867" d="M399.165,50.673h-1.509V40.968q0-1.211.075-2.292-.2.2-.439.41T395.076,40.9l-.82-1.062,3.605-2.785h1.3Z" transform="translate(232.487 21.851)"/>
      <path id="Trazado_894868" data-name="Trazado 894868" d="M409.674,47.572h-2.02V50.7h-1.482v-3.13h-6.623V46.221l6.464-9.212h1.641v9.157h2.02Zm-3.5-1.407V41.638q0-1.331.094-3.008h-.075a14.111,14.111,0,0,1-.839,1.48L401.1,46.166Z" transform="translate(235.609 21.823)"/>
      <rect id="Rectángulo_406932" data-name="Rectángulo 406932" width="1.59" height="30.816" transform="translate(680.255 19.31)"/>
      <rect id="Rectángulo_406933" data-name="Rectángulo 406933" width="1.59" height="30.816" transform="translate(725.318 19.31)"/>
      <rect id="Rectángulo_406934" data-name="Rectángulo 406934" width="1.59" height="30.816" transform="translate(770.38 19.31)"/>
      <rect id="Rectángulo_406935" data-name="Rectángulo 406935" width="1.59" height="30.816" transform="translate(815.441 19.31)"/>
      <rect id="Rectángulo_406936" data-name="Rectángulo 406936" width="1.59" height="30.816" transform="translate(860.504 19.31)"/>
      <rect id="Rectángulo_406937" data-name="Rectángulo 406937" width="1.59" height="30.816" transform="translate(905.565 19.31)"/>
      <rect id="Rectángulo_406938" data-name="Rectángulo 406938" width="1.59" height="30.816" transform="translate(950.628 19.31)"/>
      <rect id="Rectángulo_406939" data-name="Rectángulo 406939" width="1.59" height="30.816" transform="translate(995.689 19.31)"/>
      <rect id="Rectángulo_406940" data-name="Rectángulo 406940" width="1.59" height="30.816" transform="translate(1040.75 19.31)"/>
      <rect id="Rectángulo_406941" data-name="Rectángulo 406941" width="1.59" height="15.714" transform="translate(639.699 19.31)"/>
      <rect id="Rectángulo_406942" data-name="Rectángulo 406942" width="1.59" height="15.714" transform="translate(644.206 19.31)"/>
      <rect id="Rectángulo_406943" data-name="Rectángulo 406943" width="1.59" height="15.714" transform="translate(648.711 19.31)"/>
      <rect id="Rectángulo_406944" data-name="Rectángulo 406944" width="1.59" height="15.714" transform="translate(653.218 19.31)"/>
      <rect id="Rectángulo_406945" data-name="Rectángulo 406945" width="1.59" height="23.663" transform="translate(657.725 19.31)"/>
      <rect id="Rectángulo_406946" data-name="Rectángulo 406946" width="1.59" height="23.663" transform="translate(702.786 19.31)"/>
      <rect id="Rectángulo_406947" data-name="Rectángulo 406947" width="1.59" height="23.663" transform="translate(747.847 19.31)"/>
      <rect id="Rectángulo_406948" data-name="Rectángulo 406948" width="1.59" height="23.663" transform="translate(792.91 19.31)"/>
      <rect id="Rectángulo_406949" data-name="Rectángulo 406949" width="1.59" height="23.663" transform="translate(837.973 19.31)"/>
      <rect id="Rectángulo_406950" data-name="Rectángulo 406950" width="1.59" height="23.663" transform="translate(883.036 19.31)"/>
      <rect id="Rectángulo_406951" data-name="Rectángulo 406951" width="1.59" height="23.663" transform="translate(928.096 19.31)"/>
      <rect id="Rectángulo_406952" data-name="Rectángulo 406952" width="1.59" height="23.663" transform="translate(973.158 19.31)"/>
      <rect id="Rectángulo_406953" data-name="Rectángulo 406953" width="1.59" height="23.663" transform="translate(1018.221 19.31)"/>
      <rect id="Rectángulo_406954" data-name="Rectángulo 406954" width="1.59" height="15.714" transform="translate(662.23 19.31)"/>
      <rect id="Rectángulo_406955" data-name="Rectángulo 406955" width="1.59" height="15.714" transform="translate(666.737 19.31)"/>
      <rect id="Rectángulo_406956" data-name="Rectángulo 406956" width="1.59" height="15.714" transform="translate(671.244 19.31)"/>
      <rect id="Rectángulo_406957" data-name="Rectángulo 406957" width="1.59" height="15.714" transform="translate(675.749 19.31)"/>
      <rect id="Rectángulo_406958" data-name="Rectángulo 406958" width="1.59" height="15.714" transform="translate(684.762 19.31)"/>
      <rect id="Rectángulo_406959" data-name="Rectángulo 406959" width="1.59" height="15.714" transform="translate(689.267 19.31)"/>
      <rect id="Rectángulo_406960" data-name="Rectángulo 406960" width="1.59" height="15.714" transform="translate(693.774 19.31)"/>
      <rect id="Rectángulo_406961" data-name="Rectángulo 406961" width="1.59" height="15.714" transform="translate(698.281 19.31)"/>
      <rect id="Rectángulo_406962" data-name="Rectángulo 406962" width="1.59" height="15.714" transform="translate(707.293 19.31)"/>
      <rect id="Rectángulo_406963" data-name="Rectángulo 406963" width="1.59" height="15.714" transform="translate(711.8 19.31)"/>
      <rect id="Rectángulo_406964" data-name="Rectángulo 406964" width="1.59" height="15.714" transform="translate(716.305 19.31)"/>
      <rect id="Rectángulo_406965" data-name="Rectángulo 406965" width="1.59" height="15.714" transform="translate(720.812 19.31)"/>
      <rect id="Rectángulo_406966" data-name="Rectángulo 406966" width="1.59" height="15.714" transform="translate(729.823 19.31)"/>
      <rect id="Rectángulo_406967" data-name="Rectángulo 406967" width="1.59" height="15.714" transform="translate(734.33 19.31)"/>
      <rect id="Rectángulo_406968" data-name="Rectángulo 406968" width="1.59" height="15.714" transform="translate(738.837 19.31)"/>
      <rect id="Rectángulo_406969" data-name="Rectángulo 406969" width="1.59" height="15.714" transform="translate(743.342 19.31)"/>
      <rect id="Rectángulo_406970" data-name="Rectángulo 406970" width="1.59" height="15.714" transform="translate(752.354 19.31)"/>
      <rect id="Rectángulo_406971" data-name="Rectángulo 406971" width="1.59" height="15.714" transform="translate(756.861 19.31)"/>
      <rect id="Rectángulo_406972" data-name="Rectángulo 406972" width="1.59" height="15.714" transform="translate(761.366 19.31)"/>
      <rect id="Rectángulo_406973" data-name="Rectángulo 406973" width="1.59" height="15.714" transform="translate(765.873 19.31)"/>
      <rect id="Rectángulo_406974" data-name="Rectángulo 406974" width="1.59" height="15.714" transform="translate(774.885 19.31)"/>
      <rect id="Rectángulo_406975" data-name="Rectángulo 406975" width="1.59" height="15.714" transform="translate(779.391 19.31)"/>
      <rect id="Rectángulo_406976" data-name="Rectángulo 406976" width="1.59" height="15.714" transform="translate(783.898 19.31)"/>
      <rect id="Rectángulo_406977" data-name="Rectángulo 406977" width="1.59" height="15.714" transform="translate(788.403 19.31)"/>
      <rect id="Rectángulo_406978" data-name="Rectángulo 406978" width="1.59" height="15.714" transform="translate(797.417 19.31)"/>
      <rect id="Rectángulo_406979" data-name="Rectángulo 406979" width="1.59" height="15.714" transform="translate(801.922 19.31)"/>
      <rect id="Rectángulo_406980" data-name="Rectángulo 406980" width="1.59" height="15.714" transform="translate(806.429 19.31)"/>
      <rect id="Rectángulo_406981" data-name="Rectángulo 406981" width="1.59" height="15.714" transform="translate(810.936 19.31)"/>
      <rect id="Rectángulo_406982" data-name="Rectángulo 406982" width="1.59" height="15.714" transform="translate(819.948 19.31)"/>
      <rect id="Rectángulo_406983" data-name="Rectángulo 406983" width="1.59" height="15.714" transform="translate(824.454 19.31)"/>
      <rect id="Rectángulo_406984" data-name="Rectángulo 406984" width="1.59" height="15.714" transform="translate(828.959 19.31)"/>
      <rect id="Rectángulo_406985" data-name="Rectángulo 406985" width="1.59" height="15.714" transform="translate(833.466 19.31)"/>
      <rect id="Rectángulo_406986" data-name="Rectángulo 406986" width="1.59" height="15.714" transform="translate(842.478 19.31)"/>
      <rect id="Rectángulo_406987" data-name="Rectángulo 406987" width="1.59" height="15.714" transform="translate(846.985 19.31)"/>
      <rect id="Rectángulo_406988" data-name="Rectángulo 406988" width="1.59" height="15.714" transform="translate(851.492 19.31)"/>
      <rect id="Rectángulo_406989" data-name="Rectángulo 406989" width="1.59" height="15.714" transform="translate(855.997 19.31)"/>
      <rect id="Rectángulo_406990" data-name="Rectángulo 406990" width="1.59" height="15.714" transform="translate(865.01 19.31)"/>
      <rect id="Rectángulo_406991" data-name="Rectángulo 406991" width="1.59" height="15.714" transform="translate(869.516 19.31)"/>
      <rect id="Rectángulo_406992" data-name="Rectángulo 406992" width="1.59" height="15.714" transform="translate(874.022 19.31)"/>
      <rect id="Rectángulo_406993" data-name="Rectángulo 406993" width="1.59" height="15.714" transform="translate(878.529 19.31)"/>
      <rect id="Rectángulo_406994" data-name="Rectángulo 406994" width="1.59" height="15.714" transform="translate(887.539 19.31)"/>
      <rect id="Rectángulo_406995" data-name="Rectángulo 406995" width="1.59" height="15.714" transform="translate(892.046 19.31)"/>
      <rect id="Rectángulo_406996" data-name="Rectángulo 406996" width="1.59" height="15.714" transform="translate(896.555 19.31)"/>
      <rect id="Rectángulo_406997" data-name="Rectángulo 406997" width="1.59" height="15.714" transform="translate(901.058 19.31)"/>
      <rect id="Rectángulo_406998" data-name="Rectángulo 406998" width="1.59" height="15.714" transform="translate(910.072 19.31)"/>
      <rect id="Rectángulo_406999" data-name="Rectángulo 406999" width="1.59" height="15.714" transform="translate(914.577 19.31)"/>
      <rect id="Rectángulo_407000" data-name="Rectángulo 407000" width="1.59" height="15.714" transform="translate(919.084 19.31)"/>
      <rect id="Rectángulo_407001" data-name="Rectángulo 407001" width="1.59" height="15.714" transform="translate(923.59 19.31)"/>
      <rect id="Rectángulo_407002" data-name="Rectángulo 407002" width="1.59" height="15.714" transform="translate(932.602 19.31)"/>
      <rect id="Rectángulo_407003" data-name="Rectángulo 407003" width="1.59" height="15.714" transform="translate(937.109 19.31)"/>
      <rect id="Rectángulo_407004" data-name="Rectángulo 407004" width="1.59" height="15.714" transform="translate(941.614 19.31)"/>
      <rect id="Rectángulo_407005" data-name="Rectángulo 407005" width="1.59" height="15.714" transform="translate(946.121 19.31)"/>
      <rect id="Rectángulo_407006" data-name="Rectángulo 407006" width="1.59" height="15.714" transform="translate(955.133 19.31)"/>
      <rect id="Rectángulo_407007" data-name="Rectángulo 407007" width="1.59" height="15.714" transform="translate(959.64 19.31)"/>
      <rect id="Rectángulo_407008" data-name="Rectángulo 407008" width="1.59" height="15.714" transform="translate(964.146 19.31)"/>
      <rect id="Rectángulo_407009" data-name="Rectángulo 407009" width="1.59" height="15.714" transform="translate(968.652 19.31)"/>
      <rect id="Rectángulo_407010" data-name="Rectángulo 407010" width="1.59" height="15.714" transform="translate(977.665 19.31)"/>
      <rect id="Rectángulo_407011" data-name="Rectángulo 407011" width="1.59" height="15.714" transform="translate(982.17 19.31)"/>
      <rect id="Rectángulo_407012" data-name="Rectángulo 407012" width="1.59" height="15.714" transform="translate(986.677 19.31)"/>
      <rect id="Rectángulo_407013" data-name="Rectángulo 407013" width="1.59" height="15.714" transform="translate(991.184 19.31)"/>
      <rect id="Rectángulo_407014" data-name="Rectángulo 407014" width="1.59" height="15.714" transform="translate(1000.196 19.31)"/>
      <rect id="Rectángulo_407015" data-name="Rectángulo 407015" width="1.59" height="15.714" transform="translate(1004.703 19.31)"/>
      <rect id="Rectángulo_407016" data-name="Rectángulo 407016" width="1.59" height="15.714" transform="translate(1009.208 19.31)"/>
      <rect id="Rectángulo_407017" data-name="Rectángulo 407017" width="1.59" height="15.714" transform="translate(1013.714 19.31)"/>
      <rect id="Rectángulo_407018" data-name="Rectángulo 407018" width="1.59" height="15.714" transform="translate(1022.728 19.31)"/>
      <rect id="Rectángulo_407019" data-name="Rectángulo 407019" width="1.59" height="15.714" transform="translate(1027.233 19.31)"/>
      <rect id="Rectángulo_407020" data-name="Rectángulo 407020" width="1.59" height="15.714" transform="translate(1031.74 19.31)"/>
      <rect id="Rectángulo_407021" data-name="Rectángulo 407021" width="1.59" height="15.714" transform="translate(1036.245 19.31)"/>
      <path id="Trazado_894869" data-name="Trazado 894869" d="M427.843,50.673h-1.509V40.968q0-1.211.075-2.292-.2.2-.439.41T423.754,40.9l-.82-1.062,3.605-2.785h1.3Z" transform="translate(249.398 21.851)"/>
      <path id="Trazado_894870" data-name="Trazado 894870" d="M432.6,42.356a5.012,5.012,0,0,1,3.386,1.067,3.658,3.658,0,0,1,1.234,2.92,4.218,4.218,0,0,1-1.345,3.316,5.377,5.377,0,0,1-3.712,1.2,6.837,6.837,0,0,1-3.512-.736V48.634a5.3,5.3,0,0,0,1.62.657,7.969,7.969,0,0,0,1.909.238,3.808,3.808,0,0,0,2.548-.774,2.771,2.771,0,0,0,.908-2.235q0-2.85-3.493-2.85a13.951,13.951,0,0,0-2.365.27l-.8-.512.512-6.371h6.772V38.48H430.81l-.345,4.09a10.839,10.839,0,0,1,2.133-.215" transform="translate(252.769 21.851)"/>
      <path id="Trazado_894871" data-name="Trazado 894871" d="M456.183,50.673h-1.509V40.968q0-1.211.075-2.292-.2.2-.439.41T452.094,40.9l-.82-1.062,3.605-2.785h1.3Z" transform="translate(266.11 21.851)"/>
      <path id="Trazado_894872" data-name="Trazado 894872" d="M457,44.924q0-4.016,1.559-6a5.513,5.513,0,0,1,4.616-1.989,6.171,6.171,0,0,1,1.658.176v1.332a5.29,5.29,0,0,0-1.639-.234,4.134,4.134,0,0,0-3.345,1.366,7,7,0,0,0-1.267,4.289h.111a3.567,3.567,0,0,1,3.241-1.6,3.814,3.814,0,0,1,2.893,1.108,4.183,4.183,0,0,1,1.057,3.009,4.636,4.636,0,0,1-1.161,3.34,4.128,4.128,0,0,1-3.133,1.215,4.03,4.03,0,0,1-3.354-1.588A7.031,7.031,0,0,1,457,44.924m4.573,4.694a2.59,2.59,0,0,0,2.054-.833,3.544,3.544,0,0,0,.731-2.408,3.107,3.107,0,0,0-.68-2.124,2.562,2.562,0,0,0-2.03-.773,3.436,3.436,0,0,0-1.537.343,2.851,2.851,0,0,0-1.113.951,2.2,2.2,0,0,0-.415,1.257,4.322,4.322,0,0,0,.372,1.788,3.157,3.157,0,0,0,1.057,1.313,2.643,2.643,0,0,0,1.561.485" transform="translate(269.487 21.779)"/>
      <path id="Trazado_894873" data-name="Trazado 894873" d="M486.022,50.673h-1.509V40.968q0-1.211.075-2.292-.2.2-.439.41T481.933,40.9l-.82-1.062,3.605-2.785h1.3Z" transform="translate(283.706 21.851)"/>
      <path id="Trazado_894874" data-name="Trazado 894874" d="M488.335,50.673,493.98,38.48h-7.424V37.056h9.063v1.238l-5.57,12.379Z" transform="translate(286.915 21.851)"/>
      <path id="Trazado_894875" data-name="Trazado 894875" d="M513.612,50.673H512.1V40.968q0-1.211.075-2.292-.2.2-.439.41T509.523,40.9l-.82-1.062,3.605-2.785h1.3Z" transform="translate(299.975 21.851)"/>
      <path id="Trazado_894876" data-name="Trazado 894876" d="M518.826,36.933a4.618,4.618,0,0,1,2.952.866,2.888,2.888,0,0,1,1.091,2.394,2.977,2.977,0,0,1-.625,1.834,5.511,5.511,0,0,1-1.994,1.509,6.7,6.7,0,0,1,2.358,1.663,3.128,3.128,0,0,1,.7,2.017,3.379,3.379,0,0,1-1.183,2.706,4.829,4.829,0,0,1-3.241,1.011,5.2,5.2,0,0,1-3.354-.955,3.29,3.29,0,0,1-1.173-2.706q0-2.339,2.85-3.642a5.267,5.267,0,0,1-1.844-1.569,3.344,3.344,0,0,1-.558-1.887,2.872,2.872,0,0,1,1.094-2.361,4.531,4.531,0,0,1,2.93-.881m-2.944,10.376a2.11,2.11,0,0,0,.777,1.742,3.409,3.409,0,0,0,2.184.625,3.249,3.249,0,0,0,2.162-.653,2.214,2.214,0,0,0,.772-1.788,2.177,2.177,0,0,0-.726-1.606,7.433,7.433,0,0,0-2.534-1.366,5.512,5.512,0,0,0-2.011,1.318,2.553,2.553,0,0,0-.625,1.728m2.925-9.118a2.735,2.735,0,0,0-1.825.56,1.847,1.847,0,0,0-.663,1.49,2.139,2.139,0,0,0,.55,1.472A5.756,5.756,0,0,0,518.9,42.94a5.068,5.068,0,0,0,1.885-1.2,2.22,2.22,0,0,0,.555-1.5,1.833,1.833,0,0,0-.676-1.494,2.841,2.841,0,0,0-1.858-.555" transform="translate(303.308 21.779)"/>
      <path id="Trazado_894877" data-name="Trazado 894877" d="M542.7,50.673h-1.509V40.968q0-1.211.075-2.292-.2.2-.439.41T538.613,40.9l-.82-1.062,3.605-2.785h1.3Z" transform="translate(317.129 21.851)"/>
      <path id="Trazado_894878" data-name="Trazado 894878" d="M552.249,42.94q0,7.993-6.186,7.993a6.238,6.238,0,0,1-1.714-.188V49.415a5.507,5.507,0,0,0,1.695.242,4.122,4.122,0,0,0,3.376-1.383,6.988,6.988,0,0,0,1.245-4.243h-.113a3.312,3.312,0,0,1-1.359,1.178,4.374,4.374,0,0,1-1.909.405,3.84,3.84,0,0,1-2.869-1.081,4.123,4.123,0,0,1-1.062-3.017,4.626,4.626,0,0,1,1.187-3.354,4.546,4.546,0,0,1,5.551-.517,4.5,4.5,0,0,1,1.6,2.078,8.439,8.439,0,0,1,.56,3.218m-4.583-4.685a2.552,2.552,0,0,0-2.059.857,3.571,3.571,0,0,0-.726,2.385,3.1,3.1,0,0,0,.671,2.11,2.565,2.565,0,0,0,2.039.769,3.549,3.549,0,0,0,1.561-.345,2.832,2.832,0,0,0,1.122-.941,2.18,2.18,0,0,0,.409-1.248,4.276,4.276,0,0,0-.381-1.807,3.142,3.142,0,0,0-1.067-1.3,2.687,2.687,0,0,0-1.569-.475" transform="translate(320.408 21.779)"/>
      <path id="Trazado_894879" data-name="Trazado 894879" d="M572.568,50.746h-8.952V49.414l3.586-3.6a26.394,26.394,0,0,0,2.16-2.367,6.077,6.077,0,0,0,.784-1.378,3.959,3.959,0,0,0,.261-1.443,2.292,2.292,0,0,0-.661-1.728,2.535,2.535,0,0,0-1.836-.637,4.614,4.614,0,0,0-1.606.278,6.42,6.42,0,0,0-1.691,1.016l-.819-1.052a6.277,6.277,0,0,1,4.1-1.564,4.33,4.33,0,0,1,3.008.982,3.38,3.38,0,0,1,1.09,2.64,5.108,5.108,0,0,1-.726,2.561,16.311,16.311,0,0,1-2.72,3.2l-2.981,2.915v.075h7Z" transform="translate(332.357 21.779)"/>
      <path id="Trazado_894880" data-name="Trazado 894880" d="M579.372,43.925a9.937,9.937,0,0,1-1.114,5.271,4.11,4.11,0,0,1-6.748-.041,9.756,9.756,0,0,1-1.145-5.23,9.936,9.936,0,0,1,1.108-5.281,4.114,4.114,0,0,1,6.748.075,9.709,9.709,0,0,1,1.151,5.206m-7.443,0a9.98,9.98,0,0,0,.7,4.327,2.511,2.511,0,0,0,4.467-.019,10.056,10.056,0,0,0,.693-4.308,9.988,9.988,0,0,0-.693-4.3,2.517,2.517,0,0,0-4.467-.019,9.912,9.912,0,0,0-.7,4.318" transform="translate(336.337 21.771)"/>
      <path id="Trazado_894881" data-name="Trazado 894881" d="M602.407,50.746h-8.951V49.414l3.586-3.6a26.414,26.414,0,0,0,2.16-2.367,6.082,6.082,0,0,0,.784-1.378,3.96,3.96,0,0,0,.261-1.443,2.292,2.292,0,0,0-.661-1.728,2.535,2.535,0,0,0-1.836-.637,4.615,4.615,0,0,0-1.606.278,6.423,6.423,0,0,0-1.691,1.016l-.82-1.052a6.284,6.284,0,0,1,4.1-1.564,4.33,4.33,0,0,1,3.008.982,3.381,3.381,0,0,1,1.09,2.64,5.108,5.108,0,0,1-.726,2.561,16.311,16.311,0,0,1-2.72,3.2L595.4,49.237v.075h7Z" transform="translate(349.953 21.779)"/>
      <path id="Trazado_894882" data-name="Trazado 894882" d="M605.425,50.673h-1.51V40.968q0-1.211.075-2.292c-.129.13-.277.267-.439.41s-.9.749-2.216,1.817l-.819-1.062,3.605-2.785h1.3Z" transform="translate(354.116 21.851)"/>
      <path id="Trazado_894883" data-name="Trazado 894883" d="M630.747,50.746H621.8V49.414l3.586-3.6a26.414,26.414,0,0,0,2.16-2.367,6.077,6.077,0,0,0,.784-1.378,3.958,3.958,0,0,0,.261-1.443,2.293,2.293,0,0,0-.661-1.728,2.535,2.535,0,0,0-1.836-.637,4.614,4.614,0,0,0-1.605.278,6.421,6.421,0,0,0-1.692,1.016l-.819-1.052a6.278,6.278,0,0,1,4.1-1.564,4.33,4.33,0,0,1,3.008.982,3.381,3.381,0,0,1,1.09,2.64,5.108,5.108,0,0,1-.726,2.561,16.307,16.307,0,0,1-2.72,3.2l-2.981,2.915v.075h7Z" transform="translate(366.664 21.779)"/>
      <path id="Trazado_894884" data-name="Trazado 894884" d="M637.735,50.746h-8.951V49.414l3.586-3.6a26.414,26.414,0,0,0,2.16-2.367,6.087,6.087,0,0,0,.784-1.378,3.96,3.96,0,0,0,.261-1.443,2.293,2.293,0,0,0-.661-1.728,2.535,2.535,0,0,0-1.836-.637,4.615,4.615,0,0,0-1.606.278,6.423,6.423,0,0,0-1.691,1.016l-.82-1.052a6.282,6.282,0,0,1,4.1-1.564,4.33,4.33,0,0,1,3.008.982,3.381,3.381,0,0,1,1.09,2.64,5.108,5.108,0,0,1-.726,2.561,16.313,16.313,0,0,1-2.72,3.2l-2.981,2.915v.075h7Z" transform="translate(370.785 21.779)"/>
      <path id="Trazado_894885" data-name="Trazado 894885" d="M658.087,50.746h-8.952V49.414l3.586-3.6a26.394,26.394,0,0,0,2.16-2.367,6.077,6.077,0,0,0,.784-1.378,3.958,3.958,0,0,0,.261-1.443,2.292,2.292,0,0,0-.661-1.728,2.535,2.535,0,0,0-1.836-.637,4.615,4.615,0,0,0-1.606.278,6.422,6.422,0,0,0-1.691,1.016l-.819-1.052a6.277,6.277,0,0,1,4.1-1.564,4.33,4.33,0,0,1,3.008.982,3.38,3.38,0,0,1,1.091,2.64,5.108,5.108,0,0,1-.727,2.561,16.313,16.313,0,0,1-2.72,3.2l-2.981,2.915v.075h7Z" transform="translate(382.786 21.779)"/>
      <path id="Trazado_894886" data-name="Trazado 894886" d="M664.6,40.332a3.1,3.1,0,0,1-.731,2.133,3.666,3.666,0,0,1-2.073,1.108v.075a3.9,3.9,0,0,1,2.432,1.043,3.074,3.074,0,0,1,.792,2.2,3.571,3.571,0,0,1-1.351,2.995,6.145,6.145,0,0,1-3.838,1.048,11.179,11.179,0,0,1-1.979-.162A6.822,6.822,0,0,1,656.1,50.2V48.724a8.408,8.408,0,0,0,1.887.666,8.514,8.514,0,0,0,1.9.229q3.531,0,3.531-2.766,0-2.478-3.893-2.478h-1.342V43.043h1.359a4.092,4.092,0,0,0,2.524-.7A2.307,2.307,0,0,0,663,40.388a1.922,1.922,0,0,0-.684-1.564,2.827,2.827,0,0,0-1.858-.569,5.715,5.715,0,0,0-1.687.243,7.541,7.541,0,0,0-1.808.893l-.782-1.043a6.539,6.539,0,0,1,1.933-1.038,7.031,7.031,0,0,1,2.305-.378,4.712,4.712,0,0,1,3.084.909,3.055,3.055,0,0,1,1.1,2.491" transform="translate(386.896 21.778)"/>
      <rect id="Rectángulo_407022" data-name="Rectángulo 407022" width="1.59" height="30.816" transform="translate(1085.745 19.31)"/>
      <rect id="Rectángulo_407023" data-name="Rectángulo 407023" width="1.59" height="30.816" transform="translate(1130.808 19.31)"/>
      <rect id="Rectángulo_407024" data-name="Rectángulo 407024" width="1.59" height="23.663" transform="translate(1063.214 19.31)"/>
      <rect id="Rectángulo_407025" data-name="Rectángulo 407025" width="1.59" height="23.663" transform="translate(1108.277 19.31)"/>
      <rect id="Rectángulo_407026" data-name="Rectángulo 407026" width="1.59" height="15.714" transform="translate(1045.19 19.31)"/>
      <rect id="Rectángulo_407027" data-name="Rectángulo 407027" width="1.59" height="15.714" transform="translate(1049.695 19.31)"/>
      <rect id="Rectángulo_407028" data-name="Rectángulo 407028" width="1.59" height="15.714" transform="translate(1054.202 19.31)"/>
      <rect id="Rectángulo_407029" data-name="Rectángulo 407029" width="1.59" height="15.714" transform="translate(1058.707 19.31)"/>
      <rect id="Rectángulo_407030" data-name="Rectángulo 407030" width="1.59" height="15.714" transform="translate(1067.721 19.31)"/>
      <rect id="Rectángulo_407031" data-name="Rectángulo 407031" width="1.59" height="15.714" transform="translate(1072.226 19.31)"/>
      <rect id="Rectángulo_407032" data-name="Rectángulo 407032" width="1.59" height="15.714" transform="translate(1076.733 19.31)"/>
      <rect id="Rectángulo_407033" data-name="Rectángulo 407033" width="1.59" height="15.714" transform="translate(1081.24 19.31)"/>
      <rect id="Rectángulo_407034" data-name="Rectángulo 407034" width="1.59" height="15.714" transform="translate(1090.251 19.31)"/>
      <rect id="Rectángulo_407035" data-name="Rectángulo 407035" width="1.59" height="15.714" transform="translate(1094.758 19.31)"/>
      <rect id="Rectángulo_407036" data-name="Rectángulo 407036" width="1.59" height="15.714" transform="translate(1099.263 19.31)"/>
      <rect id="Rectángulo_407037" data-name="Rectángulo 407037" width="1.59" height="15.714" transform="translate(1103.77 19.31)"/>
      <rect id="Rectángulo_407038" data-name="Rectángulo 407038" width="1.59" height="15.714" transform="translate(1112.782 19.31)"/>
      <rect id="Rectángulo_407039" data-name="Rectángulo 407039" width="1.59" height="15.714" transform="translate(1117.289 19.31)"/>
      <rect id="Rectángulo_407040" data-name="Rectángulo 407040" width="1.59" height="15.714" transform="translate(1121.796 19.31)"/>
      <rect id="Rectángulo_407041" data-name="Rectángulo 407041" width="1.59" height="15.714" transform="translate(1126.301 19.31)"/>
      <path id="Trazado_894887" data-name="Trazado 894887" d="M687.4,50.746h-8.952V49.414l3.586-3.6a26.394,26.394,0,0,0,2.16-2.367,6.082,6.082,0,0,0,.784-1.378,3.96,3.96,0,0,0,.261-1.443,2.292,2.292,0,0,0-.661-1.728,2.535,2.535,0,0,0-1.836-.637,4.614,4.614,0,0,0-1.606.278,6.423,6.423,0,0,0-1.691,1.016l-.819-1.052a6.278,6.278,0,0,1,4.1-1.564,4.33,4.33,0,0,1,3.008.982,3.381,3.381,0,0,1,1.091,2.64,5.108,5.108,0,0,1-.727,2.561,16.313,16.313,0,0,1-2.72,3.2l-2.981,2.915v.075h7Z" transform="translate(400.07 21.779)"/>
      <path id="Trazado_894888" data-name="Trazado 894888" d="M694.961,47.572H692.94V50.7h-1.482v-3.13h-6.623V46.221l6.464-9.212h1.641v9.157h2.021Zm-3.5-1.407V41.638q0-1.331.094-3.008h-.075a14.111,14.111,0,0,1-.839,1.48l-4.256,6.055Z" transform="translate(403.838 21.823)"/>
      <path id="Trazado_894889" data-name="Trazado 894889" d="M714.737,50.746h-8.952V49.414l3.586-3.6a26.394,26.394,0,0,0,2.16-2.367,6.077,6.077,0,0,0,.784-1.378,3.958,3.958,0,0,0,.261-1.443,2.292,2.292,0,0,0-.661-1.728,2.535,2.535,0,0,0-1.836-.637,4.614,4.614,0,0,0-1.606.278,6.423,6.423,0,0,0-1.691,1.016l-.819-1.052a6.277,6.277,0,0,1,4.1-1.564,4.33,4.33,0,0,1,3.008.982,3.381,3.381,0,0,1,1.09,2.64,5.108,5.108,0,0,1-.726,2.561,16.313,16.313,0,0,1-2.72,3.2l-2.981,2.915v.075h7Z" transform="translate(416.192 21.779)"/>
      <path id="Trazado_894890" data-name="Trazado 894890" d="M716.821,42.356a5,5,0,0,1,3.384,1.067,3.653,3.653,0,0,1,1.234,2.92,4.223,4.223,0,0,1-1.343,3.316,5.378,5.378,0,0,1-3.712,1.2,6.828,6.828,0,0,1-3.512-.736V48.634a5.262,5.262,0,0,0,1.62.657,7.965,7.965,0,0,0,1.908.238,3.815,3.815,0,0,0,2.55-.774,2.772,2.772,0,0,0,.908-2.235q0-2.85-3.494-2.85a13.935,13.935,0,0,0-2.364.27l-.8-.512.512-6.371h6.774V38.48h-5.449l-.347,4.09a10.866,10.866,0,0,1,2.135-.215" transform="translate(420.371 21.851)"/>
      <text id="cm" transform="translate(1.91 10.521)" font-size="19" font-family="Roboto-Regular, Roboto"><tspan x="0" y="0">cm</tspan></text>
    </g>
  </g>
</svg>
