<svg xmlns="http://www.w3.org/2000/svg" xmlns:xlink="http://www.w3.org/1999/xlink" width="92.344" height="92.344" viewBox="0 0 92.344 92.344">
  <defs>
    <clipPath id="clip-path">
      <rect id="Rectángulo_401506" data-name="Rectángulo 401506" width="92.344" height="92.344" fill="none"/>
    </clipPath>
  </defs>
  <g id="Grupo_1113912" data-name="Grupo 1113912" transform="translate(-10260.716 10965.172)">
    <g id="Grupo_1113644" data-name="Grupo 1113644" transform="translate(10260.716 -10965.172)">
      <g id="Grupo_1099827" data-name="Grupo 1099827" clip-path="url(#clip-path)">
        <path id="Trazado_883915" data-name="Trazado 883915" d="M92.344,46.173A46.172,46.172,0,1,1,46.172,0,46.172,46.172,0,0,1,92.344,46.173" transform="translate(0 -0.001)" fill="#ffe260"/>
      </g>
    </g>
    <g id="diseno" transform="translate(10283.718 -10945.281)">
      <path id="Trazado_896672" data-name="Trazado 896672" d="M130.988,87.148A5.331,5.331,0,0,1,129.947,84a5.27,5.27,0,0,1,.4-2.018l2.27-5.5a1.129,1.129,0,0,0-.472-1.4,6.954,6.954,0,0,0-1.521-.662V72.013a1.129,1.129,0,0,0-2.258,0v2.1a6.932,6.932,0,0,0-5,2.364,6.931,6.931,0,0,0-5-2.364v-2.1a1.129,1.129,0,0,0-2.258,0v2.393a6.944,6.944,0,0,0-1.521.662,1.129,1.129,0,0,0-.472,1.4l2.27,5.505a5.269,5.269,0,0,1,.4,2.018,5.331,5.331,0,0,1-1.041,3.153,9.337,9.337,0,0,0-1.665,7.3l2.726,14.24a1.129,1.129,0,0,0,1.109.917h10.9a1.129,1.129,0,0,0,1.109-.917l2.726-14.24A9.337,9.337,0,0,0,130.988,87.148Zm-.553,6.871-2.55,13.323h-9.037L116.3,94.019a7.073,7.073,0,0,1,1.261-5.527,7.6,7.6,0,0,0,1.485-4.5,7.514,7.514,0,0,0-.57-2.879l-1.857-4.5A4.728,4.728,0,0,1,122.355,79a1.129,1.129,0,0,0,2.023,0,4.728,4.728,0,0,1,5.738-2.386l-1.857,4.5a7.515,7.515,0,0,0-.57,2.879,7.6,7.6,0,0,0,1.485,4.5,7.072,7.072,0,0,1,1.261,5.527Z" transform="translate(-102.223 -63.603)" fill="#ff494f" stroke="#ff4950" stroke-width="1"/>
      <path id="Trazado_896673" data-name="Trazado 896673" d="M52.421,15.987a3.8,3.8,0,0,0-6.957-.916l-3.177,5.5V1.135A1.129,1.129,0,0,0,41.158.006H8.314a1.129,1.129,0,0,0-.8.331L.331,7.521A1.129,1.129,0,0,0,0,8.32V51.428a1.129,1.129,0,0,0,1.129,1.129H41.158a1.129,1.129,0,0,0,1.129-1.129V35.764l9.755-16.9a3.773,3.773,0,0,0,.379-2.882Zm-4.067-.5a1.54,1.54,0,0,1,1.732,2.257l-.77,1.333-2.667-1.54.77-1.333A1.53,1.53,0,0,1,48.354,15.483Zm-.167,5.546L35.848,42.4l-2.3.9-.369-2.44L45.521,19.489ZM7.541,3.5V7.546H3.5ZM40.029,50.3H2.258V9.8H8.67A1.129,1.129,0,0,0,9.8,8.675V2.264h30.23V24.485l-9,15.59a1.129,1.129,0,0,0-.139.733l.64,4.228a1.129,1.129,0,0,0,1.528.882l3.982-1.56a1.129,1.129,0,0,0,.566-.487l2.423-4.2Z" fill="#ff494f" stroke="#ff4950" stroke-width="1"/>
    </g>
  </g>
</svg>
