<svg xmlns="http://www.w3.org/2000/svg" xmlns:xlink="http://www.w3.org/1999/xlink" width="517.596" height="522.932" viewBox="0 0 517.596 522.932">
  <defs>
    <clipPath id="clip-path">
      <rect id="Rectángulo_407268" data-name="Rectángulo 407268" width="517.596" height="522.932" fill="#cc3a3f"/>
    </clipPath>
  </defs>
  <g id="Grupo_1113912" data-name="Grupo 1113912" transform="translate(-857.051 -1296.646)">
    <g id="Grupo_1113591" data-name="Grupo 1113591" transform="translate(857.051 1296.646)">
      <g id="Grupo_1113590" data-name="Grupo 1113590" clip-path="url(#clip-path)">
        <path id="Trazado_896300" data-name="Trazado 896300" d="M485.889,136.1c-1.8-3.347-13.586-20.882-13.586-22.181V91.339H454.712c-63.669-77.3-171.238-109.5-267.962-81.208-47,13.745-85.938,39.481-119.333,74.751a34.227,34.227,0,0,0-4.977,6.457H44.849c-.557,6.814.745,14.742.015,21.414a7.407,7.407,0,0,1-1.187,3.213h.586l.616,1.427-.027,47.238c1.182.369,1.705-.894,2.343-1.17-.875-.027-.555-.831-.594-1.459-.992-15.683.789-32.335-.034-48.128a8.876,8.876,0,0,1,1.214-3.772c-1.6,1.048-1.1.567-1.173-.87-.259-5.355.193-10.782,0-16.137,3.792.193,7.671-.244,11.461-.02.8.046,1.559-.31,2.028.608a1.8,1.8,0,0,1,0,.586c2.231-2.033,5.448-.924,8.209-1.173v-.586c-.948-.254-1.969-.867-2.932-1.173-.5-.159-2.343.464-1.754-.872.21-.474,6-6.557,7.017-7.645C123.841,25.728,206.168-3.629,283.786,3.975,348.244,10.29,411.2,42.063,452.953,91.334c-2.792-1.114-3.117.586-4.527,1.048-6.069,1.989-12.682,1.195-18.925,3.066-.147,1.007,1.39.625,2.038.577,1.627-.127,3.34-.413,5-.581,1.356-.137,2.744-.4,4.1-.586,4.916-.687,9.516-2.468,14.537-1.632l15.367,20.1v50.133a12.247,12.247,0,0,1-4.1-1.759l-.586.586c2.157.975,4.271,1.979,6.45,2.932l0-48.668c43.505,62.9,54.89,144.275,32.535,217.536a246.16,246.16,0,0,1-31.949,66.847c-.621-65.171.8-130.406.024-195.577-.107-8.876-1.693-18.663-.664-27.551.169-1.451,1.852-.9,1.849-2.323,0-.924-3.389-3.562-1.537-6.206.557-.8,2.135.134,2.116-1.419-.029-2.17-.95-2.013-2.38-2.639l1.757,2.929c-7.122.767-12.768-5.175-19.931-4.684l4.508,1.642,14.837,10.376c-1.625,1.263-3.525.271-5.28.584l2.27.963c-.142,51.646.457,103.367.108,155.035-.161,24.138-1.175,48.482-.586,72.706-14.8,23.034-35.961,44.609-58.127,60.905-1.832,1.349-12.145,8.83-13.281,9.052-2.328.459-7.635-3.574-10.706-2.839l9.792,5.438.757,3.35c-1.693.132-1.354-1.6-2.719-2.849-.481-.44-3.269-2.221-3.728-1.835.953,1.739,4.842,4.256,3.836,6.433-1.339,2.893-2.338-1.6-4.131-2.917a4.25,4.25,0,0,0-3.223-1.17c1.063,1.815,5.971,4.916,3.1,7.058-2.3,1.718-1.654-.369-2.768-1.82-.4-.518-3.267-3.455-3.85-2.893,1.774,3.31,5.734,5.612.288,7.6-1.441-2.358-2.4-5.69-5.566-6.428l1.173,1.747c-2.143.23-4.808.858-5.864,2.934,2.023-.76,6.626-2.553,7.518.418.98,3.257-5.28,5.93-7.54,5.211-3.958-1.258-2.275-10.457-5.861-13.533-.589-.506-1.666-.562-2.167-1.046-1.805-1.747-1.551-7.044-2.06-9.374-2.233-10.237-24.031-29.8-31.177-39.186-7.413-9.733-10.029-19.914-15.929-29.806-5.057-8.48-12.856-15.6-18.712-23.528,3.467-21.746,8.439-43.5,8.5-65.643l16.413,45.733.586-.586c-2.971-9.247-5.6-18.639-8.783-27.864-2.216-6.408-6.206-14.112-7.94-20.207-2.392-8.412-1.959-16.208-5.4-25.675-5.36-14.757-13.017-20.039-11.879-37.363.362-5.531,3-22.526,4.974-27.273.669-1.612,2.248-2.829,3.069-4.554,2.184-4.588,1.332-8.595,2.5-13.034l-1.165,0-1.766-6.445h-.586c2.492,8.541,1.774,20.4-7.217,24.739-9.2,4.434-26.564,2.306-29.137-9.494l-.586.586c3.225,14.52,22.421,15.827,33.417,9.382-2.018,10.4-6.57,22.372-5.78,33.056.55,7.461,5.649,13.056,8.414,19.726,7.681,18.521,10.708,36,8.436,55.911-1.977,17.334-4.811,37.842-8.133,54.9h.586c.2-.726-.039-3.086,1.476-1.771,4.415,6.2,10.21,11.456,14.6,17.654,5.155,7.276,8.319,15.946,13.352,23.589,9.741,14.784,24.253,27.964,33.447,42.78,3.1,4.989,1.886,8.033,3.865,12.55,1.556,3.55,3.428,2.8,4.732,4.652a42.591,42.591,0,0,1,2.387,8.192c-.039,1.363-4.263,3.03-5.629,3.679-19.33,9.2-40.984,15.338-62.007,19.294-1.715-1.661-3.955-2.883-5.634-4.552,1.928,4.185,8.221,8.517,5.568,12.9-.865-2.206-.909-5.065-3.218-6.447-.1,2.084,1.959,5.353.291,7.031-2.964,2.981-1.39-1.378-1.559-2.482-.227-1.471-2.231-3.845-3.137-5.133-.406,2.187,3.249,6.79-.088,8.116-2.824,1.121-1.644-1.234-2.1-3-.408-1.573-1.266-2.954-1.63-4.532-1.1-.122-.474,1.229-.41,1.874.371,3.828,1.913,6.711-3.692,5.15,1.165-2.822.281-4.913-.589-7.61-1.148-.193-.315,1.461-.581,1.759-.286.322-6.489-2.634-8.2.291,2.485-.066,4.464-.828,6.748.87,5.944,4.415-5.881,6.753-7.957,3.269-2.2-3.689,1.849-8.619,1.81-12.367-.02-1.952-1.312-2.446-1.639-3.643-1.011-3.7,2.116-7.122,2.653-10.554,2.089-13.276-7.266-35.726-9.157-49.782-1.39-10.335.154-17.652.5-27.481.423-12.118-4.222-26.215-6.257-38.294-3.308-19.633-6.325-39.4-7.227-59.327-1.021-.137-.557,1.331-.581,2.042-.667,18.15-3.589,37.043-6.621,54.954C249.3,385.726,246,396.684,244.806,407.1c-.8,7.012.315,12.206.577,19.047,1.077,2.607.581,6.22.6,9.1.007.911.569.818.569.87.779-5.756.528-11.517.613-17.327.208-13.877,2.8-25.714,5.744-39.349l5.365-43.588c1.209,12.751,2.3,25.648,4.185,38.328,1.774,11.923,6.289,26.154,6.953,37.61.577,9.951-.743,18.509.677,29.227,1.969,14.874,8.5,34.571,8.666,48.841.056,4.884-3.968,8.783-2.763,13.865.254,1.073,1.268,1.752,1.5,2.6.425,1.559-.691,9.013-1.994,9.457H240.184c-.364-.235-1.95-7.481-1.891-8.439.115-1.857,1.385-2.025,1.693-3.037,1.417-4.644-1.471-7.525-2.086-11.163-1.432-8.426,4.53-33.18,6.311-42.958l-.586-.586c-2.221,11.265-9.611,32.357-8.055,42.943.564,3.85,3.8,6.99,2.636,11.155-.286,1.029-1.478,1.615-1.542,3.037-.142,3.174,3.354,8.825,2.621,11.48-1.117,4.043-10.276,4.407-10.08.269.161-3.354,5.556-3.391,7.967-2.917-1.688-3.078-7.916.034-8.2-.291-.266-.3.567-1.95-.581-1.762.039,1.564-.858,3.078-1.046,4.537-.156,1.2,1.358,3.6-.96,3.64-4.307.071-2.424-2.959-2.177-5.617.061-.655.54-2.106-.508-1.974-.09,2.731-2.773,4.908-1.18,7.615-5.851.765-2.876-4.117-2.636-7.615l-2.17,2.519-1.339,5.089c-2.67-.537-1.251-3.777-1.058-5.732.064-.645.689-2-.413-1.874-1.18,2.419-2.27,4.139-1.771,7.031-2.062-1.009-1.925-2.011-1.3-3.936,1.891-5.817,8.4-9.558,10.1-17.173-.086-1.1.45-2.861-.586-3.518-.906,5.084-3.811,15.56-10.232,15.257-4.368-.205-12.323-2.548-16.867-3.7a246.667,246.667,0,0,1-50.319-18.932,46.832,46.832,0,0,1,2.692-8.426c.74-.928,2.248-1.055,3.208-2.069,2.526-2.678,1.852-5.627,2.59-8.551,2.734-10.852,24.238-32.792,31.881-43.173,6.7-9.1,10.046-18.045,15.807-27,4.354-6.767,11.805-14.93,17.136-21.27a1.219,1.219,0,0,1,1.173-.586c-2.964-16.43-5.663-35.924-7.547-52.555-2.108-18.619.6-32.4,6.792-49.933,3.828-10.84,10.7-17.092,10.161-29.174-.42-9.445-3.748-19.272-5.883-28.414,10.161,6.416,30.361,4.989,33.417-8.8l-.586-.586c-2.768,12.35-24.414,13.9-32.262,6.755-7.1-6.469-6.091-18.92-1.747-26.687L191.15,186.91c-15.7-1.871-32.313-4.417-48.11-4.71-7.86-.147-14.605.081-22.672-1.319-11.737-2.038-22.765-8.036-35.059-7.456a6.851,6.851,0,0,0,1.752-5.856l-2.069,4.664c-.408.591-2.421,2.37-2.907,2.37H72.408l6.748,1.229c7.412-2.665,15.45,1.212,23.034,2.7,9.245,1.818,18.39,4.039,27.573,5.849,13.66,2.695,30.779.936,44.956,1.952,8.268.594,27.112,3.223,34.9,5.27,1.4.366,2.223.156,3.227,1.757.027-3.288,2.878-.428,5.568-1.165-1.534,1.617-1.471,5.685-2.353,7.027-.684,1.041-.574-3.784-1.165-.581.8,3,.625,7.469,1.432,10.589.919,3.56,3.232,5.077,4.28,7.447,2.089,4.713,5.394,26.589,5.441,32.12.093,11.478-7.75,20.569-11.749,31.045-3.472,9.091-3.462,15.121-5.4,23.916-1.554,7.048-7.745,19.372-10.43,27.094-2.6,7.476-4.627,15.069-7.027,22.587l.586.586,16.413-44.561c.537,22,4.559,43.7,8.683,65.239-4.608,6.445-10.374,12-15.1,18.338-8.468,11.348-11.551,24.549-20.3,35.985-6.76,8.834-29.047,29.374-31.065,38.714-.64,2.971-.068,5.4-1.5,8.492-1.134,2.441-2.768,1.642-3.96,3.635-2.116,3.547-.709,13.882-7.112,12.282-8.812-2.2-5.82-9.763,2.35-5.614-1.055-2.077-3.721-2.7-5.864-2.934l1.173-1.747c-.877-.867-5.856,4.63-4.693,6.445-2.275-.574-4.363-.9-3.391-3.682.467-1.344,2.375-1.732,2.218-3.352-.674-.687-4.767,3.3-4.107,4.688-5.155-1.7-.948-5.182,1.178-7.618-3.091-1.222-5.734,5.253-6.157,5.26a5.167,5.167,0,0,1-1.4-1.576c-.472-1.8,3.181-4.483,4.039-6.03-.459-.386-3.247,1.395-3.728,1.835-1.366,1.251-1.026,2.981-2.719,2.849-.042-5.267,7.718-6.616,11.537-8.688,4.715-2.56,7.9-5.008,10.156-10.068l-9.184,8.7-10.708,3.929-1.029-.161c-22.931-15.216-44.1-33.933-61.152-55.582-2.514-3.191-9.1-11.06-9.428-14.613-1.375-14.813.21-33.4.054-48.721-.015-1.529-.623-2.966-.638-4.64-.528-58.025.423-116.081.064-174.109l-3.552-1.236,8.207-6.746c-1.446.691-3.144,1.055-4.4,2.341-1.759-3.569,3.4-2.893,5.573-3.513,3.33-.953,5.8-3.227,9.379-3.525.156-.992-1.415-.638-2.038-.572-6.113.628-11.446,5.539-17.894,4.688-.039,1.28,2.6.242,2.932.579a11.5,11.5,0,0,1-.288,4.124c-.44.9-2.866,1.27-2.636,3.174l2.956,1.244-.625,223.658c-3.628-4.063-6.736-9.47-9.477-14.266C14.559,351.312,2.228,310.492.872,269.591c-.007,1.058-.574,3.4-.586,5.277-.3,44.644,20.154,94.75,43.95,131.664l-.562,113.435,164.507-.621c5.456,4.444,8.6,2.89,14.554,3.142,2.778.12,3.643.164,6.5.11,2.47-.046,4.637.7,7.388.046,2.5-.6,3.186-2.917,4.96-3.254,4.806-.909,11.673.638,16.4.623,3.054-.01,15.88-1.61,17.764-.511.254.149.689,1.593,1.566,2.238,2.807,2.067,6.418.8,9.423.858,2.858.054,3.723.01,6.5-.11,5.959-.252,9.1,1.3,14.556-3.142l165.677.621-.562-114.022c54.062-80.184,58.88-184.678,12.973-269.851m-15.345-25.406L457.057,93.1h13.486Zm-.288,60.976L464.1,167.57c.977.354,6.193.958,6.421,1.195.1.105.264,2.6-.261,2.9M47.194,516.447V410.9a270.392,270.392,0,0,0,58.45,59.114c1.517,1.131,9.741,6.145,10.036,6.67.43.767-.1,2.438.23,3.587a38.179,38.179,0,0,0,2.634,3.376c.916.535,2.292.269,2.966.7,1.549,1,4.112,3.3,5.8,4.456.921.633,7.818,4.036,9.025,4.459,4.955,1.725,5.074-.889,6.626-.752,1.1.1,10.161,4.955,12.313,5.859,17.337,7.281,35.328,13.217,53.93,16.433l1,1.642Zm422.763-.88a5.99,5.99,0,0,1-.88.88h-163.3l.733-1.319a273.785,273.785,0,0,0,51.433-15.411c3.027-1.226,12.436-6.328,14.527-6.631,1.989-.286,2.4,1.634,6.587.181,1.2-.42,8.106-3.828,9.025-4.459,1.036-.711,1.446-2,1.671-2.133,1.7-.967,2.138-1.041,4.129-2.323.674-.432,2.05-.169,2.966-.7,2.138-1.246,2.448-5.033,3.288-6.24.965-1.383,15.822-11.2,18.746-13.5a268.294,268.294,0,0,0,40.505-39.826l10.569-13.765Z" transform="translate(0.408 0)" fill="#cc3a3f"/>
        <path id="Trazado_896301" data-name="Trazado 896301" d="M274.673,96.319c-8.531-.833-18.157-2.15-26.7-1.783-6.9.3-13.711,2.419-20.508,2.946-8.348.65-17.39-.743-25.8-1.161-.66-.032-1.608.379-1.449-.581l25.748-13.247,40.876-31.832c3.99.23,7.618-3.442,10.183-4.183l-.586-.586c-2.687.894-4.574,3.413-7.823,3.313-3.157-.1-3.96-2.345-6.245-3.9a5.065,5.065,0,0,0,1.505,2.888c.975.943,2.309.792,2.59,1.8-10.933,3.858-17.942,13.708-26.772,20.432-8.805,6.706-16.99,9.7-26.388,14.656-6.641,3.5-15.433,11.827-22.768,11.827h-43.1c.84-1.683,2.646-2.514,4.1-3.518l-.586-.586c-1.947,1.178-4.659,3.716-6.741,3.584-1.129-.071-1.784-.914-2.468-1.014-4.71-.691-10.95-1.073-13.779-5.675-2.223-3.613-1.969-11.637-1.632-15.944.562-7.19,3.885-11.3,4.1-19.65h-.586c-.3,8-3.574,14.959-8.309,21.3-4.974,6.66-11.866,9.413-18.663,3.325l-.586.586c7.124,6.484,13.748,4.376,19.66-2.331l3.789-5.876c-.459,9.147-3.472,18.91,6.467,23.733,8.981,4.359,18.135,3.975,27.864,3.848,14.705-.193,29.772-1.341,44.563-.635,6.44.308,13.432,1.974,19.939,1.805,7.442-.193,15.824-2.519,23.432-2.949,7.889-.445,21.224,1.515,27.847,0-.144-.581-.682-.537-1.173-.586" transform="translate(147.611 65.383)" fill="#cc3a3f"/>
        <path id="Trazado_896302" data-name="Trazado 896302" d="M173.06,82.624c-13.032.748-26.349,1.471-39.271-.134a118.066,118.066,0,0,1-18.6-11.014A114.783,114.783,0,0,1,87.743,55.2c.173.154.349.31.523.467A146.915,146.915,0,0,0,111.412,71.09c1.573.484,17.168,8.575,17.539,9.5.589,1.478.875,2.265-.867,2.255l-21.856,1.622c-17.346-2.086-34.243-3.4-51.487-2.248a36.284,36.284,0,0,1-13.894-9,99.382,99.382,0,0,1-13.2-7.019c3.091,4.061,8.4,5.15,12.5,7.728,3.179,1.994,6,5.311,9.382,7.036,7.3,3.731,22.294,1.17,31.206,1.63,8.189.423,17.175,2.932,25.169,2.99,6.091.046,12.753-1.527,18.759-1.818,12.045-.584,24.573.454,36.672.024a3.064,3.064,0,0,1,1.419-.611c3.313-.144,7.244.652,10.308-.562" transform="translate(39.894 79.665)" fill="#cc3a3f"/>
        <path id="Trazado_896303" data-name="Trazado 896303" d="M37.964,46.132c.044.012.147.054.279.108,2.023.865,4.1,1.615,6.2,2.3-2.082-1.009-4.227-1.991-6.482-3Z" transform="translate(54.788 65.73)" fill="#cc3a3f"/>
        <path id="Trazado_896304" data-name="Trazado 896304" d="M46.209,50.069c1.246.972,2.48,1.972,3.709,2.983-.313-.3-.63-.577-.943-.875-.931-.743-1.849-1.441-2.766-2.108" transform="translate(66.686 72.257)" fill="#cc3a3f"/>
        <path id="Trazado_896305" data-name="Trazado 896305" d="M54.742,95.748C71.986,94.6,88.883,95.907,106.229,98l21.856-1.622c1.742.01,1.456-.777.865-2.255-.369-.928-15.966-9.023-17.537-9.5A146.706,146.706,0,0,1,88.267,69.191c-.173-.154-.349-.31-.523-.467-3.78-2.973-7.444-6.159-11.036-9.558-1.226-1.011-2.463-2.011-3.709-2.981a86.5,86.5,0,0,0-13.662-8.058c-2.1-.684-4.18-1.434-6.2-2.3,1.708.716,10.217,4.771,11.043,5.28,17.39,10.657,32.047,29.455,51.812,36.728l13.088,7.718c-8.707.117-17.383,1.781-26.112,1.2-14.229-.943-23.427-3.2-38.67-2.363-2.565.142-6.247,1.241-8.717,1.134C50.247,95.3,46,89,41.913,86.276c-4.188-2.788-9.78-4.112-14.268-6.545a99.635,99.635,0,0,0,13.2,7.019,36.338,36.338,0,0,0,13.9,9" transform="translate(39.896 66.14)" fill="#cc3a3f"/>
        <path id="Trazado_896306" data-name="Trazado 896306" d="M58.762,60.848c-3.606-3.22-7.278-6.465-11.036-9.558,3.594,3.4,7.256,6.584,11.036,9.558" transform="translate(68.876 74.019)" fill="#cc3a3f"/>
        <path id="Trazado_896307" data-name="Trazado 896307" d="M125.6,96.93c-10.852-.7-16.718-8.045-25.88-12.819C91.33,79.74,84.1,77.228,76.128,71.348,66.793,64.463,59.642,54.353,48.523,49.99c.32-.96,1.5-1.043,2.345-2.04a3.775,3.775,0,0,0,1.163-2.643c-5.607,7.283-8.431,2.233-14.068.586,2.255,1,4.4,1.986,6.482,3,1.319.43,2.636.858,3.987,1.217a115.5,115.5,0,0,1,9.675,6.838c.914.667,1.835,1.366,2.766,2.106.31.3.63.579.943.877,3.755,3.093,7.427,6.338,11.033,9.558A114.831,114.831,0,0,0,100.3,85.757a118.065,118.065,0,0,0,18.6,11.014c12.922,1.605,26.239.882,39.271.134-10.4.088-22.338.687-32.567.024" transform="translate(54.788 65.383)" fill="#cc3a3f"/>
        <path id="Trazado_896308" data-name="Trazado 896308" d="M40.617,46.772a86.514,86.514,0,0,1,13.662,8.055A115.5,115.5,0,0,0,44.6,47.989c-1.351-.359-2.668-.787-3.987-1.217" transform="translate(58.616 67.499)" fill="#cc3a3f"/>
        <path id="Trazado_896309" data-name="Trazado 896309" d="M123.66,93.8c1.759-.618,5.131-2.111,5.864,0,.418-.569.437-1.168,1.485-1.136,11.778-.508,24.226-4.449,35.755-5.307,12.125-.9,24.874-.044,36.928-.6,16.293-.757,37.615-9.98,54.475-11.1,3.618,1.818,6.562.718,10.32.55.176-.782-.948-.867-1.456-.872-3.457-.037-7.659,1.61-10.183-1.847-1.165-1.593-.8-3.863-2.426-4.9-.149,2.121.816,4.053,1.754,5.859-12.233-.425-23.337,5.392-35.074,7.442-17.661,3.088-37.434,1.136-55.508,3.714-14.578,2.763-29.491,3.081-44.277,4.1-.669.594,1.625,3.65,1.757,4.1.166-.513.362-.506.586,0" transform="translate(174.902 98.98)" fill="#cc3a3f"/>
        <path id="Trazado_896310" data-name="Trazado 896310" d="M121.964,79.132h.586c-.225-.506-.42-.513-.586,0" transform="translate(176.012 113.647)" fill="#cc3a3f"/>
        <path id="Trazado_896311" data-name="Trazado 896311" d="M111.1,109.341c9.169-9.435,4.078-23.325,3.494-34.856-.723-14.295.283-32.482,15.856-38.431l-1.173-.589a17.6,17.6,0,0,0-7.623,4.691c-.125.125.151.911-.586,1.173a7.185,7.185,0,0,1-1.173,0c-7.078,8.883-8.224,20.31-7.618,31.365.459,8.378,4.383,21.536,2.174,29.161-1.329,4.586-6.587,10.774-11.561,7.493a.494.494,0,0,0-.586.584c4.254,2.323-4.855,3-8.209,1.173l-.156.892q-5.82.11-11.571.283c10.073.279,20.542,1.928,30.349-1.021,13.511-4.061,13.518-10.315,12.455-23.019-.738.679-.557,1.478-.586,2.343-.4,11.429.081,17.053-13.486,18.758" transform="translate(118.864 51.181)" fill="#cc3a3f"/>
        <path id="Trazado_896312" data-name="Trazado 896312" d="M87.164,67.119c3.354,1.827,12.462,1.151,8.209-1.173.064.249.762.621.584,1.168-2.924.027-5.868-.02-8.793,0" transform="translate(125.791 95.17)" fill="#cc3a3f"/>
        <path id="Trazado_896313" data-name="Trazado 896313" d="M94.091,66.426c-3.064,1.214-6.995.418-10.308.562a3.063,3.063,0,0,0-1.419.611q5.75-.169,11.571-.283Z" transform="translate(118.864 95.863)" fill="#cc3a3f"/>
        <path id="Trazado_896314" data-name="Trazado 896314" d="M79.274,183.064c-8.969,16.995-11.241,38.162-21.39,53.957l.586.586a65.261,65.261,0,0,0,5.561-8.219c5.568-10.982,8.773-25.441,13.352-37.075,5.634-14.317,15.289-26.569,23.892-39.142l-.586-.586C93.554,162.723,85.11,172,79.274,183.064" transform="translate(83.535 220.204)" fill="#cc3a3f"/>
        <path id="Trazado_896315" data-name="Trazado 896315" d="M160.576,193.7c5.463,13.623,9.01,31.864,17.74,43.534l.586-.586c-6.675-10.848-9.562-25.736-14.063-37.83a119.4,119.4,0,0,0-14.779-28.025c-4.263-6.176-10.945-13.017-14.549-19.167l-.586.586c9.154,14.095,19.193,25.384,25.651,41.487" transform="translate(194.717 218.817)" fill="#cc3a3f"/>
        <path id="Trazado_896316" data-name="Trazado 896316" d="M91.961,163.146c-1.63,12.1-4.214,25-3.543,37.258.948,17.3,7.916,34.514,7.061,51.868l.586,1.173c1.744-23.965-6.589-45.526-5.3-70.094.3-5.78,2.047-12.814,1.783-18.446-.029-.643.181-1.476-.586-1.759" transform="translate(127.444 235.444)" fill="#cc3a3f"/>
        <path id="Trazado_896317" data-name="Trazado 896317" d="M123.93,164.425c-.408,10.911,3.037,23.315,2.37,34.913-.933,16.235-7.1,33.268-6.465,49.806l1.744,9.1c.188-4.488-.9-8.639-.572-13.181.975-13.572,6.157-28.35,7.051-42.2.867-13.479-1.747-26.928-3.543-40.19-.765.281-.562,1.117-.586,1.759" transform="translate(172.874 234.751)" fill="#cc3a3f"/>
        <path id="Trazado_896318" data-name="Trazado 896318" d="M1.28,164.03c.11-14.915-.088-28.734,1.842-43.6,2.089-16.081,6.235-31.7,10.464-47.282l-5.1,15.7A267.894,267.894,0,0,0,.108,147.612c.97.608.586,2.226.6,3.218.042,3.836.442,8.409-.6,12.028.01,2.028-.491,4.9.586,6.45-.276-1.608-.63-4.337.586-5.277" transform="translate(0 105.562)" fill="#cc3a3f"/>
        <path id="Trazado_896319" data-name="Trazado 896319" d="M.444,115.623c.012-1.879.579-4.219.586-5.277-1.217.941-.862,3.67-.586,5.277" transform="translate(0.25 159.246)" fill="#cc3a3f"/>
        <path id="Trazado_896320" data-name="Trazado 896320" d="M37.343,66.525a12.091,12.091,0,0,1,4.867,4.383,55.661,55.661,0,0,0-22.726,7.825c5.265-2.275,20.176-8.509,25.252-6.782,1.588.54,1.182,1.749,2.3,2.089-1.334-5.912-11.507-6.377-12.318-13.2-.127-1.065-.472-2.4,1.182-2.042-3.826-.987-.789,6.67,1.441,7.728" transform="translate(28.118 84.727)" fill="#cc3a3f"/>
        <path id="Trazado_896321" data-name="Trazado 896321" d="M34.149,58.57c-1.412,4.249.555,7.332,3.824,9.951l3.789,2.358c-8.045.728-16.078,2.817-22.277,8.214a55.645,55.645,0,0,1,22.726-7.823,12.1,12.1,0,0,0-4.869-4.383c-2.228-1.06-5.265-8.717-1.439-7.73-.447-.222-.706-.97-1.754-.586" transform="translate(28.12 84.369)" fill="#cc3a3f"/>
        <path id="Trazado_896322" data-name="Trazado 896322" d="M105.485,138.941l1.195,6.125c1.222-11.666.049-23.244-.017-34.908-.012-1.8.645-3.711.645-5.861,0-2.89-.931-6.123-.914-9.074-1.862,7.625-.222,15.436-.266,23.2-.037,6.572-1.214,13.752-.643,20.522" transform="translate(152.005 137.421)" fill="#cc3a3f"/>
        <path id="Trazado_896323" data-name="Trazado 896323" d="M205.974,76.577c-2.475-1.424-4.322-3.157-7.3-4.134-3.674-1.209-8.211-1.6-12.047-2.323l4.625-3.284c1.9-1.876,3.667-5.114,3-7.85-.21.149-.5.349-.586.586-.657,1.864-.608,2.988-2.03,4.713-3.032,3.672-9.746,4.471-10.865,9.36,1.136-.362,1.61-1.884,2.753-2.223,4.671-1.39,17.249,3.653,21.869,5.741-.777-.823-.449-1.126.586-.586" transform="translate(260.872 85.126)" fill="#cc3a3f"/>
        <path id="Trazado_896324" data-name="Trazado 896324" d="M191.1,66.933l.586-.586c-1.036-.54-1.363-.237-.586.586" transform="translate(275.163 95.356)" fill="#cc3a3f"/>
        <path id="Trazado_896325" data-name="Trazado 896325" d="M186.741,65.34c-4.8,2.841-8.06,8.346-13.9,9.851q1.979-.462,1.173.586c5.526-1.268,8.375-5.373,12.7-8.114,3.926-2.49,8.329-4.449,12.511-7.132l-.586-.586c-3.882,2.1-8.3,3.259-11.9,5.394" transform="translate(249.44 86.511)" fill="#cc3a3f"/>
        <path id="Trazado_896326" data-name="Trazado 896326" d="M172.844,66.269c.491.049,1.029,0,1.173.586q.806-1.048-1.173-.586" transform="translate(249.44 95.433)" fill="#cc3a3f"/>
        <path id="Trazado_896327" data-name="Trazado 896327" d="M28.665,52.463c-.921-1.095-1.261.836-1.454,1.156a217.79,217.79,0,0,0-21.4,48.091l12.2-29.125c.344-2.753,11.388-19.25,10.655-20.122" transform="translate(8.38 75.233)" fill="#cc3a3f"/>
        <path id="Trazado_896328" data-name="Trazado 896328" d="M28.008,72.585l6.4-3.269c-5.084-.269-8.434,3.76-12.895,5.277.787,2.436,1.578-.6,2.927.283-1.681,2.177-5.143,3.64-4.688,6.743,3.484.735,5.478-1.268,8.2-2.331l.586,1.158.171-2.223,7.454-4.8c-5.939.579-8.886,7.048-15.238,7.613-1.207-1.332,5.978-7.154,7.083-8.448" transform="translate(28.441 100.014)" fill="#cc3a3f"/>
        <path id="Trazado_896329" data-name="Trazado 896329" d="M91.369,83.725c1.075-2.438,2.358-5.351-1.779-3.059a7.8,7.8,0,0,1-3.626-2.24c-.054,2.328,2.575,2.06,3.557,3.186.164.188,1.622,3.474,1.72,3.85a2.264,2.264,0,0,1,.127-1.737" transform="translate(124.058 113.18)" fill="#cc3a3f"/>
        <path id="Trazado_896330" data-name="Trazado 896330" d="M92.407,86.044c.882-1.341.818-5.409,2.353-7.027-2.69.738-5.541-2.123-5.568,1.165-1-1.6-1.83-1.39-3.227-1.757a7.787,7.787,0,0,0,3.626,2.24c4.134-2.292,2.851.621,1.779,3.059a2.253,2.253,0,0,0-.127,1.737c.591-3.205.481,1.622,1.165.581" transform="translate(124.059 113.18)" fill="#cc3a3f"/>
        <path id="Trazado_896331" data-name="Trazado 896331" d="M99.167,124.266c2.113,5.534,7.07,11.7,12.572,14.1.479.21,2.714,1.209,2.663-.02-6.557-2.595-10.65-9.091-15.235-14.08" transform="translate(143.113 179.334)" fill="#cc3a3f"/>
        <path id="Trazado_896332" data-name="Trazado 896332" d="M124.3,85.356a38.645,38.645,0,0,1,2.932-6.45,13.589,13.589,0,0,0-4.444.762c.508,1.915,1.014,3.816,1.512,5.688" transform="translate(177.197 113.873)" fill="#cc3a3f"/>
        <path id="Trazado_896333" data-name="Trazado 896333" d="M123.284,79.761l-1.08-.855,1.766,6.445,1.165,0q-.748-2.811-1.512-5.688c-.11.039-.23.051-.34.093" transform="translate(176.359 113.873)" fill="#cc3a3f"/>
        <path id="Trazado_896334" data-name="Trazado 896334" d="M122.2,79.551l1.261.169c.054.2.107.393.159.594a13.588,13.588,0,0,1,4.444-.762c-.733-2.111-4.1-.618-5.864,0" transform="translate(176.359 113.229)" fill="#cc3a3f"/>
        <path id="Trazado_896335" data-name="Trazado 896335" d="M123.624,79.668c-.054-.2-.105-.393-.159-.6l-1.261-.166,1.08.855c.11-.042.227-.054.34-.093" transform="translate(176.36 113.873)" fill="#cc3a3f"/>
        <path id="Trazado_896336" data-name="Trazado 896336" d="M120.775,124.746l-7.61,8.509-7.039,4.972c6.4-.9,12.546-7.554,14.649-13.481" transform="translate(153.156 180.027)" fill="#cc3a3f"/>
        <path id="Trazado_896337" data-name="Trazado 896337" d="M112.6,71.761c3.958-.239,8.3,0,12.313,0a42.59,42.59,0,0,0,5.881-1.742c.323-.137,1.969-.625,1.151-1.195-7.132,2.614-14.776.9-21.979,2.944.117,1.539,2.235.017,2.634-.007" transform="translate(158.697 99.323)" fill="#cc3a3f"/>
        <path id="Trazado_896338" data-name="Trazado 896338" d="M100.719,71.764c3.67.388,8.48,0,12.313,0,.325,0,2.045,1.449,2.047.007-7.239-2.011-14.788-.369-21.974-2.949-.7.743,2.6,1.718,2.89,1.8a40.7,40.7,0,0,0,4.723,1.139" transform="translate(134.224 99.32)" fill="#cc3a3f"/>
        <path id="Trazado_896339" data-name="Trazado 896339" d="M89.382,155.76c.476.538.371,1.385.552,2.106,2.16,8.666,1.634,8.834.479,17.4q1-.627.586,1.759l1.781-10.818c-.432-3.731-2.316-7.926-2.954-11.463.12.809-.044,1.121-.445,1.014" transform="translate(128.992 223.322)" fill="#cc3a3f"/>
        <path id="Trazado_896340" data-name="Trazado 896340" d="M89.812,155.763c.4.108.564-.205.445-1.014a1.219,1.219,0,0,0-1.173.586,1.481,1.481,0,0,1,.728.428" transform="translate(128.561 223.319)" fill="#cc3a3f"/>
        <path id="Trazado_896341" data-name="Trazado 896341" d="M89.8,163.223c.767.283.557,1.116.586,1.759q.418-2.386-.586-1.759" transform="translate(129.601 235.367)" fill="#cc3a3f"/>
        <path id="Trazado_896342" data-name="Trazado 896342" d="M100.47,198.467c.848-4.652,2.319-9.24,2.345-14.073l-.574.577q-.176-5.23-.6-10.545a97.085,97.085,0,0,1-1.759,23.454q.564-.8.586.586" transform="translate(144.148 251.723)" fill="#cc3a3f"/>
        <path id="Trazado_896343" data-name="Trazado 896343" d="M101.777,184.394c0-.051-.562.042-.569-.87-.022-2.878.474-6.491-.6-9.1q.421,5.318.6,10.545Z" transform="translate(145.187 251.723)" fill="#cc3a3f"/>
        <path id="Trazado_896344" data-name="Trazado 896344" d="M99.884,184.2l.586.586q-.022-1.385-.586-.586" transform="translate(144.148 265.404)" fill="#cc3a3f"/>
        <path id="Trazado_896345" data-name="Trazado 896345" d="M107.373,65.913c-3.665-3.284-4.96-8.172-8.209-11.727.833,3.064.027,6.716,1.173,9.382q-.707-2.514.586-2.345c-.1-1.207-.616-2.514-.3-3.516,2.079,3.335,3.161,6.064,6.159,8.793-.777-.823-.45-1.126.586-.586" transform="translate(143.108 78.198)" fill="#cc3a3f"/>
        <path id="Trazado_896346" data-name="Trazado 896346" d="M102.537,59.733l.586-.586c-1.036-.54-1.363-.237-.586.586" transform="translate(147.358 84.965)" fill="#cc3a3f"/>
        <path id="Trazado_896347" data-name="Trazado 896347" d="M99.792,59.418c.029-.867-.151-1.664.586-2.345q-1.294-.169-.586,2.345" transform="translate(143.653 82.349)" fill="#cc3a3f"/>
        <path id="Trazado_896348" data-name="Trazado 896348" d="M83.027,144.666c-2.187,6.855-3.562,13.579-7.623,19.35.823-.777,1.126-.45.586.586,4.713-6.89,4.95-11.617,7.623-19.35q-.748,1.052-.586-.586" transform="translate(108.819 208.775)" fill="#cc3a3f"/>
        <path id="Trazado_896349" data-name="Trazado 896349" d="M79.127,145.252l-.586-.586q-.161,1.634.586.586" transform="translate(113.305 208.775)" fill="#cc3a3f"/>
        <path id="Trazado_896350" data-name="Trazado 896350" d="M75.4,152.839l.586.586c.54-1.036.237-1.363-.586-.586" transform="translate(108.819 219.951)" fill="#cc3a3f"/>
        <path id="Trazado_896351" data-name="Trazado 896351" d="M120.286,202.546c.024,4.928,1.173,9.406,4.688,12.9-1.656-3.594-2.306-7.757-3.447-11.534-.288-.96.469-1.654-1.241-1.363" transform="translate(173.591 292.208)" fill="#cc3a3f"/>
        <path id="Trazado_896352" data-name="Trazado 896352" d="M123.082,156.186c-.435,2.231-2.209,5.59-2.294,7.97-.093,2.534,1.161,6.992,1.708,9.621q-.52-2.221.586-1.759c-1.011-7.459-1.454-8.295.586-15.832-.166.513-.362.506-.586,0" transform="translate(174.308 225.4)" fill="#cc3a3f"/>
        <path id="Trazado_896353" data-name="Trazado 896353" d="M122.31,156.186h-.586c.225.506.42.513.586,0" transform="translate(175.666 225.4)" fill="#cc3a3f"/>
        <path id="Trazado_896354" data-name="Trazado 896354" d="M121.582,164.472c.024-.643-.178-1.478.586-1.759q-1.107-.462-.586,1.759" transform="translate(175.221 234.704)" fill="#cc3a3f"/>
        <path id="Trazado_896355" data-name="Trazado 896355" d="M191.294,71.966c1.173.77,2.113,2.311,3.259,3.2,1.759.305.085-1.063.278-1.163.6-.31,1.566.8,2.35.574-2.946-2.788-6.985-5.248-11.136-5.265,1.148,1.529,3.643,1.6,5.248,2.658" transform="translate(268.492 100.022)" fill="#cc3a3f"/>
        <path id="Trazado_896356" data-name="Trazado 896356" d="M132.764,145.972c2.162,5.062,2.309,10.677,5.277,15.245-.423-.948-.347-1.134.586-.586-2.15-3.667-3.85-10.8-5.277-15.245.078.621.046.823-.586.586" transform="translate(191.598 209.814)" fill="#cc3a3f"/>
        <path id="Trazado_896357" data-name="Trazado 896357" d="M133.35,145.386l-.586.586c.633.237.665.034.586-.586" transform="translate(191.598 209.814)" fill="#cc3a3f"/>
        <path id="Trazado_896358" data-name="Trazado 896358" d="M135.069,152.392l.586-.586c-.933-.547-1.009-.362-.586.586" transform="translate(194.57 218.639)" fill="#cc3a3f"/>
        <path id="Trazado_896359" data-name="Trazado 896359" d="M154.607,189.066c.8,3.892,4.219,7.828,8.2,8.79Z" transform="translate(223.121 272.85)" fill="#cc3a3f"/>
        <path id="Trazado_896360" data-name="Trazado 896360" d="M196.815,76.553c.051-.574-2.868-5.421-4.024-4.117l2.927,4.4L188.684,74.5c.513,2.231,7.906,4.581,8.131,2.057" transform="translate(272.299 104.216)" fill="#cc3a3f"/>
        <path id="Trazado_896361" data-name="Trazado 896361" d="M186.047,73.386c1.827,5.531,13.305,9.34,6.147.589l1.466,4.686c-.855.892-6.6-4.605-7.613-5.275" transform="translate(268.494 105.907)" fill="#cc3a3f"/>
        <path id="Trazado_896362" data-name="Trazado 896362" d="M23.581,80.083c-.7-.068-.469-1.879-1.454-1.744l0,1.451c3.276,2.827,6.787-3.157,8.8-4.669,1.593-1.2,4.195-.833,5.267-2.643-3.755-1.014-10.945,7.767-12.614,7.606" transform="translate(31.933 104.478)" fill="#cc3a3f"/>
        <path id="Trazado_896363" data-name="Trazado 896363" d="M182.087,77.456l3.521-10.55c-2.128,1.825-3.318,6.032-3.841,8.766-.115.6-.77,1.923.32,1.783" transform="translate(261.884 96.555)" fill="#cc3a3f"/>
        <path id="Trazado_896364" data-name="Trazado 896364" d="M.087,103.626c-.149,5.052-.024,10.188,0,15.245a78.868,78.868,0,0,0,0-15.245" transform="translate(0.021 149.548)" fill="#cc3a3f"/>
        <path id="Trazado_896365" data-name="Trazado 896365" d="M.641,106.843c-.01-.992.374-2.607-.6-3.218a79.063,79.063,0,0,1,0,15.245c1.038-3.618.633-8.192.6-12.028" transform="translate(0.065 149.546)" fill="#cc3a3f"/>
        <path id="Trazado_896366" data-name="Trazado 896366" d="M36.381,72.271c-.213-.244-3.161-1.383-3.511-2.656l-2.343-4.388a8.82,8.82,0,0,0,5.568,8.2c.5.078.342-1.085.286-1.156" transform="translate(44.055 94.132)" fill="#cc3a3f"/>
        <path id="Trazado_896367" data-name="Trazado 896367" d="M91.937,199.626a83,83,0,0,1-1.173,8.8c.792-.264,1.046.572.762,2.5a101.2,101.2,0,0,0,1-10.119q-.528.29-.586-1.173" transform="translate(130.986 288.09)" fill="#cc3a3f"/>
        <path id="Trazado_896368" data-name="Trazado 896368" d="M90.764,203.254c1.036.66.5,2.414.586,3.518.073-.371.132-.706.176-1.021.283-1.925.029-2.761-.762-2.5" transform="translate(130.986 293.257)" fill="#cc3a3f"/>
        <path id="Trazado_896369" data-name="Trazado 896369" d="M91.83,200.8l-.586-1.173q.059,1.462.586,1.173" transform="translate(131.679 288.09)" fill="#cc3a3f"/>
        <path id="Trazado_896370" data-name="Trazado 896370" d="M182.634,68.374c-1.033,1.493-2.932,2.455-3.789,4.119,3.166-.049,5.421-4.168,5.27-7.026-.989.266-.74,1.837-1.481,2.907" transform="translate(258.1 94.479)" fill="#cc3a3f"/>
        <path id="Trazado_896371" data-name="Trazado 896371" d="M23.072,69.759a2.28,2.28,0,0,0,1.173-1.173q-8.172,2.65-1.173,1.173" transform="translate(28.635 98.98)" fill="#cc3a3f"/>
        <path id="Trazado_896372" data-name="Trazado 896372" d="M19.575,72.1c1.258-1.285,2.954-1.652,4.4-2.341q-7,1.473,1.17-1.173c-2.17.621-7.329-.059-5.573,3.513" transform="translate(27.732 98.98)" fill="#cc3a3f"/>
        <path id="Trazado_896373" data-name="Trazado 896373" d="M192.36,75.668a9.8,9.8,0,0,0-7.036-4.679Z" transform="translate(267.45 102.448)" fill="#cc3a3f"/>
        <path id="Trazado_896374" data-name="Trazado 896374" d="M190.44,59.648c-.8-3.254-5.526,1.527-7.036,2.345.928-.45,1.138-.342.586.586,1.422-.911,2.946-2.336,4.3-3.044,1.449-.76.66-.313,1.564.7-.454-.987-.344-1.236.586-.586" transform="translate(264.679 84.463)" fill="#cc3a3f"/>
        <path id="Trazado_896375" data-name="Trazado 896375" d="M186.784,59.2c-.931-.65-1.041-.4-.586.586.083-.237.376-.437.586-.586" transform="translate(268.336 84.913)" fill="#cc3a3f"/>
        <path id="Trazado_896376" data-name="Trazado 896376" d="M183.4,60.1l.586.586c.552-.928.342-1.036-.586-.586" transform="translate(264.679 86.359)" fill="#cc3a3f"/>
        <path id="Trazado_896377" data-name="Trazado 896377" d="M28.607,67.146l2.92,7.62c-.193-2.458-.875-6.093-2.92-7.62" transform="translate(41.284 96.902)" fill="#cc3a3f"/>
        <path id="Trazado_896378" data-name="Trazado 896378" d="M152.684,187.012c1.038,1.388,2.03,3.181,3.513,4.1-.183-1.835-2.047-3.262-2.927-4.691.5.889.335,1.146-.586.586" transform="translate(220.346 269.04)" fill="#cc3a3f"/>
        <path id="Trazado_896379" data-name="Trazado 896379" d="M153.27,186.426l-.586.586c.921.559,1.09.3.586-.586" transform="translate(220.346 269.04)" fill="#cc3a3f"/>
        <path id="Trazado_896380" data-name="Trazado 896380" d="M19.776,47.466c-.943,1.605-1.862,2.668-2.932,4.691,1.168-1.522,2.653-2.9,3.518-4.691-.176.323-.371.315-.586,0" transform="translate(24.308 68.501)" fill="#cc3a3f"/>
        <path id="Trazado_896381" data-name="Trazado 896381" d="M18.63,47.466h-.586c.215.315.41.323.586,0" transform="translate(26.04 68.501)" fill="#cc3a3f"/>
        <path id="Trazado_896382" data-name="Trazado 896382" d="M18.573,49.386c-.989,1.292-2.932,2.68-2.927,4.691,1.808-.882,2.182-3.284,2.927-4.691" transform="translate(22.58 71.271)" fill="#cc3a3f"/>
        <path id="Trazado_896383" data-name="Trazado 896383" d="M105.03,89.088a14.439,14.439,0,0,0,.581-5.861L104.444,88.5q.612-.861.586.586" transform="translate(150.728 120.109)" fill="#cc3a3f"/>
        <path id="Trazado_896384" data-name="Trazado 896384" d="M104.444,85.576l.586.586q.026-1.448-.586-.586" transform="translate(150.728 123.035)" fill="#cc3a3f"/>
        <path id="Trazado_896385" data-name="Trazado 896385" d="M59.268,187.146c-.789,1.229-2.411,2.375-2.341,4.1a14.378,14.378,0,0,0,2.927-3.518c-.823.777-1.126.45-.586-.586" transform="translate(82.151 270.08)" fill="#cc3a3f"/>
        <path id="Trazado_896386" data-name="Trazado 896386" d="M58.631,187.732l-.586-.586c-.54,1.036-.237,1.363.586.586" transform="translate(83.375 270.08)" fill="#cc3a3f"/>
        <path id="Trazado_896387" data-name="Trazado 896387" d="M107.851,87.915l-1.168-4.688c-.4,2.062.2,3.547.581,5.275-.022-.542,0-.767.586-.586" transform="translate(153.771 120.109)" fill="#cc3a3f"/>
        <path id="Trazado_896388" data-name="Trazado 896388" d="M106.847,85.769l.586-.586c-.584-.181-.608.044-.586.586" transform="translate(154.189 122.842)" fill="#cc3a3f"/>
        <path id="Trazado_896389" data-name="Trazado 896389" d="M27.127,66.667c-1.4.41-1.114,2.983-1.16,4.1,1.681-.613,1.121-2.734,1.16-4.1" transform="translate(37.474 96.21)" fill="#cc3a3f"/>
        <path id="Trazado_896390" data-name="Trazado 896390" d="M187.775,73.952l-4.095-1.766c-.618,1.434,3.9,3.125,4.095,1.766" transform="translate(264.994 104.175)" fill="#cc3a3f"/>
        <path id="Trazado_896391" data-name="Trazado 896391" d="M19.728,44.5c-.012.679.02,1.361,0,2.038.3-.555,1.268-1.659,1.759-2.345a1.51,1.51,0,0,0-1.757.308" transform="translate(28.466 63.561)" fill="#cc3a3f"/>
        <path id="Trazado_896392" data-name="Trazado 896392" d="M19.993,46.27c.022-.677-.007-1.358,0-2.038a1.369,1.369,0,0,0,0,2.038" transform="translate(28.196 63.833)" fill="#cc3a3f"/>
        <path id="Trazado_896393" data-name="Trazado 896393" d="M26.2,40.242c.359-.105.723-.193,1.085-.288l-1.095.23c0,.017.01.039.01.059" transform="translate(37.792 57.66)" fill="#cc3a3f"/>
        <path id="Trazado_896394" data-name="Trazado 896394" d="M26.54,40.85a8.424,8.424,0,0,0,1.82,1.5,18.724,18.724,0,0,1,1.881-.271,6.658,6.658,0,0,1-3.7-1.234" transform="translate(38.301 58.953)" fill="#cc3a3f"/>
        <path id="Trazado_896395" data-name="Trazado 896395" d="M34.01,39.362l.073-.3c-.178-.012-.4-.015-.672-.007l-4.254.894c1.615-.252,3.235-.459,4.852-.591" transform="translate(42.079 56.363)" fill="#cc3a3f"/>
        <path id="Trazado_896396" data-name="Trazado 896396" d="M29.471,41.319a14.741,14.741,0,0,1,3.159.388,5.791,5.791,0,0,0-3.159-.388" transform="translate(42.531 59.6)" fill="#cc3a3f"/>
        <path id="Trazado_896397" data-name="Trazado 896397" d="M28.124,37.866c.513.166.506.362,0,.586a18.931,18.931,0,0,1,3.066.43c-1.024-.325-2.047-.657-3.066-1.016" transform="translate(40.587 54.646)" fill="#cc3a3f"/>
        <path id="Trazado_896398" data-name="Trazado 896398" d="M31.33,39l-.239.051.213.064Z" transform="translate(44.869 56.277)" fill="#cc3a3f"/>
        <path id="Trazado_896399" data-name="Trazado 896399" d="M28.124,37.866v.586c.506-.225.513-.42,0-.586" transform="translate(40.587 54.646)" fill="#cc3a3f"/>
        <path id="Trazado_896400" data-name="Trazado 896400" d="M35.612,40.281l.1-.41c-1.517-.406-3.022-.858-4.52-1.334a18.634,18.634,0,0,0-3.069-.43l7.249,2.226.239-.051" transform="translate(40.587 54.992)" fill="#cc3a3f"/>
        <path id="Trazado_896401" data-name="Trazado 896401" d="M30.695,42.892a28.215,28.215,0,0,1,3.462-.115,5.855,5.855,0,0,1,3.159.384l-8.637,3.086L28.2,47.871c2.331,2.7,6.176,1.808,9.123.862l-8.214-.887c-.972-1.327,9.423-4.078,10.4-4.542l6.6-.721c-1.906.112-3.633-.608-5.541-.621C35.8,41.922,29.7,44.4,26.224,40.29a3.207,3.207,0,0,0,.77,1.371,6.637,6.637,0,0,0,3.7,1.231" transform="translate(37.845 58.144)" fill="#cc3a3f"/>
        <path id="Trazado_896402" data-name="Trazado 896402" d="M38.9,40.522l-.5.105-.029.115.161.049c-.044,0-.117,0-.171-.01l-.073.3c-1.617.129-3.237.337-4.852.589q-3.038.641-6.162,1.3c-.362.1-.726.186-1.085.291a2.119,2.119,0,0,0,.071.472,84.279,84.279,0,0,1,11.471-2.27c1.7-.188,4.334-.647,5.815-.684,1.251-.029,2.316.511,3.5.606.64.054,2.187.425,2.038-.577-5.966-1.8-12.2-1.339-18.175-2.937,1.016.359,2.042.689,3.066,1.016,2.3.452,4.967,1.165,4.918,1.639" transform="translate(37.797 54.646)" fill="#cc3a3f"/>
        <path id="Trazado_896403" data-name="Trazado 896403" d="M26,40.2a4.058,4.058,0,0,0,1.312,1.776,3.154,3.154,0,0,1-.77-1.371c-.017-.017-.034-.032-.049-.049l.039-.01a2.252,2.252,0,0,1-.073-.472c-.151.046-.308.078-.459.125" transform="translate(37.526 57.83)" fill="#cc3a3f"/>
        <path id="Trazado_896404" data-name="Trazado 896404" d="M30.817,41.446a13.839,13.839,0,0,1-1.652-.022,18.935,18.935,0,0,0-1.881.271h8.5a14.741,14.741,0,0,0-3.159-.388c-.54.024-1.141.071-1.81.139" transform="translate(39.375 59.612)" fill="#cc3a3f"/>
        <path id="Trazado_896405" data-name="Trazado 896405" d="M26.461,41.661c.151-.046.308-.078.459-.125,0-.02-.01-.039-.007-.061.369-.076.726-.151,1.095-.23a58.711,58.711,0,0,1,6.162-1.295q2.148-.454,4.254-.894c-3.169.1-12.045,1.564-12.641,2.375-.767,1.041,3.33,3.511,3.809,3.511a8.463,8.463,0,0,1-1.818-1.5,4.058,4.058,0,0,1-1.312-1.776" transform="translate(37.069 56.365)" fill="#cc3a3f"/>
        <path id="Trazado_896406" data-name="Trazado 896406" d="M29.38,38.282c1.5.476,3,.928,4.52,1.334l-.1.41.5-.105c.049-.474-2.621-1.185-4.918-1.639" transform="translate(42.4 55.247)" fill="#cc3a3f"/>
        <path id="Trazado_896407" data-name="Trazado 896407" d="M32.8,39.423a58.235,58.235,0,0,0-6.162,1.3q3.122-.66,6.162-1.3" transform="translate(38.438 56.893)" fill="#cc3a3f"/>
        <path id="Trazado_896408" data-name="Trazado 896408" d="M31.516,41.314a27.727,27.727,0,0,0-3.462.117,13.839,13.839,0,0,0,1.652.022c.669-.068,1.27-.115,1.81-.139" transform="translate(40.486 59.605)" fill="#cc3a3f"/>
        <path id="Trazado_896409" data-name="Trazado 896409" d="M187.108,43.607a12.794,12.794,0,0,1-5.214.572c2.13.227,4.214.164,5.214-.572" transform="translate(262.5 62.931)" fill="#cc3a3f"/>
        <path id="Trazado_896410" data-name="Trazado 896410" d="M180.885,43.923a1.959,1.959,0,0,1-.975-.777.777.777,0,0,1-.586.586l.464-.193a9.02,9.02,0,0,0,1.1.384" transform="translate(258.791 62.266)" fill="#cc3a3f"/>
        <path id="Trazado_896411" data-name="Trazado 896411" d="M184.225,42.871c.022.024.029.049.049.073,0-.022,0-.037-.007-.059l-.042-.015" transform="translate(265.864 61.869)" fill="#cc3a3f"/>
        <path id="Trazado_896412" data-name="Trazado 896412" d="M183.374,41.882a10.931,10.931,0,0,0,3.97-.96,14.777,14.777,0,0,1-3.97.96" transform="translate(264.636 59.057)" fill="#cc3a3f"/>
        <path id="Trazado_896413" data-name="Trazado 896413" d="M183.364,39.955l-1.038-.186c-.579.01-.819-.325-.784-.943a3.516,3.516,0,0,1-1.722.7c1.014.1,2.238.247,3.545.425" transform="translate(259.506 56.032)" fill="#cc3a3f"/>
        <path id="Trazado_896414" data-name="Trazado 896414" d="M181.2,41.984l3.555,1.307c-1.026-.462-1.969-.989-2.915-1.517l-.572-.225c.046,0,.093,0,.137,0-.083-.049-.178-.088-.259-.137-.435.261-.423.452.054.572" transform="translate(260.959 59.764)" fill="#cc3a3f"/>
        <path id="Trazado_896415" data-name="Trazado 896415" d="M181.3,41.309c-.1.044-.159.081-.242.122.335.017.728.029,1.151.039a4.248,4.248,0,0,1-.909-.161" transform="translate(261.298 59.615)" fill="#cc3a3f"/>
        <path id="Trazado_896416" data-name="Trazado 896416" d="M184.877,39.935c.332.086.628.171.867.252-.024-.037-.029-.068-.054-.105Z" transform="translate(266.805 57.632)" fill="#cc3a3f"/>
        <path id="Trazado_896417" data-name="Trazado 896417" d="M181.226,39.53a3.516,3.516,0,0,0,1.722-.7c-1.358.188-2.749.447-4.1.586a15.593,15.593,0,0,1,2.382.117" transform="translate(258.099 56.032)" fill="#cc3a3f"/>
        <path id="Trazado_896418" data-name="Trazado 896418" d="M186.335,40.446c-.039-.12-.318-.259-.765-.408A1.347,1.347,0,0,1,185,42.2c.992-.445,1.581-1.019,1.336-1.752" transform="translate(266.981 57.781)" fill="#cc3a3f"/>
        <path id="Trazado_896419" data-name="Trazado 896419" d="M177.406,44.348l6.013.721c1.18.2,10.027,2.986,10.4,3.386,1.109,1.2-1.989,1.7-2.631,1.754-4.087.359-5.209-.469-8.507-1.175a1.94,1.94,0,0,0,.972.777,28.1,28.1,0,0,0,4.723.919,12.793,12.793,0,0,0,5.211-.569,1.482,1.482,0,0,0,.528-1.727c-.02-.024-.027-.046-.049-.071a45.019,45.019,0,0,1-4.378-1.686l-3.555-1.307c-.474-.12-.489-.313-.056-.572-.1-.059-.213-.105-.31-.164.166.012.362.024.572.034.081-.042.137-.078.242-.122a4.068,4.068,0,0,0,.911.159,39.017,39.017,0,0,0,4.5-.147,14.87,14.87,0,0,0,3.973-.958,1.348,1.348,0,0,0,.569-2.16c-.239-.083-.535-.166-.865-.252l-8.815-1.583c-1.31-.178-2.534-.325-3.547-.423a7.09,7.09,0,0,1-2.38-.117L196.751,42c-4.913,5.184-13.056.1-19.345,2.345" transform="translate(256.023 56.378)" fill="#cc3a3f"/>
        <path id="Trazado_896420" data-name="Trazado 896420" d="M184.558,42.9a1.475,1.475,0,0,1-.53,1.725c.838-.379,1.129-.948.53-1.725" transform="translate(265.58 61.913)" fill="#cc3a3f"/>
        <path id="Trazado_896421" data-name="Trazado 896421" d="M190.082,40.869c-2.04-.53-5.641-1.146-8.812-1.581Z" transform="translate(261.6 56.698)" fill="#cc3a3f"/>
        <path id="Trazado_896422" data-name="Trazado 896422" d="M180.827,41.346c.1.059.213.105.313.164a2.78,2.78,0,0,1,.257-.129c-.208-.012-.4-.022-.569-.034" transform="translate(260.96 59.668)" fill="#cc3a3f"/>
        <path id="Trazado_896423" data-name="Trazado 896423" d="M179.963,43.464a14.133,14.133,0,0,0,4.72.919,28.121,28.121,0,0,1-4.72-.919" transform="translate(259.713 62.725)" fill="#cc3a3f"/>
        <path id="Trazado_896424" data-name="Trazado 896424" d="M186.031,41.315a39.637,39.637,0,0,1-4.5.147,22.875,22.875,0,0,0,4.5-.147" transform="translate(261.979 59.624)" fill="#cc3a3f"/>
        <path id="Trazado_896425" data-name="Trazado 896425" d="M181.31,39.767l1.038.186a88.716,88.716,0,0,1,8.812,1.586l.814.142c.027.039.032.068.054.105.447.151.728.291.767.408.242.735-.345,1.31-1.336,1.757a11.026,11.026,0,0,1-3.97.955,22.886,22.886,0,0,1-4.5.147c-.423-.007-.816-.017-1.153-.037a2.775,2.775,0,0,0-.257.129c.083.049.176.086.259.134,2.507-.134,5.16.269,7.637-.144,1.441-.237,5.678-1.764,3.354-3.66-2.128-1.737-9.606-1.051-12.3-2.648-.034.616.205.95.784.941" transform="translate(260.521 56.032)" fill="#cc3a3f"/>
        <path id="Trazado_896426" data-name="Trazado 896426" d="M191.232,44.661c.032.034.037.064.066.1l.042.02c0,.017,0,.037.007.054.6.777.305,1.346-.53,1.725-1,.738-3.083.8-5.211.572a14.2,14.2,0,0,1-4.72-.919,8.618,8.618,0,0,1-1.1-.384l-.464.191c1.84,1.59,12.111,2.7,12.888.274a1.5,1.5,0,0,0-.577-1.737l-7.63-2.993c.943.528,1.886,1.053,2.912,1.517Z" transform="translate(258.791 59.979)" fill="#cc3a3f"/>
        <path id="Trazado_896427" data-name="Trazado 896427" d="M182.432,42.181a44.634,44.634,0,0,0,4.378,1.686c-.027-.034-.032-.064-.064-.1Z" transform="translate(263.277 60.873)" fill="#cc3a3f"/>
        <path id="Trazado_896428" data-name="Trazado 896428" d="M181.226,39.192a15.593,15.593,0,0,0-2.382-.117,7.1,7.1,0,0,0,2.382.117" transform="translate(258.099 56.369)" fill="#cc3a3f"/>
        <path id="Trazado_896429" data-name="Trazado 896429" d="M31,38.932v-.586q-5.153,7.08-10.554,14.073Q25.476,45.448,31,38.932" transform="translate(29.504 55.339)" fill="#cc3a3f"/>
        <path id="Trazado_896430" data-name="Trazado 896430" d="M24.764,38.346v.586a1.8,1.8,0,0,0,0-.586" transform="translate(35.738 55.339)" fill="#cc3a3f"/>
        <path id="Trazado_896431" data-name="Trazado 896431" d="M30.439,40.049A2.689,2.689,0,0,0,31,38.586Q25.476,45.1,20.444,52.072c2.932-4.107,7.261-7.779,9.995-12.023" transform="translate(29.504 55.685)" fill="#cc3a3f"/>
        <path id="Trazado_896432" data-name="Trazado 896432" d="M31,38.346c-3.75,4.371-7.923,8.9-10.554,14.073Q25.846,45.426,31,38.346" transform="translate(29.504 55.339)" fill="#cc3a3f"/>
        <path id="Trazado_896433" data-name="Trazado 896433" d="M39.884,32.826c1.805,2.868,3.694,5.653,5.71,8.341Z" transform="translate(57.559 47.373)" fill="#cc3a3f"/>
        <path id="Trazado_896434" data-name="Trazado 896434" d="M174.464,37.491l-129.949.051a2.077,2.077,0,0,1-.249.43,1.305,1.305,0,0,1,.144-.154c42.8.352,85.62-.459,128.417-.007.992.01,2.609-.376,3.218.6a.9.9,0,0,1-.305-.7,4.016,4.016,0,0,1-1.275-.217" transform="translate(63.882 54.105)" fill="#cc3a3f"/>
        <path id="Trazado_896435" data-name="Trazado 896435" d="M102.976,79.463c-10.945-5.1-19.631-12.985-31.057-18.2-5.766-2.631-18.026-5.583-21.043-10.62-1.991-3.328-2.756-8.023-5.15-11.268,26.479-.755,53.019-.01,79.517-.247a4.571,4.571,0,0,0,1.984-.63c-26.64-.6-53.415.8-80.047,0-.45-.012-1.737.181-1.4-.332-.689.743-1.722.129-2.629-.743.623.757,1.241,1.517,1.893,2.25l5.426,11.388A48.235,48.235,0,0,0,68.64,61.21c11.336,5.639,21.5,11.761,32.428,18.485q15.9,6.157,31.436,12.751l.586-.586c-9.841-4.552-20.417-7.879-30.114-12.4" transform="translate(62.273 54.011)" fill="#cc3a3f"/>
        <path id="Trazado_896436" data-name="Trazado 896436" d="M73.356,67.849A48.234,48.234,0,0,1,55.186,57.7L49.76,46.315c-.655-.733-1.27-1.493-1.893-2.25a13.177,13.177,0,0,1-1.307-1.485l-.965-1.412c-2.016-2.685-3.9-5.473-5.71-8.341,3.154,6.345,6.145,9.682,9.626,15.292,1.879,3.025,3.039,6.728,5.018,9.643,3.968,5.842,22.5,12.5,29.726,16.6,7.263,4.117,13.418,9.352,21.092,12.917,10.256,4.767,21.5,7.373,31.873,11.81q-15.538-6.6-31.436-12.751C94.853,79.61,84.692,73.49,73.356,67.849" transform="translate(57.56 47.373)" fill="#cc3a3f"/>
        <path id="Trazado_896437" data-name="Trazado 896437" d="M98.082,37.861a.9.9,0,0,0,.305.7c.738-.261.459-1.048.586-1.173-.125.325-.435.467-.892.476" transform="translate(141.542 53.952)" fill="#cc3a3f"/>
        <path id="Trazado_896438" data-name="Trazado 896438" d="M39.884,32.826l5.71,8.341q1.107,1.47,2.272,2.9c.906.872,1.942,1.488,2.631.743a1.1,1.1,0,0,1,.093-.1,2.015,2.015,0,0,0,.249-.43l129.949-.051a4.041,4.041,0,0,0,1.275.22c.029-.3.318-.5.892-.476L50.113,44c-4-.537-7.273-8.58-10.229-11.173" transform="translate(57.559 47.373)" fill="#cc3a3f"/>
        <path id="Trazado_896439" data-name="Trazado 896439" d="M44.494,39.137q-1.169-1.422-2.272-2.9l.967,1.412a12.7,12.7,0,0,0,1.3,1.485" transform="translate(60.933 52.298)" fill="#cc3a3f"/>
        <path id="Trazado_896440" data-name="Trazado 896440" d="M98.08,37.862c.457-.01.767-.151.892-.476-.574-.017-.862.178-.892.476" transform="translate(141.544 53.952)" fill="#cc3a3f"/>
        <path id="Trazado_896441" data-name="Trazado 896441" d="M32.777,36.459A73.151,73.151,0,0,1,43.844,38a50.6,50.6,0,0,0-11.067-1.542" transform="translate(47.302 52.616)" fill="#cc3a3f"/>
        <path id="Trazado_896442" data-name="Trazado 896442" d="M39.109,40.259a10.624,10.624,0,0,1,.5-8.153,9.828,9.828,0,0,0-.5,8.153" transform="translate(55.495 46.334)" fill="#cc3a3f"/>
        <path id="Trazado_896443" data-name="Trazado 896443" d="M39.852,37.278a.767.767,0,0,1-.313.784c.347.086.691.164,1.038.249-.269-.347-.489-.689-.726-1.033" transform="translate(57.061 53.798)" fill="#cc3a3f"/>
        <path id="Trazado_896444" data-name="Trazado 896444" d="M55.054,40.259c.088.244.171.489.279.735.042.11.09.22.134.33a17.627,17.627,0,0,0,1.876,3.122,1.617,1.617,0,0,1,.022.3c.237.344.457.687.723,1.033-.344-.086-.689-.166-1.036-.249a1.3,1.3,0,0,1-.853.132c-1.537-.55-3.069-.987-4.6-1.378A73.151,73.151,0,0,0,40.53,42.741,60.507,60.507,0,0,0,27.4,43.833c4.488.151,8.676-.855,13.215-.611,3.3.178,17.385,2.607,18.978,5.065.584.9.2,2.529,1.222,2.58.078-7.029-8.558-11.05-5.27-18.761a10.624,10.624,0,0,0-.5,8.153" transform="translate(39.55 46.334)" fill="#cc3a3f"/>
        <path id="Trazado_896445" data-name="Trazado 896445" d="M56.722,45c-4.219-.745-8.263-2.643-12.585-2.946-3.3-.232-14.1.4-16.733,1.779a45.183,45.183,0,0,1,13.127-1.092A50.6,50.6,0,0,1,51.6,44.283c1.815.381,3.633.8,5.456,1.246a.768.768,0,0,0,.31-.784,18.565,18.565,0,0,1-1.9-3.42c-.046-.11-.1-.22-.137-.33-.105-.247-.188-.491-.276-.735a9.837,9.837,0,0,1,.494-8.153C51.628,34.368,54.4,42.028,56.722,45" transform="translate(39.548 46.334)" fill="#cc3a3f"/>
        <path id="Trazado_896446" data-name="Trazado 896446" d="M38.891,35.878a18.3,18.3,0,0,0,1.9,3.423,1.864,1.864,0,0,0-.022-.3,17.584,17.584,0,0,1-1.876-3.125" transform="translate(56.126 51.777)" fill="#cc3a3f"/>
        <path id="Trazado_896447" data-name="Trazado 896447" d="M40.531,36.506A45.183,45.183,0,0,0,27.4,37.6a60.516,60.516,0,0,1,13.127-1.092" transform="translate(39.548 52.568)" fill="#cc3a3f"/>
        <path id="Trazado_896448" data-name="Trazado 896448" d="M42.763,38.335c-1.823-.445-3.64-.865-5.456-1.246,1.534.391,3.066.831,4.6,1.378a1.287,1.287,0,0,0,.853-.132" transform="translate(53.84 53.525)" fill="#cc3a3f"/>
        <path id="Trazado_896449" data-name="Trazado 896449" d="M79.724,60.292A99.671,99.671,0,0,1,106.11,74.951c-.779-1.014-.494-1.173.586-.586A198.921,198.921,0,0,0,80.31,59.706c.779.787.474.772-.586.586" transform="translate(115.054 86.165)" fill="#cc3a3f"/>
        <path id="Trazado_896450" data-name="Trazado 896450" d="M106.11,74.6A99.67,99.67,0,0,0,79.724,59.946,153.5,153.5,0,0,1,106.11,74.6" transform="translate(115.054 86.511)" fill="#cc3a3f"/>
        <path id="Trazado_896451" data-name="Trazado 896451" d="M90.785,66.493a.5.5,0,0,1,.586-.586c-1.08-.586-1.366-.428-.586.586" transform="translate(130.379 94.623)" fill="#cc3a3f"/>
        <path id="Trazado_896452" data-name="Trazado 896452" d="M80.31,59.706l-.586.586c1.06.186,1.366.2.586-.586" transform="translate(115.054 86.165)" fill="#cc3a3f"/>
        <path id="Trazado_896453" data-name="Trazado 896453" d="M45.038,46.083c.137-1.026-1.329-.547-2.042-.579a34.338,34.338,0,0,0-4.7,0c-2.023.227-7.63,2.9-8.8,1.18-.5-.745,1.244-1.385.884-1.754C29.5,44,27,47.282,30.091,47.842c4.935.9,9.65-3.061,14.947-1.759" transform="translate(41.262 64.599)" fill="#cc3a3f"/>
        <path id="Trazado_896454" data-name="Trazado 896454" d="M39.137,40.027,37.554,50.459l.408,1.874a39.735,39.735,0,0,0,1.175-12.306" transform="translate(54.196 57.765)" fill="#cc3a3f"/>
        <path id="Trazado_896455" data-name="Trazado 896455" d="M43.325,49.051l-1.945-4.2L40.4,40.268c-.012,2.871-.665,7.821,2.927,8.783" transform="translate(58.222 58.113)" fill="#cc3a3f"/>
        <path id="Trazado_896456" data-name="Trazado 896456" d="M31,45.043,39.211,43.3c-2.959-.173-6.022-.989-8.207,1.747" transform="translate(44.743 62.124)" fill="#cc3a3f"/>
        <path id="Trazado_896457" data-name="Trazado 896457" d="M39.546,45.646q-5.358-.528,0,.586c-.513-.166-.506-.362,0-.586" transform="translate(53.205 65.629)" fill="#cc3a3f"/>
        <path id="Trazado_896458" data-name="Trazado 896458" d="M41.43,45.961c-1.862-.545-3.848-1.107-5.868-.293,0,.74,5.206.7,5.868.88q-5.358-1.114,0-.586" transform="translate(51.321 65.315)" fill="#cc3a3f"/>
        <path id="Trazado_896459" data-name="Trazado 896459" d="M38.19,46.132v-.586c-.506.225-.513.42,0,.586" transform="translate(54.562 65.73)" fill="#cc3a3f"/>
        <path id="Trazado_896460" data-name="Trazado 896460" d="M38.279,39.377c-.865-.772-3.328,2.519-2.927,3.511Z" transform="translate(50.955 56.659)" fill="#cc3a3f"/>
        <path id="Trazado_896461" data-name="Trazado 896461" d="M122.2,66.83c.958-.413,1.134-.349.586.586a67.556,67.556,0,0,1,6.02-4.114c-2.2,1.182-4.407,2.372-6.606,3.528" transform="translate(176.359 91.354)" fill="#cc3a3f"/>
        <path id="Trazado_896462" data-name="Trazado 896462" d="M127.94,63.777c2.353-1.119,4.725-2.157,7.095-3.005l-.586-.586c-2.15,1.207-4.334,2.4-6.509,3.591" transform="translate(184.637 86.857)" fill="#cc3a3f"/>
        <path id="Trazado_896463" data-name="Trazado 896463" d="M122.2,64.889l.586.586c.547-.936.371-1-.586-.586" transform="translate(176.359 93.295)" fill="#cc3a3f"/>
        <path id="Trazado_896464" data-name="Trazado 896464" d="M135.872,63.431c-2.468,1.354-4.928,2.692-7.408,4.021a67.91,67.91,0,0,0-6.02,4.114,131.538,131.538,0,0,1,20.522-11.141c-2.37.848-4.742,1.886-7.095,3.005" transform="translate(176.705 87.204)" fill="#cc3a3f"/>
        <path id="Trazado_896465" data-name="Trazado 896465" d="M136.218,63.777c2.174-1.195,4.359-2.385,6.509-3.591A225.379,225.379,0,0,0,122.2,71.327c2.2-1.156,4.4-2.345,6.606-3.528a77.377,77.377,0,0,1,7.408-4.021" transform="translate(176.359 86.857)" fill="#cc3a3f"/>
        <path id="Trazado_896466" data-name="Trazado 896466" d="M132.316,61.656a77.377,77.377,0,0,0-7.408,4.021c2.48-1.329,4.94-2.668,7.408-4.021" transform="translate(180.261 88.979)" fill="#cc3a3f"/>
        <path id="Trazado_896467" data-name="Trazado 896467" d="M113.564,51.266c.166-.513.362-.506.586,0-.078-1.312-.225-2.668-.325-3.995a31.313,31.313,0,0,1-.261,3.995" transform="translate(163.89 68.219)" fill="#cc3a3f"/>
        <path id="Trazado_896468" data-name="Trazado 896468" d="M114.888,44.544c-.677-1.925-1.586-2.871-3.1-2.778,1.388-.007,2.394,1.092,3.1,2.778" transform="translate(161.322 60.265)" fill="#cc3a3f"/>
        <path id="Trazado_896469" data-name="Trazado 896469" d="M113.864,41.82a15.714,15.714,0,0,0-4.139,2.067l.586.586a8.8,8.8,0,0,1,3.552-2.653" transform="translate(158.35 60.352)" fill="#cc3a3f"/>
        <path id="Trazado_896470" data-name="Trazado 896470" d="M113.564,49.132h.586c-.225-.506-.42-.513-.586,0" transform="translate(163.89 70.353)" fill="#cc3a3f"/>
        <path id="Trazado_896471" data-name="Trazado 896471" d="M114.764,41.465c-1.781.1-3.653,2.025-5.04,2.939a15.757,15.757,0,0,1,4.141-2.067,3.077,3.077,0,0,1,.894-.142c1.517-.093,2.426.853,3.1,2.778,1.178,2.8,1.544,7.18,1.5,10.681.1,1.327.247,2.683.325,3.995.09-3.494.32-18.465-4.928-18.184" transform="translate(158.348 59.835)" fill="#cc3a3f"/>
        <path id="Trazado_896472" data-name="Trazado 896472" d="M118.449,48.192a26.7,26.7,0,0,0-.933-3.653c-.709-1.688-1.715-2.785-3.1-2.778a2.936,2.936,0,0,0-.9.142,8.8,8.8,0,0,0-3.552,2.653c1.605-1.121,3.411-2.871,5.451-2.255,3.237.977,3.459,13.838,3.345,16.914a31.382,31.382,0,0,0,.261-3.995c-.176-2.333-.327-4.649-.572-7.029" transform="translate(158.694 60.269)" fill="#cc3a3f"/>
        <path id="Trazado_896473" data-name="Trazado 896473" d="M114.56,53.58c.037-3.5-.327-7.882-1.5-10.681a26.8,26.8,0,0,1,.933,3.653c.244,2.38.4,4.7.572,7.029" transform="translate(163.155 61.91)" fill="#cc3a3f"/>
        <path id="Trazado_896474" data-name="Trazado 896474" d="M173.564,45.619c.6-.073.809-.029.586.586q3.745-1-.586-.586" transform="translate(250.479 65.657)" fill="#cc3a3f"/>
        <path id="Trazado_896475" data-name="Trazado 896475" d="M173.564,45.562l.586.586c.222-.616.017-.66-.586-.586" transform="translate(250.479 65.714)" fill="#cc3a3f"/>
        <path id="Trazado_896476" data-name="Trazado 896476" d="M179.425,45.354a13.347,13.347,0,0,0-5.861.581q4.332-.421.586.586c1.2-.349,4.388.22,5.275-1.168" transform="translate(250.479 65.34)" fill="#cc3a3f"/>
        <path id="Trazado_896477" data-name="Trazado 896477" d="M76.454,37.727c-.137,0,1.1.164,2.727.374q24.6-.531,49.254,0l.012-.024c-16.362-.359-34.781-.413-51.993-.349" transform="translate(110.32 54.412)" fill="#cc3a3f"/>
        <path id="Trazado_896478" data-name="Trazado 896478" d="M97.724,37.88a7.186,7.186,0,0,0,1.173,0c-.381-.01-.777-.015-1.161-.024l-.012.024" transform="translate(141.03 54.632)" fill="#cc3a3f"/>
        <path id="Trazado_896479" data-name="Trazado 896479" d="M172.917,37.705c-42.8-.452-85.62.362-128.419.007a1.26,1.26,0,0,0-.142.154c-.029.034-.076.073-.1.1-.337.513.95.32,1.4.332,26.633.8,53.407-.6,80.047,0-1.63-.208-2.866-.371-2.729-.371,17.212-.064,35.631-.01,51.993.347.083-.374.467-.371,1.163.024-.608-.97-2.226-.586-3.218-.6" transform="translate(63.795 54.211)" fill="#cc3a3f"/>
        <path id="Trazado_896480" data-name="Trazado 896480" d="M97.729,38.02c.384.007.779.015,1.161.024-.694-.4-1.077-.4-1.161-.024" transform="translate(141.038 54.468)" fill="#cc3a3f"/>
        <path id="Trazado_896481" data-name="Trazado 896481" d="M77.564,38.022c15.888-.151,33.667,1.114,49.254,0q-24.653-.528-49.254,0" transform="translate(111.936 54.49)" fill="#cc3a3f"/>
        <path id="Trazado_896482" data-name="Trazado 896482" d="M112.217,36.726l1.173-.586A41.321,41.321,0,0,0,107.59,35a15.586,15.586,0,0,1,4.627,1.727" transform="translate(155.268 50.509)" fill="#cc3a3f"/>
        <path id="Trazado_896483" data-name="Trazado 896483" d="M101.564,36.139q1.455-.271,1.173.586A15.649,15.649,0,0,1,107.364,35a41.66,41.66,0,0,0-5.8,1.139" transform="translate(146.572 50.51)" fill="#cc3a3f"/>
        <path id="Trazado_896484" data-name="Trazado 896484" d="M101.564,35.5l1.173.586q.282-.858-1.173-.586" transform="translate(146.572 51.144)" fill="#cc3a3f"/>
        <path id="Trazado_896485" data-name="Trazado 896485" d="M116.287,35.459a41.746,41.746,0,0,1,5.8,1.141,28.376,28.376,0,0,0-20.522,0,42.424,42.424,0,0,1,5.8-1.139,21.5,21.5,0,0,1,8.925,0" transform="translate(146.573 50.048)" fill="#cc3a3f"/>
        <path id="Trazado_896486" data-name="Trazado 896486" d="M120.221,36.891a15.586,15.586,0,0,0-4.627-1.727,35.751,35.751,0,0,0-8.922,0,15.649,15.649,0,0,0-4.627,1.725,23.909,23.909,0,0,1,18.177,0" transform="translate(147.265 50.344)" fill="#cc3a3f"/>
        <path id="Trazado_896487" data-name="Trazado 896487" d="M103.938,35.276a35.888,35.888,0,0,1,8.925,0,21.46,21.46,0,0,0-8.925,0" transform="translate(149.998 50.232)" fill="#cc3a3f"/>
        <path id="Trazado_896488" data-name="Trazado 896488" d="M130.6,62.564c.818-.244.99-.215.586.586,3.675-1.554,7.378-3.081,11.075-4.613-3.853,1.419-7.735,2.773-11.661,4.026" transform="translate(188.481 84.479)" fill="#cc3a3f"/>
        <path id="Trazado_896489" data-name="Trazado 896489" d="M169.912,40.213q3.2-3.925-.105-1.952h-.044a30.28,30.28,0,0,1-3.853,10.53,51.852,51.852,0,0,0,4-8.578" transform="translate(239.433 54.266)" fill="#cc3a3f"/>
        <path id="Trazado_896490" data-name="Trazado 896490" d="M109.484,36.052a14,14,0,0,1,3.689,1.17c-.87-.591-1.718-1.185-2.516-1.757q.942.967-1.173.586" transform="translate(158.002 51.183)" fill="#cc3a3f"/>
        <path id="Trazado_896491" data-name="Trazado 896491" d="M128.784,37.712q21.479.059,42.955.3l7.229.806c5.658.01,11.344-.012,17,0,3.709-.418,7.427-.662,11.151-.809q-39.6-.583-78.34-.3" transform="translate(185.855 54.28)" fill="#cc3a3f"/>
        <path id="Trazado_896492" data-name="Trazado 896492" d="M115.62,40.544l-.462-1.92c-.818-.413-1.637-.867-2.46-1.349a14.508,14.508,0,0,1,2.922,3.269" transform="translate(162.64 53.793)" fill="#cc3a3f"/>
        <path id="Trazado_896493" data-name="Trazado 896493" d="M149.394,56.423l5.722-3.208c-4.207,2.145-8.48,4.139-12.785,6.061,2.358-.95,4.7-1.913,7.063-2.854" transform="translate(205.405 76.797)" fill="#cc3a3f"/>
        <path id="Trazado_896494" data-name="Trazado 896494" d="M147.9,56.109c2.385-1.852,4.815-3.538,7.283-5.123-2.534,1.62-5.023,3.345-7.454,5.219Z" transform="translate(213.195 73.58)" fill="#cc3a3f"/>
        <path id="Trazado_896495" data-name="Trazado 896495" d="M169.571,45.681c.151-.073.286-.147.435-.225-4.693,1.911-9.272,3.885-13.726,6.044,4.324-2.079,8.756-3.98,13.291-5.82" transform="translate(225.535 65.6)" fill="#cc3a3f"/>
        <path id="Trazado_896496" data-name="Trazado 896496" d="M116.646,45.1c.818.481,1.642.936,2.46,1.349L119,46.006q18.474-.026,36.943.017,38.71-.3,78.34.3a154.511,154.511,0,0,1,16.232.181l-.012.056h.042q3.306-1.968.105,1.955a51.711,51.711,0,0,1-4,8.575,20.128,20.128,0,0,1-3.142,3.9c-.046.073-.083.151-.132.225-.066.034-.134.064-.2.1a16.809,16.809,0,0,1-5.986,3.633c-.115.046-.227.1-.342.142-.149.076-.283.149-.435.225-4.535,1.84-8.966,3.736-13.291,5.82A130.671,130.671,0,0,0,209.684,78.6c-2.465,1.586-4.9,3.274-7.283,5.126l-.171.1c-.042.032-.083.059-.122.09-.093.046-.188.088-.281.134L196.1,87.251c-2.365.941-4.705,1.9-7.063,2.854-5.585,2.492-11.241,4.823-16.99,6.943-3.7,1.532-7.4,3.059-11.075,4.613,11.737-5.2,25.394-8.272,36.752-13.967C204.66,84.219,210.715,79,217.46,75.175c8.28-4.693,24.551-9.54,29.372-16.951,1.705-2.624,2.719-5.934,4.332-8.568,1.762-2.88,4.349-5.531,6.223-8.436.909-1.407,4.063-8.451,4.454-8.746.691-.528,1.591.679,1.889,1.322,2.563,5.485-5.751,11.639-6,16.85,1.7.244,1.077-1.463,2.3-2.678,1.9-1.879,14.16-4.148,17.317-4.378,4.131-.3,7.806.408,11.732.633.643.037,2.223.376,2.067-.6-10.327-1.561-19.367-1.666-29.315,1.747,2.937-1.908,5.2-13.508.887-13.513-1.319,0-5.475,7.647-7.036,9.421-1.3,1.481-3.354,3.875-5.253,4.129-40.085.139-80.174-.281-120.257-.059-2.135.012-5.348.767-7.586.591-5.587-.437-7.566-3.4-12.621-5.255.8.574,1.647,1.165,2.516,1.757a18.4,18.4,0,0,1,4.166,2.663" transform="translate(158.694 45.969)" fill="#cc3a3f"/>
        <path id="Trazado_896497" data-name="Trazado 896497" d="M159.255,72.5c4.3-1.92,8.578-3.916,12.785-6.059l.4-.227c2.431-1.874,4.921-3.6,7.454-5.219a125.293,125.293,0,0,1,13.437-7.466c4.451-2.157,9.03-4.134,13.726-6.044a35.018,35.018,0,0,0,5.644-3.44c-8.6,4.3-17.945,6.914-26.408,11.561-5.739,3.152-10.657,7.515-16.225,10.747-11.883,6.9-26.792,11.141-39.467,17.119,3.926-1.253,7.808-2.607,11.661-4.029q8.458-3.507,16.99-6.943" transform="translate(188.481 63.568)" fill="#cc3a3f"/>
        <path id="Trazado_896498" data-name="Trazado 896498" d="M183.656,38.012c-5.434-.105-10.813-.156-16.22-.237-3.723.147-7.442.393-11.15.809,8.981.017,17.986-.015,26.967,0a85.544,85.544,0,0,1-6.367,13.472,17.212,17.212,0,0,0,2.915-3.518,30.219,30.219,0,0,0,3.855-10.53" transform="translate(225.543 54.515)" fill="#cc3a3f"/>
        <path id="Trazado_896499" data-name="Trazado 896499" d="M156.635,40.463q-18.467.147-36.747.474c-.029-.015-.059-.034-.09-.049l.459,1.92a14.384,14.384,0,0,0-2.92-3.269c-1.422-.836-2.824-1.747-4.166-2.663a13.89,13.89,0,0,0-3.687-1.17c15.6,6.047,16.562,24.016,15.856,38.431-.406,8.26-3.819,21.062-.545,28.641.643,1.49,3.027,5.512,4.62,4.759a12.709,12.709,0,0,1-3.635-5.16c-2.7-7.5,1.424-21.588,1.874-30.031.584-10.967-.533-22.56-7.615-31.358,28.929-.017,57.846.528,86.781.581l-7.229-.806q-21.479-.271-42.955-.3" transform="translate(158.003 51.529)" fill="#cc3a3f"/>
        <path id="Trazado_896500" data-name="Trazado 896500" d="M152.367,55.695q-8.531,3.434-16.99,6.943c5.749-2.118,11.4-4.451,16.99-6.943" transform="translate(195.369 80.376)" fill="#cc3a3f"/>
        <path id="Trazado_896501" data-name="Trazado 896501" d="M164.216,47.931a125.225,125.225,0,0,0-13.435,7.464,130.635,130.635,0,0,1,13.435-7.464" transform="translate(217.599 69.172)" fill="#cc3a3f"/>
        <path id="Trazado_896502" data-name="Trazado 896502" d="M162.24,47.544a16.81,16.81,0,0,0,5.986-3.633c-.225.117-.457.22-.684.332a34.837,34.837,0,0,1-5.644,3.442c.115-.046.227-.1.342-.142" transform="translate(233.643 63.37)" fill="#cc3a3f"/>
        <path id="Trazado_896503" data-name="Trazado 896503" d="M150.606,37.669q-18.47-.048-36.943-.017l.105.442c.032.015.061.034.09.049q18.265-.348,36.747-.474" transform="translate(164.033 54.323)" fill="#cc3a3f"/>
        <path id="Trazado_896504" data-name="Trazado 896504" d="M177.081,38.031a155.165,155.165,0,0,0-16.232-.178c5.407.081,10.787.132,16.22.237l.012-.059" transform="translate(232.129 54.438)" fill="#cc3a3f"/>
        <path id="Trazado_896505" data-name="Trazado 896505" d="M167.766,42.182a17.21,17.21,0,0,1-2.915,3.516c-.078.129-.147.261-.227.388a20.222,20.222,0,0,0,3.142-3.9" transform="translate(237.577 60.875)" fill="#cc3a3f"/>
        <path id="Trazado_896506" data-name="Trazado 896506" d="M147.845,53.212c.039-.032.081-.059.122-.09l-.4.227c.093-.049.188-.09.281-.137" transform="translate(212.957 76.663)" fill="#cc3a3f"/>
        <path id="Trazado_896507" data-name="Trazado 896507" d="M110.994,36.185c1.341.916,2.744,1.827,4.166,2.663a18.4,18.4,0,0,0-4.166-2.663" transform="translate(160.181 52.22)" fill="#cc3a3f"/>
        <path id="Trazado_896508" data-name="Trazado 896508" d="M130.6,60.266l.586.586c.4-.8.232-.831-.586-.586" transform="translate(188.481 86.778)" fill="#cc3a3f"/>
        <path id="Trazado_896509" data-name="Trazado 896509" d="M110.657,35.466l-1.173.586q2.115.381,1.173-.586" transform="translate(158.002 51.183)" fill="#cc3a3f"/>
        <path id="Trazado_896510" data-name="Trazado 896510" d="M174.507,39.794c-.775-.151-.938,1.075-1.021,1.608-.591,3.689.515,7.1,1.029,10.7,1.664-.462.027-3.225-.007-3.809-.161-2.817.115-5.688,0-8.5" transform="translate(250.122 57.41)" fill="#cc3a3f"/>
        <path id="Trazado_896511" data-name="Trazado 896511" d="M171.819,44.868,170.207,49.4c3.142-2.006,3.306-6.064,2.333-9.377Z" transform="translate(245.634 57.766)" fill="#cc3a3f"/>
        <path id="Trazado_896512" data-name="Trazado 896512" d="M187.887,47.118c-3.047.01-5.927-1.632-8.8-2.052v.586c2.257.349,5.622,3.2,8.8,1.466" transform="translate(258.445 65.037)" fill="#cc3a3f"/>
        <path id="Trazado_896513" data-name="Trazado 896513" d="M183.24,45.717c-.511-.166-.5-.362,0-.586-2.284-.335-4.71.225-7.036,0,1.459,2.541,4.7.22,7.036.581" transform="translate(254.289 64.972)" fill="#cc3a3f"/>
        <path id="Trazado_896514" data-name="Trazado 896514" d="M179.309,45.652v-.586c-.5.225-.511.42,0,.586" transform="translate(258.22 65.037)" fill="#cc3a3f"/>
        <path id="Trazado_896515" data-name="Trazado 896515" d="M179.417,43.572a.317.317,0,0,1-.064-.315c-.139.11-.129.215.064.315" transform="translate(258.698 62.426)" fill="#cc3a3f"/>
        <path id="Trazado_896516" data-name="Trazado 896516" d="M182.031,43.519c.059-.139.261-.235.65-.271-1.908-.41-3.374.049-5.275,0,.408,1,3.841.7,4.688.581-.193-.1-.2-.208-.063-.315" transform="translate(256.023 62.165)" fill="#cc3a3f"/>
        <path id="Trazado_896517" data-name="Trazado 896517" d="M179.959,43.146a2.031,2.031,0,0,0-.65.271.317.317,0,0,0,.064.315.773.773,0,0,0,.586-.586" transform="translate(258.743 62.266)" fill="#cc3a3f"/>
        <path id="Trazado_896518" data-name="Trazado 896518" d="M179.948,43.146c-.388.037-.591.132-.65.271a2.031,2.031,0,0,1,.65-.271" transform="translate(258.754 62.266)" fill="#cc3a3f"/>
        <path id="Trazado_896519" data-name="Trazado 896519" d="M108.717,46.55a36.206,36.206,0,0,1-8.832,2.238l1.173.586a59.641,59.641,0,0,0,7.659-2.824" transform="translate(144.149 67.179)" fill="#cc3a3f"/>
        <path id="Trazado_896520" data-name="Trazado 896520" d="M114.008,43.252c-.9.489-1.143.337-.586-.586a54.458,54.458,0,0,1-6.259,4.83c2.287-1.349,4.554-2.771,6.846-4.244" transform="translate(154.651 61.573)" fill="#cc3a3f"/>
        <path id="Trazado_896521" data-name="Trazado 896521" d="M117.668,47.5a54.4,54.4,0,0,0,6.259-4.83c-10.447,6.877-11.656,8.119-24.043,11.727a36.113,36.113,0,0,0,8.834-2.238,86.354,86.354,0,0,0,8.949-4.659" transform="translate(144.148 61.573)" fill="#cc3a3f"/>
        <path id="Trazado_896522" data-name="Trazado 896522" d="M108.024,51.809a59.641,59.641,0,0,1-7.659,2.824c13.53-3.506,12.58-4.136,23.454-11.727-2.294,1.473-4.559,2.9-6.846,4.244a46.009,46.009,0,0,1-8.949,4.659" transform="translate(144.842 61.92)" fill="#cc3a3f"/>
        <path id="Trazado_896523" data-name="Trazado 896523" d="M103.5,49.3a46.008,46.008,0,0,0,8.949-4.659A87.313,87.313,0,0,1,103.5,49.3" transform="translate(149.366 64.427)" fill="#cc3a3f"/>
        <path id="Trazado_896524" data-name="Trazado 896524" d="M110.486,43.252l-.586-.586c-.557.924-.313,1.075.586.586" transform="translate(158.173 61.573)" fill="#cc3a3f"/>
        <path id="Trazado_896525" data-name="Trazado 896525" d="M102.316,48.018a.407.407,0,0,1-.239-.552,25.182,25.182,0,0,0-3.711,1.644,15.166,15.166,0,0,1,3.951-1.092" transform="translate(141.955 68.501)" fill="#cc3a3f"/>
        <path id="Trazado_896526" data-name="Trazado 896526" d="M98.1,50.024c.068-.247.65-.584,1.417-.911a25.14,25.14,0,0,1,3.711-1.647c-1.368.4-5.419,1.236-5.634,2.609-.2,1.285.765,6.985,1.226,8.541a21.045,21.045,0,0,0,1.476,2.922c-.965-2.763-2.939-8.771-2.2-11.515" transform="translate(140.804 68.501)" fill="#cc3a3f"/>
        <path id="Trazado_896527" data-name="Trazado 896527" d="M98.272,49.869c.088-.354,4.989-1.911,5.888-2.143a1.905,1.905,0,0,1-.933-.034,15.167,15.167,0,0,0-3.951,1.092c-2.042,1.253-1.786,2.665-.784,7.281l1.564,5.148c-.745-3.745-2.013-7.461-1.783-11.344" transform="translate(141.044 68.827)" fill="#cc3a3f"/>
        <path id="Trazado_896528" data-name="Trazado 896528" d="M99.3,48.139c-.77.332-1.351.665-1.419.911-.743,2.744,1.231,8.756,2.2,11.517l-1.566-5.145c-1-4.618-1.258-6.03.789-7.283" transform="translate(141.022 69.472)" fill="#cc3a3f"/>
        <path id="Trazado_896529" data-name="Trazado 896529" d="M100.139,48.018a2.4,2.4,0,0,1,.933.034L99.9,47.466a.407.407,0,0,0,.239.552" transform="translate(144.132 68.501)" fill="#cc3a3f"/>
        <path id="Trazado_896530" data-name="Trazado 896530" d="M99.982,47.707a1.905,1.905,0,0,0,.933.034,2.4,2.4,0,0,0-.933-.034" transform="translate(144.289 68.811)" fill="#cc3a3f"/>
      </g>
    </g>
  </g>
</svg>
