<svg id="Grupo_1101439" data-name="Grupo 1101439" xmlns="http://www.w3.org/2000/svg" xmlns:xlink="http://www.w3.org/1999/xlink" width="85" height="85" viewBox="0 0 85 85">
  <defs>
    <clipPath id="clip-path">
      <rect id="Rectángulo_401646" data-name="Rectángulo 401646" width="85" height="85" fill="none"/>
    </clipPath>
  </defs>
  <g id="Grupo_1100196" data-name="Grupo 1100196" clip-path="url(#clip-path)">
    <path id="Trazado_887077" data-name="Trazado 887077" d="M85,42.5A42.5,42.5,0,1,1,42.5,0,42.5,42.5,0,0,1,85,42.5" fill="#ff494f"/>
    <path id="Trazado_887078" data-name="Trazado 887078" d="M94.173,89.666c2.921,2.909,5.731,5.708,8.54,8.507.889.886,1.793,1.758,2.659,2.667a8.7,8.7,0,0,1-.054,12.427c-.3.315-.561.678-.9,1.1l-17.4-17.389L69.771,114.215a8.71,8.71,0,0,1-1.133-13.453c3.373-3.439,6.805-6.821,10.22-10.219a9.126,9.126,0,0,1,1-.741c-1.355-1.339-2.507-2.527-3.729-3.636-.214-.194-.748-.148-1.1-.064a11.4,11.4,0,1,1-5.279-22.171,11.284,11.284,0,0,1,13.768,9.461,20.527,20.527,0,0,1-.208,4.422,1.353,1.353,0,0,0,.354,1.346c1.072.987,2.083,2.041,3.122,3.064.042.041.121.045.32.114,1.118-1.134,2.3-2.29,3.418-3.51.181-.2.136-.695.058-1.02a11.387,11.387,0,0,1,21.5-7.284A11.369,11.369,0,0,1,99,86.081a1.53,1.53,0,0,0-1.674.487c-.975,1.035-2.025,2-3.151,3.1m9.791,20.4c.306-.557.4-.695.462-.844.968-2.249.423-4.576-1.567-6.566Q91.848,91.644,80.807,80.663a2.3,2.3,0,0,1-.7-2.912,7.721,7.721,0,0,0-1.948-8.605,7.9,7.9,0,0,0-8.444-2.011A8.3,8.3,0,1,0,75.493,82.69a1.541,1.541,0,0,1,1.987.412q12.85,12.914,25.75,25.779a6.738,6.738,0,0,1,.734,1.186M89.305,84.421l2.868,3c1.22-1.225,2.543-2.4,3.675-3.735A2.429,2.429,0,0,1,99.09,82.9a8.09,8.09,0,0,0,9.049-2.648,8.334,8.334,0,1,0-14.092-1.8,1.2,1.2,0,0,1-.3,1.574c-1.546,1.468-3.034,3-4.437,4.4m-7.4,7.546c-3.873,3.834-7.714,7.559-11.459,11.378a5.2,5.2,0,0,0-.745,6.192l14.813-14.8L81.9,91.967" transform="translate(-44.49 -46.503)" fill="#fff"/>
    <path id="Trazado_887079" data-name="Trazado 887079" d="M81.994,90.308A5.723,5.723,0,1,1,87.7,96.1a5.725,5.725,0,0,1-5.7-5.788m5.7-2.618a2.65,2.65,0,0,0-2.633,2.661,2.658,2.658,0,1,0,2.633-2.661" transform="translate(-59.911 -61.822)" fill="#fff"/>
    <path id="Trazado_887080" data-name="Trazado 887080" d="M155.118,156.225a1.507,1.507,0,1,1-3.015-.05,1.508,1.508,0,1,1,3.015.05" transform="translate(-111.138 -113.015)" fill="#fff"/>
    <path id="Trazado_887081" data-name="Trazado 887081" d="M202.361,90.339a5.725,5.725,0,1,1-5.766-5.727,5.733,5.733,0,0,1,5.766,5.727m-5.695-2.646a2.657,2.657,0,0,0-2.688,2.608,2.659,2.659,0,1,0,5.316.059,2.651,2.651,0,0,0-2.628-2.667" transform="translate(-139.495 -61.824)" fill="#fff"/>
  </g>
</svg>
