<svg xmlns="http://www.w3.org/2000/svg" width="127.501" height="116.941" viewBox="0 0 127.501 116.941">
  <g id="dieta" transform="translate(0 0)">
    <g id="Grupo_1113404" data-name="Grupo 1113404" transform="translate(1.868 1.868)">
      <g id="Grupo_1113403" data-name="Grupo 1113403" transform="translate(0 0)">
        <path id="Trazado_894935" data-name="Trazado 894935" d="M50.208,81.727h-35.2a7.509,7.509,0,0,1,0-15.018h35.2Z" transform="translate(-7.5 -57.245)" fill="#9d66d6"/>
        <path id="Trazado_894936" data-name="Trazado 894936" d="M154.678,69.427c-7.1-12.864-7.864-25.076-4.1-39.154a1.245,1.245,0,0,0-1.2-1.57H92.18a1.245,1.245,0,0,0-1.2,1.57c3.762,14.078,3,26.29-4.1,39.154-11.212,20.317-17.333,34.449-.672,71.021a2.494,2.494,0,0,0,2.268,1.46h64.609a2.494,2.494,0,0,0,2.268-1.46c16.661-36.572,10.54-50.7-.672-71.021Z" transform="translate(-58.895 -28.703)" fill="#ffcdbe"/>
        <path id="Trazado_894937" data-name="Trazado 894937" d="M349.76,69.427c-7.1-12.864-7.864-25.076-4.1-39.154a1.245,1.245,0,0,0-1.2-1.57h-7.72a1.245,1.245,0,0,1,1.2,1.57c-3.762,14.078-3,26.29,4.1,39.154,11.212,20.317,17.333,34.449.672,71.021a2.494,2.494,0,0,1-2.268,1.46h7.72a2.494,2.494,0,0,0,2.268-1.46c16.662-36.571,10.541-50.7-.671-71.02Z" transform="translate(-253.977 -28.703)" fill="#ebae9d"/>
        <path id="Trazado_894938" data-name="Trazado 894938" d="M161.5,218.876c-26.783,12.57-49.407,12.661-74.987.171a67.646,67.646,0,0,0-6.219,16.341c15.636,3.481,30.906,17.806,37.289,24.49,2.236,2.342,4.312,3.624,6.467,3.624s4.231-1.283,6.467-3.624c6.383-6.684,21.652-21.009,37.289-24.49a68.017,68.017,0,0,0-6.306-16.512Z" transform="translate(-62.164 -171.518)" fill="#e8a2cb"/>
        <path id="Trazado_894939" data-name="Trazado 894939" d="M386.29,237.742a43.136,43.136,0,0,1,7.267-2.354,68.023,68.023,0,0,0-6.306-16.512q-3.211,1.507-6.346,2.774a59.34,59.34,0,0,1,5.385,16.092Z" transform="translate(-287.918 -171.518)" fill="#e279b3"/>
        <path id="Trazado_894940" data-name="Trazado 894940" d="M15.009,104.371A7.509,7.509,0,0,1,7.5,96.861v15.018a7.508,7.508,0,0,0,7.508,7.508H80.091a2.49,2.49,0,0,0,2.49-2.49V106.862a2.491,2.491,0,0,0-2.49-2.491Z" transform="translate(-7.5 -79.888)" fill="#ad7fdd"/>
      </g>
    </g>
    <g id="Grupo_1113405" data-name="Grupo 1113405" transform="translate(0 0)">
      <path id="Trazado_894941" data-name="Trazado 894941" d="M102.921,69.7c-.01-.024-.018-.048-.029-.071a1.853,1.853,0,0,0-.1-.189c-1.088-2.132-2.262-4.3-3.5-6.554C92.75,51.049,91.538,39.4,95.353,25.122a3.112,3.112,0,0,0-3.005-3.92H50.932a1.868,1.868,0,1,0,0,3.735H91.54C87.707,39.867,89.1,52.161,96.016,64.7c.919,1.664,1.795,3.276,2.623,4.853-24.975,11.28-46.083,11.339-69.881.194.865-1.648,2.821-5.218,2.87-5.306H74.458a4.363,4.363,0,0,0,4.358-4.358V50.043a4.363,4.363,0,0,0-4.358-4.359H37.741A57.408,57.408,0,0,0,35.96,24.936h6.257a1.868,1.868,0,1,0,0-3.735H35.152a3.114,3.114,0,0,0-3,3.921q.759,2.843,1.247,5.545H9.376A9.386,9.386,0,0,0,0,40.042V55.061a9.386,9.386,0,0,0,9.376,9.376H27.367c-11.927,21.833-15.309,37.305.11,71.149a4.368,4.368,0,0,0,3.969,2.557H96.053a4.367,4.367,0,0,0,3.968-2.555c2.212-4.855,4.086-9.463,5.569-13.7a1.868,1.868,0,0,0-3.525-1.235c-1.446,4.127-3.277,8.63-5.444,13.385a.625.625,0,0,1-.568.366H65.618V116.682a12.994,12.994,0,0,0,5.95-3.963c15.593-16.329,28.338-21.725,34.5-23.486,1.178,6.712.877,14.016-1.48,23.172a1.868,1.868,0,1,0,3.618.931c4.345-16.883,2.484-28.327-5.287-43.631ZM9.376,34.4H33.953a47.483,47.483,0,0,1,.029,11.283H9.376a5.641,5.641,0,0,1,0-11.283ZM3.735,55.061V47.528a9.327,9.327,0,0,0,5.641,1.891H74.458a.624.624,0,0,1,.623.623V60.078a.623.623,0,0,1-.623.623H66.65V56.129a1.868,1.868,0,0,0-3.735,0V60.7H54.341V56.129a1.868,1.868,0,0,0-3.735,0V60.7H42.032V56.129a1.868,1.868,0,0,0-3.735,0V60.7H29.723V56.129a1.868,1.868,0,0,0-3.735,0V60.7H17.415V56.129a1.868,1.868,0,0,0-3.735,0V60.7h-4.3a5.647,5.647,0,0,1-5.64-5.64Zm27.711,79.346a.626.626,0,0,1-.569-.368c-6.457-14.173-12.037-29.851-9.431-44.8C27.616,91,40.353,96.4,55.932,112.719a12.994,12.994,0,0,0,5.95,3.963v17.725Zm37.42-24.268c-3.868,4.05-6.361,4.055-10.233,0C52.838,104.07,38,89.891,22.241,85.575a65.717,65.717,0,0,1,4.822-12.5c12.473,5.853,24.27,8.7,36,8.7h.194c11.79-.032,23.935-2.946,37.077-8.9a66.838,66.838,0,0,1,4.934,12.692C89.506,89.884,74.663,104.068,68.867,110.139Z" transform="translate(0 -21.201)"/>
      <path id="Trazado_894942" data-name="Trazado 894942" d="M433.2,120.482a1.867,1.867,0,0,0-2.63.242l-2.223,2.672c-1.676-11.6-6.465-21.051-12.05-31.171A33.576,33.576,0,0,1,412.074,70.2a1.868,1.868,0,1,0-3.7-.506,37.093,37.093,0,0,0,4.652,24.336c5.4,9.79,10.032,18.915,11.627,29.938l-2.942-2.157a1.868,1.868,0,1,0-2.209,3.012l6.357,4.66a1.867,1.867,0,0,0,2.54-.312l5.041-6.06a1.868,1.868,0,0,0-.242-2.63Z" transform="translate(-306.371 -56.405)"/>
    </g>
  </g>
</svg>
