<svg xmlns="http://www.w3.org/2000/svg" width="190" height="93" viewBox="0 0 190 93">
  <g id="Grupo_1113912" data-name="Grupo 1113912" transform="translate(-180 -2106)">
    <g id="Grupo_1113909" data-name="Grupo 1113909" transform="translate(-1050.051)">
      <g id="Grupo_1113908" data-name="Grupo 1113908">
        <rect id="Rectángulo_407287" data-name="Rectángulo 407287" width="190" height="93" rx="14" transform="translate(1230.051 2106)" fill="#ffedee"/>
        <g id="tejido-de-punto" transform="translate(1244.416 2117)">
          <g id="Grupo_1113633" data-name="Grupo 1113633" transform="translate(66.007 17.758)">
            <path id="Trazado_896633" data-name="Trazado 896633" d="M181.019,141.4v-11.87a.687.687,0,0,0-.687-.687h-30a.687.687,0,0,0-.687.687v16.838a5.913,5.913,0,0,0,5.913,5.913h2.4a5.913,5.913,0,0,1,0,11.826h-2.4a5.913,5.913,0,0,0-5.913,5.913v9.916a.687.687,0,0,0,.687.687h30a.687.687,0,0,0,.687-.687V174.99a5.143,5.143,0,0,1,5.143-5.143A5.143,5.143,0,0,0,191.3,164.7V151.687a5.143,5.143,0,0,0-5.143-5.143A5.143,5.143,0,0,1,181.019,141.4Z" transform="translate(-149.647 -128.845)" fill="#bdadea"/>
          </g>
          <g id="Grupo_1113634" data-name="Grupo 1113634" transform="translate(89.913 17.758)">
            <path id="Trazado_896634" data-name="Trazado 896634" d="M335.706,146.544a5.143,5.143,0,0,1-5.143-5.143v-11.87a.687.687,0,0,0-.687-.687H323.1a.687.687,0,0,1,.687.687V141.4a5.143,5.143,0,0,0,5.143,5.143,5.143,5.143,0,0,1,5.143,5.143V164.7a5.143,5.143,0,0,1-5.143,5.143,5.143,5.143,0,0,0-5.143,5.143v4.947a.687.687,0,0,1-.687.687h6.779a.687.687,0,0,0,.687-.687V174.99a5.143,5.143,0,0,1,5.143-5.143,5.143,5.143,0,0,0,5.143-5.143V151.687A5.143,5.143,0,0,0,335.706,146.544Z" transform="translate(-323.098 -128.845)" fill="#72688d"/>
          </g>
          <g id="Grupo_1113635" data-name="Grupo 1113635" transform="translate(96.919 1.167)">
            <circle id="Elipse_11505" data-name="Elipse 11505" cx="2.781" cy="2.781" r="2.781" transform="translate(0)" fill="#efecef"/>
          </g>
          <g id="Grupo_1113636" data-name="Grupo 1113636" transform="translate(53.666 1.03)">
            <circle id="Elipse_11506" data-name="Elipse 11506" cx="2.781" cy="2.781" r="2.781" transform="translate(0)" fill="#efecef"/>
          </g>
          <g id="Grupo_1113637" data-name="Grupo 1113637" transform="translate(97.114 1.367)">
            <path id="Trazado_896635" data-name="Trazado 896635" d="M380.668,12a2.776,2.776,0,0,0-1.71-2.087,2.78,2.78,0,0,1-2.092,3.758,2.764,2.764,0,0,1-1.52-.155A2.781,2.781,0,0,0,380.668,12Z" transform="translate(-375.346 -9.916)" fill="#e2dfe2"/>
          </g>
          <g id="Grupo_1113638" data-name="Grupo 1113638" transform="translate(53.865 1.225)">
            <path id="Trazado_896636" data-name="Trazado 896636" d="M65.158,8.888a2.779,2.779,0,0,1-3.6,3.612,2.78,2.78,0,1,0,3.6-3.612Z" transform="translate(-61.555 -8.888)" fill="#e2dfe2"/>
          </g>
          <g id="Grupo_1113639" data-name="Grupo 1113639" transform="translate(52.636 0)">
            <path id="Trazado_896637" data-name="Trazado 896637" d="M89.334,68.507h-22.3V58.935a4.889,4.889,0,0,1,4.883-4.883h2.4a6.943,6.943,0,0,0,0-13.886h-2.4a4.889,4.889,0,0,1-4.883-4.883V18.788h1.607v5.494c0,.032,0,.063,0,.094,0,.008,0,.017,0,.025a1.03,1.03,0,0,0,1.03,1.03c.314,0,.452.122.862.6a2.889,2.889,0,0,0,4.854,0c.41-.479.548-.6.862-.6s.452.122.862.6a2.889,2.889,0,0,0,4.854,0c.41-.479.548-.6.862-.6s.452.122.862.6a2.889,2.889,0,0,0,4.854,0c.41-.479.548-.6.862-.6s.452.122.862.6A3.052,3.052,0,0,0,92.7,27.354a1.03,1.03,0,0,0,0-2.06c-.314,0-.452-.122-.861-.6a2.889,2.889,0,0,0-4.854,0c-.41.479-.548.6-.862.6s-.452-.122-.862-.6a2.889,2.889,0,0,0-4.854,0c-.41.479-.548.6-.862.6s-.452-.122-.862-.6a2.889,2.889,0,0,0-4.854,0c-.41.479-.548.6-.862.6s-.452-.122-.862-.6a3.672,3.672,0,0,0-1.4-1.129V12.587l7.625-2.055,11.7,3.153a1.03,1.03,0,1,0,.536-1.989L82.286,9.465l14.026-3.78A3.8,3.8,0,1,0,95.9,3.663L78.328,8.4,60.248,3.526A3.811,3.811,0,0,0,52.7,3.133h0a3.809,3.809,0,0,0,7.139,2.414L74.371,9.465l-3.787,1.021a1.03,1.03,0,0,0-1.94.481v.042l-3.06.825a1.03,1.03,0,1,0,.536,1.989l2.524-.68v3.586h-1.95a1.718,1.718,0,0,0-1.716,1.716V35.283a6.951,6.951,0,0,0,6.943,6.943h2.4a4.883,4.883,0,0,1,0,9.767h-2.4a6.951,6.951,0,0,0-6.943,6.943v9.915a1.718,1.718,0,0,0,1.716,1.716H89.334a1.03,1.03,0,0,0,0-2.06ZM58.2,3.811A1.751,1.751,0,1,1,56.447,2.06,1.751,1.751,0,0,1,58.2,3.811Zm43.253.1A1.751,1.751,0,1,1,99.7,2.157,1.751,1.751,0,0,1,101.451,3.908Z" transform="translate(-52.636 0)"/>
            <path id="Trazado_896638" data-name="Trazado 896638" d="M233.565,139.071a4.118,4.118,0,0,1-4.113-4.113v-11.87a1.718,1.718,0,0,0-1.716-1.717H205.658a1.03,1.03,0,0,0,0,2.06h21.734v11.526a6.18,6.18,0,0,0,6.173,6.173,4.118,4.118,0,0,1,4.113,4.113v1.631a1.03,1.03,0,0,0,2.06,0v-1.631A6.18,6.18,0,0,0,233.565,139.071Z" transform="translate(-183.679 -104.644)"/>
            <path id="Trazado_896639" data-name="Trazado 896639" d="M360.283,332.973a1.03,1.03,0,0,0-1.03,1.03v6.7a4.118,4.118,0,0,1-4.113,4.113,6.18,6.18,0,0,0-6.173,6.173v4.6h-2.3a1.03,1.03,0,0,0,0,2.06h2.642a1.718,1.718,0,0,0,1.717-1.716v-4.947a4.118,4.118,0,0,1,4.113-4.113,6.18,6.18,0,0,0,6.173-6.173V334A1.03,1.03,0,0,0,360.283,332.973Z" transform="translate(-305.254 -287.08)"/>
            <path id="Trazado_896640" data-name="Trazado 896640" d="M190.224,452.864c-.41.479-.548.6-.862.6s-.452-.122-.862-.6a2.89,2.89,0,0,0-4.855,0c-.41.479-.548.6-.862.6s-.452-.122-.862-.6a3.053,3.053,0,0,0-2.427-1.322,1.03,1.03,0,0,0,0,2.06c.314,0,.452.122.862.6a2.89,2.89,0,0,0,4.855,0c.41-.479.548-.6.862-.6s.452.122.862.6a2.89,2.89,0,0,0,4.855,0c.41-.479.548-.6.862-.6a1.03,1.03,0,0,0,0-2.06A3.053,3.053,0,0,0,190.224,452.864Z" transform="translate(-161.121 -389.307)"/>
            <path id="Trazado_896641" data-name="Trazado 896641" d="M280.62,316.033a3.052,3.052,0,0,0,2.427-1.322c.41-.479.548-.6.862-.6s.452.122.862.6a2.889,2.889,0,0,0,4.854,0c.41-.479.548-.6.862-.6s.452.122.862.6a3.053,3.053,0,0,0,2.427,1.322,1.03,1.03,0,1,0,0-2.06c-.314,0-.452-.122-.862-.6a2.889,2.889,0,0,0-4.854,0c-.41.479-.548.6-.862.6s-.452-.122-.862-.6a2.889,2.889,0,0,0-4.854,0c-.41.479-.548.6-.862.6a1.03,1.03,0,0,0,0,2.06Z" transform="translate(-248.31 -269.042)"/>
            <path id="Trazado_896642" data-name="Trazado 896642" d="M186.276,214.365a3.052,3.052,0,0,0,2.427-1.322c.41-.479.548-.6.862-.6s.452.122.862.6a3.052,3.052,0,0,0,2.427,1.322,1.03,1.03,0,1,0,0-2.06c-.314,0-.452-.122-.861-.6a2.889,2.889,0,0,0-4.854,0c-.41.479-.548.6-.862.6s-.452-.122-.862-.6a2.889,2.889,0,0,0-4.854,0c-.41.479-.548.6-.862.6s-.452-.122-.862-.6a2.889,2.889,0,0,0-4.854,0c-.41.479-.548.6-.862.6s-.452-.122-.862-.6a3.052,3.052,0,0,0-2.427-1.322,1.03,1.03,0,1,0,0,2.06c.314,0,.452.122.862.6a2.889,2.889,0,0,0,4.854,0c.41-.479.548-.6.862-.6s.452.122.862.6a2.889,2.889,0,0,0,4.854,0c.41-.479.548-.6.862-.6s.452.122.862.6A3.051,3.051,0,0,0,186.276,214.365Z" transform="translate(-152.792 -181.386)"/>
            <path id="Trazado_896643" data-name="Trazado 896643" d="M289.615,353.654c.41-.479.548-.6.862-.6s.452.122.862.6a2.89,2.89,0,0,0,4.855,0c.41-.479.548-.6.862-.6s.452.122.862.6a3.053,3.053,0,0,0,2.427,1.322,1.03,1.03,0,1,0,0-2.06c-.314,0-.452-.122-.862-.6a2.89,2.89,0,0,0-4.855,0c-.41.479-.548.6-.862.6s-.452-.122-.862-.6a2.89,2.89,0,0,0-4.854,0c-.41.479-.548.6-.862.6s-.452-.122-.862-.6a2.889,2.889,0,0,0-4.854,0c-.41.479-.548.6-.862.6a1.03,1.03,0,1,0,0,2.06,3.052,3.052,0,0,0,2.427-1.322c.41-.479.548-.6.862-.6s.452.122.862.6a2.889,2.889,0,0,0,4.854,0Z" transform="translate(-248.301 -302.617)"/>
          </g>
        </g>
      </g>
    </g>
  </g>
</svg>
