<svg xmlns="http://www.w3.org/2000/svg" xmlns:xlink="http://www.w3.org/1999/xlink" width="92.344" height="92.344" viewBox="0 0 92.344 92.344">
  <defs>
    <clipPath id="clip-path">
      <rect id="Rectángulo_401506" data-name="Rectángulo 401506" width="92.344" height="92.344" fill="none"/>
    </clipPath>
  </defs>
  <g id="Grupo_1113913" data-name="Grupo 1113913" transform="translate(-257.051 -6320.411)">
    <g id="Grupo_1113688" data-name="Grupo 1113688" transform="translate(257.051 6320.411)">
      <g id="Grupo_1099827" data-name="Grupo 1099827" clip-path="url(#clip-path)">
        <path id="Trazado_883915" data-name="Trazado 883915" d="M92.344,46.173A46.172,46.172,0,1,1,46.172,0,46.172,46.172,0,0,1,92.344,46.173" transform="translate(0 -0.001)" fill="#ffe260"/>
      </g>
    </g>
    <g id="estandar" transform="translate(266.826 6336.196)">
      <path id="Trazado_896713" data-name="Trazado 896713" d="M23.924,42.436a.969.969,0,0,1,1.061-.6l3.765.615-4.187-6.962a12.408,12.408,0,0,1-5.933,2.346l4.117,7.547Z" transform="translate(-0.37 -0.879)" fill="#12263f"/>
      <path id="Trazado_896714" data-name="Trazado 896714" d="M19.946,10.865a2.922,2.922,0,0,1,2.919-2.919h3.892V6H20.919A2.922,2.922,0,0,0,18,8.919v2.968a12.574,12.574,0,0,1,1.946.306Z" transform="translate(-0.353 -0.081)" fill="#12263f"/>
      <path id="Trazado_896715" data-name="Trazado 896715" d="M29.973,10.784H47.486a.975.975,0,0,0,.973-.973V3.973A.975.975,0,0,0,47.486,3H29.973A.975.975,0,0,0,29,3.973V9.811A.975.975,0,0,0,29.973,10.784Z" transform="translate(-0.65)" fill="#12263f"/>
      <path id="Trazado_896716" data-name="Trazado 896716" d="M22.973,10a.975.975,0,0,0-.973.973v1.954A12.721,12.721,0,0,1,29.784,24.59a12.536,12.536,0,0,1-3.631,8.924l5.438,9.043a.974.974,0,0,1-.99,1.462l-5.067-.827-1.656,4.14a.973.973,0,0,1-.845.61l-.058,0a.973.973,0,0,1-.854-.507L22,47.22v7.535a.974.974,0,0,0,.973.973H54.107a.974.974,0,0,0,.973-.973V10.973A.975.975,0,0,0,54.107,10H50.215A2.922,2.922,0,0,1,47.3,12.919H29.784A2.922,2.922,0,0,1,26.865,10Zm17.513,8.756H53.134V20.7H40.486Zm0,2.919H53.134v1.946H40.486Zm0,6.811H53.134v1.946H40.486Zm0,2.919H53.134v1.946H40.486Zm0,6.811H53.134v1.946H40.486Zm0,2.919H53.134V43.08H40.486Zm0,6.811H53.134v1.946H40.486Zm0,2.919H53.134v1.946H40.486ZM33.45,20.08l.874,1.049,2.5-2.995,1.494,1.245-3.243,3.892a.972.972,0,0,1-1.494,0l-1.622-1.946Zm0,9.729.874,1.049,2.5-2.995,1.494,1.245L35.071,33a.972.972,0,0,1-1.493,0l-1.622-1.946Zm0,9.728.874,1.049,2.5-2.995,1.494,1.246L35.071,42.73a.972.972,0,0,1-1.493,0l-1.622-1.946Zm0,9.729.874,1.049,2.5-2.995,1.494,1.246-3.243,3.892a.972.972,0,0,1-1.493,0l-1.622-1.946Z" transform="translate(-0.461 -0.189)" fill="#12263f"/>
      <path id="Trazado_896717" data-name="Trazado 896717" d="M4.969,42.451l3.765-.615a.975.975,0,0,1,1.061.6l1.178,2.945L15.1,37.817a12.7,12.7,0,0,1-5.93-2.351Z" transform="translate(0 -0.878)" fill="#12263f"/>
      <path id="Trazado_896718" data-name="Trazado 896718" d="M27.4,24.706a10.7,10.7,0,1,0-21.4,0,10.453,10.453,0,0,0,3.02,7.478,10.813,10.813,0,0,0,15.261.127A10.607,10.607,0,0,0,27.4,24.706ZM16.7,33.459A8.756,8.756,0,1,1,25.459,24.7,8.767,8.767,0,0,1,16.7,33.459Z" transform="translate(-0.028 -0.298)" fill="#12263f"/>
      <path id="Trazado_896719" data-name="Trazado 896719" d="M55.945,6H50.107V7.946H54a2.922,2.922,0,0,1,2.919,2.919V54.647A2.922,2.922,0,0,1,54,57.566H22.865a2.922,2.922,0,0,1-2.919-2.919v-11.1L18,39.976V56.593a2.922,2.922,0,0,0,2.919,2.919H55.945a2.922,2.922,0,0,0,2.919-2.919V8.919A2.922,2.922,0,0,0,55.945,6Z" transform="translate(-0.353 -0.081)" fill="#12263f"/>
      <path id="Trazado_896720" data-name="Trazado 896720" d="M16.811,18a6.811,6.811,0,1,0,6.811,6.811A6.818,6.818,0,0,0,16.811,18ZM15.553,28.417a.973.973,0,0,1-.688.285.933.933,0,0,1-.156-.013.974.974,0,0,1-.714-.525l-1.946-3.892L13.79,23.4l1.342,2.684,5.856-5.856,1.376,1.376Z" transform="translate(-0.136 -0.406)" fill="#12263f"/>
    </g>
  </g>
</svg>
