<svg xmlns="http://www.w3.org/2000/svg" width="418.5" height="283.514" viewBox="0 0 418.5 283.514">
  <g id="Grupo_1113912" data-name="Grupo 1113912" transform="translate(-908.911 -1842.486)">
    <g id="Grupo_1113413" data-name="Grupo 1113413" transform="translate(528.416 -19.98)">
      <path id="Trazado_894945" data-name="Trazado 894945" d="M814.079,111.1l96.228,55.557A113.059,113.059,0,0,0,814.079,0Z" transform="translate(-323.321 1862.979)" fill="#fff" stroke="#000" stroke-width="1"/>
      <path id="Trazado_894946" data-name="Trazado 894946" d="M109.763,111.1V0A113.059,113.059,0,0,0,13.535,166.653Z" transform="translate(380.995 1862.979)" fill="#fff" stroke="#000" stroke-width="1"/>
      <path id="Trazado_894947" data-name="Trazado 894947" d="M213.845,817.279l-96.222,55.554a113.053,113.053,0,0,0,192.445,0Z" transform="translate(276.912 1156.723)" fill="#72688d" stroke="#000" stroke-width="1"/>
    </g>
    <g id="Trazado_896857" data-name="Trazado 896857" transform="translate(909.411 2089)" fill="#72688d">
      <path d="M 139.5 36.5 L 0.5 36.5 L 0.5 0.5 L 139.5 0.5 L 139.5 36.5 Z" stroke="none"/>
      <path d="M 1 1 L 1 36 L 139 36 L 139 1 L 1 1 M 0 0 L 140 0 L 140 37 L 0 37 L 0 0 Z" stroke="none" fill="#707070"/>
    </g>
    <g id="Trazado_896853" data-name="Trazado 896853" transform="translate(1048.411 2089)" fill="#fff">
      <path d="M 139.5 36.5 L 0.5 36.5 L 0.5 0.5 L 139.5 0.5 L 139.5 36.5 Z" stroke="none"/>
      <path d="M 1 1 L 1 36 L 139 36 L 139 1 L 1 1 M 0 0 L 140 0 L 140 37 L 0 37 L 0 0 Z" stroke="none" fill="#707070"/>
    </g>
    <g id="Trazado_896854" data-name="Trazado 896854" transform="translate(1187.411 2089)" fill="#fff">
      <path d="M 139.5 36.5 L 0.5 36.5 L 0.5 0.5 L 139.5 0.5 L 139.5 36.5 Z" stroke="none"/>
      <path d="M 1 1 L 1 36 L 139 36 L 139 1 L 1 1 M 0 0 L 140 0 L 140 37 L 0 37 L 0 0 Z" stroke="none" fill="#707070"/>
    </g>
    <path id="Trazado_896858" data-name="Trazado 896858" d="M-8.615,0h-2.6V-12.558l-3.835,1.311v-2.2l6.1-2.245h.333Zm6.338,1.343H-4.329L1.826-15.641H3.878ZM8.54-9.013h1.59a2.845,2.845,0,0,0,1.907-.623,2.223,2.223,0,0,0,.7-1.772,2.422,2.422,0,0,0-.585-1.735,2.356,2.356,0,0,0-1.789-.618,2.493,2.493,0,0,0-1.729.607,2.028,2.028,0,0,0-.677,1.584H5.35a3.951,3.951,0,0,1,.639-2.191A4.294,4.294,0,0,1,7.772-15.3a5.809,5.809,0,0,1,2.562-.553,5.379,5.379,0,0,1,3.679,1.176,4.128,4.128,0,0,1,1.337,3.271,3.324,3.324,0,0,1-.671,1.982,4.21,4.21,0,0,1-1.735,1.4A3.837,3.837,0,0,1,14.9-6.639a3.794,3.794,0,0,1,.671,2.256,4.2,4.2,0,0,1-1.445,3.352,5.61,5.61,0,0,1-3.8,1.246,5.567,5.567,0,0,1-3.7-1.2A3.962,3.962,0,0,1,5.2-4.189H7.81A2.184,2.184,0,0,0,8.5-2.514a2.628,2.628,0,0,0,1.864.645,2.71,2.71,0,0,0,1.912-.645,2.418,2.418,0,0,0,.7-1.869,2.443,2.443,0,0,0-.73-1.9,3.123,3.123,0,0,0-2.17-.666H8.54Z" transform="translate(979.411 2116)" fill="#fff"/>
    <path id="Trazado_896856" data-name="Trazado 896856" d="M-8.615,0h-2.6V-12.558l-3.835,1.311v-2.2l6.1-2.245h.333Zm6.338,1.343H-4.329L1.826-15.641H3.878ZM8.54-9.013h1.59a2.845,2.845,0,0,0,1.907-.623,2.223,2.223,0,0,0,.7-1.772,2.422,2.422,0,0,0-.585-1.735,2.356,2.356,0,0,0-1.789-.618,2.493,2.493,0,0,0-1.729.607,2.028,2.028,0,0,0-.677,1.584H5.35a3.951,3.951,0,0,1,.639-2.191A4.294,4.294,0,0,1,7.772-15.3a5.809,5.809,0,0,1,2.562-.553,5.379,5.379,0,0,1,3.679,1.176,4.128,4.128,0,0,1,1.337,3.271,3.324,3.324,0,0,1-.671,1.982,4.21,4.21,0,0,1-1.735,1.4A3.837,3.837,0,0,1,14.9-6.639a3.794,3.794,0,0,1,.671,2.256,4.2,4.2,0,0,1-1.445,3.352,5.61,5.61,0,0,1-3.8,1.246,5.567,5.567,0,0,1-3.7-1.2A3.962,3.962,0,0,1,5.2-4.189H7.81A2.184,2.184,0,0,0,8.5-2.514a2.628,2.628,0,0,0,1.864.645,2.71,2.71,0,0,0,1.912-.645,2.418,2.418,0,0,0,.7-1.869,2.443,2.443,0,0,0-.73-1.9,3.123,3.123,0,0,0-2.17-.666H8.54Z" transform="translate(1118.411 2116)" fill="#12263f"/>
    <path id="Trazado_896855" data-name="Trazado 896855" d="M-8.615,0h-2.6V-12.558l-3.835,1.311v-2.2l6.1-2.245h.333Zm6.338,1.343H-4.329L1.826-15.641H3.878ZM8.54-9.013h1.59a2.845,2.845,0,0,0,1.907-.623,2.223,2.223,0,0,0,.7-1.772,2.422,2.422,0,0,0-.585-1.735,2.356,2.356,0,0,0-1.789-.618,2.493,2.493,0,0,0-1.729.607,2.028,2.028,0,0,0-.677,1.584H5.35a3.951,3.951,0,0,1,.639-2.191A4.294,4.294,0,0,1,7.772-15.3a5.809,5.809,0,0,1,2.562-.553,5.379,5.379,0,0,1,3.679,1.176,4.128,4.128,0,0,1,1.337,3.271,3.324,3.324,0,0,1-.671,1.982,4.21,4.21,0,0,1-1.735,1.4A3.837,3.837,0,0,1,14.9-6.639a3.794,3.794,0,0,1,.671,2.256,4.2,4.2,0,0,1-1.445,3.352,5.61,5.61,0,0,1-3.8,1.246,5.567,5.567,0,0,1-3.7-1.2A3.962,3.962,0,0,1,5.2-4.189H7.81A2.184,2.184,0,0,0,8.5-2.514a2.628,2.628,0,0,0,1.864.645,2.71,2.71,0,0,0,1.912-.645,2.418,2.418,0,0,0,.7-1.869,2.443,2.443,0,0,0-.73-1.9,3.123,3.123,0,0,0-2.17-.666H8.54Z" transform="translate(1257.411 2116)" fill="#12263f"/>
    <g id="Grupo_1113415" data-name="Grupo 1113415" transform="translate(627.36 14)">
      <text id="Numerador" transform="translate(583.556 1936.59)" fill="#12263f" font-size="16" font-family="Roboto-Medium, Roboto" font-weight="500"><tspan x="0" y="17">Numerador</tspan></text>
      <g id="Elipse_11499" data-name="Elipse 11499" transform="translate(541.545 1931)" fill="#ff494f" stroke="#000" stroke-width="1">
        <circle cx="16.5" cy="16.5" r="16.5" stroke="none"/>
        <circle cx="16.5" cy="16.5" r="16" fill="none"/>
      </g>
    </g>
    <g id="Grupo_1113416" data-name="Grupo 1113416" transform="translate(627.36 14)">
      <text id="Denominador" transform="translate(583.556 1994.945)" fill="#12263f" font-size="16" font-family="Roboto-Medium, Roboto" font-weight="500"><tspan x="0" y="17">Denominador</tspan></text>
      <g id="Elipse_11500" data-name="Elipse 11500" transform="translate(541.545 1989.355)" fill="#ffe260" stroke="#000" stroke-width="1">
        <circle cx="16.5" cy="16.5" r="16.5" stroke="none"/>
        <circle cx="16.5" cy="16.5" r="16" fill="none"/>
      </g>
    </g>
    <g id="Grupo_1113414" data-name="Grupo 1113414" transform="translate(650.36 30)">
      <circle id="Elipse_11497" data-name="Elipse 11497" cx="20.5" cy="20.5" r="20.5" transform="translate(518.051 1820)" fill="#ff494f"/>
      <circle id="Elipse_11498" data-name="Elipse 11498" cx="20.5" cy="20.5" r="20.5" transform="translate(572.051 1820)" fill="#ffe260"/>
      <text id="_1_3" data-name="1/3" transform="translate(566.051 1857)" fill="#12263f" font-size="42" font-family="Roboto-Medium, Roboto" font-weight="500" letter-spacing="0.16em"><tspan x="-38.897" y="0">1/3</tspan></text>
    </g>
  </g>
</svg>
