<svg xmlns="http://www.w3.org/2000/svg" xmlns:xlink="http://www.w3.org/1999/xlink" width="92.344" height="92.344" viewBox="0 0 92.344 92.344">
  <defs>
    <clipPath id="clip-path">
      <rect id="Rectángulo_401506" data-name="Rectángulo 401506" width="92.344" height="92.344" fill="none"/>
    </clipPath>
  </defs>
  <g id="Grupo_1113914" data-name="Grupo 1113914" transform="translate(-10255.533 10520.603)">
    <g id="Grupo_1113648" data-name="Grupo 1113648" transform="translate(10255.533 -10520.603)">
      <g id="Grupo_1099827" data-name="Grupo 1099827" clip-path="url(#clip-path)">
        <path id="Trazado_883915" data-name="Trazado 883915" d="M92.344,46.173A46.172,46.172,0,1,1,46.172,0,46.172,46.172,0,0,1,92.344,46.173" transform="translate(0 -0.001)" fill="#ffe260"/>
      </g>
    </g>
    <g id="medicion" transform="translate(10274.533 -10501.603)">
      <path id="Trazado_896678" data-name="Trazado 896678" d="M45.487,9a3.383,3.383,0,0,0-2.033-4.568L38.765,2.871V2.628A2.628,2.628,0,0,0,36.138,0h-3.5a2.628,2.628,0,0,0-2.628,2.628v.243L25.319,4.432A3.383,3.383,0,0,0,23.286,9l4.081,9.3a2.607,2.607,0,0,1-.55,2.911,7.007,7.007,0,0,0-2.075,5v6.972a2.646,2.646,0,0,0,1.552,2.4,22.9,22.9,0,0,0,8.093,1.2,22.9,22.9,0,0,0,8.093-1.2,2.646,2.646,0,0,0,1.552-2.4V26.213a7.007,7.007,0,0,0-2.075-5,2.607,2.607,0,0,1-.55-2.911ZM42.279,26.213v6.973a.876.876,0,0,1-.526.8,21.666,21.666,0,0,1-7.368,1.044,21.666,21.666,0,0,1-7.368-1.044.876.876,0,0,1-.526-.8V26.213a5.273,5.273,0,0,1,1.561-3.757,4.347,4.347,0,0,0,.917-4.851l-.447-1.02a4.375,4.375,0,0,0,4.958-3.223.876.876,0,1,0-1.7-.438,2.691,2.691,0,0,1-4.257,1.4L24.89,8.3a1.633,1.633,0,0,1,.981-2.2l4.69-1.56a1.752,1.752,0,0,0,1.2-1.663V2.628a.876.876,0,0,1,.876-.876h3.493A.876.876,0,0,1,37,2.628v.243a1.752,1.752,0,0,0,1.2,1.664L42.894,6.1a1.633,1.633,0,0,1,.981,2.2l-2.639,6.015a2.691,2.691,0,0,1-4.257-1.4.876.876,0,1,0-1.7.438,4.375,4.375,0,0,0,4.958,3.223l-.447,1.02a4.347,4.347,0,0,0,.917,4.854,5.273,5.273,0,0,1,1.568,3.76Z" transform="translate(-2.856)" fill="#ff494f" stroke="#ff494e" stroke-width="1"/>
      <path id="Trazado_896679" data-name="Trazado 896679" d="M49.047,40.289H12.262V3.5A3.5,3.5,0,0,0,8.758,0H3.5A3.5,3.5,0,0,0,0,3.5V49.047a3.5,3.5,0,0,0,3.5,3.5H49.047a3.5,3.5,0,0,0,3.5-3.5V43.792A3.5,3.5,0,0,0,49.047,40.289ZM3.5,50.8a1.752,1.752,0,0,1-1.752-1.752V3.5A1.752,1.752,0,0,1,3.5,1.752H8.758A1.752,1.752,0,0,1,10.51,3.5v.876H5.255a.876.876,0,0,0,0,1.752H10.51v3.5h-3.5a.876.876,0,1,0,0,1.752h3.5v3.5h-3.5a.876.876,0,0,0,0,1.752h3.5v3.5h-3.5a.876.876,0,1,0,0,1.752h3.5v3.5H5.255a.876.876,0,1,0,0,1.752H10.51v3.5h-3.5a.876.876,0,0,0,0,1.752h3.5v3.5h-3.5a.876.876,0,0,0,0,1.752h3.5v3.5h-3.5a.876.876,0,0,0,0,1.752h3.5v3.5H5.255a.876.876,0,1,0,0,1.752H10.51V50.8Zm47.3-1.752A1.752,1.752,0,0,1,49.047,50.8H12.262V42.041h7.883v3.5a.876.876,0,1,0,1.752,0v-3.5h3.5V47.3a.876.876,0,1,0,1.752,0V42.041h3.5v3.5a.876.876,0,1,0,1.752,0v-3.5h3.5v3.5a.876.876,0,1,0,1.752,0v-3.5h3.5v3.5a.876.876,0,1,0,1.752,0v-3.5h3.5V47.3a.876.876,0,1,0,1.752,0V42.041h.876A1.752,1.752,0,0,1,50.8,43.792Z" fill="#ff494f" stroke="#ff494e" stroke-width="1"/>
    </g>
  </g>
</svg>
