<svg xmlns="http://www.w3.org/2000/svg" width="83.45" height="83.451" viewBox="0 0 83.45 83.451">
  <path id="biomecanica" d="M87.453,37.022a3.4,3.4,0,0,0-1.885-3.045,3.455,3.455,0,0,0-4.54-5.149,3.4,3.4,0,0,0-5.47-.938l-8.586,8.586a7.165,7.165,0,0,1-1.921,1.5A3.3,3.3,0,0,1,65,37.368V34.715a5.048,5.048,0,0,0-4.741-4.951,2.583,2.583,0,0,0-1.7.573,2.322,2.322,0,0,0-.792,1.814V42.33a7.711,7.711,0,0,1-2.345,5.69l-14.1,12.765L36.1,48.745a1.185,1.185,0,0,0-.059-.118l-8.6-14.888-.006,0A12.5,12.5,0,1,0,5.782,46.224l-.005,0,8.606,14.907a1.117,1.117,0,0,0,.072.11L27.989,79.52a10.34,10.34,0,0,0,19.452,1.9L66.656,60.217a8.68,8.68,0,0,1,4.495-2.3,11.259,11.259,0,0,0,5.719-3.031l8.289-8.289a3.235,3.235,0,0,0-.74-5.125l2.042-2.042a3.375,3.375,0,0,0,.993-2.4ZM53.516,54.789a4.081,4.081,0,0,1-5.771,5.772l-1.289-1.289,6.057-5.486ZM46.105,62.2a6.4,6.4,0,0,0,9.05-9.05l-.922-.922,1.914-1.734,8.1,8.923L48.384,76.93a10.352,10.352,0,0,0-10.2-10.164l6.555-5.936Zm-6.586.227-5.877,5.322a10.373,10.373,0,0,0-5.8,7.676L22.327,67.98l5.767-3.329a1.159,1.159,0,0,0,.58-1V54.221l5.821-3.361ZM16.508,29.616A10.188,10.188,0,1,1,6.321,39.8,10.2,10.2,0,0,1,16.508,29.616Zm-5.2,21.557A12.5,12.5,0,0,0,28.956,40.989l4.5,7.794-6.521,3.765a1.159,1.159,0,0,0-.58,1v9.426L20.939,66.1l-4.582-6.187ZM38.045,85.132a8.025,8.025,0,1,1,8.025-8.025A8.034,8.034,0,0,1,38.045,85.132ZM84.821,37.786,80.586,42.02l-3.993,3.993a1.159,1.159,0,1,0,1.639,1.639l3.993-3.993a.915.915,0,0,1,1.293,1.293l-8.289,8.289a8.95,8.95,0,0,1-4.679,2.431A11.611,11.611,0,0,0,65.9,57.789l-8.112-8.932a10,10,0,0,0,2.3-6.527V32.151c0-.022,0-.039,0-.053a1.887,1.887,0,0,1,1.217.315,2.715,2.715,0,0,1,1.376,2.3v2.653c0,1.507.465,2.464,1.381,2.844,1.18.489,2.624-.178,4.544-2.1L77.2,29.528a1.081,1.081,0,0,1,1.528,1.528h0l-6.708,6.708A1.159,1.159,0,1,0,73.655,39.4L80.362,32.7h0l1.84-1.84a1.136,1.136,0,1,1,1.607,1.606L81.673,34.6l-.019.019h0l-6.242,6.242A1.159,1.159,0,1,0,77.05,42.5l6.243-6.243,0,0a1.081,1.081,0,0,1,1.525,1.531Zm-68.313,8.4A6.381,6.381,0,1,0,10.127,39.8,6.388,6.388,0,0,0,16.508,46.185Zm0-10.444A4.063,4.063,0,1,1,12.446,39.8,4.068,4.068,0,0,1,16.508,35.741Zm21.537,36.82a4.546,4.546,0,1,0,4.546,4.546A4.551,4.551,0,0,0,38.045,72.561Zm0,6.773a2.228,2.228,0,1,1,2.227-2.228A2.23,2.23,0,0,1,38.045,79.333Zm29.6-35.977a4.121,4.121,0,1,0,4.121,4.121A4.125,4.125,0,0,0,67.641,43.356Zm0,5.923a1.8,1.8,0,1,1,1.8-1.8A1.8,1.8,0,0,1,67.641,49.28ZM42.85,28.376a8.637,8.637,0,1,0-8.637-8.637A8.646,8.646,0,0,0,42.85,28.376Zm0-14.955a6.319,6.319,0,1,1-6.319,6.319A6.326,6.326,0,0,1,42.85,13.421Zm-27.553-.9v7.222A1.159,1.159,0,0,0,16.456,20.9H27.11v.7A1.855,1.855,0,0,0,28.6,23.414l1.4.276.97,2.342-.793,1.183a1.855,1.855,0,0,0,.228,2.34l2.629,2.629a1.855,1.855,0,0,0,2.34.228l1.183-.793,2.342.97.276,1.4a1.855,1.855,0,0,0,1.816,1.493h3.718a1.855,1.855,0,0,0,1.816-1.493l.276-1.4,2.342-.97,1.183.793a1.855,1.855,0,0,0,2.34-.228l2.629-2.629a1.855,1.855,0,0,0,.228-2.34l-.793-1.183.97-2.342,1.4-.276A1.855,1.855,0,0,0,58.59,21.6v-.7H69.245A1.159,1.159,0,0,0,70.4,19.739V12.517a4.338,4.338,0,1,0-2.318,0V18.58h-9.5v-.7A1.855,1.855,0,0,0,57.1,16.064l-1.4-.276-.97-2.342.793-1.183a1.855,1.855,0,0,0-.228-2.34L52.666,7.294a1.856,1.856,0,0,0-2.34-.228l-1.183.793L46.8,6.889l-.276-1.4A1.855,1.855,0,0,0,44.709,4H40.991a1.855,1.855,0,0,0-1.816,1.493l-.276,1.4-2.342.97-1.183-.794a1.855,1.855,0,0,0-2.339.229L30.406,9.923a1.855,1.855,0,0,0-.228,2.34l.793,1.183L30,15.789l-1.4.276A1.855,1.855,0,0,0,27.11,17.88v.7h-9.5V12.517a4.338,4.338,0,1,0-2.318,0Zm51.928-4.18a2.02,2.02,0,1,1,2.02,2.02A2.022,2.022,0,0,1,67.225,8.337Zm-37.8,9.927,1.63-.321a1.159,1.159,0,0,0,.847-.693L33.35,13.76a1.159,1.159,0,0,0-.108-1.089l-.925-1.38L34.4,9.206l1.38.925a1.159,1.159,0,0,0,1.089.108L40.36,8.793a1.159,1.159,0,0,0,.694-.847l.321-1.63h2.95l.321,1.63a1.159,1.159,0,0,0,.693.846l3.489,1.446a1.159,1.159,0,0,0,1.089-.108l1.38-.925,2.086,2.086-.925,1.38a1.159,1.159,0,0,0-.108,1.089L53.8,17.249a1.159,1.159,0,0,0,.847.693l1.629.321v2.95l-1.629.321a1.159,1.159,0,0,0-.847.693L52.35,25.718a1.159,1.159,0,0,0,.108,1.089l.925,1.38L51.3,30.273l-1.38-.925a1.159,1.159,0,0,0-1.089-.108L45.34,30.685a1.159,1.159,0,0,0-.693.846l-.321,1.63h-2.95l-.321-1.63a1.159,1.159,0,0,0-.694-.847l-3.489-1.445a1.159,1.159,0,0,0-1.089.108l-1.38.925-2.086-2.086.925-1.38a1.159,1.159,0,0,0,.108-1.089L31.9,22.229a1.159,1.159,0,0,0-.847-.693l-1.63-.321v-2.95ZM16.456,6.317a2.02,2.02,0,1,1-2.02,2.02A2.022,2.022,0,0,1,16.456,6.317Z" transform="translate(-4.003 -3.999)" fill="#ff494f"/>
</svg>
