<svg xmlns="http://www.w3.org/2000/svg" width="525" height="93" viewBox="0 0 525 93">
  <g id="Grupo_1113911" data-name="Grupo 1113911" transform="translate(-265.018 -5684)">
    <path id="Trazado_896853" data-name="Trazado 896853" d="M0,0H525V93H0Z" transform="translate(265.018 5684)" fill="#ffedee"/>
    <path id="Trazado_896854" data-name="Trazado 896854" d="M-75.469-2.648h-4.406L-80.8,0h-2.055l4.3-11.375h1.773L-72.477,0h-2.062ZM-79.32-4.242h3.3l-1.648-4.719Zm15.352.1a5.033,5.033,0,0,1-.891,3.129A2.852,2.852,0,0,1-67.25.156a2.871,2.871,0,0,1-2.227-.914V3.25h-1.9v-11.7h1.75l.078.859a2.788,2.788,0,0,1,2.273-1.016,2.881,2.881,0,0,1,2.426,1.152,5.167,5.167,0,0,1,.879,3.2ZM-65.859-4.3a3.526,3.526,0,0,0-.5-2.008A1.638,1.638,0,0,0-67.8-7.055a1.747,1.747,0,0,0-1.672.961v3.75a1.763,1.763,0,0,0,1.688.984,1.636,1.636,0,0,0,1.418-.73A3.881,3.881,0,0,0-65.859-4.3Zm7.922-2.414a4.7,4.7,0,0,0-.773-.062,1.741,1.741,0,0,0-1.758,1V0h-1.9V-8.453h1.813l.047.945a2.139,2.139,0,0,1,1.906-1.1,1.777,1.777,0,0,1,.672.109Zm.563,2.414a4.984,4.984,0,0,1,.492-2.238A3.6,3.6,0,0,1-55.5-8.074a3.9,3.9,0,0,1,2.047-.535,3.692,3.692,0,0,1,2.777,1.1,4.333,4.333,0,0,1,1.152,2.922l.008.445A5.029,5.029,0,0,1-50-1.906,3.551,3.551,0,0,1-51.371-.383a3.925,3.925,0,0,1-2.066.539A3.667,3.667,0,0,1-56.3-1.035a4.563,4.563,0,0,1-1.074-3.176Zm1.9.164A3.406,3.406,0,0,0-54.937-2.1a1.752,1.752,0,0,0,1.5.738,1.733,1.733,0,0,0,1.5-.75,3.762,3.762,0,0,0,.535-2.2,3.362,3.362,0,0,0-.551-2.031,1.759,1.759,0,0,0-1.5-.75,1.743,1.743,0,0,0-1.477.738A3.691,3.691,0,0,0-55.477-4.141Zm10.43,1.734,1.789-6.047H-41.3L-44.227,0h-1.648l-2.953-8.453h1.969ZM-36.391.156A3.928,3.928,0,0,1-39.316-.98a4.124,4.124,0,0,1-1.121-3.027v-.234A5.072,5.072,0,0,1-39.949-6.5a3.716,3.716,0,0,1,1.371-1.551,3.625,3.625,0,0,1,1.969-.555,3.318,3.318,0,0,1,2.668,1.1A4.658,4.658,0,0,1-33-4.391v.766h-5.523a2.539,2.539,0,0,0,.7,1.656,2.1,2.1,0,0,0,1.543.609,2.571,2.571,0,0,0,2.125-1.055l1.023.977A3.418,3.418,0,0,1-34.488-.262,4.244,4.244,0,0,1-36.391.156Zm-.227-7.242a1.6,1.6,0,0,0-1.262.547,2.835,2.835,0,0,0-.613,1.523h3.617v-.141A2.307,2.307,0,0,0-35.383-6.6,1.586,1.586,0,0,0-36.617-7.086Zm8.563,5.727a1.716,1.716,0,0,0,1.18-.414,1.415,1.415,0,0,0,.5-1.023h1.789a2.789,2.789,0,0,1-.492,1.473,3.228,3.228,0,0,1-1.25,1.082,3.725,3.725,0,0,1-1.7.4A3.6,3.6,0,0,1-30.844-.992a4.555,4.555,0,0,1-1.039-3.172v-.2a4.479,4.479,0,0,1,1.031-3.09,3.571,3.571,0,0,1,2.813-1.16,3.473,3.473,0,0,1,2.457.879,3.148,3.148,0,0,1,1,2.309h-1.789a1.738,1.738,0,0,0-.5-1.2,1.6,1.6,0,0,0-1.184-.469,1.671,1.671,0,0,0-1.422.668,3.408,3.408,0,0,0-.508,2.027v.3a3.465,3.465,0,0,0,.5,2.051A1.669,1.669,0,0,0-28.055-1.359Zm6.773-6.172A2.971,2.971,0,0,1-18.93-8.609q2.7,0,2.742,3.086V0h-1.9V-5.453a1.669,1.669,0,0,0-.379-1.238,1.549,1.549,0,0,0-1.113-.363,1.829,1.829,0,0,0-1.7,1.016V0h-1.9V-12h1.9ZM-9.219,0a2.93,2.93,0,0,1-.219-.789,2.955,2.955,0,0,1-2.219.945A2.982,2.982,0,0,1-13.734-.57a2.325,2.325,0,0,1-.8-1.8,2.4,2.4,0,0,1,1-2.074,4.865,4.865,0,0,1,2.871-.723H-9.5v-.555A1.481,1.481,0,0,0-9.867-6.77a1.456,1.456,0,0,0-1.117-.395,1.672,1.672,0,0,0-1.062.324,1,1,0,0,0-.414.824h-1.9a2.107,2.107,0,0,1,.461-1.3,3.071,3.071,0,0,1,1.254-.949,4.4,4.4,0,0,1,1.77-.344,3.547,3.547,0,0,1,2.367.746,2.661,2.661,0,0,1,.906,2.1v3.813a4.321,4.321,0,0,0,.32,1.82V0ZM-11.3-1.367a2.159,2.159,0,0,0,1.059-.273A1.827,1.827,0,0,0-9.5-2.375V-3.969h-1.023a2.8,2.8,0,0,0-1.586.367,1.189,1.189,0,0,0-.531,1.039,1.109,1.109,0,0,0,.363.871A1.407,1.407,0,0,0-11.3-1.367Zm7.477-7.086.055.883A3.042,3.042,0,0,1-1.336-8.609a2.337,2.337,0,0,1,2.32,1.3,3,3,0,0,1,2.594-1.3,2.636,2.636,0,0,1,2.082.773,3.405,3.405,0,0,1,.7,2.281V0h-1.9V-5.5a1.681,1.681,0,0,0-.352-1.18,1.539,1.539,0,0,0-1.164-.375,1.581,1.581,0,0,0-1.059.348,1.833,1.833,0,0,0-.574.91L1.32,0h-1.9V-5.562A1.354,1.354,0,0,0-2.1-7.055a1.671,1.671,0,0,0-1.617.93V0h-1.9V-8.453ZM10.328,0H8.43V-8.453h1.9ZM8.313-10.648a1.008,1.008,0,0,1,.277-.727,1.048,1.048,0,0,1,.793-.289,1.061,1.061,0,0,1,.8.289,1,1,0,0,1,.281.727.977.977,0,0,1-.281.715,1.069,1.069,0,0,1-.8.285,1.056,1.056,0,0,1-.793-.285A.984.984,0,0,1,8.313-10.648Zm7.8,10.8A3.928,3.928,0,0,1,13.191-.98,4.124,4.124,0,0,1,12.07-4.008v-.234A5.072,5.072,0,0,1,12.559-6.5,3.716,3.716,0,0,1,13.93-8.055,3.625,3.625,0,0,1,15.9-8.609a3.318,3.318,0,0,1,2.668,1.1,4.658,4.658,0,0,1,.941,3.117v.766H13.984a2.539,2.539,0,0,0,.7,1.656,2.1,2.1,0,0,0,1.543.609,2.571,2.571,0,0,0,2.125-1.055l1.023.977A3.418,3.418,0,0,1,18.02-.262,4.244,4.244,0,0,1,16.117.156Zm-.227-7.242a1.6,1.6,0,0,0-1.262.547,2.835,2.835,0,0,0-.613,1.523h3.617v-.141A2.307,2.307,0,0,0,17.125-6.6,1.586,1.586,0,0,0,15.891-7.086Zm6.852-1.367.055.977a3.039,3.039,0,0,1,2.461-1.133q2.641,0,2.688,3.023V0h-1.9V-5.477A1.741,1.741,0,0,0,25.7-6.668a1.462,1.462,0,0,0-1.137-.387,1.829,1.829,0,0,0-1.711,1.039V0h-1.9V-8.453Zm9.516-2.055v2.055H33.75v1.406H32.258v4.719a1.039,1.039,0,0,0,.191.7.888.888,0,0,0,.684.215,2.924,2.924,0,0,0,.664-.078V-.023a4.676,4.676,0,0,1-1.25.18q-2.188,0-2.187-2.414V-7.047H28.969V-8.453h1.391v-2.055Zm2.352,6.2A4.984,4.984,0,0,1,35.1-6.543a3.6,3.6,0,0,1,1.383-1.531,3.9,3.9,0,0,1,2.047-.535,3.692,3.692,0,0,1,2.777,1.1,4.333,4.333,0,0,1,1.152,2.922l.008.445a5.029,5.029,0,0,1-.48,2.234A3.551,3.551,0,0,1,40.613-.383a3.925,3.925,0,0,1-2.066.539,3.667,3.667,0,0,1-2.863-1.191,4.563,4.563,0,0,1-1.074-3.176Zm1.9.164A3.406,3.406,0,0,0,37.047-2.1a1.752,1.752,0,0,0,1.5.738,1.733,1.733,0,0,0,1.5-.75,3.762,3.762,0,0,0,.535-2.2,3.362,3.362,0,0,0-.551-2.031,1.759,1.759,0,0,0-1.5-.75,1.743,1.743,0,0,0-1.477.738A3.691,3.691,0,0,0,36.508-4.141Zm11.578-.484a11.9,11.9,0,0,1,.484-3.426,9.4,9.4,0,0,1,1.422-2.9,5.646,5.646,0,0,1,1.984-1.793l.375,1.109a5.8,5.8,0,0,0-1.785,2.551,11.424,11.424,0,0,0-.746,3.926l-.008.672A12.42,12.42,0,0,0,50.48-.262a6.224,6.224,0,0,0,1.871,2.824l-.375,1.055a5.655,5.655,0,0,1-1.988-1.8,9.4,9.4,0,0,1-1.422-2.9A12.374,12.374,0,0,1,48.086-4.625Zm5.352-4.562a2.283,2.283,0,0,1,.664-1.691,2.363,2.363,0,0,1,1.742-.66,2.371,2.371,0,0,1,1.754.66,2.34,2.34,0,0,1,.66,1.73v.563a2.267,2.267,0,0,1-.66,1.68,2.358,2.358,0,0,1-1.738.656,2.433,2.433,0,0,1-1.738-.645,2.275,2.275,0,0,1-.684-1.738Zm1.328.6a1.248,1.248,0,0,0,.3.871,1.019,1.019,0,0,0,.793.332,1,1,0,0,0,.781-.332,1.3,1.3,0,0,0,.3-.9v-.57a1.262,1.262,0,0,0-.3-.875,1.013,1.013,0,0,0-.793-.336.984.984,0,0,0-.785.34,1.322,1.322,0,0,0-.293.895Zm4.141,5.8a2.236,2.236,0,0,1,.68-1.7,2.411,2.411,0,0,1,1.734-.648,2.407,2.407,0,0,1,1.738.648,2.312,2.312,0,0,1,.676,1.75v.555A2.285,2.285,0,0,1,63.082-.5a2.344,2.344,0,0,1-1.746.66A2.413,2.413,0,0,1,59.574-.5a2.3,2.3,0,0,1-.668-1.723Zm1.328.609a1.246,1.246,0,0,0,.309.871,1.023,1.023,0,0,0,.793.34.991.991,0,0,0,.785-.324,1.333,1.333,0,0,0,.285-.91v-.586a1.235,1.235,0,0,0-.3-.875,1.019,1.019,0,0,0-.781-.328,1.015,1.015,0,0,0-.785.328,1.291,1.291,0,0,0-.3.906ZM56.25-.852l-.977-.562L60.828-10.3l.977.563ZM69.047-4.5a11.754,11.754,0,0,1-.477,3.348,9.485,9.485,0,0,1-1.445,2.938A5.66,5.66,0,0,1,65.1,3.617l-.375-1.055a6,6,0,0,0,1.855-2.77,12.3,12.3,0,0,0,.684-4.254v-.18A12.484,12.484,0,0,0,66.672-8.6a6.98,6.98,0,0,0-1.7-2.863l-.242-.219.375-1.062a5.6,5.6,0,0,1,1.938,1.719,9.326,9.326,0,0,1,1.438,2.762,11.5,11.5,0,0,1,.563,3.152ZM81.906-6.094H75.172V-7.672h6.734Zm0,3.313H75.172v-1.57h6.734Z" transform="translate(359.018 5737)" fill="#12263f"/>
    <path id="Trazado_896855" data-name="Trazado 896855" d="M-115-2.648h-4.406L-120.332,0h-2.055l4.3-11.375h1.773L-112.012,0h-2.062Zm-3.852-1.594h3.3l-1.648-4.719Zm2.242-10.18h2.164l-2.164,2.367h-1.523Zm10.133,7.7a4.7,4.7,0,0,0-.773-.062,1.741,1.741,0,0,0-1.758,1V0h-1.9V-8.453h1.813l.047.945a2.139,2.139,0,0,1,1.906-1.1,1.777,1.777,0,0,1,.672.109Zm4.922,6.875A3.928,3.928,0,0,1-104.484-.98a4.124,4.124,0,0,1-1.121-3.027v-.234a5.072,5.072,0,0,1,.488-2.262,3.716,3.716,0,0,1,1.371-1.551,3.625,3.625,0,0,1,1.969-.555,3.318,3.318,0,0,1,2.668,1.1,4.658,4.658,0,0,1,.941,3.117v.766h-5.523a2.539,2.539,0,0,0,.7,1.656,2.1,2.1,0,0,0,1.543.609,2.571,2.571,0,0,0,2.125-1.055l1.023.977A3.418,3.418,0,0,1-99.656-.262,4.244,4.244,0,0,1-101.559.156Zm-.227-7.242a1.6,1.6,0,0,0-1.262.547,2.835,2.835,0,0,0-.613,1.523h3.617v-.141a2.307,2.307,0,0,0-.508-1.441A1.586,1.586,0,0,0-101.785-7.086ZM-91.645,0a2.93,2.93,0,0,1-.219-.789,2.955,2.955,0,0,1-2.219.945A2.982,2.982,0,0,1-96.16-.57a2.325,2.325,0,0,1-.8-1.8,2.4,2.4,0,0,1,1-2.074,4.865,4.865,0,0,1,2.871-.723h1.164v-.555a1.481,1.481,0,0,0-.367-1.051,1.456,1.456,0,0,0-1.117-.395,1.672,1.672,0,0,0-1.062.324,1,1,0,0,0-.414.824h-1.9a2.107,2.107,0,0,1,.461-1.3,3.071,3.071,0,0,1,1.254-.949,4.4,4.4,0,0,1,1.77-.344,3.547,3.547,0,0,1,2.367.746,2.661,2.661,0,0,1,.906,2.1v3.813a4.321,4.321,0,0,0,.32,1.82V0ZM-93.73-1.367a2.159,2.159,0,0,0,1.059-.273,1.827,1.827,0,0,0,.746-.734V-3.969h-1.023a2.8,2.8,0,0,0-1.586.367,1.189,1.189,0,0,0-.531,1.039,1.109,1.109,0,0,0,.363.871A1.407,1.407,0,0,0-93.73-1.367Zm14.8.539a2.944,2.944,0,0,1-2.375.984,2.624,2.624,0,0,1-2.082-.8A3.423,3.423,0,0,1-84.1-2.977V-8.453h1.9V-3q0,1.609,1.336,1.609A1.876,1.876,0,0,0-79-2.383v-6.07h1.9V0h-1.789ZM-80.02-12h2.164L-80.02-9.633h-1.523Zm7.234,1.492v2.055h1.492v1.406h-1.492v4.719a1.039,1.039,0,0,0,.191.7.888.888,0,0,0,.684.215,2.924,2.924,0,0,0,.664-.078V-.023a4.676,4.676,0,0,1-1.25.18q-2.188,0-2.187-2.414V-7.047h-1.391V-8.453h1.391v-2.055ZM-67.824,0h-1.9V-8.453h1.9ZM-69.84-10.648a1.008,1.008,0,0,1,.277-.727,1.048,1.048,0,0,1,.793-.289,1.061,1.061,0,0,1,.8.289,1,1,0,0,1,.281.727.977.977,0,0,1-.281.715,1.069,1.069,0,0,1-.8.285,1.056,1.056,0,0,1-.793-.285A.984.984,0,0,1-69.84-10.648ZM-63.738,0h-1.9V-12h1.9Zm11.172-.828a2.944,2.944,0,0,1-2.375.984,2.624,2.624,0,0,1-2.082-.8,3.423,3.423,0,0,1-.707-2.328V-8.453h1.9V-3q0,1.609,1.336,1.609a1.876,1.876,0,0,0,1.867-.992v-6.07h1.9V0H-52.52Zm6.148-9.68v2.055h1.492v1.406h-1.492v4.719a1.039,1.039,0,0,0,.191.7.888.888,0,0,0,.684.215,2.924,2.924,0,0,0,.664-.078V-.023a4.676,4.676,0,0,1-1.25.18q-2.187,0-2.187-2.414V-7.047h-1.391V-8.453h1.391v-2.055ZM-41.457,0h-1.9V-8.453h1.9Zm-2.016-10.648a1.008,1.008,0,0,1,.277-.727,1.048,1.048,0,0,1,.793-.289,1.061,1.061,0,0,1,.8.289,1,1,0,0,1,.281.727.977.977,0,0,1-.281.715,1.069,1.069,0,0,1-.8.285,1.056,1.056,0,0,1-.793-.285A.984.984,0,0,1-43.473-10.648ZM-37.371,0h-1.9V-12h1.9Zm4.086,0h-1.9V-8.453h1.9ZM-35.3-10.648a1.008,1.008,0,0,1,.277-.727,1.048,1.048,0,0,1,.793-.289,1.061,1.061,0,0,1,.8.289,1,1,0,0,1,.281.727.977.977,0,0,1-.281.715,1.069,1.069,0,0,1-.8.285,1.056,1.056,0,0,1-.793-.285A.984.984,0,0,1-35.3-10.648Zm6.109,9.133h4.5V0h-6.859V-1.242l4.289-5.68h-4.211V-8.453h6.617v1.2ZM-18.121,0a2.93,2.93,0,0,1-.219-.789,2.955,2.955,0,0,1-2.219.945A2.982,2.982,0,0,1-22.637-.57a2.325,2.325,0,0,1-.8-1.8,2.4,2.4,0,0,1,1-2.074,4.865,4.865,0,0,1,2.871-.723H-18.4v-.555A1.481,1.481,0,0,0-18.77-6.77a1.456,1.456,0,0,0-1.117-.395,1.672,1.672,0,0,0-1.062.324,1,1,0,0,0-.414.824h-1.9a2.107,2.107,0,0,1,.461-1.3,3.071,3.071,0,0,1,1.254-.949,4.4,4.4,0,0,1,1.77-.344,3.547,3.547,0,0,1,2.367.746,2.661,2.661,0,0,1,.906,2.1v3.813a4.321,4.321,0,0,0,.32,1.82V0Zm-2.086-1.367a2.159,2.159,0,0,0,1.059-.273,1.827,1.827,0,0,0,.746-.734V-3.969h-1.023a2.8,2.8,0,0,0-1.586.367,1.189,1.189,0,0,0-.531,1.039,1.109,1.109,0,0,0,.363.871A1.407,1.407,0,0,0-20.207-1.367Zm5.336-2.922a5.026,5.026,0,0,1,.906-3.137,2.9,2.9,0,0,1,2.43-1.184,2.759,2.759,0,0,1,2.172.938V-12h1.9V0H-9.184l-.094-.875A2.8,2.8,0,0,1-11.551.156a2.887,2.887,0,0,1-2.4-1.2A5.21,5.21,0,0,1-14.871-4.289Zm1.9.164a3.519,3.519,0,0,0,.5,2.012,1.61,1.61,0,0,0,1.41.723,1.793,1.793,0,0,0,1.7-1.039V-6.039a1.766,1.766,0,0,0-1.687-1.016,1.622,1.622,0,0,0-1.422.73A3.919,3.919,0,0,0-12.973-4.125ZM-.434,0A2.93,2.93,0,0,1-.652-.789,2.955,2.955,0,0,1-2.871.156,2.982,2.982,0,0,1-4.949-.57a2.325,2.325,0,0,1-.8-1.8,2.4,2.4,0,0,1,1-2.074,4.865,4.865,0,0,1,2.871-.723H-.715v-.555A1.481,1.481,0,0,0-1.082-6.77,1.456,1.456,0,0,0-2.2-7.164a1.672,1.672,0,0,0-1.062.324,1,1,0,0,0-.414.824h-1.9a2.107,2.107,0,0,1,.461-1.3,3.071,3.071,0,0,1,1.254-.949,4.4,4.4,0,0,1,1.77-.344,3.547,3.547,0,0,1,2.367.746,2.661,2.661,0,0,1,.906,2.1v3.813A4.321,4.321,0,0,0,1.5-.133V0ZM-2.52-1.367a2.159,2.159,0,0,0,1.059-.273,1.827,1.827,0,0,0,.746-.734V-3.969H-1.738A2.8,2.8,0,0,0-3.324-3.6a1.189,1.189,0,0,0-.531,1.039,1.109,1.109,0,0,0,.363.871A1.407,1.407,0,0,0-2.52-1.367ZM14.559-4.141a5.033,5.033,0,0,1-.891,3.129A2.852,2.852,0,0,1,11.277.156,2.871,2.871,0,0,1,9.051-.758V3.25h-1.9v-11.7H8.9l.078.859a2.788,2.788,0,0,1,2.273-1.016A2.881,2.881,0,0,1,13.68-7.457a5.167,5.167,0,0,1,.879,3.2ZM12.668-4.3a3.526,3.526,0,0,0-.5-2.008,1.638,1.638,0,0,0-1.441-.742,1.747,1.747,0,0,0-1.672.961v3.75a1.763,1.763,0,0,0,1.688.984,1.636,1.636,0,0,0,1.418-.73A3.881,3.881,0,0,0,12.668-4.3Zm3.141,0A4.984,4.984,0,0,1,16.3-6.543a3.6,3.6,0,0,1,1.383-1.531,3.9,3.9,0,0,1,2.047-.535,3.692,3.692,0,0,1,2.777,1.1A4.333,4.333,0,0,1,23.66-4.586l.008.445a5.029,5.029,0,0,1-.48,2.234A3.551,3.551,0,0,1,21.813-.383a3.925,3.925,0,0,1-2.066.539,3.667,3.667,0,0,1-2.863-1.191,4.563,4.563,0,0,1-1.074-3.176Zm1.9.164A3.406,3.406,0,0,0,18.246-2.1a1.752,1.752,0,0,0,1.5.738,1.733,1.733,0,0,0,1.5-.75,3.762,3.762,0,0,0,.535-2.2,3.362,3.362,0,0,0-.551-2.031,1.759,1.759,0,0,0-1.5-.75,1.743,1.743,0,0,0-1.477.738A3.691,3.691,0,0,0,17.707-4.141ZM29.7-6.719a4.7,4.7,0,0,0-.773-.062,1.741,1.741,0,0,0-1.758,1V0h-1.9V-8.453h1.813l.047.945a2.139,2.139,0,0,1,1.906-1.1,1.777,1.777,0,0,1,.672.109ZM36.9,0H35V-12h1.9Zm1.711-4.3a4.984,4.984,0,0,1,.492-2.238,3.6,3.6,0,0,1,1.383-1.531,3.9,3.9,0,0,1,2.047-.535,3.692,3.692,0,0,1,2.777,1.1,4.333,4.333,0,0,1,1.152,2.922l.008.445a5.029,5.029,0,0,1-.48,2.234A3.551,3.551,0,0,1,44.617-.383a3.925,3.925,0,0,1-2.066.539,3.667,3.667,0,0,1-2.863-1.191,4.563,4.563,0,0,1-1.074-3.176Zm1.9.164A3.406,3.406,0,0,0,41.051-2.1a1.752,1.752,0,0,0,1.5.738,1.733,1.733,0,0,0,1.5-.75,3.762,3.762,0,0,0,.535-2.2,3.362,3.362,0,0,0-.551-2.031,1.759,1.759,0,0,0-1.5-.75,1.743,1.743,0,0,0-1.477.738A3.691,3.691,0,0,0,40.512-4.141ZM52.816-2.3A.861.861,0,0,0,52.4-3.07a4.445,4.445,0,0,0-1.387-.469,7.129,7.129,0,0,1-1.617-.516,2.158,2.158,0,0,1-1.422-1.992,2.25,2.25,0,0,1,.922-1.828,3.644,3.644,0,0,1,2.344-.734,3.792,3.792,0,0,1,2.449.75,2.38,2.38,0,0,1,.934,1.945h-1.9a1.17,1.17,0,0,0-.406-.91,1.557,1.557,0,0,0-1.078-.363,1.682,1.682,0,0,0-1.02.289.911.911,0,0,0-.395.773.769.769,0,0,0,.367.68,5.049,5.049,0,0,0,1.484.488,7.027,7.027,0,0,1,1.754.586,2.484,2.484,0,0,1,.945.816A2.082,2.082,0,0,1,54.684-2.4a2.2,2.2,0,0,1-.945,1.848,4.031,4.031,0,0,1-2.477.707A4.371,4.371,0,0,1,49.41-.219,3.047,3.047,0,0,1,48.145-1.25a2.441,2.441,0,0,1-.453-1.414h1.844a1.338,1.338,0,0,0,.508,1.035,1.973,1.973,0,0,0,1.242.363,1.92,1.92,0,0,0,1.141-.285A.883.883,0,0,0,52.816-2.3ZM67.723-4.141a5.033,5.033,0,0,1-.891,3.129A2.852,2.852,0,0,1,64.441.156a2.871,2.871,0,0,1-2.227-.914V3.25h-1.9v-11.7h1.75l.078.859a2.788,2.788,0,0,1,2.273-1.016,2.881,2.881,0,0,1,2.426,1.152,5.167,5.167,0,0,1,.879,3.2ZM65.832-4.3a3.526,3.526,0,0,0-.5-2.008,1.638,1.638,0,0,0-1.441-.742,1.747,1.747,0,0,0-1.672.961v3.75a1.763,1.763,0,0,0,1.688.984,1.636,1.636,0,0,0,1.418-.73A3.881,3.881,0,0,0,65.832-4.3ZM74.379,0a2.93,2.93,0,0,1-.219-.789,2.955,2.955,0,0,1-2.219.945A2.982,2.982,0,0,1,69.863-.57a2.325,2.325,0,0,1-.8-1.8,2.4,2.4,0,0,1,1-2.074,4.865,4.865,0,0,1,2.871-.723H74.1v-.555A1.481,1.481,0,0,0,73.73-6.77a1.456,1.456,0,0,0-1.117-.395,1.672,1.672,0,0,0-1.062.324,1,1,0,0,0-.414.824h-1.9a2.107,2.107,0,0,1,.461-1.3,3.071,3.071,0,0,1,1.254-.949,4.4,4.4,0,0,1,1.77-.344,3.547,3.547,0,0,1,2.367.746A2.661,2.661,0,0,1,76-5.766v3.813a4.321,4.321,0,0,0,.32,1.82V0ZM72.293-1.367a2.159,2.159,0,0,0,1.059-.273,1.827,1.827,0,0,0,.746-.734V-3.969H73.074a2.8,2.8,0,0,0-1.586.367,1.189,1.189,0,0,0-.531,1.039,1.109,1.109,0,0,0,.363.871A1.407,1.407,0,0,0,72.293-1.367Zm8.07-9.141v2.055h1.492v1.406H80.363v4.719a1.039,1.039,0,0,0,.191.7.888.888,0,0,0,.684.215,2.924,2.924,0,0,0,.664-.078V-.023a4.676,4.676,0,0,1-1.25.18q-2.188,0-2.187-2.414V-7.047H77.074V-8.453h1.391v-2.055ZM87.73-6.719a4.7,4.7,0,0,0-.773-.062,1.741,1.741,0,0,0-1.758,1V0H83.3V-8.453h1.813l.047.945a2.139,2.139,0,0,1,1.906-1.1,1.777,1.777,0,0,1,.672.109ZM88.293-4.3a4.984,4.984,0,0,1,.492-2.238,3.6,3.6,0,0,1,1.383-1.531,3.9,3.9,0,0,1,2.047-.535,3.692,3.692,0,0,1,2.777,1.1,4.333,4.333,0,0,1,1.152,2.922l.008.445a5.029,5.029,0,0,1-.48,2.234A3.551,3.551,0,0,1,94.3-.383,3.925,3.925,0,0,1,92.23.156a3.667,3.667,0,0,1-2.863-1.191,4.563,4.563,0,0,1-1.074-3.176Zm1.9.164A3.406,3.406,0,0,0,90.73-2.1a1.752,1.752,0,0,0,1.5.738,1.733,1.733,0,0,0,1.5-.75,3.762,3.762,0,0,0,.535-2.2,3.362,3.362,0,0,0-.551-2.031,1.759,1.759,0,0,0-1.5-.75,1.743,1.743,0,0,0-1.477.738A3.691,3.691,0,0,0,90.191-4.141ZM99.52-8.453l.055.977a3.039,3.039,0,0,1,2.461-1.133q2.641,0,2.688,3.023V0h-1.9V-5.477a1.741,1.741,0,0,0-.348-1.191,1.462,1.462,0,0,0-1.137-.387,1.829,1.829,0,0,0-1.711,1.039V0h-1.9V-8.453ZM110.379.156A3.928,3.928,0,0,1,107.453-.98a4.124,4.124,0,0,1-1.121-3.027v-.234A5.072,5.072,0,0,1,106.82-6.5a3.716,3.716,0,0,1,1.371-1.551,3.625,3.625,0,0,1,1.969-.555,3.318,3.318,0,0,1,2.668,1.1,4.658,4.658,0,0,1,.941,3.117v.766h-5.523a2.539,2.539,0,0,0,.7,1.656,2.1,2.1,0,0,0,1.543.609,2.571,2.571,0,0,0,2.125-1.055l1.023.977a3.418,3.418,0,0,1-1.355,1.176A4.244,4.244,0,0,1,110.379.156Zm-.227-7.242a1.6,1.6,0,0,0-1.262.547,2.835,2.835,0,0,0-.613,1.523h3.617v-.141a2.307,2.307,0,0,0-.508-1.441A1.586,1.586,0,0,0,110.152-7.086ZM119.98-2.3a.861.861,0,0,0-.418-.773,4.445,4.445,0,0,0-1.387-.469,7.129,7.129,0,0,1-1.617-.516,2.158,2.158,0,0,1-1.422-1.992,2.25,2.25,0,0,1,.922-1.828,3.644,3.644,0,0,1,2.344-.734,3.792,3.792,0,0,1,2.449.75,2.38,2.38,0,0,1,.934,1.945h-1.9a1.17,1.17,0,0,0-.406-.91,1.557,1.557,0,0,0-1.078-.363,1.682,1.682,0,0,0-1.02.289.911.911,0,0,0-.395.773.769.769,0,0,0,.367.68,5.049,5.049,0,0,0,1.484.488,7.027,7.027,0,0,1,1.754.586,2.484,2.484,0,0,1,.945.816,2.082,2.082,0,0,1,.309,1.156A2.2,2.2,0,0,1,120.9-.551a4.031,4.031,0,0,1-2.477.707,4.371,4.371,0,0,1-1.852-.375,3.047,3.047,0,0,1-1.266-1.031,2.441,2.441,0,0,1-.453-1.414H116.7a1.338,1.338,0,0,0,.508,1.035,1.973,1.973,0,0,0,1.242.363,1.92,1.92,0,0,0,1.141-.285A.883.883,0,0,0,119.98-2.3Z" transform="translate(591.018 5724)" fill="#12263f"/>
    <path id="Trazado_896856" data-name="Trazado 896856" d="M-5.1-16.078a43.846,43.846,0,0,1,1.531-11.58A37.517,37.517,0,0,1,.916-37.939,20.023,20.023,0,0,1,7.26-44.625l.793,2.215a16.139,16.139,0,0,0-3.582,3.746A28.447,28.447,0,0,0,1.3-32.812,42.183,42.183,0,0,0-.957-25.2a48.23,48.23,0,0,0-.861,9.584A45.834,45.834,0,0,0-.52-4.621,36.885,36.885,0,0,0,3.049,4.689a18.923,18.923,0,0,0,5,6.057L7.26,12.852A20.288,20.288,0,0,1,.834,6.139a36.346,36.346,0,0,1-4.443-10.2A46.325,46.325,0,0,1-5.1-16.078Z" transform="translate(452.018 5753)" fill="#12263f"/>
    <path id="Trazado_896857" data-name="Trazado 896857" d="M4.936-15.668a44.572,44.572,0,0,1-1.49,11.58A36.618,36.618,0,0,1-.971,6.1a20.417,20.417,0,0,1-6.453,6.754l-.793-2.105A18.149,18.149,0,0,0-3.254,4.813a36.523,36.523,0,0,0,3.6-9.365A48.612,48.612,0,0,0,1.654-16.16,44.984,44.984,0,0,0,.342-27.084,38.2,38.2,0,0,0-3.281-36.49,18.187,18.187,0,0,0-8.217-42.52l.793-2.105A20.507,20.507,0,0,1-1.053-37.9,37.355,37.355,0,0,1,3.4-27.645,45.482,45.482,0,0,1,4.936-15.668Z" transform="translate(727.018 5753)" fill="#12263f"/>
    <path id="Trazado_896858" data-name="Trazado 896858" d="M-15.625-7.266l2.391-4.109h2.281l-3.437,5.641L-10.875,0h-2.3l-2.445-4.172L-18.078,0h-2.3l3.523-5.734L-20.3-11.375h2.281ZM-.594,0H-2.484V-9.133l-2.789.953v-1.6l4.438-1.633h.242ZM10.773-4.789a6.2,6.2,0,0,1-.918,3.7A3.242,3.242,0,0,1,7.063.156,3.285,3.285,0,0,1,4.285-1.059a5.94,5.94,0,0,1-.957-3.6V-6.625a6.11,6.11,0,0,1,.918-3.68,3.272,3.272,0,0,1,2.8-1.227,3.291,3.291,0,0,1,2.785,1.2,5.924,5.924,0,0,1,.941,3.578Zm-1.9-2.125a4.813,4.813,0,0,0-.437-2.348,1.493,1.493,0,0,0-1.391-.746A1.492,1.492,0,0,0,5.68-9.3a4.448,4.448,0,0,0-.461,2.207v2.578a4.937,4.937,0,0,0,.445,2.375,1.5,1.5,0,0,0,1.4.781,1.469,1.469,0,0,0,1.352-.723,4.645,4.645,0,0,0,.461-2.262ZM19.867-4.789a6.2,6.2,0,0,1-.918,3.7A3.242,3.242,0,0,1,16.156.156a3.285,3.285,0,0,1-2.777-1.215,5.94,5.94,0,0,1-.957-3.6V-6.625a6.11,6.11,0,0,1,.918-3.68,3.272,3.272,0,0,1,2.8-1.227,3.291,3.291,0,0,1,2.785,1.2,5.924,5.924,0,0,1,.941,3.578Zm-1.9-2.125a4.813,4.813,0,0,0-.437-2.348,1.493,1.493,0,0,0-1.391-.746,1.492,1.492,0,0,0-1.367.707,4.448,4.448,0,0,0-.461,2.207v2.578a4.937,4.937,0,0,0,.445,2.375,1.5,1.5,0,0,0,1.4.781,1.469,1.469,0,0,0,1.352-.723,4.645,4.645,0,0,0,.461-2.262Z" transform="translate(758.018 5737)" fill="#12263f"/>
    <path id="Trazado_896859" data-name="Trazado 896859" d="M-89.449-2.648h-4.406L-94.777,0h-2.055l4.3-11.375h1.773L-86.457,0H-88.52ZM-93.3-4.242H-90l-1.648-4.719Zm2.242-10.18h2.164l-2.164,2.367h-1.523Zm10.133,7.7a4.7,4.7,0,0,0-.773-.062,1.741,1.741,0,0,0-1.758,1V0h-1.9V-8.453h1.813l.047.945a2.139,2.139,0,0,1,1.906-1.1,1.777,1.777,0,0,1,.672.109ZM-76,.156A3.928,3.928,0,0,1-78.93-.98a4.124,4.124,0,0,1-1.121-3.027v-.234A5.072,5.072,0,0,1-79.562-6.5a3.716,3.716,0,0,1,1.371-1.551,3.625,3.625,0,0,1,1.969-.555,3.318,3.318,0,0,1,2.668,1.1,4.658,4.658,0,0,1,.941,3.117v.766h-5.523a2.539,2.539,0,0,0,.7,1.656,2.1,2.1,0,0,0,1.543.609A2.571,2.571,0,0,0-73.77-2.414l1.023.977A3.418,3.418,0,0,1-74.1-.262,4.244,4.244,0,0,1-76,.156Zm-.227-7.242a1.6,1.6,0,0,0-1.262.547,2.835,2.835,0,0,0-.613,1.523h3.617v-.141A2.307,2.307,0,0,0-75-6.6,1.586,1.586,0,0,0-76.23-7.086ZM-66.09,0a2.93,2.93,0,0,1-.219-.789,2.955,2.955,0,0,1-2.219.945A2.982,2.982,0,0,1-70.605-.57a2.325,2.325,0,0,1-.8-1.8,2.4,2.4,0,0,1,1-2.074,4.865,4.865,0,0,1,2.871-.723h1.164v-.555a1.481,1.481,0,0,0-.367-1.051,1.456,1.456,0,0,0-1.117-.395,1.672,1.672,0,0,0-1.062.324,1,1,0,0,0-.414.824h-1.9a2.107,2.107,0,0,1,.461-1.3,3.071,3.071,0,0,1,1.254-.949,4.4,4.4,0,0,1,1.77-.344,3.547,3.547,0,0,1,2.367.746,2.661,2.661,0,0,1,.906,2.1v3.813a4.321,4.321,0,0,0,.32,1.82V0Zm-2.086-1.367a2.159,2.159,0,0,0,1.059-.273,1.827,1.827,0,0,0,.746-.734V-3.969h-1.023A2.8,2.8,0,0,0-68.98-3.6a1.189,1.189,0,0,0-.531,1.039,1.109,1.109,0,0,0,.363.871A1.407,1.407,0,0,0-68.176-1.367Zm12.055-9.141v2.055h1.492v1.406h-1.492v4.719a1.039,1.039,0,0,0,.191.7.888.888,0,0,0,.684.215,2.924,2.924,0,0,0,.664-.078V-.023a4.676,4.676,0,0,1-1.25.18q-2.187,0-2.187-2.414V-7.047H-59.41V-8.453h1.391v-2.055Zm2.352,6.2a4.984,4.984,0,0,1,.492-2.238,3.6,3.6,0,0,1,1.383-1.531,3.9,3.9,0,0,1,2.047-.535,3.692,3.692,0,0,1,2.777,1.1,4.333,4.333,0,0,1,1.152,2.922l.008.445a5.029,5.029,0,0,1-.48,2.234A3.551,3.551,0,0,1-47.766-.383a3.925,3.925,0,0,1-2.066.539A3.667,3.667,0,0,1-52.7-1.035,4.563,4.563,0,0,1-53.77-4.211Zm1.9.164A3.406,3.406,0,0,0-51.332-2.1a1.752,1.752,0,0,0,1.5.738,1.733,1.733,0,0,0,1.5-.75A3.762,3.762,0,0,0-47.8-4.3a3.362,3.362,0,0,0-.551-2.031,1.759,1.759,0,0,0-1.5-.75,1.743,1.743,0,0,0-1.477.738A3.691,3.691,0,0,0-51.871-4.141Zm9.945-6.367v2.055h1.492v1.406h-1.492v4.719a1.039,1.039,0,0,0,.191.7.888.888,0,0,0,.684.215,2.924,2.924,0,0,0,.664-.078V-.023a4.676,4.676,0,0,1-1.25.18q-2.187,0-2.187-2.414V-7.047h-1.391V-8.453h1.391v-2.055ZM-33.934,0a2.93,2.93,0,0,1-.219-.789,2.955,2.955,0,0,1-2.219.945A2.982,2.982,0,0,1-38.449-.57a2.325,2.325,0,0,1-.8-1.8,2.4,2.4,0,0,1,1-2.074,4.865,4.865,0,0,1,2.871-.723h1.164v-.555a1.481,1.481,0,0,0-.367-1.051A1.456,1.456,0,0,0-35.7-7.164a1.672,1.672,0,0,0-1.062.324,1,1,0,0,0-.414.824h-1.9a2.107,2.107,0,0,1,.461-1.3,3.071,3.071,0,0,1,1.254-.949,4.4,4.4,0,0,1,1.77-.344,3.547,3.547,0,0,1,2.367.746,2.661,2.661,0,0,1,.906,2.1v3.813A4.321,4.321,0,0,0-32-.133V0ZM-36.02-1.367a2.16,2.16,0,0,0,1.059-.273,1.827,1.827,0,0,0,.746-.734V-3.969h-1.023a2.8,2.8,0,0,0-1.586.367,1.189,1.189,0,0,0-.531,1.039,1.109,1.109,0,0,0,.363.871A1.407,1.407,0,0,0-36.02-1.367ZM-28.309,0h-1.9V-12h1.9Zm5.7-4.289a5.026,5.026,0,0,1,.906-3.137,2.9,2.9,0,0,1,2.43-1.184,2.759,2.759,0,0,1,2.172.938V-12h1.9V0h-1.719l-.094-.875A2.8,2.8,0,0,1-19.293.156a2.887,2.887,0,0,1-2.4-1.2A5.21,5.21,0,0,1-22.613-4.289Zm1.9.164a3.519,3.519,0,0,0,.5,2.012,1.61,1.61,0,0,0,1.41.723,1.793,1.793,0,0,0,1.7-1.039V-6.039a1.766,1.766,0,0,0-1.687-1.016,1.622,1.622,0,0,0-1.422.73A3.918,3.918,0,0,0-20.715-4.125ZM-9.5.156A3.928,3.928,0,0,1-12.43-.98a4.124,4.124,0,0,1-1.121-3.027v-.234A5.072,5.072,0,0,1-13.062-6.5a3.716,3.716,0,0,1,1.371-1.551,3.625,3.625,0,0,1,1.969-.555,3.318,3.318,0,0,1,2.668,1.1,4.658,4.658,0,0,1,.941,3.117v.766h-5.523a2.539,2.539,0,0,0,.7,1.656,2.1,2.1,0,0,0,1.543.609A2.571,2.571,0,0,0-7.27-2.414l1.023.977A3.418,3.418,0,0,1-7.6-.262,4.244,4.244,0,0,1-9.5.156ZM-9.73-7.086a1.6,1.6,0,0,0-1.262.547,2.835,2.835,0,0,0-.613,1.523h3.617v-.141A2.307,2.307,0,0,0-8.5-6.6,1.586,1.586,0,0,0-9.73-7.086ZM-2.621,0h-1.9V-12h1.9ZM5.215-8.453l.055.883A3.042,3.042,0,0,1,7.707-8.609a2.337,2.337,0,0,1,2.32,1.3,3,3,0,0,1,2.594-1.3,2.636,2.636,0,0,1,2.082.773,3.405,3.405,0,0,1,.7,2.281V0H13.5V-5.5a1.681,1.681,0,0,0-.352-1.18,1.539,1.539,0,0,0-1.164-.375,1.581,1.581,0,0,0-1.059.348,1.833,1.833,0,0,0-.574.91L10.363,0h-1.9V-5.562A1.354,1.354,0,0,0,6.941-7.055a1.671,1.671,0,0,0-1.617.93V0h-1.9V-8.453ZM21.074.156A3.928,3.928,0,0,1,18.148-.98a4.124,4.124,0,0,1-1.121-3.027v-.234A5.072,5.072,0,0,1,17.516-6.5a3.716,3.716,0,0,1,1.371-1.551,3.625,3.625,0,0,1,1.969-.555,3.318,3.318,0,0,1,2.668,1.1,4.658,4.658,0,0,1,.941,3.117v.766H18.941a2.539,2.539,0,0,0,.7,1.656,2.1,2.1,0,0,0,1.543.609,2.571,2.571,0,0,0,2.125-1.055l1.023.977A3.418,3.418,0,0,1,22.977-.262,4.244,4.244,0,0,1,21.074.156Zm-.227-7.242a1.6,1.6,0,0,0-1.262.547,2.835,2.835,0,0,0-.613,1.523H22.59v-.141A2.307,2.307,0,0,0,22.082-6.6,1.586,1.586,0,0,0,20.848-7.086Zm7.469-3.422v2.055h1.492v1.406H28.316v4.719a1.039,1.039,0,0,0,.191.7.888.888,0,0,0,.684.215,2.924,2.924,0,0,0,.664-.078V-.023a4.676,4.676,0,0,1-1.25.18q-2.188,0-2.187-2.414V-7.047H25.027V-8.453h1.391v-2.055Zm7.367,3.789a4.7,4.7,0,0,0-.773-.062,1.741,1.741,0,0,0-1.758,1V0h-1.9V-8.453h1.813l.047.945a2.139,2.139,0,0,1,1.906-1.1,1.777,1.777,0,0,1,.672.109ZM36.246-4.3a4.984,4.984,0,0,1,.492-2.238,3.6,3.6,0,0,1,1.383-1.531,3.9,3.9,0,0,1,2.047-.535,3.692,3.692,0,0,1,2.777,1.1A4.333,4.333,0,0,1,44.1-4.586l.008.445a5.029,5.029,0,0,1-.48,2.234A3.551,3.551,0,0,1,42.25-.383a3.925,3.925,0,0,1-2.066.539A3.667,3.667,0,0,1,37.32-1.035a4.563,4.563,0,0,1-1.074-3.176Zm1.9.164A3.406,3.406,0,0,0,38.684-2.1a1.752,1.752,0,0,0,1.5.738,1.733,1.733,0,0,0,1.5-.75,3.762,3.762,0,0,0,.535-2.2,3.362,3.362,0,0,0-.551-2.031,1.759,1.759,0,0,0-1.5-.75,1.743,1.743,0,0,0-1.477.738A3.691,3.691,0,0,0,38.145-4.141Zm11.2-.148a5.026,5.026,0,0,1,.906-3.137,2.9,2.9,0,0,1,2.43-1.184,2.759,2.759,0,0,1,2.172.938V-12h1.9V0H55.027l-.094-.875A2.8,2.8,0,0,1,52.66.156a2.887,2.887,0,0,1-2.4-1.2A5.21,5.21,0,0,1,49.34-4.289Zm1.9.164a3.519,3.519,0,0,0,.5,2.012,1.61,1.61,0,0,0,1.41.723,1.793,1.793,0,0,0,1.7-1.039V-6.039A1.766,1.766,0,0,0,53.16-7.055a1.622,1.622,0,0,0-1.422.73A3.919,3.919,0,0,0,51.238-4.125ZM62.449.156A3.928,3.928,0,0,1,59.523-.98,4.124,4.124,0,0,1,58.4-4.008v-.234A5.072,5.072,0,0,1,58.891-6.5a3.716,3.716,0,0,1,1.371-1.551,3.625,3.625,0,0,1,1.969-.555,3.318,3.318,0,0,1,2.668,1.1,4.658,4.658,0,0,1,.941,3.117v.766H60.316a2.539,2.539,0,0,0,.7,1.656,2.1,2.1,0,0,0,1.543.609,2.571,2.571,0,0,0,2.125-1.055l1.023.977A3.418,3.418,0,0,1,64.352-.262,4.244,4.244,0,0,1,62.449.156Zm-.227-7.242a1.6,1.6,0,0,0-1.262.547,2.835,2.835,0,0,0-.613,1.523h3.617v-.141A2.307,2.307,0,0,0,63.457-6.6,1.586,1.586,0,0,0,62.223-7.086Zm11.453-3.422v2.055h1.492v1.406H73.676v4.719a1.039,1.039,0,0,0,.191.7.888.888,0,0,0,.684.215,2.924,2.924,0,0,0,.664-.078V-.023a4.676,4.676,0,0,1-1.25.18q-2.188,0-2.187-2.414V-7.047H70.387V-8.453h1.391v-2.055ZM80.34.156A3.928,3.928,0,0,1,77.414-.98a4.124,4.124,0,0,1-1.121-3.027v-.234A5.072,5.072,0,0,1,76.781-6.5a3.716,3.716,0,0,1,1.371-1.551,3.625,3.625,0,0,1,1.969-.555,3.318,3.318,0,0,1,2.668,1.1,4.658,4.658,0,0,1,.941,3.117v.766H78.207a2.539,2.539,0,0,0,.7,1.656,2.1,2.1,0,0,0,1.543.609,2.571,2.571,0,0,0,2.125-1.055l1.023.977A3.418,3.418,0,0,1,82.242-.262,4.244,4.244,0,0,1,80.34.156Zm-.227-7.242a1.6,1.6,0,0,0-1.262.547,2.835,2.835,0,0,0-.613,1.523h3.617v-.141A2.307,2.307,0,0,0,81.348-6.6,1.586,1.586,0,0,0,80.113-7.086ZM87.223,0h-1.9V-12h1.9ZM94.34,0a2.93,2.93,0,0,1-.219-.789A2.955,2.955,0,0,1,91.9.156,2.982,2.982,0,0,1,89.824-.57a2.325,2.325,0,0,1-.8-1.8,2.4,2.4,0,0,1,1-2.074,4.865,4.865,0,0,1,2.871-.723h1.164v-.555a1.481,1.481,0,0,0-.367-1.051,1.456,1.456,0,0,0-1.117-.395,1.672,1.672,0,0,0-1.062.324,1,1,0,0,0-.414.824H89.2a2.107,2.107,0,0,1,.461-1.3,3.071,3.071,0,0,1,1.254-.949,4.4,4.4,0,0,1,1.77-.344,3.547,3.547,0,0,1,2.367.746,2.661,2.661,0,0,1,.906,2.1v3.813a4.321,4.321,0,0,0,.32,1.82V0ZM92.254-1.367a2.159,2.159,0,0,0,1.059-.273,1.827,1.827,0,0,0,.746-.734V-3.969H93.035a2.8,2.8,0,0,0-1.586.367,1.189,1.189,0,0,0-.531,1.039,1.109,1.109,0,0,0,.363.871A1.407,1.407,0,0,0,92.254-1.367Z" transform="translate(591.018 5751)" fill="#12263f"/>
    <path id="Trazado_896850" data-name="Trazado 896850" d="M6446.625-5625.255h246.506" transform="translate(-5986.982 11356.255)" fill="none" stroke="#000" stroke-width="1"/>
  </g>
</svg>
