<svg xmlns="http://www.w3.org/2000/svg" width="525" height="93" viewBox="0 0 525 93">
  <g id="Grupo_1113920" data-name="Grupo 1113920" transform="translate(-810.018 -5885.507)">
    <path id="Trazado_896884" data-name="Trazado 896884" d="M0,0H525V93H0Z" transform="translate(810.018 5885.507)" fill="#ffedee"/>
    <path id="Trazado_896885" data-name="Trazado 896885" d="M-75.469-2.648h-4.406L-80.8,0h-2.055l4.3-11.375h1.773L-72.477,0h-2.062ZM-79.32-4.242h3.3l-1.648-4.719Zm15.352.1a5.033,5.033,0,0,1-.891,3.129A2.852,2.852,0,0,1-67.25.156a2.871,2.871,0,0,1-2.227-.914V3.25h-1.9v-11.7h1.75l.078.859a2.788,2.788,0,0,1,2.273-1.016,2.881,2.881,0,0,1,2.426,1.152,5.167,5.167,0,0,1,.879,3.2ZM-65.859-4.3a3.526,3.526,0,0,0-.5-2.008A1.638,1.638,0,0,0-67.8-7.055a1.747,1.747,0,0,0-1.672.961v3.75a1.763,1.763,0,0,0,1.688.984,1.636,1.636,0,0,0,1.418-.73A3.881,3.881,0,0,0-65.859-4.3Zm7.922-2.414a4.7,4.7,0,0,0-.773-.062,1.741,1.741,0,0,0-1.758,1V0h-1.9V-8.453h1.813l.047.945a2.139,2.139,0,0,1,1.906-1.1,1.777,1.777,0,0,1,.672.109Zm.563,2.414a4.984,4.984,0,0,1,.492-2.238A3.6,3.6,0,0,1-55.5-8.074a3.9,3.9,0,0,1,2.047-.535,3.692,3.692,0,0,1,2.777,1.1,4.333,4.333,0,0,1,1.152,2.922l.008.445A5.029,5.029,0,0,1-50-1.906,3.551,3.551,0,0,1-51.371-.383a3.925,3.925,0,0,1-2.066.539A3.667,3.667,0,0,1-56.3-1.035a4.563,4.563,0,0,1-1.074-3.176Zm1.9.164A3.406,3.406,0,0,0-54.937-2.1a1.752,1.752,0,0,0,1.5.738,1.733,1.733,0,0,0,1.5-.75,3.762,3.762,0,0,0,.535-2.2,3.362,3.362,0,0,0-.551-2.031,1.759,1.759,0,0,0-1.5-.75,1.743,1.743,0,0,0-1.477.738A3.691,3.691,0,0,0-55.477-4.141Zm10.43,1.734,1.789-6.047H-41.3L-44.227,0h-1.648l-2.953-8.453h1.969ZM-36.391.156A3.928,3.928,0,0,1-39.316-.98a4.124,4.124,0,0,1-1.121-3.027v-.234A5.072,5.072,0,0,1-39.949-6.5a3.716,3.716,0,0,1,1.371-1.551,3.625,3.625,0,0,1,1.969-.555,3.318,3.318,0,0,1,2.668,1.1A4.658,4.658,0,0,1-33-4.391v.766h-5.523a2.539,2.539,0,0,0,.7,1.656,2.1,2.1,0,0,0,1.543.609,2.571,2.571,0,0,0,2.125-1.055l1.023.977A3.418,3.418,0,0,1-34.488-.262,4.244,4.244,0,0,1-36.391.156Zm-.227-7.242a1.6,1.6,0,0,0-1.262.547,2.835,2.835,0,0,0-.613,1.523h3.617v-.141A2.307,2.307,0,0,0-35.383-6.6,1.586,1.586,0,0,0-36.617-7.086Zm8.563,5.727a1.716,1.716,0,0,0,1.18-.414,1.415,1.415,0,0,0,.5-1.023h1.789a2.789,2.789,0,0,1-.492,1.473,3.228,3.228,0,0,1-1.25,1.082,3.725,3.725,0,0,1-1.7.4A3.6,3.6,0,0,1-30.844-.992a4.555,4.555,0,0,1-1.039-3.172v-.2a4.479,4.479,0,0,1,1.031-3.09,3.571,3.571,0,0,1,2.813-1.16,3.473,3.473,0,0,1,2.457.879,3.148,3.148,0,0,1,1,2.309h-1.789a1.738,1.738,0,0,0-.5-1.2,1.6,1.6,0,0,0-1.184-.469,1.671,1.671,0,0,0-1.422.668,3.408,3.408,0,0,0-.508,2.027v.3a3.465,3.465,0,0,0,.5,2.051A1.669,1.669,0,0,0-28.055-1.359Zm6.773-6.172A2.971,2.971,0,0,1-18.93-8.609q2.7,0,2.742,3.086V0h-1.9V-5.453a1.669,1.669,0,0,0-.379-1.238,1.549,1.549,0,0,0-1.113-.363,1.829,1.829,0,0,0-1.7,1.016V0h-1.9V-12h1.9ZM-9.219,0a2.93,2.93,0,0,1-.219-.789,2.955,2.955,0,0,1-2.219.945A2.982,2.982,0,0,1-13.734-.57a2.325,2.325,0,0,1-.8-1.8,2.4,2.4,0,0,1,1-2.074,4.865,4.865,0,0,1,2.871-.723H-9.5v-.555A1.481,1.481,0,0,0-9.867-6.77a1.456,1.456,0,0,0-1.117-.395,1.672,1.672,0,0,0-1.062.324,1,1,0,0,0-.414.824h-1.9a2.107,2.107,0,0,1,.461-1.3,3.071,3.071,0,0,1,1.254-.949,4.4,4.4,0,0,1,1.77-.344,3.547,3.547,0,0,1,2.367.746,2.661,2.661,0,0,1,.906,2.1v3.813a4.321,4.321,0,0,0,.32,1.82V0ZM-11.3-1.367a2.159,2.159,0,0,0,1.059-.273A1.827,1.827,0,0,0-9.5-2.375V-3.969h-1.023a2.8,2.8,0,0,0-1.586.367,1.189,1.189,0,0,0-.531,1.039,1.109,1.109,0,0,0,.363.871A1.407,1.407,0,0,0-11.3-1.367Zm7.477-7.086.055.883A3.042,3.042,0,0,1-1.336-8.609a2.337,2.337,0,0,1,2.32,1.3,3,3,0,0,1,2.594-1.3,2.636,2.636,0,0,1,2.082.773,3.405,3.405,0,0,1,.7,2.281V0h-1.9V-5.5a1.681,1.681,0,0,0-.352-1.18,1.539,1.539,0,0,0-1.164-.375,1.581,1.581,0,0,0-1.059.348,1.833,1.833,0,0,0-.574.91L1.32,0h-1.9V-5.562A1.354,1.354,0,0,0-2.1-7.055a1.671,1.671,0,0,0-1.617.93V0h-1.9V-8.453ZM10.328,0H8.43V-8.453h1.9ZM8.313-10.648a1.008,1.008,0,0,1,.277-.727,1.048,1.048,0,0,1,.793-.289,1.061,1.061,0,0,1,.8.289,1,1,0,0,1,.281.727.977.977,0,0,1-.281.715,1.069,1.069,0,0,1-.8.285,1.056,1.056,0,0,1-.793-.285A.984.984,0,0,1,8.313-10.648Zm7.8,10.8A3.928,3.928,0,0,1,13.191-.98,4.124,4.124,0,0,1,12.07-4.008v-.234A5.072,5.072,0,0,1,12.559-6.5,3.716,3.716,0,0,1,13.93-8.055,3.625,3.625,0,0,1,15.9-8.609a3.318,3.318,0,0,1,2.668,1.1,4.658,4.658,0,0,1,.941,3.117v.766H13.984a2.539,2.539,0,0,0,.7,1.656,2.1,2.1,0,0,0,1.543.609,2.571,2.571,0,0,0,2.125-1.055l1.023.977A3.418,3.418,0,0,1,18.02-.262,4.244,4.244,0,0,1,16.117.156Zm-.227-7.242a1.6,1.6,0,0,0-1.262.547,2.835,2.835,0,0,0-.613,1.523h3.617v-.141A2.307,2.307,0,0,0,17.125-6.6,1.586,1.586,0,0,0,15.891-7.086Zm6.852-1.367.055.977a3.039,3.039,0,0,1,2.461-1.133q2.641,0,2.688,3.023V0h-1.9V-5.477A1.741,1.741,0,0,0,25.7-6.668a1.462,1.462,0,0,0-1.137-.387,1.829,1.829,0,0,0-1.711,1.039V0h-1.9V-8.453Zm9.516-2.055v2.055H33.75v1.406H32.258v4.719a1.039,1.039,0,0,0,.191.7.888.888,0,0,0,.684.215,2.924,2.924,0,0,0,.664-.078V-.023a4.676,4.676,0,0,1-1.25.18q-2.188,0-2.187-2.414V-7.047H28.969V-8.453h1.391v-2.055Zm2.352,6.2A4.984,4.984,0,0,1,35.1-6.543a3.6,3.6,0,0,1,1.383-1.531,3.9,3.9,0,0,1,2.047-.535,3.692,3.692,0,0,1,2.777,1.1,4.333,4.333,0,0,1,1.152,2.922l.008.445a5.029,5.029,0,0,1-.48,2.234A3.551,3.551,0,0,1,40.613-.383a3.925,3.925,0,0,1-2.066.539,3.667,3.667,0,0,1-2.863-1.191,4.563,4.563,0,0,1-1.074-3.176Zm1.9.164A3.406,3.406,0,0,0,37.047-2.1a1.752,1.752,0,0,0,1.5.738,1.733,1.733,0,0,0,1.5-.75,3.762,3.762,0,0,0,.535-2.2,3.362,3.362,0,0,0-.551-2.031,1.759,1.759,0,0,0-1.5-.75,1.743,1.743,0,0,0-1.477.738A3.691,3.691,0,0,0,36.508-4.141Zm11.578-.484a11.9,11.9,0,0,1,.484-3.426,9.4,9.4,0,0,1,1.422-2.9,5.646,5.646,0,0,1,1.984-1.793l.375,1.109a5.8,5.8,0,0,0-1.785,2.551,11.424,11.424,0,0,0-.746,3.926l-.008.672A12.42,12.42,0,0,0,50.48-.262a6.224,6.224,0,0,0,1.871,2.824l-.375,1.055a5.655,5.655,0,0,1-1.988-1.8,9.4,9.4,0,0,1-1.422-2.9A12.374,12.374,0,0,1,48.086-4.625Zm5.352-4.562a2.283,2.283,0,0,1,.664-1.691,2.363,2.363,0,0,1,1.742-.66,2.371,2.371,0,0,1,1.754.66,2.34,2.34,0,0,1,.66,1.73v.563a2.267,2.267,0,0,1-.66,1.68,2.358,2.358,0,0,1-1.738.656,2.433,2.433,0,0,1-1.738-.645,2.275,2.275,0,0,1-.684-1.738Zm1.328.6a1.248,1.248,0,0,0,.3.871,1.019,1.019,0,0,0,.793.332,1,1,0,0,0,.781-.332,1.3,1.3,0,0,0,.3-.9v-.57a1.262,1.262,0,0,0-.3-.875,1.013,1.013,0,0,0-.793-.336.984.984,0,0,0-.785.34,1.322,1.322,0,0,0-.293.895Zm4.141,5.8a2.236,2.236,0,0,1,.68-1.7,2.411,2.411,0,0,1,1.734-.648,2.407,2.407,0,0,1,1.738.648,2.312,2.312,0,0,1,.676,1.75v.555A2.285,2.285,0,0,1,63.082-.5a2.344,2.344,0,0,1-1.746.66A2.413,2.413,0,0,1,59.574-.5a2.3,2.3,0,0,1-.668-1.723Zm1.328.609a1.246,1.246,0,0,0,.309.871,1.023,1.023,0,0,0,.793.34.991.991,0,0,0,.785-.324,1.333,1.333,0,0,0,.285-.91v-.586a1.235,1.235,0,0,0-.3-.875,1.019,1.019,0,0,0-.781-.328,1.015,1.015,0,0,0-.785.328,1.291,1.291,0,0,0-.3.906ZM56.25-.852l-.977-.562L60.828-10.3l.977.563ZM69.047-4.5a11.754,11.754,0,0,1-.477,3.348,9.485,9.485,0,0,1-1.445,2.938A5.66,5.66,0,0,1,65.1,3.617l-.375-1.055a6,6,0,0,0,1.855-2.77,12.3,12.3,0,0,0,.684-4.254v-.18A12.484,12.484,0,0,0,66.672-8.6a6.98,6.98,0,0,0-1.7-2.863l-.242-.219.375-1.062a5.6,5.6,0,0,1,1.938,1.719,9.326,9.326,0,0,1,1.438,2.762,11.5,11.5,0,0,1,.563,3.152ZM81.906-6.094H75.172V-7.672h6.734Zm0,3.313H75.172v-1.57h6.734Z" transform="translate(974.018 5938.507)" fill="#12263f"/>
    <path id="Trazado_896886" data-name="Trazado 896886" d="M-9.406,0H-11.3V-9.133l-2.789.953v-1.6l4.438-1.633h.242Zm4.344,2.563-1.023-.609A5.52,5.52,0,0,0-5.465.715,3.7,3.7,0,0,0-5.289-.359V-1.836h1.711L-3.586-.469A3.81,3.81,0,0,1-4,1.191,4.124,4.124,0,0,1-5.062,2.563ZM3.2,0H1.313V-9.133l-2.789.953v-1.6l4.438-1.633H3.2ZM7.664-5.641l.617-5.734h6.109v1.641H9.859L9.547-7.016a3.512,3.512,0,0,1,1.781-.453A3.169,3.169,0,0,1,13.855-6.43a4.118,4.118,0,0,1,.9,2.8,3.79,3.79,0,0,1-1,2.762A3.65,3.65,0,0,1,11.016.156,3.822,3.822,0,0,1,8.426-.73,3.206,3.206,0,0,1,7.313-3.07H9.148A2,2,0,0,0,9.742-1.8a1.806,1.806,0,0,0,1.266.441,1.632,1.632,0,0,0,1.363-.625,2.7,2.7,0,0,0,.488-1.7,2.384,2.384,0,0,0-.539-1.645,1.885,1.885,0,0,0-1.484-.605,2.469,2.469,0,0,0-.875.137,2.478,2.478,0,0,0-.781.535Z" transform="translate(1103.037 5925.507)" fill="#12263f"/>
    <path id="Trazado_896887" data-name="Trazado 896887" d="M-5.1-16.078a43.846,43.846,0,0,1,1.531-11.58A37.517,37.517,0,0,1,.916-37.939,20.023,20.023,0,0,1,7.26-44.625l.793,2.215a16.139,16.139,0,0,0-3.582,3.746A28.447,28.447,0,0,0,1.3-32.812,42.183,42.183,0,0,0-.957-25.2a48.23,48.23,0,0,0-.861,9.584A45.834,45.834,0,0,0-.52-4.621,36.885,36.885,0,0,0,3.049,4.689a18.923,18.923,0,0,0,5,6.057L7.26,12.852A20.288,20.288,0,0,1,.834,6.139a36.346,36.346,0,0,1-4.443-10.2A46.325,46.325,0,0,1-5.1-16.078Z" transform="translate(1071.228 5954.507)" fill="#12263f"/>
    <path id="Trazado_896888" data-name="Trazado 896888" d="M4.936-15.668a44.572,44.572,0,0,1-1.49,11.58A36.618,36.618,0,0,1-.971,6.1a20.417,20.417,0,0,1-6.453,6.754l-.793-2.105A18.149,18.149,0,0,0-3.254,4.813a36.523,36.523,0,0,0,3.6-9.365A48.612,48.612,0,0,0,1.654-16.16,44.984,44.984,0,0,0,.342-27.084,38.2,38.2,0,0,0-3.281-36.49,18.187,18.187,0,0,0-8.217-42.52l.793-2.105A20.507,20.507,0,0,1-1.053-37.9,37.355,37.355,0,0,1,3.4-27.645,45.482,45.482,0,0,1,4.936-15.668Z" transform="translate(1131.715 5954.507)" fill="#12263f"/>
    <path id="Trazado_896889" data-name="Trazado 896889" d="M-51.9-7.266l2.391-4.109h2.281l-3.437,5.641L-47.148,0h-2.3L-51.9-4.172-54.352,0h-2.3l3.523-5.734-3.445-5.641h2.281ZM-36.867,0h-1.891V-9.133l-2.789.953v-1.6l4.438-1.633h.242ZM-25.5-4.789a6.2,6.2,0,0,1-.918,3.7A3.242,3.242,0,0,1-29.211.156a3.285,3.285,0,0,1-2.777-1.215,5.94,5.94,0,0,1-.957-3.6V-6.625a6.11,6.11,0,0,1,.918-3.68,3.272,3.272,0,0,1,2.8-1.227,3.291,3.291,0,0,1,2.785,1.2A5.924,5.924,0,0,1-25.5-6.758Zm-1.9-2.125a4.813,4.813,0,0,0-.437-2.348,1.493,1.493,0,0,0-1.391-.746,1.492,1.492,0,0,0-1.367.707,4.448,4.448,0,0,0-.461,2.207v2.578a4.937,4.937,0,0,0,.445,2.375,1.5,1.5,0,0,0,1.4.781,1.469,1.469,0,0,0,1.352-.723A4.645,4.645,0,0,0-27.4-4.344Zm10.992,2.125a6.2,6.2,0,0,1-.918,3.7A3.242,3.242,0,0,1-20.117.156a3.285,3.285,0,0,1-2.777-1.215,5.94,5.94,0,0,1-.957-3.6V-6.625a6.11,6.11,0,0,1,.918-3.68,3.272,3.272,0,0,1,2.8-1.227,3.291,3.291,0,0,1,2.785,1.2,5.924,5.924,0,0,1,.941,3.578Zm-1.9-2.125a4.813,4.813,0,0,0-.437-2.348,1.493,1.493,0,0,0-1.391-.746A1.492,1.492,0,0,0-21.5-9.3a4.448,4.448,0,0,0-.461,2.207v2.578a4.937,4.937,0,0,0,.445,2.375,1.5,1.5,0,0,0,1.4.781,1.469,1.469,0,0,0,1.352-.723A4.645,4.645,0,0,0-18.3-4.344Zm14.578.82h-6.734V-7.672h6.734Zm0,3.313h-6.734v-1.57h6.734ZM9.766-10.32,5.219,0H3.227L7.766-9.852H1.883v-1.523H9.766ZM17.2-11.43v1.57h-.234a3.768,3.768,0,0,0-2.547.875A3.661,3.661,0,0,0,13.281-6.57a3.083,3.083,0,0,1,2.336-.961A2.912,2.912,0,0,1,18-6.469a4.185,4.185,0,0,1,.871,2.742,3.912,3.912,0,0,1-1.02,2.809A3.519,3.519,0,0,1,15.172.156,3.438,3.438,0,0,1,12.41-1.1a4.948,4.948,0,0,1-1.059-3.3v-.648a6.962,6.962,0,0,1,1.457-4.687A5.224,5.224,0,0,1,17-11.43ZM15.156-6a2,2,0,0,0-1.145.352,2.055,2.055,0,0,0-.762.938v.578a3.405,3.405,0,0,0,.531,2.012,1.62,1.62,0,0,0,1.375.746,1.6,1.6,0,0,0,1.336-.633,2.635,2.635,0,0,0,.492-1.664,2.673,2.673,0,0,0-.5-1.68A1.594,1.594,0,0,0,15.156-6Zm5.617,8.563L19.75,1.953A5.52,5.52,0,0,0,20.371.715a3.7,3.7,0,0,0,.176-1.074V-1.836h1.711L22.25-.469a3.81,3.81,0,0,1-.418,1.66A4.124,4.124,0,0,1,20.773,2.563ZM29.8-11.43v1.57H29.57a3.768,3.768,0,0,0-2.547.875A3.661,3.661,0,0,0,25.891-6.57a3.083,3.083,0,0,1,2.336-.961,2.912,2.912,0,0,1,2.379,1.063,4.185,4.185,0,0,1,.871,2.742,3.912,3.912,0,0,1-1.02,2.809A3.519,3.519,0,0,1,27.781.156,3.438,3.438,0,0,1,25.02-1.1a4.948,4.948,0,0,1-1.059-3.3v-.648a6.962,6.962,0,0,1,1.457-4.687,5.224,5.224,0,0,1,4.191-1.7ZM27.766-6a2,2,0,0,0-1.145.352,2.055,2.055,0,0,0-.762.938v.578a3.405,3.405,0,0,0,.531,2.012,1.62,1.62,0,0,0,1.375.746A1.6,1.6,0,0,0,29.1-2.008a2.635,2.635,0,0,0,.492-1.664,2.673,2.673,0,0,0-.5-1.68A1.594,1.594,0,0,0,27.766-6Zm12.8-4.32L36.016,0H34.023l4.539-9.852H32.68v-1.523h7.883Zm5.43,1.133a2.283,2.283,0,0,1,.664-1.691,2.363,2.363,0,0,1,1.742-.66,2.371,2.371,0,0,1,1.754.66,2.34,2.34,0,0,1,.66,1.73v.563a2.267,2.267,0,0,1-.66,1.68,2.358,2.358,0,0,1-1.738.656,2.433,2.433,0,0,1-1.738-.645,2.275,2.275,0,0,1-.684-1.738Zm1.328.6a1.248,1.248,0,0,0,.3.871,1.019,1.019,0,0,0,.793.332,1,1,0,0,0,.781-.332,1.3,1.3,0,0,0,.3-.9v-.57a1.262,1.262,0,0,0-.3-.875A1.013,1.013,0,0,0,48.4-10.4a.984.984,0,0,0-.785.34,1.322,1.322,0,0,0-.293.895Zm4.141,5.8a2.236,2.236,0,0,1,.68-1.7,2.411,2.411,0,0,1,1.734-.648,2.407,2.407,0,0,1,1.738.648,2.312,2.312,0,0,1,.676,1.75v.555A2.285,2.285,0,0,1,55.637-.5a2.344,2.344,0,0,1-1.746.66A2.413,2.413,0,0,1,52.129-.5a2.3,2.3,0,0,1-.668-1.723Zm1.328.609a1.246,1.246,0,0,0,.309.871,1.023,1.023,0,0,0,.793.34.991.991,0,0,0,.785-.324,1.333,1.333,0,0,0,.285-.91v-.586a1.235,1.235,0,0,0-.3-.875,1.019,1.019,0,0,0-.781-.328,1.015,1.015,0,0,0-.785.328,1.291,1.291,0,0,0-.3.906ZM48.8-.852l-.977-.562L53.383-10.3l.977.563Z" transform="translate(1199.513 5938.507)" fill="#12263f"/>
    <path id="Trazado_896890" data-name="Trazado 896890" d="M-4.859,0H-6.75V-9.133l-2.789.953v-1.6L-5.1-11.414h.242ZM-.516,2.563l-1.023-.609A5.52,5.52,0,0,0-.918.715,3.7,3.7,0,0,0-.742-.359V-1.836H.969L.961-.469a3.81,3.81,0,0,1-.418,1.66A4.124,4.124,0,0,1-.516,2.563Zm3.633-8.2.617-5.734H9.844v1.641H5.313L5-7.016a3.512,3.512,0,0,1,1.781-.453A3.169,3.169,0,0,1,9.309-6.43a4.118,4.118,0,0,1,.9,2.8,3.79,3.79,0,0,1-1,2.762A3.65,3.65,0,0,1,6.469.156,3.822,3.822,0,0,1,3.879-.73,3.206,3.206,0,0,1,2.766-3.07H4.6A2,2,0,0,0,5.2-1.8a1.806,1.806,0,0,0,1.266.441,1.632,1.632,0,0,0,1.363-.625,2.7,2.7,0,0,0,.488-1.7,2.384,2.384,0,0,0-.539-1.645,1.885,1.885,0,0,0-1.484-.605,2.469,2.469,0,0,0-.875.137,2.478,2.478,0,0,0-.781.535Z" transform="translate(1103.018 5952.507)" fill="#12263f"/>
    <path id="Trazado_896851" data-name="Trazado 896851" d="M6446.625-5625.255h42.357" transform="translate(-5366.992 11557.762)" fill="none" stroke="#000" stroke-width="1"/>
  </g>
</svg>
